<?xml version="1.0" encoding="UTF-8"?><svg xmlns="http://www.w3.org/2000/svg" viewBox="0 0 337.72 132.11"><defs><style>.d{fill:#f6e3ba;}.e{fill:#e0c591;}.f{fill:#e0caa0;}.g{fill:#e3d0ad;}.h{fill:#f9f0de;}.i{fill:#e3cda3;}.j{fill:#f9ecd1;}.k{fill:#f6e9cd;}</style></defs><g id="a"/><g id="b"><g id="c"><path class="d" d="M54.24,130.82c-13.52,2.14-26.04,1.14-35.26-2.81-3.96-1.7-12.98-6.26-11.34-11.91-.12-2.9-.13-5.79-.14-8.6,0-2.15,0-4.38-.07-6.57l-.03-1.32c-.04-2.15-.09-4.36-.52-6.45-.07-.36-.17-.71-.26-1.05-.35-1.3-.68-2.53,.21-3.88,.76-1.15,2.18-2.01,3.71-2.25,.14-.02,.28-.04,.42-.05v-.41l-5.48,.19c-.53-2.19-1.3-4.37-2.06-6.49-.23-.62-.45-1.25-.66-1.87l-.65-1.87c-.55-1.57-1.1-3.14-1.62-4.72-1.9-5.82,7.21-12.99,14.24-17.87,7.22-5.02,16.15-9.22,26.55-12.49,7.2-2.27,15.08-4.08,23.41-5.4,11.16-1.77,23.56-2.73,37.88-2.94,19.4-.28,38.88,1.27,57.71,2.77,22.42,1.78,45.61,3.62,68.8,2.39,11.77-.62,22.15-1.46,31.72-2.57l.29-.04-.08-.23c-.52-1.59-.74-3.29-.95-4.94-.17-1.29-.34-2.64-.66-3.93-.6-2.4-1.54-4.72-2.44-6.95l-.56-1.38c-.71-.72-1.12-1.43-1.28-2.25-.38-1.85,.9-3.72,3.81-5.56,6.66-4.21,15.89-6.08,23.19-7.23,1.09-.17,2.16-.33,3.2-.48,8.17-1.19,20.26-2.5,30.9-.22,6.53,1.4,12.45,5.32,10.98,10.94,.82,3.4,1.3,6.86,1.77,10.21,.17,1.2,.34,2.4,.52,3.6,1.99,12.97,3.53,20.72,4.65,26.03,.37,1.72,.85,3.49,1.33,5.18,.74,2.63,1.49,5.34,1.81,8.03v.06l.06,.05c.14,.13,.16,.3,.05,.49-.04,.17-.09,.25-.17,.31-6.07,10.27-20.49,15.41-30.82,18.39-7.87,2.27-16.36,4.12-25.96,5.64-7.1,1.12-14.77,2.07-24.17,2.99-17.52,1.71-36.17,2.68-58.68,3.08l-.96,.02c-19.7,.34-34.75,.37-48.82,.11-8.62-.16-16.59-.43-24.37-.82-4.06-.2-8.14-.44-12.1-.72-1.18-.08-2.43-.23-3.62-.38-2.12-.26-4.31-.52-6.4-.45-.4-.98-.89-1.94-1.37-2.87-.37-.73-.74-1.45-1.07-2.19l-.46,.16c.24,.53,.07,1.94-.05,3.07-.06,.5-.11,.94-.12,1.29-3.01-.42-5.88-.21-8.92,.02-.76,.06-1.53,.12-2.31,.17-.29,.01-1.05,.09-2.07,.2-2.64,.27-9.64,.98-10.23,.66l-.41,.23c.3,.52,.47,1.16,.63,1.78,.14,.52,.28,1.05,.5,1.52l.16,.31c.71,1.2,1.49,2.47,2.43,3.62,.53,.66,1.23,1.27,1.91,1.85,.91,.79,1.85,1.61,2.37,2.55,1.73,3.13,1.65,6.91-.21,10.62-2.34,4.67-7.68,8.33-15.85,10.86-3.82,1.18-7.86,2.12-12.01,2.77h0Z"/><path class="k" d="M48.4,47.53c-1.2,1.96,4.16,23.67,10.59,32.93,0,0,44.48-3.28,117.86,1.21,73.38,4.48,123.97-4.56,124.22-5.62,.24-1.07,26.51-20.3,11.7-46.05-31.2,6.31-102.98,14.6-179.73,4.48-49-1.83-79.06,3.96-84.64,13.06Z"/><path class="j" d="M186.57,88.15c-4.91,.18-9.81,.35-14.71,.52-17.99,.62-36.19,1.7-54.07,.67-18.25-1.05-36.92,.78-55.02-1.19-1.83-.2-2.27-2.12-1.1-3.03,19.34-.58,54.21-.85,100.65,1.98,8.39,.51,16.49,.85,24.25,1.04Z"/><path class="h" d="M274.12,82.74c-3.12,.06-6.24-.03-9.38,.3-.04,0-.07,0-.1,.01-.84,.13-1.31,.75-1.37,1.38-12.37,1.46-25.12,1.61-37.18,2.13-13.17,.57-26.35,1.09-39.52,1.58-7.76-.19-15.85-.53-24.25-1.04-46.45-2.84-81.32-2.57-100.66-1.98,.27-.21,.62-.37,1.06-.44,.02,0,.04,0,.05,0,18.26-2.57,36.74-1.5,55.05-3.47,7.86-.85,15.76-1.32,23.65-1.65-6.07-.16-12.14-.34-18.2-.58-11.34-.45-25.32-.09-35.27-4.6-1.55-.7-1.12-3.04,.54-3.57,1.6-.51,3.2-.87,4.8-1.12,4.06-.64,8.17-.61,12.38-.72,6.8-.17,13.6,0,20.37,.17,1.14,.03,2.28,.05,3.42,.08-2.6-.39-5.2-.81-7.8-1.21-4.65-.7-9.77-1.01-14-2.69-2.25-.89-2.41-4.23,.5-4.69,.08-.01,.17-.02,.25-.03,1.7-.16,3.43-.23,5.19-.23-3.21-.67-6.35-1.51-9.31-2.6-1.76-.65-2.04-3.05-.36-3.87-3.23-.21-6.46-.43-9.68-.66-7.12-.51-15.77-.49-21.86-3.67-1.31-.69-.97-2.52,.46-3.06,1.66-.63,3.43-1.06,5.26-1.35,5.73-.91,12.09-.44,17.54-.42,8.31,.04,16.64,.03,24.95,.13,16.2,.2,32.38,.66,48.58,.84,16.59,.18,33.2,.21,49.82,.1,16.34-.12,33.6-1.42,49.6,.85,4.42,.63,4.64,5.86-.03,6.75-1.12,.21-2.24,.41-3.37,.59-11.65,1.85-23.82,1.93-35.72,1.92,.38,1.13-.11,2.44-1.84,3.19-3.25,1.41-6.9,2.35-10.7,3,2.76,.06,5.45,.26,8.02,.69,3.05,.52,4.54,4.36,.89,5.63-1.92,.67-3.93,1.19-6,1.61,1.42-.01,2.84-.01,4.27-.03,5.87-.07,12.35-.8,17.74,1.1,2.12,.75,3.09,2.7,2.65,4.45,12.11-.57,24.33-.77,35.77,1.04,2.17,.35,2.84,2,2.08,3.29-.36,.07-.72,.13-1.08,.2-1.01,.19-1.7,.79-2.03,1.5-1.71,.43-3.45,.81-5.2,1.16Z"/><path class="j" d="M328.15,66.23c-.42,.07-.86,.05-1.27-.05-.29-3.85-1.38-7.8-1.83-10.8-1.21-7.99-2.68-15.93-3.83-23.92-.12-.82-.59-1.36-1.21-1.65,.15-1.14,.32-2.3,.5-3.47,.13-.82,.87-1.31,1.67-1.43,1-.16,2.09,.24,2.2,1.26,.74,6.55,1.96,13.18,3.29,19.64,1.21,5.87,4.26,12.34,2.85,18.43-.26,1.1-1.26,1.84-2.37,2.01Z"/><path class="j" d="M320.88,21.89c-1.85,.29-3.77-.12-5.09-1.58-3.75-4.15-8.35-7.23-13.59-8.88-.36-.21-.72-.41-1.08-.62-1.06-.61-2.22-.77-3.3-.6-.19,.03-.39,.07-.57,.12-2.93-.39-6.02-.35-9.22,.15-1.85,.29-3.75,.75-5.68,1.37-.21,.07-.42,.12-.63,.15-3.13,.49-5.72-2.79-2.69-4.73,4.41-2.81,9.35-4.6,14.37-5.4,12.94-2.05,26.38,2.5,32.44,13.01,1.88,3.25-1.4,6.43-4.97,6.99Z"/><path class="j" d="M47.22,126.89c-1.67,.26-3.3,.44-4.82,.54-8.92,.58-20.34-.99-25.19-7.67-.04-.05-.08-.11-.11-.17,.15,0,.31-.02,.48-.05h0c4.01-.64,7.7-2.14,11.52-3.33,4.05,.85,8.1,1.57,12.54,1.26,.79-.05,1.57-.15,2.33-.27,4.2-.66,8.03-2.23,11.97-3.47-.54-.08-1.07-.19-1.59-.36-.6-.19-1.07-.44-1.53-.78-.44-.24-.77-.55-1-.93-.17-.25-.25-.37-.26-.37,0,0,.06,.12,.21,.37-.03-.04-.46-.49-.52-.57-.22-.25-.4-.51-.54-.81-.16-.46-.24-.69-.23-.69,0,0,0,.02,.03,.06-.51-1.46,.68-2.87,2.31-3.12,.33-.05,.68-.06,1.04,0,.28-.01,.56-.01,.75,0,.11-.03,.17-.05,.18-.05,0,0-.04,.02-.16,.05h.03c.34-.08,.76-.19,.81-.2,.12-.02,.2-.04,.27-.05,.14-.05,.28-.11,.3-.12,.47-.18,.97-.32,1.47-.4,.61-.1,1.23-.11,1.82-.01,1.09,.18,2.05,.49,2.77,1.09-.34,.08-.69,.16-1.04,.25-2.53,.56-3.6,3.87-.73,4.57,.13,.03,.26,.08,.38,.12-.49,.59-.92,1.22-1.25,1.92-1.12,2.42,1.36,4.16,3.75,3.78,.8-.13,1.59-.49,2.23-1.14-.1,.11-.14,.14-.13,.14,.03,0,.5-.41,.72-.5,.09-.03,.18-.06,.28-.09-.04,.11-.08,.22-.12,.33-2.6,6.33-11.27,9.46-19,10.68Z"/><path class="e" d="M17.09,119.59c-2.83,.13-4.54-2.64-2.81-4.67,.32-.38,.69-.75,1.07-1.12-.29-.92-.06-2.03,.73-2.78-.52-.21-.96-.54-1.16-1.02-.55-1.33-.65-2.67-.54-4.01,.55,.22,1.19,.27,1.8,.18,1.18-.19,2.3-.93,2.61-2.18,1.64-6.41,.58-12.96-1.42-19.06-1.11-3.38-2.35-7.59-4.66-10.91,.1-3.61,.26-7.2,.41-10.77-1.67,.26-3.36,.4-5.18,.32-3.43-.15-3.04-4.14,.02-4.81,3.24-.71,6.28-1.44,8.85-3.41,.64-.49,1.33-.77,2.01-.88,2.2-.35,4.36,1.07,4.89,2.92,.1,.34,.19,.68,.3,1.01,.07-.6,.61-.95,1.2-1.04,.74-.12,1.56,.17,1.63,.91,.65,7.44,1.66,16.34,6.44,22.6,4.16,5.44,10.26,6.51,16.63,9.34,.86,.38,1.21,1.08,1.21,1.82,1.41,.66,1.3,2.91-.39,3.4-1.56,.46-3.17,.81-4.81,1.07-2,.32-4.05,.5-6.11,.59,.68,1.1,.64,2.61-.31,3.57-.09,.09-.19,.18-.29,.27,.94-.21,1.87-.41,2.81-.6,.08-.01,.15-.03,.23-.04,1.3-.21,2.44,.1,3.39,.66,.13-.32,.36-.63,.72-.91,.42-.33,.89-.65,1.38-.97,0-1.14,.8-2.31,2.55-2.59,1.69-.27,3.45-.61,5.21-.9,1.34-.4,2.71-.71,4.08-.93,3.88-.61,7.7-.4,10.52,1.17,1.86,1.04,.74,3.19-1.16,3.68-.44,.11-.88,.2-1.32,.27-2.82,.45-5.77,.15-8.63,.56-.13,.02-.26,.04-.39,.06-3.48,.55-6.61,1.75-9.9,2.88-.17,.06-.35,.1-.51,.13-.06,0-.11,.01-.16,.02,1.19,1.92,1.5,3.72,1.2,6.06-.17,1.27-1.47,2.28-2.9,2.51-.55,.09-1.13,.06-1.66-.12-.36-.12-.69-.24-1.02-.37-3.69,2.42-7.52,2.89-11.95,4.01-.86,.22-1.72,.47-2.57,.73-2.77-.59-5.53-1.23-8.41-1.66-.47-.07-.9-.06-1.28,0-2.53,.4-3.41,3.28-2.31,5.04Zm4.43-14.66c-.12,.9-.29,1.78-.58,2.65,1.29-.76,2.61-1.46,3.97-2.09-1.17-.08-2.32-.27-3.4-.56Zm10.57-14.12c-.16,.27-.37,.52-.63,.72,.12,.15,.25,.3,.38,.45,.5-.07,1-.14,1.5-.21-.43-.31-.85-.63-1.25-.97Z"/><path class="i" d="M16.17,106.17c-.62,.1-1.26,.04-1.81-.18,.14-1.65,.59-3.31,.93-5.03-.71-.99-1.21-2.15-1.43-3.48-1.28-7.68-1.37-15.59-1.16-23.47,2.31,3.32,3.55,7.53,4.66,10.91,2,6.1,3.06,12.65,1.42,19.06-.31,1.25-1.43,1.99-2.61,2.18Z"/><path class="i" d="M17.57,119.54c-.17,.03-.32,.04-.48,.05-1.1-1.76-.22-4.64,2.31-5.04,.39-.06,.82-.07,1.28,0,2.88,.43,5.65,1.07,8.41,1.66-3.83,1.18-7.51,2.69-11.52,3.33h0Z"/><path class="e" d="M73.48,119.19c-1.78,.28-3.66-.28-4.58-2-.37-.69-.81-1.19-1.73-1.41-.06-.02-.08-.02-.11-.03-.02,0-.06,.01-.08,.02-.2,.03-.48,.07-.34,.01-.09,.04-.19,.07-.29,.1,.61-2.11-1.23-4.01-3.93-3.66-.08,.01-.15,.03-.23,.04l-.15,.02c-.06,0-.11,.02-.16,.03-.03,0-.06,0-.09,.01,.2-.17,.4-.34,.59-.54,1.02-1.12,1.22-2.66,.59-3.88-.22-.42-.51-.77-.85-1.05,.51-.12,1.01-.23,1.52-.31,.7-.11,1.42-.16,2.23-.09,1.54,.14,3.06,.47,4.46,.99,1.6,.59,3.15,1.38,4.25,2.41,1.7,1.23,2.83,3.01,3.01,4.97,.22,2.35-1.86,4.04-4.1,4.4Z"/><path class="i" d="M63.23,117.46c-2.4,.38-4.87-1.36-3.75-3.78,.33-.7,.76-1.33,1.25-1.92-.12-.04-.25-.09-.38-.12-2.86-.7-1.8-4,.73-4.57,.36-.08,.71-.17,1.04-.25,.34,.29,.63,.63,.85,1.05,.63,1.23,.42,2.76-.59,3.88-.18,.2-.39,.37-.59,.54,.03,0,.06,0,.09-.01,.06,0,.11-.02,.16-.03l.15-.02c.07-.01,.15-.02,.23-.04,2.69-.35,4.53,1.56,3.93,3.66-.1,.03-.19,.06-.28,.09-.22,.09-.69,.49-.72,.5,0,0,.03-.04,.13-.14-.64,.65-1.43,1.01-2.23,1.14Z"/><path class="e" d="M281.76,87.99c-6.55,1.04-13.09,.62-17.86-2.32-.19-.11-.33-.26-.44-.42,5.77-.64,10.55-1.29,14.24-1.87,5.69-.9,8.77-1.64,8.83-1.9,.05-.22,1.22-1.22,2.9-2.9,1.03-.19,2.06-.38,3.09-.58,1.23-.67,2.41-1.41,3.55-2.2,4.5-3.15,7.87-7.23,10.03-11.73,1.8-3.73,2.4-7.81,4.43-11.44,.14-.25,.33-.45,.54-.62,0-.16,0-.32,0-.47-.19-5.98-1.66-14.01,2.36-19.42,.27-.36,.72-.58,1.2-.66,.32-.05,.64-.04,.94,.03,.35-1.05,1.43-1.73,2.56-1.91,.65-.1,1.32-.04,1.86,.22-.74,5.8-.98,11.4-.4,17.27,.61,6.14,1.09,13.81,6.08,18.46,.35,.32,.76,.54,1.19,.65,.17,2.26,.05,4.48-.62,6.45,.93,.89,.92,2.46-.34,3.37-5.69,4.14-14.03,5.29-21.07,6.55-.86,.15-1.72,.3-2.58,.43-2.38,.38-4.73,.68-7.09,.92-4.03,1.85-8.72,3.35-13.41,4.09Zm30.57-18.9c-1.31,2.03-2.87,3.97-4.56,5.75,2.03-.52,4.08-1.07,6.13-1.57-.68-1.28-1.19-2.69-1.58-4.18Z"/><path class="f" d="M277.71,83.38c-3.69,.58-8.47,1.24-14.24,1.87-.15-.25-.22-.54-.2-.82,1.99-.24,3.98-.51,5.94-.82,1.65-.26,3.28-.55,4.91-.88,1.65-.03,3.31-.11,4.97-.33,.02-.28,.1-.57,.23-.84,.34-.09,.67-.17,1.01-.26,1.03-.26,1.73-.81,2.1-1.44,2.34-.43,4.67-.86,7.01-1.29-1.69,1.67-2.86,2.68-2.9,2.9-.06,.26-3.14,1-8.83,1.9Z"/><path class="g" d="M269.22,83.62c-1.97,.31-3.95,.58-5.94,.82,.05-.63,.53-1.24,1.37-1.38,.03,0,.07-.01,.1-.01,3.15-.34,6.26-.24,9.38-.3-1.62,.33-3.26,.61-4.91,.88Zm10.11-2.04c.33-.71,1.02-1.31,2.03-1.5,.36-.07,.72-.13,1.08-.2-.37,.63-1.07,1.18-2.1,1.44-.34,.09-.67,.18-1.01,.26Z"/><path class="i" d="M326.88,66.18c-.44-.11-.85-.32-1.19-.65-4.99-4.65-5.47-12.32-6.08-18.46-.58-5.87-.34-11.47,.4-17.27,.62,.29,1.09,.83,1.21,1.65,1.15,7.99,2.62,15.93,3.83,23.92,.45,3,1.54,6.96,1.83,10.8Z"/><path class="e" d="M270.61,33.05c-2.07,.33-4.31-.43-4.58-2.61-.25-2.05-.3-4.17-.31-6.24-.01-1.79-.04-3.64,1.28-5.18,.31-.36,.78-.59,1.28-.67,.5-.08,1.02,0,1.43,.24,1.74,1.06,2.28,2.82,2.82,4.53,.63,1.98,1.24,4.01,1.63,6.04,.42,2.16-1.47,3.57-3.54,3.9Z"/><path class="e" d="M273.68,18.02c-3.48,.55-7.09-.36-10.19-1.85-3.2-1.54-1.08-5.39,2.01-5.88,.59-.09,1.22-.06,1.85,.13,3.63,1.11,7.38,1.76,10.7,3.38,1.03,.51,1.01,2.01,0,2.62-1.4,.86-2.89,1.37-4.39,1.6Z"/><path class="e" d="M300.01,25.64c-2.12,.33-4.32-.24-5.02-2.16-1.03-2.79-1.07-5.78-1.3-8.71-.16-2.06,1.48-3.85,3.56-4.42,1.7,.23,3.36,.59,4.95,1.1,2.3,1.31,4.63,2.72,5.76,4.91,.58,1.1,.26,2.52-.59,3.6,.03,.3,.02,.62-.04,.95-.26,1.39-1.46,2.25-2.85,2.47-.15,.02-.3,.04-.45,.05-.79,1.16-2.38,1.97-4.02,2.23Z"/><path class="i" d="M302.2,11.44c-1.59-.5-3.25-.87-4.95-1.1,.19-.05,.38-.09,.57-.12,1.08-.17,2.24-.01,3.3,.6,.36,.21,.72,.41,1.08,.62Z"/><path class="e" d="M290.69,29.48c-4.82,.76-4.07-5.9-4.17-8.3-.06-1.64,1.02-3.21,3.12-3.55,1.8-.29,4,.78,4.06,2.41,.09,2.58,1.5,8.72-3.01,9.44Z"/><path class="e" d="M302.35,33.29c-3.64,.58-7.4,.78-10.89,1.05-2.46,.19-2.89-2.56-.5-3.13,3.41-.82,7.05-1.78,10.69-2.36,2.54-.4,5.08-.62,7.55-.45,1.84,.12,2.18,2.3,.47,2.98-2.29,.92-4.77,1.51-7.32,1.91Z"/><path d="M264.88,27.09c.09,.76,.14,1.56,.22,2.36-.63-.04-1.26-.1-1.89-.19-.12-.46-.24-.91-.33-1.35-.07-.32-.15-.64-.21-.96,.73,.05,1.47,.1,2.2,.14Zm2.47,3.01c.17,.8,.31,1.64,.54,2.44-.54-.01-1.08,0-1.63,0,.01-.8-.09-1.63-.25-2.45,.44,.02,.89,.02,1.33,.01Zm-4-.33c.59,.11,1.2,.19,1.81,.25,.11,.87,.26,1.73,.52,2.53-.61,.02-1.21,.03-1.8,.05-.06-.93-.29-1.89-.53-2.83Zm5.97-7.73c-3.29,.05-6.38-.06-9.57-.64-.3-.05-.43,.37-.14,.45,.55,.14,1.12,.26,1.7,.36,.12,.68,.24,1.37,.36,2.04-.11,.09-.13,.26,.04,.32h.02c.12,.68,.24,1.35,.36,2.02-.15,.07-.16,.29,.05,.3h0c.07,.36,.13,.73,.2,1.09,.07,.37,.12,.76,.18,1.15-.23-.04-.45-.08-.68-.13-.31-.07-.51,.33-.2,.41,.31,.08,.63,.15,.96,.22,.14,1.01,.29,2.04,.6,2.99-.15,0-.3,.01-.44,.01-.31,0-.39,.41-.07,.42,.22,0,.44,0,.67,0,.05,.12,.1,.25,.15,.37,.06,.15,.38,.11,.38-.06,0-.1,0-.21,0-.31,.66,0,1.32,.01,1.98,.01,.07,.1,.25,.09,.33,0,.62,0,1.24-.01,1.85-.04,.08,.23,.16,.46,.27,.67,.09,.17,.36,.07,.36-.1,0-.2-.03-.4-.06-.61,.37-.02,.74-.04,1.11-.08,.19-.02,.18-.26,0-.27-.38-.03-.76-.04-1.15-.06-.15-.84-.44-1.69-.67-2.51,.59-.04,1.18-.11,1.75-.23,.22-.04,.25-.35,0-.34-.67,0-1.33,.02-1.98,.02-.1-.08-.25-.07-.36,0-.48,0-.97,0-1.45-.03-.17-.8-.37-1.6-.53-2.38,1.14,.06,2.29,.1,3.44,.08,.21,0,.26-.26,.04-.28-1.17-.14-2.37-.21-3.57-.25-.02-.14-.05-.27-.08-.41-.04-.23-.46-.16-.43,.07,.02,.11,.03,.22,.04,.33-.74-.03-1.48-.05-2.22-.07-.14-.62-.27-1.23-.41-1.84,1.98,.65,4.19,.92,6.34,.43,.16-.04,.19-.26,0-.26-2.26,.09-4.36,.01-6.44-.65-.15-.66-.3-1.33-.44-1.99,2.5,.43,5.15,.5,7.67,.06,.19-.03,.21-.3,0-.3Z"/><path d="M260.97,15.8c1.52-1.1,3.1-2.22,4.42-3.5,.14-.14-.1-.31-.26-.2-1.6,1-3.03,2.23-4.43,3.41-.2,.17,.04,.45,.27,.28Z"/><path d="M263.26,16.79c1.68-1.61,3.48-3.19,4.93-4.94,.1-.13-.09-.3-.23-.18-1.86,1.49-3.46,3.24-5.11,4.89-.21,.21,.18,.44,.4,.24Z"/><path d="M273.77,16.58c-1.37,.63-2.61,1.52-3.86,2.29-.34,.21,.05,.6,.39,.4,1.24-.76,2.61-1.47,3.71-2.37,.19-.15,.02-.44-.23-.33Z"/><path d="M275.63,14.82c-1.56,.06-3.13,.19-4.7,.34,.86-.77,1.71-1.56,2.36-2.42,.14-.2-.11-.42-.34-.26-1.13,.78-2.12,1.79-3.08,2.79-.87,.08-1.74,.17-2.62,.26,1.31-1.35,2.62-2.7,3.72-4.15,.1-.13-.09-.32-.24-.19-1.98,1.74-3.65,3.73-5.4,5.63-.23,.23,.2,.48,.42,.25,.31-.33,.63-.65,.94-.97,.86-.07,1.71-.15,2.57-.22-.24,.24-.48,.49-.72,.72-.26,.25,.21,.51,.46,.28,.38-.36,.79-.72,1.2-1.08,1.81-.15,3.63-.32,5.42-.58,.26-.04,.27-.41,0-.39Z"/><path d="M298.35,29.25c-.22-1.46-.84-2.87-1.26-4.28-.45-1.51-.85-3.03-1.21-4.56-.69-2.98-1.21-5.99-1.63-9.02-.03-.25-.49-.17-.46,.07,.24,3.13,.73,6.24,1.42,9.3,.63,2.82,1.15,6.05,2.63,8.62,.13,.22,.56,.11,.52-.14Z"/><path d="M314.15,15.1c.12,1.55,.05,3.22,.46,4.73,.06,.19,.43,.21,.46-.02,.18-1.58-.13-3.24-.26-4.81-.03-.36-.69-.25-.66,.11Z"/><path d="M312.44,23.43c-4.03,.66-8.04,2.12-11.94,3.24-.29,.09-.15,.51,.14,.43,3.92-1.05,8.16-1.87,11.9-3.37,.2-.07,.12-.34-.1-.3Z"/><path d="M297.97,17.87c.85-.13,1.71-.25,2.56-.37,.2,1.18,.4,2.36,.6,3.54-.82,.14-1.63,.27-2.44,.41-.23-1.19-.47-2.39-.71-3.58Zm5.96-.86v.06c.31,1.11,.6,2.23,.9,3.35-.98,.15-1.95,.31-2.92,.48-.24-1.17-.48-2.34-.72-3.5,.91-.13,1.83-.26,2.74-.39Zm4.82,2.87c-1.06,.13-2.12,.27-3.18,.43-.35-1.11-.72-2.21-1.05-3.33l-.05-.05c1.19-.17,2.38-.36,3.55-.57,.17,1.19,.36,2.4,.74,3.52Zm-3.41,2.35c-1.01,.21-2.03,.45-3.03,.68-.1-.51-.19-1.03-.3-1.54,.99-.14,1.98-.29,2.96-.45,.12,.44,.23,.88,.37,1.32Zm-7.97-.17c.18-.03,.36-.05,.55-.08,.31,1.79,.65,3.58,1.03,5.36,.09,.42,.89,.29,.79-.12-.29-1.79-.62-3.58-.96-5.36,.82-.12,1.63-.24,2.44-.36,.09,.53,.2,1.07,.3,1.6-.35,.08-.7,.15-1.06,.22-.27,.06-.22,.41,.06,.35,.36-.07,.71-.13,1.08-.19,.09,.45,.17,.9,.26,1.35,.09,.42,.88,.29,.78-.12-.07-.45-.16-.91-.24-1.36,1.04-.17,2.09-.34,3.13-.53,.1,.35,.21,.7,.32,1.05,.12,.37,.84,.29,.75-.12-.08-.36-.18-.72-.26-1.08,1.31-.25,2.6-.53,3.83-.92,.19-.06,.09-.28-.08-.26-1.31,.11-2.63,.33-3.96,.6-.12-.43-.26-.86-.39-1.28,1.06-.17,2.11-.37,3.16-.58,.07,.18,.13,.36,.21,.53,.08,.19,.49,.14,.5-.08,0-.2,0-.4,0-.6,.22-.04,.43-.07,.65-.12,.19-.04,.15-.26-.04-.24-.21,.02-.42,.05-.63,.07-.08-1.19-.38-2.4-.69-3.59,.65-.12,1.31-.25,1.96-.39,.14,1.53,.27,3.18,.89,4.52,.08,.18,.42,.12,.44-.07,.22-1.86-.45-3.94-.8-5.75-.07-.34-.69-.24-.65,.1,.04,.27,.07,.55,.09,.83-.68,.07-1.37,.16-2.06,.25-.15-.58-.3-1.16-.42-1.72-.07-.35-.73-.25-.66,.1,.11,.56,.19,1.13,.28,1.72-2.29,.32-4.57,.72-6.85,1.13-.17-.8-.34-1.6-.49-2.41,0-.04-.05-.07-.07-.09,2.87-.42,5.82-.75,8.61-1.46,.22-.06,.19-.31-.05-.3-3.22,.21-6.49,.94-9.68,1.45-.36,.06-.28,.52,.07,.46,.2-.03,.41-.06,.61-.09-.02,.03-.05,.07-.04,.11,.14,.81,.28,1.62,.41,2.43-.86,.15-1.71,.3-2.57,.44-.4-1.92-.8-3.85-1.2-5.76-.05-.26-.52-.18-.48,.08,.53,3.27,1.05,6.55,1.63,9.82-.18,.03-.36,.06-.54,.09-.3,.05-.24,.43,.06,.39Z"/><path d="M299.62,12.88c2.13-.45,4.26-.91,6.38-1.43,.19-.04,.16-.29-.04-.26-2.15,.38-4.28,.82-6.41,1.26-.33,.07-.26,.5,.07,.43Z"/><path d="M290.53,20.34c.16-.05,.13-.28-.04-.27-1.61,.03-3.29,.45-4.89,.71-.3,.05-.24,.44,.06,.39,1.6-.24,3.33-.36,4.87-.83Z"/><path d="M289.63,22.83c.13-.03,.1-.17-.03-.16-.68,.05-1.35,.17-2.02,.28-.19,.03-.15,.28,.04,.25,.67-.11,1.34-.2,2-.36Z"/><path d="M288,25.57c.68-.11,1.38-.19,2.04-.37,.14-.04,.11-.24-.04-.23-.68,.03-1.38,.17-2.06,.28-.26,.04-.2,.37,.05,.33Z"/><path d="M288.01,27.73c.9-.26,1.87-.47,2.73-.84,.18-.07,.11-.3-.09-.27-.96,.14-1.92,.47-2.85,.72-.32,.09-.12,.48,.21,.39Z"/><path d="M323.62,21.96c-6.48,4.03-13.07,7.44-20.67,9.61-.3,.09-.11,.45,.19,.37,7.38-2.04,14.89-5.22,20.73-9.72,.2-.15-.03-.4-.25-.26Z"/><path d="M315,68.67c-.19-1.41-.35-2.83-.43-4.26,.93-.25,1.87-.51,2.79-.79-.05,1.38-.13,2.76-.21,4.14-.72,.3-1.44,.61-2.16,.91Zm.12,5.27c-1.27,.45-2.55,.87-3.84,1.27-.09-1.39-.23-2.77-.4-4.15,1.17-.49,2.34-.99,3.51-1.49,.18,1.47,.42,2.93,.74,4.37Zm-4.98-8.43c1.27-.3,2.54-.62,3.82-.95,.06,1.47,.18,2.93,.36,4.4-1.17,.5-2.35,.99-3.52,1.49-.22-1.65-.46-3.29-.66-4.93Zm8.1-6.05c1.03-.33,2.07-.66,3.09-1.01,.01,1.04,.04,2.08,.12,3.11-1.09,.34-2.19,.68-3.28,1.03,.05-1.04,.07-2.08,.07-3.12Zm-.05-2.98c1.04-.29,2.07-.6,3.1-.93,.02,.74,.03,1.48,.03,2.23-1.03,.31-2.06,.63-3.09,.96,0-.75-.02-1.5-.04-2.26Zm-.2-3.73c1.07-.44,2.13-.89,3.19-1.36,.03,1.23,.06,2.45,.1,3.68-1.04,.25-2.08,.52-3.11,.8-.04-1.04-.1-2.08-.17-3.12Zm-.19-2.29c1.13-.45,2.24-.92,3.31-1.43,.01,.57,.03,1.14,.04,1.71-1.08,.4-2.16,.82-3.23,1.25-.04-.51-.08-1.03-.13-1.54Zm6.62,6.87c.06,1.09,.15,2.18,.27,3.25-.88,.26-1.75,.52-2.61,.79,0-1.05-.04-2.1-.1-3.15,.82-.29,1.63-.58,2.44-.88Zm2.98,6.2c-3.29,1.15-6.47,2.62-9.67,3.98,.18-1.37,.3-2.75,.38-4.12,1.15-.36,2.3-.73,3.42-1.14,.03,.34,.06,.68,.11,1.01,.03,.16,.33,.15,.35-.02,.04-.4,.04-.79,.06-1.19,.91-.34,1.81-.71,2.69-1.09,.13,1.04,.31,2.08,.56,3.08,.04,.16,.36,.17,.38-.02,.13-2.31-.11-4.67-.4-7.01,.14-.08,.1-.25-.04-.29-.18-1.43-.38-2.85-.52-4.25-.04-.33-.64-.23-.6,.1,.12,1.43,.19,2.89,.28,4.36-.82,.22-1.63,.45-2.45,.69-.04-.68-.07-1.35-.1-2.02,0-.07,0-.14,0-.21,.6-.19,1.21-.38,1.81-.58,.18-.06,.1-.32-.09-.28-.58,.12-1.16,.27-1.73,.41-.04-1.26-.09-2.52-.14-3.78,.83-.37,1.67-.74,2.47-1.14,.21-.11,.09-.36-.15-.28-.79,.26-1.57,.53-2.35,.82-.02-.59-.05-1.17-.07-1.76,.09-.04,.18-.09,.28-.13,.28-.14,.11-.46-.19-.37l-.1,.03c0-.28-.02-.55-.03-.83,0-.25-.47-.17-.46,.07,0,.3,.02,.6,.02,.9-1.14,.35-2.27,.74-3.39,1.16-.06-.54-.11-1.08-.18-1.62,1.72-.79,3.36-1.68,4.75-2.74,.19-.15,.01-.43-.23-.32-1.58,.72-3.06,1.58-4.61,2.35-.12-.95-.27-1.9-.42-2.85,1.62-.71,3.21-1.46,4.68-2.32,.19-.11,0-.32-.19-.26-1.56,.5-3.1,1.14-4.62,1.82-.1-.58-.21-1.16-.33-1.74,1.46-.59,3-1.14,4.33-1.94,.16-.1,.05-.35-.15-.3-1.49,.38-2.89,1.04-4.29,1.65-.16-.78-.33-1.56-.51-2.34,1.68-.79,3.34-1.59,4.92-2.5,.21-.12,0-.38-.21-.29-1.65,.65-3.25,1.41-4.85,2.19-.12-.51-.25-1.01-.38-1.52,1.72-.89,3.42-1.82,4.95-2.87,.16-.11,0-.31-.17-.24-1.7,.69-3.33,1.55-4.95,2.44-.13-.48-.27-.97-.4-1.46,1.91-.85,3.82-1.72,5.63-2.69,.23-.12,.1-.42-.17-.32-1.91,.72-3.78,1.56-5.63,2.43-.24-.84-.49-1.67-.75-2.51,2.85-1.27,5.68-2.57,8.37-4.03,.2-.11,0-.37-.21-.29-2.86,1.12-5.65,2.44-8.42,3.78-.14-.06-.33,0-.32,.16-1.85,.89-3.69,1.8-5.54,2.66-.29,.14-.09,.51,.2,.38,1.81-.83,3.65-1.65,5.49-2.47,.26,.84,.49,1.68,.73,2.53-1.45,.68-2.89,1.38-4.34,2.04-.32,.14-.11,.57,.22,.42,1.41-.64,2.85-1.26,4.29-1.89,.14,.51,.28,1.01,.4,1.52-1.29,.73-2.56,1.47-3.83,2.15-.29,.15,0,.56,.3,.41,1.2-.64,2.45-1.27,3.69-1.91,.12,.51,.24,1.02,.36,1.53-1.17,.58-2.33,1.16-3.49,1.72-.34,.17-.11,.63,.24,.46,1.12-.54,2.25-1.06,3.39-1.59,.17,.77,.33,1.55,.48,2.33-1.65,.69-3.29,1.38-4.94,2.08-.38,.15-.13,.64,.25,.48,1.6-.66,3.19-1.32,4.79-1.98,.11,.59,.21,1.18,.31,1.78-1.91,.87-3.79,1.8-5.67,2.64-.36,.16-.12,.64,.24,.47,1.81-.8,3.7-1.55,5.56-2.36,.15,.97,.26,1.93,.38,2.9l-.09,.04c-1.82,.84-3.69,1.57-5.6,2.21-.41,.14-.15,.65,.27,.51,1.79-.61,3.68-1.28,5.51-2.08,.06,.52,.14,1.04,.19,1.57-2.41,.94-4.79,1.99-7.16,2.92-.4,.16-.14,.66,.26,.51,2.27-.88,4.65-1.69,6.96-2.58,.05,.51,.09,1.03,.12,1.55-2.85,1.17-5.67,2.4-8.49,3.56-.4,.16-.14,.68,.27,.51,2.73-1.11,5.51-2.18,8.27-3.3,.06,1.01,.09,2.02,.11,3.04-2.89,.8-5.77,1.66-8.64,2.46-.38,.11-.14,.57,.24,.47,2.79-.77,5.62-1.51,8.42-2.29,0,.76,0,1.52,0,2.29-3.13,1.01-6.24,2.09-9.3,3.15-.27,.09-.09,.4,.17,.33,3.02-.89,6.09-1.79,9.13-2.75-.02,1.03-.05,2.07-.08,3.11-2.45,.76-4.9,1.49-7.4,2.13-.15-.18-.51-.1-.57,.14-.36,.09-.72,.19-1.09,.27-.42,.09-.34,.66,.09,.55,.33-.08,.68-.16,1.01-.24,.17,1.7,.31,3.42,.47,5.14-.64,.27-1.27,.54-1.91,.81-.41,.18-.14,.71,.28,.53,.57-.24,1.13-.48,1.7-.72,.13,1.34,.3,2.67,.52,3.99-.57,.17-1.14,.34-1.72,.49-.46,.13-.37,.76,.1,.62,.57-.16,1.15-.32,1.72-.49,.05,.26,.08,.53,.13,.79,.06,.29,.6,.29,.65-.03,.03-.31,.08-.61,.16-.91,.01-.05-.01-.08-.04-.11,1.27-.38,2.54-.78,3.8-1.2,.17,.72,.34,1.43,.55,2.15,.09,.28,.65,.32,.69-.03,.04-.45,.09-.89,.11-1.34,0-.18-.32-.28-.39-.07v.03c-.09-.32-.16-.65-.23-.98,1.57-.54,3.12-1.12,4.65-1.74,.07,.05,.14,.11,.22,.15,.25,.14,.5-.12,.36-.32l-.05-.06c1.2-.5,2.37-1.04,3.53-1.6,.07,.1,.13,.21,.21,.3,.14,.17,.45,.01,.44-.17,0-.14-.05-.27-.08-.4,.78-.4,1.56-.81,2.32-1.24,.16-.09,0-.29-.16-.22-.76,.33-1.52,.65-2.28,.97-.24-.72-.62-1.43-.91-2.11-.17-.4-.92-.1-.74,.3,.3,.68,.54,1.44,.91,2.12-1.22,.51-2.43,1.01-3.65,1.5-.7-.95-1.23-1.84-1.25-3.1,0-.36-.67-.25-.67,.11,.01,1.1,.36,2.38,1.2,3.28-1.39,.54-2.78,1.08-4.2,1.58-.31-1.46-.56-2.94-.78-4.42,.68-.29,1.35-.57,2.03-.86-.02,.36-.04,.72-.06,1.08-.02,.21,.35,.24,.39,.03,.07-.44,.13-.89,.2-1.33,.1-.04,.2-.09,.31-.13,3.21-1.37,6.52-2.64,9.62-4.2,.24-.12,.1-.42-.17-.32Z"/><path d="M323.38,74.84c-5.48,3.07-11.21,5.63-17.43,7.37-.45,.13-.16,.67,.28,.55,6.19-1.74,12.19-4.24,17.42-7.63,.24-.16-.04-.42-.28-.29Z"/><path d="M59.71,115.24c-1.64,1.96-2.99,4.09-4.44,6.15-.18,.25,.24,.5,.42,.25,1.47-2.06,3.07-4.1,4.35-6.25,.1-.17-.21-.3-.34-.15Z"/><path d="M63.7,116.92c1.4-2.39,2.95-4.75,4.14-7.21,.1-.21-.26-.38-.4-.18-1.62,2.32-2.93,4.8-4.35,7.2-.19,.33,.42,.51,.61,.18Z"/><path d="M71.89,106.8c-2.5,3.82-4.37,7.97-6.46,11.94-.18,.33,.43,.51,.6,.18,2.13-3.96,4.58-7.91,6.27-12,.1-.24-.27-.34-.41-.12Z"/><path d="M75.64,106.77c.12-.21-.23-.33-.4-.17-3.16,3.18-5.14,7.46-6.66,11.3-.15,.37,.5,.57,.66,.2,.8-1.98,1.73-3.91,2.83-5.8,1.1-1.88,2.47-3.64,3.57-5.52Z"/><path d="M77.54,108.33c-1.37,3.55-2.76,7-5.04,10.27-.24,.35,.34,.7,.59,.35,2.29-3.26,4.22-6.85,4.84-10.55,.03-.18-.31-.26-.39-.07Z"/><path d="M63.29,108.88c1.01-1.44,2.09-2.86,2.96-4.35,.11-.19-.22-.33-.37-.16-1.15,1.34-2.13,2.78-3.15,4.19-.24,.33,.31,.66,.55,.33Z"/><path d="M24.1,111.63c.23-.63,.48-1.27,.72-1.9,1.16-.52,2.32-1.01,3.5-1.49-.39,1.08-.76,2.17-1.16,3.22-.29,.74-.57,1.49-.86,2.24-1.32,.77-2.61,1.59-3.88,2.42,.56-1.49,1.12-2.99,1.67-4.49Zm8.6-5.04c-.27,.75-.53,1.49-.8,2.23-.28,.77-.57,1.53-.85,2.3-1.29,.65-2.56,1.33-3.81,2.05,.23-.59,.46-1.16,.69-1.75,.47-1.18,1.01-2.39,1.52-3.61,1.07-.42,2.16-.82,3.25-1.22Zm4.17-1.42c-.4,.81-.79,1.62-1.17,2.45-.26,.55-.48,1.11-.73,1.67-1,.43-1.98,.88-2.96,1.35,.24-.61,.47-1.23,.7-1.84,.32-.85,.66-1.71,.99-2.56,1.05-.37,2.1-.72,3.16-1.07Zm-3.59,8.06c-.91,.41-1.82,.82-2.72,1.24,.4-1.05,.8-2.11,1.2-3.16,.99-.51,1.98-1.01,2.98-1.49-.5,1.14-1,2.27-1.46,3.42Zm4.06-1.04c-.42,.99-.84,1.99-1.27,2.98-1.27,.71-2.51,1.47-3.74,2.23,.46-1.19,.94-2.38,1.44-3.56,1.2-.53,2.39-1.08,3.57-1.65Zm-11.48,4.46c.37-.92,.73-1.84,1.09-2.75,1.27-.72,2.55-1.42,3.85-2.1-.38,1.03-.76,2.06-1.14,3.09-1.27,.59-2.54,1.18-3.81,1.77Zm-5.49,1.36c.31-.21,.62-.42,.94-.63-.18,.51-.37,1.03-.55,1.54-.11,.32,.44,.49,.57,.17,.28-.77,.57-1.53,.85-2.3,1.26-.83,2.55-1.62,3.85-2.38-.33,.86-.66,1.73-.99,2.6-.81,.37-1.63,.75-2.44,1.11-.33,.15-.11,.59,.23,.44,.64-.29,1.3-.57,1.95-.85-.27,.71-.54,1.42-.81,2.13-.12,.31,.43,.48,.55,.17,.35-.88,.7-1.76,1.05-2.64,1.25-.54,2.51-1.08,3.77-1.61-.24,.66-.48,1.32-.73,1.98-.13,.36,.5,.55,.63,.19,.32-.85,.64-1.7,.97-2.54,.9-.38,1.79-.77,2.69-1.17-.49,1.24-.99,2.48-1.45,3.73h0c-1.48,.96-2.92,1.95-4.34,2.96-.31,.23,.07,.61,.38,.39,2.62-1.87,5.36-3.61,8.2-5.24-.33,.78-.66,1.56-.99,2.34-.15,.34,.47,.54,.62,.19,.45-1.02,.89-2.04,1.34-3.06,1.25-.69,2.53-1.34,3.83-1.97-.27,.68-.53,1.35-.79,2.03-.14,.35,.49,.55,.64,.19,.35-.89,.71-1.78,1.07-2.67,1.12-.54,2.25-1.08,3.36-1.64-.62,1.28-1.19,2.58-1.71,3.86-3.27,1.6-6.41,3.47-9.37,5.27-.35,.21,.05,.63,.41,.42,2.54-1.54,5.14-2.99,7.81-4.34,.25-.13,.51-.24,.76-.37-.07,.2-.16,.39-.23,.59-.14,.38,.53,.59,.68,.21,.16-.43,.36-.85,.54-1.27,1.73-.81,3.47-1.57,5.18-2.41-.65,1.19-1.29,2.39-1.92,3.58-2.37,1.28-4.69,2.62-7.04,3.89-.36,.2,.04,.61,.4,.41,2-1.09,4.06-2.15,6.08-3.23-.12,.22-.23,.43-.35,.65-.21,.38,.5,.6,.71,.21,.28-.51,.57-1.02,.86-1.53,1.39-.76,2.76-1.54,4.08-2.37,.21-.13,0-.42-.23-.31-1.1,.51-2.18,1.06-3.24,1.62,1.27-2.25,2.54-4.5,3.54-6.81,.12-.27-.31-.38-.47-.14-.73,1.1-1.39,2.23-2.03,3.37-1.74,.58-3.45,1.3-5.14,2.09,.59-1.35,1.22-2.69,1.94-4,.08-.05,.1-.11,.1-.18,1.12-2.02,2.48-3.94,3.63-5.95,.14-.24-.28-.41-.46-.2-1.67,1.9-3.03,4.05-4.17,6.27-1.13,.41-2.24,.88-3.34,1.4,.75-1.86,1.5-3.72,2.24-5.57,1.15-2.87,2.67-5.84,3.29-8.81,.04-.2-.28-.24-.38-.07-1.66,2.78-2.57,5.97-3.72,8.9-.78,1.99-1.56,3.98-2.34,5.98-1.3,.64-2.56,1.33-3.81,2.02,.43-.97,.85-1.94,1.28-2.91,.74-.37,1.49-.74,2.22-1.13,.21-.11,.09-.39-.16-.3-.58,.21-1.16,.44-1.74,.67,.39-.9,.79-1.8,1.18-2.71,.73-1.68,1.47-3.37,2.2-5.05,.69-1.6,1.57-3.26,1.96-4.92,.06-.26-.37-.29-.5-.09-1.01,1.56-1.61,3.36-2.32,5.02-.73,1.68-1.44,3.37-2.17,5.06-.44,1.02-.87,2.04-1.3,3.07-1.18,.48-2.35,.97-3.52,1.49,.51-1.18,1.05-2.35,1.58-3.51,.4-.19,.8-.38,1.2-.57,.18-.08,.07-.32-.13-.24-.3,.12-.58,.24-.87,.36,.12-.27,.24-.54,.37-.81,.52-1.08,1.06-2.16,1.6-3.24,.29-.09,.59-.19,.88-.28,.24-.08,.13-.42-.12-.36-.17,.04-.34,.09-.51,.13,.2-.4,.39-.8,.6-1.2,.84-1.63,1.87-3.25,2.46-4.95,.06-.18-.21-.35-.36-.16-1.12,1.36-1.85,2.93-2.63,4.42-.37,.71-.73,1.43-1.09,2.15-1.06,.28-2.12,.58-3.17,.91,.7-1.81,1.37-3.63,1.84-5.47,.06-.22-.35-.29-.45-.08-.96,1.9-1.69,3.89-2.4,5.87-1.07,.36-2.14,.75-3.2,1.16,.5-1.26,.93-2.52,1.17-3.78,.04-.2-.28-.24-.38-.07-.81,1.35-1.42,2.82-1.96,4.31-1.18,.48-2.34,.97-3.49,1.5,.55-1.46,1.07-2.92,1.38-4.4,.04-.2-.3-.25-.39-.07-.84,1.58-1.43,3.27-2.01,4.95-1.19,.57-2.37,1.15-3.53,1.77,.34-1.17,.67-2.33,.92-3.5,.03-.16-.25-.21-.31-.06-.6,1.34-1.12,2.71-1.6,4.09-.68,.37-1.35,.73-2.01,1.11-.3,.17,.04,.51,.33,.35,.47-.27,.95-.51,1.43-.77-.77,2.28-1.45,4.59-2.11,6.86-.08,.25,.43,.35,.53,.09,.91-2.47,1.84-4.99,2.62-7.51,1.15-.59,2.31-1.15,3.48-1.68-.17,.5-.34,1.01-.52,1.5-.61,1.68-1.2,3.37-1.79,5.05-.49,.34-.99,.67-1.47,1-.24,.17,.05,.46,.29,.3Z"/><path d="M52.18,103.39c2.39-.57,4.89-1.04,7.18-1.89,.19-.07,.1-.31-.09-.29-2.41,.35-4.81,1.13-7.16,1.76-.3,.08-.25,.49,.07,.41Z"/><path d="M51.09,101.74c2.26-.45,4.62-.79,6.83-1.45,.17-.05,.08-.26-.08-.24-2.28,.26-4.57,.87-6.81,1.35-.27,.06-.22,.4,.06,.35Z"/><path d="M56.53,99.53c.19-.05,.16-.26-.04-.25-1.88,.12-3.78,.53-5.64,.84-.28,.05-.22,.41,.06,.36,1.86-.28,3.8-.47,5.63-.95Z"/><path d="M51.84,98.62c1.76-.17,3.53-.32,5.28-.57,.16-.02,.12-.21-.03-.2-1.77,.08-3.53,.26-5.3,.42-.27,.02-.22,.38,.06,.35Z"/><path d="M63.56,99.61c2-.41,4.09-.73,6.03-1.36,.19-.06,.09-.29-.09-.27-2.02,.2-4.04,.74-6.01,1.15-.36,.08-.29,.55,.07,.47Z"/><path d="M65.64,120.09c-3.78,1.42-7.5,2.77-11.5,3.65-4.04,.89-8.17,1.41-12.29,1.52-3.89,.11-7.76-.13-11.53-.73-3.68-.58-7.99-1.37-9.82-4.35l-.05,.03c1.17,2.61,4.4,3.67,7.43,4.33,4.15,.9,8.49,1.29,12.83,1.26,8.41-.06,17.62-1.63,25.15-5.29,.32-.15,.12-.55-.22-.42Z"/><path d="M8.38,66c5.39-5.11,11.54-9.2,18.22-13.02,.27-.15,0-.53-.28-.39-6.97,3.28-13.17,8.06-18.27,13.22-.18,.18,.15,.36,.33,.2Z"/><path d="M20.49,73.8c-.74,.45-1.48,.89-2.21,1.35-.05,.03-.07,.07-.08,.11-.19-.49-.37-.98-.56-1.46,.72-.61,1.48-1.2,2.24-1.78,.21,.59,.42,1.18,.62,1.78Zm.98,2.81c-.65,.46-1.31,.91-1.94,1.39-.28,.2,.07,.56,.34,.35,.57-.43,1.17-.83,1.76-1.24,.26,.75,.52,1.5,.78,2.25-.57,.4-1.13,.79-1.66,1.18-.27,.2,.06,.54,.33,.34,.49-.35,1-.69,1.5-1.03,.39,1.14,.79,2.27,1.18,3.4-.76,.53-1.52,1.06-2.29,1.58-.35-1.14-.71-2.27-1.07-3.4-.66-2.01-1.38-4-2.14-5.98,.09,.05,.21,.08,.32,0,.69-.4,1.37-.8,2.06-1.21,.27,.78,.54,1.55,.81,2.33Zm5.97,5.03c.11,.33,.21,.67,.32,1-1.01,.52-1.99,1.06-2.96,1.64-.09-.25-.17-.49-.27-.74,.98-.62,1.95-1.26,2.91-1.9Zm1.44,4.6c-.95,.52-1.89,1.06-2.83,1.62-.33-.98-.68-1.95-1.03-2.92l.12-.07c.93-.54,1.87-1.03,2.83-1.51,.3,.96,.6,1.92,.9,2.88Zm.51,1.62c.19,.6,.37,1.21,.55,1.82-.9,.55-1.8,1.1-2.69,1.65-.31-.93-.62-1.85-.94-2.77,.93-.55,1.86-1.1,2.8-1.64,.1,.31,.2,.63,.29,.94Zm3.85,.63c.38,.88,.75,1.79,1.14,2.7-.98,.44-1.95,.92-2.89,1.41-.23-.86-.5-1.72-.79-2.58,.86-.5,1.7-1.01,2.54-1.53Zm-5,5.89c-.26-.82-.53-1.64-.8-2.45,.9-.52,1.79-1.05,2.7-1.58,.25,.85,.52,1.7,.83,2.53-.92,.49-1.83,.99-2.72,1.5Zm-.57,.32c-1.1,.62-2.19,1.27-3.26,1.93-.16-.87-.32-1.74-.51-2.61,.89-.53,1.79-1.07,2.69-1.6,.14-.09,.29-.17,.44-.26,.3,.8,.61,1.59,.92,2.38-.09,.05-.18,.1-.27,.15Zm-4.58-4.19c.89-.56,1.79-1.1,2.7-1.65,.34,.91,.68,1.82,1.02,2.73-.13,.08-.27,.16-.39,.24-.88,.53-1.76,1.05-2.64,1.58-.21-.97-.44-1.94-.68-2.91Zm-4.26,2.15c-.05-1.14-.16-2.29-.3-3.43,.98-.73,1.98-1.43,3-2.12,.29,1.03,.55,2.06,.82,3.09-1.2,.8-2.37,1.62-3.52,2.45Zm5.66-7.4c.34,.97,.69,1.95,1.04,2.91-.88,.54-1.76,1.09-2.62,1.66-.27-1.03-.56-2.05-.85-3.06,.8-.52,1.61-1.02,2.43-1.51Zm-2.84,.13c.78-.51,1.55-1.01,2.35-1.51,.09,.25,.17,.49,.26,.73-.81,.5-1.6,1.01-2.38,1.53-.08-.25-.15-.51-.23-.76Zm-2.6-15.72c.22,.62,.43,1.25,.65,1.87-.77,.6-1.51,1.21-2.23,1.84-.29-.71-.59-1.41-.88-2.11,.8-.55,1.62-1.08,2.46-1.6Zm1.02,1.58c-.22-.6-.43-1.2-.65-1.8,.72-.44,1.44-.88,2.17-1.3,2.2-1.24,4.69-2.2,6.78-3.56,.12-.08,.04-.28-.13-.24-2.35,.63-4.55,1.95-6.61,3.12-.82,.47-1.62,.96-2.41,1.46-.15-.43-.31-.86-.47-1.28-.07-.2-.44-.05-.37,.15,.16,.45,.32,.9,.48,1.36-.84,.54-1.67,1.09-2.48,1.65-.27-.66-.54-1.32-.83-1.97,3.74-2.39,7.65-4.7,11.07-7.39,.18-.14-.02-.34-.22-.23-3.87,2.13-7.44,4.75-11.04,7.21-.45-1.01-.91-2.01-1.38-3.01,3.79-2.85,7.95-5.16,12.05-7.67,.15-.09,0-.29-.17-.22-4.43,1.86-8.42,4.67-12.07,7.5-.05-.11-.1-.22-.15-.33-.09-.19-.43-.05-.35,.14,.07,.14,.13,.29,.2,.43l-.07,.05c-.21,.16,.01,.4,.23,.31,.46,1.01,.91,2.02,1.35,3.04-.32,.22-.64,.43-.96,.65-.25,.17,.04,.47,.29,.3,.28-.18,.56-.36,.84-.54,.29,.67,.55,1.34,.82,2.01-.38,.27-.77,.55-1.14,.82-.25,.18,.05,.5,.3,.32,.33-.24,.69-.46,1.03-.69,1.4,3.45,2.69,6.94,3.83,10.48,.34,1.06,.65,2.12,.95,3.19-.23,.16-.47,.32-.71,.48-.3,.2,.05,.58,.36,.37,.17-.11,.34-.22,.5-.32,.08,.26,.15,.52,.23,.78-1.01,.69-1.98,1.4-2.93,2.11-.95-7.11-3.45-14.09-6.73-20.51-.07-.14-.32-.04-.26,.1,3.29,6.69,5.2,13.63,6.48,20.79-.11,.09-.23,.17-.34,.26-.31,.24,.07,.64,.39,.4l.07-.05c.18,1.05,.35,2.1,.5,3.15l.05,.08c-.78,.56-1.54,1.13-2.3,1.69-.27,.21,.07,.56,.35,.36,1.91-1.41,3.88-2.73,5.88-4,.24,.95,.47,1.92,.7,2.88-2.28,1.37-4.56,2.74-6.84,4.11-.35,.21,.05,.62,.4,.41,2.2-1.31,4.39-2.62,6.59-3.93,.2,.85,.41,1.7,.62,2.55-2,1.24-3.95,2.53-5.85,3.89-.33,.24,.07,.65,.41,.41,1.81-1.28,3.68-2.51,5.59-3.69,.15,.61,.29,1.22,.44,1.83,.03,.12,.25,.09,.24-.04-.09-.68-.19-1.35-.3-2.03,1.11-.68,2.22-1.34,3.36-1.98,.1-.06,.19-.1,.29-.15,.28,.71,.54,1.42,.82,2.13,.02,.07,.17,.03,.15-.04-.23-.74-.47-1.49-.71-2.23,.92-.5,1.85-.98,2.79-1.45,.09,.21,.16,.43,.25,.64,.08,.16,.4,.07,.36-.1-.04-.25-.12-.5-.18-.75,1.01-.5,2.02-.99,3.02-1.49,.43,.92,.89,1.82,1.46,2.62,.09,.13,.38,.08,.34-.09-.24-.97-.64-1.93-1.09-2.88,.79-.4,1.58-.8,2.36-1.22,.03,.07,.06,.15,.1,.22,.49,1.16,.86,2.45,1.62,3.5,.11,.16,.45,.1,.41-.11-.2-1.18-.84-2.31-1.32-3.42-.53-1.25-1.07-2.51-1.61-3.76-.14-.32-.74-.08-.6,.24,.42,.99,.84,1.98,1.26,2.97-.85,.29-1.68,.62-2.51,.97-.46-.9-.94-1.8-1.38-2.68,.88-.55,1.74-1.12,2.57-1.72,.17-.12,.01-.38-.2-.28-.9,.44-1.78,.92-2.66,1.41h0c-.12-.27-.6-.08-.48,.19l.04,.08c-.84,.48-1.67,.97-2.5,1.48-.21-.61-.41-1.22-.6-1.82-.09-.3-.19-.6-.29-.9,1.58-.91,3.16-1.81,4.75-2.73,.18-.1,0-.34-.19-.26-1.63,.7-3.22,1.48-4.78,2.31-.3-.95-.61-1.9-.91-2.85,1.64-.82,3.29-1.6,4.9-2.45,.26-.13,.12-.45-.18-.36-1.68,.56-3.33,1.29-4.95,2.1-.11-.35-.23-.7-.34-1.06,1.21-.82,2.4-1.66,3.5-2.56,.18-.15-.03-.35-.23-.24-2.39,1.29-4.64,2.81-6.87,4.36-.41-1.13-.81-2.25-1.22-3.37,.89-.58,1.8-1.14,2.75-1.66,1.53-.83,3.19-1.46,4.7-2.31,.14-.08,.03-.3-.13-.25-2.62,.7-5.21,2.18-7.49,3.73-.27-.74-.55-1.49-.82-2.23,1.05-.7,2.13-1.39,3.24-2.03,1.89-1.08,4.01-1.91,5.84-3.07,.2-.13,0-.33-.2-.28-2.06,.57-4.02,1.76-5.81,2.8-1.12,.65-2.2,1.35-3.25,2.07-.28-.76-.55-1.51-.83-2.27,1.27-.74,2.53-1.48,3.79-2.22,2.04-1.21,4.37-2.34,6.13-3.82,.14-.12,.02-.34-.18-.25-2.18,.88-4.15,2.31-6.11,3.5-1.28,.76-2.54,1.54-3.81,2.32-.22-.61-.44-1.22-.66-1.82,.95-.71,1.93-1.39,2.95-2.03,2.02-1.28,4.29-2.24,6.28-3.53,.21-.14,0-.38-.22-.3-2.2,.69-4.37,2.1-6.23,3.31-1.02,.66-2.01,1.35-2.96,2.08Z"/><path d="M20.87,103.91c-.42,.21-.13,.78,.29,.56,5.5-2.71,11.12-5.3,16.47-8.23,.25-.14,0-.47-.26-.36-5.62,2.47-11.04,5.33-16.5,8.02Z"/><path d="M282.6,13.58c.06,1.45,.18,3.03,.69,4.4,.06,.16,.4,.11,.41-.07,.07-1.46-.31-2.99-.7-4.39-.05-.21-.41-.15-.4,.06Z"/><path d="M285.28,17.65c.22-.78-.1-1.61-.25-2.37-.18-.9-.36-1.79-.58-2.68-.03-.15-.3-.11-.3,.05,.07,.91,.18,1.82,.28,2.73,.09,.78,.04,1.65,.5,2.33,.09,.13,.31,.1,.35-.06Z"/><path d="M287.6,16.6c.18-.75-.06-1.49-.2-2.23-.15-.83-.32-1.67-.47-2.51-.05-.28-.57-.2-.53,.08,.12,.84,.22,1.69,.33,2.53,.1,.74,.1,1.52,.5,2.18,.08,.14,.33,.1,.37-.06Z"/><path d="M289.37,17.69c.08,.13,.35,.12,.37-.06,.08-.85-.23-1.69-.44-2.5-.23-.95-.47-1.9-.71-2.84-.07-.28-.6-.2-.53,.08,.2,.95,.4,1.91,.6,2.86,.18,.83,.26,1.72,.71,2.46Z"/><path d="M322.89,31.18c1.8,11.46,3.19,23.05,5.55,34.41,.04,.18,.36,.13,.34-.05-1.27-11.54-3.53-22.99-5.35-34.44-.05-.29-.58-.2-.53,.08Z"/><path d="M42.79,92.07c.11,.11,.38,.02,.34-.14-.44-1.79-1.82-3.5-2.75-5.12-.17-.31-.76-.07-.59,.23,.92,1.63,1.64,3.63,3.01,5.02Z"/><path d="M46.56,92.76c-.33-1.25-1.08-2.41-1.68-3.57-.16-.31-.75-.08-.59,.23,.59,1.17,1.09,2.43,1.94,3.47,.1,.12,.37,.01,.33-.13Z"/><path d="M49.65,93.08c.11,.04,.24-.06,.22-.15-.08-.57-.58-1.03-.83-1.55-.34-.73-.47-1.49-.44-2.29,.01-.36-.66-.41-.67-.04-.04,.81,.07,1.59,.37,2.34,.25,.61,.59,1.43,1.35,1.69Z"/><path d="M52.82,91.1c0-.56-.39-1.15-.61-1.67-.09-.23-.52-.06-.42,.17,.22,.51,.36,1.18,.76,1.6,.1,.1,.27,.01,.27-.1Z"/><path d="M57.02,91.47c-.17-1.02-.77-2.01-1.19-2.97-.14-.3-.69-.07-.56,.23,.42,.95,.74,2.03,1.38,2.88,.11,.15,.39,.01,.37-.14Z"/><path d="M283.26,80.29c.17,1.2,.17,2.57,.61,3.72,.05,.14,.35,.09,.36-.06,.05-1.23-.36-2.53-.57-3.72-.04-.21-.42-.15-.39,.06Z"/><path d="M286.78,81.78c.09,.65,.06,1.45,.36,2.04,.07,.14,.32,.1,.34-.05,.11-.65-.17-1.4-.29-2.05-.04-.22-.44-.16-.42,.07Z"/><path d="M288.57,80.19c.45,1.25,.72,2.74,1.46,3.87,.12,.18,.45,.1,.43-.11-.17-1.32-.95-2.69-1.43-3.94-.1-.25-.54-.07-.46,.18Z"/><path d="M292.81,77.4c-.05-.32-.65-.23-.6,.1,.15,.96,.29,1.92,.44,2.88,.13,.83,.14,1.72,.52,2.49,.08,.15,.36,.1,.38-.06,.13-.84-.13-1.71-.26-2.53-.16-.96-.32-1.92-.47-2.88Z"/><path d="M294.9,73.65c.37,2.42,.43,5.08,1.24,7.39,.06,.18,.45,.12,.45-.07,.06-2.45-.71-5-1.1-7.41-.05-.32-.65-.23-.6,.1Z"/><path d="M298.33,72.42c.16,1.49,.31,2.97,.47,4.46,.14,1.32,.11,2.74,.58,3.99,.06,.16,.37,.1,.4-.06,.17-1.32-.17-2.72-.33-4.03-.18-1.48-.36-2.97-.53-4.45-.04-.32-.62-.22-.58,.09Z"/><path d="M301.26,70.58c.38,3.11,.41,6.45,1.23,9.48,.06,.24,.45,.2,.49-.02h.02v-.05h0c.04-3.16-.73-6.39-1.13-9.5-.05-.32-.65-.23-.61,.1Z"/><path d="M305.94,68.8c.11,1.53,.2,3.05,.31,4.58,.1,1.5,.02,3.11,.44,4.56,.05,.18,.39,.2,.42-.02,.2-1.45-.08-2.96-.19-4.4-.11-1.6-.23-3.21-.35-4.81-.03-.34-.64-.24-.63,.1Z"/><path d="M272.76,85.68c-20.08,2.72-40.23,4.82-60.42,5.96-20.25,1.14-40.5,1.33-60.65,.67-11.36-.37-22.65-1.16-33.98-1.78-.14-.01-.17,.18-.03,.19,9.94,1.15,20.05,1.7,30.12,2.11,10.08,.41,20.19,.58,30.32,.51,20.09-.13,40.24-1.11,60.33-3.04,11.49-1.11,22.95-2.49,34.36-4.27,.27-.04,.22-.38-.05-.35Z"/><path d="M116.97,35.14c34.46,4.97,69.94,6.58,105.26,5.85,9.86-.21,19.82-.41,29.68-1.32,.29-.02,.3-.44,0-.43-8.89,.28-17.79,.86-26.68,1.08-8.8,.22-17.59,.28-26.37,.17-17.56-.21-35.07-1.07-52.45-2.53-9.84-.82-19.64-1.85-29.42-2.96-.11-.01-.13,.13-.02,.15Z"/><path d="M299.79,7.91c4.61-.62,9.38-1.6,13.86-.44,4.11,1.07,6.77,3.76,6.96,7.39,.02,.29,.54,.24,.6-.03,.7-3.46-2.77-6.43-6.21-7.64-4.66-1.64-10.4-.65-15.24,.51-.16,.04-.13,.24,.03,.21Z"/><path d="M335.96,65.6c-5.38,8.81-17.72,13.62-28.14,16.82-15.71,4.82-32.39,7.13-48.74,8.82-37.42,3.86-75.17,4.02-112.5,3.29-14.74-.29-29.47-1.04-44.22-1.01-.8-2.45-2.28-4.83-3.32-7.18-.29-.64-1.37-.36-1.52,.24-.41,1.62-.75,3.28-.88,4.93-12.64,.92-25.33,.79-37.93,2.55-10.54,1.47-21.22,4.36-30.99,8.29-4.51,1.82-8.91,3.95-12.92,6.51-1.3,.84-2.8,1.79-4.11,2.86,1.08-7.39,.04-15.26-1.37-22.25,1.06-.8,1.94-1.77,3-2.57,1.35-1.02,2.5-2.19,3.89-3.17-.78,.01-8.16,.09-8.09,.39-1.37-5.52-3.32-11.18-6.51-15.97l.04-.03C29.39,35.16,83.15,32.72,125.24,34.43c24.87,1.01,49.37,4.46,74.26,5.19,23.68,.7,47.56-1.27,71.19-4.35,10.34-1.35,20.7-3.14,30.62-6.27,8.21-2.58,19.95-6.68,24.64-13.45,.09-.13,.16-.25,.25-.38,.35,3.53,.98,7.04,1.48,10.54,.36,2.55,4.72,24.91,5.2,27.45,.77,4.07,1.4,8.48,3.2,12.31-.03,.04-.08,.07-.11,.12ZM76.58,102.86c-.46-.16-.94-.32-1.44-.44-6.27-1.59-18.53-.4-23.02,4.85-.03-.21-.07-.42-.11-.64-.22-2.98-1.5-6.18-3.32-8.51,7.95-1.69,15.95-2.55,23.99-3.16-.19,1.3,.73,2.78,1.35,3.84,.2,.34,.41,.67,.64,.98,.55,1.08,1.21,2.11,1.91,3.08Zm-23.33,7.17c.34-1.34,5.8-4.03,5.81-3.94,.01,.04,.02,.09,.05,.14,.78,1.26,1.73,2.44,2.65,3.62,.91,1.17,1.76,2.47,3.01,3.41l.04,.02c-.1-.01-.21-.01-.33,.03-2.5,.9-5.07,2.16-7.66,1.33-2.14-.7-4.11-2.51-3.58-4.6Zm26.01,6.9c-5.03,9.14-20.98,11.37-31.26,12.2-12.42,1.01-26.18,.05-35.08-7.53-2.56-2.18-3.99-4.54-1.32-7.4,2.33-2.48,5.96-4.52,9.07-6.22,6.34-3.47,13.36-5.95,20.43-7.98,1.76-.51,3.52-.95,5.28-1.36,.59,.89,1.22,1.76,1.8,2.65,.38,.77,.76,1.54,1.05,2.34,1.2,3.35-.4,8.91,3,11.24,3.68,2.52,10.53,1.25,13.62-1.76-.6-1.58-1.55-2.57-2.6-3.92-1-1.17-1.98-2.36-3.12-3.43,2.21-.63,4.55-1,6.76-1.19,3.47-.3,7.4-.09,10.2,1.62,3.98,2.43,4.2,7.05,2.17,10.74ZM290.51,14.41c-2.2,2.17-7,2.94-11.17,3.27-.19-.83-.61-1.65-.98-2.3-.46-.84-1.04-1.58-1.74-2.24,1.82-1.34,3.79-2.4,6.08-3.07,1.58-.47,3.12-.82,4.79-.72,2.2,.13,6.75,1.39,3.02,5.06Zm3.02,14.14c.04,.12,.12,.21,.21,.28-2.17,.55-4.35,1.05-6.54,1.51-8.21,1.69-16.6,2.96-25.03,3.97,1.08-4.49-.4-10.42-2.84-15.23,4.11,1.4,10,1.21,13.26,1.14,5.58-.12,14.7-.73,19.23-3.74-.41,4.1,.26,8.26,1.72,12.07Zm-35.94-14.71c.74-4.41,12.94-6.99,16.77-7.92,9.18-2.24,18.83-3.61,28.25-3.62,6.6,0,17.16,.12,21.17,5.17,4.44,5.58-4.21,11.08-9.54,13.84-5.89,3.04-12.23,5.3-18.74,7.05,.04-.11,.05-.24,.02-.37-1.23-4.44-1.69-8.74-1.88-13.23,.6-.84,.91-1.81,.84-2.93-.58-8.64-15.56-3.44-19.84,0l-.08,.08c-.19,.08-.33,.24-.29,.41-.25,.62,.24,1.29,.92,1.4,.52,.81,1,1.65,1.33,2.54,.18,.5,.27,1.04,.36,1.57-.91,.05-1.74,.08-2.45,.11-3.54,.15-17.68,.9-16.83-4.1Zm79.96,51.56c-.54-4.44-2.22-8.85-3.15-13.23-1.07-5.03-2.61-12.7-4.66-26.01-.7-4.56-1.18-9.23-2.29-13.73,1.51-5.72-4.53-9.75-11.14-11.17-9.8-2.1-20.92-1.25-31.01,.22-8.71,1.26-19.12,3.09-26.5,7.76-2.18,1.37-4.4,3.37-3.92,5.76,.19,.91,.66,1.66,1.3,2.28,1.1,2.74,2.28,5.43,2.99,8.31,.73,2.93,.67,6.02,1.61,8.88-10.59,1.22-21.24,2.01-31.7,2.57-42.65,2.26-83.99-5.77-126.51-5.16-20.51,.3-41.68,2.16-61.37,8.35-9.49,2.98-18.71,7.03-26.62,12.53-5.44,3.78-16.4,11.73-14.32,18.09,.72,2.21,1.51,4.4,2.27,6.59,.97,2.81,2.08,5.64,2.76,8.51,1.89-.07,3.78-.13,5.67-.2-1.76,.15-3.45,1.1-4.32,2.42-1.17,1.78-.34,3.32,.02,5.06,.51,2.5,.48,5.19,.55,7.74,.15,5.03-.01,10.08,.22,15.11-1.63,5.59,6.62,10.06,11.45,12.14,13.59,5.83,32.87,4.57,47.47,.04,6.5-2.01,13.19-5.37,16-10.98,1.75-3.5,2.08-7.4,.21-10.79-.92-1.67-3.06-2.89-4.31-4.42-.92-1.14-1.68-2.36-2.4-3.59-.06-.11-.12-.21-.16-.31-.47-1-.56-2.31-1.13-3.3,.33,.57,11.22-.72,12.5-.8,3.95-.25,7.62-.74,11.46-.15-.01-1.02,.56-3.81,.17-4.68,.78,1.74,1.79,3.42,2.49,5.19,3.31-.13,6.85,.59,10.16,.82,4.03,.28,8.07,.52,12.11,.72,8.11,.4,16.23,.66,24.38,.81,16.25,.3,32.54,.17,48.84-.11,.32,0,.64-.01,.96-.02,19.56-.34,39.16-1.18,58.71-3.08,16.85-1.64,33.91-3.94,50.19-8.63,11.72-3.38,25.08-8.54,30.89-18.43,.13-.09,.21-.21,.24-.38,.16-.29,.09-.53-.08-.7Z"/><path d="M45.24,56.94l-.36,.03c.16,6.26,.39,10.71,.69,13.35,.08,.64,.36,1.29,.84,1.95,.5,.64,.75,1.19,.75,1.65s-.14,.82-.42,1.14c-.26,.32-.62,.48-1.08,.48s-.82-.27-1.14-.81c-.3-.56-.48-1.16-.54-1.8-.52-6.7-1.12-11.75-1.8-15.15-1.82,.92-3.6,2.51-5.34,4.77,1.58,2.5,2.37,4.63,2.37,6.39s-.59,3.25-1.77,4.53c-1.18,1.26-2.28,1.89-3.3,1.89s-1.81-.33-2.37-.99c-.54-.66-.81-1.47-.81-2.43s.32-2.21,.96-3.69c.66-1.5,1.52-3.06,2.58-4.68-.94-1.38-2.01-2.6-3.21-3.66-1.2-1.08-2.37-1.82-3.51-2.22-.48,3.38-.8,5.93-.96,7.65-.14,1.7-.25,3.55-.33,5.55-.08,1.98-.13,3.14-.15,3.48-.02,.32-.14,.6-.36,.84-.22,.22-.48,.33-.78,.33s-.58-.11-.84-.33c-.24-.24-.36-.57-.36-.99s.15-1.61,.45-3.57c.66-4.1,1.03-8.54,1.11-13.32-.82-.18-1.23-.69-1.23-1.53,0-.38,.18-.69,.54-.93,.36-.26,.8-.39,1.32-.39,1.54,0,3.2,.66,4.98,1.98,1.8,1.3,3.42,2.94,4.86,4.92,1.52-2.02,3.09-3.67,4.71-4.95,1.62-1.3,3.12-1.95,4.5-1.95,.94,0,1.41,.38,1.41,1.14,0,.36-.16,.67-.48,.93-.3,.26-.61,.39-.93,.39Zm-8.4,13.05c0-1.52-.53-3.24-1.59-5.16-1.62,2.6-2.43,4.56-2.43,5.88,0,.72,.18,1.35,.54,1.89,.38,.54,.85,.81,1.41,.81s1.04-.35,1.44-1.05c.42-.72,.63-1.51,.63-2.37Z"/><path d="M52.6,54.48l6.06,.18,6.06-.18c.32,0,.6,.11,.84,.33,.26,.2,.39,.48,.39,.84s-.13,.65-.39,.87c-.24,.2-.52,.3-.84,.3l-6.06-.18c-.52,0-1.36,.02-2.52,.06,0,.24-.02,.67-.06,1.29-.12,1.86-.18,3.6-.18,5.22,1.04,.08,2.01,.12,2.91,.12s1.85-.03,2.79-.09c.96-.06,1.54-.09,1.74-.09,.22,0,.43,.1,.63,.3,.2,.2,.3,.46,.3,.78s-.1,.59-.3,.81c-.2,.2-.46,.3-.78,.3l-4.17-.15c-1.04,0-2.08,.04-3.12,.12,0,2.44,.04,4.35,.12,5.73,.1,1.38,.15,2.16,.15,2.34l8.94-.18c.32,0,.6,.11,.84,.33,.26,.2,.39,.48,.39,.84s-.13,.65-.39,.87c-.24,.2-.52,.3-.84,.3l-5.76-.18c-.8,0-1.75,.03-2.85,.09s-1.69,.09-1.77,.09c-.42,0-.77-.16-1.05-.48-.26-.32-.39-.64-.39-.96s.04-1.43,.12-3.33c.1-1.9,.15-3.73,.15-5.49s-.09-4.6-.27-8.46h-.69c-.32,0-.61-.1-.87-.3-.24-.22-.36-.51-.36-.87s.12-.64,.36-.84c.26-.22,.55-.33,.87-.33Z"/><path d="M69.21,54.48l6.06,.18,6.06-.18c.32,0,.6,.11,.84,.33,.26,.2,.39,.48,.39,.84s-.13,.65-.39,.87c-.24,.2-.52,.3-.84,.3l-4.65-.15c-.16,3.44-.24,6.18-.24,8.22s.04,3.98,.12,5.88c.1,1.9,.15,3.01,.15,3.33s-.14,.64-.42,.96c-.26,.32-.6,.48-1.02,.48s-.77-.16-1.05-.48c-.26-.32-.39-.64-.39-.96s.04-1.43,.12-3.33c.1-1.9,.15-3.75,.15-5.55s-.09-4.67-.27-8.55l-4.62,.15c-.32,0-.61-.1-.87-.3-.24-.22-.36-.51-.36-.87s.12-.64,.36-.84c.26-.22,.55-.33,.87-.33Z"/><path d="M87.68,56.1c0,.06-.05,.98-.15,2.76-.08,1.76-.12,3.71-.12,5.85s.04,4.16,.12,6.06c.1,1.9,.15,3.01,.15,3.33s-.14,.64-.42,.96c-.26,.32-.6,.48-1.02,.48s-.77-.16-1.05-.48c-.26-.32-.39-.64-.39-.96s.04-1.43,.12-3.33c.1-1.9,.15-3.92,.15-6.06s-.05-4.09-.15-5.85c-.08-1.78-.12-2.7-.12-2.76,0-.42,.13-.79,.39-1.11,.28-.34,.63-.51,1.05-.51s.76,.17,1.02,.51c.28,.32,.42,.69,.42,1.11Z"/><path d="M92.5,54.48l6.06,.18,6.06-.18c.32,0,.6,.11,.84,.33,.26,.2,.39,.48,.39,.84s-.13,.65-.39,.87c-.24,.2-.52,.3-.84,.3l-6.06-.18c-.52,0-1.36,.02-2.52,.06,0,.24-.02,.67-.06,1.29-.12,1.86-.18,3.6-.18,5.22,1.04,.08,2.01,.12,2.91,.12s1.85-.03,2.79-.09c.96-.06,1.54-.09,1.74-.09,.22,0,.43,.1,.63,.3s.3,.46,.3,.78-.1,.59-.3,.81c-.2,.2-.46,.3-.78,.3l-4.17-.15c-1.04,0-2.08,.04-3.12,.12,0,2.44,.04,4.35,.12,5.73,.1,1.38,.15,2.16,.15,2.34l8.94-.18c.32,0,.6,.11,.84,.33,.26,.2,.39,.48,.39,.84s-.13,.65-.39,.87c-.24,.2-.52,.3-.84,.3l-5.76-.18c-.8,0-1.75,.03-2.85,.09-1.1,.06-1.69,.09-1.77,.09-.42,0-.77-.16-1.05-.48-.26-.32-.39-.64-.39-.96s.04-1.43,.12-3.33c.1-1.9,.15-3.73,.15-5.49s-.09-4.6-.27-8.46h-.69c-.32,0-.61-.1-.87-.3-.24-.22-.36-.51-.36-.87s.12-.64,.36-.84c.26-.22,.55-.33,.87-.33Z"/><path d="M112.65,54.66l4.44-.18c1.22,0,2.42,.38,3.6,1.14,.6,.4,1.09,.97,1.47,1.71,.4,.74,.6,1.59,.6,2.55,0,1.68-.49,3.06-1.47,4.14-.98,1.06-2.14,1.82-3.48,2.28,.58,.32,1.15,.7,1.71,1.14,1.52,1.28,2.63,2.5,3.33,3.66,.72,1.16,1.08,2.19,1.08,3.09s-.42,1.35-1.26,1.35c-.62,0-1.2-.61-1.74-1.83-.22-.52-.6-1.2-1.14-2.04-.52-.86-1.12-1.66-1.8-2.4-1.42-1.52-2.88-2.55-4.38-3.09,.02,1.62,.07,3.25,.15,4.89s.12,2.64,.12,3c0,.34-.14,.67-.42,.99-.26,.32-.6,.48-1.02,.48s-.77-.16-1.05-.48c-.26-.32-.39-.64-.39-.96s.04-1.43,.12-3.33c.1-1.9,.15-3.74,.15-5.52s-.02-3.24-.06-4.38c-.04-1.16-.09-2.09-.15-2.79-.04-.7-.06-1.15-.06-1.35h-.54c-.32,0-.61-.1-.87-.3-.24-.22-.36-.49-.36-.81,0-.34,.12-.61,.36-.81,.26-.22,.51-.33,.75-.33,.26,0,.6,.03,1.02,.09,.44,.06,.87,.09,1.29,.09Zm2.97,1.89l-1.74,.03c0,.22-.03,.66-.09,1.32-.12,1.76-.18,3.97-.18,6.63,1,.28,1.73,.42,2.19,.42s.92-.05,1.38-.15c.48-.12,.99-.31,1.53-.57,.56-.26,1.02-.67,1.38-1.23,.36-.58,.54-1.25,.54-2.01,0-1.52-.49-2.64-1.47-3.36-.96-.72-2.14-1.08-3.54-1.08Z"/><path d="M135.18,57.57c-.26-.32-.66-.61-1.2-.87-.52-.28-1.16-.42-1.92-.42s-1.46,.28-2.1,.84c-.62,.56-.93,1.26-.93,2.1s.36,1.5,1.08,2.04c.74,.54,1.62,.96,2.64,1.26,1.04,.3,2.07,.64,3.09,1.02,1.04,.36,1.92,.96,2.64,1.8,.74,.82,1.11,1.88,1.11,3.18,0,1.88-.79,3.52-2.37,4.92-1.56,1.4-3.53,2.1-5.91,2.1-1.58,0-2.86-.39-3.84-1.17-.96-.8-1.44-1.63-1.44-2.49,0-.46,.13-.83,.39-1.11,.26-.3,.58-.45,.96-.45,.4,0,.74,.12,1.02,.36,.28,.22,.54,.5,.78,.84,.26,.34,.55,.68,.87,1.02,.72,.8,1.73,1.2,3.03,1.2s2.38-.38,3.18-1.14,1.2-1.77,1.2-3.03c0-.94-.37-1.7-1.11-2.28-.74-.6-1.64-1.06-2.7-1.38-1.04-.34-2.09-.69-3.15-1.05-1.04-.36-1.93-.9-2.67-1.62-.74-.74-1.11-1.65-1.11-2.73s.25-2.05,.75-2.85c.52-.82,1.16-1.45,1.92-1.89,1.52-.86,2.95-1.29,4.29-1.29s2.55,.29,3.57,.87c1.02,.58,1.53,1.28,1.53,2.1,0,.42-.12,.76-.36,1.02-.24,.26-.58,.39-1.02,.39s-.86-.13-1.26-.39c-.38-.28-.7-.58-.96-.9Z"/><path d="M155.62,54.66l4.68-.18c1.48,0,2.96,.36,4.44,1.08,.88,.42,1.66,.94,2.34,1.56,.68,.62,1.25,1.47,1.71,2.55,.46,1.06,.69,2.36,.69,3.9s-.33,3.1-.99,4.68c-.66,1.56-1.52,2.86-2.58,3.9-1.06,1.04-2.25,1.87-3.57,2.49-1.3,.6-2.63,.9-3.99,.9s-2.4-.15-3.18-.45c-.76-.32-1.14-.85-1.14-1.59,0-.36,.04-1.54,.12-3.54,.1-2,.15-3.73,.15-5.19s-.02-2.76-.06-3.9c-.04-1.16-.09-2.09-.15-2.79-.04-.7-.06-1.16-.06-1.38-.76,.04-1.28,.06-1.56,.06s-.55-.1-.81-.3c-.24-.22-.36-.5-.36-.84s.12-.61,.36-.81c.26-.22,.55-.33,.87-.33l3.09,.18Zm1.2,3.3c-.04,.68-.08,1.61-.12,2.79-.04,1.16-.06,2.78-.06,4.86s.09,4.58,.27,7.5c.66,.2,1.51,.3,2.55,.3,1.94,0,3.73-.82,5.37-2.46s2.46-3.74,2.46-6.3-.77-4.57-2.31-5.97c-1.54-1.42-3.73-2.13-6.57-2.13-.7,0-1.2,.01-1.5,.03,0,.22-.03,.68-.09,1.38Z"/><path d="M173.27,54.48l6.06,.18,6.06-.18c.32,0,.6,.11,.84,.33,.26,.2,.39,.48,.39,.84s-.13,.65-.39,.87c-.24,.2-.52,.3-.84,.3l-6.06-.18c-.52,0-1.36,.02-2.52,.06,0,.24-.02,.67-.06,1.29-.12,1.86-.18,3.6-.18,5.22,1.04,.08,2.01,.12,2.91,.12s1.85-.03,2.79-.09c.96-.06,1.54-.09,1.74-.09,.22,0,.43,.1,.63,.3,.2,.2,.3,.46,.3,.78s-.1,.59-.3,.81c-.2,.2-.46,.3-.78,.3l-4.17-.15c-1.04,0-2.08,.04-3.12,.12,0,2.44,.04,4.35,.12,5.73,.1,1.38,.15,2.16,.15,2.34l8.94-.18c.32,0,.6,.11,.84,.33,.26,.2,.39,.48,.39,.84s-.13,.65-.39,.87c-.24,.2-.52,.3-.84,.3l-5.76-.18c-.8,0-1.75,.03-2.85,.09-1.1,.06-1.69,.09-1.77,.09-.42,0-.77-.16-1.05-.48-.26-.32-.39-.64-.39-.96s.04-1.43,.12-3.33c.1-1.9,.15-3.73,.15-5.49s-.09-4.6-.27-8.46h-.69c-.32,0-.61-.1-.87-.3-.24-.22-.36-.51-.36-.87s.12-.64,.36-.84c.26-.22,.55-.33,.87-.33Zm4.59-1.98c0-.12,.08-.26,.24-.42,2.06-2.06,3.56-3.09,4.5-3.09,.3,0,.56,.11,.78,.33,.24,.2,.36,.45,.36,.75,0,.66-.37,1.06-1.11,1.2-1.56,.28-2.91,.76-4.05,1.44-.16,.1-.28,.15-.36,.15-.24,0-.36-.12-.36-.36Z"/><path d="M204.64,71.28l.03-.81c0-.62-.05-1.31-.15-2.07-.08-.76-.12-1.29-.12-1.59,0-.32,.13-.63,.39-.93,.28-.32,.63-.48,1.05-.48s.76,.16,1.02,.48c.28,.3,.42,.61,.42,.93,0,.3-.05,.83-.15,1.59-.08,.76-.12,1.45-.12,2.07s.04,1.31,.12,2.07c.1,.76,.15,1.3,.15,1.62,0,.3-.14,.61-.42,.93-.26,.3-.6,.45-1.02,.45s-.77-.15-1.05-.45c-.26-.32-.39-.68-.39-1.08v-.63c-1.82,1.44-3.75,2.16-5.79,2.16-2.6,0-4.79-.93-6.57-2.79-1.76-1.88-2.64-4.15-2.64-6.81,0-3.32,.99-6.06,2.97-8.22,2-2.16,4.54-3.24,7.62-3.24,1.78,0,3.41,.35,4.89,1.05,1.5,.7,2.25,1.51,2.25,2.43,0,.42-.14,.77-.42,1.05-.26,.28-.58,.42-.96,.42s-.76-.15-1.14-.45-.75-.63-1.11-.99c-.34-.38-.89-.72-1.65-1.02-.74-.3-1.62-.45-2.64-.45-2.3,0-4.1,.73-5.4,2.19-1.3,1.46-1.95,3.39-1.95,5.79s.71,4.5,2.13,6.3c1.44,1.8,3.31,2.7,5.61,2.7,1.74,0,3.42-.74,5.04-2.22Z"/><path d="M214.17,54.66l4.44-.18c1.22,0,2.42,.38,3.6,1.14,.6,.4,1.09,.97,1.47,1.71,.4,.74,.6,1.59,.6,2.55,0,1.68-.49,3.06-1.47,4.14-.98,1.06-2.14,1.82-3.48,2.28,.58,.32,1.15,.7,1.71,1.14,1.52,1.28,2.63,2.5,3.33,3.66,.72,1.16,1.08,2.19,1.08,3.09s-.42,1.35-1.26,1.35c-.62,0-1.2-.61-1.74-1.83-.22-.52-.6-1.2-1.14-2.04-.52-.86-1.12-1.66-1.8-2.4-1.42-1.52-2.88-2.55-4.38-3.09,.02,1.62,.07,3.25,.15,4.89,.08,1.64,.12,2.64,.12,3,0,.34-.14,.67-.42,.99-.26,.32-.6,.48-1.02,.48s-.77-.16-1.05-.48c-.26-.32-.39-.64-.39-.96s.04-1.43,.12-3.33c.1-1.9,.15-3.74,.15-5.52s-.02-3.24-.06-4.38c-.04-1.16-.09-2.09-.15-2.79-.04-.7-.06-1.15-.06-1.35h-.54c-.32,0-.61-.1-.87-.3-.24-.22-.36-.49-.36-.81,0-.34,.12-.61,.36-.81,.26-.22,.51-.33,.75-.33,.26,0,.6,.03,1.02,.09,.44,.06,.87,.09,1.29,.09Zm2.97,1.89l-1.74,.03c0,.22-.03,.66-.09,1.32-.12,1.76-.18,3.97-.18,6.63,1,.28,1.73,.42,2.19,.42s.92-.05,1.38-.15c.48-.12,.99-.31,1.53-.57,.56-.26,1.02-.67,1.38-1.23,.36-.58,.54-1.25,.54-2.01,0-1.52-.49-2.64-1.47-3.36-.96-.72-2.14-1.08-3.54-1.08Z"/><path d="M241.56,66.36l-4.98-.15-3.81,.09c-.18,.42-.38,.95-.6,1.59-.2,.64-.47,1.39-.81,2.25-.34,.84-.73,1.69-1.17,2.55-.98,1.9-1.92,2.85-2.82,2.85-.78,0-1.17-.44-1.17-1.32,0-.56,.55-1.38,1.65-2.46,.46-.42,.98-1.11,1.56-2.07,.6-.96,1.12-2.07,1.56-3.33h-1.08c-.32,0-.6-.09-.84-.27-.22-.2-.33-.47-.33-.81s.12-.62,.36-.84c.24-.22,.5-.33,.78-.33l2.1,.03c1.7-3.78,3.31-6.39,4.83-7.83-.78,0-1.96,.08-3.54,.24-1.58,.14-2.54,.21-2.88,.21-.32,0-.6-.09-.84-.27-.24-.2-.36-.47-.36-.81,0-.36,.12-.65,.36-.87,.26-.22,.54-.33,.84-.33l6.54,.18,7.11-.18c.36,0,.65,.11,.87,.33s.33,.5,.33,.84c0,.74-.41,1.11-1.23,1.11h-.72c0,3.2,.13,6.09,.39,8.67,.26,2.58,.52,4.57,.78,5.97,.26,1.4,.39,2.29,.39,2.67,0,.36-.12,.7-.36,1.02-.22,.3-.53,.45-.93,.45s-.71-.14-.99-.42-.43-.68-.45-1.2l-.54-7.56Zm-.54-9.96l-.75-.03c-2.26,.22-4.46,2.82-6.6,7.8,1.72,.04,2.78,.06,3.18,.06s1.92-.04,4.56-.12c-.26-4.42-.39-6.99-.39-7.71Z"/><path d="M252.83,54.66l4.68-.18c1.48,0,2.96,.36,4.44,1.08,.88,.42,1.66,.94,2.34,1.56s1.25,1.47,1.71,2.55c.46,1.06,.69,2.36,.69,3.9s-.33,3.1-.99,4.68c-.66,1.56-1.52,2.86-2.58,3.9-1.06,1.04-2.25,1.87-3.57,2.49-1.3,.6-2.63,.9-3.99,.9s-2.4-.15-3.18-.45c-.76-.32-1.14-.85-1.14-1.59,0-.36,.04-1.54,.12-3.54,.1-2,.15-3.73,.15-5.19s-.02-2.76-.06-3.9c-.04-1.16-.09-2.09-.15-2.79-.04-.7-.06-1.16-.06-1.38-.76,.04-1.28,.06-1.56,.06s-.55-.1-.81-.3c-.24-.22-.36-.5-.36-.84s.12-.61,.36-.81c.26-.22,.55-.33,.87-.33l3.09,.18Zm1.2,3.3c-.04,.68-.08,1.61-.12,2.79-.04,1.16-.06,2.78-.06,4.86s.09,4.58,.27,7.5c.66,.2,1.51,.3,2.55,.3,1.94,0,3.73-.82,5.37-2.46,1.64-1.64,2.46-3.74,2.46-6.3s-.77-4.57-2.31-5.97c-1.54-1.42-3.73-2.13-6.57-2.13-.7,0-1.2,.01-1.5,.03,0,.22-.03,.68-.09,1.38Z"/><path d="M282.66,66.36l-4.98-.15-3.81,.09c-.18,.42-.38,.95-.6,1.59-.2,.64-.47,1.39-.81,2.25-.34,.84-.73,1.69-1.17,2.55-.98,1.9-1.92,2.85-2.82,2.85-.78,0-1.17-.44-1.17-1.32,0-.56,.55-1.38,1.65-2.46,.46-.42,.98-1.11,1.56-2.07,.6-.96,1.12-2.07,1.56-3.33h-1.08c-.32,0-.6-.09-.84-.27-.22-.2-.33-.47-.33-.81s.12-.62,.36-.84c.24-.22,.5-.33,.78-.33l2.1,.03c1.7-3.78,3.31-6.39,4.83-7.83-.78,0-1.96,.08-3.54,.24-1.58,.14-2.54,.21-2.88,.21-.32,0-.6-.09-.84-.27-.24-.2-.36-.47-.36-.81,0-.36,.12-.65,.36-.87,.26-.22,.54-.33,.84-.33l6.54,.18,7.11-.18c.36,0,.65,.11,.87,.33s.33,.5,.33,.84c0,.74-.41,1.11-1.23,1.11h-.72c0,3.2,.13,6.09,.39,8.67,.26,2.58,.52,4.57,.78,5.97,.26,1.4,.39,2.29,.39,2.67,0,.36-.12,.7-.36,1.02-.22,.3-.53,.45-.93,.45s-.71-.14-.99-.42-.43-.68-.45-1.2l-.54-7.56Zm-.54-9.96l-.75-.03c-2.26,.22-4.46,2.82-6.6,7.8,1.72,.04,2.78,.06,3.18,.06s1.92-.04,4.56-.12c-.26-4.42-.39-6.99-.39-7.71Z"/><path d="M289.46,55.89c0-.94,.63-1.41,1.89-1.41,1.6,0,3.33,.73,5.19,2.19,1.88,1.44,3.52,3.64,4.92,6.6,1.88,4.02,3.12,6.57,3.72,7.65-.04-6.02-.21-9.85-.51-11.49-.3-1.66-.45-2.74-.45-3.24s.14-.91,.42-1.23c.3-.32,.65-.48,1.05-.48,.42,0,.76,.16,1.02,.48,.26,.32,.39,.8,.39,1.44s-.05,1.77-.15,3.45c-.2,3.92-.3,7.81-.3,11.67,0,.48,.14,.99,.42,1.53,.28,.54,.42,.96,.42,1.26,0,.28-.13,.56-.39,.84-.26,.26-.6,.39-1.02,.39-.68,0-1.27-.42-1.77-1.26-.5-.86-1.23-2.44-2.19-4.74s-1.66-3.96-2.1-4.98c-1.82-4.22-4.19-6.64-7.11-7.26-.06,1.32-.09,3.42-.09,6.3s.09,5.27,.27,7.17c.2,1.9,.3,3.01,.3,3.33s-.14,.64-.42,.96c-.26,.32-.6,.48-1.02,.48s-.77-.16-1.05-.48c-.26-.32-.39-.64-.39-.96s.09-1.43,.27-3.33c.2-1.9,.3-3.77,.3-5.61s-.04-4.52-.12-8.04c-.4-.02-.75-.13-1.05-.33-.3-.22-.45-.52-.45-.9Z"/><path d="M311.44,54.48l6.06,.18,6.06-.18c.32,0,.6,.11,.84,.33,.26,.2,.39,.48,.39,.84s-.13,.65-.39,.87c-.24,.2-.52,.3-.84,.3l-4.65-.15c-.16,3.44-.24,6.18-.24,8.22s.04,3.98,.12,5.88c.1,1.9,.15,3.01,.15,3.33s-.14,.64-.42,.96c-.26,.32-.6,.48-1.02,.48s-.77-.16-1.05-.48c-.26-.32-.39-.64-.39-.96s.04-1.43,.12-3.33c.1-1.9,.15-3.75,.15-5.55s-.09-4.67-.27-8.55l-4.62,.15c-.32,0-.61-.1-.87-.3-.24-.22-.36-.51-.36-.87s.12-.64,.36-.84c.26-.22,.55-.33,.87-.33Z"/></g></g></svg>