<svg width="381" height="158" viewBox="0 0 381 158" fill="none" xmlns="http://www.w3.org/2000/svg">
<path d="M58.729 143.772C45.2051 145.869 32.6807 144.813 23.4689 140.799C19.5139 139.078 10.4999 134.454 12.16 128.777C12.0443 125.862 12.0426 122.952 12.0424 120.135C12.0429 117.971 12.0453 115.734 11.9876 113.531L11.9561 112.202C11.9183 110.044 11.8738 107.814 11.4524 105.715C11.3793 105.357 11.2856 105.005 11.1971 104.66C10.8507 103.354 10.528 102.117 11.4182 100.765C12.1782 99.6138 13.6069 98.7507 15.137 98.5135C15.2734 98.4923 15.4152 98.4776 15.5532 98.4671L15.5461 98.0549L10.0688 98.2261C9.5483 96.023 8.77511 93.8228 8.02569 91.6914C7.80165 91.0627 7.58188 90.4334 7.36692 89.807L6.71777 87.9283C6.17178 86.349 5.6295 84.7655 5.11225 83.1745C3.22139 77.3122 12.3581 70.1427 19.3974 65.2668C26.6334 60.2517 35.5775 56.0629 45.9823 52.8222C53.1932 50.5733 61.0726 48.779 69.4137 47.4859C80.5849 45.754 92.9828 44.8398 107.306 44.6893C126.711 44.4905 146.195 46.1246 165.03 47.7107C187.454 49.5921 210.645 51.5434 233.845 50.401C245.618 49.8228 256 49.0218 265.576 47.9506L265.867 47.9163L265.792 47.685C265.274 46.0869 265.056 44.3734 264.856 42.7187C264.694 41.4171 264.523 40.0659 264.209 38.7662C263.615 36.346 262.682 34.0182 261.784 31.7686L261.227 30.3758C260.517 29.6486 260.113 28.9282 259.95 28.1051C259.574 26.2421 260.859 24.3646 263.774 22.5315C270.446 18.3287 279.684 16.4869 286.989 15.3544C288.076 15.1859 289.148 15.0307 290.194 14.883C298.368 13.7209 310.466 12.4508 321.107 14.7852C327.632 16.2206 333.55 20.1897 332.058 25.826C332.868 29.2495 333.342 32.7286 333.804 36.0973C333.969 37.3078 334.135 38.5147 334.316 39.7154C336.274 52.7633 337.793 60.5647 338.909 65.9019C339.269 67.6368 339.754 69.4105 340.228 71.1205C340.957 73.7662 341.708 76.4991 342.022 79.2019L342.032 79.2621L342.078 79.3092C342.217 79.4436 342.234 79.6077 342.128 79.7982C342.085 79.9716 342.04 80.051 341.962 80.1067C335.868 90.4077 321.424 95.5181 311.091 98.4649C303.217 100.719 294.722 102.536 285.111 104.026C278.01 105.127 270.327 106.05 260.923 106.931C243.392 108.576 224.738 109.481 202.219 109.782L201.257 109.797C181.556 110.053 166.493 110.024 152.42 109.705C143.8 109.508 135.827 109.207 128.049 108.781C123.986 108.563 119.913 108.302 115.944 108.008C114.76 107.919 113.518 107.764 112.321 107.616C110.203 107.35 108.013 107.077 105.923 107.136C105.525 106.15 105.039 105.181 104.562 104.244C104.196 103.514 103.829 102.781 103.496 102.038L103.04 102.2C103.276 102.732 103.107 104.147 102.977 105.283C102.915 105.783 102.867 106.232 102.851 106.579C99.8452 106.139 96.9709 106.349 93.9276 106.567C93.1681 106.623 92.3996 106.677 91.6214 106.725C91.3352 106.737 90.5705 106.815 89.5473 106.916C86.9072 107.173 79.9 107.864 79.3132 107.542L78.8994 107.773C79.1993 108.299 79.369 108.943 79.5258 109.561C79.6635 110.083 79.7992 110.62 80.0198 111.086L80.1822 111.402C80.894 112.615 81.6674 113.887 82.5991 115.055C83.1304 115.723 83.8273 116.333 84.5081 116.923C85.4174 117.721 86.3572 118.547 86.8754 119.496C88.5954 122.652 88.5071 126.446 86.6411 130.176C84.2867 134.865 78.9432 138.518 70.7563 141.03C66.9362 142.206 62.8889 143.127 58.7333 143.772L58.729 143.772Z" fill="#F6E3BA"/>
<path d="M38.5476 65.4229C37.3466 67.389 42.6542 89.2377 49.0553 98.5733C49.0553 98.5733 93.5593 95.4622 166.945 100.271C240.331 105.077 290.963 96.1947 291.208 95.1273C291.452 94.0527 317.774 74.8226 303.023 48.8734C271.794 55.0923 199.984 63.1253 123.239 52.6379C74.2259 50.597 44.1505 56.2927 38.5476 65.4229Z" fill="#F6E9CD"/>
<path d="M191.198 101.417C186.291 101.576 181.387 101.73 176.478 101.879C158.481 102.429 140.271 103.439 122.396 102.331C104.147 101.202 85.4653 102.967 67.3609 100.912C65.5265 100.707 65.0915 98.7736 66.2683 97.8625C85.6127 97.3577 120.492 97.2286 166.945 100.272C175.341 100.823 183.442 101.191 191.198 101.417Z" fill="#F9ECD1"/>
<path d="M278.787 96.3459C275.661 96.3955 272.55 96.287 269.401 96.612C269.366 96.6138 269.332 96.6191 269.298 96.6243C268.458 96.7545 267.982 97.3721 267.928 98.0041C255.552 99.4261 242.792 99.5228 230.731 99.9933C217.551 100.51 204.373 100.984 191.198 101.416C183.442 101.191 175.341 100.822 166.945 100.272C120.492 97.2285 85.6127 97.3576 66.2683 97.8624C66.5372 97.654 66.8884 97.498 67.3316 97.4293C67.3487 97.4267 67.3657 97.424 67.3828 97.4214C85.6573 94.9146 104.133 96.067 122.456 94.1545C130.319 93.3305 138.221 92.8886 146.119 92.5958C140.046 92.4136 133.977 92.2017 127.912 91.9347C116.565 91.4353 102.581 91.7436 92.6403 87.1691C91.0894 86.4561 91.5247 84.112 93.1922 83.578C94.7942 83.0723 96.3931 82.7157 97.9957 82.4672C102.062 81.8369 106.168 81.8855 110.383 81.7975C117.188 81.6561 123.984 81.8568 130.762 82.0495C131.901 82.0795 133.045 82.1088 134.185 82.1423C131.582 81.7375 128.984 81.3065 126.384 80.8974C121.737 80.1715 116.614 79.8383 112.386 78.1337C110.133 77.2251 109.988 73.8726 112.9 73.4213C112.981 73.4087 113.066 73.399 113.148 73.39C114.847 73.2317 116.584 73.1692 118.34 73.1797C115.125 72.489 111.991 71.6408 109.037 70.5254C107.281 69.8625 107.007 67.4507 108.682 66.6291C105.457 66.4041 102.226 66.1727 99.0016 65.9258C91.8775 65.3844 83.2294 65.3729 77.1506 62.1428C75.837 61.4401 76.1904 59.6091 77.6211 59.0683C79.2828 58.4409 81.0541 58.014 82.8869 57.7299C88.6238 56.8405 94.9767 57.3347 100.431 57.3809C108.744 57.4552 117.071 57.4802 125.385 57.616C141.589 57.8844 157.768 58.4176 173.973 58.6641C190.572 58.9149 207.181 59.0153 223.803 58.9652C240.144 58.9114 257.416 57.6766 273.41 60.0293C277.832 60.6779 278.041 65.9382 273.367 66.815C272.247 67.0213 271.125 67.217 269.995 67.3921C258.334 69.2 246.162 69.2345 234.259 69.1765C234.637 70.3179 234.138 71.6314 232.412 72.3776C229.159 73.7773 225.506 74.7061 221.704 75.3535C224.46 75.4228 227.16 75.6351 229.726 76.082C232.776 76.6168 234.254 80.4877 230.604 81.746C228.681 82.4101 226.667 82.9291 224.601 83.3436C226.023 83.337 227.447 83.3411 228.868 83.3346C234.736 83.2877 241.225 82.5789 246.614 84.5131C248.732 85.276 249.696 87.2436 249.251 88.9946C261.36 88.4695 273.589 88.321 285.029 90.1835C287.201 90.5392 287.861 92.2024 287.101 93.4982C286.746 93.5679 286.384 93.6311 286.024 93.6979C285.018 93.8828 284.326 94.4903 283.991 95.1985C282.276 95.6203 280.537 96.0022 278.787 96.3459Z" fill="#F9F0DE"/>
<path d="M332.87 79.9646C332.448 80.0301 332.013 80.0141 331.599 79.9043C331.318 76.0363 330.242 72.0524 329.796 69.033C328.607 60.9956 327.154 53.0062 326.021 44.9638C325.902 44.1376 325.438 43.5933 324.816 43.2982C324.969 42.147 325.138 40.9861 325.323 39.8155C325.453 38.9942 326.198 38.5054 327 38.3811C327.997 38.2265 329.086 38.6341 329.196 39.6538C329.92 46.2407 331.125 52.9127 332.438 59.412C333.637 65.3198 336.669 71.8391 335.246 77.9504C334.986 79.0566 333.982 79.7922 332.87 79.9646Z" fill="#F9ECD1"/>
<path d="M325.702 35.3561C323.852 35.6428 321.932 35.2227 320.612 33.7489C316.873 29.5615 312.278 26.4457 307.043 24.7705C306.683 24.5616 306.324 24.3563 305.969 24.1468C304.907 23.5246 303.751 23.3595 302.669 23.5273C302.477 23.557 302.283 23.598 302.094 23.649C299.164 23.2477 296.078 23.2694 292.872 23.7663C291.018 24.0538 289.124 24.5033 287.19 25.1186C286.977 25.1841 286.771 25.2342 286.562 25.2666C283.43 25.7522 280.847 22.4369 283.886 20.5012C288.304 17.692 293.248 15.9141 298.273 15.1351C311.222 13.1277 324.653 17.7555 330.69 28.3439C332.565 31.624 329.273 34.8023 325.702 35.3561Z" fill="#F9ECD1"/>
<path d="M14.6716 98.6073C14.6314 98.4324 14.5869 98.2581 14.543 98.0873L15.5459 98.055L15.553 98.4671C15.415 98.4776 15.2733 98.4923 15.137 98.5134C14.9793 98.5379 14.827 98.5687 14.6716 98.6073Z" fill="#A4A7AA"/>
<path d="M18.9051 118.651C18.183 118.357 17.6089 117.779 17.4285 116.897C16.2321 110.981 16.04 104.928 14.7653 99.0135C14.7353 98.8768 14.7059 98.7436 14.6718 98.6075C14.8273 98.5689 14.9796 98.538 15.1373 98.5136C15.2737 98.4925 15.4154 98.4777 15.5535 98.4672L15.5463 98.055L14.5431 98.0873C13.257 93.226 10.2874 88.1762 10.7174 83.1794C10.7699 82.6166 11.3025 82.2513 11.8906 82.1601C12.2487 82.1046 12.6317 82.154 12.9289 82.3254C14.7413 83.3459 16.168 84.8068 17.319 86.488C17.0896 94.4118 17.1659 102.364 18.4252 110.094C18.6423 111.438 19.1411 112.6 19.8461 113.6C19.5067 115.324 19.046 116.998 18.9051 118.651Z" fill="#F9ECD1"/>
<path d="M51.7098 139.796C50.0348 140.056 48.4073 140.229 46.8894 140.319C37.9702 140.868 26.5448 139.242 21.7071 132.503C21.6637 132.448 21.6282 132.388 21.5933 132.332C21.7452 132.327 21.904 132.309 22.0702 132.283C22.0702 132.283 22.0745 132.283 22.0788 132.282C26.0932 131.656 29.785 130.159 33.6141 128.986C37.6603 129.859 41.7159 130.597 46.1536 130.308C46.9445 130.258 47.7204 130.167 48.4833 130.048C52.6859 129.397 56.5213 127.842 60.468 126.61C59.9313 126.526 59.3987 126.413 58.8793 126.244C58.277 126.047 57.8105 125.797 57.351 125.451C56.9116 125.207 56.584 124.896 56.3578 124.507C56.193 124.26 56.104 124.136 56.0955 124.138C56.0869 124.139 56.1541 124.263 56.3056 124.507C56.2734 124.469 55.8491 124.013 55.7891 123.935C55.5673 123.687 55.3859 123.417 55.2486 123.123C55.0893 122.659 55.0094 122.424 55.0179 122.423C55.0179 122.423 55.0254 122.444 55.0454 122.488C54.543 121.021 55.7337 119.608 57.3661 119.355C57.6986 119.303 58.0509 119.296 58.4089 119.353C58.6866 119.342 58.966 119.342 59.1638 119.352C59.2725 119.32 59.3353 119.303 59.3438 119.302C59.3524 119.301 59.3029 119.319 59.1814 119.352L59.2124 119.355C59.5527 119.27 59.9771 119.164 60.024 119.157C60.1428 119.135 60.2275 119.118 60.2957 119.107C60.4399 119.052 60.5794 118.994 60.5959 118.988C61.0653 118.807 61.5674 118.667 62.0704 118.589C62.6798 118.495 63.2983 118.486 63.8942 118.586C64.9832 118.768 65.941 119.091 66.6586 119.694C66.3215 119.772 65.9721 119.855 65.6137 119.936C63.0811 120.492 62.0071 123.812 64.8716 124.524C65.0034 124.558 65.1289 124.608 65.2534 124.65C64.7639 125.237 64.3295 125.87 64.0021 126.573C62.8767 128.999 65.3492 130.758 67.7488 130.386C68.5501 130.262 69.3407 129.9 69.9861 129.249C69.8848 129.355 69.8471 129.394 69.8556 129.392C69.8897 129.387 70.3598 128.984 70.5817 128.895C70.6684 128.864 70.7643 128.835 70.8601 128.805C70.8243 128.912 70.7848 129.024 70.7405 129.132C68.1243 135.483 59.4415 138.598 51.7098 139.796Z" fill="#F9ECD1"/>
<path d="M21.5933 132.332C18.7666 132.455 17.0552 129.664 18.7906 127.626C19.1163 127.249 19.4814 126.874 19.8652 126.506C19.5732 125.58 19.8109 124.466 20.5977 123.713C20.0764 123.504 19.6356 123.167 19.4389 122.686C18.8902 121.343 18.7915 120.002 18.9049 118.651C19.454 118.87 20.0919 118.931 20.7099 118.835C21.8905 118.652 23.01 117.905 23.3265 116.653C24.9822 110.215 23.939 103.627 21.9563 97.4817C20.8563 94.0743 19.6236 89.8391 17.3189 86.4879C17.425 82.8645 17.5977 79.2488 17.7524 75.6577C16.0859 75.9161 14.3863 76.0454 12.57 75.9572C9.14014 75.7929 9.54357 71.779 12.6057 71.1194C15.844 70.4144 18.8888 69.6995 21.4643 67.7306C22.1083 67.2392 22.7937 66.9589 23.4799 66.8526C25.6792 66.5116 27.8432 67.9416 28.3638 69.8075C28.4602 70.1479 28.5566 70.4882 28.6572 70.8278C28.7303 70.2292 29.2736 69.8768 29.8618 69.7856C30.6034 69.6706 31.422 69.9678 31.485 70.7121C32.112 78.1914 33.1081 87.1505 37.8698 93.4559C42.0195 98.939 48.1187 100.049 54.4822 102.92C55.3369 103.309 55.694 104.008 55.6829 104.753C57.0918 105.422 56.9791 107.68 55.2833 108.171C53.7253 108.623 52.1157 108.967 50.4662 109.223C48.4672 109.533 46.4176 109.713 44.3525 109.793C45.0345 110.898 44.9863 112.418 44.0315 113.381C43.937 113.476 43.8366 113.56 43.7416 113.651C44.6784 113.444 45.617 113.248 46.5529 113.063C46.629 113.048 46.7052 113.032 46.7819 113.02C48.0819 112.819 49.2253 113.127 50.173 113.694C50.307 113.376 50.5376 113.061 50.8957 112.781C51.3159 112.451 51.7895 112.128 52.2812 111.809C52.282 110.659 53.083 109.491 54.8342 109.216C56.5294 108.946 58.2858 108.619 60.0524 108.331C61.3926 107.938 62.7624 107.625 64.1306 107.412C68.0092 106.811 71.8376 107.041 74.6511 108.634C76.5079 109.688 75.3802 111.846 73.4786 112.333C73.0419 112.444 72.6013 112.53 72.1538 112.6C69.328 113.038 66.3858 112.725 63.523 113.122C63.3903 113.139 63.2582 113.159 63.1303 113.179C59.6481 113.719 56.5196 114.907 53.2244 116.034C53.0503 116.094 52.8778 116.135 52.7116 116.161C52.6561 116.17 52.6002 116.175 52.5485 116.179C53.7342 118.112 54.0376 119.929 53.7297 122.278C53.561 123.555 52.255 124.562 50.8187 124.785C50.2646 124.871 49.6918 124.836 49.1622 124.658C48.7991 124.54 48.4696 124.413 48.1481 124.282C44.4465 126.701 40.6201 127.16 36.1818 128.261C35.3164 128.479 34.4596 128.724 33.6142 128.986C30.8456 128.385 28.081 127.726 25.2017 127.285C24.7365 127.212 24.3052 127.217 23.9173 127.277C21.3856 127.67 20.5021 130.558 21.5933 132.332ZM26.0594 117.614C25.9418 118.517 25.765 119.403 25.4767 120.274C26.7651 119.52 28.088 118.818 29.4575 118.193C28.2831 118.107 27.1392 117.907 26.0594 117.614ZM36.6628 103.463C36.5046 103.738 36.2935 103.981 36.0326 104.185C36.1564 104.336 36.285 104.49 36.4131 104.64C36.9086 104.571 37.409 104.504 37.9141 104.44C37.4857 104.126 37.0647 103.804 36.6628 103.463Z" fill="#E0C591"/>
<path d="M20.71 118.835C20.092 118.931 19.4541 118.87 18.9051 118.651C19.046 116.997 19.5067 115.324 19.8461 113.6C19.1411 112.6 18.6423 111.437 18.4252 110.094C17.1659 102.364 17.0897 94.4117 17.319 86.4879C19.6237 89.8391 20.8564 94.0743 21.9564 97.4818C23.9392 103.627 24.9823 110.215 23.3266 116.653C23.0101 117.905 21.8907 118.652 20.71 118.835Z" fill="#E3CDA3"/>
<path d="M22.0702 132.283C21.904 132.309 21.7452 132.327 21.5933 132.332C20.5021 130.558 21.3855 127.67 23.9173 127.277C24.3051 127.217 24.7364 127.212 25.2016 127.285C28.0809 127.727 30.8455 128.385 33.6141 128.986C29.785 130.159 26.0932 131.656 22.0787 132.282C22.0745 132.283 22.0702 132.283 22.0702 132.283Z" fill="#E3CDA3"/>
<path d="M77.9984 132.168C76.2211 132.444 74.3435 131.876 73.4194 130.138C73.05 129.444 72.6085 128.933 71.6926 128.712C71.6328 128.693 71.6152 128.692 71.5784 128.679C71.5533 128.687 71.5235 128.691 71.4937 128.696C71.2934 128.727 71.0104 128.76 71.1504 128.706C71.0599 128.742 70.9598 128.772 70.8603 128.805C71.4752 126.691 69.6364 124.768 66.9434 125.106C66.8667 125.118 66.79 125.129 66.7175 125.141C66.6664 125.149 66.6152 125.157 66.5641 125.165C66.5087 125.173 66.4575 125.181 66.4021 125.19C66.3723 125.194 66.3425 125.199 66.3126 125.203C66.5129 125.031 66.7179 124.862 66.9004 124.659C67.9217 123.533 68.1324 121.992 67.5042 120.756C67.2854 120.329 67.0002 119.982 66.6588 119.694C67.1727 119.574 67.6707 119.465 68.1779 119.386C68.8812 119.277 69.6029 119.23 70.4093 119.308C71.9513 119.457 73.4701 119.794 74.8692 120.317C76.4718 120.913 78.0194 121.717 79.11 122.756C80.8045 124.001 81.9384 125.797 82.1124 127.764C82.3265 130.131 80.2446 131.82 77.9984 132.168Z" fill="#E0C591"/>
<path d="M67.7489 130.386C65.3493 130.758 62.8768 128.999 64.0022 126.573C64.3297 125.87 64.764 125.237 65.2535 124.65C65.1291 124.608 65.0036 124.558 64.8718 124.524C62.0073 123.812 63.0812 120.492 65.6139 119.936C65.9723 119.855 66.3217 119.772 66.6588 119.694C67.0002 119.982 67.2854 120.329 67.5043 120.756C68.1324 121.992 67.9217 123.533 66.9004 124.659C66.7179 124.862 66.5129 125.031 66.3127 125.204C66.3425 125.199 66.3723 125.194 66.4022 125.19C66.4576 125.181 66.5087 125.173 66.5641 125.165C66.6153 125.157 66.6664 125.149 66.7176 125.141C66.79 125.13 66.8667 125.118 66.9435 125.106C69.6365 124.768 71.4752 126.691 70.8603 128.805C70.7644 128.835 70.6686 128.864 70.5818 128.895C70.3599 128.984 69.8899 129.387 69.8558 129.392C69.8472 129.394 69.8849 129.355 69.9863 129.249C69.3409 129.9 68.5502 130.262 67.7489 130.386Z" fill="#E3CDA3"/>
<path d="M286.415 101.656C279.864 102.672 273.317 102.222 268.558 99.255C268.37 99.1392 268.225 98.9913 268.121 98.8262C273.891 98.2107 278.677 97.574 282.368 97.0018C288.066 96.1183 291.148 95.3869 291.208 95.1274C291.257 94.906 292.428 93.9015 294.119 92.2256C295.15 92.0367 296.181 91.8478 297.209 91.6596C298.44 90.9901 299.627 90.2551 300.765 89.4588C305.274 86.3056 308.652 82.2221 310.828 77.7085C312.64 73.9657 313.253 69.8685 315.289 66.2249C315.425 65.9755 315.622 65.7783 315.834 65.6003C315.831 65.4413 315.828 65.2787 315.826 65.1232C315.653 59.1105 314.2 51.0342 318.238 45.6049C318.513 45.2396 318.96 45.0218 319.441 44.9472C319.757 44.8983 320.081 44.9095 320.384 44.9786C320.74 43.9229 321.823 43.2475 322.952 43.0724C323.604 42.9713 324.269 43.0386 324.816 43.2983C324.061 49.1249 323.804 54.7583 324.374 60.6622C324.969 66.8342 325.431 74.5492 330.407 79.2482C330.754 79.575 331.163 79.7908 331.6 79.9043C331.759 82.1742 331.643 84.4072 330.959 86.3839C331.892 87.2796 331.87 88.8563 330.611 89.7729C324.907 93.9126 316.561 95.036 309.521 96.276C308.658 96.4243 307.799 96.5684 306.938 96.7019C304.559 97.0706 302.201 97.3674 299.84 97.5991C295.806 99.4463 291.112 100.928 286.415 101.656ZM317.039 82.7743C315.722 84.8091 314.156 86.7557 312.468 88.5363C314.5 88.0183 316.549 87.4722 318.604 86.9869C317.923 85.6931 317.42 84.274 317.039 82.7743Z" fill="#E0C591"/>
<path d="M282.368 97.0017C278.677 97.5739 273.891 98.2107 268.121 98.8261C267.968 98.5743 267.906 98.2866 267.928 98.0041C269.922 97.7748 271.906 97.5107 273.875 97.2054C275.525 96.9497 277.161 96.667 278.788 96.346C280.442 96.3179 282.094 96.2467 283.764 96.0386C283.785 95.7561 283.863 95.4685 283.991 95.1985C284.327 95.1138 284.663 95.0291 284.999 94.9408C286.028 94.6798 286.733 94.1318 287.101 93.4983C289.441 93.074 291.78 92.6498 294.119 92.2255C292.428 93.9015 291.257 94.9059 291.208 95.1273C291.148 95.3868 288.066 96.1183 282.368 97.0017Z" fill="#E0CAA0"/>
<path d="M273.875 97.2054C271.906 97.5106 269.922 97.7747 267.928 98.0041C267.982 97.3721 268.459 96.7545 269.298 96.6244C269.332 96.6191 269.366 96.6138 269.401 96.612C272.55 96.287 275.661 96.3956 278.787 96.3459C277.161 96.6669 275.525 96.9496 273.875 97.2054ZM283.991 95.1985C284.326 94.4903 285.018 93.8829 286.024 93.6979C286.384 93.6312 286.746 93.5679 287.101 93.4982C286.733 94.1318 286.028 94.6798 284.999 94.9408C284.663 95.029 284.327 95.1137 283.991 95.1985Z" fill="#E3D0AD"/>
<path d="M331.6 79.9043C331.163 79.7907 330.754 79.575 330.407 79.2482C325.431 74.5492 324.969 66.8342 324.374 60.6622C323.804 54.7583 324.061 49.1249 324.816 43.2982C325.438 43.5933 325.902 44.1377 326.021 44.9638C327.155 53.0062 328.607 60.9956 329.796 69.033C330.243 72.0524 331.319 76.0364 331.6 79.9043Z" fill="#E3CDA3"/>
<path d="M275.395 46.3632C273.323 46.6843 271.083 45.9151 270.821 43.719C270.575 41.6546 270.529 39.5265 270.524 37.4392C270.515 35.6353 270.49 33.7832 271.817 32.2362C272.127 31.8762 272.602 31.6467 273.097 31.57C273.596 31.4927 274.118 31.5676 274.523 31.8166C276.256 32.8892 276.793 34.662 277.331 36.384C277.958 38.3748 278.558 40.417 278.945 42.4596C279.364 44.6313 277.462 46.0427 275.395 46.3632Z" fill="#E0C591"/>
<path d="M278.502 31.2722C275.016 31.8127 271.41 30.8782 268.318 29.3746C265.122 27.8182 267.254 23.9495 270.349 23.4698C270.941 23.378 271.57 23.4109 272.203 23.6065C275.827 24.7412 279.58 25.4102 282.897 27.0455C283.924 27.5571 283.905 29.068 282.899 29.6771C281.491 30.5334 280.007 31.0389 278.502 31.2722Z" fill="#E0C591"/>
<path d="M304.82 39.0391C302.702 39.3674 300.498 38.7775 299.802 36.8481C298.781 34.0373 298.747 31.0337 298.525 28.081C298.37 26.0098 300.017 24.2139 302.094 23.649C303.797 23.8815 305.449 24.2599 307.043 24.7704C309.339 26.1001 311.669 27.5262 312.796 29.7295C313.369 30.8369 313.053 32.2598 312.195 33.3426C312.22 33.6468 312.217 33.9663 312.155 34.2985C311.892 35.6952 310.685 36.5565 309.304 36.7706C309.155 36.7937 309.001 36.8104 308.849 36.8158C308.052 37.9798 306.461 38.7847 304.82 39.0391Z" fill="#E0C591"/>
<path d="M307.042 24.7705C305.449 24.2599 303.797 23.8816 302.094 23.649C302.282 23.598 302.476 23.557 302.668 23.5273C303.751 23.3594 304.907 23.5246 305.968 24.1468C306.323 24.3563 306.683 24.5616 307.042 24.7705Z" fill="#E3CDA3"/>
<path d="M295.483 42.8611C290.663 43.6084 291.423 36.9146 291.337 34.4991C291.283 32.8545 292.364 31.273 294.466 30.9472C296.268 30.6677 298.461 31.7453 298.519 33.3857C298.606 35.9786 300.001 42.1607 295.483 42.8611Z" fill="#E0C591"/>
<path d="M307.14 46.7345C303.5 47.2988 299.74 47.4865 296.241 47.7498C293.782 47.9352 293.357 45.1663 295.752 44.5956C299.167 43.7871 302.807 42.8313 306.447 42.267C308.991 41.8725 311.535 41.6703 313.998 41.8468C315.839 41.9783 316.178 44.1661 314.463 44.8452C312.17 45.7626 309.684 46.3401 307.14 46.7345Z" fill="#E0C591"/>
<path d="M340.686 79.3657C335.287 88.2033 322.926 92.9906 312.502 96.1619C296.776 100.945 280.089 103.195 263.73 104.825C226.292 108.555 188.53 108.558 151.197 107.672C136.456 107.322 121.726 106.51 106.964 106.475C106.171 104.009 104.7 101.613 103.659 99.2363C103.375 98.5879 102.293 98.8681 102.138 99.4722C101.726 101.098 101.382 102.765 101.243 104.425C88.5983 105.298 75.9039 105.116 63.2942 106.832C52.7449 108.268 42.058 111.124 32.2772 115.041C27.7568 116.851 23.355 118.976 19.3352 121.538C18.029 122.375 16.5345 123.321 15.2176 124.399C16.3188 116.974 15.2927 109.06 13.9047 102.022C14.9631 101.22 15.8476 100.252 16.9146 99.4488C18.2664 98.4272 19.4208 97.2586 20.8144 96.2813C20.035 96.2934 12.6528 96.3394 12.7261 96.6434C11.3708 91.0823 9.43216 85.3906 6.25674 80.5612L6.29552 80.5298C34.1062 47.5002 87.8854 45.2641 129.979 47.1595C154.853 48.2807 179.354 51.845 204.245 52.6844C227.929 53.4825 251.817 51.6026 275.462 48.6004C285.811 47.2823 296.172 45.5311 306.109 42.4246C314.323 39.8607 326.079 35.7906 330.784 29.0037C330.873 28.8774 330.946 28.7538 331.03 28.6247C331.372 32.1787 331.994 35.7111 332.486 39.2272C332.845 41.7925 337.149 64.2933 337.624 66.8515C338.385 70.9423 339.009 75.3879 340.798 79.2432C340.765 79.2845 340.718 79.3172 340.686 79.3657ZM81.1374 115.76C80.6792 115.592 80.2014 115.438 79.697 115.309C73.4259 113.682 61.1645 114.829 56.6556 120.092C56.6274 119.882 56.5849 119.664 56.5477 119.453C56.3319 116.455 55.0647 113.237 53.2507 110.883C61.2111 109.217 69.2083 108.38 77.2503 107.804C77.0598 109.109 77.9717 110.599 78.5911 111.667C78.7883 112.01 79.0052 112.339 79.2331 112.655C79.777 113.742 80.4405 114.784 81.1374 115.76ZM57.7811 122.876C58.1276 121.535 63.5905 118.85 63.6042 118.939C63.6156 118.984 63.6227 119.03 63.6517 119.076C64.4251 120.348 65.3729 121.536 66.2957 122.73C67.2078 123.912 68.0486 125.224 69.2987 126.165L69.3366 126.185C69.239 126.174 69.1297 126.173 69.0099 126.217C66.5118 127.108 63.9312 128.368 61.3465 127.518C59.207 126.809 57.2423 124.975 57.7811 122.876ZM83.7778 129.92C78.7226 139.092 62.7614 141.262 52.4796 142.059C40.0554 143.028 26.291 141.997 17.4054 134.344C14.8462 132.138 13.4255 129.759 16.1031 126.901C18.4411 124.414 22.0761 122.382 25.1912 120.685C31.5378 117.225 38.5665 114.758 45.6484 112.746C47.4082 112.245 49.1694 111.809 50.9355 111.405C51.5237 112.3 52.1487 113.178 52.7285 114.074C53.1025 114.854 53.4887 115.627 53.7748 116.431C54.9696 119.802 53.3522 125.389 56.747 127.749C60.4242 130.296 67.2759 129.053 70.374 126.035C69.7783 124.445 68.834 123.45 67.7835 122.079C66.7893 120.903 65.8041 119.7 64.6712 118.614C66.8788 117.989 69.2278 117.628 71.4337 117.442C74.9026 117.154 78.8313 117.383 81.6358 119.116C85.6132 121.573 85.8225 126.217 83.7778 129.92ZM295.342 27.7046C293.138 29.8733 288.336 30.6286 284.165 30.9454C283.979 30.115 283.559 29.2885 283.19 28.6278C282.728 27.786 282.154 27.0376 281.456 26.3699C283.282 25.0283 285.249 23.9766 287.546 23.3052C289.124 22.843 290.664 22.4992 292.338 22.6021C294.542 22.7425 299.085 24.0321 295.342 27.7046ZM298.325 41.9312C298.369 42.0511 298.445 42.1446 298.535 42.2176C296.363 42.7646 294.179 43.259 291.987 43.704C283.774 45.3724 275.377 46.6161 266.939 47.5908C268.029 43.0789 266.563 37.1145 264.131 32.2712C268.241 33.6932 274.134 33.53 277.39 33.4712C282.975 33.3775 292.095 32.801 296.635 29.7917C296.217 33.9129 296.879 38.0988 298.325 41.9312ZM262.415 26.9981C263.168 22.5639 275.379 20.022 279.208 19.1021C288.392 16.8844 298.049 15.5504 307.477 15.5752C314.079 15.5922 324.642 15.7671 328.64 20.8641C333.065 26.493 324.403 31.9903 319.068 34.7387C313.174 37.773 306.822 40.0157 300.305 41.7547C300.344 41.6399 300.36 41.5178 300.322 41.3859C299.102 36.9205 298.653 32.5892 298.473 28.0784C299.071 27.2353 299.387 26.2619 299.317 25.1344C298.76 16.448 283.765 21.6111 279.468 25.0577L279.392 25.1347C279.199 25.2118 279.058 25.3714 279.098 25.5429C278.85 26.1686 279.338 26.8397 280.015 26.9523C280.535 27.7743 281.015 28.6171 281.336 29.5097C281.515 30.0149 281.599 30.5565 281.695 31.0926C280.79 31.1351 279.952 31.1635 279.245 31.1934C275.705 31.3325 261.558 32.0285 262.415 26.9981ZM342.266 79.1714C341.739 74.7 340.065 70.2614 339.15 65.8537C338.095 60.7935 336.566 53.0698 334.555 39.6786C333.87 35.0902 333.399 30.3926 332.296 25.8619C333.815 20.1199 327.792 16.0401 321.177 14.5896C311.376 12.4367 300.259 13.2502 290.163 14.6813C281.446 15.9166 271.027 17.7096 263.636 22.3718C261.456 23.7428 259.225 25.738 259.704 28.1507C259.89 29.068 260.36 29.8181 260.995 30.4519C262.086 33.2083 263.262 35.9224 263.967 38.8146C264.686 41.7627 264.623 44.8721 265.557 47.7469C254.96 48.9294 244.305 49.6822 233.844 50.1947C191.178 52.2958 149.845 44.0472 107.314 44.4852C86.7985 44.7003 65.6146 46.4872 45.9044 52.6278C36.4073 55.5864 27.1682 59.6179 19.2471 65.1126C13.7965 68.8904 2.81273 76.8428 4.87816 83.24C5.59759 85.4594 6.37614 87.666 7.13283 89.8724C8.09967 92.7024 9.20412 95.5472 9.87055 98.4383C11.7603 98.3809 13.6495 98.3201 15.5386 98.2592C13.7799 98.4014 12.0844 99.3457 11.2074 100.671C10.0312 102.459 10.8559 104.006 11.2107 105.76C11.7182 108.273 11.6758 110.984 11.7415 113.548C11.8753 118.606 11.7027 123.686 11.9271 128.737C10.2832 134.35 18.528 138.883 23.3494 140.985C36.9286 146.902 56.215 145.714 70.8304 141.226C77.3338 139.228 84.0345 135.884 86.8618 130.247C88.6222 126.737 88.9578 122.82 87.1007 119.4C86.1805 117.715 84.043 116.484 82.8035 114.936C81.8825 113.781 81.1333 112.553 80.4092 111.316C80.3533 111.209 80.2942 111.109 80.2473 111.004C79.7817 110 79.69 108.676 79.1247 107.676C79.4493 108.25 90.3508 107.002 91.6268 106.927C95.58 106.695 99.2544 106.212 103.085 106.822C103.074 105.794 103.653 102.997 103.268 102.121C104.047 103.874 105.047 105.568 105.746 107.345C109.057 107.223 112.594 107.969 115.91 108.212C119.941 108.512 123.979 108.767 128.02 108.989C136.128 109.428 144.257 109.723 152.399 109.907C168.654 110.28 184.95 110.212 201.25 110.001C201.568 109.999 201.89 109.993 202.208 109.987C221.773 109.727 241.384 108.967 260.937 107.136C277.792 105.552 294.869 103.314 311.157 98.6615C322.893 95.3122 336.265 90.1796 342.104 80.2624C342.235 80.1769 342.32 80.0513 342.35 79.8763C342.514 79.5826 342.437 79.3408 342.266 79.1714Z" fill="black"/>
<path d="M269.679 40.3543C269.764 41.1242 269.818 41.9278 269.899 42.7309C269.269 42.6909 268.638 42.6218 268.013 42.5303C267.894 42.0703 267.78 41.6167 267.689 41.1739C267.618 40.8515 267.545 40.5256 267.478 40.2026C268.211 40.2557 268.943 40.3053 269.679 40.3543ZM272.145 43.3941C272.309 44.1953 272.449 45.0436 272.683 45.8484C272.139 45.8347 271.598 45.8352 271.053 45.8399C271.068 45.0329 270.966 44.2041 270.811 43.3762C271.255 43.3979 271.701 43.4013 272.145 43.3941ZM268.146 43.0498C268.74 43.1644 269.347 43.248 269.958 43.309C270.064 44.188 270.215 45.0491 270.475 45.8535C269.871 45.8675 269.27 45.8808 268.671 45.8976C268.612 44.9569 268.384 43.9953 268.146 43.0498ZM274.139 35.3056C270.845 35.3449 267.761 35.2176 264.57 34.6247C264.274 34.5692 264.139 34.9961 264.426 35.0748C264.981 35.2172 265.546 35.34 266.121 35.4466C266.244 36.1307 266.36 36.8197 266.478 37.5009C266.366 37.5909 266.344 37.761 266.52 37.8279L266.539 37.8359C266.657 38.5136 266.779 39.1871 266.897 39.8648C266.747 39.9353 266.737 40.1507 266.948 40.165L266.949 40.1686C267.013 40.5283 267.079 40.8952 267.144 41.2585C267.211 41.6324 267.266 42.0189 267.318 42.4097C267.093 42.3684 266.865 42.3277 266.633 42.2729C266.325 42.201 266.121 42.6024 266.435 42.6807C266.748 42.759 267.066 42.8367 267.391 42.9059C267.526 43.9217 267.678 44.9567 267.988 45.9128C267.84 45.9176 267.692 45.9224 267.544 45.9236C267.231 45.9287 267.15 46.3399 267.474 46.3441C267.697 46.3458 267.92 46.3475 268.143 46.3527C268.198 46.4784 268.239 46.6026 268.297 46.7241C268.359 46.8739 268.672 46.8363 268.68 46.6646C268.686 46.5622 268.679 46.4582 268.681 46.3564C269.341 46.3664 270.002 46.3764 270.666 46.3786C270.734 46.4804 270.916 46.4704 270.998 46.3815C271.618 46.3832 272.236 46.3744 272.851 46.3443C272.935 46.5742 273.014 46.8047 273.121 47.0165C273.214 47.1907 273.486 47.0869 273.486 46.9166C273.489 46.713 273.453 46.5119 273.43 46.3053C273.802 46.2839 274.17 46.2666 274.54 46.2275C274.728 46.2055 274.718 45.9714 274.536 45.9525C274.16 45.9166 273.774 45.904 273.387 45.8842C273.242 45.0366 272.953 44.186 272.721 43.3629C273.309 43.3261 273.896 43.2604 274.476 43.1415C274.692 43.0972 274.728 42.7944 274.484 42.7995C273.813 42.8057 273.155 42.8134 272.505 42.8163C272.406 42.7375 272.254 42.7429 272.151 42.8096C271.665 42.8051 271.18 42.797 270.697 42.7777C270.532 41.9694 270.333 41.1664 270.173 40.3865C271.314 40.4561 272.46 40.4996 273.61 40.4844C273.819 40.481 273.867 40.2271 273.654 40.2057C272.48 40.0616 271.286 39.9893 270.086 39.9396C270.065 39.8015 270.035 39.6648 270.009 39.5274C269.974 39.2973 269.547 39.3598 269.583 39.5934C269.6 39.6996 269.609 39.8142 269.621 39.9211C268.879 39.8912 268.137 39.8683 267.401 39.8448C267.265 39.2242 267.134 38.6064 266.999 37.9893C268.983 38.6497 271.192 38.9344 273.339 38.4529C273.495 38.4179 273.53 38.1913 273.343 38.195C271.077 38.2779 268.986 38.1924 266.9 37.5189C266.753 36.8494 266.606 36.1834 266.463 35.5132C268.962 35.9522 271.611 36.0381 274.137 35.6032C274.328 35.5699 274.343 35.3029 274.139 35.3056Z" fill="black"/>
<path d="M265.795 28.9826C267.322 27.8795 268.9 26.7649 270.225 25.4865C270.369 25.3446 270.129 25.1787 269.966 25.2837C268.366 26.2821 266.929 27.5127 265.524 28.6984C265.319 28.8679 265.563 29.1455 265.795 28.9826Z" fill="black"/>
<path d="M268.081 29.9912C269.765 28.3781 271.567 26.7973 273.027 25.0411C273.13 24.9128 272.942 24.7426 272.803 24.8584C270.939 26.3509 269.338 28.0999 267.682 29.7522C267.467 29.9669 267.865 30.1988 268.081 29.9912Z" fill="black"/>
<path d="M278.59 29.8158C277.221 30.4413 275.979 31.3298 274.72 32.105C274.382 32.317 274.771 32.7134 275.106 32.5128C276.35 31.7544 277.716 31.0461 278.825 30.1491C279.015 29.9964 278.848 29.7033 278.59 29.8158Z" fill="black"/>
<path d="M280.462 28.0611C278.899 28.1149 277.329 28.2386 275.763 28.3835C276.625 27.6118 277.476 26.8202 278.124 25.962C278.264 25.7664 278.01 25.5374 277.786 25.6955C276.65 26.4769 275.659 27.4862 274.696 28.4837C273.822 28.5647 272.95 28.6493 272.076 28.7303C273.386 27.3817 274.704 26.0283 275.809 24.5736C275.907 24.446 275.716 24.2545 275.57 24.3823C273.587 26.118 271.912 28.1214 270.159 30.0208C269.934 30.2551 270.361 30.5078 270.583 30.2741C270.89 29.9474 271.21 29.6222 271.523 29.2983C272.38 29.227 273.234 29.1599 274.096 29.0914C273.855 29.3355 273.618 29.5825 273.379 29.8117C273.12 30.0584 273.585 30.3271 273.837 30.0923C274.222 29.7318 274.629 29.375 275.036 29.0147C276.851 28.871 278.663 28.7096 280.462 28.4562C280.718 28.4201 280.734 28.0478 280.462 28.0611Z" fill="black"/>
<path d="M303.155 42.6577C302.936 41.1872 302.324 39.774 301.907 38.3488C301.462 36.83 301.063 35.3004 300.707 33.7606C300.02 30.764 299.515 27.732 299.1 24.6896C299.069 24.4334 298.614 24.5111 298.635 24.7616C298.866 27.9123 299.346 31.0352 300.029 34.1194C300.656 36.9513 301.161 40.2082 302.636 42.7962C302.762 43.0195 303.195 42.9125 303.155 42.6577Z" fill="black"/>
<path d="M318.99 28.4938C319.101 30.0571 319.03 31.7357 319.443 33.2486C319.5 33.4428 319.873 33.461 319.903 33.2281C320.092 31.6362 319.777 29.9704 319.655 28.3907C319.629 28.0286 318.965 28.1352 318.99 28.4938Z" fill="black"/>
<path d="M317.259 36.8644C313.229 37.5071 309.209 38.9678 305.303 40.0699C305.011 40.1551 305.148 40.5871 305.445 40.5048C309.368 39.4615 313.609 38.6591 317.358 37.168C317.556 37.0938 317.476 36.8307 317.259 36.8644Z" fill="black"/>
<path d="M302.799 31.214C303.652 31.0854 304.507 30.9639 305.362 30.8494C305.554 32.034 305.752 33.225 305.949 34.4125C305.132 34.55 304.319 34.6797 303.506 34.813C303.276 33.6125 303.042 32.4126 302.799 31.214ZM308.763 30.3766L308.751 30.4401C309.064 31.5623 309.352 32.6886 309.653 33.8093C308.677 33.9606 307.705 34.1148 306.736 34.2796C306.501 33.1052 306.262 31.9279 306.019 30.7548C306.93 30.6317 307.848 30.5003 308.763 30.3766ZM313.573 33.2813C312.51 33.4062 311.449 33.5418 310.386 33.6992C310.034 32.5829 309.674 31.4714 309.339 30.3489L309.292 30.2982C310.483 30.128 311.668 29.9443 312.845 29.74C313.014 30.9392 313.203 32.157 313.573 33.2813ZM310.154 35.6348C309.139 35.8465 308.124 36.0801 307.119 36.3011C307.021 35.7833 306.928 35.2684 306.826 34.7514C307.817 34.6122 308.803 34.4631 309.791 34.3098C309.908 34.7522 310.025 35.1945 310.154 35.6348ZM302.178 35.4285C302.357 35.4007 302.541 35.3758 302.724 35.3474C303.035 37.1517 303.37 38.9486 303.739 40.7401C303.827 41.1616 304.627 41.0339 304.532 40.6172C304.249 38.816 303.922 37.0178 303.582 35.2217C304.398 35.1061 305.213 34.9834 306.028 34.8678C306.12 35.4046 306.221 35.9401 306.321 36.4755C305.971 36.5516 305.615 36.6248 305.263 36.6902C304.993 36.7467 305.043 37.0978 305.319 37.0478C305.675 36.9817 306.033 36.9226 306.394 36.8594C306.482 37.3134 306.56 37.7652 306.653 38.2186C306.739 38.6365 307.531 38.5101 307.433 38.0976C307.362 37.641 307.273 37.1834 307.194 36.7281C308.233 36.5598 309.281 36.3972 310.331 36.2128C310.434 36.5666 310.536 36.9169 310.647 37.2658C310.77 37.6382 311.491 37.5555 311.393 37.1502C311.31 36.786 311.219 36.4267 311.137 36.066C312.444 35.8235 313.736 35.5399 314.973 35.1596C315.165 35.1009 315.065 34.8807 314.888 34.8936C313.578 34.9989 312.254 35.215 310.928 35.4785C310.805 35.0481 310.672 34.6155 310.537 34.1907C311.597 34.0191 312.65 33.8269 313.701 33.6241C313.768 33.8057 313.831 33.9881 313.915 34.1636C313.997 34.3539 314.404 34.3053 314.414 34.0863C314.422 33.8856 314.413 33.6841 314.407 33.4819C314.624 33.4411 314.841 33.4074 315.061 33.3589C315.246 33.3156 315.212 33.0961 315.023 33.1146C314.812 33.1328 314.603 33.1652 314.392 33.1834C314.315 31.9845 314.017 30.7691 313.71 29.5734C314.363 29.4539 315.021 29.3303 315.667 29.1938C315.802 30.7354 315.932 32.39 316.547 33.7411C316.622 33.9179 316.963 33.865 316.986 33.673C317.211 31.8002 316.543 29.7143 316.194 27.8904C316.128 27.5455 315.505 27.642 315.546 27.9909C315.584 28.2606 315.61 28.5393 315.636 28.8252C314.953 28.8913 314.263 28.9764 313.579 29.0645C313.427 28.479 313.28 27.8999 313.161 27.3311C313.089 26.9762 312.428 27.0786 312.497 27.4341C312.605 27.9937 312.687 28.5756 312.769 29.161C310.482 29.4756 308.195 29.87 305.917 30.2667C305.753 29.4584 305.584 28.6543 305.428 27.8448C305.422 27.8023 305.383 27.7792 305.358 27.7542C308.232 27.3449 311.18 27.022 313.969 26.3213C314.192 26.265 314.157 26.0095 313.923 26.0239C310.703 26.2259 307.432 26.9433 304.24 27.4417C303.882 27.5008 303.954 27.961 304.312 27.9055C304.508 27.8751 304.717 27.8463 304.918 27.8187C304.897 27.851 304.871 27.884 304.879 27.93C305.022 28.7416 305.157 29.558 305.288 30.3715C304.429 30.5192 303.574 30.6626 302.718 30.8025C302.322 28.8665 301.926 26.9304 301.527 25.0022C301.474 24.7457 301.004 24.8149 301.045 25.0768C301.568 28.3671 302.084 31.6657 302.654 34.9523C302.475 34.98 302.297 35.0113 302.118 35.039C301.816 35.0895 301.876 35.4754 302.178 35.4285Z" fill="black"/>
<path d="M304.462 26.2037C306.597 25.7567 308.727 25.3069 310.852 24.7926C311.046 24.7481 311.012 24.4996 310.811 24.5307C308.661 24.904 306.532 25.3354 304.396 25.7718C304.065 25.8375 304.133 26.2729 304.462 26.2037Z" fill="black"/>
<path d="M295.347 33.6743C295.509 33.6273 295.473 33.3937 295.304 33.3982C293.692 33.4197 292.007 33.8369 290.41 34.0953C290.108 34.1493 290.168 34.5351 290.471 34.4917C292.072 34.2581 293.804 34.1418 295.347 33.6743Z" fill="black"/>
<path d="M294.445 36.1669C294.571 36.1365 294.549 35.9949 294.419 36.0041C293.742 36.0547 293.071 36.1697 292.402 36.2734C292.21 36.3032 292.248 36.5509 292.44 36.5212C293.109 36.4175 293.785 36.3272 294.445 36.1669Z" fill="black"/>
<path d="M292.812 38.9177C293.493 38.8084 294.192 38.7291 294.854 38.5504C294.992 38.5109 294.961 38.3127 294.818 38.3168C294.133 38.3469 293.443 38.4828 292.761 38.5885C292.505 38.6246 292.556 38.9573 292.812 38.9177Z" fill="black"/>
<path d="M292.816 41.0847C293.719 40.8288 294.69 40.6202 295.553 40.2508C295.729 40.1764 295.659 39.9481 295.463 39.9785C294.502 40.113 293.545 40.439 292.611 40.6924C292.293 40.778 292.493 41.1709 292.816 41.0847Z" fill="black"/>
<path d="M328.45 35.4303C321.96 39.4597 315.363 42.8532 307.749 45.0052C307.448 45.0917 307.64 45.4571 307.937 45.3748C315.327 43.3518 322.841 40.1859 328.7 35.6924C328.903 35.5376 328.669 35.2948 328.45 35.4303Z" fill="black"/>
<path d="M319.711 82.36C319.526 80.9387 319.371 79.5163 319.295 78.0707C320.23 77.8243 321.167 77.563 322.09 77.2895C322.034 78.6757 321.956 80.0616 321.871 81.4525C321.154 81.7557 320.432 82.0561 319.711 82.36ZM319.822 87.6609C318.55 88.1045 317.272 88.5275 315.975 88.9206C315.885 87.5244 315.757 86.1341 315.581 84.744C316.753 84.2506 317.924 83.7536 319.096 83.2602C319.277 84.7401 319.505 86.2092 319.822 87.6609ZM314.856 79.1685C316.124 78.8705 317.398 78.5606 318.682 78.2274C318.74 79.701 318.86 81.1761 319.027 82.6473C317.851 83.1414 316.675 83.6355 315.503 84.1289C315.286 82.4733 315.051 80.8168 314.856 79.1685ZM322.975 73.1211C324.011 72.7902 325.043 72.4635 326.066 72.1126C326.076 73.1588 326.103 74.2059 326.18 75.2415C325.085 75.5782 323.985 75.919 322.894 76.2585C322.946 75.2137 322.967 74.1664 322.975 73.1211ZM322.935 70.1294C323.972 69.8381 325.007 69.5326 326.035 69.2101C326.054 69.9503 326.057 70.7003 326.064 71.4496C325.029 71.7551 324.004 72.0734 322.972 72.3965C322.968 71.6395 322.956 70.8873 322.935 70.1294ZM322.746 66.3741C323.817 65.9397 324.883 65.4918 325.936 65.0239C325.966 66.2555 325.991 67.4878 326.025 68.7223C324.986 68.9704 323.948 69.2328 322.913 69.5093C322.873 68.4606 322.82 67.4175 322.746 66.3741ZM322.558 64.0686C323.69 63.6249 324.799 63.152 325.877 62.6441C325.888 63.2189 325.907 63.7923 325.917 64.3671C324.836 64.7668 323.757 65.1841 322.685 65.615C322.648 65.0987 322.608 64.5829 322.558 64.0686ZM329.159 71.0024C329.22 72.0986 329.302 73.1916 329.426 74.2708C328.549 74.5264 327.676 74.7848 326.81 75.0497C326.821 73.9967 326.77 72.9387 326.716 71.8814C327.535 71.5949 328.35 71.3054 329.159 71.0024ZM332.126 77.2453C328.829 78.3908 325.652 79.8584 322.448 81.2071C322.632 79.83 322.754 78.4481 322.84 77.0644C323.995 76.7114 325.137 76.3386 326.261 75.9287C326.292 76.2719 326.314 76.6128 326.367 76.9491C326.395 77.1078 326.696 77.1046 326.714 76.9352C326.752 76.5377 326.76 76.1377 326.776 75.7364C327.688 75.3957 328.592 75.0344 329.467 74.6487C329.594 75.6983 329.769 76.7371 330.017 77.7463C330.055 77.9071 330.38 77.922 330.394 77.7313C330.535 75.4038 330.299 73.037 330.013 70.6851C330.15 70.6095 330.113 70.4303 329.977 70.397C329.798 68.9603 329.607 67.529 329.472 66.1217C329.438 65.7898 328.837 65.8865 328.866 66.2155C328.984 67.6509 329.05 69.1197 329.131 70.5971C328.314 70.8145 327.498 71.0424 326.683 71.2775C326.643 70.5985 326.613 69.9217 326.587 69.2479C326.585 69.1793 326.582 69.1071 326.58 69.0386C327.184 68.8472 327.793 68.6657 328.39 68.4644C328.573 68.4035 328.494 68.1474 328.299 68.1885C327.72 68.3108 327.141 68.4587 326.564 68.5952C326.525 67.3289 326.477 66.0639 326.429 64.7953C327.262 64.4233 328.1 64.0578 328.907 63.6608C329.122 63.5549 328.994 63.2956 328.762 63.3751C327.973 63.6316 327.19 63.9052 326.413 64.1851C326.392 63.5975 326.37 63.0064 326.353 62.4181C326.442 62.3753 326.535 62.3282 326.629 62.2847C326.913 62.1429 326.745 61.8244 326.436 61.9122L326.332 61.9429C326.323 61.6651 326.312 61.3914 326.303 61.11C326.294 60.8576 325.834 60.9325 325.843 61.1813C325.846 61.4853 325.857 61.7844 325.865 62.0842C324.726 62.4274 323.595 62.8167 322.474 63.2407C322.415 62.6951 322.362 62.1524 322.295 61.6081C324.019 60.8224 325.657 59.9304 327.051 58.8697C327.238 58.7247 327.067 58.4394 326.823 58.5498C325.244 59.2658 323.755 60.1311 322.202 60.8974C322.079 59.9377 321.936 58.9847 321.784 58.0296C323.403 57.3254 324.997 56.5743 326.47 55.7152C326.659 55.6063 326.469 55.3964 326.282 55.458C324.718 55.9578 323.175 56.5886 321.652 57.2634C321.553 56.6806 321.44 56.0927 321.327 55.5084C322.79 54.9191 324.333 54.3753 325.659 53.5754C325.822 53.4775 325.705 53.2274 325.507 53.2762C324.021 53.6517 322.613 54.3122 321.213 54.9134C321.056 54.1257 320.888 53.3471 320.709 52.5627C322.39 51.7801 324.056 50.9782 325.634 50.07C325.843 49.9507 325.641 49.6884 325.423 49.7765C323.768 50.4209 322.166 51.1769 320.572 51.9569C320.453 51.446 320.322 50.9371 320.199 50.4269C321.921 49.54 323.624 48.6162 325.154 47.5598C325.312 47.452 325.162 47.2468 324.985 47.3177C323.284 48.0019 321.646 48.8613 320.029 49.7535C319.901 49.2659 319.764 48.7724 319.631 48.2819C321.547 47.4374 323.456 46.5724 325.273 45.5983C325.503 45.4756 325.373 45.1767 325.105 45.2763C323.191 45.9935 321.322 46.8307 319.47 47.6942C319.23 46.8505 318.982 46.0081 318.72 45.1677C321.571 43.9029 324.408 42.6075 327.106 41.1524C327.312 41.0444 327.11 40.7821 326.9 40.8653C324.036 41.9837 321.245 43.2936 318.471 44.6299C318.331 44.5719 318.141 44.6377 318.15 44.7848C316.298 45.6737 314.452 46.5762 312.6 47.4397C312.311 47.5751 312.505 47.9547 312.798 47.8186C314.607 46.9871 316.455 46.1787 318.296 45.3603C318.554 46.2049 318.786 47.057 319.018 47.9056C317.566 48.5875 316.119 49.2794 314.668 49.9395C314.35 50.083 314.559 50.5073 314.886 50.3588C316.301 49.7224 317.742 49.104 319.181 48.4785C319.317 48.9867 319.457 49.4943 319.579 50.0046C318.291 50.73 317.013 51.4682 315.74 52.1549C315.454 52.308 315.745 52.7197 316.035 52.5659C317.236 51.923 318.484 51.2982 319.729 50.6628C319.852 51.173 319.967 51.6881 320.081 52.1997C318.913 52.7759 317.751 53.3549 316.585 53.9162C316.244 54.0815 316.469 54.5469 316.822 54.3761C317.944 53.8433 319.076 53.3198 320.213 52.7956C320.381 53.5742 320.542 54.3541 320.689 55.136C319.037 55.8271 317.393 56.5134 315.746 57.2073C315.364 57.3608 315.611 57.8519 315.997 57.6942C317.593 57.0407 319.189 56.3836 320.789 55.7259C320.895 56.3222 321 56.9149 321.097 57.5125C319.184 58.3782 317.299 59.3085 315.42 60.1399C315.056 60.3014 315.296 60.779 315.664 60.6169C317.474 59.8215 319.37 59.0708 321.228 58.2717C321.374 59.2423 321.485 60.2147 321.606 61.1893L321.512 61.2328C319.695 62.0656 317.821 62.791 315.908 63.4319C315.494 63.5723 315.757 64.0898 316.172 63.9493C317.964 63.3488 319.859 62.678 321.687 61.8835C321.747 62.4108 321.824 62.9354 321.875 63.4639C319.458 64.3969 317.076 65.4441 314.709 66.3657C314.306 66.5225 314.567 67.0293 314.971 66.876C317.245 66.0015 319.625 65.1939 321.945 64.3086C321.99 64.8237 322.036 65.3458 322.065 65.867C319.216 67.0301 316.391 68.2619 313.561 69.4075C313.159 69.5714 313.422 70.0888 313.829 69.9242C316.56 68.8158 319.35 67.7525 322.106 66.6436C322.159 67.6613 322.195 68.678 322.213 69.6975C319.316 70.491 316.436 71.3399 313.56 72.1301C313.18 72.2398 313.422 72.7061 313.799 72.6006C316.595 71.8336 319.421 71.1092 322.225 70.3337C322.23 71.0979 322.231 71.8662 322.223 72.6323C319.087 73.6332 315.975 74.7029 312.914 75.7647C312.645 75.8572 312.82 76.1708 313.084 76.0973C316.108 75.2189 319.177 74.3262 322.219 73.3688C322.202 74.4083 322.167 75.4505 322.128 76.4933C319.678 77.2465 317.22 77.9755 314.717 78.6065C314.562 78.4274 314.203 78.5013 314.144 78.7424C313.779 78.8353 313.422 78.9268 313.056 79.0127C312.633 79.1035 312.717 79.6706 313.142 79.5684C313.475 79.4915 313.82 79.4125 314.157 79.3313C314.327 81.0451 314.46 82.7754 314.614 84.5024C313.975 84.7754 313.34 85.0407 312.7 85.3066C312.287 85.4831 312.558 86.0211 312.976 85.8439C313.541 85.6076 314.111 85.3671 314.676 85.1272C314.802 86.4743 314.97 87.8149 315.185 89.1446C314.613 89.3095 314.045 89.4772 313.466 89.6286C313.001 89.755 313.095 90.3858 313.563 90.2552C314.137 90.1009 314.71 89.9396 315.283 89.7747C315.337 90.0383 315.361 90.3064 315.415 90.5699C315.474 90.8653 316.019 90.8641 316.066 90.5452C316.096 90.2359 316.149 89.9304 316.225 89.6287C316.235 89.5801 316.212 89.5438 316.186 89.5187C317.454 89.1409 318.724 88.7446 319.99 88.3236C320.163 89.0472 320.327 89.7685 320.538 90.4825C320.626 90.7662 321.187 90.8062 321.228 90.4518C321.271 90.0027 321.315 89.5537 321.338 89.1079C321.345 88.9256 321.015 88.8281 320.947 89.0344L320.934 89.0654C320.862 88.7395 320.789 88.4136 320.716 88.0841C322.287 87.5469 323.844 86.9721 325.371 86.3511C325.444 86.4014 325.515 86.4594 325.591 86.5054C325.845 86.6474 326.096 86.3837 325.952 86.1849L325.908 86.1229C327.109 85.6249 328.283 85.0877 329.439 84.5241C329.508 84.6259 329.572 84.7319 329.652 84.8282C329.797 84.998 330.105 84.8451 330.088 84.6555C330.08 84.519 330.038 84.3843 330.012 84.2504C330.798 83.8532 331.576 83.4424 332.335 83.0131C332.496 82.9265 332.341 82.7184 332.173 82.788C331.412 83.1127 330.654 83.4332 329.891 83.7508C329.656 83.0223 329.271 82.3099 328.982 81.6297C328.81 81.2249 328.066 81.5215 328.238 81.9263C328.532 82.6129 328.773 83.3803 329.141 84.0629C327.923 84.5671 326.708 85.0671 325.488 85.5536C324.793 84.5919 324.266 83.702 324.248 82.4288C324.248 82.0627 323.579 82.17 323.579 82.5326C323.589 83.6367 323.937 84.9276 324.767 85.8357C323.381 86.3769 321.983 86.9089 320.568 87.4075C320.261 85.9361 320.014 84.4519 319.796 82.9631C320.476 82.6764 321.152 82.3904 321.828 82.1044C321.81 82.4661 321.787 82.8284 321.765 83.1908C321.749 83.3998 322.117 83.437 322.154 83.2211C322.228 82.7745 322.286 82.3306 322.352 81.8853C322.455 81.8404 322.557 81.7956 322.66 81.7543C325.875 80.3931 329.192 79.1284 332.294 77.5709C332.537 77.4498 332.395 77.1528 332.126 77.2453Z" fill="black"/>
<path d="M328.076 88.5998C322.585 91.666 316.848 94.2157 310.628 95.9339C310.177 96.0619 310.463 96.6121 310.911 96.4883C317.103 94.7599 323.112 92.2803 328.352 88.8869C328.59 88.7304 328.317 88.4646 328.076 88.5998Z" fill="black"/>
<path d="M21.5955 122.689C20.2401 125.292 19.392 128.098 18.3595 130.785C18.2651 131.021 18.6741 131.153 18.777 130.916C19.8793 128.229 21.2226 125.52 21.9915 122.765C22.0513 122.56 21.6859 122.512 21.5955 122.689Z" fill="black"/>
<path d="M64.2402 128.138C62.5983 130.104 61.2354 132.237 59.7875 134.299C59.6121 134.547 60.0227 134.803 60.206 134.55C61.6838 132.483 63.2923 130.442 64.5773 128.286C64.6773 128.114 64.3685 127.981 64.2402 128.138Z" fill="black"/>
<path d="M68.2269 129.837C69.6324 127.444 71.185 125.072 72.3833 122.609C72.4864 122.401 72.1225 122.222 71.98 122.429C70.3541 124.751 69.0375 127.239 67.613 129.649C67.4193 129.977 68.029 130.165 68.2269 129.837Z" fill="black"/>
<path d="M76.4446 119.696C73.9302 123.522 72.0533 127.689 69.9522 131.676C69.7761 132.004 70.3767 132.19 70.5528 131.862C72.6913 127.891 75.1491 123.924 76.8525 119.821C76.9511 119.585 76.5817 119.483 76.4446 119.696Z" fill="black"/>
<path d="M80.1955 119.68C80.3156 119.469 79.9642 119.342 79.7976 119.506C76.6299 122.694 74.6325 126.984 73.104 130.835C72.9563 131.206 73.6082 131.413 73.7596 131.038C74.5649 129.054 75.5032 127.11 76.6064 125.217C77.7102 123.328 79.0821 121.564 80.1955 119.68Z" fill="black"/>
<path d="M82.0901 121.257C80.7133 124.82 79.3072 128.279 77.0271 131.561C76.7839 131.907 77.3629 132.263 77.6141 131.912C79.9092 128.642 81.8483 125.046 82.4764 121.327C82.5086 121.141 82.1649 121.064 82.0901 121.257Z" fill="black"/>
<path d="M67.8331 121.752C68.8493 120.311 69.929 118.886 70.8095 117.387C70.9238 117.195 70.5879 117.055 70.4436 117.222C69.2899 118.565 68.3052 120.012 67.2841 121.421C67.0424 121.748 67.5963 122.083 67.8331 121.752Z" fill="black"/>
<path d="M28.6231 124.354C28.8565 123.72 29.1021 123.08 29.3526 122.443C30.512 121.926 31.6795 121.434 32.8594 120.964C32.4697 122.054 32.0976 123.145 31.6933 124.197C31.4029 124.942 31.1215 125.689 30.8321 126.441C29.5118 127.215 28.2145 128.025 26.9434 128.863C27.5094 127.362 28.0753 125.86 28.6231 124.354ZM37.2362 119.325C36.9681 120.074 36.7038 120.818 36.4304 121.56C36.1437 122.329 35.8614 123.098 35.5747 123.868C34.2826 124.514 33.0093 125.197 31.7622 125.909C31.9942 125.322 32.2273 124.742 32.455 124.156C32.9253 122.966 33.4707 121.754 33.9798 120.533C35.0543 120.117 36.1402 119.716 37.2362 119.325ZM41.4081 117.914C41.0108 118.729 40.6135 119.545 40.2349 120.368C39.9761 120.923 39.7536 121.487 39.5039 122.044C38.5008 122.472 37.5187 122.921 36.5392 123.388C36.7759 122.775 37.012 122.159 37.2438 121.543C37.5695 120.687 37.908 119.83 38.2423 118.973C39.2947 118.611 40.3487 118.259 41.4081 117.914ZM37.7999 126.002C36.8895 126.408 35.9802 126.821 35.0752 127.233C35.4789 126.177 35.8772 125.115 36.2852 124.058C37.2762 123.553 38.2683 123.055 39.2717 122.573C38.7724 123.716 38.2677 124.853 37.7999 126.002ZM41.8616 124.977C41.4395 125.971 41.0142 126.972 40.5879 127.966C39.3147 128.678 38.0694 129.43 36.8396 130.197C37.3003 129.002 37.7834 127.81 38.2841 126.62C39.4893 126.088 40.6784 125.538 41.8616 124.977ZM30.367 129.409C30.7345 128.486 31.0983 127.567 31.4664 126.647C32.7337 125.925 34.0218 125.225 35.3224 124.548C34.9415 125.583 34.5601 126.613 34.1792 127.647C32.9038 128.233 31.6376 128.821 30.367 129.409ZM24.8758 130.757C25.1872 130.542 25.5004 130.338 25.8129 130.13C25.6307 130.644 25.4448 131.162 25.2632 131.68C25.151 131.998 25.7068 132.176 25.8312 131.853C26.1178 131.083 26.4045 130.314 26.6916 129.548C27.9558 128.721 29.2478 127.933 30.5528 127.173C30.2202 128.04 29.8882 128.911 29.5562 129.782C28.7453 130.154 27.9254 130.524 27.1092 130.89C26.7793 131.042 26.9955 131.48 27.3393 131.332C27.9799 131.045 28.6392 130.765 29.2895 130.483C29.016 131.196 28.743 131.912 28.4694 132.625C28.3476 132.938 28.8981 133.11 29.0198 132.797C29.3715 131.913 29.7275 131.027 30.0755 130.147C31.3318 129.608 32.5893 129.076 33.8462 128.54C33.6001 129.205 33.3626 129.869 33.1118 130.532C32.9796 130.889 33.6079 131.086 33.7439 130.724C34.0659 129.873 34.3921 129.021 34.7184 128.169C35.6193 127.787 36.5148 127.398 37.4098 127.005C36.9131 128.25 36.4164 129.494 35.9517 130.748L35.9523 130.751C34.4674 131.703 33.0233 132.692 31.6011 133.71C31.2913 133.935 31.6662 134.327 31.9814 134.107C34.6068 132.236 37.3528 130.494 40.2 128.871C39.8676 129.655 39.5395 130.438 39.2022 131.219C39.055 131.564 39.6701 131.759 39.821 131.409C40.2691 130.387 40.7209 129.359 41.1733 128.336C42.4285 127.648 43.7121 127.003 45.007 126.375C44.737 127.055 44.4756 127.733 44.2099 128.413C44.0643 128.769 44.7023 128.971 44.8468 128.607C45.2016 127.715 45.565 126.821 45.9236 125.925C47.0493 125.388 48.174 124.844 49.2922 124.286C48.6661 125.568 48.0912 126.872 47.5744 128.156C44.3037 129.75 41.1579 131.615 38.1899 133.417C37.8347 133.631 38.2407 134.054 38.5965 133.843C41.1381 132.304 43.7414 130.852 46.4224 129.509C46.6778 129.382 46.9348 129.266 47.1864 129.144C47.1121 129.34 47.0293 129.538 46.9592 129.734C46.8133 130.115 47.4886 130.333 47.6378 129.944C47.8028 129.516 47.9992 129.094 48.1776 128.667C49.9078 127.863 51.6574 127.098 53.3656 126.265C52.7082 127.458 52.0694 128.659 51.4344 129.855C49.0655 131.129 46.7325 132.466 44.3806 133.737C44.0226 133.934 44.4233 134.35 44.7769 134.154C46.7821 133.067 48.8401 132.012 50.8628 130.927C50.7439 131.144 50.6334 131.361 50.5144 131.579C50.3076 131.962 51.0091 132.18 51.2202 131.796C51.5031 131.284 51.7946 130.771 52.0819 130.259C53.4694 129.497 54.8415 128.718 56.1664 127.889C56.3732 127.759 56.171 127.468 55.9384 127.573C54.8392 128.084 53.7577 128.625 52.6881 129.186C53.9625 126.933 55.24 124.673 56.2512 122.355C56.3705 122.083 55.9424 121.968 55.7793 122.211C55.0463 123.31 54.3849 124.45 53.7417 125.594C51.9987 126.176 50.2846 126.887 48.5991 127.67C49.1924 126.317 49.8262 124.972 50.547 123.653C50.6268 123.604 50.6516 123.539 50.6459 123.474C51.7672 121.444 53.1363 119.521 54.2908 117.508C54.4278 117.265 54.0122 117.091 53.8265 117.301C52.1481 119.199 50.7896 121.36 49.6426 123.59C48.5104 124.001 47.3961 124.471 46.3017 124.985C47.0558 123.121 47.81 121.257 48.5556 119.394C49.7104 116.51 51.2391 113.533 51.8641 110.554C51.9074 110.355 51.5826 110.315 51.482 110.483C49.8101 113.269 48.8972 116.473 47.7378 119.412C46.948 121.412 46.171 123.41 45.3855 125.41C44.0874 126.046 42.8195 126.736 41.5686 127.423C41.9988 126.453 42.4237 125.478 42.8533 124.505C43.5992 124.135 44.3444 123.762 45.079 123.377C45.2928 123.264 45.1711 122.985 44.9236 123.078C44.3413 123.292 43.7649 123.515 43.1848 123.743C43.5817 122.84 43.9781 121.934 44.3745 121.028C45.1118 119.337 45.8539 117.648 46.5864 115.954C47.2798 114.346 48.1612 112.683 48.5574 111.016C48.6165 110.749 48.1882 110.718 48.0543 110.924C47.0354 112.488 46.434 114.296 45.719 115.962C44.986 117.653 44.2668 119.348 43.5391 121.045C43.0958 122.071 42.661 123.095 42.2268 124.123C41.0437 124.6 39.8719 125.094 38.7034 125.608C39.2143 124.427 39.7572 123.256 40.2964 122.088C40.6948 121.899 41.0928 121.707 41.4961 121.521C41.6796 121.439 41.5645 121.203 41.3708 121.276C41.0749 121.395 40.7923 121.514 40.5012 121.636C40.6253 121.366 40.744 121.091 40.8687 120.825C41.3896 119.736 41.9376 118.654 42.4809 117.57C42.7721 117.477 43.0671 117.381 43.3631 117.291C43.6043 117.214 43.4945 116.872 43.2463 116.933C43.0732 116.97 42.9023 117.022 42.7335 117.059C42.9332 116.658 43.1234 116.252 43.3322 115.853C44.1791 114.221 45.2142 112.593 45.8059 110.891C45.869 110.708 45.5948 110.544 45.4448 110.73C44.3248 112.093 43.587 113.668 42.8024 115.167C42.4292 115.885 42.065 116.605 41.7089 117.32C40.6433 117.597 39.5858 117.899 38.5322 118.225C39.2369 116.409 39.9134 114.578 40.3867 112.732C40.4432 112.506 40.0404 112.441 39.9374 112.649C38.9766 114.56 38.2374 116.549 37.5201 118.538C36.4452 118.897 35.3748 119.284 34.3167 119.694C34.8155 118.435 35.2556 117.164 35.5011 115.904C35.5439 115.701 35.2239 115.664 35.1233 115.832C34.3083 117.191 33.6991 118.666 33.1485 120.155C31.9692 120.627 30.8059 121.12 29.6567 121.646C30.2116 120.186 30.7345 118.716 31.0457 117.233C31.0848 117.034 30.745 116.982 30.6551 117.163C29.8102 118.751 29.2131 120.446 28.6362 122.13C27.4408 122.696 26.2614 123.281 25.1034 123.892C25.4501 122.722 25.775 121.552 26.0294 120.377C26.0618 120.22 25.779 120.17 25.7146 120.317C25.1069 121.662 24.5873 123.041 24.0992 124.425C23.4227 124.791 22.7462 125.157 22.0889 125.534C21.7879 125.704 22.1253 126.051 22.4226 125.885C22.8959 125.616 23.3773 125.371 23.8565 125.112C23.0771 127.404 22.3932 129.721 21.7256 132.003C21.6473 132.258 22.1558 132.357 22.2512 132.099C23.1679 129.623 24.1025 127.093 24.8921 124.556C26.0405 123.968 27.203 123.415 28.3772 122.881C28.2067 123.386 28.032 123.891 27.8556 124.386C27.2441 126.073 26.6512 127.767 26.0573 129.454C25.5635 129.788 25.0691 130.118 24.5887 130.454C24.3484 130.622 24.635 130.922 24.8758 130.757Z" fill="black"/>
<path d="M56.7363 116.193C59.1239 115.631 61.6355 115.166 63.9275 114.324C64.1213 114.251 64.0317 114.011 63.8351 114.038C61.4178 114.38 59.0231 115.15 56.6721 115.779C56.3701 115.859 56.4205 116.268 56.7363 116.193Z" fill="black"/>
<path d="M55.6483 114.524C57.9148 114.082 60.2768 113.749 62.4885 113.094C62.6594 113.042 62.5705 112.835 62.4069 112.849C60.1235 113.098 57.8391 113.706 55.5939 114.174C55.3276 114.229 55.3771 114.577 55.6483 114.524Z" fill="black"/>
<path d="M61.0915 112.332C61.2849 112.284 61.2519 112.071 61.0526 112.08C59.1711 112.191 57.2664 112.602 55.4049 112.898C55.1241 112.945 55.1801 113.306 55.4614 113.263C57.3257 112.984 59.266 112.803 61.0915 112.332Z" fill="black"/>
<path d="M56.4063 111.39C58.1665 111.23 59.9327 111.079 61.6888 110.836C61.8476 110.819 61.8052 110.63 61.6581 110.638C59.8889 110.713 58.1213 110.882 56.3514 111.036C56.0801 111.06 56.135 111.414 56.4063 111.39Z" fill="black"/>
<path d="M68.1299 112.433C70.1268 112.026 72.2266 111.718 74.1591 111.093C74.355 111.033 74.2543 110.806 74.0737 110.823C72.056 111.013 70.0357 111.55 68.0563 111.959C67.6925 112.033 67.7624 112.512 68.1299 112.433Z" fill="black"/>
<path d="M70.1585 133.036C66.3794 134.448 62.6459 135.788 58.6523 136.661C54.6112 137.538 50.4736 138.045 46.3513 138.144C42.4641 138.239 38.5912 137.977 34.8171 137.365C31.1411 136.768 26.825 135.954 25.0022 132.953L24.9538 132.978C26.1202 135.603 29.3484 136.691 32.3775 137.367C36.5219 138.283 40.8672 138.693 45.2037 138.681C53.6198 138.659 62.8293 137.112 70.3774 133.462C70.6939 133.308 70.5007 132.906 70.1585 133.036Z" fill="black"/>
<path d="M13.0173 78.4182C18.4215 73.2992 24.5804 69.2195 31.2731 65.4015C31.5416 65.2475 31.2739 64.8721 30.9893 65.0069C24.0057 68.2718 17.795 73.0592 12.6853 78.2196C12.5081 78.3993 12.8384 78.5874 13.0173 78.4182Z" fill="black"/>
<path d="M25.1086 86.3098C24.3663 86.7584 23.6278 87.2028 22.8903 87.6543C22.8382 87.6841 22.8229 87.7264 22.8071 87.7651C22.6215 87.2718 22.4407 86.7814 22.2466 86.2895C22.9727 85.6803 23.7277 85.0884 24.4897 84.5135C24.696 85.1123 24.906 85.7069 25.1086 86.3098ZM26.0803 89.1427C25.4265 89.5993 24.7717 90.0488 24.1388 90.5276C23.8604 90.7302 24.2042 91.0902 24.4821 90.884C25.0571 90.4541 25.6546 90.057 26.2504 89.6492C26.5076 90.4069 26.7641 91.161 27.0255 91.918C26.4542 92.3147 25.8956 92.7094 25.3663 93.096C25.1 93.2931 25.4241 93.638 25.6946 93.4402C26.1809 93.0857 26.6923 92.7527 27.1983 92.4132C27.5851 93.5568 27.9799 94.6955 28.3709 95.8384C27.6061 96.3666 26.8466 96.9013 26.0806 97.4224C25.7328 96.2764 25.3775 95.1388 25.0136 94.0026C24.3596 91.9796 23.639 89.9779 22.8891 87.9844C22.9762 88.0397 23.0985 88.0679 23.2138 87.9956C23.9025 87.5952 24.5868 87.1955 25.2749 86.7916C25.5407 87.5769 25.8145 88.3574 26.0803 89.1427ZM32.044 94.2213C32.1484 94.5568 32.2528 94.8922 32.3572 95.2277C31.3502 95.7427 30.361 96.2876 29.39 96.8658C29.3031 96.6147 29.2172 96.3706 29.126 96.1201C30.1117 95.496 31.083 94.8633 32.044 94.2213ZM33.4683 98.8473C32.5141 99.365 31.5729 99.9097 30.6381 100.468C30.3069 99.486 29.9667 98.502 29.6185 97.5228L29.7424 97.4492C30.6719 96.9136 31.6171 96.4227 32.5773 95.944C32.8711 96.9098 33.1697 97.8786 33.4683 98.8473ZM33.9751 100.483C34.1654 101.092 34.3387 101.703 34.5163 102.314C33.6151 102.863 32.7144 103.416 31.8168 103.961C31.511 103.03 31.1965 102.1 30.8821 101.17C31.8101 100.623 32.7422 100.076 33.684 99.5353C33.7809 99.8501 33.8782 100.169 33.9751 100.483ZM37.8288 101.129C38.2064 102.017 38.5714 102.936 38.9663 103.85C37.9873 104.291 37.0174 104.764 36.0722 105.255C35.8412 104.385 35.5719 103.52 35.2855 102.658C36.1422 102.159 36.9882 101.648 37.8288 101.129ZM32.8125 107.033C32.5534 106.207 32.2822 105.386 32.0152 104.565C32.9117 104.041 33.812 103.514 34.7171 102.989C34.9677 103.846 35.2311 104.7 35.5398 105.537C34.6164 106.028 33.7075 106.528 32.8125 107.033ZM32.2418 107.35C31.1372 107.967 30.0466 108.618 28.9747 109.277C28.8216 108.402 28.6556 107.529 28.4721 106.655C29.3676 106.124 30.2667 105.59 31.1622 105.059C31.3058 104.972 31.4547 104.891 31.6025 104.803C31.9014 105.605 32.2083 106.402 32.5152 107.199C32.4221 107.246 32.3338 107.296 32.2418 107.35ZM27.6663 103.118C28.5617 102.559 29.464 102.017 30.3663 101.474C30.701 102.394 31.0436 103.309 31.3819 104.224C31.25 104.303 31.115 104.389 30.9874 104.467C30.1041 104.991 29.2257 105.519 28.3431 106.047C28.1345 105.068 27.909 104.092 27.6663 103.118ZM23.399 105.266C23.347 104.114 23.247 102.962 23.1086 101.816C24.0869 101.088 25.0904 100.382 26.111 99.7015C26.3939 100.738 26.6597 101.777 26.9255 102.816C25.7231 103.619 24.5533 104.435 23.399 105.266ZM29.0836 97.845C29.4232 98.8255 29.7714 99.8047 30.1191 100.78C29.2338 101.32 28.3592 101.872 27.4959 102.441C27.2269 101.41 26.9451 100.381 26.6511 99.3568C27.448 98.8381 28.2604 98.3351 29.0836 97.845ZM26.2435 97.9663C27.0207 97.4615 27.7985 96.9603 28.5939 96.46C28.6803 96.7076 28.7661 96.9517 28.8568 97.1986C28.0433 97.6945 27.2501 98.209 26.4756 98.7314C26.3966 98.4754 26.3219 98.2188 26.2435 97.9663ZM23.6774 82.1453C23.8923 82.7718 24.1078 83.4018 24.3271 84.0276C23.5598 84.625 22.8124 85.2375 22.0896 85.868C21.805 85.1581 21.5075 84.4502 21.2144 83.7416C22.0202 83.1961 22.8405 82.6593 23.6774 82.1453ZM24.6889 83.7431C24.4729 83.1385 24.2613 82.5333 24.0405 81.9259C24.7626 81.4877 25.4793 81.0431 26.218 80.6277C28.4224 79.3905 30.9149 78.435 33.0131 77.0766C33.1359 76.9959 33.0524 76.795 32.8884 76.8349C30.532 77.4576 28.3323 78.781 26.2736 79.9448C25.4515 80.413 24.6502 80.9034 23.8585 81.3995C23.7047 80.9702 23.5503 80.5374 23.3964 80.1081C23.33 79.9045 22.9601 80.0525 23.0271 80.2596C23.1891 80.713 23.343 81.1713 23.5013 81.6289C22.6634 82.1648 21.832 82.7142 21.021 83.2822C20.7483 82.6212 20.4793 81.956 20.1938 81.297C23.9398 78.9109 27.8588 76.5996 31.2872 73.9111C31.4663 73.771 31.2649 73.5702 31.0682 73.6805C27.1942 75.8036 23.6193 78.4205 20.0027 80.8807C19.5573 79.8658 19.0949 78.8536 18.625 77.8498C22.4206 74.9957 26.5945 72.6956 30.7019 70.1919C30.854 70.103 30.7043 69.8979 30.5367 69.971C26.0975 71.8265 22.1065 74.6311 18.4468 77.4606C18.3946 77.349 18.3461 77.2333 18.2944 77.1253C18.204 76.9363 17.8634 77.0761 17.9448 77.2629C18.0152 77.4078 18.0729 77.5548 18.1392 77.7004L18.0727 77.7505C17.8655 77.9059 18.0831 78.155 18.3002 78.0633C18.7546 79.0804 19.2054 80.1017 19.6434 81.1249C19.3191 81.3419 18.9991 81.5583 18.6828 81.7705C18.4335 81.936 18.7249 82.2388 18.9742 82.0733C19.2517 81.8925 19.5388 81.7175 19.8206 81.5361C20.104 82.2099 20.3661 82.8871 20.6356 83.5558C20.2503 83.8294 19.865 84.103 19.4888 84.3789C19.2379 84.5628 19.5406 84.882 19.7914 84.6981C20.1257 84.4614 20.4803 84.2433 20.8194 84.0094C22.2141 87.4872 23.4964 91.0006 24.6285 94.5589C24.9637 95.6235 25.2692 96.6927 25.5709 97.766C25.3381 97.9254 25.0973 98.0896 24.8639 98.2454C24.5593 98.4485 24.9145 98.8248 25.2233 98.6211C25.3897 98.5119 25.5609 98.4056 25.7273 98.2964C25.8026 98.5567 25.8778 98.8169 25.9531 99.0771C24.9389 99.7708 23.9659 100.476 23.0147 101.182C22.081 94.0331 19.5942 87.0016 16.3305 80.5328C16.2568 80.3956 16.0062 80.4961 16.0713 80.6347C19.3469 87.3771 21.2405 94.3555 22.4981 101.567C22.385 101.653 22.2675 101.74 22.1538 101.823C21.8462 102.063 22.227 102.464 22.5437 102.227L22.6149 102.179C22.7913 103.232 22.9548 104.287 23.1109 105.351L23.1625 105.43C22.3855 105.992 21.6176 106.557 20.854 107.121C20.5809 107.331 20.9199 107.688 21.2021 107.481C23.113 106.068 25.0868 104.751 27.0948 103.486C27.331 104.446 27.5597 105.415 27.7922 106.379C25.5073 107.745 23.223 109.114 20.9387 110.483C20.5915 110.693 20.9868 111.103 21.3345 110.897C23.5365 109.588 25.7347 108.282 27.9366 106.973C28.1393 107.83 28.3456 108.682 28.5526 109.539C26.5486 110.774 24.5935 112.07 22.6951 113.423C22.365 113.659 22.7657 114.075 23.1 113.839C24.9176 112.556 26.7878 111.331 28.7003 110.154C28.848 110.769 28.9867 111.382 29.1381 111.993C29.1701 112.115 29.3923 112.084 29.3768 111.956C29.2891 111.277 29.1879 110.596 29.0783 109.917C30.1869 109.242 31.3063 108.579 32.447 107.942C32.5433 107.887 32.6406 107.839 32.7374 107.788C33.0135 108.499 33.2694 109.221 33.5541 109.93C33.5784 110.003 33.7291 109.961 33.7048 109.889C33.4797 109.141 33.237 108.392 33.0034 107.645C33.9208 107.144 34.8549 106.666 35.7991 106.197C35.8849 106.412 35.9621 106.628 36.0515 106.839C36.129 107.001 36.4474 106.915 36.4115 106.74C36.3682 106.489 36.2941 106.236 36.2375 105.984C37.2472 105.486 38.2575 104.993 39.2629 104.496C39.6898 105.419 40.1448 106.328 40.7157 107.138C40.8053 107.266 41.0999 107.224 41.0549 107.046C40.8165 106.071 40.4225 105.106 39.9731 104.15C40.7668 103.752 41.5557 103.35 42.3375 102.932C42.3704 103.003 42.4 103.082 42.4329 103.153C42.92 104.324 43.2915 105.622 44.0447 106.68C44.1563 106.837 44.4973 106.784 44.4595 106.569C44.2575 105.378 43.6234 104.244 43.145 103.129C42.6133 101.867 42.0809 100.601 41.5411 99.3431C41.4032 99.0165 40.8029 99.2545 40.9408 99.5812C41.3568 100.575 41.7733 101.573 42.1893 102.567C41.3392 102.855 40.5036 103.18 39.6809 103.532C39.2258 102.624 38.7457 101.723 38.3068 100.834C39.1856 100.281 40.0495 99.7157 40.8774 99.1161C41.0502 98.9915 40.8886 98.7374 40.6811 98.8348C39.7761 99.276 38.8938 99.7499 38.0178 100.237L38.0119 100.227C37.893 99.9667 37.4076 100.158 37.5271 100.422L37.5621 100.507C36.7198 100.986 35.8881 101.477 35.0586 101.983C34.8544 101.369 34.655 100.759 34.4609 100.154C34.3705 99.853 34.2711 99.5494 34.1765 99.2487C35.7553 98.3405 37.3438 97.4381 38.9392 96.5237C39.1195 96.4197 38.943 96.1824 38.7546 96.2623C37.1252 96.9572 35.5303 97.7337 33.966 98.5671C33.6649 97.6097 33.3642 96.6557 33.063 95.6983C34.7004 94.8862 36.3556 94.1039 37.9742 93.2549C38.2369 93.1199 38.091 92.7981 37.7918 92.8952C36.1064 93.4538 34.4547 94.1739 32.8386 94.9827C32.7272 94.6302 32.611 94.2748 32.5033 93.9181C33.7163 93.0993 34.9085 92.2583 36.0134 91.362C36.1951 91.2106 35.9889 91.0069 35.7794 91.1192C33.3902 92.4031 31.13 93.928 28.8993 95.4738C28.4965 94.3399 28.0943 93.2096 27.6873 92.0764C28.5794 91.4958 29.488 90.9381 30.4379 90.4211C31.9676 89.5894 33.6341 88.9649 35.1439 88.1182C35.2843 88.0384 35.1762 87.8196 35.0127 87.863C32.3879 88.5563 29.7975 90.0346 27.5145 91.5812C27.2415 90.8332 26.9726 90.0846 26.7038 89.336C27.7601 88.6321 28.8372 87.9504 29.947 87.3107C31.8391 86.2271 33.9632 85.4012 35.7921 84.2476C35.9904 84.119 35.7934 83.9175 35.5921 83.9705C33.5329 84.5398 31.5693 85.7252 29.7751 86.7646C28.6535 87.4133 27.5749 88.1134 26.5209 88.8315C26.2456 88.0694 25.9746 87.3066 25.695 86.5452C26.9638 85.8047 28.2332 85.0678 29.4929 84.3251C31.5322 83.1208 33.8666 81.9904 35.6354 80.5054C35.7783 80.3854 35.6573 80.1685 35.4562 80.2504C33.2747 81.1288 31.2967 82.5592 29.3331 83.7445C28.0548 84.5082 26.7915 85.2841 25.5191 86.0577C25.3015 85.4425 25.0802 84.8316 24.8632 84.22C25.8186 83.5136 26.8004 82.8357 27.8179 82.1922C29.8372 80.9149 32.1147 79.9528 34.1115 78.6717C34.3252 78.5298 34.1184 78.2936 33.8937 78.3647C31.6875 79.0548 29.5216 80.4563 27.653 81.6631C26.6291 82.3221 25.641 83.0155 24.6889 83.7431Z" fill="black"/>
<path d="M25.4146 116.579C24.9932 116.79 25.2778 117.358 25.7034 117.147C31.2121 114.448 36.8397 111.868 42.1997 108.942C42.4492 108.805 42.2046 108.466 41.9433 108.583C36.3189 111.043 30.8903 113.892 25.4146 116.579Z" fill="black"/>
<path d="M287.43 26.8395C287.486 28.299 287.606 29.8864 288.111 31.2617C288.171 31.4228 288.512 31.3699 288.521 31.1982C288.59 29.7302 288.219 28.1853 287.831 26.7774C287.777 26.5683 287.423 26.6231 287.43 26.8395Z" fill="black"/>
<path d="M290.105 30.9452C290.328 30.1603 290.011 29.3284 289.861 28.5578C289.687 27.6568 289.503 26.7537 289.287 25.8628C289.254 25.7084 288.981 25.7507 288.988 25.9091C289.056 26.823 289.158 27.7388 289.261 28.651C289.348 29.4386 289.296 30.3131 289.751 31.0001C289.838 31.1353 290.059 31.101 290.105 30.9452Z" fill="black"/>
<path d="M292.426 29.8968C292.611 29.1467 292.367 28.3941 292.231 27.6576C292.08 26.8184 291.919 25.9769 291.77 25.1335C291.722 24.8509 291.202 24.9316 291.238 25.2161C291.352 26.0648 291.453 26.9155 291.562 27.7613C291.66 28.5074 291.655 29.2876 292.059 29.9536C292.143 30.0966 292.39 30.0582 292.426 29.8968Z" fill="black"/>
<path d="M294.195 31.0037C294.272 31.1367 294.544 31.1199 294.561 30.9469C294.643 30.0967 294.333 29.2494 294.132 28.4288C293.901 27.4749 293.661 26.5223 293.423 25.5733C293.357 25.2899 292.828 25.3683 292.89 25.6559C293.09 26.6109 293.283 27.5742 293.488 28.5285C293.665 29.3603 293.747 30.2574 294.195 31.0037Z" fill="black"/>
<path d="M327.692 44.7047C329.466 56.233 330.824 67.8912 333.16 79.3252C333.196 79.5044 333.516 79.4549 333.497 79.273C332.256 67.6692 330.025 56.1465 328.225 44.6221C328.181 44.3354 327.648 44.418 327.692 44.7047Z" fill="black"/>
<path d="M47.3715 104.772C47.4808 104.886 47.7507 104.797 47.7084 104.637C47.2766 102.837 45.8967 101.115 44.9671 99.4826C44.7967 99.1719 44.2044 99.4051 44.3748 99.7158C45.2926 101.357 46.0064 103.371 47.3715 104.772Z" fill="black"/>
<path d="M51.1391 105.482C50.8131 104.224 50.069 103.056 49.4683 101.884C49.3102 101.568 48.7178 101.801 48.8803 102.117C49.4693 103.298 49.9616 104.559 50.8102 105.613C50.9078 105.736 51.175 105.629 51.1391 105.482Z" fill="black"/>
<path d="M54.2237 105.813C54.3348 105.853 54.4596 105.758 54.4448 105.662C54.3607 105.092 53.865 104.625 53.6217 104.097C53.2857 103.366 53.1533 102.596 53.1908 101.797C53.2041 101.432 52.5327 101.38 52.5157 101.749C52.4755 102.56 52.5798 103.345 52.8812 104.107C53.1249 104.721 53.4665 105.546 54.2237 105.813Z" fill="black"/>
<path d="M57.3995 103.833C57.3954 103.272 57.01 102.672 56.794 102.152C56.7013 101.919 56.2741 102.091 56.3711 102.322C56.5865 102.84 56.7254 103.51 57.1318 103.937C57.2309 104.041 57.4 103.949 57.3995 103.833Z" fill="black"/>
<path d="M61.6065 104.222C61.434 103.194 60.8383 102.195 60.423 101.234C60.2889 100.932 59.7301 101.156 59.8642 101.458C60.279 102.416 60.5962 103.505 61.2398 104.363C61.3503 104.512 61.6306 104.378 61.6065 104.222Z" fill="black"/>
<path d="M287.93 93.9136C288.095 95.1241 288.094 96.4946 288.527 97.6528C288.579 97.7933 288.873 97.7477 288.885 97.5973C288.942 96.3631 288.53 95.0567 288.322 93.8528C288.285 93.6411 287.901 93.7005 287.93 93.9136Z" fill="black"/>
<path d="M291.451 95.4304C291.543 96.0829 291.506 96.8859 291.808 97.4806C291.877 97.6184 292.124 97.5801 292.149 97.4277C292.256 96.7696 291.978 96.0155 291.868 95.3657C291.825 95.144 291.425 95.2061 291.451 95.4304Z" fill="black"/>
<path d="M293.242 93.8333C293.685 95.0878 293.958 96.5934 294.693 97.7337C294.808 97.9116 295.145 97.834 295.121 97.6203C294.958 96.2897 294.173 94.9142 293.698 93.6502C293.602 93.3969 293.155 93.5822 293.242 93.8333Z" fill="black"/>
<path d="M297.49 91.0541C297.436 90.7326 296.838 90.8216 296.885 91.1479C297.03 92.115 297.171 93.0792 297.316 94.0463C297.442 94.8824 297.45 95.7802 297.836 96.5541C297.911 96.7019 298.193 96.6583 298.215 96.4953C298.346 95.6485 298.089 94.7784 297.956 93.9472C297.797 92.9821 297.644 92.0199 297.49 91.0541Z" fill="black"/>
<path d="M299.59 87.2846C299.953 89.7151 300.011 92.3924 300.817 94.7216C300.88 94.904 301.268 94.8438 301.273 94.6509C301.336 92.1869 300.576 89.6186 300.191 87.1915C300.136 86.8664 299.539 86.9589 299.59 87.2846Z" fill="black"/>
<path d="M303.023 86.06C303.176 87.5552 303.329 89.0503 303.482 90.5455C303.622 91.8688 303.586 93.299 304.052 94.5572C304.112 94.7219 304.425 94.6553 304.448 94.4958C304.626 93.1668 304.282 91.7593 304.13 90.4451C303.956 88.9532 303.781 87.4613 303.607 85.9695C303.571 85.6524 302.991 85.7423 303.023 86.06Z" fill="black"/>
<path d="M305.959 84.2236C306.327 87.3531 306.349 90.7101 307.166 93.7554C307.23 93.9957 307.62 93.9533 307.656 93.7338L307.674 93.7347L307.675 93.6838L307.672 93.6697C307.723 90.5044 306.962 87.2582 306.569 84.1291C306.523 83.8063 305.922 83.8995 305.959 84.2236Z" fill="black"/>
<path d="M310.648 82.4599C310.751 83.9956 310.845 85.529 310.943 87.0652C311.037 88.5697 310.953 90.1958 311.37 91.65C311.419 91.8273 311.759 91.8472 311.791 91.632C311.996 90.1718 311.722 88.6555 311.615 87.204C311.504 85.5898 311.389 83.9763 311.275 82.3628C311.249 82.0261 310.631 82.1219 310.648 82.4599Z" fill="black"/>
<path d="M332.754 83.573C332.831 83.561 332.815 83.4571 332.738 83.4691C332.66 83.4811 332.676 83.5851 332.754 83.573Z" fill="black"/>
<path d="M277.411 99.2892C257.316 101.94 237.156 103.967 216.96 105.028C196.703 106.095 176.45 106.201 156.296 105.45C144.93 105.03 133.644 104.191 122.314 103.518C122.173 103.508 122.141 103.694 122.283 103.712C132.219 104.905 142.333 105.505 152.403 105.959C162.485 106.412 172.6 106.623 182.732 106.601C202.827 106.549 222.987 105.649 243.082 103.792C254.58 102.727 266.042 101.382 277.464 99.6361C277.733 99.5945 277.68 99.2547 277.411 99.2892Z" fill="black"/>
<path d="M121.713 47.8357C156.165 52.9713 191.658 54.7445 226.988 54.1467C236.849 53.9811 246.819 53.8203 256.682 52.9437C256.971 52.9207 256.98 52.5023 256.684 52.5083C247.787 52.7493 238.885 53.2956 229.993 53.4815C221.187 53.6648 212.396 53.6864 203.614 53.547C186.047 53.2653 168.539 52.3289 151.152 50.7903C141.311 49.9234 131.515 48.8463 121.733 47.6875C121.622 47.6757 121.601 47.8203 121.713 47.8357Z" fill="black"/>
<path d="M304.64 21.2061C309.251 20.6036 314.025 19.6387 318.508 20.8216C322.613 21.9107 325.27 24.631 325.452 28.2823C325.467 28.5772 325.997 28.5313 326.05 28.2548C326.758 24.7736 323.29 21.7731 319.857 20.5436C315.199 18.8768 309.452 19.8438 304.606 20.9902C304.447 21.0294 304.473 21.2283 304.64 21.2061Z" fill="black"/>
<path d="M48.179 70.738L47.783 70.771C47.959 77.657 48.212 82.552 48.542 85.456C48.63 86.16 48.938 86.875 49.466 87.601C50.016 88.305 50.291 88.91 50.291 89.416C50.291 89.9 50.137 90.318 49.829 90.67C49.543 91.022 49.147 91.198 48.641 91.198C48.157 91.198 47.739 90.901 47.387 90.307C47.057 89.691 46.859 89.031 46.793 88.327C46.221 80.957 45.561 75.402 44.813 71.662C42.811 72.674 40.853 74.423 38.939 76.909C40.677 79.659 41.546 82.002 41.546 83.938C41.546 85.852 40.897 87.513 39.599 88.921C38.301 90.307 37.091 91 35.969 91C34.847 91 33.978 90.637 33.362 89.911C32.768 89.185 32.471 88.294 32.471 87.238C32.471 86.16 32.823 84.807 33.527 83.179C34.253 81.529 35.199 79.813 36.365 78.031C35.331 76.513 34.154 75.171 32.834 74.005C31.514 72.817 30.227 72.003 28.973 71.563C28.445 75.281 28.093 78.086 27.917 79.978C27.763 81.848 27.642 83.883 27.554 86.083C27.466 88.261 27.411 89.537 27.389 89.911C27.367 90.263 27.235 90.571 26.993 90.835C26.751 91.077 26.465 91.198 26.135 91.198C25.805 91.198 25.497 91.077 25.211 90.835C24.947 90.571 24.815 90.208 24.815 89.746C24.815 89.284 24.98 87.975 25.31 85.819C26.036 81.309 26.443 76.425 26.531 71.167C25.629 70.969 25.178 70.408 25.178 69.484C25.178 69.066 25.376 68.725 25.772 68.461C26.168 68.175 26.652 68.032 27.224 68.032C28.918 68.032 30.744 68.758 32.702 70.21C34.682 71.64 36.464 73.444 38.048 75.622C39.72 73.4 41.447 71.585 43.229 70.177C45.011 68.747 46.661 68.032 48.179 68.032C49.213 68.032 49.73 68.45 49.73 69.286C49.73 69.682 49.554 70.023 49.202 70.309C48.872 70.595 48.531 70.738 48.179 70.738ZM38.939 85.093C38.939 83.421 38.356 81.529 37.19 79.417C35.408 82.277 34.517 84.433 34.517 85.885C34.517 86.677 34.715 87.37 35.111 87.964C35.529 88.558 36.046 88.855 36.662 88.855C37.278 88.855 37.806 88.47 38.246 87.7C38.708 86.908 38.939 86.039 38.939 85.093ZM53.6315 68.032L60.2975 68.23L66.9635 68.032C67.3155 68.032 67.6235 68.153 67.8875 68.395C68.1735 68.615 68.3165 68.923 68.3165 69.319C68.3165 69.715 68.1735 70.034 67.8875 70.276C67.6235 70.496 67.3155 70.606 66.9635 70.606L60.2975 70.408C59.7255 70.408 58.8015 70.43 57.5255 70.474C57.5255 70.738 57.5035 71.211 57.4595 71.893C57.3275 73.939 57.2615 75.853 57.2615 77.635C58.4055 77.723 59.4725 77.767 60.4625 77.767C61.4745 77.767 62.4975 77.734 63.5315 77.668C64.5875 77.602 65.2255 77.569 65.4455 77.569C65.6875 77.569 65.9185 77.679 66.1385 77.899C66.3585 78.119 66.4685 78.405 66.4685 78.757C66.4685 79.109 66.3585 79.406 66.1385 79.648C65.9185 79.868 65.6325 79.978 65.2805 79.978L60.6935 79.813C59.5495 79.813 58.4055 79.857 57.2615 79.945C57.2615 82.629 57.3055 84.73 57.3935 86.248C57.5035 87.766 57.5585 88.624 57.5585 88.822L67.3925 88.624C67.7445 88.624 68.0525 88.745 68.3165 88.987C68.6025 89.207 68.7455 89.515 68.7455 89.911C68.7455 90.307 68.6025 90.626 68.3165 90.868C68.0525 91.088 67.7445 91.198 67.3925 91.198L61.0565 91C60.1765 91 59.1315 91.033 57.9215 91.099C56.7115 91.165 56.0625 91.198 55.9745 91.198C55.5125 91.198 55.1275 91.022 54.8195 90.67C54.5335 90.318 54.3905 89.966 54.3905 89.614C54.3905 89.262 54.4345 88.041 54.5225 85.951C54.6325 83.861 54.6875 81.848 54.6875 79.912C54.6875 77.954 54.5885 74.852 54.3905 70.606L53.6315 70.606C53.2795 70.606 52.9605 70.496 52.6745 70.276C52.4105 70.034 52.2785 69.715 52.2785 69.319C52.2785 68.923 52.4105 68.615 52.6745 68.395C52.9605 68.153 53.2795 68.032 53.6315 68.032ZM69.2614 68.032L75.9274 68.23L82.5934 68.032C82.9454 68.032 83.2534 68.153 83.5174 68.395C83.8034 68.615 83.9464 68.923 83.9464 69.319C83.9464 69.715 83.8034 70.034 83.5174 70.276C83.2534 70.496 82.9454 70.606 82.5934 70.606L77.4784 70.441C77.3024 74.225 77.2144 77.239 77.2144 79.483C77.2144 81.705 77.2584 83.861 77.3464 85.951C77.4564 88.041 77.5114 89.262 77.5114 89.614C77.5114 89.966 77.3574 90.318 77.0494 90.67C76.7634 91.022 76.3894 91.198 75.9274 91.198C75.4654 91.198 75.0804 91.022 74.7724 90.67C74.4864 90.318 74.3434 89.966 74.3434 89.614C74.3434 89.262 74.3874 88.041 74.4754 85.951C74.5854 83.861 74.6404 81.826 74.6404 79.846C74.6404 77.844 74.5414 74.709 74.3434 70.441L69.2614 70.606C68.9094 70.606 68.5904 70.496 68.3044 70.276C68.0404 70.034 67.9084 69.715 67.9084 69.319C67.9084 68.923 68.0404 68.615 68.3044 68.395C68.5904 68.153 68.9094 68.032 69.2614 68.032ZM86.937 69.814C86.937 69.88 86.882 70.892 86.772 72.85C86.684 74.786 86.64 76.931 86.64 79.285C86.64 81.639 86.684 83.861 86.772 85.951C86.882 88.041 86.937 89.262 86.937 89.614C86.937 89.966 86.783 90.318 86.475 90.67C86.189 91.022 85.815 91.198 85.353 91.198C84.891 91.198 84.506 91.022 84.198 90.67C83.912 90.318 83.769 89.966 83.769 89.614C83.769 89.262 83.813 88.041 83.901 85.951C84.011 83.861 84.066 81.639 84.066 79.285C84.066 76.931 84.011 74.786 83.901 72.85C83.813 70.892 83.769 69.88 83.769 69.814C83.769 69.352 83.912 68.945 84.198 68.593C84.506 68.219 84.891 68.032 85.353 68.032C85.815 68.032 86.189 68.219 86.475 68.593C86.783 68.945 86.937 69.352 86.937 69.814ZM89.604 68.032L96.27 68.23L102.936 68.032C103.288 68.032 103.596 68.153 103.86 68.395C104.146 68.615 104.289 68.923 104.289 69.319C104.289 69.715 104.146 70.034 103.86 70.276C103.596 70.496 103.288 70.606 102.936 70.606L96.27 70.408C95.698 70.408 94.774 70.43 93.498 70.474C93.498 70.738 93.476 71.211 93.432 71.893C93.3 73.939 93.234 75.853 93.234 77.635C94.378 77.723 95.445 77.767 96.4351 77.767C97.447 77.767 98.47 77.734 99.504 77.668C100.56 77.602 101.198 77.569 101.418 77.569C101.66 77.569 101.891 77.679 102.111 77.899C102.331 78.119 102.441 78.405 102.441 78.757C102.441 79.109 102.331 79.406 102.111 79.648C101.891 79.868 101.605 79.978 101.253 79.978L96.6661 79.813C95.522 79.813 94.378 79.857 93.234 79.945C93.234 82.629 93.278 84.73 93.366 86.248C93.476 87.766 93.531 88.624 93.531 88.822L103.365 88.624C103.717 88.624 104.025 88.745 104.289 88.987C104.575 89.207 104.718 89.515 104.718 89.911C104.718 90.307 104.575 90.626 104.289 90.868C104.025 91.088 103.717 91.198 103.365 91.198L97.029 91C96.149 91 95.104 91.033 93.894 91.099C92.684 91.165 92.035 91.198 91.947 91.198C91.485 91.198 91.1 91.022 90.792 90.67C90.506 90.318 90.363 89.966 90.363 89.614C90.363 89.262 90.407 88.041 90.495 85.951C90.605 83.861 90.66 81.848 90.66 79.912C90.66 77.954 90.561 74.852 90.363 70.606L89.604 70.606C89.252 70.606 88.933 70.496 88.647 70.276C88.383 70.034 88.251 69.715 88.251 69.319C88.251 68.923 88.383 68.615 88.647 68.395C88.933 68.153 89.252 68.032 89.604 68.032ZM109.128 68.23L114.012 68.032C115.354 68.032 116.674 68.45 117.972 69.286C118.632 69.726 119.171 70.353 119.589 71.167C120.029 71.981 120.249 72.916 120.249 73.972C120.249 75.82 119.71 77.338 118.632 78.526C117.554 79.692 116.278 80.528 114.804 81.034C115.442 81.386 116.069 81.804 116.685 82.288C118.357 83.696 119.578 85.038 120.348 86.314C121.14 87.59 121.536 88.723 121.536 89.713C121.536 90.703 121.074 91.198 120.15 91.198C119.468 91.198 118.83 90.527 118.236 89.185C117.994 88.613 117.576 87.865 116.982 86.941C116.41 85.995 115.75 85.115 115.002 84.301C113.44 82.629 111.834 81.496 110.184 80.902C110.206 82.684 110.261 84.477 110.349 86.281C110.437 88.085 110.481 89.185 110.481 89.581C110.481 89.955 110.327 90.318 110.019 90.67C109.733 91.022 109.359 91.198 108.897 91.198C108.435 91.198 108.05 91.022 107.742 90.67C107.456 90.318 107.313 89.966 107.313 89.614C107.313 89.262 107.357 88.041 107.445 85.951C107.555 83.861 107.61 81.837 107.61 79.879C107.61 77.921 107.588 76.315 107.544 75.061C107.5 73.785 107.445 72.762 107.379 71.992C107.335 71.222 107.313 70.727 107.313 70.507L106.719 70.507C106.367 70.507 106.048 70.397 105.762 70.177C105.498 69.935 105.366 69.638 105.366 69.286C105.366 68.912 105.498 68.615 105.762 68.395C106.048 68.153 106.323 68.032 106.587 68.032C106.873 68.032 107.247 68.065 107.709 68.131C108.193 68.197 108.666 68.23 109.128 68.23ZM112.395 70.309L110.481 70.342C110.481 70.584 110.448 71.068 110.382 71.794C110.25 73.73 110.184 76.161 110.184 79.087C111.284 79.395 112.087 79.549 112.593 79.549C113.099 79.549 113.605 79.494 114.111 79.384C114.639 79.252 115.2 79.043 115.794 78.757C116.41 78.471 116.916 78.02 117.312 77.404C117.708 76.766 117.906 76.029 117.906 75.193C117.906 73.521 117.367 72.289 116.289 71.497C115.233 70.705 113.935 70.309 112.395 70.309ZM131.274 71.431C130.988 71.079 130.548 70.76 129.954 70.474C129.382 70.166 128.678 70.012 127.842 70.012C127.006 70.012 126.236 70.32 125.532 70.936C124.85 71.552 124.509 72.322 124.509 73.246C124.509 74.148 124.905 74.896 125.697 75.49C126.511 76.084 127.479 76.546 128.601 76.876C129.745 77.206 130.878 77.58 132 77.998C133.144 78.394 134.112 79.054 134.904 79.978C135.718 80.88 136.125 82.046 136.125 83.476C136.125 85.544 135.256 87.348 133.518 88.888C131.802 90.428 129.635 91.198 127.017 91.198C125.279 91.198 123.871 90.769 122.793 89.911C121.737 89.031 121.209 88.118 121.209 87.172C121.209 86.666 121.352 86.259 121.638 85.951C121.924 85.621 122.276 85.456 122.694 85.456C123.134 85.456 123.508 85.588 123.816 85.852C124.124 86.094 124.41 86.402 124.674 86.776C124.96 87.15 125.279 87.524 125.631 87.898C126.423 88.778 127.534 89.218 128.964 89.218C130.416 89.218 131.582 88.8 132.462 87.964C133.342 87.128 133.782 86.017 133.782 84.631C133.782 83.597 133.375 82.761 132.561 82.123C131.747 81.463 130.757 80.957 129.591 80.605C128.447 80.231 127.292 79.846 126.126 79.45C124.982 79.054 124.003 78.46 123.189 77.668C122.375 76.854 121.968 75.853 121.968 74.665C121.968 73.455 122.243 72.41 122.793 71.53C123.365 70.628 124.069 69.935 124.905 69.451C126.577 68.505 128.15 68.032 129.624 68.032C131.12 68.032 132.429 68.351 133.551 68.989C134.673 69.627 135.234 70.397 135.234 71.299C135.234 71.761 135.102 72.135 134.838 72.421C134.574 72.707 134.2 72.85 133.716 72.85C133.232 72.85 132.77 72.707 132.33 72.421C131.912 72.113 131.56 71.783 131.274 71.431ZM148.475 68.23L153.623 68.032C155.251 68.032 156.879 68.428 158.507 69.22C159.475 69.682 160.333 70.254 161.081 70.936C161.829 71.618 162.456 72.553 162.962 73.741C163.468 74.907 163.721 76.337 163.721 78.031C163.721 79.725 163.358 81.441 162.632 83.179C161.906 84.895 160.96 86.325 159.794 87.469C158.628 88.613 157.319 89.526 155.867 90.208C154.437 90.868 152.974 91.198 151.478 91.198C150.004 91.198 148.838 91.033 147.98 90.703C147.144 90.351 146.726 89.768 146.726 88.954C146.726 88.558 146.77 87.26 146.858 85.06C146.968 82.86 147.023 80.957 147.023 79.351C147.023 77.745 147.001 76.315 146.957 75.061C146.913 73.785 146.858 72.762 146.792 71.992C146.748 71.222 146.726 70.716 146.726 70.474C145.89 70.518 145.318 70.54 145.01 70.54C144.702 70.54 144.405 70.43 144.119 70.21C143.855 69.968 143.723 69.66 143.723 69.286C143.723 68.912 143.855 68.615 144.119 68.395C144.405 68.153 144.724 68.032 145.076 68.032L148.475 68.23ZM149.795 71.86C149.751 72.608 149.707 73.631 149.663 74.929C149.619 76.205 149.597 77.987 149.597 80.275C149.597 82.563 149.696 85.313 149.894 88.525C150.62 88.745 151.555 88.855 152.699 88.855C154.833 88.855 156.802 87.953 158.606 86.149C160.41 84.345 161.312 82.035 161.312 79.219C161.312 76.381 160.465 74.192 158.771 72.652C157.077 71.09 154.668 70.309 151.544 70.309C150.774 70.309 150.224 70.32 149.894 70.342C149.894 70.584 149.861 71.09 149.795 71.86ZM165.253 68.032L171.919 68.23L178.585 68.032C178.937 68.032 179.245 68.153 179.509 68.395C179.795 68.615 179.938 68.923 179.938 69.319C179.938 69.715 179.795 70.034 179.509 70.276C179.245 70.496 178.937 70.606 178.585 70.606L171.919 70.408C171.347 70.408 170.423 70.43 169.147 70.474C169.147 70.738 169.125 71.211 169.081 71.893C168.949 73.939 168.883 75.853 168.883 77.635C170.027 77.723 171.094 77.767 172.084 77.767C173.096 77.767 174.119 77.734 175.153 77.668C176.209 77.602 176.847 77.569 177.067 77.569C177.309 77.569 177.54 77.679 177.76 77.899C177.98 78.119 178.09 78.405 178.09 78.757C178.09 79.109 177.98 79.406 177.76 79.648C177.54 79.868 177.254 79.978 176.902 79.978L172.315 79.813C171.171 79.813 170.027 79.857 168.883 79.945C168.883 82.629 168.927 84.73 169.015 86.248C169.125 87.766 169.18 88.624 169.18 88.822L179.014 88.624C179.366 88.624 179.674 88.745 179.938 88.987C180.224 89.207 180.367 89.515 180.367 89.911C180.367 90.307 180.224 90.626 179.938 90.868C179.674 91.088 179.366 91.198 179.014 91.198L172.678 91C171.798 91 170.753 91.033 169.543 91.099C168.333 91.165 167.684 91.198 167.596 91.198C167.134 91.198 166.749 91.022 166.441 90.67C166.155 90.318 166.012 89.966 166.012 89.614C166.012 89.262 166.056 88.041 166.144 85.951C166.254 83.861 166.309 81.848 166.309 79.912C166.309 77.954 166.21 74.852 166.012 70.606L165.253 70.606C164.901 70.606 164.582 70.496 164.296 70.276C164.032 70.034 163.9 69.715 163.9 69.319C163.9 68.923 164.032 68.615 164.296 68.395C164.582 68.153 164.901 68.032 165.253 68.032ZM197.119 86.512L197.152 85.621C197.152 84.939 197.097 84.18 196.987 83.344C196.899 82.508 196.855 81.925 196.855 81.595C196.855 81.243 196.998 80.902 197.284 80.572C197.592 80.22 197.977 80.044 198.439 80.044C198.901 80.044 199.275 80.22 199.561 80.572C199.869 80.902 200.023 81.243 200.023 81.595C200.023 81.925 199.968 82.508 199.858 83.344C199.77 84.18 199.726 84.939 199.726 85.621C199.726 86.303 199.77 87.062 199.858 87.898C199.968 88.734 200.023 89.328 200.023 89.68C200.023 90.01 199.869 90.351 199.561 90.703C199.275 91.033 198.901 91.198 198.439 91.198C197.977 91.198 197.592 91.033 197.284 90.703C196.998 90.351 196.855 89.955 196.855 89.515L196.855 88.822C194.853 90.406 192.73 91.198 190.486 91.198C187.626 91.198 185.217 90.175 183.259 88.129C181.323 86.061 180.355 83.564 180.355 80.638C180.355 76.986 181.444 73.972 183.622 71.596C185.822 69.22 188.616 68.032 192.004 68.032C193.962 68.032 195.755 68.417 197.383 69.187C199.033 69.957 199.858 70.848 199.858 71.86C199.858 72.322 199.704 72.707 199.396 73.015C199.11 73.323 198.758 73.477 198.34 73.477C197.922 73.477 197.504 73.312 197.086 72.982C196.668 72.652 196.261 72.289 195.865 71.893C195.491 71.475 194.886 71.101 194.05 70.771C193.236 70.441 192.268 70.276 191.146 70.276C188.616 70.276 186.636 71.079 185.206 72.685C183.776 74.291 183.061 76.414 183.061 79.054C183.061 81.694 183.842 84.004 185.404 85.984C186.988 87.964 189.045 88.954 191.575 88.954C193.489 88.954 195.337 88.14 197.119 86.512ZM204.953 68.23L209.837 68.032C211.179 68.032 212.499 68.45 213.797 69.286C214.457 69.726 214.996 70.353 215.414 71.167C215.854 71.981 216.074 72.916 216.074 73.972C216.074 75.82 215.535 77.338 214.457 78.526C213.379 79.692 212.103 80.528 210.629 81.034C211.267 81.386 211.894 81.804 212.51 82.288C214.182 83.696 215.403 85.038 216.173 86.314C216.965 87.59 217.361 88.723 217.361 89.713C217.361 90.703 216.899 91.198 215.975 91.198C215.293 91.198 214.655 90.527 214.061 89.185C213.819 88.613 213.401 87.865 212.807 86.941C212.235 85.995 211.575 85.115 210.827 84.301C209.265 82.629 207.659 81.496 206.009 80.902C206.031 82.684 206.086 84.477 206.174 86.281C206.262 88.085 206.306 89.185 206.306 89.581C206.306 89.955 206.152 90.318 205.844 90.67C205.558 91.022 205.184 91.198 204.722 91.198C204.26 91.198 203.875 91.022 203.567 90.67C203.281 90.318 203.138 89.966 203.138 89.614C203.138 89.262 203.182 88.041 203.27 85.951C203.38 83.861 203.435 81.837 203.435 79.879C203.435 77.921 203.413 76.315 203.369 75.061C203.325 73.785 203.27 72.762 203.204 71.992C203.16 71.222 203.138 70.727 203.138 70.507L202.544 70.507C202.192 70.507 201.873 70.397 201.587 70.177C201.323 69.935 201.191 69.638 201.191 69.286C201.191 68.912 201.323 68.615 201.587 68.395C201.873 68.153 202.148 68.032 202.412 68.032C202.698 68.032 203.072 68.065 203.534 68.131C204.018 68.197 204.491 68.23 204.953 68.23ZM208.22 70.309L206.306 70.342C206.306 70.584 206.273 71.068 206.207 71.794C206.075 73.73 206.009 76.161 206.009 79.087C207.109 79.395 207.912 79.549 208.418 79.549C208.924 79.549 209.43 79.494 209.936 79.384C210.464 79.252 211.025 79.043 211.619 78.757C212.235 78.471 212.741 78.02 213.137 77.404C213.533 76.766 213.731 76.029 213.731 75.193C213.731 73.521 213.192 72.289 212.114 71.497C211.058 70.705 209.76 70.309 208.22 70.309ZM232.445 81.1L226.967 80.935L222.776 81.034C222.578 81.496 222.358 82.079 222.116 82.783C221.896 83.487 221.599 84.312 221.225 85.258C220.851 86.182 220.422 87.117 219.938 88.063C218.86 90.153 217.826 91.198 216.836 91.198C215.978 91.198 215.549 90.714 215.549 89.746C215.549 89.13 216.154 88.228 217.364 87.04C217.87 86.578 218.442 85.819 219.08 84.763C219.74 83.707 220.312 82.486 220.796 81.1L219.608 81.1C219.256 81.1 218.948 81.001 218.684 80.803C218.442 80.583 218.321 80.286 218.321 79.912C218.321 79.538 218.453 79.23 218.717 78.988C218.981 78.746 219.267 78.625 219.575 78.625L221.885 78.658C223.755 74.5 225.526 71.629 227.198 70.045C226.34 70.045 225.042 70.133 223.304 70.309C221.566 70.463 220.51 70.54 220.136 70.54C219.784 70.54 219.476 70.441 219.212 70.243C218.948 70.023 218.816 69.726 218.816 69.352C218.816 68.956 218.948 68.637 219.212 68.395C219.498 68.153 219.806 68.032 220.136 68.032L227.33 68.23L235.151 68.032C235.547 68.032 235.866 68.153 236.108 68.395C236.35 68.637 236.471 68.945 236.471 69.319C236.471 70.133 236.02 70.54 235.118 70.54L234.326 70.54C234.326 74.06 234.469 77.239 234.755 80.077C235.041 82.915 235.327 85.104 235.613 86.644C235.899 88.184 236.042 89.163 236.042 89.581C236.042 89.977 235.91 90.351 235.646 90.703C235.404 91.033 235.063 91.198 234.623 91.198C234.205 91.198 233.842 91.044 233.534 90.736C233.226 90.428 233.061 89.988 233.039 89.416L232.445 81.1ZM231.851 70.144L231.026 70.111C228.54 70.353 226.12 73.213 223.766 78.691C225.658 78.735 226.824 78.757 227.264 78.757C227.704 78.757 229.376 78.713 232.28 78.625C231.994 73.763 231.851 70.936 231.851 70.144ZM242.203 68.23L247.351 68.032C248.979 68.032 250.607 68.428 252.235 69.22C253.203 69.682 254.061 70.254 254.809 70.936C255.557 71.618 256.184 72.553 256.69 73.741C257.196 74.907 257.449 76.337 257.449 78.031C257.449 79.725 257.086 81.441 256.36 83.179C255.634 84.895 254.688 86.325 253.522 87.469C252.356 88.613 251.047 89.526 249.595 90.208C248.165 90.868 246.702 91.198 245.206 91.198C243.732 91.198 242.566 91.033 241.708 90.703C240.872 90.351 240.454 89.768 240.454 88.954C240.454 88.558 240.498 87.26 240.586 85.06C240.696 82.86 240.751 80.957 240.751 79.351C240.751 77.745 240.729 76.315 240.685 75.061C240.641 73.785 240.586 72.762 240.52 71.992C240.476 71.222 240.454 70.716 240.454 70.474C239.618 70.518 239.046 70.54 238.738 70.54C238.43 70.54 238.133 70.43 237.847 70.21C237.583 69.968 237.451 69.66 237.451 69.286C237.451 68.912 237.583 68.615 237.847 68.395C238.133 68.153 238.452 68.032 238.804 68.032L242.203 68.23ZM243.523 71.86C243.479 72.608 243.435 73.631 243.391 74.929C243.347 76.205 243.325 77.987 243.325 80.275C243.325 82.563 243.424 85.313 243.622 88.525C244.348 88.745 245.283 88.855 246.427 88.855C248.561 88.855 250.53 87.953 252.334 86.149C254.138 84.345 255.04 82.035 255.04 79.219C255.04 76.381 254.193 74.192 252.499 72.652C250.805 71.09 248.396 70.309 245.272 70.309C244.502 70.309 243.952 70.32 243.622 70.342C243.622 70.584 243.589 71.09 243.523 71.86ZM272.378 81.1L266.9 80.935L262.709 81.034C262.511 81.496 262.291 82.079 262.049 82.783C261.829 83.487 261.532 84.312 261.158 85.258C260.784 86.182 260.355 87.117 259.871 88.063C258.793 90.153 257.759 91.198 256.769 91.198C255.911 91.198 255.482 90.714 255.482 89.746C255.482 89.13 256.087 88.228 257.297 87.04C257.803 86.578 258.375 85.819 259.013 84.763C259.673 83.707 260.245 82.486 260.729 81.1L259.541 81.1C259.189 81.1 258.881 81.001 258.617 80.803C258.375 80.583 258.254 80.286 258.254 79.912C258.254 79.538 258.386 79.23 258.65 78.988C258.914 78.746 259.2 78.625 259.508 78.625L261.818 78.658C263.688 74.5 265.459 71.629 267.131 70.045C266.273 70.045 264.975 70.133 263.237 70.309C261.499 70.463 260.443 70.54 260.069 70.54C259.717 70.54 259.409 70.441 259.145 70.243C258.881 70.023 258.749 69.726 258.749 69.352C258.749 68.956 258.881 68.637 259.145 68.395C259.431 68.153 259.739 68.032 260.069 68.032L267.263 68.23L275.084 68.032C275.48 68.032 275.799 68.153 276.041 68.395C276.283 68.637 276.404 68.945 276.404 69.319C276.404 70.133 275.953 70.54 275.051 70.54L274.259 70.54C274.259 74.06 274.402 77.239 274.688 80.077C274.974 82.915 275.26 85.104 275.546 86.644C275.832 88.184 275.975 89.163 275.975 89.581C275.975 89.977 275.843 90.351 275.579 90.703C275.337 91.033 274.996 91.198 274.556 91.198C274.138 91.198 273.775 91.044 273.467 90.736C273.159 90.428 272.994 89.988 272.972 89.416L272.378 81.1ZM271.784 70.144L270.959 70.111C268.473 70.353 266.053 73.213 263.699 78.691C265.591 78.735 266.757 78.757 267.197 78.757C267.637 78.757 269.309 78.713 272.213 78.625C271.927 73.763 271.784 70.936 271.784 70.144ZM277.22 69.583C277.22 68.549 277.913 68.032 279.299 68.032C281.059 68.032 282.962 68.835 285.008 70.441C287.076 72.025 288.88 74.445 290.42 77.701C292.488 82.123 293.852 84.928 294.512 86.116C294.468 79.494 294.281 75.281 293.951 73.477C293.621 71.651 293.456 70.463 293.456 69.913C293.456 69.363 293.61 68.912 293.918 68.56C294.248 68.208 294.633 68.032 295.073 68.032C295.535 68.032 295.909 68.208 296.195 68.56C296.481 68.912 296.624 69.44 296.624 70.144C296.624 70.826 296.569 72.091 296.459 73.939C296.239 78.251 296.129 82.53 296.129 86.776C296.129 87.304 296.283 87.865 296.591 88.459C296.899 89.053 297.053 89.515 297.053 89.845C297.053 90.153 296.91 90.461 296.624 90.769C296.338 91.055 295.964 91.198 295.502 91.198C294.754 91.198 294.105 90.736 293.555 89.812C293.005 88.866 292.202 87.128 291.146 84.598C290.09 82.068 289.32 80.242 288.836 79.12C286.834 74.478 284.227 71.816 281.015 71.134C280.949 72.586 280.916 74.896 280.916 78.064C280.916 81.232 281.015 83.861 281.213 85.951C281.433 88.041 281.543 89.262 281.543 89.614C281.543 89.966 281.389 90.318 281.081 90.67C280.795 91.022 280.421 91.198 279.959 91.198C279.497 91.198 279.112 91.022 278.804 90.67C278.518 90.318 278.375 89.966 278.375 89.614C278.375 89.262 278.474 88.041 278.672 85.951C278.892 83.861 279.002 81.804 279.002 79.78C279.002 77.756 278.958 74.808 278.87 70.936C278.43 70.914 278.045 70.793 277.715 70.573C277.385 70.331 277.22 70.001 277.22 69.583ZM298.751 68.032L305.417 68.23L312.083 68.032C312.435 68.032 312.743 68.153 313.007 68.395C313.293 68.615 313.436 68.923 313.436 69.319C313.436 69.715 313.293 70.034 313.007 70.276C312.743 70.496 312.435 70.606 312.083 70.606L306.968 70.441C306.792 74.225 306.704 77.239 306.704 79.483C306.704 81.705 306.748 83.861 306.836 85.951C306.946 88.041 307.001 89.262 307.001 89.614C307.001 89.966 306.847 90.318 306.539 90.67C306.253 91.022 305.879 91.198 305.417 91.198C304.955 91.198 304.57 91.022 304.262 90.67C303.976 90.318 303.833 89.966 303.833 89.614C303.833 89.262 303.877 88.041 303.965 85.951C304.075 83.861 304.13 81.826 304.13 79.846C304.13 77.844 304.031 74.709 303.833 70.441L298.751 70.606C298.399 70.606 298.08 70.496 297.794 70.276C297.53 70.034 297.398 69.715 297.398 69.319C297.398 68.923 297.53 68.615 297.794 68.395C298.08 68.153 298.399 68.032 298.751 68.032ZM322.663 71.431C322.377 71.079 321.937 70.76 321.343 70.474C320.771 70.166 320.067 70.012 319.231 70.012C318.395 70.012 317.625 70.32 316.921 70.936C316.239 71.552 315.898 72.322 315.898 73.246C315.898 74.148 316.294 74.896 317.086 75.49C317.9 76.084 318.868 76.546 319.99 76.876C321.134 77.206 322.267 77.58 323.389 77.998C324.533 78.394 325.501 79.054 326.293 79.978C327.107 80.88 327.514 82.046 327.514 83.476C327.514 85.544 326.645 87.348 324.907 88.888C323.191 90.428 321.024 91.198 318.406 91.198C316.668 91.198 315.26 90.769 314.182 89.911C313.126 89.031 312.598 88.118 312.598 87.172C312.598 86.666 312.741 86.259 313.027 85.951C313.313 85.621 313.665 85.456 314.083 85.456C314.523 85.456 314.897 85.588 315.205 85.852C315.513 86.094 315.799 86.402 316.063 86.776C316.349 87.15 316.668 87.524 317.02 87.898C317.812 88.778 318.923 89.218 320.353 89.218C321.805 89.218 322.971 88.8 323.851 87.964C324.731 87.128 325.171 86.017 325.171 84.631C325.171 83.597 324.764 82.761 323.95 82.123C323.136 81.463 322.146 80.957 320.98 80.605C319.836 80.231 318.681 79.846 317.515 79.45C316.371 79.054 315.392 78.46 314.578 77.668C313.764 76.854 313.357 75.853 313.357 74.665C313.357 73.455 313.632 72.41 314.182 71.53C314.754 70.628 315.458 69.935 316.294 69.451C317.966 68.505 319.539 68.032 321.013 68.032C322.509 68.032 323.818 68.351 324.94 68.989C326.062 69.627 326.623 70.397 326.623 71.299C326.623 71.761 326.491 72.135 326.227 72.421C325.963 72.707 325.589 72.85 325.105 72.85C324.621 72.85 324.159 72.707 323.719 72.421C323.301 72.113 322.949 71.783 322.663 71.431Z" fill="black"/>
</svg>
