<svg width="503" height="191" viewBox="0 0 503 191" fill="none" xmlns="http://www.w3.org/2000/svg">
<path d="M422.199 183.431C442.108 185.67 460.36 183.371 473.585 176.959C479.264 174.208 492.162 166.918 489.384 158.738C489.374 154.48 489.197 150.234 489.023 146.125C488.889 142.969 488.748 139.706 488.697 136.49L488.661 134.549C488.583 131.399 488.511 128.144 488.998 125.057C489.082 124.529 489.198 124.011 489.306 123.502C489.732 121.576 490.128 119.753 488.742 117.834C487.56 116.201 485.417 115.029 483.165 114.775C482.964 114.753 482.756 114.74 482.553 114.733L482.538 114.131L490.56 114.049C491.185 110.804 492.18 107.548 493.145 104.394C493.434 103.463 493.716 102.532 493.992 101.605L494.826 98.8258C495.527 96.4892 496.223 94.1466 496.881 91.7947C499.285 83.1293 485.48 73.2251 474.885 66.5394C463.993 59.6625 450.653 54.0944 435.236 49.9977C424.551 47.1541 412.917 45.0142 400.638 43.6332C384.193 41.7838 366.004 41.2012 345.047 41.8491C316.654 42.7344 288.259 46.2981 260.81 49.7524C228.129 53.8549 194.332 58.1056 160.331 57.8445C143.076 57.7143 127.844 57.1747 113.773 56.1921L113.344 56.1597L113.44 55.8179C114.099 53.4555 114.312 50.9429 114.502 48.5172C114.66 46.6089 114.825 44.6277 115.206 42.7129C115.925 39.1468 117.145 35.695 118.321 32.3592L119.049 30.294C120.043 29.1902 120.59 28.115 120.777 26.9046C121.212 24.1644 119.218 21.5035 114.841 19.0063C104.824 13.2802 91.1991 11.1533 80.4449 9.94384C78.8449 9.76391 77.2683 9.60238 75.7288 9.45029C63.7027 8.2504 45.9303 7.13049 30.5119 11.18C21.0572 13.6689 12.646 19.8168 15.1753 27.9477C14.2016 32.9902 13.7229 38.0936 13.2561 43.0352C13.0882 44.8109 12.9209 46.5813 12.729 48.3437C10.6706 67.4941 8.92937 78.9653 7.6269 86.8178C7.20642 89.3702 6.60718 91.9867 6.01846 94.5097C5.11567 98.4129 4.18571 102.445 3.8927 106.406L3.88276 106.494L3.81753 106.566C3.62299 106.77 3.60865 107.011 3.7751 107.282C3.84861 107.532 3.91848 107.646 4.03696 107.722C13.5839 122.378 35.0248 128.958 50.3181 132.63C61.9724 135.44 74.5095 137.577 88.6582 139.168C99.1113 140.343 110.404 141.224 124.213 141.94C149.954 143.278 177.292 143.468 210.244 142.543L211.653 142.507C240.483 141.686 262.51 140.733 283.073 139.414C295.668 138.604 307.31 137.682 318.66 136.591C324.588 136.026 330.529 135.4 336.317 134.73C338.042 134.529 339.849 134.227 341.59 133.939C344.673 133.422 347.858 132.891 350.919 132.851C351.439 131.389 352.091 129.947 352.731 128.55C353.221 127.463 353.713 126.371 354.154 125.269L354.83 125.476C354.519 126.267 354.853 128.321 355.112 129.971C355.234 130.695 355.332 131.348 355.377 131.853C359.746 131.028 363.963 131.161 368.427 131.294C369.541 131.33 370.669 131.362 371.81 131.385C372.229 131.385 373.352 131.454 374.855 131.538C378.732 131.753 389.023 132.337 389.861 131.831L390.481 132.143C390.075 132.929 389.866 133.879 389.675 134.789C389.505 135.559 389.34 136.351 389.046 137.044L388.828 137.515C387.862 139.327 386.809 141.229 385.518 142.989C384.783 143.996 383.801 144.927 382.842 145.83C381.561 147.049 380.237 148.31 379.538 149.726C377.217 154.433 377.58 159.962 380.539 165.289C384.271 171.987 392.312 176.991 404.44 180.16C410.1 181.644 416.076 182.742 422.193 183.43L422.199 183.431Z" fill="#F6E3BA"/>
<path d="M446.886 67.927C448.764 70.7221 442.348 102.912 433.562 116.917C433.562 116.917 368.281 115.075 261.248 126.534C154.215 137.989 79.6161 128.1 79.1923 126.557C78.7696 125.005 39.0861 98.5497 59.0607 59.8063C105.118 66.9859 210.638 74.3536 322.235 54.4081C393.792 48.4627 438.129 54.9488 446.886 67.927Z" fill="#F6E9CD"/>
<path d="M225.848 129.674C233.035 129.608 240.216 129.537 247.405 129.456C273.761 129.168 300.455 129.539 326.529 126.84C353.15 124.088 380.582 125.531 406.933 121.437C409.604 121.027 410.121 118.18 408.343 116.923C380.02 117.358 329 119.282 261.248 126.535C249.003 127.847 237.177 128.874 225.848 129.674Z" fill="#F9ECD1"/>
<path d="M97.4331 127.583C102.008 127.466 106.552 127.119 111.177 127.402C111.228 127.403 111.278 127.408 111.329 127.414C112.565 127.553 113.299 128.425 113.418 129.344C131.606 130.668 150.274 130.036 167.942 129.992C187.25 129.948 206.552 129.84 225.848 129.674C237.177 128.874 249.003 127.847 261.248 126.535C329 119.282 380.02 117.358 408.343 116.923C407.937 116.635 407.414 116.429 406.762 116.355C406.737 116.353 406.711 116.35 406.686 116.347C379.805 113.797 352.855 116.597 325.939 114.918C314.387 114.192 302.804 114.026 291.234 114.077C300.105 113.444 308.969 112.767 317.822 112.01C334.386 110.594 354.858 110.197 369.114 102.923C371.339 101.789 370.558 98.396 368.086 97.7181C365.712 97.0774 363.351 96.6541 360.992 96.3888C355.006 95.7156 349.004 96.0352 342.833 96.1621C332.873 96.3681 322.946 97.0724 313.045 97.764C311.38 97.8768 309.709 97.9888 308.044 98.1068C311.826 97.3586 315.6 96.5726 319.376 95.8185C326.128 94.4781 333.601 93.6819 339.678 90.9395C342.918 89.4777 342.923 84.5788 338.637 84.0969C338.518 84.0834 338.392 84.0745 338.272 84.0663C335.777 83.9383 333.234 83.9523 330.666 84.0739C335.325 82.8718 339.857 81.4449 344.107 79.639C346.636 78.5656 346.887 75.0312 344.387 73.9342C349.09 73.4107 353.801 72.8775 358.502 72.322C368.887 71.1009 381.535 70.5604 390.226 65.4807C392.104 64.3762 391.474 61.7268 389.349 61.0246C386.88 60.2101 384.263 59.6948 381.565 59.3914C373.119 58.4416 363.858 59.5472 355.884 59.945C343.731 60.5568 331.553 61.0976 319.402 61.7992C295.72 63.1722 272.09 64.9299 248.405 66.271C224.145 67.6421 199.859 68.7945 175.546 69.7282C151.642 70.6395 126.306 69.8845 103.059 74.285C96.6319 75.4988 96.6507 83.1842 103.541 84.1801C105.192 84.4132 106.845 84.6306 108.507 84.8176C125.674 86.7482 143.478 86.0614 160.882 85.256C160.4 86.9436 161.211 88.8294 163.782 89.8131C168.626 91.6577 174.026 92.7913 179.626 93.5053C175.599 93.7734 171.664 94.2465 167.939 95.0537C163.51 96.0186 161.588 101.754 167.004 103.369C169.856 104.221 172.834 104.856 175.881 105.335C173.801 105.412 171.719 105.504 169.639 105.581C161.055 105.868 151.52 105.227 143.758 108.374C140.708 109.615 139.42 112.544 140.177 115.071C122.435 115.038 104.541 115.563 87.9242 118.972C84.7695 119.622 83.9076 122.088 85.098 123.933C85.6227 124.013 86.1549 124.083 86.6864 124.159C88.1688 124.367 89.2175 125.211 89.7517 126.224C92.2865 126.735 94.8534 127.187 97.4331 127.583Z" fill="#F9F0DE"/>
<path d="M17.3251 106.964C17.9462 107.034 18.5808 106.984 19.1799 106.799C19.3524 101.14 20.6805 95.264 21.147 90.8328C22.391 79.0374 24.0228 67.296 25.1846 55.4965C25.3083 54.2843 25.9535 53.4622 26.8448 52.9941C26.5497 51.3243 26.2307 49.6412 25.8878 47.9449C25.6468 46.7548 24.5274 46.0869 23.3478 45.9542C21.8796 45.7891 20.3122 46.4496 20.2141 47.9436C19.5607 57.5953 18.2102 67.4001 16.6903 76.9596C15.3 85.6495 11.2682 95.3422 13.7254 104.17C14.1747 105.768 15.6875 106.78 17.3251 106.964Z" fill="#F9ECD1"/>
<path d="M25.06 41.4632C27.7831 41.7695 30.5654 41.0404 32.4046 38.8107C37.6154 32.4765 44.143 27.6534 51.6967 24.8928C52.2099 24.5664 52.7226 24.2451 53.2296 23.918C54.743 22.9462 56.4236 22.6353 58.0173 22.8145C58.2996 22.8463 58.5865 22.8943 58.8653 22.9573C63.1255 22.1944 67.6414 22.0392 72.3597 22.5699C75.0891 22.8768 77.8874 23.4178 80.7541 24.1981C81.0688 24.2808 81.3734 24.3414 81.6808 24.376C86.2925 24.8946 89.8656 19.9024 85.3018 17.263C78.6672 13.4331 71.3261 11.1392 63.9287 10.3073C44.8672 8.16353 25.5082 15.7273 17.332 31.5373C14.7924 36.4353 19.8021 40.8719 25.06 41.4632Z" fill="#F9ECD1"/>
<path d="M483.851 114.884C483.899 114.627 483.954 114.37 484.008 114.118L482.538 114.131L482.553 114.733C482.756 114.74 482.964 114.753 483.165 114.776C483.397 114.802 483.622 114.837 483.851 114.884Z" fill="#A4A7AA"/>
<path d="M478.895 144.376C479.933 143.903 480.737 143.025 480.947 141.728C482.332 133.027 482.24 124.186 483.74 115.482C483.775 115.281 483.81 115.085 483.851 114.884C483.622 114.837 483.397 114.802 483.165 114.776C482.964 114.753 482.756 114.74 482.553 114.733L482.538 114.131L484.007 114.118C485.589 106.949 489.621 99.4036 488.684 92.1412C488.572 91.3235 487.771 90.8229 486.905 90.7255C486.378 90.6662 485.821 90.7614 485.397 91.0295C482.809 92.6277 480.812 94.845 479.233 97.367C480.056 108.911 480.435 120.515 479.07 131.866C478.835 133.839 478.177 135.565 477.208 137.066C477.81 139.56 478.587 141.973 478.895 144.376Z" fill="#F9ECD1"/>
<path d="M432.22 177.206C434.686 177.484 437.077 177.637 439.303 177.677C452.381 177.937 468.991 174.874 475.651 164.751C475.711 164.668 475.759 164.579 475.807 164.495C475.584 164.496 475.351 164.48 475.106 164.453C475.106 164.453 475.1 164.452 475.094 164.451C469.184 163.781 463.692 161.822 458.02 160.342C452.156 161.861 446.27 163.183 439.762 163.03C438.602 163.005 437.462 162.919 436.338 162.792C430.152 162.097 424.447 160.06 418.598 158.503C419.378 158.348 420.15 158.151 420.899 157.872C421.768 157.549 422.435 157.156 423.086 156.624C423.713 156.242 424.173 155.767 424.48 155.186C424.706 154.817 424.829 154.63 424.841 154.632C424.854 154.633 424.763 154.818 424.557 155.184C424.601 155.126 425.194 154.435 425.277 154.318C425.586 153.942 425.834 153.538 426.017 153.101C426.221 152.414 426.324 152.067 426.311 152.066C426.311 152.066 426.302 152.096 426.275 152.162C426.919 149.992 425.091 148.003 422.688 147.733C422.199 147.678 421.683 147.688 421.163 147.793C420.756 147.794 420.347 147.811 420.058 147.837C419.898 147.798 419.805 147.777 419.792 147.775C419.78 147.774 419.853 147.798 420.033 147.839L419.988 147.845C419.485 147.741 418.857 147.612 418.788 147.605C418.613 147.58 418.488 147.56 418.388 147.549C418.174 147.477 417.966 147.402 417.942 147.394C417.244 147.157 416.501 146.984 415.761 146.901C414.863 146.8 413.958 146.824 413.093 147.006C411.512 147.339 410.131 147.867 409.118 148.79C409.616 148.883 410.132 148.983 410.661 149.08C414.4 149.737 416.175 154.515 412.029 155.728C411.839 155.785 411.658 155.865 411.479 155.934C412.231 156.761 412.905 157.657 413.428 158.663C415.223 162.133 411.715 164.849 408.183 164.452C407.003 164.319 405.825 163.839 404.84 162.929C404.995 163.078 405.053 163.131 405.04 163.13C404.99 163.124 404.278 162.565 403.948 162.449C403.819 162.408 403.677 162.371 403.535 162.334C403.594 162.488 403.658 162.648 403.73 162.804C407.948 171.909 420.839 175.926 432.22 177.206Z" fill="#F9ECD1"/>
<path d="M475.807 164.494C479.948 164.502 482.28 160.328 479.616 157.461C479.116 156.931 478.559 156.405 477.975 155.892C478.345 154.523 477.929 152.913 476.732 151.863C477.481 151.526 478.105 151.007 478.363 150.294C479.083 148.302 479.145 146.34 478.895 144.376C478.106 144.729 477.177 144.856 476.267 144.754C474.529 144.558 472.846 143.538 472.305 141.73C469.487 132.44 470.607 122.767 473.128 113.683C474.527 108.647 476.068 102.395 479.233 97.3669C478.854 92.0881 478.379 86.8247 477.931 81.5961C480.384 81.872 482.878 81.9577 485.529 81.7191C490.535 81.2717 489.698 75.4413 485.179 74.6647C480.399 73.8325 475.902 72.9741 472.014 70.2582C471.042 69.5805 470.022 69.2132 469.012 69.0996C465.774 68.7355 462.697 70.9523 462.051 73.7056C461.931 74.2078 461.811 74.7101 461.685 75.2116C461.541 74.3429 460.725 73.8617 459.859 73.7643C458.767 73.6415 457.588 74.1246 457.542 75.214C457.086 86.1614 456.181 99.2896 449.606 108.775C443.875 117.024 435.023 119.013 425.893 123.585C424.667 124.205 424.187 125.246 424.25 126.332C422.23 127.394 422.534 130.68 425.045 131.294C427.351 131.859 429.727 132.263 432.155 132.536C435.097 132.867 438.106 133.005 441.131 132.998C440.202 134.651 440.366 136.864 441.822 138.212C441.966 138.344 442.118 138.461 442.263 138.588C440.88 138.343 439.495 138.113 438.115 137.9C438.002 137.882 437.89 137.864 437.777 137.852C435.863 137.637 434.21 138.156 432.859 139.041C432.644 138.585 432.287 138.139 431.746 137.752C431.111 137.297 430.398 136.854 429.66 136.418C429.588 134.742 428.344 133.086 425.766 132.791C423.27 132.5 420.681 132.13 418.08 131.816C416.095 131.324 414.073 130.95 412.059 130.723C406.349 130.081 400.764 130.647 396.747 133.143C394.096 134.792 395.879 137.871 398.69 138.466C399.335 138.602 399.985 138.701 400.644 138.775C404.804 139.243 409.088 138.609 413.299 139.014C413.494 139.031 413.689 139.053 413.877 139.074C419.003 139.65 423.652 141.194 428.541 142.639C428.799 142.715 429.054 142.765 429.298 142.792C429.38 142.801 429.462 142.805 429.538 142.809C427.923 145.7 427.591 148.368 428.186 151.777C428.512 153.629 430.484 155.019 432.598 155.257C433.414 155.348 434.25 155.263 435.013 154.97C435.537 154.777 436.011 154.572 436.473 154.361C442.036 157.665 447.661 158.103 454.22 159.441C455.499 159.706 456.767 160.011 458.02 160.342C462.032 159.298 466.034 158.17 470.218 157.351C470.894 157.216 471.525 157.198 472.096 157.262C475.823 157.681 477.293 161.841 475.807 164.494ZM468.368 143.297C468.595 144.607 468.909 145.889 469.384 147.143C467.453 146.12 465.475 145.177 463.434 144.347C465.146 144.15 466.807 143.79 468.368 143.297ZM451.988 123.299C452.236 123.69 452.56 124.032 452.954 124.313C452.782 124.541 452.603 124.774 452.425 125.001C451.696 124.929 450.961 124.863 450.218 124.8C450.825 124.316 451.421 123.82 451.988 123.299Z" fill="#E0C591"/>
<path d="M476.267 144.754C477.177 144.856 478.106 144.729 478.895 144.376C478.587 141.973 477.81 139.56 477.208 137.066C478.177 135.565 478.835 133.839 479.07 131.865C480.435 120.515 480.056 108.911 479.233 97.3669C476.069 102.395 474.527 108.647 473.128 113.684C470.607 122.767 469.487 132.44 472.306 141.73C472.846 143.538 474.529 144.558 476.267 144.754Z" fill="#E3CDA3"/>
<path d="M475.106 164.453C475.351 164.48 475.584 164.496 475.807 164.495C477.293 161.841 475.823 157.682 472.096 157.263C471.525 157.198 470.894 157.217 470.218 157.351C466.035 158.17 462.032 159.299 458.02 160.342C463.692 161.822 469.184 163.782 475.094 164.451C475.1 164.452 475.106 164.453 475.106 164.453Z" fill="#E3CDA3"/>
<path d="M393.302 167.672C395.919 167.967 398.63 167.024 399.874 164.433C400.372 163.4 400.986 162.627 402.312 162.25C402.398 162.217 402.424 162.215 402.477 162.194C402.514 162.204 402.558 162.209 402.602 162.214C402.897 162.247 403.312 162.278 403.104 162.207C403.239 162.254 403.387 162.292 403.535 162.334C402.505 159.287 405.076 156.372 409.035 156.701C409.148 156.714 409.261 156.727 409.368 156.739C409.443 156.747 409.518 156.756 409.594 156.764C409.675 156.773 409.751 156.782 409.832 156.791C409.876 156.796 409.92 156.801 409.964 156.806C409.66 156.566 409.35 156.331 409.071 156.047C407.508 154.466 407.104 152.232 407.947 150.39C408.241 149.755 408.636 149.231 409.118 148.79C408.359 148.647 407.624 148.517 406.877 148.433C405.842 148.317 404.784 148.292 403.609 148.455C401.363 148.765 399.162 149.349 397.148 150.197C394.841 151.163 392.628 152.43 391.096 154.01C388.695 155.929 387.147 158.618 387.014 161.497C386.847 164.962 389.996 167.3 393.302 167.672Z" fill="#E0C591"/>
<path d="M408.183 164.452C411.715 164.849 415.223 162.133 413.428 158.663C412.905 157.657 412.231 156.761 411.479 155.934C411.658 155.865 411.839 155.785 412.029 155.728C416.175 154.515 414.4 149.737 410.661 149.08C410.132 148.983 409.616 148.883 409.118 148.79C408.637 149.231 408.241 149.755 407.947 150.39C407.105 152.232 407.508 154.467 409.071 156.047C409.35 156.331 409.661 156.566 409.964 156.806C409.92 156.801 409.876 156.796 409.832 156.791C409.751 156.782 409.675 156.773 409.594 156.764C409.519 156.756 409.443 156.747 409.368 156.739C409.261 156.727 409.148 156.714 409.035 156.701C405.076 156.372 402.505 159.287 403.535 162.335C403.677 162.372 403.819 162.409 403.948 162.449C404.278 162.565 404.99 163.124 405.04 163.13C405.053 163.131 404.995 163.078 404.841 162.929C405.825 163.839 407.003 164.319 408.183 164.452Z" fill="#E3CDA3"/>
<path d="M86.6044 135.79C96.248 136.875 105.795 135.822 112.573 131.206C112.841 131.026 113.044 130.801 113.186 130.554C104.708 130.006 97.6706 129.367 92.237 128.756C83.8482 127.813 79.2962 126.932 79.1923 126.558C79.1075 126.237 77.3328 124.843 74.7561 122.501C73.2361 122.288 71.7161 122.075 70.2024 121.863C68.3596 120.961 66.5787 119.961 64.8653 118.868C58.0769 114.542 52.8847 108.79 49.4232 102.338C46.543 96.9888 45.3937 91.0497 42.1908 85.8585C41.9766 85.5029 41.6772 85.2271 41.3555 84.9804C41.3499 84.7483 41.3448 84.5109 41.3385 84.2839C41.2205 75.5032 42.8475 63.6351 36.6072 55.9604C36.1824 55.4443 35.5161 55.1536 34.8071 55.0738C34.3428 55.0216 33.8686 55.0577 33.4295 55.1768C32.8442 53.6585 31.2194 52.739 29.5567 52.552C28.5967 52.444 27.6281 52.5824 26.8447 52.9943C28.3085 61.4474 29.0317 69.6488 28.5613 78.2948C28.0721 87.3334 27.8708 98.6147 20.8839 105.77C20.3959 106.268 19.8113 106.607 19.1798 106.799C19.0859 110.12 19.3939 113.37 20.5166 116.212C19.2069 117.575 19.336 119.873 21.2337 121.134C29.8318 126.827 42.1068 127.96 52.4794 129.342C53.7508 129.506 55.0165 129.664 56.2839 129.807C59.785 130.2 63.2532 130.491 66.7195 130.686C72.7341 133.136 79.69 135.012 86.6044 135.79ZM40.6522 110.104C42.7037 112.992 45.1144 115.736 47.693 118.231C44.6889 117.599 41.6576 116.926 38.6226 116.343C39.5384 114.415 40.1876 112.314 40.6522 110.104Z" fill="#E0C591"/>
<path d="M92.2371 128.756C97.6707 129.367 104.709 130.006 113.186 130.554C113.394 130.178 113.467 129.754 113.418 129.343C110.487 129.13 107.569 128.865 104.67 128.539C102.242 128.266 99.8312 127.952 97.4329 127.583C95.0119 127.642 92.5915 127.638 90.1364 127.436C90.0872 127.025 89.956 126.61 89.7516 126.224C89.2549 126.121 88.7582 126.018 88.2621 125.909C86.7413 125.591 85.6763 124.834 85.0979 123.932C81.6507 123.455 78.2034 122.978 74.7562 122.501C77.3329 124.843 79.1076 126.237 79.1924 126.557C79.2964 126.932 83.8483 127.813 92.2371 128.756Z" fill="#E0CAA0"/>
<path d="M104.67 128.539C107.569 128.865 110.487 129.13 113.418 129.344C113.299 128.425 112.564 127.553 111.328 127.414C111.278 127.408 111.228 127.403 111.177 127.402C106.552 127.119 102.008 127.466 97.4329 127.583C99.8311 127.952 102.242 128.266 104.67 128.539ZM89.7515 126.224C89.2173 125.211 88.1686 124.367 86.6862 124.158C86.1547 124.083 85.6225 124.013 85.0978 123.932C85.6762 124.834 86.7412 125.591 88.262 125.909C88.7581 126.018 89.2548 126.121 89.7515 126.224Z" fill="#E3D0AD"/>
<path d="M19.1798 106.799C19.8113 106.607 20.3959 106.268 20.884 105.77C27.8708 98.6146 28.0721 87.3333 28.5613 78.2947C29.0317 69.6487 28.3085 61.4473 26.8447 52.9942C25.9534 53.4623 25.3082 54.2843 25.1845 55.4966C24.0227 67.2961 22.3909 79.0374 21.147 90.8329C20.6804 95.2641 19.3524 101.14 19.1798 106.799Z" fill="#E3CDA3"/>
<path d="M99.3143 54.4715C102.364 54.8144 105.593 53.5567 105.841 50.3376C106.073 47.3115 106.009 44.2047 105.888 41.1599C105.79 38.5281 105.713 35.825 103.677 33.6489C103.2 33.1427 102.491 32.8367 101.763 32.7548C101.029 32.6722 100.27 32.8131 99.6923 33.2008C97.2236 34.8703 96.5479 37.4887 95.8678 40.033C95.0732 42.9748 94.3211 45.9898 93.8817 48.9927C93.4019 52.1857 96.2712 54.1292 99.3143 54.4715Z" fill="#E0C591"/>
<path d="M93.8392 32.6478C98.9716 33.225 104.188 31.6435 108.617 29.2631C113.196 26.7994 109.839 21.2856 105.283 20.7733C104.411 20.6752 103.493 20.7614 102.58 21.085C97.3495 22.9596 91.9025 24.1626 87.1514 26.7489C85.6817 27.5572 85.8025 29.76 87.3106 30.5874C89.4225 31.7511 91.6243 32.3987 93.8392 32.6478Z" fill="#E0C591"/>
<path d="M55.8266 45.5706C58.945 45.9213 62.132 44.9273 63.0314 42.0709C64.3508 37.9093 64.2148 33.5261 64.3575 29.2058C64.4569 26.1753 61.9383 23.6555 58.8654 22.9573C56.3885 23.3997 53.9961 24.0516 51.6968 24.8928C48.4196 26.9713 45.1009 29.1925 43.5882 32.4746C42.8181 34.1246 43.3683 36.181 44.6896 37.7084C44.6713 38.1537 44.6952 38.6195 44.8063 39.1003C45.2779 41.1215 47.0954 42.3048 49.1283 42.5334C49.3479 42.5581 49.575 42.5731 49.7975 42.5718C51.0352 44.2214 53.411 45.299 55.8266 45.5706Z" fill="#E0C591"/>
<path d="M51.6969 24.8927C53.9963 24.0515 56.3887 23.3996 58.8655 22.9572C58.5867 22.8942 58.2998 22.8462 58.0175 22.8144C56.4238 22.6352 54.7432 22.9461 53.2298 23.9179C52.7228 24.245 52.2102 24.5663 51.6969 24.8927Z" fill="#E3CDA3"/>
<path d="M69.7179 50.5799C76.8142 51.3779 75.2893 41.6602 75.2668 38.1318C75.2447 35.7296 73.5652 33.4883 70.472 33.1405C67.8179 32.842 64.6781 34.5465 64.6945 36.9428C64.7261 40.7301 63.0671 49.8319 69.7179 50.5799Z" fill="#E0C591"/>
<path d="M52.9092 56.9358C58.2675 57.5384 63.7774 57.5844 68.9109 57.7565C72.5188 57.8781 72.9696 53.8135 69.4316 53.1262C64.3881 52.1538 59.0051 50.98 53.6468 50.3774C49.901 49.9561 46.1682 49.8152 42.5771 50.2218C39.8935 50.5252 39.5323 53.7368 42.0821 54.6235C45.4926 55.8227 49.1634 56.5145 52.9092 56.9358Z" fill="#E0C591"/>
<path d="M5.85724 106.564C14.2989 119.128 32.6716 125.362 48.113 129.356C71.408 135.381 95.9512 137.652 119.977 139.038C174.961 142.212 230.19 139.929 284.736 136.375C306.274 134.972 327.767 132.895 349.356 131.949C350.363 128.305 352.367 124.72 353.742 121.191C354.118 120.228 355.718 120.572 355.982 121.443C356.684 123.79 357.29 126.2 357.597 128.613C376.143 129.121 394.698 128.087 413.246 129.825C428.763 131.281 444.569 134.8 459.115 139.92C465.838 142.287 472.407 145.12 478.444 148.614C480.406 149.756 482.65 151.045 484.643 152.537C482.575 141.774 483.587 130.169 485.184 119.818C483.586 118.712 482.233 117.355 480.623 116.247C478.583 114.839 476.823 113.204 474.724 111.863C475.865 111.834 486.664 111.454 486.576 111.902C488.215 103.708 490.7 95.2886 495.046 88.052L494.988 88.0086C452.278 41.5156 373.486 41.5112 312.039 46.8254C275.73 49.9674 240.115 56.6503 203.763 59.3822C169.174 61.9808 134.12 60.6856 99.3536 57.7387C84.136 56.443 68.875 54.5162 54.1507 50.5868C41.9794 47.3445 24.5352 42.1199 17.2359 32.5053C17.0972 32.3266 16.9835 32.1507 16.8517 31.9674C16.5713 37.1721 15.8796 42.3621 15.3757 47.5206C15.0096 51.2842 10.1011 84.365 9.56383 88.1251C8.70333 94.1381 8.06513 100.66 5.68595 106.392C5.73658 106.45 5.80778 106.495 5.85724 106.564ZM387.7 143.929C388.36 143.656 389.049 143.402 389.779 143.184C398.85 140.431 416.854 141.361 423.773 148.765C423.801 148.458 423.85 148.137 423.891 147.826C424.022 143.441 425.677 138.67 428.185 135.126C416.44 133.179 404.692 132.442 392.895 132.089C393.254 133.981 392.012 136.21 391.172 137.805C390.904 138.317 390.608 138.809 390.294 139.285C389.565 140.902 388.659 142.463 387.7 143.929ZM422.298 152.893C421.709 150.959 413.553 147.373 413.539 147.503C413.525 147.57 413.517 147.638 413.478 147.707C412.425 149.609 411.112 151.398 409.836 153.197C408.575 154.976 407.426 156.941 405.656 158.389L405.602 158.42C405.744 158.399 405.904 158.391 406.081 158.447C409.79 159.596 413.642 161.276 417.37 159.88C420.455 158.717 423.215 155.922 422.298 152.893ZM384.711 164.743C392.67 177.816 416.147 180.014 431.234 180.553C449.465 181.214 469.532 178.877 482.056 167.176C485.663 163.803 487.594 160.247 483.502 156.24C479.929 152.754 474.488 150.011 469.827 147.724C460.332 143.062 449.9 139.889 439.418 137.384C436.814 136.759 434.211 136.23 431.603 135.747C430.798 137.088 429.938 138.407 429.145 139.749C428.646 140.909 428.129 142.061 427.76 143.251C426.221 148.24 428.93 156.291 424.111 159.938C418.89 163.877 408.792 162.478 404.075 158.264C404.848 155.909 406.168 154.4 407.62 152.337C409.002 150.561 410.368 148.747 411.958 147.094C408.691 146.316 405.233 145.933 401.996 145.795C396.905 145.585 391.173 146.156 387.178 148.854C381.512 152.679 381.492 159.466 384.711 164.743ZM68.9903 28.4639C72.3474 31.4937 79.4168 32.3046 85.5373 32.514C85.7574 31.2915 86.3216 30.0604 86.82 29.0745C87.4442 27.8185 88.238 26.6922 89.2164 25.676C86.4632 23.8297 83.5217 22.4148 80.1216 21.5746C77.785 20.9961 75.5118 20.5878 73.0691 20.8394C69.8542 21.1777 63.2898 23.3338 68.9903 28.4639ZM65.5053 49.3957C65.4472 49.5733 65.3424 49.7141 65.2154 49.8262C68.4253 50.4924 71.6503 51.0814 74.8835 51.5976C86.9983 53.5337 99.3556 54.8392 111.757 55.7498C109.885 49.2348 111.661 40.4461 114.918 33.2344C108.996 35.5575 100.367 35.6764 95.602 35.7878C87.4275 35.9894 74.0536 35.7009 67.2286 31.5864C68.093 37.5724 67.3828 43.7181 65.5053 49.3957ZM117.104 25.4391C115.73 19.0169 97.7139 16.0488 92.0568 14.9389C78.4879 12.2604 64.2815 10.8995 50.4956 11.5067C40.841 11.9313 25.4025 12.8263 19.8692 20.503C13.7438 28.9814 26.7521 36.4752 34.7245 40.1609C43.5306 44.2299 52.9589 47.1163 62.598 49.2582C62.534 49.0931 62.5031 48.9159 62.5504 48.7213C64.06 42.134 64.4496 35.7891 64.4346 29.1987C63.5078 28.0052 62.9855 26.6045 63.0184 24.9557C63.2971 12.2518 85.5464 18.8746 92.0438 23.6417L92.1588 23.7493C92.4461 23.85 92.6623 24.0743 92.6149 24.3269C93.0158 25.2245 92.3433 26.2329 91.3608 26.4382C90.6506 27.6687 90.0008 28.927 89.5853 30.2485C89.3551 30.9962 89.2657 31.7914 89.158 32.5791C90.4851 32.5863 91.7124 32.577 92.748 32.5777C97.9339 32.5662 118.667 32.7246 117.104 25.4391ZM3.53382 106.376C4.02946 99.8223 6.20492 93.2467 7.27094 86.7621C8.50215 79.3173 10.2625 67.9588 12.3776 48.3043C13.0968 41.5703 13.4957 34.6896 14.831 28.0143C12.2553 19.7309 20.8125 13.4152 30.3973 10.8988C44.5984 7.16501 60.9078 7.67834 75.762 9.15418C88.5867 10.4281 103.936 12.4123 115.034 18.7649C118.305 20.6327 121.691 23.4079 121.14 26.956C120.924 28.3053 120.283 29.4278 119.394 30.3908C117.968 34.4773 116.416 38.5075 115.562 42.7688C114.692 47.1125 114.977 51.644 113.787 55.8939C129.359 56.9768 144.989 57.4295 160.32 57.5434C222.85 58.024 282.793 43.489 345.023 41.5518C375.041 40.623 406.133 41.9464 435.338 49.7093C449.411 53.4496 463.172 58.7704 475.095 66.3054C483.3 71.4855 499.854 82.4198 497.228 91.8759C496.312 95.1567 495.31 98.4225 494.339 101.687C493.099 105.873 491.659 110.089 490.863 114.347C488.095 114.378 485.329 114.403 482.562 114.429C485.143 114.53 487.681 115.804 489.045 117.684C490.876 120.221 489.765 122.528 489.354 125.107C488.767 128.804 488.996 132.756 489.058 136.499C489.174 143.885 489.739 151.284 489.723 158.666C492.473 166.753 480.694 173.864 473.772 177.222C454.277 186.675 425.996 186.11 404.344 180.449C394.709 177.929 384.703 173.457 380.221 165.406C377.43 160.393 376.698 154.701 379.203 149.599C380.445 147.086 383.495 145.161 385.212 142.828C386.488 141.088 387.508 139.25 388.491 137.403C388.566 137.243 388.647 137.094 388.709 136.938C389.328 135.445 389.38 133.509 390.145 132.016C389.706 132.872 373.685 131.712 371.815 131.681C366.018 131.581 360.615 131.1 355.05 132.221C355.002 130.721 353.983 126.676 354.492 125.375C353.462 127.98 352.103 130.511 351.191 133.145C346.34 133.168 341.213 134.47 336.378 135.026C330.501 135.707 324.612 136.324 318.715 136.892C306.884 138.024 295.013 138.947 283.116 139.708C259.366 141.237 235.528 142.124 211.676 142.804C211.211 142.82 210.739 142.83 210.274 142.841C181.643 143.647 152.915 143.726 124.205 142.239C99.4559 140.951 74.3426 138.721 50.2345 132.921C32.8628 128.746 12.9895 122.07 3.83884 107.958C3.64231 107.841 3.50984 107.663 3.45574 107.409C3.19782 106.991 3.2952 106.634 3.53382 106.376Z" fill="black"/>
<path d="M107.303 45.3606C107.227 46.4888 107.196 47.6642 107.127 48.8405C108.047 48.7439 108.965 48.6051 109.873 48.4336C110.02 47.7554 110.158 47.0869 110.263 46.4356C110.348 45.961 110.434 45.4813 110.513 45.006C109.445 45.1279 108.377 45.2446 107.303 45.3606ZM103.884 49.9439C103.694 51.1224 103.541 52.3683 103.249 53.5563C104.042 53.5035 104.834 53.4714 105.631 53.4453C105.56 52.269 105.658 51.054 105.833 49.8369C105.185 49.8956 104.533 49.9276 103.884 49.9439ZM109.711 49.1995C108.849 49.4026 107.968 49.5612 107.077 49.6873C106.976 50.9759 106.808 52.2411 106.478 53.43C107.363 53.4138 108.241 53.3968 109.12 53.3851C109.147 52.0094 109.421 50.593 109.711 49.1995ZM100.47 38.2666C105.289 38.1245 109.791 37.752 114.421 36.694C114.852 36.595 115.075 37.2095 114.66 37.3418C113.858 37.5831 113.039 37.7963 112.205 37.9866C112.066 38.9919 111.94 40.0039 111.808 41.0048C111.978 41.1292 112.02 41.376 111.767 41.4843L111.74 41.497C111.609 42.4927 111.472 43.4825 111.341 44.4781C111.566 44.5718 111.594 44.8855 111.285 44.9192L111.285 44.9244C111.212 45.453 111.139 45.9921 111.066 46.5259C110.992 47.0754 110.934 47.6425 110.883 48.2156C111.209 48.1418 111.541 48.0686 111.876 47.9747C112.322 47.8512 112.645 48.4243 112.191 48.5575C111.738 48.6907 111.278 48.8232 110.807 48.9439C110.671 50.4337 110.513 51.9525 110.119 53.3659C110.335 53.364 110.552 53.362 110.769 53.3548C111.227 53.3432 111.37 53.9381 110.897 53.9639C110.571 53.9799 110.245 53.9958 109.919 54.017C109.847 54.2037 109.795 54.3872 109.717 54.5679C109.635 54.7903 109.175 54.7543 109.153 54.5044C109.138 54.3554 109.142 54.2033 109.133 54.055C108.168 54.1095 107.202 54.1641 106.231 54.2075C106.138 54.3601 105.872 54.3565 105.746 54.2318C104.839 54.2719 103.934 54.2965 103.033 54.2898C102.924 54.6302 102.823 54.9714 102.679 55.2868C102.555 55.5464 102.15 55.4115 102.14 55.163C102.123 54.8663 102.162 54.5708 102.184 54.268C101.638 54.2593 101.098 54.2565 100.556 54.2218C100.279 54.2011 100.279 53.8591 100.544 53.8205C101.092 53.7453 101.656 53.7035 102.221 53.6513C102.38 52.4061 102.751 51.1479 103.04 49.9332C102.178 49.9152 101.314 49.8549 100.459 49.7167C100.141 49.6651 100.07 49.2256 100.426 49.2183C101.408 49.1866 102.371 49.1581 103.321 49.1229C103.462 49.0019 103.685 49.0006 103.84 49.0917C104.549 49.0557 105.259 49.0145 105.964 48.957C106.155 47.7681 106.396 46.5848 106.582 45.4375C104.918 45.6081 103.244 45.741 101.562 45.7885C101.256 45.7962 101.17 45.4287 101.48 45.3847C103.189 45.1032 104.931 44.9255 106.682 44.7803C106.704 44.5777 106.74 44.3764 106.769 44.1744C106.807 43.8366 107.435 43.902 107.396 44.245C107.379 44.4009 107.373 44.5686 107.361 44.7252C108.445 44.6366 109.528 44.5584 110.604 44.4794C110.764 43.566 110.917 42.657 111.076 41.7487C108.216 42.8321 105.003 43.3811 101.833 42.8089C101.603 42.7672 101.538 42.4389 101.812 42.4329C105.13 42.4167 108.183 42.1653 111.192 41.0565C111.367 40.071 111.54 39.0907 111.709 38.1044C108.08 38.8963 104.211 39.182 100.491 38.7005C100.209 38.6636 100.17 38.275 100.47 38.2666Z" fill="black"/>
<path d="M112.283 28.5385C109.981 27.022 107.606 25.4918 105.589 23.7073C105.37 23.509 105.71 23.2525 105.954 23.3958C108.356 24.7552 110.534 26.4631 112.661 28.1075C112.972 28.3424 112.632 28.762 112.283 28.5385Z" fill="black"/>
<path d="M109.001 30.148C106.439 27.897 103.706 25.7004 101.462 23.2273C101.304 23.0464 101.569 22.7867 101.779 22.9472C104.597 25.0112 107.047 27.4654 109.57 29.7753C109.898 30.0753 109.33 30.4377 109.001 30.148Z" fill="black"/>
<path d="M93.6202 30.5287C95.6617 31.3583 97.5322 32.579 99.4214 33.6335C99.929 33.9221 99.3848 34.524 98.8817 34.2517C97.0153 33.2208 94.9746 32.2704 93.2971 31.0292C93.0095 30.8179 93.2366 30.3804 93.6202 30.5287Z" fill="black"/>
<path d="M90.7754 28.0827C93.0646 28.0665 95.3677 28.1518 97.6674 28.2684C96.3585 27.195 95.0657 26.0918 94.0648 24.8794C93.8481 24.6024 94.2051 24.2531 94.5428 24.47C96.2522 25.5411 97.7645 26.9531 99.2339 28.3498C100.516 28.4151 101.798 28.4856 103.081 28.5509C101.082 26.6632 99.0712 24.7688 97.3644 22.7139C97.2131 22.5338 97.4809 22.2429 97.7024 22.4204C100.71 24.832 103.283 27.6528 105.964 30.3171C106.308 30.6452 105.698 31.0397 105.36 30.7123C104.891 30.2543 104.402 29.7993 103.925 29.3458C102.667 29.2937 101.414 29.2476 100.149 29.2C100.517 29.5414 100.878 29.8872 101.243 30.2071C101.636 30.5513 100.972 30.9714 100.59 30.6442C100.005 30.1416 99.3868 29.6458 98.7697 29.1449C96.1059 29.0453 93.4452 28.9197 90.7996 28.659C90.4225 28.6219 90.3755 28.0798 90.7754 28.0827Z" fill="black"/>
<path d="M58.4847 50.7479C58.7147 48.5898 59.5225 46.4914 60.0451 44.3873C60.6022 42.145 61.0909 39.8897 61.5175 37.6221C62.3378 33.2097 62.8894 28.7565 63.3087 24.2937C63.3383 23.9181 64.0085 24.004 63.9926 24.3706C63.8491 28.9802 63.3399 33.5645 62.5307 38.1045C61.7886 42.2731 61.251 47.0542 59.2533 50.9185C59.0824 51.2519 58.4426 51.122 58.4847 50.7479Z" fill="black"/>
<path d="M34.4531 31.0474C34.3865 33.3344 34.5945 35.7786 34.083 38.0102C34.0126 38.297 33.467 38.3462 33.4097 38.0082C33.0342 35.6978 33.3922 33.2489 33.4743 30.9374C33.4894 30.4075 34.4676 30.5228 34.4531 31.0474Z" fill="black"/>
<path d="M37.5014 43.152C43.434 43.8455 49.4039 45.7326 55.1841 47.1036C55.6169 47.2102 55.4434 47.8485 55.0038 47.7464C49.2011 46.4623 42.9501 45.5488 37.3746 43.6009C37.0805 43.5046 37.1814 43.116 37.5014 43.152Z" fill="black"/>
<path d="M58.2996 34.0345C57.0441 33.8986 55.7875 33.773 54.5297 33.6579C54.3214 35.3974 54.1056 37.1466 53.8904 38.8906C55.0933 39.0417 56.2911 39.1816 57.4884 39.3268C57.7504 37.5618 58.0187 35.7974 58.2996 34.0345ZM49.5266 33.1741L49.548 33.266C49.1585 34.922 48.8065 36.5822 48.4364 38.2351C49.8732 38.3967 51.3032 38.5628 52.7314 38.7445C53.0019 37.0172 53.2793 35.2855 53.5623 33.5596C52.223 33.4353 50.8722 33.2992 49.5266 33.1741ZM42.67 37.7024C44.2324 37.8202 45.7931 37.9536 47.3566 38.119C47.8027 36.4693 48.2606 34.8263 48.6822 33.1686L48.748 33.0918C46.9951 32.9158 45.2508 32.7196 43.5163 32.4929C43.3439 34.2523 43.1428 36.04 42.67 37.7024ZM47.8158 40.9282C49.3129 41.1755 50.8128 41.4547 52.2955 41.7161C52.4066 40.955 52.5107 40.1984 52.628 39.438C51.17 39.2951 49.72 39.1373 48.2644 38.9736C48.1212 39.6258 47.9779 40.278 47.8158 40.9282ZM59.4678 40.1441C59.2043 40.1145 58.9339 40.0893 58.6641 40.059C58.3215 42.7096 57.9419 45.3508 57.512 47.9863C57.4105 48.6064 56.2315 48.4686 56.345 47.8551C56.6488 45.2106 57.0158 42.568 57.4018 39.9275C56.2016 39.8083 55.0026 39.6788 53.8025 39.5596C53.7011 40.3481 53.5871 41.1352 53.4732 41.9223C53.9905 42.012 54.5146 42.0973 55.0336 42.1714C55.4328 42.2374 55.3813 42.7526 54.9746 42.6963C54.4493 42.6214 53.9228 42.557 53.3907 42.4866C53.2902 43.1542 53.2028 43.8179 53.0961 44.4848C52.9951 45.0997 51.8287 44.9632 51.9479 44.3557C52.0233 43.6853 52.1243 43.0125 52.2123 42.3435C50.6825 42.161 49.139 41.9874 47.5928 41.7819C47.4641 42.3042 47.3361 42.8213 47.1955 43.337C47.0382 43.8877 45.9795 43.8107 46.0975 43.2135C46.1959 42.6773 46.3063 42.1477 46.4041 41.6167C44.4781 41.3422 42.5716 41.0067 40.7385 40.5269C40.4545 40.4529 40.5866 40.1257 40.8462 40.1338C42.7694 40.208 44.719 40.443 46.6735 40.7471C46.8275 40.1118 46.9947 39.4728 47.167 38.8449C45.6058 38.6588 44.0545 38.4422 42.5049 38.2101C42.4174 38.4791 42.3362 38.7489 42.2243 39.01C42.1163 39.2925 41.5179 39.2463 41.4902 38.9274C41.4659 38.6353 41.4672 38.3407 41.4623 38.0455C41.1435 37.9991 40.8235 37.9631 40.4996 37.9056C40.2258 37.8538 40.2621 37.5316 40.5399 37.547C40.8497 37.5608 41.1571 37.5954 41.4669 37.6092C41.5052 35.8558 41.8655 34.065 42.2416 32.3022C41.2783 32.1676 40.3093 32.027 39.3552 31.8671C39.2538 34.1238 39.1658 36.5452 38.3491 38.5531C38.2497 38.8156 37.7477 38.7591 37.7028 38.4804C37.2588 35.7624 38.1074 32.6793 38.5043 29.9979C38.5804 29.4908 39.4965 29.5938 39.458 30.1052C39.4199 30.5008 39.3994 30.909 39.3777 31.3276C40.3818 31.3826 41.3954 31.465 42.4023 31.552C42.5883 30.6888 42.7669 29.8353 42.9055 28.9983C42.9896 28.4763 43.9621 28.5857 43.8843 29.1084C43.76 29.9312 43.6767 30.7849 43.5928 31.6438C46.956 31.9641 50.3252 32.4009 53.6812 32.8415C53.8721 31.6526 54.0687 30.4696 54.247 29.2792C54.254 29.2169 54.3089 29.181 54.3449 29.1429C50.1165 28.72 45.7844 28.4275 41.6614 27.5744C41.3324 27.5058 41.3682 27.1309 41.7105 27.1379C46.4329 27.2374 51.2616 28.0857 55.9605 28.6194C56.4869 28.6839 56.411 29.3595 55.8839 29.3002C55.5953 29.2677 55.2873 29.2384 54.9918 29.2104C55.0248 29.2562 55.064 29.3027 55.0564 29.3703C54.8969 30.5627 54.7493 31.7618 54.6086 32.9563C55.8737 33.1196 57.1331 33.2771 58.3931 33.4293C58.8531 30.5814 59.3132 27.7335 59.7784 24.8967C59.8399 24.5194 60.5306 24.5918 60.4874 24.9764C59.925 29.8073 59.374 34.65 58.7421 39.4783C59.0056 39.508 59.2685 39.5428 59.5321 39.5724C59.977 39.6277 59.9133 40.1942 59.4678 40.1441Z" fill="black"/>
<path d="M55.5583 26.8271C52.4085 26.3044 49.2655 25.7773 46.1268 25.1559C45.8405 25.1027 45.8751 24.7382 46.17 24.7714C49.3384 25.1856 52.478 25.686 55.6296 26.1931C56.1167 26.2689 56.0448 26.9081 55.5583 26.8271Z" fill="black"/>
<path d="M69.3517 37.1718C69.1105 37.1131 69.1491 36.7701 69.3973 36.7664C71.7556 36.7001 74.2465 37.2065 76.5976 37.4867C77.0419 37.5472 76.9782 38.1137 76.5321 38.0688C74.1769 37.8249 71.6364 37.7602 69.3517 37.1718Z" fill="black"/>
<path d="M70.8231 40.7527C70.6366 40.7159 70.66 40.5081 70.8499 40.5136C71.8438 40.5465 72.8334 40.6736 73.8184 40.7843C74.1008 40.8161 74.0599 41.1799 73.7775 41.1481C72.7925 41.0373 71.7988 40.9466 70.8231 40.7527Z" fill="black"/>
<path d="M73.3819 44.6664C72.3786 44.5483 71.3512 44.4748 70.3721 44.2542C70.168 44.2049 70.2007 43.9139 70.4107 43.9112C71.4143 43.9136 72.4323 44.0701 73.4362 44.1831C73.8133 44.2202 73.7583 44.7087 73.3819 44.6664Z" fill="black"/>
<path d="M73.5092 47.8275C72.1727 47.5088 70.7389 47.2634 69.453 46.7767C69.1908 46.6788 69.2796 46.3414 69.5682 46.3739C70.9823 46.5119 72.403 46.9295 73.7847 47.2428C74.2557 47.3484 73.9865 47.9338 73.5092 47.8275Z" fill="black"/>
<path d="M21.0454 41.7379C30.7851 47.2223 40.6426 51.7726 51.9116 54.4503C52.3569 54.5582 52.0987 55.1028 51.6591 55.0007C40.7263 52.4977 29.5417 48.3349 20.6957 42.1354C20.3893 41.922 20.7166 41.5536 21.0454 41.7379Z" fill="black"/>
<path d="M36.7182 109.661C36.9018 107.577 37.0408 105.493 37.0625 103.38C35.6797 103.077 34.2929 102.752 32.9273 102.409C33.0942 104.428 33.2931 106.445 33.5039 108.468C34.571 108.867 35.6449 109.261 36.7182 109.661ZM36.8835 117.4C38.77 117.97 40.6663 118.509 42.5866 119.004C42.632 116.962 42.7339 114.927 42.9059 112.888C41.1617 112.24 39.4181 111.586 37.6739 110.937C37.4998 113.107 37.2572 115.263 36.8835 117.4ZM43.6221 104.712C41.7499 104.354 39.8669 103.979 37.9686 103.571C37.9742 105.724 37.8903 107.883 37.7368 110.039C39.4873 110.688 41.2377 111.338 42.9819 111.986C43.1978 109.558 43.4394 107.128 43.6221 104.712ZM31.3749 96.3828C29.8401 95.9628 28.3109 95.5488 26.7921 95.099C26.8428 96.6256 26.8678 98.1546 26.8182 99.6698C28.4414 100.094 30.0704 100.525 31.6868 100.954C31.5465 99.4333 31.4513 97.907 31.3749 96.3828ZM31.2497 92.0166C29.7147 91.6545 28.182 91.2716 26.6585 90.8635C26.6768 91.9443 26.7189 93.0384 26.7548 94.1318C28.2874 94.5147 29.8052 94.9169 31.335 95.3258C31.294 94.2213 31.265 93.1234 31.2497 92.0166ZM31.2951 86.5276C29.7008 85.9589 28.115 85.3701 26.5453 84.7515C26.5782 86.5497 26.6173 88.3486 26.6433 90.1513C28.179 90.4503 29.7125 90.7701 31.2435 91.1107C31.2379 89.5787 31.2505 88.054 31.2951 86.5276ZM31.4268 83.1534C29.7446 82.5748 28.0928 81.9522 26.485 81.2767C26.505 82.1157 26.5125 82.9533 26.5325 83.7923C28.139 84.3097 29.7425 84.8532 31.3375 85.4167C31.3589 84.6613 31.3866 83.9066 31.4268 83.1534ZM22.2006 93.667C22.1792 95.2696 22.1264 96.8688 22.0121 98.4505C23.3104 98.7701 24.6019 99.0943 25.8859 99.4282C25.8044 97.8929 25.8131 96.3467 25.8281 94.8012C24.6115 94.4328 23.4017 94.0599 22.2006 93.667ZM18.2463 102.953C23.1384 104.424 27.8752 106.372 32.6444 108.145C32.2908 106.148 32.0275 104.139 31.8155 102.126C30.1055 101.681 28.4116 101.207 26.743 100.677C26.7183 101.179 26.7067 101.678 26.6511 102.172C26.6186 102.405 26.1786 102.419 26.1428 102.173C26.0616 101.595 26.0255 101.012 25.9768 100.428C24.6223 99.986 23.2776 99.5137 21.9752 99.0042C21.853 100.543 21.6624 102.069 21.3617 103.556C21.316 103.793 20.8412 103.834 20.8088 103.557C20.459 100.17 20.6582 96.7037 20.9316 93.2559C20.7271 93.1539 20.7694 92.8903 20.9664 92.8335C21.1398 90.727 21.3314 88.6277 21.4425 86.5668C21.4717 86.0807 22.3558 86.1853 22.3334 86.667C22.2497 88.7678 22.2433 90.9142 22.2165 93.0741C23.4254 93.3416 24.6325 93.6247 25.8384 93.9182C25.8548 92.9255 25.858 91.9365 25.8544 90.952C25.8529 90.8518 25.8521 90.7465 25.8506 90.6463C24.9566 90.4037 24.0546 90.1759 23.1686 89.9184C22.8978 89.8406 22.9975 89.4624 23.2844 89.5104C24.1387 89.6539 24.9952 89.8344 25.8472 89.9986C25.8265 88.1492 25.8183 86.3011 25.8107 84.4478C24.5699 83.9557 23.3216 83.4733 22.1169 82.9431C21.796 82.8017 21.9665 82.4157 22.3109 82.5176C23.4814 82.8439 24.6427 83.1956 25.7965 83.5569C25.7914 82.6985 25.7869 81.8349 25.7755 80.9759C25.6421 80.9188 25.5031 80.8558 25.3634 80.798C24.94 80.6083 25.1649 80.1336 25.6228 80.243L25.7773 80.2814C25.7721 79.8756 25.7726 79.4757 25.768 79.0647C25.765 78.696 26.4421 78.7774 26.4456 79.1409C26.4593 79.5845 26.461 80.0215 26.4689 80.4592C28.155 80.8909 29.8334 81.3901 31.4997 81.9407C31.5514 81.1413 31.5964 80.3465 31.6607 79.5485C29.0902 78.5069 26.6394 77.3051 24.5356 75.8423C24.2532 75.6421 24.4854 75.2157 24.8502 75.362C27.2024 76.3106 29.4341 77.4826 31.7525 78.5063C31.8726 77.099 32.0236 75.7003 32.1876 74.2979C29.7761 73.3689 27.3978 72.3699 25.1905 71.206C24.9085 71.0585 25.1729 70.7409 25.45 70.8194C27.7676 71.4537 30.0637 72.2803 32.3333 73.1723C32.4423 72.3163 32.5713 71.4519 32.6996 70.5928C30.5244 69.8219 28.2332 69.1222 26.2459 68.0356C26.0004 67.9028 26.1566 67.5309 26.4485 67.59C28.6463 68.0477 30.7459 68.9259 32.8298 69.7181C33.0109 68.5596 33.2097 67.4137 33.4221 66.2588C30.915 65.219 28.4302 64.1502 26.065 62.9212C25.7528 62.7597 26.0323 62.3649 26.3561 62.4803C28.8158 63.32 31.2061 64.3256 33.586 65.3668C33.7278 64.6144 33.8884 63.8642 34.0365 63.1125C31.4636 61.9232 28.9159 60.6789 26.6135 59.2307C26.376 59.0829 26.5822 58.7746 26.845 58.8673C29.3748 59.7622 31.8246 60.9166 34.2434 62.1201C34.4005 61.401 34.5714 60.6729 34.7353 59.9494C31.8809 58.8337 29.0363 57.6876 26.3182 56.3767C25.9746 56.2118 26.1452 55.7679 26.5437 55.8969C29.3872 56.8271 32.1726 57.935 34.9345 59.0824C35.2334 57.8372 35.5448 56.5934 35.8751 55.3518C31.6282 53.6796 27.3992 51.962 23.3626 50.003C23.0548 49.8578 23.3343 49.463 23.6461 49.5717C27.9044 51.0295 32.0671 52.7712 36.2064 54.5523C36.4075 54.4592 36.6903 54.5436 36.6851 54.7588C39.4492 55.9432 42.2047 57.1477 44.9666 58.2951C45.3975 58.4751 45.1369 59.0405 44.6998 58.8597C42.0028 57.7565 39.251 56.6892 36.5071 55.6071C36.1826 56.8546 35.8951 58.1116 35.6082 59.3634C37.7745 60.2701 39.9327 61.1917 42.0963 62.0665C42.5705 62.2567 42.2898 62.8882 41.8036 62.6914C39.6936 61.8489 37.5488 61.0341 35.4051 60.2089C35.2382 60.9584 35.065 61.7073 34.9169 62.459C36.8462 63.439 38.7607 64.4384 40.6645 65.363C41.0924 65.569 40.6925 66.1871 40.2583 65.9804C38.4622 65.1153 36.5992 64.2795 34.738 63.4282C34.5899 64.1799 34.4538 64.9381 34.3183 65.6912C36.0616 66.4609 37.7981 67.2351 39.5374 67.9833C40.0464 68.2036 39.7461 68.8961 39.2189 68.6684C37.5451 67.9592 35.8569 67.2641 34.1625 66.5683C33.9637 67.7143 33.7775 68.8616 33.6101 70.0111C36.0685 70.919 38.515 71.8204 40.9666 72.7329C41.5349 72.9336 41.2049 73.6648 40.6309 73.4582C38.2556 72.6017 35.8809 71.7399 33.5 70.8775C33.3824 71.7536 33.2654 72.6246 33.1603 73.5021C36.0112 74.649 38.8259 75.8917 41.625 76.9907C42.1665 77.2042 41.8451 77.9153 41.2974 77.7011C38.6008 76.6505 35.782 75.6704 33.0158 74.6173C32.862 76.042 32.7589 77.467 32.6427 78.8959L32.7823 78.9537C35.4918 80.0583 38.2765 81.003 41.1135 81.822C41.7286 82.0017 41.3751 82.7724 40.7599 82.5927C38.1014 81.8253 35.2886 80.9617 32.5663 79.9135C32.5112 80.6862 32.431 81.456 32.3884 82.2301C35.9814 83.4446 39.5301 84.8278 43.0484 86.0286C43.6481 86.2329 43.2963 86.988 42.6961 86.7889C39.3168 85.651 35.786 84.6172 32.3383 83.4664C32.3043 84.2204 32.2692 84.9847 32.2598 85.7467C36.4979 87.2706 40.7054 88.8963 44.9145 90.3959C45.513 90.6105 45.1595 91.3812 44.5547 91.1658C40.4927 89.7144 36.3467 88.3324 32.2465 86.8819C32.2316 88.3696 32.2425 89.8548 32.2785 91.3429C36.5648 92.3249 40.8292 93.3886 45.0842 94.3671C45.647 94.5041 45.321 95.1989 44.7639 95.0678C40.6264 94.1184 36.45 93.2329 32.3011 92.2717C32.3409 93.3865 32.3864 94.5073 32.4451 95.6243C37.0929 96.8943 41.7103 98.2661 46.2523 99.6294C46.652 99.7481 46.4151 100.216 46.0251 100.125C41.5485 99.0267 37.004 97.9105 32.4958 96.6983C32.5859 98.2135 32.7011 99.7315 32.8226 101.25C36.4517 102.2 40.0912 103.115 43.7915 103.884C44.0062 103.613 44.5366 103.699 44.6372 104.047C45.1773 104.161 45.7047 104.273 46.2459 104.376C46.8693 104.482 46.782 105.315 46.1542 105.191C45.6626 105.099 45.1522 105.005 44.6549 104.907C44.5124 107.417 44.4246 109.949 44.3055 112.477C45.2562 112.837 46.2019 113.185 47.1538 113.534C47.7694 113.767 47.4061 114.568 46.7842 114.335C45.9423 114.024 45.0947 113.708 44.2534 113.392C44.1523 115.365 43.9884 117.331 43.7561 119.283C44.6034 119.489 45.4439 119.699 46.2998 119.885C46.9875 120.041 46.8897 120.967 46.1963 120.805C45.3473 120.615 44.4994 120.414 43.6521 120.208C43.5894 120.596 43.5707 120.988 43.508 121.376C43.4401 121.81 42.6424 121.842 42.5546 121.379C42.4907 120.93 42.3944 120.488 42.2654 120.052C42.2479 119.982 42.2795 119.927 42.3155 119.889C40.4373 119.415 38.5558 118.914 36.6783 118.377C36.4695 119.442 36.2738 120.505 36.0091 121.559C35.8985 121.978 35.0812 122.07 34.9992 121.556C34.9074 120.903 34.8156 120.251 34.7551 119.602C34.7341 119.337 35.2099 119.175 35.3226 119.471L35.343 119.516C35.4288 119.036 35.5145 118.556 35.6008 118.071C33.2702 117.383 30.9585 116.639 28.6864 115.825C28.5823 115.903 28.4834 115.992 28.3737 116.064C28.0119 116.286 27.6277 115.917 27.8265 115.618L27.8878 115.525C26.0997 114.871 24.35 114.159 22.6237 113.407C22.5303 113.56 22.4426 113.718 22.3309 113.863C22.1306 114.12 21.6707 113.915 21.6828 113.638C21.6862 113.438 21.7404 113.239 21.7689 113.042C20.596 112.511 19.4319 111.959 18.2963 111.378C18.0552 111.262 18.2683 110.949 18.5185 111.04C19.6523 111.468 20.7803 111.889 21.9152 112.306C22.2142 111.23 22.7339 110.167 23.1144 109.157C23.3408 108.557 24.4472 108.944 24.2208 109.545C23.8329 110.564 23.5275 111.698 23.0318 112.716C24.8445 113.378 26.6514 114.034 28.467 114.669C29.4237 113.224 30.1387 111.894 30.0872 110.036C30.0647 109.502 31.0491 109.618 31.0723 110.147C31.1262 111.758 30.696 113.662 29.5375 115.037C31.5994 115.743 33.6755 116.434 35.7763 117.075C36.1342 114.911 36.4047 112.731 36.6314 110.546C35.6191 110.169 34.613 109.793 33.607 109.416C33.6558 109.943 33.7108 110.47 33.7659 110.997C33.8016 111.301 33.2657 111.378 33.1992 111.065C33.0622 110.418 32.9504 109.774 32.8261 109.129C32.6739 109.069 32.5217 109.01 32.3689 108.956C27.5827 107.165 22.6528 105.522 18.0202 103.438C17.6572 103.276 17.8467 102.834 18.2463 102.953Z" fill="black"/>
<path d="M24.8683 119.269C33.0883 123.409 41.6361 126.781 50.8382 128.91C51.5065 129.069 51.122 129.889 50.4594 129.736C41.2973 127.59 32.3549 124.337 24.4826 119.705C24.1254 119.491 24.5077 119.087 24.8683 119.269Z" fill="black"/>
<path d="M475.209 150.429C477.352 154.143 478.765 158.186 480.441 162.042C480.594 162.381 480.004 162.598 479.839 162.259C478.061 158.407 475.929 154.536 474.635 150.564C474.535 150.269 475.066 150.176 475.209 150.429Z" fill="black"/>
<path d="M413.175 160.961C415.698 163.729 417.823 166.757 420.067 169.677C420.339 170.029 419.755 170.426 419.471 170.068C417.182 167.142 414.704 164.264 412.692 161.196C412.535 160.952 412.978 160.739 413.175 160.961Z" fill="black"/>
<path d="M407.45 163.68C405.247 160.274 402.83 156.908 400.926 153.389C400.762 153.092 401.283 152.808 401.504 153.102C404.025 156.39 406.104 159.939 408.336 163.369C408.64 163.835 407.76 164.146 407.45 163.68Z" fill="black"/>
<path d="M394.806 149.386C398.719 154.815 401.721 160.778 405.04 166.466C405.317 166.934 404.451 167.242 404.173 166.774C400.8 161.111 396.961 155.475 394.217 149.593C394.058 149.254 394.592 149.083 394.806 149.386Z" fill="black"/>
<path d="M389.319 149.589C389.13 149.289 389.637 149.083 389.89 149.312C394.72 153.77 397.905 159.907 400.378 165.431C400.617 165.964 399.676 166.305 399.432 165.767C398.132 162.921 396.64 160.143 394.91 157.449C393.179 154.76 391.064 152.27 389.319 149.589Z" fill="black"/>
<path d="M386.646 152.004C388.879 157.118 391.148 162.078 394.685 166.728C395.062 167.218 394.238 167.772 393.849 167.276C390.29 162.645 387.233 157.517 386.085 152.131C386.026 151.861 386.524 151.728 386.646 152.004Z" fill="black"/>
<path d="M407.527 151.864C405.952 149.824 404.285 147.81 402.905 145.676C402.726 145.403 403.209 145.179 403.43 145.414C405.2 147.303 406.729 149.353 408.31 151.347C408.683 151.81 407.894 152.331 407.527 151.864Z" fill="black"/>
<path d="M465.034 153.284C464.653 152.373 464.255 151.455 463.849 150.541C462.121 149.857 460.384 149.209 458.629 148.596C459.266 150.162 459.878 151.731 460.534 153.241C461.004 154.31 461.462 155.382 461.932 156.461C463.91 157.51 465.858 158.613 467.768 159.76C466.848 157.604 465.928 155.448 465.034 153.284ZM452.127 146.47C452.565 147.546 452.997 148.615 453.443 149.681C453.91 150.786 454.37 151.89 454.837 152.995C456.766 153.86 458.671 154.779 460.538 155.742C460.163 154.899 459.786 154.068 459.417 153.226C458.656 151.52 457.784 149.785 456.964 148.035C455.367 147.492 453.754 146.974 452.127 146.47ZM445.938 144.664C446.569 145.829 447.201 146.995 447.805 148.173C448.218 148.967 448.578 149.776 448.978 150.573C450.471 151.136 451.935 151.732 453.397 152.354C453.013 151.475 452.629 150.589 452.252 149.705C451.723 148.477 451.175 147.247 450.634 146.018C449.072 145.553 447.509 145.104 445.938 144.664ZM451.714 156.244C453.07 156.78 454.426 157.327 455.775 157.874C455.119 156.358 454.471 154.833 453.809 153.317C452.329 152.64 450.847 151.973 449.35 151.331C450.151 152.968 450.959 154.596 451.714 156.244ZM445.71 154.995C446.389 156.418 447.073 157.853 447.757 159.277C449.663 160.239 451.531 161.259 453.377 162.304C452.629 160.588 451.849 158.88 451.044 157.173C449.248 156.472 447.475 155.741 445.71 154.995ZM462.795 160.763C462.2 159.439 461.612 158.12 461.017 156.8C459.119 155.824 457.191 154.881 455.248 153.973C455.869 155.458 456.49 156.939 457.111 158.424C459.012 159.201 460.9 159.982 462.795 160.763ZM470.909 162.397C470.44 162.102 469.97 161.823 469.5 161.538C469.798 162.277 470.102 163.022 470.399 163.765C470.583 164.223 469.781 164.517 469.579 164.052C469.112 162.947 468.646 161.842 468.179 160.742C466.279 159.613 464.341 158.543 462.385 157.512C462.925 158.757 463.464 160.007 464.004 161.257C465.212 161.751 466.434 162.241 467.651 162.725C468.143 162.928 467.853 163.579 467.341 163.385C466.387 163.004 465.405 162.635 464.437 162.263C464.881 163.287 465.324 164.316 465.768 165.339C465.966 165.788 465.171 166.072 464.974 165.623C464.405 164.354 463.83 163.085 463.267 161.821C461.396 161.111 459.524 160.411 457.653 159.706C458.054 160.661 458.442 161.616 458.85 162.567C459.065 163.08 458.158 163.404 457.937 162.885C457.414 161.663 456.884 160.44 456.354 159.218C455.013 158.714 453.679 158.201 452.346 157.683C453.149 159.468 453.952 161.253 454.709 163.053L454.709 163.059C456.939 164.357 459.112 165.712 461.255 167.11C461.722 167.421 461.198 168.014 460.723 167.714C456.768 165.143 452.645 162.769 448.38 160.573C448.915 161.697 449.443 162.819 449.984 163.938C450.221 164.433 449.334 164.754 449.091 164.253C448.373 162.788 447.649 161.317 446.924 159.852C445.046 158.925 443.129 158.062 441.196 157.224C441.633 158.199 442.057 159.173 442.488 160.148C442.722 160.658 441.802 160.991 441.568 160.47C440.994 159.19 440.408 157.909 439.828 156.623C438.148 155.907 436.47 155.182 434.8 154.436C435.795 156.269 436.716 158.135 437.551 159.977C442.433 162.104 447.149 164.634 451.6 167.082C452.133 167.374 451.565 168.015 451.032 167.729C447.22 165.637 443.323 163.678 439.319 161.88C438.938 161.711 438.555 161.558 438.179 161.394C438.3 161.676 438.433 161.96 438.548 162.241C438.785 162.789 437.811 163.147 437.568 162.589C437.301 161.974 436.987 161.371 436.7 160.76C434.12 159.691 431.514 158.682 428.965 157.569C430 159.269 431.008 160.983 432.01 162.69C435.554 164.404 439.048 166.213 442.566 167.924C443.102 168.189 442.541 168.821 442.012 168.556C439.013 167.093 435.938 165.679 432.912 164.217C433.1 164.528 433.275 164.837 433.462 165.148C433.788 165.695 432.776 166.054 432.443 165.507C431.998 164.778 431.54 164.047 431.088 163.318C429.012 162.289 426.957 161.237 424.968 160.109C424.658 159.932 424.936 159.495 425.282 159.633C426.922 160.312 428.537 161.036 430.136 161.79C428.133 158.581 426.125 155.36 424.503 152.041C424.312 151.652 424.931 151.458 425.185 151.802C426.324 153.362 427.362 154.984 428.373 156.613C430.958 157.356 433.509 158.291 436.022 159.331C435.071 157.393 434.061 155.469 432.926 153.589C432.806 153.523 432.766 153.429 432.77 153.334C431.005 150.441 428.884 147.719 427.072 144.852C426.856 144.507 427.453 144.227 427.738 144.522C430.31 147.19 432.43 150.26 434.245 153.442C435.926 153.973 437.585 154.591 439.217 155.275C437.999 152.602 436.781 149.928 435.576 147.256C433.709 143.12 431.29 138.87 430.192 134.562C430.117 134.275 430.589 134.197 430.747 134.435C433.364 138.398 434.896 143.017 436.773 147.233C438.051 150.102 439.311 152.97 440.583 155.839C442.521 156.689 444.418 157.618 446.29 158.544C445.601 157.156 444.919 155.758 444.231 154.365C443.117 153.872 442.004 153.373 440.906 152.855C440.586 152.703 440.747 152.29 441.115 152.41C441.98 152.686 442.837 152.977 443.699 153.274C443.063 151.982 442.427 150.684 441.792 149.386C440.609 146.964 439.42 144.546 438.244 142.12C437.131 139.816 435.739 137.444 435.057 135.036C434.954 134.651 435.578 134.579 435.787 134.871C437.374 137.091 438.365 139.692 439.513 142.078C440.689 144.5 441.846 146.93 443.015 149.361C443.726 150.83 444.425 152.298 445.124 153.771C446.883 154.395 448.627 155.044 450.368 155.724C449.548 154.032 448.682 152.356 447.821 150.685C447.227 150.434 446.633 150.178 446.032 149.932C445.758 149.822 445.912 149.471 446.2 149.566C446.64 149.721 447.061 149.879 447.494 150.038C447.296 149.653 447.105 149.258 446.907 148.878C446.078 147.321 445.209 145.776 444.348 144.227C443.916 144.11 443.479 143.987 443.041 143.875C442.683 143.777 442.823 143.271 443.189 143.344C443.445 143.389 443.698 143.454 443.947 143.498C443.63 142.926 443.327 142.344 442.997 141.776C441.658 139.446 440.044 137.133 439.073 134.688C438.97 134.423 439.361 134.167 439.592 134.43C441.314 136.35 442.49 138.603 443.73 140.742C444.32 141.766 444.897 142.794 445.462 143.816C447.037 144.156 448.602 144.532 450.164 144.944C449.021 142.337 447.919 139.708 447.113 137.044C447.016 136.718 447.601 136.599 447.765 136.897C449.288 139.625 450.491 142.482 451.663 145.339C453.257 145.797 454.847 146.297 456.419 146.832C455.612 145.026 454.89 143.197 454.453 141.375C454.378 141.082 454.844 141.008 455.002 141.247C456.277 143.18 457.259 145.295 458.156 147.433C459.91 148.051 461.642 148.698 463.355 149.396C462.454 147.3 461.598 145.188 461.052 143.043C460.982 142.756 461.476 142.659 461.619 142.917C462.952 145.183 463.93 147.619 464.877 150.041C466.661 150.794 468.422 151.576 470.153 152.397C469.574 150.711 469.026 149.023 468.582 147.326C468.525 147.099 468.935 147.008 469.039 147.22C470.01 149.145 470.855 151.124 471.654 153.113C472.666 153.606 473.678 154.099 474.663 154.609C475.114 154.839 474.642 155.365 474.197 155.141C473.488 154.777 472.769 154.449 472.052 154.1C473.333 157.396 474.476 160.735 475.593 164.023C475.723 164.391 474.986 164.565 474.83 164.195C473.337 160.638 471.814 157.004 470.503 153.352C468.787 152.564 467.053 151.827 465.302 151.12C465.583 151.846 465.87 152.573 466.158 153.284C467.157 155.707 468.128 158.142 469.101 160.567C469.843 161.024 470.587 161.476 471.31 161.937C471.672 162.167 471.271 162.622 470.909 162.397Z" fill="black"/>
<path d="M423.414 143.083C419.887 142.408 416.185 141.881 412.781 140.793C412.494 140.697 412.61 140.342 412.899 140.369C416.455 140.722 420.005 141.7 423.482 142.475C423.929 142.573 423.881 143.172 423.414 143.083Z" fill="black"/>
<path d="M424.902 140.582C421.56 140.075 418.085 139.731 414.81 138.911C414.557 138.845 414.674 138.537 414.914 138.549C418.269 138.773 421.648 139.522 424.96 140.068C425.353 140.133 425.302 140.643 424.902 140.582Z" fill="black"/>
<path d="M416.806 137.714C416.521 137.656 416.556 137.344 416.848 137.345C419.606 137.392 422.417 137.877 425.158 138.196C425.572 138.247 425.512 138.777 425.098 138.731C422.354 138.438 419.505 138.291 416.806 137.714Z" fill="black"/>
<path d="M423.601 136.058C421.016 135.93 418.424 135.818 415.84 135.569C415.607 135.553 415.657 135.275 415.873 135.278C418.465 135.28 421.061 135.42 423.659 135.538C424.057 135.557 423.999 136.076 423.601 136.058Z" fill="black"/>
<path d="M406.519 138.289C403.573 137.815 400.483 137.494 397.618 136.698C397.328 136.623 397.461 136.286 397.726 136.3C400.689 136.454 403.677 137.116 406.597 137.592C407.134 137.679 407.061 138.381 406.519 138.289Z" fill="black"/>
<path d="M404.822 168.463C410.436 170.294 415.979 172.022 421.873 173.054C427.838 174.087 433.92 174.577 439.955 174.471C445.647 174.375 451.295 173.757 456.777 172.637C462.116 171.543 468.379 170.095 470.859 165.606L470.932 165.641C469.388 169.54 464.733 171.322 460.345 172.491C454.34 174.079 448.01 174.941 441.667 175.185C429.357 175.663 415.792 173.964 404.528 169.098C404.055 168.892 404.313 168.295 404.822 168.463Z" fill="black"/>
<path d="M485.027 85.3359C476.807 78.1964 467.548 72.6188 457.525 67.4552C457.122 67.2468 457.491 66.6831 457.915 66.8624C468.33 71.2017 477.709 77.8084 485.5 85.026C485.77 85.2774 485.299 85.5717 485.027 85.3359Z" fill="black"/>
<path d="M467.829 97.579C468.943 98.1883 470.05 98.7918 471.157 99.4056C471.235 99.446 471.26 99.5067 471.285 99.5622C471.526 98.8315 471.76 98.1053 472.014 97.376C470.914 96.5314 469.774 95.7137 468.624 94.9213C468.359 95.8072 468.088 96.6872 467.829 97.579ZM466.583 101.77C467.567 102.396 468.553 103.012 469.508 103.672C469.927 103.951 469.447 104.497 469.027 104.213C468.16 103.621 467.262 103.078 466.365 102.519C466.036 103.64 465.707 104.755 465.371 105.875C466.232 106.419 467.073 106.961 467.871 107.493C468.272 107.764 467.82 108.287 467.412 108.015C466.679 107.527 465.91 107.073 465.149 106.608C464.654 108.299 464.147 109.984 463.645 111.675C464.797 112.399 465.94 113.133 467.093 113.847C467.531 112.154 467.98 110.473 468.442 108.794C469.274 105.804 470.205 102.84 471.179 99.887C471.055 99.9731 470.878 100.022 470.704 99.9231C469.673 99.3808 468.647 98.8392 467.616 98.2917C467.275 99.4533 466.923 100.608 466.583 101.77ZM458.174 109.539C458.042 110.034 457.91 110.53 457.778 111.026C459.282 111.716 460.762 112.451 462.218 113.235C462.33 112.864 462.44 112.503 462.558 112.132C461.078 111.281 459.619 110.417 458.174 109.539ZM456.376 116.373C457.803 117.07 459.213 117.807 460.615 118.565C461.039 117.113 461.476 115.657 461.925 114.208L461.739 114.108C460.346 113.383 458.934 112.724 457.5 112.084C457.13 113.51 456.753 114.942 456.376 116.373ZM455.735 118.79C455.495 119.689 455.279 120.591 455.057 121.492C456.409 122.239 457.76 122.991 459.106 123.732C459.496 122.354 459.899 120.979 460.301 119.603C458.91 118.863 457.513 118.121 456.103 117.389C455.98 117.854 455.858 118.325 455.735 118.79ZM450.139 119.965C449.641 121.283 449.164 122.645 448.643 124.002C450.102 124.587 451.55 125.218 452.962 125.877C453.246 124.593 453.587 123.316 453.953 122.042C452.669 121.366 451.4 120.67 450.139 119.965ZM457.839 128.273C458.167 127.052 458.513 125.838 458.853 124.624C457.51 123.915 456.161 123.2 454.805 122.49C454.491 123.755 454.158 125.017 453.758 126.256C455.139 126.917 456.499 127.59 457.839 128.273ZM458.694 128.7C460.347 129.534 461.982 130.417 463.591 131.314C463.761 130.028 463.95 128.744 464.164 127.458C462.822 126.739 461.474 126.013 460.131 125.294C459.916 125.175 459.693 125.066 459.472 124.946C459.084 126.134 458.684 127.315 458.284 128.496C458.423 128.559 458.556 128.627 458.694 128.7ZM465.125 122.251C463.781 121.489 462.427 120.753 461.074 120.017C460.642 121.378 460.197 122.733 459.759 124.089C459.956 124.196 460.159 124.313 460.351 124.419C461.675 125.131 462.992 125.847 464.315 126.564C464.56 125.124 464.83 123.686 465.125 122.251ZM471.498 125.125C471.503 123.442 471.578 121.756 471.71 120.076C470.234 119.073 468.723 118.103 467.189 117.173C466.839 118.702 466.514 120.234 466.189 121.765C467.997 122.863 469.759 123.982 471.498 125.125ZM462.727 114.645C462.29 116.096 461.842 117.545 461.393 118.989C462.721 119.723 464.034 120.476 465.332 121.253C465.662 119.733 466.011 118.214 466.377 116.703C465.18 115.995 463.961 115.31 462.727 114.645ZM466.888 114.65C465.72 113.961 464.552 113.277 463.358 112.595C463.247 112.962 463.136 113.323 463.019 113.689C464.239 114.363 465.431 115.065 466.596 115.78C466.695 115.402 466.789 115.023 466.888 114.65ZM469.666 91.4179C469.39 92.3447 469.114 93.2766 468.832 94.2027C469.991 95.0277 471.121 95.8758 472.217 96.7516C472.59 95.6989 472.981 94.6483 473.366 93.597C472.154 92.8502 470.922 92.1169 469.666 91.4179ZM468.285 93.8097C468.564 92.9148 468.836 92.0192 469.121 91.1198C468.038 90.5244 466.963 89.9193 465.857 89.3581C462.556 87.6871 458.852 86.4443 455.7 84.5899C455.515 84.4797 455.625 84.1816 455.867 84.2299C459.352 84.9954 462.651 86.7925 465.733 88.3654C466.964 88.9985 468.167 89.6653 469.355 90.3409C469.554 89.7055 469.753 89.0648 469.951 88.4293C470.036 88.1283 470.586 88.3217 470.501 88.6279C470.292 89.2991 470.095 89.9768 469.892 90.6539C471.15 91.3848 472.4 92.1358 473.621 92.9152C473.979 91.9346 474.332 90.948 474.708 89.9694C469.083 86.716 463.209 83.582 458.029 79.8683C457.758 79.6747 458.04 79.3696 458.335 79.5185C464.132 82.3807 469.521 85.9812 474.962 89.3507C475.551 87.8434 476.165 86.339 476.79 84.8464C471.063 80.9132 464.817 77.811 458.655 74.4078C458.428 74.2875 458.634 73.9791 458.883 74.0756C465.49 76.5132 471.5 80.3624 477.027 84.2678C477.097 84.1019 477.16 83.9302 477.229 83.7695C477.35 83.4884 477.857 83.6717 477.749 83.949C477.655 84.1647 477.58 84.3825 477.492 84.5989L477.592 84.6681C477.905 84.8822 477.602 85.2586 477.279 85.1381C476.677 86.6491 476.08 88.1661 475.503 89.6852C475.99 89.9821 476.472 90.2783 476.947 90.5686C477.322 90.7949 476.915 91.2543 476.54 91.028C476.123 90.7811 475.692 90.5432 475.269 90.2956C474.896 91.2957 474.554 92.2992 474.201 93.291C474.782 93.6667 475.362 94.0425 475.93 94.422C476.308 94.6751 475.885 95.159 475.507 94.906C475.003 94.581 474.471 94.2843 473.961 93.9638C472.135 99.121 470.476 104.323 469.04 109.582C468.615 111.155 468.234 112.733 467.859 114.317C468.21 114.536 468.572 114.76 468.923 114.974C469.381 115.251 468.885 115.822 468.42 115.543C468.17 115.394 467.913 115.249 467.663 115.1C467.569 115.484 467.475 115.869 467.381 116.253C468.907 117.203 470.374 118.173 471.808 119.145C472.733 108.661 475.937 98.254 480.312 88.6209C480.411 88.4163 480.784 88.5477 480.697 88.7537C476.322 98.7867 473.982 109.08 472.588 119.675C472.758 119.794 472.936 119.914 473.107 120.028C473.572 120.359 473.039 120.967 472.562 120.64L472.455 120.575C472.262 122.122 472.087 123.671 471.925 125.231L471.854 125.349C473.025 126.123 474.183 126.901 475.335 127.677C475.747 127.966 475.273 128.507 474.848 128.223C471.966 126.278 468.998 124.476 465.983 122.752C465.697 124.168 465.422 125.594 465.141 127.015C468.567 128.869 471.993 130.727 475.418 132.586C475.939 132.871 475.386 133.493 474.864 133.213C471.563 131.437 468.268 129.667 464.967 127.89C464.723 129.152 464.474 130.408 464.224 131.669C467.231 133.349 470.17 135.122 473.03 136.98C473.528 137.305 472.967 137.936 472.464 137.611C469.726 135.851 466.916 134.177 464.046 132.576C463.868 133.482 463.703 134.384 463.519 135.284C463.48 135.464 463.153 135.433 463.168 135.245C463.254 134.249 463.36 133.251 463.479 132.254C461.816 131.335 460.138 130.436 458.43 129.576C458.286 129.502 458.14 129.438 457.996 129.369C457.636 130.423 457.306 131.491 456.933 132.544C456.902 132.651 456.679 132.6 456.71 132.493C456.994 131.388 457.302 130.28 457.598 129.177C456.225 128.502 454.83 127.861 453.42 127.234C453.308 127.553 453.208 127.873 453.09 128.186C452.987 128.427 452.516 128.321 452.558 128.063C452.605 127.695 452.698 127.321 452.765 126.95C451.258 126.285 449.75 125.626 448.249 124.963C447.682 126.336 447.072 127.688 446.287 128.905C446.164 129.096 445.73 129.053 445.785 128.791C446.074 127.355 446.591 125.924 447.189 124.502C446.004 123.968 444.825 123.431 443.656 122.867C443.612 122.973 443.574 123.09 443.53 123.195C442.89 124.934 442.427 126.85 441.39 128.438C441.237 128.674 440.735 128.617 440.777 128.301C440.999 126.552 441.856 124.86 442.487 123.204C443.187 121.331 443.888 119.452 444.599 117.585C444.781 117.1 445.674 117.411 445.492 117.896C444.945 119.371 444.397 120.851 443.85 122.326C445.111 122.694 446.353 123.118 447.578 123.582C448.188 122.23 448.835 120.887 449.422 119.564C448.102 118.81 446.804 118.038 445.556 117.213C445.296 117.042 445.517 116.662 445.826 116.791C447.177 117.38 448.496 118.018 449.808 118.676L449.816 118.661C449.973 118.273 450.695 118.523 450.537 118.916L450.491 119.042C451.752 119.689 452.999 120.356 454.243 121.043C454.504 120.135 454.758 119.232 455.005 118.339C455.118 117.894 455.245 117.445 455.365 117.001C453 115.772 450.621 114.552 448.231 113.315C447.961 113.174 448.204 112.817 448.485 112.922C450.911 113.837 453.291 114.873 455.63 115.994C456.012 114.579 456.393 113.17 456.774 111.755C454.33 110.67 451.861 109.629 449.441 108.488C449.048 108.307 449.242 107.829 449.686 107.953C452.185 108.665 454.645 109.616 457.058 110.698C457.2 110.177 457.348 109.651 457.483 109.124C455.659 108.004 453.863 106.849 452.192 105.609C451.917 105.399 452.206 105.089 452.519 105.24C456.093 106.968 459.492 109.056 462.85 111.175C463.369 109.497 463.888 107.824 464.413 106.146C463.073 105.354 461.71 104.595 460.288 103.898C458 102.778 455.524 101.968 453.264 100.825C453.054 100.717 453.198 100.391 453.44 100.444C457.322 101.297 461.201 103.296 464.635 105.414C464.989 104.306 465.336 103.198 465.683 102.09C464.095 101.127 462.477 100.198 460.815 99.3319C457.981 97.8659 454.823 96.7899 452.077 95.218C451.779 95.0424 452.055 94.7367 452.353 94.8017C455.399 95.5075 458.344 97.1175 461.032 98.5249C462.713 99.4033 464.333 100.359 465.919 101.343C466.275 100.214 466.624 99.0854 466.986 97.9578C465.085 96.9546 463.183 95.9566 461.295 94.9496C458.238 93.3165 454.754 91.809 452.076 89.7501C451.859 89.5837 452.023 89.26 452.322 89.3674C455.567 90.5164 458.548 92.483 461.493 94.093C463.409 95.1295 465.305 96.1847 467.213 97.2361C467.494 96.3256 467.78 95.421 468.059 94.5158C466.619 93.5433 465.141 92.6141 463.613 91.737C460.581 89.9962 457.191 88.7308 454.191 86.9832C453.87 86.7892 454.158 86.4321 454.491 86.5222C457.76 87.3951 461.014 89.3082 463.822 90.9553C465.36 91.8546 466.848 92.806 468.285 93.8097Z" fill="black"/>
<path d="M469.247 141.749C469.877 142.03 469.495 142.877 468.86 142.595C460.637 138.991 452.247 135.569 444.228 131.625C443.854 131.441 444.191 130.932 444.581 131.086C452.958 134.333 461.073 138.162 469.247 141.749Z" fill="black"/>
<path d="M80.5083 26.7229C80.5162 28.8551 80.4393 31.1777 79.7845 33.2144C79.7069 33.453 79.2049 33.3965 79.1822 33.1466C78.9905 31.0095 79.4371 28.7337 79.9185 26.6565C79.9849 26.3482 80.5057 26.4068 80.5083 26.7229Z" fill="black"/>
<path d="M76.8495 32.8736C76.4748 31.7421 76.8866 30.5096 77.0585 29.3765C77.2583 28.0517 77.4713 26.7232 77.7333 25.4107C77.7715 25.1835 78.1731 25.2287 78.1725 25.4601C78.1301 26.7973 78.0364 28.1392 77.9432 29.476C77.8642 30.6301 77.9944 31.9025 77.3703 32.9322C77.2522 33.1346 76.9259 33.098 76.8495 32.8736Z" fill="black"/>
<path d="M73.3904 31.4848C73.0738 30.4019 73.3831 29.2895 73.5366 28.2069C73.7071 26.9736 73.8907 25.7365 74.0555 24.4973C74.1085 24.0822 74.874 24.1683 74.8398 24.5855C74.7252 25.8303 74.6294 27.0773 74.5217 28.3177C74.4241 29.4118 74.4804 30.5496 73.93 31.5455C73.817 31.759 73.4531 31.7181 73.3904 31.4848Z" fill="black"/>
<path d="M70.8712 33.2065C70.7662 33.4052 70.3669 33.3971 70.3316 33.1458C70.1591 31.9108 70.5608 30.6561 70.8048 29.4468C71.0835 28.0415 71.3748 26.6376 71.6656 25.2389C71.7443 24.8215 72.5229 24.9038 72.4499 25.3271C72.2156 26.7322 71.9927 28.149 71.7522 29.5534C71.5447 30.7773 71.4795 32.0908 70.8712 33.2065Z" fill="black"/>
<path d="M22.725 55.2199C20.8409 72.1428 19.5736 89.2298 16.8624 106.049C16.8201 106.313 16.3495 106.26 16.3668 105.993C17.4655 88.9927 20.0189 72.0504 21.9407 55.1317C21.9881 54.7108 22.7724 54.799 22.725 55.2199Z" fill="black"/>
<path d="M436.407 125.857C436.254 126.029 435.854 125.916 435.906 125.68C436.426 123.028 438.338 120.433 439.597 117.996C439.827 117.532 440.708 117.837 440.478 118.3C439.237 120.75 438.317 123.73 436.407 125.857Z" fill="black"/>
<path d="M430.94 127.121C431.34 125.266 432.356 123.518 433.162 121.772C433.374 121.301 434.255 121.605 434.037 122.075C433.248 123.834 432.606 125.703 431.429 127.292C431.294 127.477 430.897 127.337 430.94 127.121Z" fill="black"/>
<path d="M426.449 127.789C426.289 127.856 426.101 127.724 426.116 127.584C426.204 126.746 426.901 126.035 427.224 125.251C427.67 124.164 427.816 123.033 427.712 121.869C427.67 121.338 428.649 121.222 428.697 121.759C428.805 122.939 428.701 124.091 428.307 125.22C427.989 126.131 427.54 127.354 426.449 127.789Z" fill="black"/>
<path d="M421.682 125.096C421.653 124.277 422.18 123.378 422.464 122.605C422.585 122.261 423.221 122.485 423.093 122.828C422.81 123.596 422.648 124.583 422.08 125.23C421.941 125.388 421.688 125.265 421.682 125.096Z" fill="black"/>
<path d="M415.553 125.917C415.742 124.407 416.552 122.914 417.1 121.486C417.278 121.038 418.109 121.331 417.931 121.78C417.384 123.202 416.987 124.81 416.098 126.099C415.946 126.324 415.528 126.146 415.553 125.917Z" fill="black"/>
<path d="M83.9122 124.588C83.7443 126.364 83.8308 128.363 83.2693 130.079C83.2015 130.287 82.7685 130.238 82.7423 130.019C82.5822 128.223 83.1043 126.292 83.335 124.524C83.3763 124.212 83.941 124.276 83.9122 124.588Z" fill="black"/>
<path d="M78.8551 127.014C78.7601 127.972 78.8637 129.141 78.4591 130.027C78.3661 130.233 78.0022 130.192 77.9571 129.971C77.7594 129.017 78.1201 127.9 78.2402 126.945C78.2896 126.619 78.8794 126.685 78.8551 127.014Z" fill="black"/>
<path d="M76.1376 124.793C75.5667 126.65 75.2606 128.862 74.2553 130.57C74.0983 130.837 73.6004 130.744 73.6229 130.431C73.7788 128.48 74.8421 126.426 75.4593 124.554C75.5841 124.178 76.2493 124.421 76.1376 124.793Z" fill="black"/>
<path d="M69.7535 120.996C69.813 120.524 70.692 120.618 70.6445 121.097C70.4912 122.516 70.3448 123.931 70.1915 125.35C70.0598 126.578 70.1031 127.888 69.586 129.04C69.485 129.26 69.0709 129.213 69.0276 128.977C68.7843 127.75 69.1067 126.465 69.2503 125.245C69.4225 123.827 69.5877 122.414 69.7535 120.996Z" fill="black"/>
<path d="M66.4501 115.626C66.068 119.193 66.1494 123.101 65.1138 126.548C65.0326 126.817 64.4616 126.753 64.4424 126.472C64.1981 122.882 65.1519 119.09 65.5654 115.526C65.6255 115.049 66.5039 115.147 66.4501 115.626Z" fill="black"/>
<path d="M61.3539 114.047C61.2219 116.237 61.09 118.428 60.958 120.618C60.8353 122.556 60.9758 124.64 60.3723 126.504C60.2941 126.748 59.8327 126.669 59.7888 126.438C59.4465 124.51 59.864 122.436 60.0043 120.51C60.1676 118.324 60.331 116.137 60.4943 113.951C60.5275 113.486 61.3808 113.582 61.3539 114.047Z" fill="black"/>
<path d="M56.9462 111.546C56.6019 116.133 56.7754 121.031 55.7683 125.523C55.6904 125.877 55.1165 125.839 55.0506 125.521L55.0249 125.523L55.0205 125.449L55.0229 125.428C54.7539 120.815 55.6664 116.034 56.049 111.446C56.0959 110.972 56.9806 111.071 56.9462 111.546Z" fill="black"/>
<path d="M49.9793 109.258C49.9237 111.504 49.8812 113.746 49.8318 115.993C49.7877 118.193 50.0108 120.56 49.4898 122.707C49.4286 122.968 48.9338 123.018 48.8736 122.706C48.4827 120.588 48.7905 118.36 48.8578 116.236C48.92 113.875 48.9885 111.515 49.057 109.154C49.0743 108.661 49.9841 108.764 49.9793 109.258Z" fill="black"/>
<path d="M17.7193 112.219C17.6067 112.206 17.6236 112.055 17.7363 112.068C17.8489 112.081 17.832 112.231 17.7193 112.219Z" fill="black"/>
<path d="M99.628 131.792C129.18 134.442 158.79 136.178 188.393 136.502C218.085 136.831 247.713 135.758 277.143 133.443C293.739 132.141 310.194 130.234 326.723 128.567C326.929 128.543 326.987 128.813 326.78 128.847C312.323 131.189 297.567 132.677 282.868 133.95C268.149 135.22 253.369 136.142 238.55 136.723C209.157 137.864 179.616 137.773 150.112 136.281C133.231 135.424 116.384 134.156 99.5707 132.302C99.1754 132.257 99.2315 131.758 99.628 131.792Z" fill="black"/>
<path d="M324.17 47.311C274.1 56.8886 222.299 61.6248 170.59 62.8927C156.159 63.2484 141.567 63.6177 127.087 62.9365C126.664 62.9204 126.624 62.3108 127.057 62.3016C140.084 62.1142 153.138 62.3719 166.155 62.1044C179.044 61.8385 191.904 61.3375 204.738 60.6023C230.414 59.1273 255.962 56.7011 281.297 53.4037C295.637 51.5432 309.896 49.3789 324.131 47.0961C324.293 47.0722 324.333 47.2819 324.17 47.311Z" fill="black"/>
<path d="M54.9917 19.5484C48.2098 18.9488 41.1686 17.8306 34.6856 19.8275C28.748 21.6647 25.0305 25.7935 24.9895 31.1303C24.9855 31.5614 24.2079 31.5265 24.1131 31.1265C22.8622 26.0916 27.7493 21.505 32.6952 19.5037C39.4049 16.7903 47.8693 17.8527 55.0274 19.2314C55.2635 19.279 55.237 19.5707 54.9917 19.5484Z" fill="black"/>
</svg>
