<svg width="1224" height="506" viewBox="0 0 1224 506" fill="none" xmlns="http://www.w3.org/2000/svg">
<g filter="url(#filter0_f_47_15)">
<rect width="313.78" height="1159.49" rx="36" transform="matrix(-0.00743189 0.999972 -0.999989 -0.00458882 1193.2 75.4507)" fill="#F9F9F9" fill-opacity="0.12"/>
</g>
<g filter="url(#filter1_f_47_15)">
<rect width="313.906" height="1159.49" rx="109" transform="matrix(-0.00743189 0.999972 -0.999989 -0.00458882 1193.2 84.5577)" fill="#F9F9F9" fill-opacity="0.12"/>
</g>
<path fill-rule="evenodd" clip-rule="evenodd" d="M309.943 36.6305C309.394 32.3895 308.207 29.2933 306.354 27.3493C305.921 28.5589 305.409 31.2671 304.816 35.4739C304.395 38.8552 303.575 41.5422 302.356 43.535C301.736 42.3706 301.238 39.447 300.862 34.7641C300.594 31.1234 299.028 28.3754 296.224 26.5126C295.878 27.4326 295.893 30.3932 296.271 35.4236C296.553 39.0642 295.207 41.839 292.232 43.748C291.333 39.7247 291.126 33.7024 291.61 25.6809C300.291 26.3536 308.109 27.2304 315.035 28.3043C315.233 32.4662 315.292 35.4123 315.214 37.1498C315.143 40.4363 314.632 43.3617 313.68 45.9259C311.738 43.982 310.507 40.8787 309.943 36.6305ZM453.732 72.8507C450.964 72.2909 448.136 71.5936 445.234 70.7517C444.596 71.6866 443.942 72.5419 443.273 73.3249C440.04 73.468 436.631 73.6042 433.091 73.7334C432.723 70.4838 432.785 65.5685 433.277 58.9804C433.333 53.0806 432.035 48.2546 429.396 44.4877C423.938 41.5944 416.088 40.2833 405.833 40.5689C404.589 40.5927 403.199 40.6531 401.693 40.7353C397.84 39.895 393.477 39.3452 388.603 39.1003C385.544 38.9173 381.739 38.7719 377.232 38.6639C376.966 38.1794 376.803 37.7598 376.757 37.4269C376.307 35.3936 377.528 33.7917 380.404 32.614C396.678 24.8258 417.035 20.0274 441.476 18.2043C443.362 18.0635 445.249 17.9444 447.136 17.8398C438.644 25.0282 434.202 29.0752 433.783 29.988C441.678 31.5741 447.436 33.077 451.043 34.5041C454.987 36.1043 456.972 37.8743 456.982 39.8288C457.007 44.5268 455.603 50.1465 452.798 56.6663C453.149 56.6657 453.471 56.6869 453.779 56.737C455.009 56.9014 456.285 57.4421 457.606 58.3519C458.84 59.175 459.925 59.5785 460.89 59.5768C469.45 59.562 477.014 59.3969 483.582 59.0815C490.618 58.7435 496.498 58.2411 501.264 57.5596C507.39 56.7238 515.618 54.7623 525.946 51.6679L536.51 48.689C537.722 48.3828 538.935 48.0622 540.192 47.7415L540.192 47.7053C563.703 41.613 592.541 35.9095 626.694 30.595C627.25 33.3737 628.231 36.2893 629.622 39.3272C630.542 36.2491 631.023 33.1211 631.094 29.9359C635.992 29.1963 641.022 28.4637 646.139 27.7309C661.74 25.5757 675.952 20.8676 688.732 13.6139C707.698 11.489 722.338 10.2693 732.696 9.96901C712.925 17.6692 697.928 23.3487 687.69 27.0075C669.756 33.4594 653.068 37.5999 637.656 39.4508C610.669 41.2711 591.686 42.9689 580.75 44.5514C559.974 47.6204 543.567 52.3758 531.515 58.8103C521.099 64.8003 505.874 68.7791 485.809 70.7176C477.926 71.4986 467.234 72.212 453.732 72.8507ZM306.279 88.3148C320.437 87.1248 337.707 85.1839 358.06 82.5065C379.891 79.6383 401.91 76.4151 424.146 72.8368C423.359 70.6882 422.907 68.1554 422.789 65.2384C422.75 63.3636 422.683 61.6988 422.573 60.2295C425.026 59.219 427.361 58.1581 429.594 57.0322C430.407 64.2697 430.871 68.9234 430.984 71.008C431.261 76.2484 430.978 80.9107 430.136 84.9877C382.553 90.615 341.501 94.3055 306.978 96.0519C306.688 93.6564 306.455 91.0797 306.279 88.3148ZM278.166 42.7951L272.898 42.8042C273.216 36.3539 272.632 31.0488 271.103 26.8819C270.057 28.317 269.423 30.287 269.159 32.8066C268.827 36.4483 268.632 38.4393 268.532 38.787C267.341 43.3423 262.439 46.0363 253.854 46.8692C253.552 39.5006 253.56 32.6092 253.877 26.2023C268.427 24.5267 276.971 24.3381 279.524 25.6367C282.229 25.2411 284.953 25.7142 287.682 27.0559C290.41 28.4338 290.289 33.1754 287.361 41.288L282.622 41.6219C282.437 39.8053 282.247 37.0911 282.053 33.5009C281.6 30.7654 280.665 28.3855 279.265 26.3538C277.969 30.3374 277.602 35.8178 278.166 42.7951ZM283.534 89.7223C289.561 89.5382 296.612 89.1206 304.7 88.4551C304.7 91.2927 304.641 93.935 304.478 96.382L285.681 97.3845C284.762 95.0045 284.046 92.4505 283.534 89.7223ZM249.982 58.9068C250.944 58.203 251.6 57.7458 251.935 57.5353C256.224 55.016 260.065 53.7498 263.489 53.7439C269.62 53.7333 273.837 54.3557 276.126 55.6113C278.239 56.7297 285.469 57.1081 297.831 56.7392L332.802 56.6786C334.149 56.8935 335.364 57.1013 336.419 57.2949C336.915 59.777 337.172 61.3908 337.176 62.1364C337.207 67.9853 331.733 70.5284 320.77 69.7656C318.487 69.6826 311.492 69.6079 299.728 69.5414C290.173 69.5145 282.592 69.2453 276.985 68.7411C262.098 67.5001 253.082 64.2148 249.982 58.9068ZM272.692 89.7411C271.786 92.7251 270.296 95.9779 268.192 99.4996C267.431 96.504 266.872 93.1607 266.501 89.455C268.565 89.589 270.628 89.6795 272.692 89.7411ZM281.559 89.7547C281.582 94.2427 281.993 97.1955 282.791 98.6346L275.555 97.279C275.161 94.6448 274.855 92.1479 274.667 89.7666C275.779 89.7937 276.906 89.799 278.003 89.7971C279.145 89.7951 280.33 89.7858 281.559 89.7547ZM257.499 88.7612C259.153 88.9248 260.822 89.074 262.49 89.2086C261.811 93.5531 261.346 96.9199 261.095 99.3164C259.09 96.3954 257.886 92.8722 257.499 88.7612ZM248.684 87.6689C250.222 87.8834 251.715 88.0835 253.224 88.2836C253.129 92.5547 252.329 96.2551 250.853 99.3993C249.899 96.0494 249.191 92.1417 248.684 87.6689ZM224.507 106.206C221.937 107.151 219.775 107.828 218.022 108.23C213.374 109.28 207.449 109.377 200.275 108.528C197.127 108.157 191.446 107.45 183.232 106.408C197.001 106.507 210.755 106.432 224.507 106.206ZM1130.77 416.196L1127.22 416.274C1127.86 420.732 1128.42 427.464 1128.91 436.482C1129.39 445.45 1130 452.189 1130.72 456.697C1131.82 451.708 1132.07 444.968 1131.41 436.478C1130.65 426.555 1130.44 419.794 1130.77 416.196ZM1062.96 426.527C1064.12 423.42 1064.98 419.278 1065.53 414.101C1065.94 412.573 1066.5 411.146 1067.22 409.805C1067.3 410.182 1067.4 410.572 1067.49 410.978C1068.84 416.39 1069.39 420.508 1069.14 423.324C1068.48 432.729 1059.84 437.905 1043.17 438.846C1043.43 433.858 1044.22 429.499 1045.62 425.768C1047.11 428.372 1048.62 431.829 1050.14 436.163L1054.56 427.447L1060.77 432.959L1063.37 426.584C1063.24 426.563 1063.11 426.541 1062.96 426.527ZM1069.24 406.747C1071.2 404.391 1073.8 402.396 1077.04 400.754L1082.17 400.709C1084.21 403.572 1085.98 406.103 1087.47 408.279C1087.62 412.615 1087.57 417.711 1087.28 423.553L1089.26 423.485C1088.96 416.985 1088.81 413.105 1088.8 411.853C1088.8 411.339 1088.8 410.825 1088.79 410.325C1090.03 412.198 1091.01 413.767 1091.7 415.033C1095.51 421.527 1097.43 427.003 1097.45 431.47C1097.49 439.049 1090.78 446.364 1077.31 453.409C1068.85 457.868 1058.98 461.621 1047.71 464.673C1031.5 464.586 1014.16 463.892 995.701 462.584C979.923 461.569 971.701 456.343 971.037 446.897C970.942 445.551 971.213 441.453 971.894 434.611C972.1 432.012 972.088 429.747 971.859 427.822C972.209 427.669 972.559 427.516 972.895 427.364C973.202 427.226 973.523 427.095 973.829 426.971C975.026 429.126 975.611 431.782 975.569 434.931C975.525 440.606 976.541 444.571 978.66 446.819C979.611 444.088 979.986 440.208 979.784 435.177C979.687 430.66 979.844 427.192 980.256 424.781C980.577 424.694 980.899 424.621 981.235 424.555C982.578 426.71 983.398 429.575 983.724 433.165C984.085 437.884 984.732 441.133 985.604 442.905C988.05 440.519 988.999 437.376 988.452 433.475C987.542 427.411 987.13 424.161 987.215 423.727L992.888 425.606C992.981 429.457 993.099 432.345 993.182 434.249C993.39 437.629 993.873 440.488 994.676 442.824C996.419 440.44 997.28 437.166 997.258 433.004C997.143 427.937 997.345 424.621 997.864 423.064C1000.86 424.963 1002.35 428.008 1002.37 432.213C1002.5 436.853 1003.48 440.058 1005.32 441.836C1006.36 439.315 1006.87 436.375 1006.86 432.987C1006.85 432.206 1006.66 429.245 1006.28 424.085L1012.08 424.465C1012.01 428.143 1012.11 430.901 1012.37 432.717C1012.74 435.836 1014.07 438.455 1016.36 440.579C1016.62 438.631 1016.73 435.728 1016.71 431.863C1016.69 428.309 1016.83 425.579 1017.12 423.675C1017.47 423.689 1017.83 423.695 1018.19 423.709C1020.88 425.406 1022.27 427.951 1022.37 431.339C1022.4 435.972 1022.98 438.982 1024.12 440.37C1025.07 438.37 1025.63 435.554 1025.78 431.912C1025.93 428.329 1026.26 425.657 1026.8 423.883C1027.04 423.889 1027.29 423.903 1027.53 423.917C1029.73 425.839 1031.18 428.378 1031.84 431.511C1033.08 437.191 1033.73 440.049 1033.73 440.093C1029.7 441.055 1024.26 441.774 1017.43 442.264C1013.56 442.538 1007.79 442.91 1000.08 443.401C986.315 444.504 977.522 447.429 973.684 452.155L977.772 453.256C982.929 448.867 993.478 446.077 1009.42 444.876C1018.27 444.347 1024.88 443.88 1029.27 443.481C1036.71 442.817 1042.77 441.858 1047.4 440.59C1063.97 439.345 1072.22 434.047 1072.17 424.687C1072.16 422.733 1071.48 418.615 1070.13 412.341C1069.7 410.272 1069.4 408.412 1069.24 406.747ZM1202.8 412.893L1207.28 412.951C1206.51 398.945 1203.93 340.148 1199.52 236.539C1196.51 165.257 1193.13 106.519 1189.39 60.335C1186.94 62.0259 1185.77 64.3516 1185.87 67.2904C1186.33 70.5905 1186.52 73.0369 1186.44 74.6441C1188.87 119.702 1191.65 176.08 1194.82 243.765C1200.15 355.907 1202.8 412.278 1202.8 412.893ZM1163.94 446.824L1168.01 446.752C1167.81 442.199 1167.38 435.417 1166.72 426.406C1166.15 418.35 1166.11 411.567 1166.61 406.065C1171.11 410.168 1172.86 416.731 1171.85 425.745C1170.76 434.984 1172.11 441.547 1175.91 445.435C1176.49 442.357 1176.37 436.183 1175.53 426.911C1174.8 419.203 1175.55 413.085 1177.8 408.579C1179.67 412.043 1180.4 417.782 1180 425.796C1179.6 433.34 1180.82 439.013 1183.65 442.823C1185.63 439.135 1186.31 433.806 1185.67 426.829C1185 419.504 1185.33 414.198 1186.63 410.902C1189.1 413.93 1190.31 418.612 1190.25 424.939C1190.2 431.309 1191.32 435.983 1193.62 438.976C1183.73 444.097 1172.28 448.149 1159.23 451.117C1159.21 447.693 1158.69 440.115 1157.66 428.368C1156.73 418.967 1156.65 411.388 1157.41 405.617C1161.3 410.685 1163.2 417.464 1163.18 425.963C1163.24 437.834 1163.48 444.783 1163.94 446.824ZM1110.5 461.314C1113.23 452.464 1118.03 437.732 1124.85 417.118C1125.85 414.134 1126.8 411.215 1127.7 408.376C1128.26 410.33 1128.88 412.138 1129.58 413.795C1130.09 411.065 1130.14 407.51 1129.78 403.131L1135.83 403.512C1136.53 420.196 1137.43 432.696 1138.53 441.019C1139.47 436.985 1139.61 430.723 1138.96 422.226C1138.3 413.953 1138.57 407.67 1139.78 403.375C1144.36 408.789 1146.37 416.885 1145.82 427.68C1145.28 439.596 1146.23 447.911 1148.71 452.634C1149.47 446.263 1149.56 438.184 1148.98 428.383C1148.11 413.611 1147.68 405.511 1147.67 404.078L1153.46 405.762C1153.38 423.96 1154.25 439.406 1156.07 452.1C1142.37 456.149 1127.17 459.222 1110.5 461.314ZM659.828 454.907C660.326 454.942 660.809 454.977 661.262 455.005C661.848 455.055 662.419 455.105 662.99 455.169C661.936 455.077 660.882 454.992 659.828 454.907ZM528.787 491.574C506.633 494.269 487.088 494.751 470.135 493.007C479.675 490.218 491.377 486.817 505.198 482.805C511.947 480.708 517.994 478.787 523.311 477.055C525.365 478.108 526.894 479.495 527.942 481.202C528.828 482.634 529.319 484.233 529.416 486.013C529.336 487.577 529.297 488.438 529.298 488.612C529.303 489.64 529.133 490.625 528.787 491.574ZM686.541 459.544C687.09 463.705 688.786 469.16 691.617 475.917C692.34 463.218 692.078 452.368 690.787 443.35C687.225 447.693 685.805 453.088 686.541 459.544ZM621.164 492.615C621.556 480.946 623.977 471.126 628.442 463.155C629.312 461.583 630.269 460.083 631.315 458.633C642.656 458.845 654.103 459.665 665.64 461.071C665.862 469.83 666.545 482.96 667.691 500.461C656.696 499.214 641.201 496.598 621.164 492.615ZM709.386 438.15C712.157 439.252 714.243 440.668 715.642 442.403C716.791 443.957 717.415 445.686 717.513 447.597C717.258 449.24 717.131 450.153 717.132 450.327C717.179 459.346 715.759 467.557 712.857 474.968C708.789 474.779 704.955 474.685 701.355 474.662C701.264 474.01 701.234 468.364 701.266 457.701C701.318 450.853 700.352 445.238 698.412 440.869C697.201 444.338 697.058 450.448 697.981 459.198C698.9 467 698.011 473.068 695.312 477.409C697.359 482.689 698.389 486.676 698.403 489.362C698.517 494.168 695.08 497.366 688.065 498.935L685.014 491.984C689.048 493.88 691.949 494.657 693.689 494.307C695.194 494 695.35 493.073 694.215 491.519C693.066 489.957 691.084 488.658 688.269 487.627C684.926 486.374 681.383 485.967 677.611 486.408C676.42 477 675.771 470.442 675.663 466.715C675.361 459.346 676.073 452.823 677.799 447.144C678.78 450.089 679.363 455.177 679.591 462.415C679.801 468.915 680.779 473.988 682.554 477.619C685.391 466.307 684.676 455.479 680.422 445.12C688.439 442.052 698.084 439.726 709.386 438.15ZM819.708 426.485C823.068 425.372 826.222 424.129 829.156 422.763C830.43 431.302 831.405 441.572 832.083 453.573C832.565 464.525 832.977 473.29 833.333 479.862C830.889 476.964 829.437 473.535 829.007 469.569C828.977 463.887 827.261 454.841 823.86 442.403C821.92 435.277 820.531 429.973 819.708 426.485ZM848.212 409.931C848.768 409.93 849.28 409.929 849.792 409.929C851.287 413.176 851.737 418.069 851.113 424.614C850.463 431.81 852.452 437.178 857.124 440.724C858.337 437.602 858.218 431.775 856.769 423.243C855.981 418.214 856.164 414 857.361 410.596C858.518 410.818 859.675 411.084 860.847 411.401C861.228 414.267 861.393 417.835 861.372 422.128C861.306 429.019 862.226 434.28 864.089 437.918C866.249 434.186 866.835 428.785 865.833 421.729C865.39 418.342 865.17 415.382 865.186 412.855C866.711 413.425 868.236 414.081 869.747 414.831C870.202 415.055 870.627 415.278 871.067 415.509C871.207 416.957 871.215 418.498 871.092 420.156C870.514 427.179 871.682 432.201 874.58 435.236C875.088 431.543 875.194 426.671 874.898 420.606C874.849 419.571 874.8 418.579 874.751 417.645C878.832 420.215 882.492 423.257 885.715 426.762C887.584 428.829 889.145 430.831 890.414 432.769C880.87 434.798 871.312 437.08 861.713 439.609C862.973 442.813 864.301 447.712 865.74 454.297C866.171 452.645 866.567 450.133 866.886 446.752C867.397 443.718 868.481 441.24 870.139 439.334C870.762 440.983 871.598 444.123 872.691 448.754C872.766 449.102 872.826 449.427 872.828 449.731C872.753 452.33 873.69 455.152 875.623 458.174C874.646 456.098 873.71 453.284 872.828 449.731C873.158 445.706 876.022 442.205 881.435 439.249C884.265 437.688 887.725 436.306 891.816 435.105C896.027 442.872 895.272 449.598 889.552 455.291C889.83 455.377 890.123 455.463 890.402 455.55C888.355 455.763 886.22 456.071 884.042 456.473L884.398 451.919C884.225 452.267 884.021 452.593 883.745 452.897C883.831 452.637 883.959 451.92 884.129 450.754C884.313 449.581 884.2 447.634 883.849 444.906L883.837 442.56L882.111 442.628C882.111 442.672 882.17 442.715 882.243 442.766C881.381 443.064 881.097 447.393 881.404 455.768C879.657 457.371 877.469 458.714 874.856 459.804C870.038 461.76 864.819 462.681 859.214 462.56C852.907 462.397 847.193 460.931 842.086 458.167C839.52 451.548 838.203 443.204 838.15 433.149C838.123 428.002 838.157 420.532 838.223 410.723C838.808 410.643 839.407 410.562 840.007 410.496C842.813 415.486 844.163 421.817 844.043 429.505C843.864 442.89 843.904 450.368 844.16 451.931C848.89 449.881 852.306 448.297 854.407 447.164C858.157 445.203 860.078 443.188 860.155 441.11C857.437 441.889 853.45 443.156 848.206 444.902C848.801 441.216 848.725 435.064 847.977 426.436C847.414 419.633 847.503 414.131 848.212 409.931ZM899.958 458.523L900.016 458.523C900.875 460.468 901.708 463.03 902.5 466.192C903.648 470.308 904.408 472.906 904.765 473.984C905.984 472.034 906.937 469.716 907.626 467.03C907.911 465.69 908.253 463.829 908.65 461.439C909.691 461.821 910.556 462.146 911.215 462.405C913.5 465.543 913.355 468.706 910.812 471.896C907.671 475.76 901.951 478.607 893.62 480.446C879.449 484.546 863.76 486.752 846.584 487.086C845.779 487.101 844.945 487.125 844.097 487.126C839.947 485.49 836.644 483.396 834.202 480.838C834.466 478.29 834.538 475.155 834.401 471.449C834.195 465.6 834.406 461.278 834.992 458.505C841.137 461.231 844.1 465.489 843.882 471.295C843.548 474.546 843.283 476.979 843.13 478.586C842.867 481.482 843.158 483.841 843.957 485.664C844.541 482.587 844.829 478.815 844.805 474.356C844.792 471.836 844.728 468.087 844.629 463.107L851.47 464.651C851.415 470.768 851.373 474.076 851.376 474.605C851.586 478.412 852.306 481.726 853.535 484.54C854.399 481.817 854.748 478.537 854.552 474.722C854.438 472.515 854.216 469.221 853.842 464.85L859.618 464.253C859.554 468.843 859.602 472.289 859.804 474.59C860.001 478.571 861.101 481.928 863.149 484.654C863.836 481.75 864.082 478.347 863.871 474.446C863.684 472.195 863.315 468.815 862.779 464.306L868.69 464.296C868.1 468.893 867.679 472.361 867.428 474.7C867.099 478.863 868.915 482.067 872.878 484.318C873.301 481.234 873.193 477.441 872.54 472.939C872.19 470.428 871.644 466.658 870.915 461.635L876.836 463.507C876.927 464.028 876.944 467.408 876.889 473.648C876.823 477.76 878.157 480.986 880.891 483.327C881.145 481.546 881.212 477.622 881.092 471.556C880.979 466.707 881.529 462.804 882.743 459.856C884.598 462.111 885.714 465.569 886.09 470.252C886.539 475.014 887.611 478.509 889.291 480.714C889.979 478.107 890.355 474.45 890.418 469.723C890.464 464.605 890.723 460.949 891.15 458.734C892.653 460.678 893.533 463.891 893.835 468.356C894.032 472.598 895.088 475.781 897.031 477.899C897.635 475.907 898.057 472.656 898.296 468.146C898.45 463.991 899.004 460.783 899.958 458.523ZM78.0159 440.77L81.7039 440.902C80.7868 416.754 78.6895 368.533 75.412 296.208C72.7249 235.979 70.7594 187.771 69.5302 151.587L65.7113 151.593C69.3849 215.766 73.4767 312.159 78.0159 440.77ZM990.856 39.3894C986.663 37.7824 982.353 36.1756 977.94 34.569C976.665 34.1152 975.463 33.6684 974.305 33.2433C1035.26 35.0706 1095.04 40.0342 1153.68 48.1053C1153.65 56.126 1154.22 67.3959 1155.44 81.9076C1156.84 97.6786 1157.6 108.963 1157.73 115.767C1158.56 107.491 1158.5 96.3365 1157.55 82.2948C1156.5 65.7849 1156.04 54.6017 1156.19 48.7525C1172.6 52.4086 1181.68 54.5356 1183.44 55.1479C1193.18 58.3305 1197.42 62.3769 1196.13 67.2726C1197.1 101.293 1199.51 159.837 1203.36 242.903C1206.82 317.609 1208.98 376.153 1209.81 418.527C1205.41 416.327 1202.39 414.581 1200.71 413.288C1197.98 411.121 1196.83 408.951 1197.26 406.793C1196.17 365.056 1193.84 308.699 1190.32 237.728C1186.2 155.097 1183.59 98.7398 1182.47 68.6644C1182.45 64.1981 1181.18 60.1538 1178.72 56.5169C1180.18 99.7664 1182.81 158.758 1186.61 233.507C1191.01 318.744 1193.85 377.735 1195.17 410.496C1177.19 405.757 1155.5 402.428 1130.09 400.503C1131.33 396.541 1132.44 392.732 1133.45 389.053C1139.18 368.47 1142 352.525 1141.94 341.233C1141.85 323.983 1143.38 297.913 1146.53 263.024C1148.11 245.554 1149.69 228.583 1151.25 212.12C1150.94 151.669 1116.63 102.736 1048.32 65.3207C1032.47 56.6543 1013.3 48.0154 990.856 39.3894ZM461.057 491.821C462.625 492.347 463.93 492.917 465.016 493.537C462.766 494.062 460.486 494.522 458.19 494.91C458.391 494.019 459.351 492.982 461.057 491.821ZM46.1019 148.312C47.7299 174.094 48.5237 191.487 48.4687 200.507C49.9933 220.527 51.781 262.748 53.8758 327.192C55.5566 379.706 58.4558 421.824 62.5586 453.545C62.4292 412.24 60.756 358.401 57.5097 292.019C53.3003 206.652 50.8518 152.835 50.2079 130.562C49.7568 128.261 49.3754 122.5 49.0781 113.271C48.8651 106.163 47.6353 100.468 45.4326 96.179C44.5351 109.138 44.7582 126.518 46.1019 148.312ZM37.833 250.9C36.6624 211.943 35.9803 190.756 35.7867 187.333C41.6829 226.195 43.8372 268.574 42.235 314.471C40.0547 297.746 38.5824 276.553 37.833 250.9ZM60.9409 271.144C64.7984 353.602 67.0345 411.537 67.6492 444.951C67.5806 448.592 68.8585 452.318 71.5123 456.128C68.9396 348.093 63.6139 228.538 55.5647 97.4645C55.6095 139.37 57.4064 197.256 60.9409 271.144ZM64.385 99.7222C63.6311 106.615 63.6754 115.026 64.5177 124.942C65.718 136.167 66.5084 144.57 66.889 150.158C67.4461 139.241 67.6212 130.807 67.4144 124.872C67.1896 115.512 66.1798 107.132 64.385 99.7222ZM47.1114 89.8711C37.9848 87.8094 31.34 84.672 27.2064 80.4806C22.5289 75.8052 23.4284 71.5617 29.9048 67.7356C45.1068 59.2616 68.077 53.3222 98.8448 49.9318C106.2 49.1011 119.334 47.9491 138.274 46.4902C155.006 45.1583 167.788 43.92 176.649 42.7826C181.619 36.2736 191.969 31.7459 207.744 29.2067C216.94 27.7575 231.347 26.7625 250.98 26.2073C251.806 33.0538 252.106 39.894 251.878 46.7423C243.055 52.1795 239.675 60.6113 241.755 72.0523C243.294 78.2823 244.27 82.9641 244.725 86.0832C245.182 89.4919 245.198 92.5395 244.774 95.2475C244.414 93.5977 243.25 92.1375 241.268 90.8669C238.063 93.5725 233.642 95.9255 228.02 97.9477L228.016 97.2672C228.015 97.05 228.014 96.8329 228.013 96.6157C228.039 96.1669 228.066 95.7253 228.064 95.2765C226.419 96.8429 224.888 97.9531 223.487 98.5998C221.4 99.6023 218.944 99.9975 216.133 99.7852C205.35 99.8545 195.488 99.9078 186.548 99.9378C159.055 100.007 140.252 99.8514 130.125 99.4781C97.7825 98.3252 70.0966 95.1229 47.1114 89.8711ZM968.716 456.225C968.951 456.536 969.187 456.839 969.437 457.136L969.379 457.107C969.158 456.832 968.937 456.55 968.716 456.261L968.716 456.225ZM1168.7 377.916L1170.41 377.776C1169.73 348.612 1168.37 314.382 1166.32 275.079C1165.15 252.286 1163.25 218.078 1160.66 172.449C1160.44 197.496 1161.57 231.748 1164.08 275.213C1166.8 324.439 1168.34 358.669 1168.7 377.916ZM1180.32 386.214C1179.33 364.586 1177.97 332.194 1176.25 289.04C1174.58 251.031 1172.64 218.67 1170.49 191.933C1171.49 231.883 1172.57 264.26 1173.77 289.044C1175.34 324.656 1177.53 357.053 1180.32 386.214ZM1177.83 213.695C1180.71 277.008 1183.92 330.628 1187.49 374.561C1184.39 285.775 1182.44 232.103 1181.65 213.558C1178.87 152.677 1175.26 99.08 1170.8 52.7592C1173.81 124.259 1176.15 177.902 1177.83 213.695ZM1168.11 114.127C1167.42 100.476 1166.21 80.0068 1164.49 52.705C1163.52 68.871 1163.82 89.3274 1165.34 114.067C1167.74 152.762 1168.99 173.231 1169.09 175.489C1169.6 158.151 1169.28 137.702 1168.11 114.127ZM163.698 106.376C158.857 109.498 152.541 113.28 144.692 117.724C144.648 117.738 144.59 117.76 144.561 117.782C131.111 125.522 121.66 131.322 116.252 135.189C106.821 142.01 100.885 148.499 98.4738 154.657C97.1745 157.996 94.6832 168.402 91.0147 185.869C86.976 205.29 84.9957 218.258 85.0299 224.759C86.7831 240.956 88.5243 257.639 90.2826 274.799C93.7993 309.156 95.6026 334.872 95.6924 351.948C95.909 393.115 113.484 424.118 148.388 444.941C153.129 447.792 165.129 453.664 184.373 462.556C189.683 465.001 193.704 467.31 196.452 469.492C186.192 468.966 175.961 468.354 165.73 467.663C145.297 466.525 127.981 465.173 113.765 463.598C95.1714 461.545 78.6812 458.758 64.2794 455.228C54.7141 453.204 47.607 451.182 42.9433 449.156C35.8309 446.135 32.6081 442.63 33.2895 438.64C33.0102 402.236 30.9168 343.606 26.9799 262.755C23.3316 186.703 21.5748 128.1 21.7094 86.9254C25.6985 127.615 28.955 187.605 31.4791 266.902C34.1764 348.544 37.2585 408.751 40.6961 447.531C44.301 431.882 45.3317 410.844 43.788 384.41C41.9458 351.303 41.3219 330.044 41.8724 320.647C44.8404 334.12 46.4474 355.892 46.6933 385.969C46.8428 414.388 48.9761 436.079 53.0785 451.02C52.9267 405.474 51.2803 348.384 48.11 279.751C42.8686 167.862 40.198 110.774 40.0981 108.48C40.3439 105.135 40.3307 102.63 40.0584 100.937C39.6195 98.1653 38.3631 95.7425 36.3476 93.6612C34.8182 103.328 34.9439 118.884 36.7247 140.336C38.3238 160.61 37.9664 176.109 35.6523 186.812C34.5347 174.638 33.5292 158.714 32.6356 139.041C31.5377 113.909 30.7955 97.9779 30.409 91.2682C66.8045 100.71 111.239 105.743 163.698 106.376Z" fill="#9E8960"/>
<path fill-rule="evenodd" clip-rule="evenodd" d="M962.129 400.478C978.98 399.877 996.096 399.5 1013.47 399.354C1017.33 400.382 1020.93 401.657 1024.24 403.163C1032.22 406.789 1036.21 409.922 1036.22 412.563C1036.24 416.376 1035.38 419.634 1033.65 422.35C1010.8 420.205 986.325 420.196 960.215 422.318C960.055 422.326 959.909 422.341 959.748 422.348C951.732 418.65 947.716 415.22 947.699 412.073C947.686 409.641 950.997 406.539 957.617 402.765C959.086 401.923 960.585 401.161 962.129 400.478ZM973.489 426.81C973.183 426.934 972.863 427.065 972.557 427.203C972.177 427.08 971.783 426.965 971.388 426.843C971.176 425.432 970.82 424.217 970.318 423.205C971.637 424.194 972.694 425.394 973.489 426.81ZM980.875 424.395C980.54 424.461 980.219 424.534 979.898 424.621C979.969 424.173 980.054 423.76 980.155 423.384C980.39 423.702 980.64 424.034 980.875 424.395ZM1026.31 423.723C1026.34 423.564 1026.38 423.398 1026.44 423.238C1026.65 423.397 1026.85 423.578 1027.04 423.758C1026.81 423.744 1026.56 423.73 1026.31 423.723ZM1017.73 423.55C1017.37 423.536 1017.02 423.53 1016.67 423.516C1016.69 423.335 1016.71 423.161 1016.74 422.995C1017.07 423.168 1017.41 423.348 1017.73 423.55ZM1132.69 388.909C1131.67 392.587 1130.57 396.395 1129.33 400.355C1127.98 400.263 1126.6 400.164 1125.2 400.065C1113.57 399.268 1089.4 398.376 1052.68 397.398C1045.79 397.272 1038.9 397.205 1032.01 397.209L1007.48 397.15C1007.1 397.151 1006.74 397.152 1006.37 397.152C1005.15 397.154 1003.92 397.157 1002.71 397.159C1002.78 397.173 1002.87 397.18 1002.97 397.194C991.794 397.315 980.602 397.537 969.397 397.868C969.834 397.744 970.3 397.627 970.767 397.503C869.268 399.264 780.541 406.986 704.599 420.677C677.351 425.623 651.493 431.405 627.056 438.032C617.774 440.559 608.39 443.195 598.904 445.946C578.639 449.57 560.91 452.437 545.7 454.547C484.192 463.011 421.588 468.344 357.858 470.531C312.191 472.122 266.88 472.063 221.925 470.375C239.971 469.331 256.368 468.347 271.16 467.432C400.251 459.539 506.852 448.616 590.979 434.65C591.417 434.563 603.06 431.489 625.939 425.43C649.605 419.101 674.413 413.624 700.349 408.992C785.506 393.895 889.119 386.249 1011.17 386.037C1015.02 386.031 1035.43 386.509 1072.43 387.487C1103.69 388.315 1123.78 388.787 1132.69 388.909ZM769.78 483.493C770.933 483.643 772.101 483.807 773.27 483.979C772.686 483.9 772.116 483.829 771.561 483.75C770.962 483.664 770.364 483.578 769.78 483.493ZM741.1 477.009C740.828 475.258 740.687 473.391 740.676 471.431C740.631 462.719 742.161 454.033 745.253 445.367C746.677 441.421 748.337 437.981 750.248 435.055C751.955 434.972 753.72 434.897 755.558 434.821C772.526 434.141 785.494 433.185 794.491 431.961C800.543 431.133 806.156 430.074 811.329 428.777C815.295 430.89 818.184 433.519 819.966 436.656C821.646 439.685 822.174 443.063 821.595 446.791C820.736 449.954 820.307 451.619 820.308 451.8C820.371 463.796 816.267 474.158 808.009 482.877C807.327 483.594 806.631 484.304 805.919 484.993C803.466 484.744 800.97 484.473 798.443 484.188C787.682 482.999 771.546 480.943 750.021 478.035C746.969 477.664 744.005 477.329 741.1 477.009ZM501.126 20.1665C504.222 20.617 507.304 21.1182 510.386 21.6772C519.048 23.3915 528.448 23.6792 538.584 22.5401C544.519 21.8786 553.47 20.1989 565.437 17.4865C567.244 17.0854 568.993 16.6989 570.684 16.3414C568.545 20.2596 564.588 25.2591 558.826 31.3398C553.253 37.1886 547.314 42.6473 541.007 47.7087L541.007 47.7449C539.754 48.0655 538.544 48.3859 537.335 48.6919L526.8 51.6695C516.499 54.7625 508.293 56.7231 502.183 57.5586C497.43 58.2397 491.566 58.7419 484.549 59.0797C484.411 57.8788 484.331 56.5765 484.324 55.1873C484.261 43.2558 489.862 31.5822 501.126 20.1665ZM504.388 18.8584L547.347 18.4295C534.332 21.5344 520.017 21.6822 504.388 18.8584ZM665.935 50.2275C726.654 41.5192 789.14 36.0132 853.38 33.6878C894.057 32.2137 934.26 32.0717 973.958 33.2547C975.114 33.6796 976.312 34.1262 977.584 34.5798C981.985 36.1858 986.284 37.7919 990.466 39.3982C990.353 40.1147 990.18 40.4478 989.946 40.4048C989.756 40.3617 989.594 40.0581 989.401 39.4941C981.017 40.811 963.496 41.6445 936.836 41.9873C932.809 42.045 917.122 42.0866 889.746 42.134C831.872 42.2342 767.431 48.0909 696.411 59.6896C676.494 62.9729 652.701 67.3049 625.003 72.6783C601.168 77.3142 586.706 79.9585 581.646 80.6113C559.102 83.7327 537.917 87.1846 518.09 90.996C490.231 96.2828 475.289 99.1017 473.277 99.4524C437.731 105.447 378.397 111.071 295.274 116.33C220.904 118.138 171.335 118.593 146.566 117.695C154.394 113.253 160.693 109.472 165.521 106.353C171.869 106.429 178.334 106.432 184.93 106.384L185.003 106.384C193.195 107.426 198.86 108.133 202 108.504C209.155 109.352 215.064 109.255 219.699 108.205C221.448 107.804 223.604 107.128 226.168 106.183C276.348 105.387 326.547 102.456 376.749 97.4127C439.669 91.0666 500.938 81.5542 560.6 68.897C573.602 66.1322 586.693 63.5264 599.901 61.094C625.183 56.897 647.199 53.2772 665.935 50.2275Z" fill="#9E8960"/>
<path fill-rule="evenodd" clip-rule="evenodd" d="M782.033 10.1712C789.397 10.8886 794.554 11.0965 797.532 10.7877C801.736 10.354 803.641 8.91932 803.278 6.49826C807.067 10.3447 806.819 13.2006 802.549 15.0658C798.79 16.7205 792.528 17.4615 783.779 17.3031C775.731 17.1869 767.548 16.377 759.23 14.8806C750.737 13.3844 744.725 11.6382 741.209 9.65634C748.627 6.5206 757.599 4.64723 768.097 4.02905C778.317 3.3969 787.96 4.09587 796.981 6.1188C791.373 6.12851 782.756 6.10006 771.116 6.03347C761.23 6.31083 753.145 7.53206 746.862 9.71162C750.536 8.57754 755.952 8.1778 763.14 8.51234C765.667 8.63809 771.979 9.19102 782.033 10.1712ZM631.138 30.1964C631.216 25.5553 630.373 20.8073 628.638 15.9525C626.34 20.4167 625.709 25.3768 626.745 30.8546C592.656 36.1618 563.87 41.8574 540.403 47.9415C546.715 42.8847 552.66 37.4311 558.237 31.5877C564.003 25.5126 567.964 20.5178 570.105 16.6032C579.427 14.5991 586.679 13.2998 591.875 12.7053C602.02 11.6034 611.427 11.9558 620.098 13.7624C634.894 16.8959 653.577 17.4274 676.145 15.3497C680.509 14.8217 684.684 14.3374 688.668 13.8967C675.913 21.1405 661.727 25.8422 646.155 27.9945C641.047 28.7262 636.026 29.4578 631.138 30.1964ZM665.434 50.4575C646.683 53.5044 624.649 57.1209 599.346 61.3141C621.13 57.2644 643.164 53.6407 665.434 50.4575ZM379.721 56.4968C379.845 60.74 379.206 64.2037 377.818 66.8881C376.488 63.9048 375.55 60.4004 375.003 56.3821C374.727 53.997 374.402 50.4482 374.027 45.7356L379.666 46.0511C379.597 46.8753 379.615 50.3596 379.721 56.4968ZM447.519 18.1167C465.405 17.1315 483.067 17.9033 500.489 20.425C489.216 31.8301 483.61 43.4928 483.673 55.4132C483.68 56.8011 483.76 58.1022 483.898 59.302C477.342 59.6169 469.792 59.7818 461.248 59.7966C460.284 59.7983 459.201 59.3953 457.97 58.5734C456.651 57.6648 455.378 57.1249 454.15 56.9607C453.843 56.9106 453.521 56.8895 453.171 56.8901C455.97 50.3792 457.372 44.7672 457.347 40.0756C457.337 38.1238 455.356 36.3562 451.419 34.7582C447.818 33.3331 442.071 31.8322 434.19 30.2482C434.609 29.3367 439.042 25.2952 447.519 18.1167ZM402.16 40.9808C396.612 41.2724 389.327 41.9283 380.307 42.9271C379.056 41.2666 378.202 39.9235 377.744 38.9122C382.243 39.0201 386.041 39.1654 389.094 39.348C393.959 39.5926 398.314 40.1417 402.16 40.9808ZM412.814 58.9769C410.778 55.084 410.186 50.8416 411.038 46.257C414.816 48.0649 417.105 50.208 417.907 52.6717C418.783 55.4388 417.1 57.5381 412.814 58.9769ZM398.002 64.1278L390.375 57.9748L389.225 64.143L384.366 64.9972C383.988 59.8509 383.841 56.7572 383.923 55.716C383.992 52.1665 384.808 49.0928 386.372 46.4877C388.33 52.2458 389.84 56.0962 390.887 58.0389C391.66 55.052 392.301 52.0654 392.812 49.079C398.767 48.3747 403.218 47.8031 406.195 47.3642C406.652 50.8261 406.884 53.4064 406.893 55.0907C406.821 58.0764 405.914 60.6081 404.173 62.6858C402.653 57.021 400.834 52.6795 398.729 49.647C397.87 52.8582 397.633 57.6803 398.002 64.1278ZM284.219 89.9008C283.377 85.2468 283.131 80.093 283.481 74.4539C317.616 75.0887 343.596 74.6968 361.436 73.2779C386.736 71.2461 407.248 66.9745 423.001 60.4484C423.111 61.9157 423.178 63.5782 423.217 65.4504C423.335 68.3635 423.786 70.8928 424.572 73.0385C402.376 76.6118 380.398 79.8306 358.608 82.6949C338.292 85.3686 321.054 87.3069 306.923 88.4952C306.798 86.9195 306.701 85.2715 306.634 83.5656L305.189 83.6982C305.256 85.4041 305.309 87.0522 305.346 88.6353C297.273 89.2999 290.236 89.7169 284.219 89.9008ZM443.663 73.5259C444.331 72.744 444.983 71.8899 445.621 70.9562C448.517 71.797 451.34 72.4933 454.103 73.0524C450.789 73.2172 447.313 73.375 443.663 73.5259ZM258.232 88.941C258.094 87.6255 258.043 86.2521 258.079 84.8207C258.149 81.4881 258.342 76.507 258.658 69.8848C262.343 73.6447 264.121 78.4705 263.977 84.3551C263.694 86.1556 263.44 87.8332 263.215 89.3878C261.549 89.2533 259.883 89.1044 258.232 88.941ZM275.369 89.945C274.748 82.9991 274.908 77.1651 275.861 72.4574C280.417 75.0808 282.586 79.2771 282.354 85.039C282.29 86.8391 282.24 88.4729 282.248 89.9331C281.021 89.9642 279.838 89.9734 278.699 89.9754C277.604 89.9773 276.479 89.972 275.369 89.945ZM267.218 89.6338C266.693 84.2709 266.603 78.1626 266.932 71.3018C273.614 75.5408 275.764 81.7395 273.397 89.9195C271.338 89.858 269.278 89.7676 267.218 89.6338ZM249.434 87.8502C249.326 86.766 249.248 85.6529 249.139 84.5109C248.873 81.1355 248.54 76.0903 248.154 69.3825L252.222 68.1465C253.033 75.1572 253.587 80.4116 253.868 83.9172C253.993 85.4929 254.016 87.0109 253.965 88.464C252.46 88.2642 250.969 88.0644 249.434 87.8502ZM337.007 57.5178C335.954 57.3244 334.741 57.1169 333.396 56.9023L298.491 56.9628C286.151 57.3311 278.934 56.9533 276.825 55.8364C274.541 54.5825 270.331 53.9609 264.212 53.9715C260.794 53.9774 256.96 55.2419 252.679 57.7578C252.344 57.968 251.689 58.4245 250.729 59.1274C250.213 58.2608 249.858 57.3578 249.649 56.3967C256.801 50.0663 269.945 47.123 289.109 47.5669C299.889 48.0254 307.982 48.3367 313.401 48.5008C322.852 48.788 330.518 48.4711 336.37 47.5502C335.677 49.0261 335.689 51.361 336.407 54.5622C336.632 55.6461 336.841 56.6361 337.007 57.5178ZM1068.48 406.493C1068.27 404.079 1068.36 402.105 1068.78 400.586L1076.26 400.508C1073.02 402.148 1070.43 404.14 1068.48 406.493ZM1013.26 399.258C1030.2 399.092 1047.41 399.149 1064.83 399.422C1064.77 401.273 1065.3 404.648 1066.46 409.547C1065.74 410.886 1065.18 412.311 1064.77 413.837C1064.22 419.006 1063.36 423.143 1062.21 426.246C1052.93 424.505 1043.34 423.17 1033.45 422.233C1035.19 419.519 1036.05 416.265 1036.03 412.455C1036.01 409.817 1032.02 406.686 1024.03 403.064C1020.72 401.559 1017.12 400.285 1013.26 399.258ZM971.137 426.722C971.532 426.844 971.927 426.959 972.308 427.081C971.973 427.234 971.623 427.386 971.273 427.538C971.242 427.249 971.197 426.982 971.137 426.722ZM1081.38 400.463L1085.97 400.426C1086.29 402.631 1086.53 405.168 1086.67 408.023C1085.18 405.85 1083.41 403.322 1081.38 400.463ZM1126.83 408.12C1125.93 410.955 1124.98 413.87 1123.98 416.85C1117.17 437.435 1112.38 452.147 1109.66 460.986C1099.41 462.268 1088.61 463.191 1077.25 463.738C1067.64 464.196 1057.56 464.401 1046.99 464.34C1058.23 461.291 1068.09 457.544 1076.53 453.091C1089.98 446.056 1096.67 438.75 1096.63 431.182C1096.61 426.721 1094.7 421.252 1090.89 414.767C1090.2 413.503 1089.23 411.936 1087.99 410.066C1088.04 406.286 1088.33 402.916 1088.86 399.966L1098.85 403.137L1101.86 400.919C1109.82 401.296 1117.7 401.803 1125.5 402.44C1125.88 404.449 1126.32 406.349 1126.83 408.12ZM523.555 476.704C530.159 474.538 535.67 472.642 540.072 471.022C556.749 465.116 576.679 461.207 599.862 459.302C610.27 458.453 620.77 458.124 631.359 458.308C630.315 459.755 629.359 461.253 628.491 462.824C624.035 470.783 621.618 480.59 621.227 492.243C618.069 491.605 614.823 490.946 611.445 490.251C588.846 486.35 569.329 485.473 552.895 487.62C544.622 489.08 536.668 490.279 529.02 491.203C529.366 490.255 529.536 489.272 529.53 488.246C529.529 488.072 529.569 487.212 529.648 485.65C529.551 483.872 529.061 482.275 528.177 480.845C527.131 479.141 525.605 477.756 523.555 476.704ZM847.855 409.672C847.998 408.993 848.155 408.342 848.312 407.72C848.739 408.283 849.122 408.933 849.432 409.67C848.921 409.671 848.41 409.672 847.855 409.672ZM860.467 411.14C859.297 410.824 858.142 410.558 856.987 410.336C857.548 408.738 858.315 407.319 859.33 406.082C859.819 407.396 860.193 409.087 860.467 411.14ZM870.668 415.243C870.229 415.012 869.804 414.789 869.35 414.565C867.842 413.816 866.32 413.161 864.798 412.593C864.854 409.441 865.25 406.939 866.014 405.094C868.743 407.439 870.28 410.826 870.668 415.243ZM959.488 422.231C936.437 424.129 913.277 427.545 889.979 432.479C888.713 430.544 887.154 428.544 885.288 426.48C882.071 422.98 878.419 419.942 874.345 417.376C874.066 411.55 873.958 407.668 874.021 405.731C902.517 403.238 931.79 401.452 961.871 400.381C960.326 401.063 958.826 401.825 957.355 402.666C950.73 406.437 947.416 409.536 947.429 411.965C947.446 415.11 951.465 418.536 959.488 422.231ZM839.665 410.236C839.066 410.302 838.468 410.383 837.884 410.463C837.908 409.531 837.933 408.576 837.942 407.608C838.56 408.438 839.134 409.312 839.665 410.236ZM908.181 461.11C908.266 460.633 908.351 460.134 908.436 459.613C909.375 460.436 910.154 461.259 910.742 462.075C910.083 461.815 909.22 461.492 908.181 461.11ZM899.505 458.198L899.505 458.133C899.505 458.161 899.534 458.183 899.564 458.198L899.505 458.198ZM889.967 455.229C889.689 455.142 889.397 455.056 889.119 454.97C894.828 449.285 895.582 442.568 891.379 434.812C898.232 432.79 906.9 431.286 917.337 430.321C917.175 432.786 917.734 439.103 919.014 449.272C920.046 456.593 919.654 462.601 917.867 467.289C919.2 462.457 916.319 458.92 909.209 456.692C903.665 454.981 897.251 454.493 889.967 455.229ZM709.286 437.852C711.431 437.552 713.65 437.281 715.897 437.031C722.758 436.318 734.058 435.612 749.814 434.927C747.901 437.85 746.24 441.287 744.814 445.229C741.72 453.888 740.188 462.565 740.234 471.269C740.244 473.228 740.386 475.092 740.658 476.841C730.385 475.746 721.092 475.01 712.751 474.62C715.647 467.22 717.065 459.02 717.017 450.012C717.016 449.839 717.143 448.928 717.397 447.286C717.3 445.378 716.677 443.651 715.53 442.099C714.133 440.367 712.052 438.953 709.286 437.852ZM805.531 484.818C806.243 484.13 806.94 483.421 807.623 482.704C815.887 473.993 819.995 463.641 819.932 451.656C819.931 451.475 820.361 449.812 821.22 446.651C821.8 442.927 821.271 439.552 819.59 436.526C817.806 433.392 814.915 430.766 810.946 428.655C813.907 427.912 816.721 427.09 819.404 426.204C820.226 429.687 821.612 434.983 823.548 442.1C826.943 454.521 828.656 463.554 828.685 469.229C829.115 473.189 830.564 476.613 833.004 479.508C833.071 481.149 833.152 482.652 833.232 484.026C833.49 483.006 833.703 481.82 833.871 480.482C836.309 483.037 839.606 485.128 843.748 486.762C832.678 486.875 819.939 486.225 805.531 484.818ZM1006.15 397.059C1005.01 397.075 1003.87 397.084 1002.75 397.101C1002.65 397.086 1002.56 397.079 1002.48 397.065C1003.7 397.063 1004.92 397.061 1006.15 397.059ZM969.145 397.773C891.839 400.098 813.041 407.564 732.736 420.188C719.983 422.414 688.906 428.381 639.519 438.074C624.798 440.948 611.068 443.524 598.345 445.808C607.838 443.059 617.23 440.426 626.52 437.902C650.977 431.281 676.856 425.504 704.127 420.562C780.132 406.884 868.933 399.169 970.516 397.409C970.049 397.533 969.582 397.65 969.145 397.773ZM461.415 491.45C459.713 492.61 458.754 493.645 458.554 494.535C451.113 495.842 443.507 496.419 435.721 496.266C424.518 496.068 415.25 494.335 407.871 491.051C413.014 488.491 419.974 487.358 428.724 487.647L427.935 487.648C443.55 487.968 454.715 489.235 461.415 491.45ZM145.634 117.864C170.424 118.761 220.034 118.306 294.466 116.5C377.657 111.245 437.041 105.627 472.616 99.6373C474.629 99.2868 489.585 96.4705 517.467 91.1885C537.31 87.3806 558.512 83.9319 581.075 80.8133C586.14 80.1611 600.614 77.5192 624.469 72.8875C652.19 67.519 676.002 63.191 695.935 59.9107C767.015 48.3226 831.509 42.4711 889.431 42.3708C916.83 42.3234 932.53 42.2818 936.561 42.2242C963.242 41.8816 980.778 41.0488 989.169 39.7331C989.362 40.2966 989.524 40.5999 989.714 40.643C989.948 40.686 990.122 40.3531 990.235 39.6373C1012.64 48.2515 1031.77 56.8786 1047.59 65.5332C1115.78 102.897 1150.02 151.763 1150.34 212.131C1148.77 228.573 1147.2 245.52 1145.62 262.966C1142.48 297.808 1140.95 323.842 1141.04 341.068C1141.1 352.345 1138.29 368.268 1132.57 388.823C1123.66 388.701 1103.55 388.23 1072.26 387.402C1035.23 386.425 1014.81 385.947 1010.96 385.954C888.801 386.165 785.102 393.805 699.874 408.888C673.916 413.516 649.087 418.988 625.402 425.311C602.504 431.365 590.851 434.436 590.413 434.523C506.216 448.476 399.526 459.389 270.329 467.275C255.524 468.19 239.113 469.172 221.052 470.216C213.135 469.911 205.217 469.556 197.299 469.151C194.557 466.972 190.543 464.666 185.243 462.225C166.035 453.345 154.057 447.481 149.325 444.634C114.485 423.839 96.942 392.879 96.7257 351.768C96.6361 334.715 94.836 309.034 91.3257 274.724C89.5706 257.588 87.8326 240.928 86.0826 224.753C86.0484 218.261 88.025 205.311 92.0562 185.916C95.7179 168.473 98.2045 158.081 99.5014 154.746C101.908 148.597 107.833 142.117 117.246 135.306C122.645 131.443 132.078 125.651 145.503 117.922C145.532 117.9 145.591 117.878 145.634 117.864Z" fill="#F2DEB6"/>
<mask id="mask0_47_15" style="mask-type:luminance" maskUnits="userSpaceOnUse" x="7" y="0" width="1209" height="506">
<path d="M1213.11 0L1215.81 502.956L9.84608 505.076L7.15149 2.11976L1213.11 0Z" fill="white"/>
</mask>
<g mask="url(#mask0_47_15)">
<path fill-rule="evenodd" clip-rule="evenodd" d="M782.963 9.82955C772.898 8.84852 766.579 8.29514 764.049 8.16932C756.854 7.83457 751.431 8.23488 747.753 9.37028C754.043 7.18819 762.137 5.96544 772.034 5.68755C783.687 5.75394 792.314 5.78222 797.928 5.77237C788.897 3.74743 779.243 3.04793 769.012 3.68101C758.502 4.30011 749.52 6.17573 742.094 9.31507C745.613 11.299 751.632 13.047 760.134 14.5446C768.461 16.0425 776.654 16.8531 784.71 16.9692C793.469 17.1275 799.738 16.3856 803.502 14.729C807.776 12.8617 808.024 10.0027 804.232 6.1521C804.596 8.5758 802.688 10.012 798.479 10.4464C795.498 10.7556 790.336 10.5475 782.963 9.82955ZM380.199 56.2151C380.094 50.0713 380.076 46.5831 380.145 45.758L374.499 45.4423C374.875 50.16 375.2 53.7127 375.476 56.1004C376.023 60.1231 376.962 63.6313 378.294 66.6178C379.683 63.9305 380.323 60.4629 380.199 56.2151ZM413.329 58.6971C417.62 57.2567 419.305 55.1551 418.428 52.3849C417.626 49.9186 415.334 47.7732 411.552 45.9634C410.699 50.5531 411.291 54.8001 413.329 58.6971ZM398.5 63.8541C398.131 57.3995 398.369 52.5721 399.23 49.3574C401.336 52.3932 403.157 56.7393 404.678 62.4103C406.422 60.3303 407.33 57.7958 407.402 54.8069C407.393 53.1207 407.16 50.5376 406.704 47.0719C403.723 47.5114 399.267 48.0837 393.305 48.7889C392.794 51.7786 392.152 54.7685 391.378 57.7587C390.329 55.8138 388.818 51.9592 386.858 46.1949C385.293 48.8029 384.475 51.88 384.406 55.4334C384.324 56.4757 384.471 59.5728 384.849 64.7247L389.713 63.8695L390.866 57.6944L398.5 63.8541ZM439.194 78.5313L439.224 84.3207L488.189 75.5868C468.227 77.4889 451.885 78.4729 439.194 78.5313ZM284.589 89.6578C285.1 92.3852 285.815 94.9386 286.734 97.3179L305.517 96.3152C305.68 93.8689 305.739 91.2273 305.739 88.3905C305.702 86.8057 305.649 85.1558 305.582 83.448L307.029 83.3152C307.096 85.023 307.192 86.6728 307.318 88.2502C307.493 91.0144 307.725 93.5903 308.016 95.9852C342.513 94.2384 383.535 90.548 431.083 84.9212C431.925 80.8454 432.208 76.1844 431.932 70.9454C431.819 68.8614 431.356 64.2089 430.544 56.9735C428.313 58.0991 425.979 59.1598 423.528 60.17C407.756 66.7036 387.221 70.9804 361.893 73.015C344.033 74.4358 318.024 74.8288 283.851 74.194C283.5 79.8394 283.746 84.9988 284.589 89.6578ZM279.228 42.7436C278.666 35.7683 279.032 30.2894 280.327 26.3069C281.727 28.338 282.66 30.7173 283.113 33.452C283.307 37.0411 283.497 39.7546 283.682 41.5707L288.417 41.2367C291.343 33.1264 291.465 28.386 288.738 27.0086C286.012 25.6673 283.29 25.1944 280.587 25.59C278.036 24.2918 269.498 24.4805 254.959 26.156C254.641 32.5611 254.633 39.4506 254.934 46.8172C263.513 45.9844 268.411 43.2909 269.601 38.7369C269.702 38.3893 269.896 36.3989 270.228 32.7581C270.493 30.2393 271.126 28.2697 272.172 26.835C273.699 31.0007 274.282 36.3043 273.965 42.7529L279.228 42.7436ZM258.573 88.6976C258.96 92.8074 260.162 96.3296 262.166 99.2498C262.417 96.854 262.882 93.488 263.561 89.1447C263.787 87.5884 264.041 85.909 264.324 84.1066C264.469 78.2155 262.69 73.3845 259 69.6205C258.684 76.25 258.49 81.2366 258.42 84.5729C258.383 86.0058 258.434 87.3807 258.573 88.6976ZM275.729 89.7023C275.916 92.0829 276.222 94.5791 276.616 97.2126L283.845 98.5677C283.048 97.129 282.638 94.1771 282.615 89.6903C282.608 88.2284 282.658 86.5928 282.721 84.7907C282.955 79.0226 280.784 74.8218 276.223 72.1956C275.268 76.9084 275.108 82.7488 275.729 89.7023ZM273.755 89.6769C276.125 81.4878 273.972 75.2824 267.283 71.0389C266.953 77.9072 267.043 84.0222 267.568 89.391C267.939 93.0956 268.497 96.438 269.258 99.4328C271.36 95.912 272.849 92.66 273.755 89.6769ZM337.437 57.2382C337.272 56.3556 337.062 55.3645 336.837 54.2794C336.119 51.0747 336.107 48.7373 336.801 47.2597C330.942 48.1818 323.268 48.4993 313.807 48.2119C308.381 48.0477 300.279 47.7363 289.487 47.2776C270.301 46.8336 257.143 49.7804 249.982 56.118C250.192 57.0801 250.547 57.9841 251.064 58.8516C254.162 64.158 263.171 67.4422 278.047 68.6825C283.649 69.1865 291.225 69.4554 300.772 69.4821C312.528 69.5483 319.517 69.6229 321.799 69.7057C332.754 70.4681 338.224 67.9256 338.193 62.0783C338.19 61.3329 337.933 59.7196 337.437 57.2382ZM249.765 87.6058C250.271 92.0773 250.978 95.9839 251.931 99.3329C253.406 96.1895 254.206 92.4901 254.301 88.2202C254.352 86.7655 254.329 85.2458 254.204 83.6684C253.923 80.159 253.369 74.8988 252.558 67.8805L248.485 69.1179C248.871 75.833 249.204 80.8838 249.47 84.2629C249.578 85.4061 249.657 86.5205 249.765 87.6058ZM1131.18 416.022C1130.85 419.62 1131.06 426.379 1131.81 436.299C1132.47 444.787 1132.23 451.524 1131.13 456.513C1130.4 452.005 1129.8 445.269 1129.31 436.303C1128.83 427.287 1128.27 420.558 1127.63 416.101L1131.18 416.022ZM1203.16 412.719C1203.16 412.104 1200.51 355.748 1195.19 243.637C1192.03 175.971 1189.26 119.609 1186.83 74.5635C1186.91 72.9568 1186.72 70.5111 1186.26 67.2119C1186.16 64.2739 1187.33 61.9489 1189.78 60.2584C1193.52 106.43 1196.89 165.151 1199.89 236.414C1204.29 339.994 1206.86 398.775 1207.63 412.776L1203.16 412.719ZM1164.33 446.641C1163.86 444.601 1163.62 437.654 1163.56 425.786C1163.59 417.29 1161.68 410.512 1157.8 405.446C1157.04 411.215 1157.12 418.792 1158.04 428.191C1159.07 439.935 1159.59 447.511 1159.61 450.934C1172.65 447.965 1184.09 443.914 1193.98 438.795C1191.68 435.803 1190.56 431.13 1190.62 424.762C1190.67 418.436 1189.46 413.756 1186.99 410.728C1185.69 414.024 1185.37 419.329 1186.04 426.651C1186.67 433.626 1186 438.954 1184.01 442.641C1181.19 438.832 1179.97 433.16 1180.37 425.619C1180.77 417.607 1180.04 411.87 1178.18 408.406C1175.92 412.912 1175.18 419.028 1175.9 426.734C1176.74 436.003 1176.86 442.176 1176.28 445.252C1172.49 441.366 1171.14 434.804 1172.23 425.568C1173.23 416.557 1171.49 409.996 1166.99 405.893C1166.5 411.394 1166.53 418.175 1167.1 426.228C1167.76 435.237 1168.19 442.017 1168.39 446.569L1164.33 446.641ZM660.579 454.733C661.632 454.818 662.685 454.903 663.739 454.995C664.309 455.03 664.879 455.066 665.435 455.115C665.052 448.791 666.432 444.345 669.577 441.792C661.15 443.508 652.532 445.173 643.709 446.802C623.975 450.477 603.289 453.943 581.623 457.216C583.318 457.032 584.998 456.856 586.679 456.686C601.921 455.118 616.333 454.232 629.885 454.013C631.844 453.966 633.76 453.941 635.675 453.937C635.851 453.937 636.055 453.937 636.26 453.936C636.845 453.935 637.4 453.934 637.971 453.933C638.57 453.939 639.155 453.953 639.755 453.959C640.851 453.972 641.977 453.977 643.088 453.989L646.379 454.078C646.686 454.092 646.993 454.098 647.3 454.112L650.517 454.208C653.939 454.332 657.288 454.514 660.579 454.733ZM687.272 459.368C686.537 452.914 687.956 447.521 691.516 443.179C692.806 452.194 693.067 463.042 692.343 475.736C689.515 468.982 687.82 463.529 687.272 459.368ZM529.632 491.393C537.288 490.468 545.251 489.267 553.533 487.805C569.986 485.656 589.524 486.533 612.149 490.438C615.53 491.134 618.779 491.794 621.941 492.432C641.963 496.414 657.446 499.028 668.433 500.275C667.289 482.778 666.607 469.652 666.386 460.896C654.858 459.49 643.42 458.671 632.087 458.459C621.486 458.275 610.975 458.605 600.554 459.455C577.346 461.363 557.393 465.277 540.697 471.19C536.29 472.812 530.773 474.71 524.161 476.878C518.848 478.61 512.805 480.531 506.061 482.627C492.25 486.639 480.556 490.039 471.023 492.827C487.963 494.571 507.494 494.088 529.632 491.393ZM819.963 417.741C820.401 417.552 820.809 417.349 821.218 417.153C822.195 416.666 823.157 416.172 824.09 415.657L728.373 428.431C738.011 428.964 747.077 429.173 755.572 429.064C755.718 429.063 755.849 429.063 755.966 429.063C759.212 429.014 762.37 428.922 765.425 428.786C765.513 428.779 765.6 428.778 765.688 428.785C765.951 428.771 766.214 428.763 766.477 428.755L766.551 428.755C768.772 428.628 770.965 428.479 773.113 428.324C779.281 427.85 785.097 427.174 790.516 426.274C793.014 425.857 795.454 425.404 797.805 424.894C798.389 424.77 798.974 424.638 799.572 424.5C800.054 424.398 800.536 424.281 801.018 424.172C807.867 422.538 813.983 420.494 819.38 418.031C819.569 417.93 819.759 417.835 819.963 417.741ZM1077.49 400.586L1070 400.665C1069.58 402.185 1069.49 404.161 1069.69 406.578C1069.85 408.242 1070.15 410.101 1070.59 412.17C1071.93 418.442 1072.61 422.559 1072.62 424.513C1072.67 433.87 1064.42 439.167 1047.86 440.412C1043.24 441.679 1037.19 442.638 1029.75 443.302C1025.36 443.701 1018.76 444.168 1009.92 444.698C993.984 445.898 983.442 448.688 978.289 453.076L974.204 451.975C978.04 447.25 986.827 444.326 1000.58 443.223C1008.28 442.732 1014.06 442.36 1017.91 442.086C1024.74 441.596 1030.18 440.877 1034.21 439.915C1034.21 439.872 1033.56 437.014 1032.32 431.335C1031.66 428.203 1030.21 425.665 1028.01 423.744C1027.82 423.564 1027.61 423.383 1027.41 423.224C1027.35 423.384 1027.31 423.55 1027.28 423.709C1026.75 425.483 1026.41 428.154 1026.27 431.737C1026.11 435.377 1025.56 438.193 1024.6 440.192C1023.47 438.805 1022.88 435.795 1022.86 431.164C1022.75 427.777 1021.37 425.232 1018.68 423.536C1018.36 423.334 1018.02 423.154 1017.68 422.981C1017.66 423.147 1017.64 423.321 1017.61 423.502C1017.32 425.406 1017.18 428.134 1017.2 431.688C1017.22 435.552 1017.11 438.454 1016.85 440.401C1014.56 438.278 1013.23 435.66 1012.86 432.542C1012.61 430.726 1012.5 427.969 1012.57 424.292L1006.78 423.912C1007.16 429.071 1007.35 432.03 1007.35 432.812C1007.37 436.199 1006.86 439.138 1005.82 441.658C1003.98 439.881 1003 436.677 1002.88 432.038C1002.85 427.834 1001.36 424.79 998.369 422.892C997.85 424.448 997.648 427.763 997.762 432.829C997.784 436.99 996.923 440.263 995.181 442.647C994.379 440.31 993.897 437.453 993.689 434.074C993.606 432.17 993.489 429.283 993.396 425.433L987.728 423.554C987.642 423.989 988.054 427.237 988.963 433.3C989.509 437.2 988.56 440.342 986.116 442.728C985.245 440.956 984.599 437.708 984.238 432.99C983.913 429.401 983.094 426.537 981.752 424.383C981.516 424.021 981.266 423.689 981.03 423.371C980.93 423.747 980.844 424.16 980.773 424.609C980.362 427.019 980.204 430.486 980.301 435.002C980.503 440.031 980.128 443.91 979.177 446.64C977.06 444.393 976.045 440.429 976.089 434.756C976.131 431.608 975.547 428.953 974.352 426.798C973.555 425.381 972.496 424.182 971.175 423.193C971.677 424.205 972.034 425.42 972.246 426.831C972.306 427.091 972.351 427.359 972.382 427.648C972.611 429.573 972.623 431.838 972.417 434.437C971.736 441.277 971.465 445.373 971.56 446.719C972.223 456.162 980.438 461.387 996.205 462.401C1014.65 463.708 1031.98 464.401 1048.18 464.488C1058.77 464.549 1068.85 464.344 1078.47 463.885C1089.84 463.337 1100.66 462.413 1110.92 461.129C1127.57 459.037 1142.76 455.964 1156.46 451.916C1154.64 439.226 1153.77 423.784 1153.85 405.591L1148.06 403.907C1148.07 405.34 1148.51 413.437 1149.37 428.206C1149.95 438.004 1149.86 446.08 1149.11 452.45C1146.62 447.729 1145.68 439.415 1146.21 427.503C1146.77 416.712 1144.76 408.617 1140.18 403.205C1138.97 407.498 1138.7 413.78 1139.36 422.051C1140.01 430.546 1139.87 436.806 1138.93 440.838C1137.83 432.518 1136.93 420.022 1136.23 403.342L1130.19 402.962C1130.55 407.339 1130.5 410.893 1129.98 413.622C1129.29 411.966 1128.67 410.158 1128.11 408.205C1127.61 406.433 1127.16 404.53 1126.78 402.519C1118.97 401.881 1111.09 401.374 1103.12 400.997L1100.1 403.217L1090.1 400.043C1089.57 402.997 1089.29 406.37 1089.23 410.155C1089.23 410.654 1089.24 411.168 1089.24 411.682C1089.25 412.934 1089.4 416.812 1089.69 423.31L1087.72 423.379C1088.01 417.538 1088.06 412.444 1087.91 408.109C1087.77 405.251 1087.53 402.711 1087.21 400.504L1082.62 400.541L1077.49 400.586ZM890.983 455.371C898.275 454.634 904.697 455.122 910.247 456.835C917.364 459.066 920.249 462.607 918.914 467.444C920.703 462.751 921.095 456.736 920.063 449.407C918.782 439.227 918.223 432.903 918.386 430.435C907.937 431.402 899.259 432.908 892.398 434.932C888.31 436.133 884.852 437.514 882.024 439.075C876.615 442.03 873.752 445.53 873.422 449.554C874.303 453.106 875.239 455.92 876.215 457.995C874.284 454.973 873.348 452.152 873.422 449.554C873.421 449.25 873.361 448.925 873.286 448.578C872.194 443.948 871.359 440.809 870.737 439.16C869.08 441.066 867.996 443.543 867.485 446.576C867.167 449.956 866.77 452.468 866.34 454.119C864.902 447.536 863.576 442.639 862.316 439.435C871.909 436.907 881.46 434.625 890.997 432.596C914.321 427.656 937.507 424.236 960.584 422.336C960.745 422.328 960.891 422.313 961.052 422.306C987.213 420.183 1011.73 420.191 1034.63 422.336C1044.53 423.274 1054.13 424.61 1063.42 426.353C1063.57 426.367 1063.7 426.388 1063.83 426.41L1061.23 432.783L1055.02 427.272L1050.6 435.986C1049.09 431.653 1047.58 428.197 1046.09 425.594C1044.69 429.324 1043.9 433.681 1043.64 438.668C1060.29 437.727 1068.94 432.552 1069.59 423.15C1069.84 420.335 1069.29 416.218 1067.95 410.807C1067.86 410.402 1067.75 410.011 1067.68 409.635C1066.51 404.731 1065.98 401.352 1066.05 399.499C1048.6 399.226 1031.38 399.169 1014.42 399.337C997.004 399.483 979.856 399.86 962.971 400.462C932.857 401.535 903.551 403.323 875.023 405.819C874.96 407.759 875.068 411.645 875.347 417.477C875.396 418.411 875.445 419.402 875.494 420.437C875.788 426.501 875.682 431.371 875.175 435.063C872.279 432.029 871.112 427.008 871.69 419.988C871.813 418.33 871.805 416.789 871.666 415.342C871.277 410.921 869.739 407.529 867.008 405.182C866.242 407.029 865.846 409.533 865.789 412.689C865.773 415.214 865.993 418.174 866.435 421.56C867.436 428.614 866.85 434.014 864.691 437.745C862.83 434.108 861.91 428.848 861.977 421.959C861.999 417.667 861.834 414.1 861.454 411.235C861.18 409.18 860.806 407.487 860.316 406.171C859.299 407.41 858.532 408.83 857.97 410.43C856.774 413.834 856.591 418.046 857.377 423.074C858.825 431.604 858.943 437.429 857.731 440.55C853.063 437.005 851.076 431.639 851.726 424.444C852.35 417.901 851.901 413.01 850.407 409.763C850.096 409.026 849.713 408.375 849.286 407.811C849.128 408.434 848.971 409.085 848.828 409.766C848.119 413.965 848.03 419.465 848.592 426.266C849.338 434.891 849.414 441.042 848.819 444.727C854.059 442.981 858.044 441.715 860.76 440.936C860.683 443.013 858.763 445.028 855.016 446.989C852.916 448.121 849.503 449.705 844.776 451.754C844.52 450.191 844.481 442.716 844.66 429.334C844.781 421.649 843.432 415.319 840.628 410.33C840.097 409.405 839.522 408.53 838.904 407.699C838.894 408.669 838.87 409.624 838.846 410.558C838.78 420.364 838.745 427.832 838.772 432.978C838.824 443.029 840.139 451.371 842.703 457.988C847.806 460.751 853.515 462.217 859.818 462.38C865.419 462.501 870.634 461.58 875.448 459.624C878.06 458.534 880.246 457.192 881.992 455.589C881.686 447.217 881.97 442.889 882.832 442.59C882.758 442.54 882.699 442.497 882.699 442.453L884.424 442.385L884.436 444.73C884.787 447.457 884.899 449.404 884.715 450.577C884.546 451.742 884.418 452.459 884.332 452.719C884.608 452.415 884.811 452.089 884.984 451.741L884.628 456.294C886.804 455.892 888.937 455.584 890.983 455.371ZM79.1962 440.614C74.6698 312.038 70.5881 215.672 66.922 151.517L70.7381 151.51C71.9637 187.685 73.9242 235.879 76.6049 296.092C79.8746 368.396 81.9668 416.604 82.8814 440.745L79.1962 440.614ZM459.087 494.73C461.38 494.342 463.659 493.882 465.908 493.357C464.823 492.737 463.519 492.168 461.951 491.642C455.243 489.425 444.066 488.156 428.434 487.836L429.224 487.835C420.464 487.546 413.496 488.68 408.348 491.244C415.734 494.531 425.013 496.266 436.228 496.463C444.022 496.616 451.637 496.038 459.087 494.73ZM48.3403 89.8119C71.3082 95.0617 98.9735 98.2625 131.292 99.4143C141.412 99.7874 160.201 99.9425 187.674 99.8726C196.607 99.8425 206.462 99.789 217.237 99.7194C220.046 99.9316 222.5 99.5365 224.586 98.5342C225.986 97.8876 227.515 96.7777 229.159 95.2117C229.162 95.6604 229.135 96.1019 229.108 96.5506C229.109 96.7677 229.11 96.9848 229.111 97.2019L229.115 97.8821C234.733 95.8604 239.152 93.508 242.354 90.803C244.335 92.0732 245.497 93.533 245.857 95.1824C246.281 92.4751 246.266 89.4284 245.809 86.0206C245.354 82.9024 244.38 78.2218 242.842 71.9936C240.765 60.5558 244.142 52.1263 252.96 46.6904C253.188 39.844 252.889 33.0057 252.064 26.1611C232.445 26.7166 218.048 27.7116 208.859 29.1606C193.096 31.6994 182.753 36.2261 177.786 42.7335C168.932 43.8707 156.159 45.1089 139.44 46.4409C120.513 47.8998 107.389 49.0517 100.039 49.8824C69.2932 53.2725 46.3394 59.2108 31.148 67.6829C24.6761 71.508 23.7769 75.7504 28.4507 80.4244C32.5809 84.6145 39.2206 87.7509 48.3403 89.8119ZM65.6005 99.6599C67.3934 107.067 68.4019 115.446 68.6258 124.803C68.832 130.736 68.6564 139.168 68.0989 150.082C67.719 144.496 66.9298 136.095 65.7312 124.873C64.8903 114.96 64.8467 106.551 65.6005 99.6599ZM62.1462 271.034C58.6198 197.167 56.8285 139.297 56.7868 97.403C64.8205 228.441 70.1334 347.962 72.6963 455.967C70.0447 452.158 68.768 448.433 68.8368 444.793C68.2251 411.389 65.9949 353.469 62.1462 271.034ZM39.0568 250.797C39.8038 276.443 41.2734 297.63 43.4509 314.35C45.0554 268.466 42.9058 226.098 37.0168 187.247C37.21 190.669 37.89 211.85 39.0568 250.797ZM47.3272 148.237C45.9861 126.449 45.7645 109.074 46.6623 96.1181C48.8631 100.406 50.0915 106.099 50.3038 113.205C50.6002 122.432 50.981 128.191 51.4315 130.492C52.0733 152.758 54.5161 206.56 58.7161 291.904C61.955 358.267 63.623 412.092 63.7493 453.385C59.6519 421.673 56.7579 379.567 55.0822 327.067C52.9937 262.641 51.2105 220.432 49.6885 200.417C49.7441 191.4 48.9522 174.011 47.3272 148.237ZM741.506 477.011C744.417 477.331 747.387 477.666 750.445 478.037C772.012 480.945 788.179 483.001 798.961 484.19C801.492 484.475 803.993 484.746 806.451 484.995C820.875 486.402 833.628 487.053 844.71 486.939C845.558 486.938 846.391 486.915 847.195 486.899C864.359 486.565 880.036 484.359 894.197 480.26C902.522 478.422 908.239 475.575 911.377 471.712C913.919 468.523 914.063 465.361 911.781 462.224C911.192 461.407 910.413 460.583 909.473 459.76C909.388 460.281 909.302 460.781 909.217 461.259C908.82 463.647 908.479 465.508 908.193 466.847C907.506 469.533 906.553 471.851 905.334 473.8C904.978 472.722 904.219 470.125 903.072 466.009C902.28 462.848 901.448 460.288 900.59 458.343C900.561 458.328 900.532 458.307 900.531 458.278L900.532 458.343C899.578 460.602 899.025 463.809 898.871 467.964C898.631 472.473 898.209 475.723 897.606 477.714C895.665 475.597 894.61 472.414 894.413 468.174C894.112 463.709 893.232 460.498 891.731 458.554C891.304 460.769 891.045 464.424 890.998 469.541C890.935 474.266 890.559 477.922 889.871 480.528C888.193 478.324 887.122 474.83 886.673 470.069C886.298 465.388 885.183 461.93 883.329 459.676C882.117 462.623 881.567 466.525 881.679 471.373C881.799 477.438 881.731 481.36 881.477 483.141C878.746 480.801 877.413 477.576 877.479 473.465C877.535 467.227 877.517 463.847 877.427 463.326L871.51 461.455C872.238 466.476 872.784 470.245 873.133 472.756C873.785 477.256 873.893 481.048 873.47 484.132C869.511 481.881 867.696 478.678 868.025 474.516C868.276 472.178 868.697 468.711 869.287 464.115L863.38 464.125C863.915 468.633 864.284 472.012 864.471 474.262C864.681 478.162 864.435 481.564 863.749 484.467C861.702 481.743 860.603 478.387 860.407 474.407C860.205 472.106 860.158 468.661 860.222 464.073L854.449 464.669C854.823 469.04 855.045 472.332 855.158 474.539C855.354 478.352 855.005 481.631 854.142 484.354C852.914 481.541 852.195 478.228 851.985 474.421C851.982 473.893 852.024 470.586 852.08 464.471L845.243 462.927C845.342 467.905 845.406 471.654 845.419 474.172C845.442 478.63 845.154 482.401 844.571 485.478C843.772 483.656 843.482 481.297 843.745 478.402C843.897 476.795 844.162 474.363 844.496 471.113C844.715 465.309 841.754 461.051 835.614 458.327C835.028 461.099 834.817 465.42 835.023 471.267C835.159 474.972 835.087 478.106 834.823 480.654C834.654 481.993 834.441 483.18 834.183 484.201C834.103 482.826 834.022 481.321 833.955 479.678C833.599 473.108 833.188 464.345 832.708 453.396C832.031 441.399 831.057 431.131 829.785 422.594C826.853 423.96 823.701 425.203 820.344 426.316C817.658 427.203 814.841 428.026 811.876 428.77C806.693 430.067 801.069 431.126 795.005 431.954C785.99 433.179 772.997 434.135 755.996 434.816C754.154 434.892 752.386 434.967 750.675 435.05C734.903 435.736 723.589 436.444 716.721 437.158C714.471 437.408 712.25 437.679 710.102 437.98C698.808 439.555 689.17 441.881 681.159 444.949C685.409 455.305 686.123 466.13 683.287 477.439C681.513 473.809 680.537 468.737 680.327 462.239C680.1 455.003 679.518 449.916 678.538 446.973C676.812 452.649 676.101 459.171 676.402 466.537C676.509 470.264 677.157 476.82 678.346 486.225C682.116 485.785 685.657 486.191 688.997 487.444C691.809 488.474 693.79 489.773 694.939 491.334C696.072 492.888 695.916 493.815 694.412 494.122C692.674 494.472 689.775 493.696 685.744 491.799L688.792 498.749C695.802 497.18 699.236 493.983 699.124 489.178C699.11 486.493 698.08 482.507 696.035 477.228C698.732 472.888 699.622 466.822 698.704 459.023C697.782 450.275 697.925 444.167 699.136 440.698C701.074 445.066 702.038 450.68 701.986 457.526C701.954 468.186 701.983 473.831 702.074 474.482C705.671 474.505 709.502 474.599 713.568 474.787C721.919 475.178 731.222 475.914 741.506 477.011ZM1168.51 114.036C1169.68 137.605 1169.99 158.048 1169.48 175.381C1169.38 173.124 1168.14 152.66 1165.74 113.976C1164.23 89.2433 1163.93 68.7925 1164.9 52.631C1166.62 79.9253 1167.82 100.389 1168.51 114.036ZM1178.22 213.576C1176.54 177.793 1174.2 124.165 1171.2 52.6851C1175.65 98.993 1179.26 152.575 1182.04 213.439C1182.82 231.979 1184.76 285.637 1187.86 374.398C1184.3 330.477 1181.09 276.872 1178.22 213.576ZM1180.69 386.047C1177.91 356.895 1175.73 324.507 1174.15 288.904C1172.96 264.128 1171.88 231.759 1170.89 191.821C1173.03 218.55 1174.96 250.902 1176.64 288.9C1178.35 332.043 1179.7 364.426 1180.69 386.047ZM1169.09 377.753C1168.72 358.511 1167.19 324.29 1164.47 275.077C1161.97 231.625 1160.84 197.382 1161.06 172.342C1163.65 217.959 1165.54 252.157 1166.71 274.943C1168.76 314.236 1170.12 348.456 1170.8 377.612L1169.09 377.753ZM454.663 72.7871C468.155 72.1483 478.839 71.4348 486.716 70.6539C506.766 68.7154 521.981 64.7374 532.39 58.7487C544.433 52.3158 560.828 47.5614 581.589 44.4927C592.518 42.9104 611.487 41.2126 638.454 39.3923C653.855 37.5416 670.531 33.4018 688.452 26.9513C698.683 23.2932 713.669 17.6149 733.427 9.91647C723.076 10.2169 708.447 11.4366 689.494 13.5613C685.505 14.0025 681.326 14.4875 676.957 15.0162C654.363 17.0966 635.66 16.565 620.847 13.4285C612.167 11.62 602.749 11.2675 592.593 12.3708C587.391 12.9661 580.131 14.267 570.799 16.2735C569.104 16.6311 567.352 17.0177 565.541 17.4189C553.551 20.1321 544.582 21.8123 538.635 22.474C528.479 23.6136 519.062 23.3261 510.382 21.6118C507.294 21.0527 504.207 20.5516 501.105 20.1011C483.663 17.5771 465.982 16.8048 448.076 17.7915C446.191 17.8961 444.305 18.0152 442.42 18.156C417.997 19.9791 397.655 24.7767 381.392 32.5631C378.518 33.7405 377.298 35.342 377.747 37.3747C377.793 37.7076 377.956 38.127 378.222 38.6114C378.68 39.6238 379.535 40.9683 380.787 42.6306C389.817 41.6305 397.11 40.9736 402.664 40.6817C404.17 40.5994 405.559 40.5391 406.801 40.5152C417.049 40.2295 424.893 41.54 430.347 44.4324C432.984 48.1982 434.281 53.0229 434.224 58.921C433.732 65.5074 433.669 70.4213 434.037 73.67C437.575 73.5407 440.981 73.4045 444.211 73.2613C447.866 73.1102 451.345 72.9521 454.663 72.7871ZM310.983 36.58C311.546 40.8271 312.775 43.9295 314.716 45.8728C315.667 43.3093 316.178 40.3847 316.249 37.0991C316.328 35.3621 316.269 32.4168 316.072 28.256C309.15 27.1826 301.338 26.3062 292.664 25.6339C292.179 33.6532 292.386 39.6739 293.284 43.696C296.257 41.7875 297.602 39.0134 297.32 35.3738C296.943 30.3448 296.928 27.385 297.274 26.4653C300.077 28.3275 301.641 31.0747 301.908 34.7144C302.283 39.396 302.781 42.3188 303.401 43.4828C304.619 41.4905 305.438 38.8042 305.859 35.4239C306.452 31.2183 306.964 28.5108 307.396 27.3015C309.249 29.2449 310.434 32.3402 310.983 36.58ZM770.241 483.495C761.242 482.237 752.186 481.139 743.087 480.199C742.78 480.164 742.473 480.135 742.18 480.1C733.695 479.246 725.182 478.523 716.611 477.937C715.192 477.838 713.759 477.74 712.34 477.655C709.897 477.493 707.44 477.345 704.969 477.212L705.042 491.375C704.409 496.261 700.626 499.712 693.677 501.729C692.699 502.042 691.647 502.311 690.523 502.552C690.435 502.567 690.347 502.589 690.26 502.61C689.646 502.727 689.004 502.844 688.346 502.939C687.163 503.137 685.921 503.298 684.606 503.431C681.931 503.703 678.993 503.86 675.806 503.902C675.528 503.903 675.28 503.903 675.017 503.904C674.943 503.904 674.856 503.904 674.753 503.904C674.563 503.904 674.373 503.905 674.169 503.905C673.832 503.913 673.496 503.914 673.189 503.907C672.15 503.807 671.126 503.701 670.088 503.594C669.927 503.572 669.78 503.551 669.634 503.522C668.478 503.409 667.337 503.28 666.211 503.138C650.937 501.348 636.156 498.776 621.898 495.421C617.638 494.408 613.421 493.337 609.263 492.194C587.166 488.506 565.614 488.544 544.608 492.307C538.868 493.345 533.155 494.195 527.486 494.878C507.657 497.243 488.285 497.443 469.34 495.494C466.055 496.397 462.872 497.184 459.761 497.855C434.728 503.182 415.093 500.633 400.857 490.222C417.835 482.413 440.13 481.853 467.725 488.542C468.252 488.671 468.779 488.8 469.306 488.93C484.157 485.271 500.26 480.568 517.659 474.842C530.284 470.673 543.595 465.96 557.589 460.703C534.914 463.905 511.243 466.892 486.547 469.664C481.725 470.208 476.8 470.723 471.773 471.217C470.97 471.298 470.151 471.372 469.347 471.453C469.055 471.475 468.734 471.512 468.427 471.548C435.34 474.646 398.037 476.492 356.574 477.078C355.858 477.087 355.127 477.095 354.41 477.111L322.215 477.298C256.566 477.196 181.47 474.259 96.9447 468.495C92.8931 468.213 88.827 467.93 84.7169 467.641C66.9206 464.379 52.0465 460.722 40.1239 456.676C28.1868 452.666 21.7706 450.332 20.9046 449.682L7.46287 62.2678C16.0894 59.4448 24.9063 56.6866 33.9575 54.0003C34.2348 53.9058 34.5268 53.8256 34.8042 53.7383C44.1474 50.9792 53.7104 48.2847 63.4784 45.6623C64.15 45.4875 64.8071 45.3126 65.4495 45.1378L172.108 38.8428C173.668 35.1999 178.082 32.1165 185.336 29.5926C230.936 20.4087 275.773 19.3169 319.878 26.3026L319.971 44.3004L341.508 44.2627C341.567 44.3711 341.611 44.4796 341.656 44.5881C342.646 46.5764 343.373 48.587 343.851 50.627C344.135 51.8422 344.346 53.0721 344.455 54.3022C344.47 54.418 344.471 54.541 344.457 54.6568C344.611 56.2125 344.59 57.7829 344.423 59.368C344.353 60.005 344.268 60.642 344.169 61.2862C343.786 63.4869 343.14 65.7242 342.23 67.9837C342.187 68.0634 342.143 68.1503 342.1 68.2445L342.1 68.2734C341.956 68.6283 341.811 68.9904 341.638 69.3453C351.717 70.3263 362.153 69.7001 372.903 67.474C371.801 58.0029 370.67 48.5246 369.539 39.0464C369.538 38.9306 369.538 38.8076 369.537 38.6918L369.339 37.1941L374.568 33.2191C380.036 30.4234 385.799 27.9455 391.812 25.8145C402.713 21.9382 414.528 19.1458 427.239 17.4373C434.749 16.4254 442.568 15.7966 450.696 15.5435C466.719 15.0377 483.991 15.9989 502.47 18.4414L503.129 18.5705C503.553 18.6494 503.963 18.7211 504.373 18.7927C520.032 21.6165 534.375 21.4683 547.416 18.3626L578.523 11.5488C596.896 7.44946 612.482 7.42211 625.296 11.4667C634.713 14.4607 657.288 14.4573 693.036 11.4492C705.576 10.3995 719.736 8.97075 735.518 7.17727C738.35 6.42691 741.125 5.74178 743.856 5.11462C769.048 -0.624968 789.97 -0.690628 806.594 4.91046C817.73 9.35604 819.257 13.4205 811.132 17.1183C785.497 24.9211 760.838 23.4664 737.126 12.7685C736.47 13.0736 735.813 13.3787 735.157 13.6766C689.603 34.6565 647.567 45.8243 609.062 47.1728C605.627 47.3453 602.25 47.5755 598.947 47.8708C598.144 47.9446 597.325 48.0184 596.507 48.1067C595.747 48.1804 594.972 48.2613 594.213 48.335C593.438 48.416 592.649 48.5114 591.845 48.5997L589.098 48.9302C588.543 49.0108 587.988 49.0841 587.447 49.1647L547.423 59.3013C546.46 59.6938 545.497 60.079 544.549 60.4787C540.493 62.172 536.599 64.017 532.881 66.0209C531.831 66.5727 530.81 67.139 529.804 67.7197L538.73 66.1409C675.587 35.6291 815.254 22.5676 957.746 26.9709C1020.58 28.9086 1083.96 34.2467 1147.9 42.978C1177.01 47.3413 1195.83 53.5682 1204.37 61.6585L1215.3 421.983C1206.63 436.515 1188.28 447.837 1160.29 455.94C1143.62 459.718 1126.8 462.621 1109.81 464.641C1084.79 467.623 1059.44 468.695 1033.75 467.857C1017.47 467.336 1001.06 466.047 984.53 463.978C983.609 463.871 982.745 463.728 981.897 463.563C981.56 463.491 981.223 463.419 980.916 463.34C980.608 463.268 980.33 463.189 980.052 463.11C979.979 463.096 979.92 463.074 979.847 463.052C979.671 463.002 979.495 462.952 979.32 462.887C975.395 461.7 972.27 459.715 969.961 456.955C969.711 456.658 969.475 456.355 969.239 456.044C967.988 454.338 967.013 452.357 966.314 450.108L966.184 425.09C951.74 425.506 938.167 427.282 925.477 430.423L925.674 468.51C923.913 469.924 922.063 471.266 920.11 472.543C904.576 482.652 882.835 488.356 854.9 489.65C839.537 490.364 822.296 489.751 803.19 487.794C794.34 486.89 785.093 485.713 775.435 484.231C774.865 484.153 774.294 484.067 773.738 483.981C772.567 483.809 771.397 483.645 770.241 483.495ZM666.231 50.1626C643.936 53.3497 621.877 56.9779 600.068 61.0326C586.834 63.4657 573.718 66.0723 560.69 68.8379C500.911 81.4987 439.522 91.0143 376.479 97.363C326.179 102.409 275.883 105.341 225.605 106.138C211.862 106.365 198.118 106.44 184.359 106.341L184.286 106.341C177.678 106.389 171.2 106.386 164.84 106.31C112.42 105.678 68.0181 100.647 31.6501 91.2089C32.0358 97.9168 32.7763 113.844 33.8715 138.968C34.763 158.636 35.7667 174.555 36.8825 186.726C39.1956 176.026 39.554 160.531 37.9576 140.264C36.1796 118.817 36.0551 103.265 37.5841 93.6011C39.598 95.6818 40.8534 98.1039 41.2917 100.875C41.5637 102.568 41.5767 105.072 41.3308 108.416C41.4304 110.709 44.0949 167.782 49.3242 279.639C52.4871 348.253 54.128 405.327 54.2763 450.861C50.1781 435.924 48.048 414.239 47.9007 385.828C47.6571 355.759 46.053 333.994 43.0881 320.524C42.5374 329.918 43.1593 351.172 44.9976 384.27C46.5382 410.696 45.5068 431.728 41.9033 447.373C38.4711 408.604 35.3957 348.414 32.7064 266.794C30.1901 187.519 26.9404 127.546 22.9573 86.8676C22.8197 128.031 24.5709 186.617 28.2108 262.648C32.1389 343.477 34.2264 402.091 34.5028 438.485C33.8217 442.474 37.0419 445.978 44.1488 448.998C48.8088 451.023 55.9106 453.044 65.4687 455.068C79.8597 458.596 96.3376 461.382 114.917 463.434C129.122 465.008 146.426 466.36 166.843 467.497C177.067 468.188 187.291 468.8 197.543 469.324C205.47 469.73 213.396 470.085 221.322 470.39C266.364 472.077 311.764 472.135 357.52 470.542C421.374 468.353 484.1 463.018 545.729 454.551C560.968 452.44 578.732 449.572 599.037 445.947C611.775 443.659 625.52 441.081 640.258 438.204C689.7 428.499 720.812 422.525 733.58 420.295C813.975 407.656 892.861 400.179 970.254 397.851C981.481 397.52 992.694 397.298 1003.89 397.177C1005.02 397.16 1006.16 397.151 1007.3 397.135C1007.67 397.134 1008.03 397.133 1008.41 397.133L1032.99 397.191C1039.89 397.186 1046.79 397.253 1053.69 397.379C1090.49 398.356 1114.7 399.247 1126.36 400.045C1127.77 400.144 1129.14 400.243 1130.5 400.334C1155.89 402.258 1177.56 405.585 1195.53 410.323C1194.22 377.571 1191.38 318.596 1186.99 233.383C1183.2 158.655 1180.57 99.6791 1179.12 56.4416C1181.58 60.0774 1182.84 64.1206 1182.86 68.5856C1183.99 98.6527 1186.59 154.994 1190.7 237.603C1194.21 308.553 1196.54 364.895 1197.62 406.621C1197.19 408.778 1198.34 410.947 1201.07 413.114C1202.74 414.406 1205.76 416.152 1210.16 418.352C1209.33 375.989 1207.18 317.461 1203.73 242.776C1199.89 159.733 1197.48 101.205 1196.51 67.1939C1197.8 62.2996 1193.57 58.2544 1183.83 55.0728C1182.08 54.4607 1173 52.3346 1156.6 48.6798C1156.46 54.5274 1156.91 65.7075 1157.96 82.2129C1158.91 96.2507 1158.97 107.403 1158.14 115.676C1158.01 108.873 1157.25 97.5924 1155.85 81.8258C1154.64 67.3181 1154.07 56.0513 1154.1 48.0329C1095.5 39.9653 1035.76 35.0043 974.855 33.179C935.08 31.9968 894.799 32.1399 854.043 33.6153C789.678 35.9427 727.069 41.4513 666.231 50.1626ZM631.898 29.8801C631.827 33.0644 631.346 36.1916 630.426 39.2689C629.036 36.2318 628.056 33.3171 627.501 30.5391C626.463 25.0554 627.095 20.0899 629.397 15.6207C631.133 20.4808 631.976 25.2339 631.898 29.8801Z" fill="#100F0D"/>
</g>
<defs>
<filter id="filter0_f_47_15" x="0.651245" y="39.2948" width="1223.28" height="380.763" filterUnits="userSpaceOnUse" color-interpolation-filters="sRGB">
<feFlood flood-opacity="0" result="BackgroundImageFix"/>
<feBlend mode="normal" in="SourceGraphic" in2="BackgroundImageFix" result="shape"/>
<feGaussianBlur stdDeviation="15.5" result="effect1_foregroundBlur_47_15"/>
</filter>
<filter id="filter1_f_47_15" x="1.19153" y="48.7361" width="1222.2" height="380.22" filterUnits="userSpaceOnUse" color-interpolation-filters="sRGB">
<feFlood flood-opacity="0" result="BackgroundImageFix"/>
<feBlend mode="normal" in="SourceGraphic" in2="BackgroundImageFix" result="shape"/>
<feGaussianBlur stdDeviation="15.5" result="effect1_foregroundBlur_47_15"/>
</filter>
</defs>
</svg>
