<svg width="194" height="233" viewBox="0 0 194 233" fill="none" xmlns="http://www.w3.org/2000/svg">
<path d="M122.234 95.5103C120.079 95.4934 117.932 95.462 115.783 95.4378C123.806 99.7516 131.438 110.204 126.906 118.993C126.9 119 126.892 118.993 126.892 118.986C130.298 111.255 125.994 105.726 120.658 101.086C125.805 105.912 129.313 111.982 126.142 119.334C123.219 126.12 115.984 128.868 108.672 129.607C108.634 129.631 108.593 129.646 108.539 129.646C99.6572 130.293 90.7571 130.286 81.8509 130.409C74.9532 130.511 67.8825 130.956 60.9285 130.692C60.8662 130.721 60.7958 130.745 60.7094 130.745C54.9294 130.542 48.9203 130.598 43.9365 127.222C40.2474 124.733 37.9434 120.738 37.3805 116.356C36.6628 110.82 38.7094 105.817 42.2176 101.972C41.9582 102.207 41.7089 102.449 41.4596 102.707C36.8337 107.487 35.5752 114.179 37.8027 120.404C37.8188 120.443 37.7565 120.45 37.7404 120.419C33.4743 109.508 40.5208 98.4321 51.0855 94.9787C48.287 94.9642 45.4986 94.9472 42.7021 94.9231C36.5603 97.7312 31.8579 103.166 30.905 110.288C29.4514 121.154 37.0287 129.771 46.928 133.155C51.7791 134.825 56.9137 134.66 61.9679 134.716C66.7105 134.764 71.445 134.842 76.1956 134.912C77.5305 134.919 78.8675 134.936 80.1943 134.943C80.7573 134.95 81.3202 134.95 81.8831 134.95C82.444 134.95 83.0069 134.95 83.5618 134.943C84.8907 134.936 86.2176 134.919 87.5545 134.912C92.2971 134.842 97.0477 134.764 101.79 134.716C106.844 134.66 111.977 134.825 116.828 133.155C126.719 129.771 134.307 121.154 132.853 110.288C131.963 103.628 127.799 98.449 122.234 95.5103Z" fill="#E59C46"/>
<path d="M170.104 56.2467C168.206 60.8481 166.612 65.2923 165.331 69.8332C166.166 67.999 167.181 66.2541 168.393 64.6398C168.448 64.5697 168.548 64.6301 168.512 64.7099C164.503 72.3514 162.963 80.2201 163.158 88.8161C163.253 92.9124 163.424 96.9917 163.699 101.078C163.995 105.368 164.457 110.975 167.714 114.259C167.76 114.305 167.69 114.399 167.635 114.353C166.276 113.324 165.253 112.323 164.479 111.202C165.862 114.595 167.495 117.852 169.736 121.074C169.776 121.144 169.682 121.207 169.628 121.161C167.603 119.218 165.754 116.893 164.292 114.343C165.37 118.258 166.877 122.019 169.175 125.646C169.189 125.678 169.151 125.707 169.127 125.682C167.151 123.307 165.424 120.646 164.127 117.799C165.213 122.93 166.705 127.93 168.964 133C168.98 133.031 168.932 133.063 168.918 133.024C166.91 130.003 165.197 126.642 163.924 123.111C164.574 127.923 165.792 132.601 168.862 136.502C169.059 136.743 168.769 137.024 168.526 136.835C163.534 132.891 162.684 126.613 161.956 120.685C160.925 112.27 160.535 103.775 160.535 95.2976C160.517 78.6782 162.181 61.5513 166.902 45.5554C166.924 45.4998 167.002 45.5216 166.994 45.5844C166.276 50.3742 165.573 55.1471 164.949 59.9297C166.105 56.5029 167.511 53.1969 169.073 50.1084C169.111 50.0238 169.252 50.0842 169.23 50.1712C167.931 54.3907 166.55 58.5546 165.581 62.8442C166.769 60.4179 168.245 58.1583 169.98 56.1766C170.026 56.1211 170.136 56.1839 170.104 56.2467ZM177.456 72.5858C176.652 65.8457 175.378 59.1709 173.823 52.5734C173.174 49.8063 172.042 45.7971 170.08 42.9865V43.0179C170.088 43.1508 169.885 43.1677 169.845 43.0517C167.032 40.5384 164.831 40.6955 163.245 43.5399C162.776 44.1972 162.378 44.8981 162.042 45.6327C161.276 47.1214 160.627 48.7116 160.026 50.2727C158.932 53.1582 158.034 56.1138 157.151 59.0718C155.565 64.4344 154.011 69.8115 151.439 74.8091C150.064 77.4747 148.102 80.2056 145.744 82.5763C146.799 81.6121 147.774 80.5318 148.673 79.4032C153.386 73.4679 155.549 66.1454 157.495 58.9534C157.501 58.922 157.541 58.9365 157.541 58.9679C156.003 66.6916 153.924 74.9735 148.721 81.1336C145.308 85.1887 138.517 90.4716 132.704 89.401C132.055 89.4638 131.392 89.4783 130.728 89.4493C130.664 89.4638 130.604 89.4783 130.541 89.4952H129.602C116.251 89.5025 102.892 89.285 89.5769 89.2149C66.7647 89.1037 43.9284 89.2608 21.1162 88.8476C21.1062 88.8476 21.1062 88.8476 21.0981 88.8476C20.7322 88.8403 20.3724 88.8403 20.0065 88.8331C19.3249 88.8161 18.6374 88.8089 17.9579 88.792C17.8413 88.7316 17.7327 88.6784 17.6141 88.6059H17.606C16.3174 87.9123 15.1855 86.8901 14.3572 85.6261C13.6837 84.6039 12.1759 80.1596 9.66892 82.6536C9.15224 83.1708 8.81047 85.9621 8.67778 86.6556C8.36415 88.3014 8.20734 89.9399 8.14502 91.5784C8.20734 93.2169 8.36415 94.853 8.67778 96.4987C8.81047 97.1996 9.15224 99.986 9.66892 100.501C9.77949 100.609 9.88604 100.711 9.99862 100.788C9.40354 99.4543 9.41158 97.8255 9.34725 96.3199C9.17636 92.3807 9.57443 88.4101 10.4811 84.5652C10.4892 84.5193 10.5595 84.5338 10.5515 84.5821C9.75536 90.1743 9.34725 95.8825 11.1767 101.257C12.8032 101.218 13.8244 98.333 14.3572 97.5282C15.1855 96.2643 16.3174 95.2421 17.606 94.5581H17.6141C17.7327 94.4881 17.8493 94.4252 17.9739 94.3624C18.6454 94.3455 19.3189 94.3382 19.9884 94.3237C20.3583 94.3165 20.7242 94.3165 21.0981 94.3068C21.1062 94.3068 21.1062 94.3068 21.1162 94.3068C28.1768 94.1836 35.2394 94.1038 42.302 94.0651C43.1785 94.0579 44.045 94.0482 44.9196 94.0482C59.8107 93.9709 74.6958 94.0192 89.5769 93.9419C98.9455 93.8936 108.344 93.7776 117.743 93.7075C118.648 93.7075 119.556 93.7002 120.455 93.693C123.517 93.6761 126.573 93.6664 129.635 93.6664H130.306C133.328 93.3957 136.995 93.8066 139.767 95.2831C147.931 98.652 153.261 109.479 156.158 116.717C156.174 116.77 156.096 116.801 156.063 116.753C153.315 111.973 151.041 107.144 147.384 102.942C146.564 101.997 145.72 101.17 144.853 100.438C146.799 102.577 148.478 105.025 149.869 107.386C151.104 109.29 152.111 111.31 152.988 113.408C153.004 113.43 153.01 113.464 153.018 113.488C155.064 117.877 156.775 122.425 158.112 127.082C158.932 129.933 159.385 132.954 160.4 135.745C161.12 137.717 162.262 139.745 164.182 140.791C166.855 142.256 168.948 141.229 170.559 139.426C170.565 139.419 170.573 139.411 170.573 139.404C172.237 136.666 173.228 133.109 173.823 130.591C175.378 123.991 176.652 117.316 177.456 110.578C178.206 104.259 178.62 97.927 178.769 91.5856C178.62 85.2443 178.206 78.9126 177.456 72.5858Z" fill="#E59C46"/>
<path d="M104.004 151.137C102.265 146.855 100.198 142.2 99.243 137.56C89.6614 139.068 79.1409 138 69.4607 138.099C69.3743 138.099 69.3743 137.974 69.4607 137.959C74.2938 137.703 79.3399 137.135 84.3579 136.734C83.5316 136.763 82.7053 136.792 81.877 136.821C77.6994 136.678 73.5519 136.521 69.4326 136.492C67.3518 136.463 65.1685 136.48 62.9449 136.437C63.4154 139.54 64.3563 142.669 65.7555 145.886C68.1781 151.437 70.7856 156.857 70.6448 162.694C70.5302 167.759 68.7892 173.025 65.5685 177.822C66.4813 176.669 67.3357 175.432 68.0775 173.977C71.3847 167.546 71.5837 161.058 70.486 154.112C70.486 154.083 70.5302 154.069 70.5302 154.098C73.6082 163.477 71.1434 176.669 63.0736 183.301C65.456 182.506 67.8222 181.679 70.088 180.71C74.6496 178.774 78.5558 176.44 82.5485 174.134C82.7053 174.05 82.8762 173.951 83.0471 173.851C83.4753 174.12 83.9015 174.405 84.3298 174.69C87.0096 176.483 89.6192 178.533 92.0276 180.739C90.3168 178.69 88.4209 176.824 86.4246 175.045C86.3402 174.975 86.4407 174.847 86.5251 174.903C89.39 176.911 91.9995 179.187 94.4522 181.679C96.0485 183.301 98.0167 185.464 99.1566 187.699C105.743 176.896 107.781 164.629 103.191 152.462C103.175 152.43 103.234 152.404 103.248 152.445C106.541 160.004 107.582 167.931 106.028 175.459C108.153 167.732 107.51 159.733 104.004 151.137Z" fill="#A23E1F"/>
<path d="M80.1944 134.943C80.7512 134.955 81.3222 134.955 81.8771 134.955C82.448 134.955 83.0049 134.955 83.5598 134.943C84.8847 134.929 86.2115 134.914 87.5505 134.914C91.2999 134.856 95.0352 134.786 98.7847 134.757C98.6138 133.191 98.6279 131.639 98.8571 130.117C93.1957 130.303 87.5223 130.33 81.8489 130.417C75.504 130.501 69.0044 130.885 62.6032 130.728C62.5469 132.053 62.6032 133.389 62.7319 134.728C67.2231 134.771 71.6983 134.844 76.1896 134.914C77.5305 134.914 78.8695 134.929 80.1944 134.943Z" fill="#A23E1F"/>
<path d="M169.98 56.1694C168.243 58.1632 166.773 60.4252 165.577 62.8442C166.546 58.5595 167.927 54.3907 169.226 50.1785C169.254 50.077 169.111 50.0214 169.069 50.106C167.515 53.1945 166.104 56.5102 164.95 59.9273C165.577 55.1447 166.274 50.3766 167 45.582C167 45.553 166.972 45.524 166.946 45.524C166.93 45.524 166.916 45.524 166.902 45.553C162.183 61.5489 160.515 78.6831 160.529 95.2928C160.529 103.775 160.929 112.27 161.954 120.682C162.682 126.615 163.536 132.891 168.526 136.835C168.582 136.879 168.641 136.891 168.697 136.891C168.87 136.891 169.011 136.693 168.87 136.507C165.788 132.609 164.578 127.925 163.922 123.116C165.205 126.644 166.916 130.003 168.912 133.019C168.926 133.063 168.982 133.034 168.968 133.005C166.703 127.925 165.219 122.93 164.121 117.794C165.418 120.639 167.157 123.3 169.125 125.69C169.153 125.704 169.198 125.678 169.169 125.649C166.874 122.019 165.376 118.263 164.292 114.348C165.748 116.895 167.601 119.215 169.624 121.163C169.68 121.207 169.781 121.151 169.738 121.079C167.501 117.85 165.86 114.59 164.477 111.204C165.249 112.328 166.274 113.324 167.627 114.348C167.686 114.406 167.756 114.305 167.714 114.261C164.449 110.977 163.993 105.368 163.693 101.071C163.424 96.9845 163.253 92.9148 163.152 88.8162C162.967 80.2201 164.507 72.3514 168.512 64.7075C168.554 64.6374 168.442 64.5673 168.399 64.6374C167.187 66.259 166.16 67.9966 165.334 69.8332C166.616 65.2923 168.198 60.8529 170.108 56.2395C170.138 56.1839 170.024 56.1259 169.98 56.1694Z" fill="#040606"/>
<mask id="mask0_22_1969" style="mask-type:luminance" maskUnits="userSpaceOnUse" x="7" y="39" width="173" height="154">
<path d="M7.28857 39.985H179.821V192.641H7.28857V39.985Z" fill="white"/>
</mask>
<g mask="url(#mask0_22_1969)">
<path d="M177.452 110.578C176.652 117.309 175.384 123.998 173.829 130.586C173.303 132.792 172.474 135.794 171.166 138.343C170.979 138.699 170.794 139.056 170.579 139.397C170.579 139.411 170.565 139.426 170.55 139.426C168.954 141.231 166.857 142.256 164.179 140.789C162.255 139.752 161.114 137.715 160.4 135.738C159.389 132.949 158.932 129.933 158.104 127.086C156.779 122.417 155.068 117.879 153.016 113.481C153.016 113.466 153.002 113.437 152.987 113.411C152.117 111.318 151.106 109.295 149.865 107.388C148.482 105.027 146.799 102.579 144.847 100.445C145.718 101.17 146.558 101.994 147.384 102.934C151.033 107.147 153.315 111.97 156.067 116.753C156.096 116.796 156.18 116.767 156.152 116.709C153.259 109.481 147.927 98.652 139.771 95.2783C137.847 94.2537 135.481 93.7413 133.215 93.6422C133.199 93.6422 133.199 93.6422 133.185 93.6422C132.202 93.5697 131.219 93.5842 130.306 93.6712H129.636C126.571 93.6712 123.521 93.6712 120.455 93.6978C119.558 93.6978 118.644 93.7123 117.747 93.7123C108.352 93.7848 98.9434 93.8984 89.5749 93.9419C74.6918 94.0265 59.8087 93.9685 44.9256 94.0555C44.043 94.0555 43.1725 94.0555 42.302 94.07C35.2454 94.1111 28.1748 94.1836 21.1182 94.3117C21.1041 94.3117 21.1041 94.3117 21.1041 94.3117C20.7181 94.3117 20.3623 94.3117 19.9924 94.3237C19.3209 94.3382 18.6514 94.3527 17.9679 94.3672C17.8533 94.4252 17.7246 94.4808 17.61 94.5509C16.3133 95.2493 15.1875 96.2595 14.3592 97.5258C13.8184 98.3378 12.8071 101.214 11.1807 101.257C9.34117 95.8897 9.75532 90.1671 10.5555 84.5773C10.5555 84.5338 10.4831 84.5193 10.4831 84.5628C9.57036 88.4053 9.17029 92.3735 9.34117 96.3175C9.41355 97.8255 9.39948 99.4616 9.99858 100.786C9.88399 100.716 9.78347 100.614 9.66887 100.501C9.15622 99.9884 8.81445 97.1996 8.67171 96.5036C8.35808 94.8506 8.20127 93.2145 8.14498 91.5784C8.20127 89.9399 8.35808 88.3038 8.67171 86.6532C8.81445 85.9548 9.15622 83.166 9.66887 82.6537C12.1799 80.1645 13.6897 84.6039 14.3592 85.6286C15.1875 86.8973 16.3133 87.9051 17.61 88.6035C17.7246 88.676 17.8392 88.7316 17.9518 88.7896C18.6373 88.8017 19.3209 88.8162 20.0064 88.8307C20.3764 88.8452 20.7342 88.8452 21.1041 88.8452C21.1041 88.8452 21.1041 88.8452 21.1182 88.8452C43.9264 89.2584 66.7647 89.1013 89.5749 89.2173C102.892 89.2874 116.249 89.5001 129.606 89.5001H130.535C130.605 89.4856 130.662 89.4566 130.734 89.4445C131.39 89.4856 132.061 89.4566 132.7 89.401C132.958 89.4566 133.215 89.4856 133.486 89.5146C139.116 89.9979 145.46 85.0027 148.725 81.1312C153.928 74.9711 155.995 66.6867 157.535 58.9727C157.535 58.9292 157.507 58.9147 157.493 58.9582C155.553 66.1454 153.386 73.4607 148.667 79.4105C147.768 80.5342 146.799 81.6169 145.744 82.5836C148.096 80.2056 150.064 77.4747 151.433 74.814C154.013 69.8042 155.569 64.4368 157.149 59.0718C158.034 56.1114 158.932 53.1534 160.03 50.2776C160.629 48.7116 161.268 47.1166 162.04 45.6376C162.382 44.8981 162.782 44.1997 163.237 43.5472C164.734 40.8695 166.773 40.5722 169.368 42.6337C169.525 42.7642 169.68 42.9043 169.853 43.0469C169.881 43.1629 170.096 43.1484 170.08 43.0203V42.9913C172.048 45.7947 173.174 49.8063 173.829 52.5686C175.384 59.1709 176.652 65.8457 177.452 72.5931C178.206 78.9127 178.62 85.2443 178.761 91.5929C178.62 97.9246 178.206 104.256 177.452 110.578ZM132.859 110.293C134.313 121.151 126.713 129.776 116.834 133.162C111.973 134.829 106.84 134.658 101.794 134.716H101.408C101.251 133.162 101.237 131.598 101.38 130.032C103.76 129.948 106.157 129.817 108.537 129.648C108.593 129.648 108.636 129.634 108.68 129.605C115.978 128.865 123.221 126.117 126.144 119.329C129.307 111.985 125.801 105.909 120.656 101.086C126 105.726 130.292 111.26 126.898 118.986H126.912C131.432 110.206 123.806 99.7467 115.779 95.433C117.932 95.462 120.085 95.491 122.236 95.5055C127.797 98.4514 131.961 103.633 132.859 110.293ZM104.004 151.137C107.51 159.733 108.153 167.732 106.028 175.458C107.582 167.931 106.541 160.004 103.248 152.445C103.234 152.403 103.175 152.43 103.191 152.461C107.781 164.629 105.743 176.896 99.1565 187.699C98.0166 185.463 96.0484 183.301 94.4522 181.679C91.9995 179.187 89.3899 176.911 86.5251 174.903C86.4407 174.847 86.3401 174.975 86.4246 175.045C88.4209 176.824 90.3167 178.69 92.0276 180.739C89.6191 178.532 87.0096 176.483 84.3297 174.69C83.9015 174.405 83.4753 174.12 83.0471 173.851C82.8762 173.95 82.7053 174.05 82.5485 174.134C78.5558 176.44 74.6496 178.774 70.0879 180.71C67.8222 181.679 65.4559 182.505 63.0736 183.301C71.1434 176.669 73.6082 163.477 70.5302 154.098C70.5302 154.069 70.486 154.083 70.486 154.112C71.5837 161.058 71.3846 167.546 68.0775 173.977C67.3357 175.432 66.4812 176.669 65.5685 177.822C68.7892 173.025 70.5302 167.759 70.6448 162.694C70.7855 156.857 68.178 151.437 65.7555 145.886C64.3562 142.669 63.4154 139.54 62.9449 136.437C65.1684 136.48 67.3517 136.463 69.4325 136.492C73.5519 136.521 77.6994 136.678 81.877 136.821C82.7053 136.792 83.5316 136.763 84.3579 136.734C79.3399 137.135 74.2937 137.703 69.4607 137.959C69.3742 137.974 69.3742 138.099 69.4607 138.099C79.1408 138 89.6613 139.068 99.243 137.56C100.198 142.2 102.265 146.855 104.004 151.137ZM98.0287 136.507C97.8578 136.492 97.6869 136.48 97.5301 136.48C97.6869 136.48 97.8578 136.463 98.0166 136.463C98.0166 136.48 98.0287 136.492 98.0287 136.507ZM62.6031 130.728C69.0043 130.885 75.504 130.501 81.8489 130.417C87.5223 130.33 93.1957 130.303 98.857 130.117C98.6278 131.639 98.6137 133.191 98.7846 134.757C95.0352 134.786 91.2998 134.856 87.5504 134.914C86.2115 134.914 84.8846 134.929 83.5597 134.943C83.0049 134.955 82.448 134.955 81.877 134.955C81.3221 134.955 80.7512 134.955 80.1943 134.943C78.8694 134.929 77.5305 134.914 76.1895 134.914C71.6983 134.844 67.2231 134.771 62.7318 134.728C62.6031 133.389 62.5469 132.053 62.6031 130.728ZM113.611 95.4209H113.654C113.698 95.4475 113.754 95.491 113.782 95.52C113.74 95.491 113.67 95.4475 113.611 95.4209ZM60.7355 129.663C60.0519 129.704 59.3684 129.762 58.6828 129.832C49.2741 129.506 38.7958 126.274 38.1263 115.23C37.6277 106.847 43.086 100.87 49.8149 97.1561C50.8985 96.6317 52.0103 96.1048 53.124 95.549C53.5643 95.3629 54.0207 95.1792 54.463 95.0077C66.1817 95.0632 77.9004 95.0777 89.6051 95.1623C97.2748 95.2203 104.959 95.3194 112.628 95.4064C119.357 101.881 130.248 108.159 125.201 119.003C120.797 128.437 110.59 128.58 101.551 128.708C100.725 128.723 99.9125 128.737 99.1143 128.752C98.7846 128.766 98.4428 128.766 98.1151 128.778C97.9744 128.778 97.886 128.851 97.8297 128.935C92.2568 128.964 86.6678 129.136 81.0789 129.235C75.0054 129.348 68.7892 129.206 62.6614 129.547C62.0181 129.578 61.3768 129.619 60.7355 129.663ZM46.9219 133.162C37.0286 129.776 29.4574 121.151 30.8969 110.293C31.8518 103.161 36.5582 97.7264 42.702 94.9207C45.4965 94.9497 48.291 94.9642 51.0835 94.9787C40.5207 98.4369 33.4782 109.51 37.7403 120.426C37.7544 120.455 37.8127 120.441 37.7966 120.412C35.5731 114.177 36.8296 107.487 41.4616 102.707C41.7029 102.451 41.9602 102.209 42.2175 101.98C38.7093 105.825 36.6587 110.82 37.3845 116.354C37.9394 120.738 40.2493 124.737 43.9425 127.215C48.9022 130.586 54.8892 130.542 60.649 130.743C60.5505 132.067 60.5787 133.389 60.7073 134.699C56.0753 134.672 51.383 134.687 46.9219 133.162ZM178.52 72.6076C178.192 70.116 177.836 67.6413 177.422 65.1642C176.296 58.5595 175.341 51.0026 172.318 44.9392C171.692 43.6897 170.778 42.479 169.668 41.5123C169.212 40.6568 168.411 40.2001 167.501 40.0575C167.444 40.0309 167.386 40.0019 167.33 39.9874C167.257 40.0019 167.187 40.0164 167.115 40.0309C166.031 39.9874 164.807 40.3862 163.852 41.1692C159.389 44.799 157.378 52.0562 155.796 57.3222C154.156 62.7887 152.817 68.5065 150.263 73.6588C147.328 78.6275 143.15 82.8663 138.247 85.8412C136.164 86.7402 134.069 87.2091 131.902 87.6199C117.803 87.6199 103.676 87.8906 89.6051 87.9897C66.4249 88.1612 43.2006 88.0622 20.0205 88.56H20.0064C18.7218 88.1467 17.5397 87.5353 16.442 86.5832C14.6467 85.0317 14.5039 82.8808 13.0906 81.2737C12.2925 80.3482 11.2672 79.8237 10.1554 80.4762C8.9994 81.1747 8.4586 82.9388 8.14498 84.6619C7.93187 85.8557 7.83135 87.0254 7.70269 87.806C7.51773 89.0602 7.37499 90.3266 7.30261 91.5929C7.37499 92.8447 7.51773 94.1111 7.70269 95.3484C7.83135 96.1459 7.93187 97.3132 8.14498 98.5094C8.4586 100.216 8.9994 101.98 10.1554 102.678C11.2672 103.348 12.2925 102.806 13.0906 101.895C14.5039 100.274 14.6467 98.1397 16.442 96.5737C17.5256 95.6336 18.7218 95.0222 19.9924 94.6089C26.8197 94.7515 33.6491 94.8506 40.4785 94.9086C36.4134 97.028 33.0782 100.501 31.2527 104.911C27.7606 113.309 30.3138 122.944 36.8417 129.121C41.7471 133.759 48.3332 135.453 55.0902 136.079C57.0283 136.265 58.9824 136.35 60.9204 136.408C61.7045 141.475 63.7712 146.555 66.0389 151.92C71.455 164.743 67.5508 175.729 56.0311 185.534C55.5325 185.976 55.0058 186.389 54.477 186.817C55.5607 186.645 56.6583 186.433 57.756 186.203C67.1085 184.212 76.9595 180.055 83.6301 175.205C86.895 178.375 90.2021 181.478 93.0409 184.852C94.7517 186.901 96.2193 189.035 97.703 191.157C98.0568 191.669 98.4147 192.167 98.7726 192.665C99.3556 192.039 99.9265 191.399 100.469 190.744C106.868 183.1 109.806 174.192 109.392 165.511C108.907 155.349 103.105 145.999 101.621 136.437C103.961 136.393 106.328 136.294 108.68 136.079C115.437 135.453 121.995 133.759 126.912 129.121C133.442 122.944 136.009 113.309 132.501 104.911C130.835 100.914 127.94 97.6829 124.375 95.52C127.582 95.5345 130.79 95.549 133.997 95.5345C135.254 95.9042 136.452 96.361 137.562 96.9144C139.53 98.0527 141.381 99.377 143.094 100.87C145.189 102.905 147.015 105.397 148.625 108.229C152.431 114.89 155.281 122.132 157.235 129.547C158.448 134.175 159.174 140.704 164.491 142.57C165.148 142.797 165.804 142.911 166.417 142.911C166.546 142.966 166.686 143.01 166.815 143.053C166.972 143.097 167.145 143.152 167.302 143.181C167.515 143.097 167.7 142.995 167.899 142.882C168.198 142.739 168.484 142.556 168.755 142.355C170.251 141.632 171.435 140.236 172.135 138.57C172.135 138.57 172.147 138.556 172.147 138.541C172.219 138.442 172.261 138.329 172.318 138.23C175.341 132.166 176.296 124.595 177.422 117.993C177.836 115.515 178.192 113.041 178.52 110.549C179.318 104.256 179.776 97.9246 179.816 91.5784C179.776 85.2443 179.318 78.8982 178.52 72.6076Z" fill="#040606"/>
</g>
</svg>
