<svg width="338" height="134" viewBox="0 0 338 134" fill="none" xmlns="http://www.w3.org/2000/svg">
<path d="M283.748 131.737C297.263 133.877 309.787 132.878 319.006 128.924C322.964 127.228 331.987 122.666 330.341 117.013C330.464 114.115 330.472 111.22 330.479 108.418C330.484 106.266 330.487 104.041 330.55 101.85L330.585 100.529C330.628 98.3821 330.678 96.1646 331.105 94.0788C331.178 93.7226 331.273 93.3733 331.362 93.0303C331.712 91.7331 332.037 90.5042 331.151 89.1555C330.394 88.0076 328.968 87.1433 327.439 86.9011C327.302 86.8795 327.161 86.8643 327.023 86.8533L327.031 86.4434L332.506 86.6361C333.032 84.447 333.81 82.2619 334.565 80.1451C334.79 79.5207 335.011 78.8957 335.228 78.2735L335.881 76.4077C336.431 74.8392 336.977 73.2665 337.498 71.6862C339.403 65.8633 330.286 58.6952 323.261 53.8169C316.039 48.7993 307.107 44.5965 296.713 41.3308C289.51 39.0645 281.637 37.2477 273.302 35.9275C262.138 34.1593 249.745 33.1993 235.427 32.9909C216.027 32.7138 196.545 34.2593 177.711 35.7598C155.288 37.5393 132.099 39.3851 108.909 38.1539C97.1399 37.5307 86.7632 36.6915 77.1927 35.5869L76.9014 35.5516L76.9771 35.3219C77.4992 33.7346 77.7209 32.0312 77.9247 30.3863C78.0903 29.0924 78.2638 27.7492 78.5818 26.4578C79.181 24.0531 80.1191 21.7418 81.023 19.508L81.5826 18.125C82.2949 17.4047 82.7007 16.6898 82.8651 15.8719C83.2457 14.0205 81.9661 12.1478 79.0563 10.3127C72.3961 6.1054 63.165 4.23576 55.8644 3.07946C54.7782 2.90743 53.7074 2.74865 52.6617 2.59744C44.493 1.40825 32.4012 0.0954539 21.7578 2.3737C15.2311 3.77463 9.30464 7.69808 10.7823 13.31C9.96411 16.7116 9.48184 20.17 9.0126 23.5186C8.84386 24.7218 8.67567 25.9216 8.49101 27.115C6.50237 40.0843 4.96443 47.8372 3.83621 53.1411C3.47146 54.8651 2.98279 56.6272 2.50414 58.326C1.7691 60.9544 1.01161 63.6695 0.690849 66.3563L0.681375 66.4162L0.634681 66.4629C0.495713 66.596 0.478596 66.7592 0.583887 66.949C0.626402 67.1216 0.670628 67.2008 0.749129 67.2565C6.81582 77.5268 21.244 82.6686 31.5665 85.6417C39.4324 87.9155 47.9212 89.7578 57.5261 91.2791C64.6223 92.403 72.3007 93.3522 81.7003 94.2675C99.2224 95.975 117.869 96.9518 140.38 97.3432L141.342 97.3621C161.038 97.697 176.096 97.7303 190.166 97.47C198.784 97.3093 206.756 97.0425 214.533 96.6511C218.595 96.4505 222.668 96.2082 226.637 95.9315C227.82 95.8484 229.062 95.6989 230.259 95.5566C232.378 95.3007 234.568 95.038 236.657 95.1056C237.057 94.1265 237.545 93.1651 238.024 92.2346C238.392 91.5102 238.761 90.7823 239.096 90.0454L239.55 90.2076C239.314 90.7364 239.479 92.1441 239.606 93.2751C239.667 93.7717 239.714 94.2192 239.729 94.5642C242.735 94.1386 245.608 94.3592 248.65 94.5885C249.409 94.6474 250.177 94.7041 250.955 94.7552C251.241 94.7681 252.006 94.8494 253.028 94.9537C255.667 95.2201 262.671 95.9362 263.258 95.6181L263.671 95.8494C263.37 96.3716 263.199 97.0118 263.041 97.6252C262.902 98.1442 262.765 98.678 262.543 99.1406L262.38 99.4538C261.665 100.657 260.889 101.919 259.955 103.077C259.422 103.739 258.724 104.343 258.042 104.927C257.131 105.717 256.189 106.535 255.669 107.477C253.941 110.608 254.02 114.383 255.877 118.1C258.219 122.774 263.552 126.428 271.731 128.961C275.547 130.146 279.591 131.078 283.744 131.736L283.748 131.737Z" fill="#F6E3BA"/>
<path d="M304.115 53.8938C305.311 55.8542 299.952 77.5629 293.53 86.8218C293.53 86.8218 249.046 83.5454 175.668 88.0284C102.291 92.5078 51.6946 83.4662 51.4525 82.4035C51.2115 81.3338 24.9428 62.0999 39.7532 36.3515C70.9588 42.6646 142.729 50.948 219.479 40.8314C268.483 39.0021 298.536 44.79 304.115 53.8938Z" fill="#F6E9CD"/>
<path d="M151.419 89.0679C156.325 89.2461 161.227 89.4202 166.134 89.5879C184.125 90.2083 202.327 91.2878 220.2 90.2591C238.446 89.2104 257.119 91.0425 275.223 89.0731C277.058 88.8767 277.497 86.9553 276.323 86.0443C256.985 85.4631 222.116 85.1919 175.668 88.0284C167.273 88.5419 159.173 88.875 151.419 89.0679Z" fill="#F9ECD1"/>
<path d="M63.8666 83.6664C66.9917 83.7285 70.1024 83.6333 73.2497 83.9694C73.2843 83.9713 73.3184 83.9767 73.3525 83.9821C74.1916 84.115 74.6659 84.7312 74.7192 85.36C87.0882 86.8249 99.8447 86.9734 111.901 87.4906C125.076 88.0588 138.249 88.5834 151.419 89.0679C159.173 88.875 167.273 88.5419 175.668 88.0284C222.116 85.1919 256.985 85.4631 276.323 86.0443C276.055 85.8359 275.704 85.6793 275.261 85.6092C275.244 85.6065 275.227 85.6038 275.21 85.6011C256.947 83.0331 238.474 84.1037 220.16 82.1265C212.301 81.2748 204.403 80.803 196.507 80.4795C202.579 80.323 208.647 80.1371 214.711 79.8964C226.056 79.4462 240.036 79.81 249.985 75.3009C251.537 74.5981 251.107 72.265 249.442 71.727C247.841 71.2175 246.244 70.8562 244.642 70.6026C240.579 69.959 236.474 69.9905 232.259 69.8857C225.457 69.7173 218.662 69.8891 211.886 70.053C210.747 70.0782 209.604 70.1027 208.464 70.1313C211.067 69.7393 213.666 69.3213 216.265 68.9251C220.913 68.2221 226.036 67.9117 230.266 66.2336C232.521 65.3392 232.674 62.0053 229.764 61.5445C229.684 61.5317 229.598 61.5217 229.516 61.5124C227.818 61.348 226.082 61.2787 224.326 61.282C227.542 60.6082 230.677 59.7775 233.633 58.6801C235.391 58.028 235.67 55.6304 233.997 54.8064C237.222 54.5958 240.453 54.3788 243.677 54.1465C250.8 53.6372 259.446 53.6611 265.531 50.4734C266.846 49.7799 266.497 47.9573 265.068 47.4135C263.409 46.7828 261.639 46.351 259.807 46.0609C254.074 45.1528 247.722 45.6183 242.269 45.642C233.958 45.6819 225.633 45.6726 217.321 45.7737C201.121 45.9743 184.945 46.4384 168.744 46.6173C152.149 46.7988 135.544 46.8307 118.927 46.7128C102.59 46.5924 85.3265 45.2937 69.3307 47.5682C64.9088 48.1952 64.6872 53.4262 69.3577 54.3174C70.4771 54.5272 71.5983 54.7264 72.727 54.9052C84.3808 56.7509 96.5493 56.8351 108.449 56.8262C108.068 57.9598 108.564 59.2683 110.288 60.0174C113.537 61.4229 117.187 62.3616 120.985 63.0211C118.23 63.0788 115.531 63.2788 112.964 63.7128C109.913 64.2322 108.427 68.0762 112.073 69.3426C113.993 70.011 116.005 70.5354 118.07 70.9561C116.648 70.9438 115.225 70.942 113.804 70.9297C107.938 70.8591 101.452 70.1276 96.0596 72.0292C93.941 72.7793 92.9724 74.7323 93.4123 76.4756C81.3079 75.9039 69.0832 75.7062 57.6414 77.5117C55.4692 77.8566 54.8059 79.5081 55.5618 80.8001C55.9174 80.8708 56.2783 80.9352 56.6387 81.0031C57.6437 81.1911 58.3335 81.7981 58.6671 82.5038C60.381 82.9303 62.1186 83.3174 63.8666 83.6664Z" fill="#F9F0DE"/>
<path d="M9.8387 67.1524C10.2604 67.2191 10.6949 67.205 11.1092 67.0975C11.3996 63.2516 12.485 59.2936 12.9385 56.2924C14.1471 48.3033 15.6186 40.3631 16.7713 32.3688C16.8926 31.5477 17.3579 31.0082 17.9803 30.7172C17.8299 29.5716 17.6636 28.4163 17.4814 27.2513C17.3532 26.4339 16.6099 25.9446 15.8091 25.8178C14.8124 25.6599 13.7228 26.0609 13.6103 27.0746C12.8701 33.6229 11.6495 40.2539 10.3209 46.7126C9.10725 52.5836 6.06067 59.0552 7.46792 65.1393C7.72576 66.2406 8.727 66.9763 9.8387 67.1524Z" fill="#F9ECD1"/>
<path d="M17.1144 22.8144C18.963 23.1072 20.8836 22.6972 22.2064 21.2367C25.9549 17.0874 30.5558 14.0072 35.7938 12.3625C36.154 12.1562 36.5136 11.9534 36.8694 11.7465C37.9317 11.1321 39.0878 10.9725 40.1697 11.1439C40.3614 11.1742 40.5557 11.2158 40.744 11.2673C43.6739 10.8801 46.7598 10.9144 49.9629 11.4217C51.8157 11.7152 53.7085 12.1701 55.6406 12.7899C55.8529 12.856 56.0588 12.9066 56.2675 12.9397C59.3982 13.4355 61.9883 10.1487 58.955 8.21105C54.5452 5.39895 49.6064 3.6104 44.5846 2.81502C31.6445 0.765512 18.2053 5.31334 12.1444 15.8197C10.2623 19.0744 13.545 22.2491 17.1144 22.8144Z" fill="#F9ECD1"/>
<path d="M327.904 86.9964C327.944 86.8225 327.989 86.6493 328.034 86.4796L327.031 86.4434L327.023 86.8533C327.161 86.8643 327.302 86.8795 327.439 86.9011C327.596 86.9261 327.748 86.9574 327.904 86.9964Z" fill="#A4A7AA"/>
<path d="M323.623 106.914C324.345 106.624 324.921 106.052 325.103 105.175C326.314 99.2966 326.52 93.277 327.809 87.3999C327.839 87.264 327.869 87.1316 327.904 86.9964C327.748 86.9574 327.596 86.9261 327.439 86.9011C327.302 86.8795 327.161 86.8643 327.023 86.8533L327.031 86.4434L328.034 86.4796C329.331 81.6499 332.312 76.6395 331.895 71.668C331.844 71.108 331.312 70.7425 330.724 70.6494C330.366 70.5927 329.983 70.6403 329.686 70.8096C327.871 71.8171 326.442 73.2642 325.287 74.9316C325.497 82.8135 325.401 90.7228 324.123 98.4051C323.903 99.7408 323.401 100.895 322.694 101.887C323.029 103.602 323.486 105.269 323.623 106.914Z" fill="#F9ECD1"/>
<path d="M290.775 127.811C292.449 128.076 294.076 128.254 295.593 128.35C304.508 128.933 315.935 127.363 320.787 120.68C320.831 120.625 320.867 120.566 320.902 120.51C320.75 120.504 320.591 120.486 320.425 120.46C320.425 120.46 320.421 120.459 320.416 120.459C316.405 119.819 312.717 118.316 308.892 117.133C304.845 117.985 300.789 118.702 296.353 118.397C295.562 118.344 294.787 118.25 294.025 118.129C289.825 117.464 285.994 115.901 282.052 114.66C282.588 114.579 283.121 114.469 283.641 114.302C284.243 114.109 284.71 113.862 285.171 113.52C285.61 113.279 285.939 112.971 286.166 112.585C286.331 112.34 286.42 112.217 286.429 112.219C286.437 112.22 286.37 112.343 286.218 112.586C286.25 112.548 286.675 112.096 286.736 112.018C286.958 111.772 287.14 111.505 287.278 111.213C287.438 110.752 287.519 110.519 287.51 110.518C287.51 110.518 287.503 110.539 287.483 110.582C287.989 109.126 286.802 107.715 285.17 107.457C284.838 107.404 284.486 107.395 284.128 107.45C283.85 107.439 283.571 107.438 283.373 107.446C283.265 107.415 283.202 107.397 283.193 107.396C283.185 107.395 283.234 107.413 283.355 107.447L283.325 107.449C282.985 107.363 282.56 107.256 282.514 107.249C282.395 107.226 282.31 107.209 282.242 107.199C282.098 107.143 281.959 107.085 281.942 107.079C281.474 106.896 280.972 106.756 280.469 106.676C279.86 106.58 279.242 106.568 278.646 106.665C277.557 106.842 276.598 107.159 275.88 107.756C276.216 107.835 276.565 107.919 276.924 108.001C279.454 108.564 280.52 111.871 277.654 112.568C277.522 112.601 277.397 112.649 277.272 112.691C277.76 113.277 278.193 113.908 278.519 114.609C279.638 117.026 277.162 118.766 274.764 118.386C273.963 118.259 273.173 117.896 272.53 117.246C272.631 117.352 272.668 117.39 272.66 117.389C272.626 117.383 272.157 116.981 271.935 116.892C271.848 116.86 271.753 116.83 271.657 116.801C271.692 116.907 271.732 117.018 271.776 117.126C274.376 123.453 283.049 126.587 290.775 127.811Z" fill="#F9ECD1"/>
<path d="M320.902 120.51C323.727 120.644 325.445 117.875 323.715 115.841C323.39 115.465 323.026 115.09 322.643 114.723C322.938 113.803 322.703 112.694 321.918 111.942C322.44 111.736 322.881 111.402 323.079 110.925C323.631 109.591 323.733 108.259 323.623 106.914C323.073 107.13 322.435 107.187 321.818 107.09C320.638 106.903 319.52 106.156 319.207 104.909C317.568 98.4993 318.627 91.951 320.624 85.847C321.732 82.4625 322.975 78.2553 325.287 74.9316C325.19 71.3274 325.026 67.7306 324.88 64.1583C326.545 64.4221 328.244 64.5577 330.06 64.4774C333.489 64.328 333.096 60.3342 330.036 59.6656C326.8 58.9511 323.758 58.2276 321.188 56.2588C320.546 55.7675 319.861 55.4859 319.175 55.3773C316.978 55.0292 314.811 56.4426 314.286 58.2963C314.188 58.6344 314.091 58.9725 313.99 59.3099C313.918 58.7142 313.376 58.3614 312.788 58.2683C312.047 58.151 311.228 58.4432 311.163 59.1832C310.518 66.6195 309.5 75.526 304.725 81.7779C300.563 87.2143 294.462 88.2933 288.094 91.1223C287.238 91.5062 286.879 92.1996 286.889 92.9405C285.479 93.6009 285.586 95.8469 287.28 96.3425C288.836 96.7982 290.445 97.1467 292.093 97.4078C294.091 97.7242 296.139 97.9116 298.204 98.0005C297.519 99.0968 297.564 100.608 298.516 101.57C298.61 101.665 298.71 101.749 298.805 101.84C297.869 101.63 296.931 101.431 295.996 101.243C295.92 101.228 295.844 101.212 295.767 101.2C294.468 100.994 293.324 101.296 292.375 101.857C292.242 101.54 292.012 101.226 291.655 100.945C291.236 100.616 290.763 100.292 290.272 99.9725C290.274 98.8294 289.476 97.6642 287.726 97.3834C286.032 97.1079 284.277 96.7758 282.512 96.4818C281.173 96.0858 279.804 95.768 278.437 95.5515C274.561 94.9375 270.733 95.15 267.916 96.7238C266.057 97.7639 267.18 99.9146 269.08 100.407C269.516 100.519 269.956 100.607 270.403 100.678C273.227 101.125 276.169 100.826 279.03 101.233C279.163 101.25 279.295 101.271 279.423 101.291C282.903 101.842 286.028 103.037 289.319 104.171C289.493 104.231 289.665 104.273 289.831 104.299C289.887 104.308 289.943 104.313 289.994 104.318C288.804 106.236 288.497 108.041 288.799 110.379C288.964 111.65 290.267 112.657 291.703 112.885C292.256 112.972 292.829 112.94 293.359 112.765C293.722 112.649 294.052 112.524 294.374 112.395C298.068 114.816 301.893 115.288 306.327 116.402C307.192 116.622 308.048 116.869 308.892 117.133C311.661 116.547 314.427 115.903 317.307 115.475C317.772 115.405 318.203 115.412 318.591 115.473C321.121 115.874 321.997 118.75 320.902 120.51ZM316.473 105.854C316.588 106.752 316.763 107.634 317.049 108.502C315.762 107.746 314.442 107.043 313.074 106.415C314.248 106.334 315.392 106.14 316.473 105.854ZM305.907 91.7362C306.064 92.01 306.275 92.2526 306.535 92.4561C306.411 92.606 306.282 92.7587 306.153 92.9079C305.658 92.8366 305.158 92.7683 304.653 92.7027C305.082 92.392 305.504 92.0728 305.907 91.7362Z" fill="#E0C591"/>
<path d="M321.818 107.09C322.435 107.187 323.073 107.13 323.623 106.914C323.486 105.269 323.029 103.602 322.694 101.887C323.401 100.895 323.903 99.7408 324.123 98.4051C325.401 90.7228 325.497 82.8135 325.287 74.9316C322.975 78.2553 321.732 82.4625 320.624 85.847C318.627 91.951 317.568 98.4993 319.207 104.909C319.52 106.156 320.638 106.903 321.818 107.09Z" fill="#E3CDA3"/>
<path d="M320.425 120.46C320.591 120.486 320.75 120.504 320.902 120.51C321.997 118.75 321.121 115.874 318.591 115.473C318.203 115.412 317.772 115.405 317.307 115.475C314.427 115.903 311.661 116.547 308.892 117.133C312.717 118.316 316.405 119.819 320.416 120.459C320.421 120.459 320.425 120.46 320.425 120.46Z" fill="#E3CDA3"/>
<path d="M264.513 120.117C266.289 120.398 268.167 119.841 269.095 118.116C269.466 117.428 269.909 116.921 270.825 116.705C270.885 116.686 270.902 116.685 270.939 116.673C270.964 116.68 270.994 116.685 271.024 116.69C271.224 116.721 271.507 116.755 271.367 116.701C271.458 116.737 271.558 116.767 271.657 116.801C271.047 114.695 272.89 112.79 275.582 113.137C275.658 113.15 275.735 113.162 275.807 113.173C275.859 113.181 275.91 113.189 275.961 113.197C276.016 113.206 276.067 113.214 276.123 113.223C276.152 113.228 276.182 113.232 276.212 113.237C276.012 113.065 275.808 112.895 275.626 112.693C274.608 111.569 274.401 110.036 275.032 108.809C275.252 108.385 275.537 108.041 275.88 107.756C275.366 107.635 274.868 107.524 274.362 107.444C273.659 107.332 272.937 107.283 272.131 107.357C270.589 107.499 269.07 107.828 267.67 108.342C266.066 108.929 264.517 109.722 263.424 110.75C261.727 111.982 260.589 113.764 260.41 115.719C260.191 118.072 262.268 119.761 264.513 120.117Z" fill="#E0C591"/>
<path d="M274.764 118.386C277.162 118.766 279.638 117.026 278.519 114.609C278.193 113.908 277.76 113.277 277.272 112.691C277.397 112.649 277.522 112.601 277.654 112.568C280.52 111.871 279.454 108.564 276.924 108.001C276.565 107.919 276.216 107.835 275.88 107.756C275.537 108.041 275.252 108.385 275.032 108.809C274.401 110.036 274.608 111.569 275.626 112.693C275.808 112.895 276.012 113.065 276.212 113.237C276.182 113.232 276.152 113.228 276.123 113.223C276.067 113.214 276.016 113.206 275.961 113.197C275.91 113.189 275.859 113.181 275.807 113.173C275.735 113.162 275.658 113.15 275.582 113.137C272.89 112.79 271.047 114.695 271.657 116.801C271.753 116.83 271.848 116.86 271.935 116.892C272.157 116.981 272.626 117.383 272.66 117.389C272.668 117.39 272.631 117.352 272.53 117.246C273.173 117.896 273.963 118.259 274.764 118.386Z" fill="#E3CDA3"/>
<path d="M56.228 88.9165C62.7747 89.9534 69.3208 89.533 74.0859 86.6015C74.2743 86.487 74.4198 86.3405 74.5243 86.1768C68.7568 85.541 63.9743 84.8881 60.2857 84.3039C54.5909 83.4019 51.512 82.6618 51.4525 82.4035C51.4044 82.1831 50.2361 81.1793 48.5495 79.5054C47.5189 79.3134 46.4883 79.1213 45.462 78.9299C44.2322 78.259 43.0476 77.5231 41.9119 76.7264C37.4122 73.5719 34.0451 69.4966 31.8801 64.9986C30.0782 61.2686 29.4752 57.191 27.4482 53.5589C27.313 53.3102 27.1171 53.1133 26.9051 52.9354C26.9084 52.7772 26.9122 52.6155 26.9148 52.4608C27.1021 46.4814 28.5743 38.4547 24.5507 33.0383C24.2766 32.6739 23.8309 32.4554 23.3496 32.3792C23.0344 32.3292 22.7097 32.3391 22.4065 32.4065C22.0534 31.3551 20.9729 30.679 19.8442 30.5002C19.1925 30.397 18.5274 30.4612 17.9803 30.7172C18.7212 36.5154 18.9644 42.1194 18.3797 47.989C17.7702 54.1252 17.2887 61.7966 12.3034 66.4498C11.9552 66.7734 11.546 66.9863 11.1092 67.0975C10.9439 69.3545 11.0549 71.5759 11.7342 73.5446C10.799 74.4317 10.817 75.9999 12.0734 76.9167C17.7661 81.0573 26.1066 82.2088 33.1416 83.4709C34.004 83.622 34.8628 83.7688 35.7232 83.9051C38.0999 84.2815 40.4574 84.5864 42.8165 84.8266C46.8455 86.6802 51.5342 88.1731 56.228 88.9165ZM25.6589 70.0115C26.9705 72.0407 28.5316 73.9832 30.2148 75.7611C28.1844 75.2375 26.1367 74.686 24.0838 74.1949C24.7674 72.9109 25.2744 71.5016 25.6589 70.0115Z" fill="#E0C591"/>
<path d="M60.2857 84.3039C63.9743 84.8881 68.7568 85.541 74.5243 86.1768C74.6774 85.9269 74.7401 85.6411 74.7192 85.36C72.7263 85.1237 70.7432 84.8529 68.7754 84.5412C67.127 84.2802 65.4916 83.9923 63.8666 83.6664C62.2129 83.6317 60.5616 83.5541 58.8926 83.3403C58.8717 83.0592 58.7948 82.7729 58.6671 82.5038C58.3314 82.4182 57.9956 82.3325 57.6604 82.2434C56.6325 81.9796 55.929 81.4317 55.5618 80.8001C53.2244 80.3685 50.8869 79.937 48.5495 79.5054C50.2361 81.1793 51.4044 82.1831 51.4525 82.4035C51.512 82.6618 54.5909 83.4019 60.2857 84.3039Z" fill="#E0CAA0"/>
<path d="M68.7754 84.5412C70.7432 84.8529 72.7263 85.1237 74.7192 85.36C74.6659 84.7312 74.1916 84.115 73.3525 83.9821C73.3184 83.9767 73.2843 83.9713 73.2497 83.9694C70.1024 83.6333 66.9917 83.7285 63.8666 83.6664C65.4916 83.9923 67.127 84.2802 68.7754 84.5412ZM58.6671 82.5038C58.3335 81.7981 57.6437 81.1911 56.6387 81.0031C56.2783 80.9352 55.9174 80.8708 55.5618 80.8001C55.929 81.4317 56.6325 81.9796 57.6604 82.2434C57.9956 82.3325 58.3314 82.4182 58.6671 82.5038Z" fill="#E3D0AD"/>
<path d="M11.1092 67.0975C11.546 66.9863 11.9552 66.7734 12.3034 66.4498C17.2887 61.7966 17.7702 54.1252 18.3797 47.989C18.9644 42.1194 18.7212 36.5154 17.9803 30.7172C17.3579 31.0082 16.8926 31.5477 16.7713 32.3688C15.6186 40.3631 14.1471 48.3033 12.9385 56.2924C12.485 59.2936 11.3996 63.2516 11.1092 67.0975Z" fill="#E3CDA3"/>
<path d="M67.3805 33.9679C69.4506 34.2958 71.6923 33.5399 71.9595 31.3567C72.2103 29.3045 72.2617 27.1881 72.2718 25.1121C72.2852 23.318 72.315 21.476 70.9921 19.9319C70.6822 19.5727 70.2078 19.3424 69.7137 19.2642C69.2154 19.1852 68.6931 19.2576 68.2873 19.5035C66.552 20.5633 66.0111 22.3243 65.4695 24.0348C64.8376 26.0123 64.2324 28.0409 63.8411 30.0709C63.4163 32.2291 65.3147 33.6407 67.3805 33.9679Z" fill="#E0C591"/>
<path d="M64.3107 18.9458C67.7949 19.4977 71.4022 18.583 74.497 17.1002C77.696 15.5653 75.5736 11.7088 72.4812 11.219C71.8892 11.1253 71.26 11.1555 70.6271 11.3474C67.0013 12.4612 63.2482 13.1111 59.9276 14.7241C58.9002 15.2286 58.9154 16.7315 59.9191 17.3413C61.3246 18.1988 62.8071 18.7077 64.3107 18.9458Z" fill="#E0C591"/>
<path d="M37.9808 26.563C40.0977 26.8983 42.3025 26.3205 43.0033 24.4044C44.0305 21.613 44.0714 18.6258 44.3006 15.69C44.4609 13.6306 42.8193 11.8376 40.744 11.2673C39.0405 11.4916 37.3883 11.8612 35.7938 12.3625C33.4944 13.6755 31.1624 15.0843 30.0301 17.2711C29.4544 18.3702 29.767 19.7868 30.622 20.8672C30.5959 21.1696 30.598 21.4874 30.6591 21.8181C30.9192 23.2082 32.1232 24.0698 33.5033 24.2884C33.6523 24.312 33.8068 24.3293 33.9587 24.3353C34.7528 25.4962 36.341 26.3032 37.9808 26.563Z" fill="#E0C591"/>
<path d="M35.7938 12.3625C37.3883 11.8612 39.0405 11.4916 40.744 11.2673C40.5557 11.2158 40.3614 11.1742 40.1697 11.1439C39.0878 10.9725 37.9317 11.1321 36.8694 11.7465C36.5136 11.9534 36.154 12.1562 35.7938 12.3625Z" fill="#E3CDA3"/>
<path d="M47.306 30.4024C52.1233 31.1654 51.3794 24.5047 51.4717 22.1027C51.5299 20.4671 50.4524 18.8898 48.3525 18.5572C46.5507 18.2718 44.3565 19.3346 44.2946 20.9659C44.2006 23.5444 42.791 29.6873 47.306 30.4024Z" fill="#E0C591"/>
<path d="M35.6435 34.2073C39.2811 34.7835 43.039 34.9855 46.5363 35.2617C48.9942 35.4562 49.4258 32.704 47.0328 32.1266C43.6214 31.3085 39.9844 30.3429 36.3469 29.7668C33.804 29.3641 31.2614 29.1525 28.7988 29.318C26.9586 29.4413 26.6142 31.6158 28.3268 32.2982C30.6172 33.2201 33.1007 33.8046 35.6435 34.2073Z" fill="#E0C591"/>
<path d="M2.02647 66.5246C7.40285 75.3366 19.7482 80.1486 30.1619 83.3453C45.8721 88.1672 62.5484 90.473 78.899 92.161C116.317 96.0243 154.069 96.1821 191.394 95.4534C206.132 95.1654 220.86 94.4178 235.618 94.4433C236.416 91.9944 237.893 89.6169 238.939 87.2577C239.224 86.614 240.306 86.8971 240.46 87.4986C240.867 89.1177 241.207 90.7765 241.342 92.4284C253.981 93.3481 266.673 93.2193 279.275 94.9772C289.817 96.4486 300.494 99.3336 310.263 103.269C314.778 105.087 319.173 107.219 323.185 109.784C324.489 110.622 325.981 111.569 327.295 112.646C326.212 105.257 327.257 97.3902 328.662 90.3953C327.606 89.5932 326.724 88.6275 325.659 87.824C324.31 86.8024 323.159 85.6354 321.768 84.6577C322.548 84.6729 329.928 84.7489 329.854 85.051C331.222 79.5255 333.174 73.8725 336.36 69.0822L336.322 69.0508C308.599 36.0861 254.841 33.642 212.754 35.3549C187.884 36.3683 163.381 39.813 138.495 40.546C114.816 41.2429 90.9386 39.2753 67.3076 36.1926C56.9643 34.8394 46.6107 33.0552 36.6843 29.9249C28.4788 27.3412 16.7362 23.245 12.0493 16.4756C11.9601 16.3496 11.8879 16.2264 11.8035 16.0976C11.4534 19.631 10.8232 23.1417 10.322 26.6368C9.9574 29.1868 5.5992 51.5483 5.11794 54.0907C4.34739 58.1563 3.71299 62.5752 1.91485 66.4023C1.94761 66.4436 1.99482 66.4763 2.02647 66.5246ZM261.414 103.784C261.873 103.619 262.351 103.467 262.856 103.342C269.129 101.749 281.384 102.94 285.879 108.193C285.908 107.985 285.951 107.768 285.988 107.557C286.211 104.577 287.486 101.382 289.305 99.0475C281.351 97.3584 273.358 96.4928 265.32 95.887C265.507 97.1862 264.592 98.6644 263.97 99.7237C263.772 100.064 263.554 100.39 263.326 100.704C262.779 101.782 262.114 102.817 261.414 103.784ZM284.747 110.957C284.404 109.622 278.949 106.929 278.935 107.017C278.924 107.062 278.916 107.108 278.887 107.154C278.111 108.416 277.16 109.593 276.235 110.777C275.32 111.949 274.477 113.251 273.224 114.182L273.187 114.201C273.284 114.191 273.393 114.19 273.513 114.234C276.008 115.131 278.585 116.394 281.171 115.559C283.312 114.863 285.28 113.047 284.747 110.957ZM258.74 117.857C263.772 127 279.723 129.224 290 130.058C302.419 131.073 316.182 130.104 325.083 122.529C327.647 120.345 329.073 117.985 326.404 115.131C324.072 112.648 320.443 110.612 317.333 108.911C310.997 105.444 303.976 102.962 296.901 100.932C295.143 100.427 293.383 99.9855 291.619 99.5762C291.028 100.464 290.401 101.335 289.82 102.224C289.444 102.997 289.056 103.765 288.768 104.564C287.565 107.912 289.168 113.475 285.769 115.808C282.086 118.326 275.24 117.062 272.15 114.047C272.749 112.469 273.696 111.482 274.749 110.124C275.746 108.958 276.734 107.765 277.869 106.69C275.664 106.059 273.316 105.691 271.111 105.497C267.644 105.197 263.716 105.408 260.908 107.12C256.926 109.548 256.705 114.166 258.74 117.857ZM47.4841 15.3285C49.6822 17.4946 54.4809 18.2654 58.6504 18.5976C58.8379 17.7724 59.2603 16.9521 59.6305 16.2965C60.0947 15.4611 60.6707 14.7191 61.3692 14.0579C59.547 12.7161 57.5832 11.662 55.2891 10.9848C53.7124 10.5187 52.1739 10.1704 50.4996 10.266C48.2958 10.3966 43.7512 11.6606 47.4841 15.3285ZM44.4677 29.466C44.4227 29.5851 44.3469 29.6777 44.2568 29.75C46.4266 30.3029 48.609 30.8036 50.7992 31.2551C59.006 32.9481 67.3974 34.2195 75.8312 35.2234C74.7525 30.7315 76.2326 24.8053 78.6749 19.9982C74.5633 21.3957 68.6721 21.2092 65.4176 21.1374C59.834 21.0213 50.7179 20.4107 46.1868 17.399C46.594 21.4997 45.9219 25.6602 44.4677 29.466ZM80.4039 14.7607C79.6621 10.3473 67.4606 7.76919 63.6347 6.83861C54.4585 4.59532 44.8072 3.22901 35.3826 3.21514C28.7824 3.20496 18.2216 3.33573 14.2121 8.38878C9.7741 13.9691 18.4209 19.4721 23.748 22.2275C29.6322 25.2695 35.977 27.5261 42.4883 29.2823C42.4497 29.168 42.434 29.0465 42.4722 28.9155C43.7032 24.4792 44.1625 20.1731 44.3534 15.6875C43.7574 14.8465 43.4438 13.8771 43.5165 12.756C44.0942 4.11881 59.0727 9.31537 63.3604 12.761L63.4356 12.8378C63.6285 12.9153 63.7692 13.0746 63.7291 13.245C63.9753 13.8683 63.4857 14.5338 62.8091 14.643C62.287 15.4585 61.8052 16.2947 61.4814 17.1812C61.3015 17.6829 61.2163 18.2213 61.1188 18.7541C62.024 18.8001 62.8617 18.8318 63.5683 18.8643C67.1069 19.0172 81.2483 19.7673 80.4039 14.7607ZM0.446948 66.3249C0.985056 61.8799 2.66994 57.4722 3.5951 53.092C4.66225 48.0635 6.20979 40.3879 8.25248 27.0773C8.94863 22.5166 9.43073 17.8463 10.5454 13.3446C9.04075 7.62743 15.0719 3.59432 21.6883 2.17873C31.4915 0.0776099 42.6036 0.932263 52.6934 2.39688C61.4047 3.66119 71.8172 5.48711 79.1949 10.1543C81.3702 11.5268 83.5956 13.5204 83.1111 15.918C82.923 16.8297 82.4515 17.5737 81.815 18.2015C80.7179 20.9385 79.5357 23.6332 78.823 26.5068C78.097 29.4361 78.153 32.5289 77.2117 35.3843C87.8032 36.6038 98.4536 37.3961 108.911 37.9486C151.56 40.213 192.901 32.1781 235.419 32.7878C255.929 33.0857 277.102 34.9496 296.792 41.1376C306.279 44.1191 315.506 48.1666 323.411 53.6641C328.851 57.4436 339.813 65.398 337.732 71.7521C337.007 73.9566 336.224 76.1481 335.462 78.3395C334.488 81.1502 333.377 83.9751 332.704 86.8478C330.815 86.783 328.926 86.7148 327.038 86.6465C328.796 86.7951 330.488 87.7413 331.362 89.0627C332.533 90.8461 331.705 92.3813 331.346 94.1243C330.833 96.6219 330.869 99.3183 330.797 101.868C330.65 106.898 330.811 111.951 330.574 116.974C332.204 122.563 323.95 127.038 319.125 129.109C305.535 134.939 286.257 133.678 271.656 129.154C265.16 127.141 258.469 123.787 255.656 118.169C253.905 114.671 253.579 110.774 255.444 107.38C256.368 105.708 258.508 104.493 259.751 102.958C260.674 101.813 261.426 100.594 262.153 99.3674C262.209 99.2609 262.269 99.1621 262.316 99.0578C262.784 98.0606 262.879 96.7447 263.446 95.7525C263.12 96.3213 252.225 95.0357 250.95 94.9563C246.998 94.7091 243.326 94.2141 239.495 94.8048C239.508 93.7826 238.936 90.9976 239.323 90.1283C238.541 91.8692 237.537 93.5497 236.834 95.3139C233.523 95.1792 229.985 95.9064 226.67 96.1352C222.639 96.4165 218.602 96.6536 214.561 96.8576C206.455 97.2617 198.327 97.5218 190.187 97.6716C173.935 97.976 157.644 97.8412 141.349 97.5652C141.031 97.5617 140.709 97.554 140.392 97.5469C120.832 97.2083 101.229 96.3722 81.6856 94.4707C64.839 92.8268 47.7724 90.5313 31.5007 85.8369C19.7754 82.4577 6.41977 77.2981 0.606817 67.4107C0.476288 67.3251 0.391338 67.1998 0.362159 67.0257C0.198948 66.7329 0.276294 66.4927 0.446948 66.3249Z" fill="black"/>
<path d="M73.1088 28.0148C73.0225 28.7802 72.9658 29.5792 72.883 30.3776C73.5133 30.3404 74.1438 30.2743 74.7691 30.1858C74.8895 29.7288 75.0045 29.2781 75.096 28.8381C75.1686 28.5178 75.2417 28.1939 75.3101 27.8729C74.5774 27.9228 73.8452 27.9691 73.1088 28.0148ZM70.6362 31.0281C70.4708 31.8243 70.3285 32.6674 70.0927 33.4669C70.6359 33.4555 71.1769 33.4582 71.7216 33.4652C71.709 32.6624 71.8133 31.8385 71.9698 31.0157C71.5257 31.0355 71.0801 31.0371 70.6362 31.0281ZM74.6349 30.702C74.0409 30.8135 73.4343 30.8942 72.8226 30.9524C72.7147 31.8262 72.5617 32.6821 72.2998 33.481C72.9041 33.4974 73.5042 33.513 74.1037 33.5322C74.1645 32.5969 74.3944 31.6414 74.6349 30.702ZM68.6631 22.9752C71.9557 23.0278 75.0389 22.9137 78.2302 22.3371C78.527 22.2831 78.6605 22.7083 78.3732 22.7854C77.8184 22.9248 77.2537 23.0445 76.6784 23.1482C76.5532 23.8281 76.436 24.5129 76.3157 25.1899C76.4281 25.2799 76.4493 25.4492 76.2729 25.515L76.2542 25.5229C76.1345 26.1964 76.011 26.8658 75.8912 27.5393C76.0415 27.61 76.0513 27.8244 75.8396 27.8378L75.839 27.8413C75.7736 28.1988 75.7072 28.5634 75.6413 28.9245C75.5737 29.2961 75.5172 29.6803 75.4644 30.0687C75.6891 30.0286 75.918 29.9891 76.1492 29.9355C76.4572 29.8653 76.6602 30.2653 76.3468 30.3419C76.0334 30.4185 75.7157 30.4945 75.3906 30.562C75.2525 31.5717 75.0983 32.6005 74.7864 33.5502C74.934 33.5555 75.0816 33.5609 75.2297 33.5627C75.5431 33.5691 75.6224 33.9784 75.2988 33.9812C75.076 33.982 74.8532 33.9828 74.6298 33.9871C74.5751 34.1119 74.5338 34.2352 74.4754 34.3558C74.4125 34.5045 74.0999 34.4658 74.092 34.2951C74.0863 34.1932 74.094 34.0898 74.0926 33.9886C73.4321 33.9958 72.7717 34.003 72.1081 34.0025C72.0397 34.1035 71.858 34.0927 71.776 34.004C71.1561 34.0032 70.5379 33.9918 69.923 33.9594C69.8388 34.1877 69.7589 34.4167 69.6514 34.6269C69.5585 34.7998 69.2869 34.6954 69.2875 34.526C69.2846 34.3236 69.3207 34.1237 69.3445 33.9182C68.9726 33.8954 68.6044 33.8768 68.2353 33.8363C68.0468 33.8137 68.0574 33.5809 68.2393 33.5629C68.6159 33.5287 69.0018 33.5177 69.3889 33.4997C69.5355 32.6572 69.8265 31.8124 70.0608 30.9947C69.4731 30.9557 68.8857 30.8879 68.3066 30.7673C68.091 30.7224 68.0558 30.421 68.2994 30.4271C68.9703 30.436 69.628 30.4464 70.2777 30.4519C70.3774 30.3739 70.5293 30.38 70.6322 30.4468C71.1172 30.4442 71.6029 30.4382 72.0859 30.4209C72.2524 29.6177 72.453 28.8199 72.615 28.0448C71.474 28.1094 70.3283 28.1479 69.1787 28.1281C68.9698 28.1239 68.9225 27.8712 69.1353 27.8508C70.3099 27.7122 71.5038 27.6452 72.7029 27.6006C72.7246 27.4634 72.7548 27.3275 72.7808 27.191C72.8171 26.9623 73.2436 27.0262 73.2068 27.2584C73.1901 27.364 73.1807 27.478 73.1683 27.5842C73.9104 27.5575 74.6514 27.5378 75.3882 27.5174C75.5252 26.9007 75.6573 26.2868 75.7937 25.6736C73.8091 26.3223 71.6001 26.5964 69.4549 26.1087C69.299 26.0732 69.2648 25.8478 69.4519 25.8522C71.7165 25.9439 73.807 25.8675 75.894 25.2061C76.043 24.5408 76.1915 23.879 76.3363 23.213C73.8367 23.6395 71.1877 23.7141 68.6643 23.2711C68.4732 23.2373 68.4585 22.9716 68.6631 22.9752Z" fill="black"/>
<path d="M77.0196 16.7206C75.4959 15.6172 73.9217 14.5022 72.6001 13.2253C72.4566 13.0835 72.6965 12.9195 72.8589 13.0246C74.4558 14.0242 75.8897 15.254 77.2913 16.439C77.4959 16.6085 77.2514 16.8836 77.0196 16.7206Z" fill="black"/>
<path d="M74.7315 17.7144C73.0525 16.1031 71.2549 14.5235 69.7991 12.7708C69.6971 12.6429 69.8853 12.4743 70.0242 12.5901C71.8837 14.0821 73.4802 15.8282 75.1313 17.4784C75.3462 17.6927 74.9476 17.9218 74.7315 17.7144Z" fill="black"/>
<path d="M64.2258 17.4968C65.5934 18.1246 66.8324 19.0134 68.0892 19.7896C68.4267 20.0017 68.037 20.3945 67.7021 20.1935C66.4601 19.4342 65.0968 18.7241 63.99 17.8274C63.8003 17.6747 63.9686 17.384 64.2258 17.4968Z" fill="black"/>
<path d="M62.3596 15.7441C63.922 15.804 65.4908 15.9334 67.0563 16.084C66.196 15.3129 65.3476 14.5221 64.7016 13.6659C64.5622 13.4707 64.8165 13.2441 65.0403 13.4022C66.1739 14.1841 67.1626 15.1919 68.1226 16.188C68.9957 16.2721 69.8681 16.3598 70.7411 16.444C69.435 15.0973 68.1208 13.7458 67.019 12.2944C66.9213 12.1671 67.1129 11.9775 67.2586 12.1051C69.2368 13.8396 70.9068 15.839 72.6542 17.7353C72.8792 17.9693 72.451 18.2189 72.2304 17.9856C71.924 17.6593 71.6043 17.3345 71.2931 17.0111C70.436 16.9367 69.5827 16.8665 68.7207 16.7949C68.9616 17.0386 69.1976 17.2852 69.4364 17.5142C69.6943 17.7606 69.2287 18.0259 68.9777 17.7914C68.5938 17.4312 68.1874 17.0747 67.7816 16.7147C65.9672 16.5643 64.1556 16.3964 62.3585 16.1371C62.1024 16.1001 62.0868 15.7297 62.3596 15.7441Z" fill="black"/>
<path d="M39.6365 30.1688C39.8593 28.7072 40.4745 27.3042 40.8952 25.8884C41.3437 24.3796 41.746 22.8599 42.1062 21.3299C42.8005 18.3523 43.3127 15.3387 43.7349 12.3145C43.7666 12.0598 44.2212 12.139 44.1992 12.388C43.9607 15.5207 43.4734 18.6248 42.7828 21.6895C42.1493 24.5036 41.6366 27.7407 40.1558 30.3088C40.029 30.5303 39.5964 30.4221 39.6365 30.1688Z" fill="black"/>
<path d="M23.841 16.0167C23.7258 17.5711 23.7931 19.2409 23.3761 20.7439C23.3193 20.9369 22.9455 20.9534 22.9168 20.7216C22.731 19.1377 23.05 17.4821 23.1765 15.9115C23.203 15.5514 23.8669 15.6602 23.841 16.0167Z" fill="black"/>
<path d="M25.5514 24.3491C29.578 25.0049 33.5937 26.4741 37.4956 27.5862C37.7877 27.6722 37.6499 28.1012 37.353 28.0181C33.4331 26.9644 29.196 26.1491 25.4513 24.6506C25.2535 24.576 25.3342 24.3147 25.5514 24.3491Z" fill="black"/>
<path d="M40.0199 18.7884C39.1675 18.657 38.3139 18.5326 37.4593 18.4153C37.264 19.5927 37.0635 20.7765 36.8634 21.9567C37.6796 22.0968 38.4925 22.2292 39.305 22.3651C39.5376 21.1719 39.7745 19.9795 40.0199 18.7884ZM34.0604 17.9311L34.0722 17.9943C33.7559 19.1092 33.4652 20.2282 33.1622 21.3416C34.1376 21.4961 35.1082 21.6535 36.0771 21.8213C36.3144 20.6542 36.5564 19.4842 36.8022 18.3185C35.8922 18.1924 34.9747 18.0579 34.0604 17.9311ZM29.2441 20.8004C30.3065 20.929 31.3673 21.0682 32.429 21.2291C32.7837 20.1203 33.1463 19.0163 33.4844 17.9012L33.5317 17.851C32.3411 17.6768 31.157 17.4893 29.9805 17.2813C29.8091 18.4733 29.6174 19.6837 29.2441 20.8004ZM32.6566 23.1552C33.6705 23.3699 34.6854 23.6064 35.6891 23.8303C35.788 23.3157 35.8822 22.804 35.9854 22.2901C34.995 22.1477 34.0105 21.9954 33.0223 21.8389C32.9047 22.2783 32.7871 22.7178 32.6566 23.1552ZM40.6306 22.9826C40.4517 22.9543 40.268 22.9288 40.0848 22.8998C39.7702 24.6931 39.4306 26.4788 39.057 28.2591C38.9688 28.678 38.1686 28.5476 38.2647 28.1336C38.5526 26.3433 38.8837 24.5563 39.2276 22.7712C38.4123 22.6529 37.5982 22.5276 36.783 22.4093C36.6898 22.9427 36.588 23.4749 36.4863 24.007C36.8365 24.0841 37.1915 24.1584 37.5433 24.2249C37.8137 24.2822 37.7628 24.6312 37.4871 24.5803C37.1309 24.5131 36.7737 24.4529 36.4128 24.3885C36.3238 24.8397 36.244 25.2888 36.1508 25.7393C36.0632 26.1546 35.2715 26.0256 35.3713 25.6158C35.4432 25.1619 35.5327 24.7072 35.6131 24.2547C34.5749 24.083 33.5271 23.9171 32.4784 23.7293C32.3747 24.0808 32.2716 24.4288 32.1599 24.7754C32.0358 25.1453 31.3158 25.0601 31.4145 24.6573C31.498 24.2954 31.5895 23.9384 31.6724 23.58C30.3667 23.3335 29.0761 23.0462 27.8401 22.6628C27.6486 22.6037 27.7487 22.3851 27.9256 22.3986C29.2355 22.5087 30.5585 22.7291 31.8827 22.9965C32.0072 22.569 32.1408 22.1393 32.2775 21.7173C31.218 21.5423 30.1661 21.3468 29.1159 21.1408C29.0481 21.3212 28.9844 21.5023 28.9001 21.6765C28.8178 21.8655 28.4109 21.8155 28.4017 21.5976C28.3941 21.398 28.404 21.1976 28.4096 20.9965C28.1935 20.955 27.9763 20.9206 27.757 20.8715C27.5718 20.8277 27.6064 20.6096 27.7955 20.6287C28.0064 20.6477 28.2151 20.6807 28.4261 20.6997C28.5057 19.5076 28.8061 18.3 29.1166 17.112C28.4634 16.9905 27.8065 16.8648 27.1604 16.7264C27.0224 18.2592 26.8885 19.9043 26.27 21.2455C26.1942 21.4211 25.8534 21.3671 25.8313 21.176C25.6112 19.3125 26.2843 17.2405 26.6369 15.428C26.7043 15.0852 27.3262 15.1837 27.2843 15.5305C27.2462 15.7986 27.2198 16.0758 27.1923 16.36C27.8756 16.4285 28.5647 16.516 29.249 16.6064C29.4023 16.0247 29.5502 15.4494 29.6703 14.8841C29.7436 14.5314 30.4038 14.6359 30.3347 14.9893C30.2248 15.5454 30.142 16.1238 30.0585 16.7057C32.3434 17.0279 34.6289 17.4296 36.9052 17.8334C37.0717 17.0302 37.2419 16.2312 37.3999 15.4266C37.4066 15.3844 37.4452 15.3616 37.4709 15.3369C34.5988 14.918 31.6519 14.5847 28.8649 13.8764C28.6425 13.8196 28.6784 13.5655 28.9117 13.5809C32.1307 13.7949 35.3994 14.5218 38.5891 15.0306C38.9464 15.0908 38.8739 15.5483 38.5161 15.4916C38.3202 15.4606 38.1109 15.431 37.9102 15.4028C37.9313 15.435 37.9566 15.4679 37.9494 15.5136C37.8042 16.3202 37.6669 17.1317 37.5345 17.9403C38.3927 18.0906 39.2471 18.2368 40.1022 18.3794C40.5029 16.4555 40.9037 14.5316 41.3076 12.6154C41.3611 12.3605 41.8302 12.4312 41.7889 12.6916C41.2579 15.9619 40.7342 19.2406 40.1557 22.507C40.3346 22.5353 40.513 22.5672 40.6919 22.5955C40.9937 22.647 40.933 23.0305 40.6306 22.9826Z" fill="black"/>
<path d="M38.3695 13.7984C36.2364 13.3451 34.108 12.889 31.9854 12.3688C31.7917 12.3237 31.8265 12.0768 32.0267 12.1085C34.1758 12.4885 36.3027 12.9264 38.4375 13.3691C38.7675 13.4358 38.699 13.8686 38.3695 13.7984Z" fill="black"/>
<path d="M47.4649 21.2661C47.3021 21.2187 47.3389 20.9864 47.5084 20.9916C49.1195 21.0196 50.8035 21.4414 52.3991 21.7049C52.7004 21.7599 52.6397 22.1434 52.3367 22.099C50.7372 21.8601 49.0058 21.7374 47.4649 21.2661Z" fill="black"/>
<path d="M48.3598 23.7487C48.2337 23.7179 48.256 23.5772 48.3854 23.5868C49.0625 23.64 49.7338 23.7571 50.4026 23.863C50.5942 23.8934 50.5552 24.1397 50.3636 24.1093C49.6948 24.0034 49.0196 23.9109 48.3598 23.7487Z" fill="black"/>
<path d="M49.9862 26.4915C49.3053 26.38 48.6066 26.2982 47.9453 26.1177C47.8075 26.0778 47.8387 25.8808 47.9821 25.8855C48.6667 25.9182 49.3566 26.0563 50.0381 26.1642C50.2942 26.2012 50.2418 26.5319 49.9862 26.4915Z" fill="black"/>
<path d="M49.9767 28.6469C49.0745 28.3886 48.1037 28.1771 47.2412 27.806C47.0653 27.7313 47.1362 27.5045 47.3321 27.5355C48.2927 27.6732 49.2493 28.0015 50.1824 28.2575C50.5006 28.3439 50.2991 28.734 49.9767 28.6469Z" fill="black"/>
<path d="M14.3668 22.877C20.8448 26.9112 27.4317 30.3134 35.0387 32.4848C35.3393 32.5721 35.1465 32.9347 34.8497 32.8517C27.4667 30.8094 19.9626 27.6299 14.1161 23.1367C13.9136 22.9819 14.1481 22.7414 14.3668 22.877Z" fill="black"/>
<path d="M22.9883 69.5885C23.1771 68.1757 23.3356 66.7616 23.4148 65.3242C22.4806 65.0752 21.5443 64.8115 20.623 64.5357C20.6753 65.9146 20.7495 67.2934 20.8316 68.677C21.5475 68.9816 22.2682 69.2833 22.9883 69.5885ZM22.865 74.8603C24.1347 75.3067 25.4121 75.7326 26.7072 76.1289C26.8005 74.7406 26.9321 73.3584 27.1117 71.9765C25.9414 71.481 24.7717 70.9819 23.6014 70.4864C23.4164 71.9575 23.1852 73.4178 22.865 74.8603ZM27.8498 66.4342C26.5833 66.1326 25.31 65.8191 24.0272 65.4825C23.9654 66.9479 23.8423 68.4145 23.6717 69.8771C24.8463 70.3733 26.0208 70.8696 27.191 71.3651C27.4124 69.7193 27.6514 68.0728 27.8498 66.4342ZM19.7477 60.3862C18.7133 60.0529 17.6826 59.7237 16.66 59.3706C16.6481 60.4111 16.6185 61.4524 16.5384 62.4821C17.633 62.8214 18.7312 63.1649 19.821 63.507C19.7717 62.4676 19.7533 61.4259 19.7477 60.3862ZM19.7954 57.4109C18.7591 57.1169 17.7251 56.8088 16.6981 56.4839C16.6776 57.22 16.6729 57.9659 16.6641 58.7111C17.6981 59.0192 18.7214 59.34 19.7527 59.6656C19.7584 58.9127 19.7721 58.1646 19.7954 57.4109ZM19.9939 53.6767C18.9234 53.2402 17.8594 52.7904 16.8073 52.3208C16.7749 53.5456 16.7467 54.7711 16.7094 55.9987C17.7481 56.2498 18.7846 56.515 19.8188 56.7942C19.8618 55.7514 19.9169 54.7141 19.9939 53.6767ZM20.1867 51.3844C19.0566 50.9385 17.9485 50.4636 16.8722 49.9541C16.8602 50.5257 16.8398 51.0959 16.8278 51.6675C17.9081 52.0695 18.9856 52.489 20.0567 52.922C20.0943 52.4085 20.1362 51.8958 20.1867 51.3844ZM13.571 58.2537C13.5075 59.3438 13.4227 60.4304 13.2964 61.5033C14.1725 61.7611 15.0438 62.0217 15.9097 62.2887C15.9009 61.2414 15.954 60.1893 16.0114 59.138C15.1925 58.8496 14.3785 58.5584 13.571 58.2537ZM10.5897 64.4507C13.8827 65.6035 17.0551 67.0762 20.255 68.4306C20.0747 67.0603 19.9563 65.6853 19.873 64.3087C18.7199 63.953 17.5787 63.5775 16.4564 63.1652C16.4242 63.5064 16.401 63.8454 16.3481 64.1797C16.3187 64.3373 16.0182 64.333 16.0012 64.1644C15.9634 63.7689 15.9566 63.371 15.9412 62.9718C15.0305 62.6292 14.1275 62.2662 13.2544 61.879C13.1241 62.9224 12.9474 63.9549 12.6969 64.9576C12.6585 65.1174 12.3333 65.1308 12.3197 64.9411C12.1843 62.6257 12.426 60.2726 12.7177 57.9346C12.5812 57.8589 12.6182 57.6808 12.7543 57.6483C12.9369 56.22 13.1317 54.7972 13.2703 53.3981C13.3051 53.0681 13.9051 53.1668 13.8751 53.4939C13.7539 54.921 13.6841 56.3816 13.5999 57.8507C14.4165 58.0702 15.2315 58.3003 16.0454 58.5374C16.0868 57.8623 16.1192 57.1893 16.1467 56.5192C16.1488 56.451 16.1514 56.3792 16.1535 56.311C15.5509 56.1182 14.9424 55.9353 14.3458 55.7326C14.1634 55.6712 14.243 55.4169 14.4372 55.4585C15.0158 55.5826 15.5946 55.732 16.1709 55.8701C16.2132 54.6108 16.264 53.3528 16.3153 52.0913C15.4838 51.718 14.6468 51.351 13.841 50.9528C13.6264 50.8467 13.7545 50.5892 13.9863 50.6692C14.775 50.9276 15.5566 51.2029 16.3329 51.4845C16.3555 50.9002 16.3788 50.3124 16.3972 49.7274C16.308 49.6844 16.215 49.6372 16.1215 49.5935C15.8384 49.4513 16.0063 49.1352 16.3154 49.2239L16.4197 49.2548C16.4285 48.9785 16.441 48.7063 16.4504 48.4265C16.4596 48.1755 16.9191 48.2518 16.9105 48.4993C16.9062 48.8016 16.8941 49.0991 16.8861 49.3972C18.0233 49.7432 19.1533 50.135 20.2734 50.5613C20.3331 50.0189 20.388 49.4793 20.4562 48.9383C18.7342 48.1498 17.0987 47.2559 15.7079 46.1952C15.5213 46.0502 15.6927 45.7672 15.9372 45.8781C17.5131 46.5966 19.0001 47.4633 20.5506 48.2319C20.6755 47.2778 20.8212 46.3306 20.9759 45.3812C19.3588 44.6743 17.7666 43.9207 16.2961 43.0602C16.1082 42.9511 16.2983 42.7431 16.485 42.8052C18.0469 43.3087 19.5883 43.9423 21.1096 44.6197C21.2101 44.0405 21.3245 43.4563 21.4383 42.8755C19.9777 42.2835 18.4357 41.7363 17.113 40.9353C16.9495 40.8372 17.0674 40.589 17.2648 40.6383C18.7503 41.0179 20.1561 41.6806 21.5538 42.2843C21.7127 41.5015 21.8832 40.7278 22.0634 39.9484C20.3846 39.163 18.7218 38.3587 17.1456 37.4489C16.9375 37.3294 17.1402 37.0694 17.3576 37.1579C19.0102 37.8056 20.6104 38.564 22.2024 39.3464C22.3221 38.8387 22.4546 38.3331 22.5786 37.8261C20.8594 36.937 19.1591 36.0113 17.6324 34.9543C17.4748 34.8464 17.6249 34.6429 17.8014 34.7142C19.5001 35.4016 21.1364 36.2631 22.75 37.1571C22.8792 36.6726 23.0179 36.1824 23.1519 35.6951C21.2384 34.8474 19.3325 33.9792 17.5179 33.0029C17.2885 32.88 17.4185 32.5832 17.6864 32.6833C19.5981 33.4045 21.4648 34.2448 23.3142 35.1112C23.5561 34.2731 23.8066 33.4362 24.0698 32.6014C21.2232 31.3318 18.3902 30.0319 15.6958 28.5736C15.4902 28.4653 15.693 28.2052 15.9024 28.2889C18.7633 29.4129 21.5504 30.7272 24.3202 32.0676C24.4603 32.0104 24.6506 32.0767 24.6406 32.223C26.4903 33.1147 28.3336 34.0198 30.1831 34.8862C30.4715 35.0221 30.2765 35.3988 29.9838 35.2622C28.1773 34.4279 26.3323 33.6163 24.4932 32.7948C24.2337 33.6337 23.9992 34.4803 23.7653 35.3233C25.2157 36.0075 26.6601 36.7016 28.1096 37.364C28.4273 37.5081 28.2166 37.9292 27.8909 37.7802C26.4769 37.1415 25.0384 36.5205 23.6009 35.8924C23.4642 36.3974 23.3232 36.9017 23.1992 37.4086C24.4857 38.1354 25.7614 38.8749 27.0321 39.5631C27.3178 39.7165 27.0261 40.1248 26.7362 39.9707C25.5371 39.3263 24.2915 38.6998 23.0476 38.0627C22.9236 38.5697 22.8076 39.0815 22.6922 39.5899C23.8582 40.1677 25.0193 40.7483 26.1832 41.3114C26.5238 41.4772 26.2978 41.9391 25.945 41.7678C24.8246 41.2333 23.694 40.708 22.5591 40.182C22.3886 40.9557 22.2265 41.7307 22.0772 42.5078C23.7269 43.2019 25.3686 43.8912 27.0134 44.5881C27.3951 44.7424 27.1476 45.2298 26.7623 45.0714C25.1678 44.4148 23.5738 43.7548 21.9756 43.0941C21.8687 43.6867 21.7623 44.2758 21.6638 44.8698C23.574 45.7386 25.4565 46.6716 27.3328 47.5062C27.6957 47.6683 27.4548 48.1423 27.0876 47.9795C25.2798 47.181 23.3864 46.4267 21.5312 45.6243C21.3828 46.5891 21.269 47.5557 21.1461 48.5246L21.2396 48.5682C23.0546 49.4039 24.9257 50.1331 26.8364 50.7784C27.2506 50.9198 26.9859 51.4333 26.5717 51.2919C24.7812 50.6873 22.8884 50.0124 21.063 49.2147C21.0018 49.7389 20.9236 50.2603 20.8709 50.7858C23.2854 51.7237 25.6644 52.775 28.0283 53.7012C28.4312 53.8588 28.1682 54.3618 27.7647 54.2077C25.4937 53.3286 23.1163 52.5156 20.799 51.6256C20.7528 52.1377 20.7056 52.6568 20.6759 53.1751C23.521 54.3435 26.3422 55.5803 29.1682 56.7312C29.5701 56.8959 29.3053 57.4094 28.8993 57.2441C26.1721 56.1304 23.3854 55.0615 20.6322 53.9473C20.5767 54.9593 20.5388 55.9704 20.5179 56.9843C23.4125 57.7854 26.2896 58.6414 29.1629 59.4392C29.5427 59.5498 29.2991 60.0126 28.923 59.9061C26.129 59.1318 23.3064 58.3998 20.505 57.617C20.4982 58.377 20.495 59.1412 20.501 59.9032C23.6334 60.9115 26.7419 61.9881 29.7994 63.0567C30.0684 63.1498 29.8925 63.461 29.6292 63.3868C26.6084 62.5008 23.5418 61.6003 20.5028 60.6357C20.5181 61.6697 20.5504 62.7063 20.5869 63.7437C23.034 64.5028 25.4893 65.238 27.9906 65.8758C28.1453 65.6983 28.5046 65.7732 28.5626 66.0133C28.9276 66.1071 29.2841 66.1997 29.6502 66.2865C30.0723 66.3786 29.9873 66.9423 29.5627 66.8389C29.2301 66.761 28.8848 66.6811 28.5485 66.599C28.3747 68.3027 28.2375 70.0232 28.0791 71.7402C28.7168 72.0143 29.3514 72.2808 29.9902 72.5479C30.4031 72.7251 30.1308 73.259 29.7136 73.0812C29.1487 72.8438 28.58 72.6022 28.0156 72.3614C27.8865 73.7007 27.7147 75.0333 27.4966 76.355C28.0685 76.5213 28.6355 76.6904 29.2138 76.8434C29.6783 76.971 29.5833 77.598 29.1152 77.4661C28.5417 77.3104 27.9693 77.1476 27.3974 76.9813C27.3429 77.2432 27.3181 77.5097 27.2635 77.7716C27.2039 78.0652 26.6587 78.0618 26.6129 77.7443C26.5831 77.4366 26.5308 77.1326 26.4561 76.8322C26.4463 76.7837 26.4695 76.7477 26.4953 76.723C25.2283 76.3419 23.9598 75.9427 22.6952 75.5187C22.5202 76.2377 22.3543 76.9544 22.1415 77.6637C22.0533 77.9455 21.4928 77.983 21.4526 77.6304C21.4098 77.1835 21.3671 76.7367 21.3456 76.2933C21.3394 76.112 21.6689 76.0163 21.7368 76.2218L21.7494 76.2526C21.8225 75.9288 21.8956 75.6049 21.9693 75.2775C20.4002 74.7368 18.8456 74.1588 17.3202 73.5349C17.2468 73.5846 17.1766 73.642 17.0996 73.6875C16.8459 73.8276 16.5951 73.5643 16.7399 73.3672L16.7845 73.3057C15.5844 72.8055 14.4123 72.2663 13.2575 71.7011C13.1891 71.8021 13.1244 71.9073 13.0438 72.0027C12.8993 72.171 12.5917 72.0177 12.6085 71.8292C12.6169 71.6934 12.6599 71.5596 12.6853 71.4265C11.9014 71.0282 11.1239 70.6165 10.3668 70.1864C10.2059 70.0996 10.3608 69.8933 10.5288 69.9632C11.2892 70.2893 12.046 70.6111 12.8076 70.9301C13.0445 70.2066 13.4315 69.4996 13.7219 68.8242C13.8947 68.4224 14.6378 68.7204 14.465 69.1222C14.1692 69.804 13.9263 70.5663 13.557 71.2436C14.7736 71.7501 15.9864 72.2523 17.2058 72.7412C17.9026 71.7876 18.431 70.9046 18.4526 69.6384C18.4535 69.2742 19.1216 69.3837 19.1213 69.7443C19.1089 70.8425 18.7573 72.1249 17.925 73.0247C19.3102 73.5687 20.7057 74.1035 22.1195 74.6052C22.4297 73.143 22.6808 71.6679 22.9021 70.188C22.2229 69.9001 21.5479 69.6129 20.873 69.3256C20.8902 69.6854 20.9117 70.0459 20.9332 70.4064C20.9483 70.6144 20.5803 70.6499 20.5445 70.435C20.4708 69.9905 20.4141 69.5487 20.349 69.1056C20.2469 69.0605 20.1449 69.0155 20.0423 68.974C16.8313 67.607 13.5179 66.3356 10.4207 64.7738C10.1779 64.6524 10.3207 64.3576 10.5897 64.4507Z" fill="black"/>
<path d="M14.6099 75.7603C20.092 78.8324 25.8213 81.3918 32.0348 83.1261C32.4859 83.2553 32.1986 83.8013 31.7512 83.6764C25.5654 81.932 19.5633 79.4412 14.3335 76.0447C14.0963 75.8881 14.3694 75.6248 14.6099 75.7603Z" fill="black"/>
<path d="M320.923 110.919C322.272 113.513 323.113 116.308 324.138 118.985C324.232 119.22 323.823 119.35 323.721 119.113C322.625 116.437 321.289 113.736 320.527 110.993C320.468 110.789 320.833 110.743 320.923 110.919Z" fill="black"/>
<path d="M278.277 116.165C279.913 118.126 281.27 120.253 282.713 122.31C282.888 122.558 282.477 122.81 282.294 122.558C280.822 120.496 279.218 118.46 277.939 116.31C277.84 116.139 278.149 116.007 278.277 116.165Z" fill="black"/>
<path d="M274.287 117.838C272.888 115.452 271.341 113.086 270.15 110.632C270.047 110.425 270.411 110.248 270.553 110.455C272.173 112.771 273.483 115.25 274.901 117.654C275.094 117.98 274.484 118.165 274.287 117.838Z" fill="black"/>
<path d="M266.096 107.718C268.601 111.534 270.467 115.685 272.558 119.659C272.733 119.987 272.132 120.169 271.957 119.842C269.829 115.884 267.381 111.929 265.688 107.841C265.59 107.605 265.96 107.505 266.096 107.718Z" fill="black"/>
<path d="M262.346 107.687C262.227 107.477 262.578 107.352 262.745 107.515C265.904 110.699 267.89 114.974 269.409 118.811C269.555 119.18 268.903 119.384 268.753 119.01C267.953 117.033 267.019 115.096 265.921 113.209C264.822 111.325 263.455 109.565 262.346 107.687Z" fill="black"/>
<path d="M260.449 109.247C261.817 112.797 263.214 116.243 265.485 119.517C265.727 119.862 265.148 120.214 264.898 119.864C262.611 116.602 260.681 113.017 260.062 109.316C260.031 109.131 260.374 109.055 260.449 109.247Z" fill="black"/>
<path d="M274.7 109.798C273.688 108.361 272.612 106.939 271.735 105.444C271.622 105.253 271.958 105.115 272.102 105.282C273.252 106.622 274.233 108.065 275.25 109.471C275.491 109.797 274.936 110.128 274.7 109.798Z" fill="black"/>
<path d="M313.893 112.547C313.661 111.915 313.417 111.278 313.169 110.643C312.011 110.124 310.845 109.629 309.666 109.158C310.053 110.244 310.423 111.33 310.824 112.378C311.113 113.12 311.392 113.864 311.68 114.613C312.998 115.388 314.293 116.199 315.561 117.038C314.999 115.543 314.437 114.047 313.893 112.547ZM305.295 107.51C305.561 108.255 305.823 108.996 306.095 109.736C306.38 110.502 306.66 111.268 306.945 112.034C308.235 112.682 309.506 113.367 310.751 114.08C310.521 113.495 310.289 112.918 310.063 112.333C309.596 111.149 309.053 109.941 308.547 108.725C307.474 108.306 306.389 107.903 305.295 107.51ZM301.127 106.089C301.523 106.901 301.918 107.714 302.294 108.535C302.552 109.088 302.773 109.649 303.021 110.205C304.023 110.634 305.004 111.085 305.982 111.554C305.746 110.943 305.512 110.329 305.282 109.715C304.958 108.863 304.622 108.009 304.29 107.156C303.239 106.791 302.186 106.437 301.127 106.089ZM304.715 114.148C305.624 114.556 306.532 114.97 307.436 115.384C307.035 114.332 306.639 113.274 306.234 112.221C305.244 111.715 304.254 111.215 303.252 110.732C303.748 111.871 304.25 113.003 304.715 114.148ZM300.657 113.112C301.076 114.102 301.499 115.1 301.923 116.09C303.194 116.804 304.437 117.556 305.665 118.324C305.207 117.133 304.727 115.946 304.229 114.76C303.026 114.227 301.838 113.675 300.657 113.112ZM312.137 117.567C311.772 116.648 311.411 115.732 311.045 114.815C309.78 114.092 308.494 113.391 307.195 112.712C307.574 113.743 307.952 114.769 308.331 115.799C309.604 116.387 310.869 116.977 312.137 117.567ZM317.624 118.931C317.313 118.715 317 118.511 316.688 118.303C316.869 118.815 317.054 119.331 317.234 119.846C317.346 120.163 316.79 120.339 316.666 120.016C316.381 119.25 316.097 118.483 315.811 117.72C314.55 116.893 313.26 116.104 311.957 115.342C312.287 116.206 312.617 117.074 312.947 117.941C313.757 118.314 314.576 118.686 315.391 119.053C315.72 119.206 315.503 119.641 315.16 119.492C314.52 119.204 313.861 118.923 313.212 118.639C313.484 119.35 313.755 120.063 314.027 120.774C314.148 121.085 313.597 121.254 313.476 120.943C313.126 120.061 312.773 119.179 312.427 118.302C311.172 117.761 309.917 117.226 308.661 116.689C308.906 117.351 309.141 118.013 309.391 118.673C309.522 119.029 308.893 119.221 308.758 118.861C308.438 118.013 308.114 117.165 307.79 116.316C306.891 115.932 305.996 115.542 305.102 115.147C305.596 116.387 306.089 117.627 306.551 118.876L306.55 118.879C308.032 119.832 309.474 120.821 310.893 121.839C311.202 122.065 310.827 122.453 310.512 122.233C307.892 120.361 305.151 118.618 302.308 116.992C302.639 117.773 302.965 118.553 303.3 119.331C303.447 119.675 302.831 119.866 302.681 119.518C302.236 118.499 301.786 117.475 301.337 116.456C300.084 115.766 298.802 115.12 297.509 114.489C297.777 115.167 298.037 115.843 298.301 116.519C298.445 116.874 297.807 117.072 297.664 116.711C297.311 115.822 296.95 114.931 296.594 114.038C295.47 113.499 294.346 112.953 293.23 112.394C293.853 113.672 294.424 114.971 294.938 116.25C298.204 117.849 301.344 119.717 304.307 121.521C304.661 121.736 304.254 122.155 303.899 121.944C301.362 120.402 298.763 118.948 296.086 117.6C295.831 117.474 295.575 117.357 295.323 117.234C295.397 117.43 295.479 117.627 295.549 117.822C295.694 118.202 295.018 118.416 294.87 118.028C294.706 117.602 294.511 117.181 294.334 116.757C292.606 115.949 290.859 115.182 289.153 114.345C289.807 115.535 290.443 116.732 291.075 117.925C293.44 119.201 295.769 120.54 298.117 121.814C298.474 122.011 298.073 122.424 297.72 122.227C295.718 121.138 293.663 120.081 291.643 118.992C291.762 119.21 291.872 119.425 291.99 119.643C292.196 120.025 291.494 120.238 291.284 119.855C291.003 119.345 290.712 118.834 290.426 118.324C289.041 117.56 287.671 116.78 286.349 115.95C286.142 115.82 286.345 115.531 286.577 115.636C287.675 116.149 288.755 116.692 289.823 117.254C288.554 115.008 287.283 112.754 286.278 110.445C286.159 110.174 286.587 110.062 286.75 110.304C287.48 111.401 288.138 112.536 288.778 113.677C290.519 114.263 292.231 114.977 293.915 115.763C293.325 114.415 292.694 113.074 291.977 111.759C291.897 111.711 291.873 111.645 291.879 111.581C290.763 109.558 289.398 107.639 288.249 105.632C288.113 105.391 288.529 105.219 288.714 105.428C290.387 107.324 291.74 109.478 292.881 111.701C294.012 112.114 295.125 112.586 296.218 113.102C295.469 111.245 294.719 109.387 293.978 107.532C292.831 104.659 291.31 101.691 290.692 98.7261C290.649 98.5281 290.974 98.4894 291.074 98.6568C292.739 101.434 293.644 104.626 294.796 107.553C295.58 109.546 296.352 111.536 297.133 113.528C298.429 114.166 299.695 114.857 300.944 115.546C300.516 114.58 300.094 113.608 299.666 112.638C298.922 112.268 298.178 111.894 297.444 111.507C297.231 111.394 297.353 111.118 297.6 111.211C298.182 111.426 298.758 111.65 299.337 111.879C298.942 110.98 298.548 110.077 298.154 109.174C297.421 107.489 296.683 105.807 295.955 104.119C295.266 102.516 294.389 100.859 293.997 99.199C293.939 98.9336 294.367 98.9041 294.5 99.1092C295.515 100.669 296.112 102.47 296.822 104.13C297.551 105.814 298.266 107.504 298.989 109.195C299.43 110.217 299.862 111.237 300.294 112.261C301.475 112.741 302.646 113.236 303.813 113.753C303.305 112.576 302.765 111.408 302.229 110.245C301.831 110.056 301.433 109.863 301.031 109.677C300.847 109.593 300.963 109.359 301.156 109.433C301.452 109.552 301.734 109.673 302.025 109.794C301.902 109.526 301.784 109.251 301.66 108.986C301.141 107.901 300.596 106.823 300.056 105.742C299.765 105.649 299.47 105.552 299.174 105.462C298.934 105.384 299.044 105.044 299.292 105.105C299.465 105.144 299.636 105.196 299.804 105.233C299.606 104.834 299.417 104.429 299.209 104.032C298.366 102.405 297.335 100.781 296.748 99.0865C296.685 98.9034 296.96 98.7413 297.109 98.9273C298.226 100.287 298.96 101.857 299.74 103.351C300.112 104.067 300.474 104.784 300.828 105.497C301.893 105.777 302.949 106.081 304.002 106.41C303.302 104.601 302.63 102.777 302.161 100.939C302.105 100.714 302.508 100.652 302.611 100.859C303.566 102.763 304.301 104.744 305.013 106.726C306.086 107.087 307.156 107.476 308.212 107.889C307.717 106.634 307.28 105.368 307.038 104.114C306.995 103.912 307.315 103.877 307.416 104.044C308.227 105.399 308.832 106.869 309.379 108.351C310.557 108.826 311.719 109.321 312.866 109.849C312.315 108.394 311.796 106.931 311.489 105.454C311.45 105.256 311.79 105.206 311.879 105.386C312.72 106.969 313.313 108.657 313.885 110.335C315.079 110.903 316.257 111.489 317.413 112.102C317.069 110.936 316.747 109.771 316.496 108.602C316.464 108.445 316.747 108.397 316.811 108.544C317.415 109.884 317.931 111.257 318.416 112.636C319.091 113.002 319.766 113.369 320.423 113.747C320.723 113.917 320.385 114.26 320.088 114.094C319.616 113.825 319.135 113.579 318.657 113.319C319.43 115.603 320.108 117.91 320.77 120.183C320.848 120.437 320.339 120.533 320.244 120.276C319.334 117.809 318.406 115.289 317.623 112.763C316.476 112.173 315.315 111.618 314.143 111.082C314.312 111.585 314.485 112.089 314.66 112.582C315.268 114.262 315.856 115.949 316.446 117.629C316.939 117.964 317.432 118.294 317.912 118.63C318.151 118.798 317.864 119.095 317.624 118.931Z" fill="black"/>
<path d="M285.808 104.315C283.422 103.746 280.912 103.273 278.623 102.427C278.429 102.353 278.52 102.115 278.716 102.142C281.132 102.492 283.524 103.268 285.873 103.903C286.174 103.984 286.123 104.39 285.808 104.315Z" fill="black"/>
<path d="M286.899 102.659C284.635 102.21 282.274 101.869 280.065 101.209C279.894 101.157 279.983 100.951 280.147 100.966C282.429 101.223 284.711 101.837 286.955 102.311C287.221 102.367 287.17 102.713 286.899 102.659Z" fill="black"/>
<path d="M281.463 100.456C281.27 100.408 281.303 100.197 281.503 100.207C283.383 100.324 285.287 100.741 287.147 101.043C287.427 101.091 287.37 101.45 287.089 101.405C285.226 101.121 283.287 100.933 281.463 100.456Z" fill="black"/>
<path d="M286.149 99.5395C284.39 99.3726 282.625 99.2157 280.869 98.9665C280.711 98.9486 280.754 98.7606 280.901 98.7695C282.669 98.8512 284.436 99.0265 286.205 99.1876C286.476 99.2125 286.42 99.5644 286.149 99.5395Z" fill="black"/>
<path d="M274.426 100.529C272.431 100.115 270.333 99.8009 268.402 99.1705C268.206 99.1106 268.308 98.885 268.488 98.9028C270.505 99.0995 272.523 99.6429 274.501 100.057C274.865 100.133 274.794 100.608 274.426 100.529Z" fill="black"/>
<path d="M272.348 121.011C276.123 122.431 279.852 123.78 283.842 124.664C287.88 125.552 292.015 126.074 296.136 126.189C300.022 126.3 303.894 126.055 307.669 125.462C311.345 124.883 315.662 124.092 317.492 121.113L317.54 121.139C316.368 123.745 313.138 124.813 310.108 125.473C305.962 126.368 301.617 126.758 297.282 126.728C288.868 126.672 279.665 125.095 272.128 121.435C271.812 121.28 272.006 120.881 272.348 121.011Z" fill="black"/>
<path d="M329.607 66.9233C324.217 61.8098 318.07 57.727 311.388 53.9023C311.12 53.748 311.389 53.3757 311.673 53.5109C318.647 56.7868 324.844 61.5736 329.94 66.7271C330.116 66.9065 329.786 67.0922 329.607 66.9233Z" fill="black"/>
<path d="M317.5 74.7227C318.241 75.1719 318.978 75.6169 319.714 76.0689C319.766 76.0988 319.781 76.1409 319.797 76.1794C319.984 75.6896 320.166 75.2026 320.361 74.7142C319.637 74.1053 318.883 73.5135 318.123 72.9386C317.915 73.5333 317.704 74.1238 317.5 74.7227ZM316.522 77.5362C317.174 77.993 317.828 78.4428 318.459 78.9216C318.737 79.1243 318.392 79.4809 318.115 79.2746C317.541 78.8447 316.945 78.4473 316.35 78.0393C316.091 78.7918 315.833 79.5408 315.57 80.2926C316.14 80.6895 316.698 81.0844 317.226 81.4711C317.491 81.6682 317.167 82.0099 316.897 81.8121C316.411 81.4575 315.901 81.1242 315.396 80.7845C315.006 81.9203 314.609 83.0512 314.215 84.1864C314.979 84.7148 315.737 85.2497 316.501 85.7711C316.852 84.6328 317.21 83.5028 317.576 82.3742C318.235 80.3649 318.96 78.3769 319.715 76.3972C319.627 76.4519 319.505 76.4794 319.39 76.4071C318.703 76.0061 318.019 75.6057 317.332 75.2011C317.065 75.9811 316.789 76.7562 316.522 77.5362ZM310.547 82.563C310.442 82.8962 310.337 83.2294 310.232 83.5626C311.237 84.0789 312.225 84.6249 313.194 85.204C313.281 84.9546 313.368 84.7122 313.46 84.4634C312.476 83.8387 311.506 83.2054 310.547 82.563ZM309.112 87.1581C310.065 87.6769 311.004 88.2225 311.937 88.7815C312.271 87.8063 312.613 86.829 312.964 85.8565L312.84 85.7829C311.912 85.2463 310.968 84.7542 310.01 84.2741C309.714 85.2336 309.413 86.1958 309.112 87.1581ZM308.601 88.7833C308.409 89.3877 308.235 89.9949 308.056 90.6013C308.955 91.1514 309.854 91.705 310.75 92.2509C311.058 91.3258 311.375 90.4021 311.692 89.4784C310.765 88.9313 309.835 88.3835 308.895 87.8415C308.797 88.1542 308.699 88.4705 308.601 88.7833ZM304.747 89.41C304.367 90.2913 304 91.2034 303.603 92.1108C304.581 92.5542 305.549 93.0286 306.493 93.5207C306.726 92.6559 306.997 91.7971 307.286 90.9411C306.431 90.4413 305.586 89.9289 304.747 89.41ZM309.748 95.3022C310.009 94.4815 310.282 93.6663 310.551 92.8505C309.656 92.3264 308.757 91.7981 307.853 91.2726C307.601 92.1235 307.335 92.9724 307.025 93.8033C307.947 94.2956 308.854 94.7964 309.748 95.3022ZM310.317 95.6197C311.42 96.238 312.509 96.8901 313.579 97.5501C313.734 96.6802 313.902 95.8123 314.088 94.9436C313.194 94.4125 312.296 93.8771 311.402 93.346C311.259 93.2584 311.11 93.1771 310.963 93.0888C310.662 93.8852 310.353 94.6767 310.044 95.4682C310.137 95.5154 310.225 95.5654 310.317 95.6197ZM314.902 91.4296C314.008 90.8696 313.107 90.3266 312.207 89.7835C311.87 90.6969 311.525 91.6053 311.185 92.5144C311.316 92.593 311.451 92.6793 311.578 92.7571C312.46 93.2827 313.337 93.8112 314.218 94.3403C314.429 93.3673 314.657 92.3971 314.902 91.4296ZM319.163 93.5833C319.218 92.4377 319.32 91.2926 319.461 90.1535C318.485 89.4254 317.484 88.7185 316.465 88.0378C316.18 89.0675 315.911 90.0998 315.643 91.1322C316.843 91.9354 318.011 92.7516 319.163 93.5833ZM313.498 86.1792C313.156 87.153 312.805 88.1254 312.455 89.0944C313.339 89.6347 314.212 90.1878 315.074 90.7571C315.345 89.7324 315.629 88.7098 315.926 87.6927C315.131 87.1736 314.32 86.67 313.498 86.1792ZM316.337 86.3114C315.561 85.8062 314.785 85.3045 313.991 84.8037C313.904 85.0496 313.817 85.292 313.726 85.5372C314.538 86.0338 315.33 86.5487 316.103 87.0715C316.182 86.8172 316.258 86.5622 316.337 86.3114ZM318.941 70.5866C318.724 71.2087 318.507 71.8344 318.287 72.4559C319.052 73.0533 319.798 73.6656 320.519 74.2955C320.805 73.5907 321.105 72.8878 321.399 72.1842C320.595 71.6385 319.776 71.1012 318.941 70.5866ZM317.926 72.1715C318.143 71.5711 318.356 70.9701 318.578 70.3668C317.858 69.928 317.142 69.4829 316.405 69.0667C314.204 67.8272 311.714 66.8667 309.62 65.507C309.498 65.4263 309.582 65.2268 309.745 65.2671C312.1 65.8961 314.296 67.2214 316.351 68.3873C317.172 68.8563 317.971 69.3473 318.762 69.844C318.916 69.4177 319.072 68.9878 319.227 68.5615C319.294 68.3593 319.663 68.5079 319.596 68.7137C319.433 69.164 319.278 69.6191 319.118 70.0736C319.955 70.61 320.784 71.1599 321.594 71.7281C321.868 71.0718 322.139 70.4113 322.426 69.757C318.687 67.3686 314.774 65.0537 311.353 62.3658C311.175 62.2256 311.376 62.0268 311.573 62.1372C315.441 64.2647 319.008 66.8821 322.618 69.3438C323.065 68.3363 323.53 67.3314 324.002 66.3349C320.215 63.4807 316.048 61.176 311.948 58.669C311.796 58.58 311.946 58.3766 312.113 58.45C316.547 60.3136 320.53 63.1194 324.181 65.9485C324.234 65.8378 324.283 65.7229 324.335 65.6157C324.425 65.4281 324.766 65.5685 324.684 65.754C324.613 65.8978 324.555 66.0437 324.488 66.1883L324.555 66.2385C324.762 66.3939 324.543 66.6407 324.327 66.5486C323.87 67.5583 323.417 68.5722 322.976 69.5882C323.3 69.8053 323.619 70.0218 323.935 70.2342C324.184 70.3998 323.892 70.6998 323.643 70.5342C323.366 70.3532 323.079 70.178 322.798 69.9964C322.513 70.6654 322.249 71.3378 321.978 72.0018C322.363 72.2755 322.747 72.5493 323.123 72.8251C323.373 73.0091 323.07 73.3253 322.82 73.1414C322.486 72.9046 322.132 72.6862 321.793 72.4523C320.391 75.9055 319.1 79.3946 317.96 82.9291C317.622 83.9865 317.314 85.0487 317.01 86.115C317.242 86.2745 317.482 86.4388 317.715 86.5947C318.019 86.7979 317.663 87.1708 317.355 86.9669C317.189 86.8576 317.018 86.7512 316.852 86.6419C316.776 86.9004 316.7 87.1589 316.624 87.4174C317.637 88.1115 318.608 88.8172 319.557 89.523C320.508 82.4165 323.011 75.4333 326.29 69.0128C326.364 68.8767 326.614 68.9776 326.549 69.1152C323.257 75.8077 321.347 82.7406 320.072 89.9076C320.185 89.994 320.302 90.0811 320.416 90.164C320.723 90.4038 320.341 90.8014 320.025 90.5638L319.954 90.5165C319.775 91.563 319.609 92.6116 319.451 93.6685L319.399 93.7469C320.174 94.3097 320.94 94.8748 321.702 95.4391C321.975 95.6482 321.635 96.0019 321.354 95.795C319.447 94.3821 317.477 93.0637 315.472 91.7977C315.234 92.7518 315.003 93.7143 314.768 94.6726C317.049 96.0402 319.329 97.4113 321.61 98.7824C321.956 98.9924 321.56 99.3986 321.213 99.1921C319.015 97.8809 316.82 96.5739 314.622 95.2627C314.417 96.114 314.209 96.9611 314 97.8117C316.001 99.0482 317.952 100.346 319.847 101.699C320.176 101.935 319.774 102.348 319.441 102.111C317.627 100.828 315.76 99.6017 313.851 98.4228C313.702 99.034 313.562 99.643 313.409 100.25C313.376 100.371 313.154 100.34 313.17 100.212C313.26 99.5375 313.362 98.8612 313.474 98.1863C312.367 97.5097 311.25 96.8458 310.111 96.2073C310.015 96.1524 309.917 96.1046 309.821 96.0532C309.543 96.7594 309.285 97.4761 308.999 98.181C308.975 98.2529 308.824 98.211 308.848 98.1391C309.075 97.3959 309.32 96.652 309.555 95.9101C308.639 95.408 307.707 94.9284 306.764 94.4581C306.678 94.6717 306.6 94.8866 306.51 95.096C306.432 95.2568 306.114 95.1703 306.15 94.9957C306.194 94.7466 306.269 94.4951 306.326 94.2445C305.318 93.7458 304.309 93.2505 303.305 92.7525C302.876 93.6692 302.419 94.5707 301.846 95.3745C301.756 95.5009 301.462 95.4579 301.507 95.2811C301.748 94.3129 302.144 93.3549 302.596 92.4057C301.803 92.0061 301.016 91.6036 300.235 91.1842C300.202 91.2547 300.172 91.3329 300.139 91.4034C299.649 92.5666 299.275 93.8563 298.519 94.9053C298.407 95.0607 298.067 95.0067 298.105 94.7927C298.31 93.6096 298.946 92.4841 299.427 91.3773C299.962 90.1238 300.497 88.8668 301.04 87.6182C301.179 87.2939 301.778 87.5331 301.64 87.8574C301.221 88.8444 300.803 89.8349 300.384 90.8218C301.233 91.1114 302.068 91.4384 302.89 91.7922C303.347 90.8907 303.829 89.9968 304.27 89.1144C303.393 88.5607 302.53 87.9949 301.704 87.3951C301.532 87.2705 301.694 87.0184 301.901 87.1161C302.805 87.5586 303.686 88.0336 304.56 88.522L304.566 88.5121C304.686 88.2533 305.17 88.4455 305.05 88.7078L305.015 88.7924C305.856 89.2719 306.686 89.7641 307.514 90.2703C307.72 89.6609 307.921 89.0543 308.116 88.454C308.207 88.1547 308.308 87.8531 308.403 87.5544C306.827 86.6447 305.241 85.7407 303.648 84.8247C303.468 84.7205 303.645 84.4852 303.833 84.5655C305.461 85.2633 307.053 86.0421 308.615 86.8774C308.918 85.9264 309.221 84.9788 309.525 84.0278C307.89 83.2134 306.237 82.4286 304.621 81.5775C304.359 81.4422 304.505 81.1227 304.804 81.2206C306.488 81.783 308.137 82.5059 309.751 83.317C309.863 82.9668 309.98 82.6139 310.089 82.2595C308.878 81.4402 307.688 80.5989 306.586 79.7029C306.405 79.5516 306.611 79.3498 306.82 79.4623C309.206 80.7491 311.462 82.275 313.688 83.8215C314.093 82.6954 314.498 81.5729 314.908 80.4475C314.017 79.8664 313.11 79.308 312.162 78.7898C310.635 77.9564 308.97 77.3285 307.463 76.4802C307.323 76.4003 307.431 76.183 307.595 76.2269C310.217 76.9272 312.803 78.4081 315.082 79.9556C315.357 79.2129 315.627 78.4694 315.898 77.726C314.844 77.0216 313.768 76.3391 312.66 75.6983C310.771 74.6128 308.65 73.7827 306.824 72.6279C306.626 72.4991 306.824 72.2996 307.025 72.3531C309.082 72.9278 311.042 74.1147 312.834 75.1559C313.953 75.8057 315.03 76.5064 316.082 77.2249C316.359 76.4681 316.632 75.7105 316.913 74.9544C315.646 74.2127 314.379 73.4746 313.122 72.7308C311.086 71.5246 308.755 70.3908 306.99 68.9066C306.848 68.7866 306.969 68.5714 307.17 68.6537C309.349 69.5362 311.323 70.967 313.283 72.1539C314.559 72.9187 315.82 73.6956 317.09 74.4702C317.309 73.8593 317.532 73.2525 317.75 72.6451C316.797 71.9386 315.817 71.2604 314.801 70.6162C312.786 69.3376 310.511 68.3713 308.518 67.089C308.305 66.947 308.512 66.713 308.737 66.7846C310.941 67.4799 313.102 68.8827 314.968 70.0907C315.99 70.7503 316.976 71.4439 317.926 72.1715Z" fill="black"/>
<path d="M317.12 104.827C317.541 105.038 317.255 105.602 316.83 105.391C311.329 102.684 305.709 100.095 300.358 97.1623C300.109 97.0254 300.354 96.6892 300.615 96.8062C306.232 99.2757 311.652 102.132 317.12 104.827Z" fill="black"/>
<path d="M55.3959 14.5005C55.3363 15.9518 55.213 17.5302 54.7041 18.8959C54.6438 19.0559 54.3031 19.0019 54.2952 18.8312C54.2296 17.3708 54.6037 15.8358 54.9955 14.4371C55.0503 14.2293 55.4038 14.2853 55.3959 14.5005Z" fill="black"/>
<path d="M52.7118 18.5732C52.4907 17.7915 52.8093 16.9655 52.9611 16.1996C53.1379 15.3043 53.3237 14.4067 53.5425 13.5216C53.5755 13.3681 53.8481 13.4113 53.8406 13.5688C53.7709 14.4775 53.666 15.3879 53.5617 16.2948C53.4726 17.0778 53.5226 17.9477 53.0653 18.6292C52.9786 18.7633 52.7571 18.7282 52.7118 18.5732Z" fill="black"/>
<path d="M50.3941 17.5208C50.2111 16.774 50.4561 16.0265 50.5939 15.2945C50.7478 14.4604 50.9108 13.6242 51.061 12.7859C51.1099 12.5051 51.6295 12.5874 51.5935 12.8702C51.4773 13.7139 51.3739 14.5596 51.2626 15.4004C51.1626 16.142 51.1663 16.9181 50.7604 17.5788C50.6768 17.7206 50.4297 17.6815 50.3941 17.5208Z" fill="black"/>
<path d="M48.6228 18.6144C48.5452 18.7464 48.2729 18.7286 48.2565 18.5564C48.1765 17.7106 48.4888 16.8691 48.6922 16.0537C48.9253 15.1059 49.1669 14.1595 49.4079 13.2166C49.4743 12.935 50.0031 13.0151 49.9403 13.3009C49.7376 14.2499 49.5423 15.2073 49.3354 16.1556C49.1564 16.9821 49.0719 17.874 48.6228 18.6144Z" fill="black"/>
<path d="M15.1016 32.1044C13.2998 43.5631 11.9139 55.1526 9.55102 66.5153C9.51408 66.6934 9.19462 66.6428 9.21452 66.462C10.4828 54.926 12.7418 43.4748 14.5692 32.0201C14.6143 31.7351 15.1467 31.8194 15.1016 32.1044Z" fill="black"/>
<path d="M295.198 92.9942C295.088 93.1067 294.819 93.0171 294.862 92.8579C295.298 91.0694 296.681 89.3625 297.615 87.7429C297.786 87.4346 298.377 87.669 298.206 87.9773C297.285 89.6059 296.566 91.6058 295.198 92.9942Z" fill="black"/>
<path d="M291.43 93.685C291.759 92.435 292.505 91.2764 293.109 90.1132C293.268 89.7993 293.859 90.0337 293.696 90.3469C293.104 91.5192 292.609 92.7717 291.758 93.8164C291.66 93.9379 291.393 93.8307 291.43 93.685Z" fill="black"/>
<path d="M288.345 94.0008C288.234 94.0409 288.109 93.9454 288.124 93.8504C288.21 93.2832 288.707 92.8209 288.951 92.2969C289.289 91.5713 289.423 90.8063 289.387 90.0107C289.375 89.6481 290.046 89.5993 290.063 89.9662C290.101 90.7729 289.995 91.5533 289.691 92.3096C289.446 92.92 289.103 93.7384 288.345 94.0008Z" fill="black"/>
<path d="M285.175 92.0198C285.18 91.4616 285.567 90.8664 285.784 90.3489C285.877 90.1184 286.304 90.2906 286.207 90.5205C285.99 91.0344 285.849 91.701 285.442 92.1234C285.343 92.2267 285.174 92.1351 285.175 92.0198Z" fill="black"/>
<path d="M280.968 92.3887C281.143 91.3668 281.741 90.3759 282.159 89.4212C282.293 89.1216 282.851 89.347 282.717 89.6467C282.3 90.5978 281.98 91.6797 281.334 92.5297C281.224 92.6781 280.944 92.5436 280.968 92.3887Z" fill="black"/>
<path d="M54.7328 81.2098C54.5641 82.413 54.5621 83.7761 54.1267 84.9263C54.074 85.0658 53.7801 85.0193 53.7689 84.8696C53.7145 83.6419 54.1296 82.3442 54.3409 81.1477C54.3786 80.9373 54.762 80.998 54.7328 81.2098Z" fill="black"/>
<path d="M51.2084 82.7039C51.1144 83.3527 51.1494 84.1517 50.8463 84.7421C50.7766 84.879 50.5295 84.8399 50.5055 84.6882C50.3997 84.033 50.6799 83.2839 50.791 82.6378C50.8346 82.4174 51.235 82.4809 51.2084 82.7039Z" fill="black"/>
<path d="M49.4222 81.1081C48.976 82.3539 48.6997 83.8503 47.9616 84.9814C47.8463 85.1579 47.5095 85.0793 47.5344 84.8669C47.7003 83.5442 48.4884 82.1793 48.9666 80.9241C49.0633 80.6725 49.5097 80.8586 49.4222 81.1081Z" fill="black"/>
<path d="M45.182 78.3265C45.237 78.007 45.8339 78.0979 45.7869 78.4223C45.639 79.3836 45.4959 80.342 45.348 81.3032C45.2208 82.1343 45.2104 83.0272 44.8223 83.7953C44.7467 83.942 44.4656 83.8975 44.4433 83.7353C44.3148 82.8925 44.5739 82.0282 44.7091 81.202C44.8698 80.2428 45.0256 79.2864 45.182 78.3265Z" fill="black"/>
<path d="M43.0919 74.5689C42.7224 76.9847 42.6587 79.6473 41.847 81.9606C41.7834 82.1417 41.3958 82.0803 41.3912 81.8885C41.3341 79.4375 42.1005 76.8862 42.4914 74.4738C42.5469 74.1507 43.1432 74.2452 43.0919 74.5689Z" fill="black"/>
<path d="M39.6631 73.3369C39.5063 74.8233 39.3494 76.3098 39.1926 77.7962C39.0497 79.1118 39.082 80.5344 38.6134 81.7839C38.5526 81.9474 38.2402 81.8799 38.2173 81.7212C38.0425 80.3986 38.3906 79.0002 38.5452 77.6937C38.7233 76.2106 38.9014 74.7275 39.0796 73.2445C39.1164 72.9293 39.6957 73.021 39.6631 73.3369Z" fill="black"/>
<path d="M36.732 71.4984C36.3571 74.6095 36.3261 77.9482 35.5019 80.9737C35.4379 81.2124 35.0475 81.1687 35.0123 80.9503L34.9947 80.9511L34.9939 80.9005L34.9962 80.8864C34.9534 77.738 35.7219 74.5125 36.1229 71.4019C36.1693 71.0811 36.7699 71.1762 36.732 71.4984Z" fill="black"/>
<path d="M32.0484 69.725C31.9419 71.2519 31.8445 72.7766 31.7423 74.3042C31.6451 75.8001 31.7251 77.4178 31.3042 78.8625C31.2544 79.0385 30.9153 79.057 30.8837 78.8428C30.6816 77.3896 30.9596 75.8827 31.0703 74.4394C31.1848 72.8345 31.3035 71.2302 31.4223 69.6259C31.4491 69.2911 32.0667 69.3889 32.0484 69.725Z" fill="black"/>
<path d="M9.9467 70.7403C9.86938 70.7281 9.88554 70.626 9.96286 70.6383C10.0402 70.6505 10.024 70.7525 9.9467 70.7403Z" fill="black"/>
<path d="M65.2359 86.5993C85.3179 89.3182 105.468 91.4168 125.656 92.5547C145.905 93.6986 166.152 93.8865 186.302 93.2223C197.665 92.8506 208.95 92.0627 220.279 91.4403C220.42 91.4302 220.452 91.6156 220.31 91.6327C210.374 92.7787 200.261 93.3339 190.193 93.7447C180.112 94.1535 169.999 94.3227 159.871 94.2587C139.781 94.1247 119.628 93.1474 99.5436 91.2179C88.0521 90.112 76.5961 88.7268 65.1813 86.9441C64.9129 86.9016 64.9664 86.5638 65.2359 86.5993Z" fill="black"/>
<path d="M221.016 36.0612C186.561 41.0281 151.074 42.6464 115.754 41.9073C105.897 41.7023 95.9302 41.5015 86.0716 40.5893C85.7829 40.5652 85.7746 40.1491 86.0704 40.1562C94.9644 40.4324 103.863 41.0121 112.752 41.2334C121.555 41.4518 130.344 41.5092 139.123 41.4065C156.687 41.1982 174.192 40.3385 191.578 38.8794C201.419 38.0574 211.214 37.0263 220.996 35.9137C221.107 35.9024 221.128 36.0464 221.016 36.0612Z" fill="black"/>
<path d="M38.205 8.82725C33.5961 8.20908 28.8261 7.22995 24.3419 8.3881C20.2346 9.45446 17.5723 12.1492 17.3814 15.7799C17.3656 16.0732 16.8361 16.0254 16.7836 15.7502C16.0837 12.2849 19.5581 9.31485 22.9937 8.10604C27.6544 6.46728 33.3972 7.45259 38.239 8.61261C38.3987 8.65232 38.3717 8.85004 38.205 8.82725Z" fill="black"/>
<path d="M62.9105 55.58L62.5505 55.61C62.7105 61.87 62.9405 66.32 63.2405 68.96C63.3205 69.6 63.6005 70.25 64.0805 70.91C64.5805 71.55 64.8305 72.1 64.8305 72.56C64.8305 73 64.6905 73.38 64.4105 73.7C64.1505 74.02 63.7905 74.18 63.3305 74.18C62.8905 74.18 62.5105 73.91 62.1905 73.37C61.8905 72.81 61.7105 72.21 61.6505 71.57C61.1305 64.87 60.5305 59.82 59.8505 56.42C58.0305 57.34 56.2505 58.93 54.5105 61.19C56.0905 63.69 56.8805 65.82 56.8805 67.58C56.8805 69.32 56.2905 70.83 55.1105 72.11C53.9305 73.37 52.8305 74 51.8105 74C50.7905 74 50.0005 73.67 49.4405 73.01C48.9005 72.35 48.6305 71.54 48.6305 70.58C48.6305 69.6 48.9505 68.37 49.5905 66.89C50.2505 65.39 51.1105 63.83 52.1705 62.21C51.2305 60.83 50.1605 59.61 48.9605 58.55C47.7605 57.47 46.5905 56.73 45.4505 56.33C44.9705 59.71 44.6505 62.26 44.4905 63.98C44.3505 65.68 44.2405 67.53 44.1605 69.53C44.0805 71.51 44.0305 72.67 44.0105 73.01C43.9905 73.33 43.8705 73.61 43.6505 73.85C43.4305 74.07 43.1705 74.18 42.8705 74.18C42.5705 74.18 42.2905 74.07 42.0305 73.85C41.7905 73.61 41.6705 73.28 41.6705 72.86C41.6705 72.44 41.8205 71.25 42.1205 69.29C42.7805 65.19 43.1505 60.75 43.2305 55.97C42.4105 55.79 42.0005 55.28 42.0005 54.44C42.0005 54.06 42.1805 53.75 42.5405 53.51C42.9005 53.25 43.3405 53.12 43.8605 53.12C45.4005 53.12 47.0605 53.78 48.8405 55.1C50.6405 56.4 52.2605 58.04 53.7005 60.02C55.2205 58 56.7905 56.35 58.4105 55.07C60.0305 53.77 61.5305 53.12 62.9105 53.12C63.8505 53.12 64.3205 53.5 64.3205 54.26C64.3205 54.62 64.1605 54.93 63.8405 55.19C63.5405 55.45 63.2305 55.58 62.9105 55.58ZM54.5105 68.63C54.5105 67.11 53.9805 65.39 52.9205 63.47C51.3005 66.07 50.4905 68.03 50.4905 69.35C50.4905 70.07 50.6705 70.7 51.0305 71.24C51.4105 71.78 51.8805 72.05 52.4405 72.05C53.0005 72.05 53.4805 71.7 53.8805 71C54.3005 70.28 54.5105 69.49 54.5105 68.63Z" fill="black"/>
<path d="M70.2673 53.12L76.3273 53.3L82.3873 53.12C82.7073 53.12 82.9873 53.23 83.2273 53.45C83.4873 53.65 83.6173 53.93 83.6173 54.29C83.6173 54.65 83.4873 54.94 83.2273 55.16C82.9873 55.36 82.7073 55.46 82.3873 55.46L76.3273 55.28C75.8073 55.28 74.9673 55.3 73.8073 55.34C73.8073 55.58 73.7873 56.01 73.7473 56.63C73.6273 58.49 73.5673 60.23 73.5673 61.85C74.6073 61.93 75.5773 61.97 76.4773 61.97C77.3973 61.97 78.3273 61.94 79.2673 61.88C80.2273 61.82 80.8073 61.79 81.0073 61.79C81.2273 61.79 81.4373 61.89 81.6373 62.09C81.8373 62.29 81.9373 62.55 81.9373 62.87C81.9373 63.19 81.8373 63.46 81.6373 63.68C81.4373 63.88 81.1773 63.98 80.8573 63.98L76.6873 63.83C75.6473 63.83 74.6073 63.87 73.5673 63.95C73.5673 66.39 73.6073 68.3 73.6873 69.68C73.7873 71.06 73.8373 71.84 73.8373 72.02L82.7773 71.84C83.0973 71.84 83.3773 71.95 83.6173 72.17C83.8773 72.37 84.0073 72.65 84.0073 73.01C84.0073 73.37 83.8773 73.66 83.6173 73.88C83.3773 74.08 83.0973 74.18 82.7773 74.18L77.0173 74C76.2173 74 75.2673 74.03 74.1673 74.09C73.0673 74.15 72.4773 74.18 72.3973 74.18C71.9773 74.18 71.6273 74.02 71.3473 73.7C71.0873 73.38 70.9573 73.06 70.9573 72.74C70.9573 72.42 70.9973 71.31 71.0773 69.41C71.1773 67.51 71.2273 65.68 71.2273 63.92C71.2273 62.14 71.1373 59.32 70.9573 55.46H70.2673C69.9473 55.46 69.6573 55.36 69.3973 55.16C69.1573 54.94 69.0373 54.65 69.0373 54.29C69.0373 53.93 69.1573 53.65 69.3973 53.45C69.6573 53.23 69.9473 53.12 70.2673 53.12Z" fill="black"/>
<path d="M86.8763 53.12L92.9363 53.3L98.9963 53.12C99.3163 53.12 99.5963 53.23 99.8363 53.45C100.096 53.65 100.226 53.93 100.226 54.29C100.226 54.65 100.096 54.94 99.8363 55.16C99.5963 55.36 99.3163 55.46 98.9963 55.46L94.3463 55.31C94.1863 58.75 94.1063 61.49 94.1063 63.53C94.1063 65.55 94.1463 67.51 94.2263 69.41C94.3263 71.31 94.3763 72.42 94.3763 72.74C94.3763 73.06 94.2363 73.38 93.9563 73.7C93.6963 74.02 93.3563 74.18 92.9363 74.18C92.5163 74.18 92.1663 74.02 91.8863 73.7C91.6263 73.38 91.4963 73.06 91.4963 72.74C91.4963 72.42 91.5363 71.31 91.6163 69.41C91.7163 67.51 91.7663 65.66 91.7663 63.86C91.7663 62.04 91.6763 59.19 91.4963 55.31L86.8763 55.46C86.5563 55.46 86.2663 55.36 86.0063 55.16C85.7663 54.94 85.6463 54.65 85.6463 54.29C85.6463 53.93 85.7663 53.65 86.0063 53.45C86.2663 53.23 86.5563 53.12 86.8763 53.12Z" fill="black"/>
<path d="M105.345 54.74C105.345 54.8 105.295 55.72 105.195 57.5C105.115 59.26 105.075 61.21 105.075 63.35C105.075 65.49 105.115 67.51 105.195 69.41C105.295 71.31 105.345 72.42 105.345 72.74C105.345 73.06 105.205 73.38 104.925 73.7C104.665 74.02 104.325 74.18 103.905 74.18C103.485 74.18 103.135 74.02 102.855 73.7C102.595 73.38 102.465 73.06 102.465 72.74C102.465 72.42 102.505 71.31 102.585 69.41C102.685 67.51 102.735 65.49 102.735 63.35C102.735 61.21 102.685 59.26 102.585 57.5C102.505 55.72 102.465 54.8 102.465 54.74C102.465 54.32 102.595 53.95 102.855 53.63C103.135 53.29 103.485 53.12 103.905 53.12C104.325 53.12 104.665 53.29 104.925 53.63C105.205 53.95 105.345 54.32 105.345 54.74Z" fill="black"/>
<path d="M110.17 53.12L116.23 53.3L122.29 53.12C122.61 53.12 122.89 53.23 123.13 53.45C123.39 53.65 123.52 53.93 123.52 54.29C123.52 54.65 123.39 54.94 123.13 55.16C122.89 55.36 122.61 55.46 122.29 55.46L116.23 55.28C115.71 55.28 114.87 55.3 113.71 55.34C113.71 55.58 113.69 56.01 113.65 56.63C113.53 58.49 113.47 60.23 113.47 61.85C114.51 61.93 115.48 61.97 116.38 61.97C117.3 61.97 118.23 61.94 119.17 61.88C120.13 61.82 120.71 61.79 120.91 61.79C121.13 61.79 121.34 61.89 121.54 62.09C121.74 62.29 121.84 62.55 121.84 62.87C121.84 63.19 121.74 63.46 121.54 63.68C121.34 63.88 121.08 63.98 120.76 63.98L116.59 63.83C115.55 63.83 114.51 63.87 113.47 63.95C113.47 66.39 113.51 68.3 113.59 69.68C113.69 71.06 113.74 71.84 113.74 72.02L122.68 71.84C123 71.84 123.28 71.95 123.52 72.17C123.78 72.37 123.91 72.65 123.91 73.01C123.91 73.37 123.78 73.66 123.52 73.88C123.28 74.08 123 74.18 122.68 74.18L116.92 74C116.12 74 115.17 74.03 114.07 74.09C112.97 74.15 112.38 74.18 112.3 74.18C111.88 74.18 111.53 74.02 111.25 73.7C110.99 73.38 110.86 73.06 110.86 72.74C110.86 72.42 110.9 71.31 110.98 69.41C111.08 67.51 111.13 65.68 111.13 63.92C111.13 62.14 111.04 59.32 110.86 55.46H110.17C109.85 55.46 109.56 55.36 109.3 55.16C109.06 54.94 108.94 54.65 108.94 54.29C108.94 53.93 109.06 53.65 109.3 53.45C109.56 53.23 109.85 53.12 110.17 53.12Z" fill="black"/>
<path d="M130.319 53.3L134.759 53.12C135.979 53.12 137.179 53.5 138.359 54.26C138.959 54.66 139.449 55.23 139.829 55.97C140.229 56.71 140.429 57.56 140.429 58.52C140.429 60.2 139.939 61.58 138.959 62.66C137.979 63.72 136.819 64.48 135.479 64.94C136.059 65.26 136.629 65.64 137.189 66.08C138.709 67.36 139.819 68.58 140.519 69.74C141.239 70.9 141.599 71.93 141.599 72.83C141.599 73.73 141.179 74.18 140.339 74.18C139.719 74.18 139.139 73.57 138.599 72.35C138.379 71.83 137.999 71.15 137.459 70.31C136.939 69.45 136.339 68.65 135.659 67.91C134.239 66.39 132.779 65.36 131.279 64.82C131.299 66.44 131.349 68.07 131.429 69.71C131.509 71.35 131.549 72.35 131.549 72.71C131.549 73.05 131.409 73.38 131.129 73.7C130.869 74.02 130.529 74.18 130.109 74.18C129.689 74.18 129.339 74.02 129.059 73.7C128.799 73.38 128.669 73.06 128.669 72.74C128.669 72.42 128.709 71.31 128.789 69.41C128.889 67.51 128.939 65.67 128.939 63.89C128.939 62.11 128.919 60.65 128.879 59.51C128.839 58.35 128.789 57.42 128.729 56.72C128.689 56.02 128.669 55.57 128.669 55.37H128.129C127.809 55.37 127.519 55.27 127.259 55.07C127.019 54.85 126.899 54.58 126.899 54.26C126.899 53.92 127.019 53.65 127.259 53.45C127.519 53.23 127.769 53.12 128.009 53.12C128.269 53.12 128.609 53.15 129.029 53.21C129.469 53.27 129.899 53.3 130.319 53.3ZM133.289 55.19L131.549 55.22C131.549 55.44 131.519 55.88 131.459 56.54C131.339 58.3 131.279 60.51 131.279 63.17C132.279 63.45 133.009 63.59 133.469 63.59C133.929 63.59 134.389 63.54 134.849 63.44C135.329 63.32 135.839 63.13 136.379 62.87C136.939 62.61 137.399 62.2 137.759 61.64C138.119 61.06 138.299 60.39 138.299 59.63C138.299 58.11 137.809 56.99 136.829 56.27C135.869 55.55 134.689 55.19 133.289 55.19Z" fill="black"/>
<path d="M152.851 56.21C152.591 55.89 152.191 55.6 151.651 55.34C151.131 55.06 150.491 54.92 149.731 54.92C148.971 54.92 148.271 55.2 147.631 55.76C147.011 56.32 146.701 57.02 146.701 57.86C146.701 58.68 147.061 59.36 147.781 59.9C148.521 60.44 149.401 60.86 150.421 61.16C151.461 61.46 152.491 61.8 153.511 62.18C154.551 62.54 155.431 63.14 156.151 63.98C156.891 64.8 157.261 65.86 157.261 67.16C157.261 69.04 156.471 70.68 154.891 72.08C153.331 73.48 151.361 74.18 148.981 74.18C147.401 74.18 146.121 73.79 145.141 73.01C144.181 72.21 143.701 71.38 143.701 70.52C143.701 70.06 143.831 69.69 144.091 69.41C144.351 69.11 144.671 68.96 145.051 68.96C145.451 68.96 145.791 69.08 146.071 69.32C146.351 69.54 146.611 69.82 146.851 70.16C147.111 70.5 147.401 70.84 147.721 71.18C148.441 71.98 149.451 72.38 150.751 72.38C152.071 72.38 153.131 72 153.931 71.24C154.731 70.48 155.131 69.47 155.131 68.21C155.131 67.27 154.761 66.51 154.021 65.93C153.281 65.33 152.381 64.87 151.321 64.55C150.281 64.21 149.231 63.86 148.171 63.5C147.131 63.14 146.241 62.6 145.501 61.88C144.761 61.14 144.391 60.23 144.391 59.15C144.391 58.05 144.641 57.1 145.141 56.3C145.661 55.48 146.301 54.85 147.061 54.41C148.581 53.55 150.011 53.12 151.351 53.12C152.711 53.12 153.901 53.41 154.921 53.99C155.941 54.57 156.451 55.27 156.451 56.09C156.451 56.51 156.331 56.85 156.091 57.11C155.851 57.37 155.511 57.5 155.071 57.5C154.631 57.5 154.211 57.37 153.811 57.11C153.431 56.83 153.111 56.53 152.851 56.21Z" fill="black"/>
<path d="M170.199 53.12L176.259 53.3L182.319 53.12C182.639 53.12 182.919 53.23 183.159 53.45C183.419 53.65 183.549 53.93 183.549 54.29C183.549 54.65 183.419 54.94 183.159 55.16C182.919 55.36 182.639 55.46 182.319 55.46L176.259 55.28C175.739 55.28 174.899 55.3 173.739 55.34C173.599 58.28 173.519 60.65 173.499 62.45C174.539 62.53 175.509 62.57 176.409 62.57C177.329 62.57 178.259 62.54 179.199 62.48C180.159 62.42 180.739 62.39 180.939 62.39C181.159 62.39 181.369 62.49 181.569 62.69C181.769 62.89 181.869 63.15 181.869 63.47C181.869 63.79 181.769 64.06 181.569 64.28C181.369 64.48 181.109 64.58 180.789 64.58L176.619 64.43C175.579 64.43 174.539 64.47 173.499 64.55C173.519 66.25 173.569 67.95 173.649 69.65C173.729 71.33 173.769 72.35 173.769 72.71C173.769 73.05 173.629 73.38 173.349 73.7C173.089 74.02 172.749 74.18 172.329 74.18C171.909 74.18 171.559 74.02 171.279 73.7C171.019 73.38 170.889 73.06 170.889 72.74C170.889 72.42 170.929 71.31 171.009 69.41C171.109 67.51 171.159 65.68 171.159 63.92C171.159 62.14 171.069 59.32 170.889 55.46H170.199C169.879 55.46 169.589 55.36 169.329 55.16C169.089 54.94 168.969 54.65 168.969 54.29C168.969 53.93 169.089 53.65 169.329 53.45C169.589 53.23 169.879 53.12 170.199 53.12Z" fill="black"/>
<path d="M197.262 65L192.282 64.85L188.472 64.94C188.292 65.36 188.092 65.89 187.872 66.53C187.672 67.17 187.402 67.92 187.062 68.78C186.722 69.62 186.332 70.47 185.892 71.33C184.912 73.23 183.972 74.18 183.072 74.18C182.292 74.18 181.902 73.74 181.902 72.86C181.902 72.3 182.452 71.48 183.552 70.4C184.012 69.98 184.532 69.29 185.112 68.33C185.712 67.37 186.232 66.26 186.672 65H185.592C185.272 65 184.992 64.91 184.752 64.73C184.532 64.53 184.422 64.26 184.422 63.92C184.422 63.58 184.542 63.3 184.782 63.08C185.022 62.86 185.282 62.75 185.562 62.75L187.662 62.78C189.362 59 190.972 56.39 192.492 54.95C191.712 54.95 190.532 55.03 188.952 55.19C187.372 55.33 186.412 55.4 186.072 55.4C185.752 55.4 185.472 55.31 185.232 55.13C184.992 54.93 184.872 54.66 184.872 54.32C184.872 53.96 184.992 53.67 185.232 53.45C185.492 53.23 185.772 53.12 186.072 53.12L192.612 53.3L199.722 53.12C200.082 53.12 200.372 53.23 200.592 53.45C200.812 53.67 200.922 53.95 200.922 54.29C200.922 55.03 200.512 55.4 199.692 55.4H198.972C198.972 58.6 199.102 61.49 199.362 64.07C199.622 66.65 199.882 68.64 200.142 70.04C200.402 71.44 200.532 72.33 200.532 72.71C200.532 73.07 200.412 73.41 200.172 73.73C199.952 74.03 199.642 74.18 199.242 74.18C198.862 74.18 198.532 74.04 198.252 73.76C197.972 73.48 197.822 73.08 197.802 72.56L197.262 65ZM196.722 55.04L195.972 55.01C193.712 55.23 191.512 57.83 189.372 62.81C191.092 62.85 192.152 62.87 192.552 62.87C192.952 62.87 194.472 62.83 197.112 62.75C196.852 58.33 196.722 55.76 196.722 55.04Z" fill="black"/>
<path d="M218.673 59.27C218.673 58.55 218.563 57.76 218.343 56.9C218.123 56.04 218.013 55.37 218.013 54.89C218.013 54.39 218.143 53.97 218.403 53.63C218.683 53.29 219.053 53.12 219.513 53.12C220.613 53.12 221.163 53.96 221.163 55.64C221.163 57.58 220.893 59.5 220.353 61.4C219.833 63.3 219.253 64.87 218.613 66.11C217.973 67.35 217.183 68.59 216.243 69.83C215.303 71.07 214.623 71.9 214.203 72.32C213.783 72.74 213.353 73.16 212.913 73.58C212.493 73.98 212.073 74.18 211.653 74.18C210.953 74.18 210.463 73.8 210.183 73.04C210.063 72.72 209.853 72.14 209.553 71.3C207.673 66.3 206.313 62.82 205.473 60.86C204.653 58.88 204.133 57.6 203.913 57.02C203.513 55.96 203.313 55.2 203.313 54.74C203.313 54.28 203.423 53.9 203.643 53.6C203.863 53.28 204.173 53.12 204.573 53.12C205.273 53.12 205.793 53.53 206.133 54.35C206.253 54.65 206.413 55.12 206.613 55.76C208.033 60.06 209.333 63.64 210.513 66.5C211.693 69.34 212.373 71 212.553 71.48C214.013 70.2 215.393 68.41 216.693 66.11C218.013 63.81 218.673 61.53 218.673 59.27Z" fill="black"/>
<path d="M225.281 63.11C225.281 65.53 225.991 67.64 227.411 69.44C228.851 71.24 230.691 72.14 232.931 72.14C235.171 72.14 236.941 71.43 238.241 70.01C239.561 68.57 240.221 66.64 240.221 64.22C240.221 61.78 239.501 59.66 238.061 57.86C236.641 56.06 234.801 55.16 232.541 55.16C230.301 55.16 228.531 55.88 227.231 57.32C225.931 58.74 225.281 60.67 225.281 63.11ZM232.031 74.18C229.431 74.18 227.241 73.25 225.461 71.39C223.701 69.51 222.821 67.24 222.821 64.58C222.821 61.26 223.821 58.52 225.821 56.36C227.821 54.2 230.371 53.12 233.471 53.12C236.071 53.12 238.251 54.06 240.011 55.94C241.791 57.8 242.681 60.06 242.681 62.72C242.681 66.04 241.681 68.78 239.681 70.94C237.681 73.1 235.131 74.18 232.031 74.18Z" fill="black"/>
<path d="M248.649 53.3L253.089 53.12C254.309 53.12 255.509 53.5 256.689 54.26C257.289 54.66 257.779 55.23 258.159 55.97C258.559 56.71 258.759 57.56 258.759 58.52C258.759 60.2 258.269 61.58 257.289 62.66C256.309 63.72 255.149 64.48 253.809 64.94C254.389 65.26 254.959 65.64 255.519 66.08C257.039 67.36 258.149 68.58 258.849 69.74C259.569 70.9 259.929 71.93 259.929 72.83C259.929 73.73 259.509 74.18 258.669 74.18C258.049 74.18 257.469 73.57 256.929 72.35C256.709 71.83 256.329 71.15 255.789 70.31C255.269 69.45 254.669 68.65 253.989 67.91C252.569 66.39 251.109 65.36 249.609 64.82C249.629 66.44 249.679 68.07 249.759 69.71C249.839 71.35 249.879 72.35 249.879 72.71C249.879 73.05 249.739 73.38 249.459 73.7C249.199 74.02 248.859 74.18 248.439 74.18C248.019 74.18 247.669 74.02 247.389 73.7C247.129 73.38 246.999 73.06 246.999 72.74C246.999 72.42 247.039 71.31 247.119 69.41C247.219 67.51 247.269 65.67 247.269 63.89C247.269 62.11 247.249 60.65 247.209 59.51C247.169 58.35 247.119 57.42 247.059 56.72C247.019 56.02 246.999 55.57 246.999 55.37H246.459C246.139 55.37 245.849 55.27 245.589 55.07C245.349 54.85 245.229 54.58 245.229 54.26C245.229 53.92 245.349 53.65 245.589 53.45C245.849 53.23 246.099 53.12 246.339 53.12C246.599 53.12 246.939 53.15 247.359 53.21C247.799 53.27 248.229 53.3 248.649 53.3ZM251.619 55.19L249.879 55.22C249.879 55.44 249.849 55.88 249.789 56.54C249.669 58.3 249.609 60.51 249.609 63.17C250.609 63.45 251.339 63.59 251.799 63.59C252.259 63.59 252.719 63.54 253.179 63.44C253.659 63.32 254.169 63.13 254.709 62.87C255.269 62.61 255.729 62.2 256.089 61.64C256.449 61.06 256.629 60.39 256.629 59.63C256.629 58.11 256.139 56.99 255.159 56.27C254.199 55.55 253.019 55.19 251.619 55.19Z" fill="black"/>
<path d="M265.511 54.74C265.511 54.8 265.461 55.72 265.361 57.5C265.281 59.26 265.241 61.21 265.241 63.35C265.241 65.49 265.281 67.51 265.361 69.41C265.461 71.31 265.511 72.42 265.511 72.74C265.511 73.06 265.371 73.38 265.091 73.7C264.831 74.02 264.491 74.18 264.071 74.18C263.651 74.18 263.301 74.02 263.021 73.7C262.761 73.38 262.631 73.06 262.631 72.74C262.631 72.42 262.671 71.31 262.751 69.41C262.851 67.51 262.901 65.49 262.901 63.35C262.901 61.21 262.851 59.26 262.751 57.5C262.671 55.72 262.631 54.8 262.631 54.74C262.631 54.32 262.761 53.95 263.021 53.63C263.301 53.29 263.651 53.12 264.071 53.12C264.491 53.12 264.831 53.29 265.091 53.63C265.371 53.95 265.511 54.32 265.511 54.74Z" fill="black"/>
<path d="M277.656 56.21C277.396 55.89 276.996 55.6 276.456 55.34C275.936 55.06 275.296 54.92 274.536 54.92C273.776 54.92 273.076 55.2 272.436 55.76C271.816 56.32 271.506 57.02 271.506 57.86C271.506 58.68 271.866 59.36 272.586 59.9C273.326 60.44 274.206 60.86 275.226 61.16C276.266 61.46 277.296 61.8 278.316 62.18C279.356 62.54 280.236 63.14 280.956 63.98C281.696 64.8 282.066 65.86 282.066 67.16C282.066 69.04 281.276 70.68 279.696 72.08C278.136 73.48 276.166 74.18 273.786 74.18C272.206 74.18 270.926 73.79 269.946 73.01C268.986 72.21 268.506 71.38 268.506 70.52C268.506 70.06 268.636 69.69 268.896 69.41C269.156 69.11 269.476 68.96 269.856 68.96C270.256 68.96 270.596 69.08 270.876 69.32C271.156 69.54 271.416 69.82 271.656 70.16C271.916 70.5 272.206 70.84 272.526 71.18C273.246 71.98 274.256 72.38 275.556 72.38C276.876 72.38 277.936 72 278.736 71.24C279.536 70.48 279.936 69.47 279.936 68.21C279.936 67.27 279.566 66.51 278.826 65.93C278.086 65.33 277.186 64.87 276.126 64.55C275.086 64.21 274.036 63.86 272.976 63.5C271.936 63.14 271.046 62.6 270.306 61.88C269.566 61.14 269.196 60.23 269.196 59.15C269.196 58.05 269.446 57.1 269.946 56.3C270.466 55.48 271.106 54.85 271.866 54.41C273.386 53.55 274.816 53.12 276.156 53.12C277.516 53.12 278.706 53.41 279.726 53.99C280.746 54.57 281.256 55.27 281.256 56.09C281.256 56.51 281.136 56.85 280.896 57.11C280.656 57.37 280.316 57.5 279.876 57.5C279.436 57.5 279.016 57.37 278.616 57.11C278.236 56.83 277.916 56.53 277.656 56.21Z" fill="black"/>
</svg>
