<svg width="395" height="111" viewBox="0 0 395 111" fill="none" xmlns="http://www.w3.org/2000/svg">
<path d="M52.456 110.311C36.3023 110.311 21.8847 106.824 11.8656 100.495C7.56371 97.7795 -2.11425 90.7756 0.848701 84.4717C1.24071 81.0604 1.76508 77.6745 2.27418 74.3981C2.66618 71.8808 3.07346 69.2791 3.40438 66.7069L3.60802 65.1552C3.9542 62.6379 4.30548 60.0362 4.19348 57.5188C4.17312 57.0887 4.1273 56.6629 4.08657 56.2454C3.91857 54.6642 3.76584 53.1672 5.04877 51.7547C6.14333 50.5529 7.9659 49.8066 9.79356 49.8066C9.95648 49.8066 10.1245 49.815 10.2874 49.8277L10.3536 49.347L3.93384 48.5584C3.72511 45.9019 3.2211 43.2033 2.73237 40.589C2.58473 39.8173 2.44218 39.0457 2.30472 38.2782L1.88726 35.9759C1.53598 34.0405 1.1898 32.1008 0.874156 30.1569C-0.271317 22.9971 11.6823 16.3052 20.7748 11.903C30.1219 7.37433 41.3119 4.11486 54.0342 2.22158C62.8518 0.905978 72.3669 0.239746 82.3299 0.239746C95.6734 0.239746 110.3 1.41198 127.034 3.81969C149.704 7.0876 172.135 12.5018 193.817 17.7431C219.634 23.9753 246.331 30.4268 273.598 33.2815C287.436 34.732 299.69 35.6723 311.053 36.153L311.399 36.1657L311.353 35.8832C311.037 33.9309 311.093 31.8984 311.16 29.9377C311.205 28.3944 311.251 26.792 311.119 25.2234C310.864 22.3013 310.197 19.4255 309.556 16.6468L309.159 14.9264C308.461 13.9523 308.12 13.0415 308.08 12.0548C307.978 9.82 309.816 7.86768 313.547 6.26114C322.09 2.57577 333.198 2.09929 341.924 2.09929C343.223 2.09929 344.5 2.11194 345.748 2.12881C355.492 2.25109 369.833 2.95528 381.823 7.58938C389.174 10.4356 395.359 16.1197 392.6 22.4067C392.926 26.5348 392.85 30.6672 392.778 34.6688C392.753 36.1066 392.727 37.5403 392.722 38.9698C392.646 54.4997 393.007 63.848 393.343 70.2574C393.45 72.3404 393.695 74.4909 393.939 76.5655C394.311 79.7744 394.693 83.0887 394.57 86.2891V86.3608L394.616 86.424C394.754 86.6054 394.743 86.7993 394.586 87.0017C394.504 87.1957 394.438 87.28 394.336 87.3306C385.366 98.2138 367.593 101.553 355.008 103.118C345.417 104.32 335.179 104.901 323.699 104.901C315.217 104.901 306.089 104.589 294.96 103.919C274.214 102.671 252.293 100.36 225.972 96.6494L224.847 96.4934C201.82 93.2382 184.257 90.4889 167.899 87.5794C157.88 85.7958 148.635 84.0079 139.639 82.1104C134.94 81.1237 130.236 80.0864 125.659 79.028C124.295 78.7118 122.875 78.307 121.505 77.919C119.082 77.2275 116.577 76.5149 114.128 76.2071C113.843 74.9885 113.451 73.7741 113.064 72.5976C112.769 71.6826 112.474 70.7634 112.219 69.8399L111.659 69.9453C111.837 70.6073 111.384 72.2223 111.028 73.5211C110.865 74.0903 110.727 74.6047 110.646 75.0053C107.22 73.9512 103.829 73.6771 100.24 73.3819C99.344 73.3102 98.4378 73.2343 97.5214 73.15C97.1854 73.112 96.2792 73.0657 95.0676 72.9982C91.9417 72.8211 83.6434 72.3615 83.0172 71.8808L82.4929 72.0747C82.7474 72.741 82.8288 73.5211 82.9001 74.2674C82.9663 74.8999 83.0274 75.5493 83.2005 76.1312L83.3329 76.5275C83.9438 78.0666 84.6158 79.6858 85.4914 81.2122C85.9904 82.0851 86.6929 82.92 87.3802 83.7296C88.2966 84.8217 89.2435 85.9518 89.6762 87.1493C91.1119 91.1298 90.3228 95.5278 87.4718 99.5294C83.8776 104.56 76.9844 107.845 66.9806 109.291C62.3122 109.97 57.4248 110.311 52.4611 110.311H52.456Z" fill="#F6E3BA"/>
<path d="M43.0838 15.5378C41.3274 17.6082 43.5674 43.9792 49.3457 55.9924C49.3457 55.9924 101.818 60.3988 186.548 79.2262C271.277 98.0494 331.941 96.8476 332.42 95.6501C332.898 94.4441 367.079 76.8227 354.566 43.9792C317.014 45.5815 231.802 41.9762 144.181 15.9384C87.3804 4.72628 51.2701 5.92803 43.0838 15.5378Z" fill="#F6E9CD"/>
<path d="M214.63 84.9315C208.877 84.2315 203.129 83.5273 197.376 82.8147C176.284 80.2088 154.861 78.1005 134.212 73.5887C113.131 68.9841 91.0204 67.6685 70.2746 62.0139C68.172 61.4447 68.0142 59.1171 69.5517 58.2695C92.2066 61.1706 132.914 67.31 186.548 79.2263C196.241 81.381 205.624 83.2701 214.63 84.9315Z" fill="#F9ECD1"/>
<path d="M317.712 94.8279C314.056 94.3219 310.447 93.6345 306.715 93.4448C306.674 93.4406 306.634 93.4406 306.593 93.4406C305.59 93.4406 304.923 94.0731 304.745 94.7983C290.052 94.2207 275.151 92.0322 260.998 90.4046C245.532 88.6294 230.075 86.8036 214.629 84.9314C205.623 83.27 196.241 81.3809 186.547 79.2262C132.914 67.3099 92.2064 61.1705 69.5515 58.2694C69.9028 58.0755 70.3406 57.9574 70.8701 57.9574C70.8904 57.9574 70.9108 57.9574 70.9312 57.9574C92.7002 58.3369 114.042 63.0089 135.76 64.0884C145.081 64.548 154.378 65.4588 163.643 66.5425C156.592 65.2353 149.551 63.8944 142.526 62.4903C129.381 59.8633 113.013 57.7002 102.246 50.5867C100.566 49.4777 101.497 46.8296 103.539 46.5092C105.499 46.2098 107.428 46.0833 109.343 46.0833C114.199 46.0833 118.98 46.8802 123.913 47.538C131.875 48.6006 139.766 50.0596 147.637 51.5059C148.961 51.7463 150.289 51.9866 151.613 52.2312C148.65 51.2909 145.697 50.321 142.74 49.3765C137.45 47.694 131.534 46.3827 126.912 43.6376C124.448 42.1744 124.885 38.2487 128.363 38.2487C128.459 38.2487 128.561 38.2529 128.658 38.2572C130.669 38.3794 132.705 38.6198 134.752 38.9487C131.127 37.5656 127.624 36.0139 124.381 34.1839C122.452 33.096 122.569 30.2413 124.672 29.5877C120.95 28.7444 117.224 27.8926 113.507 27.024C105.295 25.1096 95.2101 23.5368 88.7038 18.6834C87.2987 17.6293 88.042 15.5631 89.8085 15.192C91.8602 14.7619 94.0035 14.5848 96.1926 14.5848C103.045 14.5848 110.366 16.3052 116.72 17.3425C126.403 18.928 136.111 20.4586 145.784 22.1158C164.636 25.35 183.411 28.8877 202.268 32.0966C221.584 35.3814 240.94 38.4933 260.336 41.4323C279.407 44.3165 299.776 45.9947 318.007 51.6155C323.047 53.1673 322.339 59.3236 316.729 59.5007C315.385 59.5386 314.041 59.5639 312.692 59.5639C298.763 59.5639 284.559 57.4092 270.686 55.1955C270.92 56.5912 270.101 58.0291 267.952 58.5857C263.905 59.6272 259.476 60.0489 254.925 60.1163C258.127 60.694 261.237 61.4277 264.149 62.4102C267.611 63.5824 268.635 68.3515 264.149 69.1568C261.787 69.5827 259.343 69.8231 256.859 69.9327C258.519 70.1815 260.178 70.4429 261.838 70.6917C268.691 71.6953 276.388 72.041 282.324 75.2626C284.656 76.5318 285.425 78.9943 284.59 80.9508C298.809 82.5236 313.099 84.5561 326.107 88.7854C328.576 89.5908 329.044 91.6443 327.924 93.0147C327.497 93.0316 327.064 93.04 326.631 93.0526C325.424 93.0864 324.508 93.6683 323.989 94.4315C321.912 94.6128 319.814 94.7435 317.712 94.8279Z" fill="#F9F0DE"/>
<path d="M383.757 85.5259C383.253 85.5259 382.749 85.429 382.286 85.2266C382.657 80.6768 382.123 75.8487 382.148 72.2561C382.215 62.6927 381.965 53.1378 382.097 43.5786C382.108 42.5961 381.665 41.8793 380.993 41.4239C381.38 40.1125 381.787 38.7927 382.215 37.4645C382.515 36.5326 383.472 36.0983 384.429 36.0983C385.62 36.0983 386.817 36.7687 386.761 37.9747C386.415 45.7671 386.613 53.745 386.969 61.5416C387.3 68.6298 389.658 76.7595 386.893 83.6116C386.389 84.8513 385.086 85.5259 383.757 85.5259Z" fill="#F9ECD1"/>
<path d="M383.462 32.3454C381.252 32.3454 379.089 31.5105 377.816 29.5582C374.212 24.0133 369.416 19.5605 363.612 16.6679C363.23 16.3601 362.849 16.0565 362.472 15.7487C361.347 14.8337 360.028 14.4331 358.735 14.4331C358.506 14.4331 358.272 14.4457 358.043 14.471C354.698 13.4759 351.093 12.9446 347.265 12.9446C345.05 12.9446 342.759 13.1259 340.392 13.4928C340.133 13.5307 339.883 13.5518 339.634 13.5518C335.892 13.5518 333.479 9.22972 337.373 7.52619C343.034 5.05523 349.123 3.87878 355.126 3.87878C370.592 3.87878 385.422 11.6838 390.549 25.0886C392.142 29.242 387.728 32.3454 383.462 32.3454Z" fill="#F9ECD1"/>
<path d="M9.23361 49.8319C9.21834 49.6211 9.19798 49.4102 9.17761 49.2036L10.3536 49.347L10.2874 49.8277C10.1245 49.815 9.95653 49.8066 9.79362 49.8066C9.60526 49.8066 9.42198 49.815 9.23361 49.8319Z" fill="#A4A7AA"/>
<path d="M10.5472 73.9091C9.75808 73.4368 9.19298 72.661 9.14207 71.6026C8.81625 64.506 9.68681 57.4304 9.26935 50.3211C9.25917 50.1567 9.24899 49.9964 9.23371 49.832C9.42208 49.8151 9.60535 49.8067 9.79372 49.8067C9.95663 49.8067 10.1246 49.8151 10.2875 49.8278L10.3537 49.3471L9.17771 49.2037C8.55661 43.3172 6.00603 36.9079 7.41114 31.1733C7.57405 30.5281 8.26133 30.1992 8.96389 30.1992C9.39153 30.1992 9.82936 30.3257 10.145 30.5787C12.0745 32.0925 13.4745 34.049 14.5131 36.2122C12.8127 45.3876 11.4636 54.6516 11.5348 63.8692C11.545 65.4716 11.9167 66.9137 12.5581 68.204C11.8505 70.1478 11.0105 72.0116 10.5472 73.9091Z" fill="#F9ECD1"/>
<path d="M44.9876 104.421C42.9868 104.421 41.0573 104.328 39.2704 104.159C28.7677 103.19 15.7347 99.2385 11.3107 90.5269C11.27 90.4552 11.2394 90.3793 11.2089 90.3077C11.387 90.3287 11.5754 90.3372 11.774 90.3372C11.774 90.3372 11.7791 90.3372 11.7841 90.3372C16.5799 90.333 21.1567 89.2577 25.8353 88.583C30.3968 90.3287 34.9939 91.9184 40.2224 92.3822C41.154 92.4666 42.0755 92.5003 42.9868 92.5003C48.0065 92.5003 52.7615 91.3829 57.5877 90.6619C56.9768 90.4679 56.3761 90.2402 55.8008 89.9492C55.1339 89.6119 54.635 89.2366 54.1615 88.7517C53.6931 88.3891 53.3673 87.9674 53.1739 87.4741C53.0262 87.1578 52.9448 86.9976 52.9346 86.9976C52.9244 86.9976 52.9804 87.1536 53.1128 87.4656C53.0822 87.415 52.6699 86.8078 52.6139 86.7066C52.4 86.3777 52.2371 86.032 52.1302 85.6651C52.0284 85.0959 51.9775 84.8091 51.9877 84.8091C51.9877 84.8091 51.9928 84.8344 52.008 84.8892C51.6873 83.093 53.3317 81.6635 55.2815 81.6635C55.6786 81.6635 56.091 81.7183 56.4983 81.849C56.8241 81.887 57.1499 81.9376 57.379 81.984C57.5114 81.9671 57.5877 81.9587 57.5979 81.9587C57.6081 81.9587 57.547 81.9713 57.3994 81.9882L57.435 81.9966C57.8474 81.9587 58.3616 81.9123 58.4176 81.9123C58.5601 81.9081 58.6619 81.9039 58.7434 81.9039C58.9216 81.8659 59.0947 81.8237 59.115 81.8195C59.6954 81.693 60.3063 81.6213 60.9071 81.6213C61.6351 81.6213 62.358 81.7225 63.0351 81.946C64.2722 82.355 65.3311 82.9032 66.0592 83.7339C65.6519 83.7634 65.2293 83.7971 64.7966 83.8267C61.742 84.0164 59.8889 87.6849 63.1013 89.03C63.2489 89.0933 63.3864 89.1734 63.5238 89.2451C62.8467 89.8396 62.2256 90.4974 61.7165 91.2564C59.9652 93.8749 62.5311 96.367 65.3973 96.367C66.3544 96.367 67.3421 96.0887 68.2126 95.4478C68.0752 95.5532 68.0243 95.5911 68.0345 95.5911C68.0752 95.5911 68.6963 95.2074 68.9712 95.1442C69.0781 95.1231 69.1952 95.1062 69.3123 95.0893C69.2512 95.2074 69.185 95.3297 69.1137 95.4478C64.9137 102.363 54.2226 104.421 44.9876 104.421Z" fill="#F9ECD1"/>
<path d="M11.209 90.3076C7.88972 89.9407 6.39806 86.3861 8.79082 84.3284C9.23883 83.9489 9.73266 83.5778 10.2468 83.2194C10.0738 82.0893 10.5523 80.837 11.6061 80.1033C11.0359 79.7659 10.5829 79.2937 10.4403 78.6991C10.0432 77.0378 10.1705 75.4607 10.5472 73.909C11.1479 74.2632 11.8811 74.4487 12.6192 74.4487C14.0294 74.4487 15.4702 73.7825 16.0658 72.3826C19.1612 65.1932 19.1357 57.3418 17.9342 49.8361C17.2673 45.6743 16.5953 40.5257 14.5131 36.2121C15.292 32.0165 16.1473 27.842 16.9771 23.6928C14.9866 23.6928 12.9807 23.5368 10.8781 23.1067C6.90716 22.2971 8.10354 17.701 11.7945 17.4859C15.6993 17.2498 19.3801 16.9673 22.7401 15.1414C23.5801 14.686 24.4303 14.4836 25.25 14.4836C27.8769 14.4836 30.1424 16.5372 30.4122 18.8015C30.4632 19.2147 30.5141 19.628 30.5701 20.0412C30.7635 19.3581 31.461 19.0461 32.1635 19.0461C33.0494 19.0461 33.9505 19.5394 33.8894 20.4165C33.2683 29.2293 32.8101 39.83 37.224 48.0229C41.0728 55.1491 47.9863 57.5399 54.8897 62.0265C55.8163 62.6337 56.1065 63.5107 55.9588 64.3751C57.481 65.4082 56.9414 68.0141 54.8744 68.2798C52.9755 68.5243 51.0358 68.634 49.0656 68.634C46.6779 68.634 44.2546 68.4737 41.8313 68.1954C42.427 69.6038 42.0961 71.3621 40.808 72.3109C40.6808 72.4037 40.5484 72.4838 40.4211 72.5723C41.5513 72.5006 42.6815 72.4416 43.8066 72.3952C43.8983 72.391 43.9899 72.3868 44.0815 72.3868C45.6343 72.3868 46.9121 72.9518 47.9151 73.7825C48.1289 73.4367 48.4547 73.1121 48.9231 72.8506C49.4729 72.5428 50.0838 72.2519 50.7151 71.9693C50.9238 70.6327 52.0693 69.4183 54.1617 69.4141C56.1879 69.4056 58.2956 69.3424 60.4083 69.3255C62.0425 69.1105 63.6971 68.9924 65.3313 68.9924C69.9641 68.9924 74.3882 69.9496 77.3817 72.3109C79.357 73.8711 77.6515 76.1776 75.3453 76.4011C74.8158 76.4517 74.2864 76.4727 73.7518 76.4727C70.3765 76.4727 67.0012 75.5788 63.5902 75.524C63.4324 75.5198 63.2746 75.5198 63.1218 75.5198C58.9625 75.5198 55.0984 76.3378 51.0511 77.0546C50.8373 77.0926 50.6286 77.1095 50.43 77.1095C50.3638 77.1095 50.2976 77.1052 50.2365 77.101C51.27 79.5635 51.2955 81.7309 50.5115 84.4085C50.0838 85.8632 48.3783 86.7993 46.6627 86.7993C46.0008 86.7993 45.339 86.656 44.7536 86.3524C44.3514 86.15 43.9899 85.9434 43.6386 85.7325C38.8836 87.8788 34.3374 87.7228 28.9613 88.2035C27.9126 88.3005 26.8689 88.4312 25.8354 88.583C22.7147 87.3855 19.6092 86.1205 16.3306 85.0874C15.8011 84.9187 15.2971 84.847 14.8338 84.847C11.8098 84.847 10.257 88.0475 11.209 90.3076ZM19.0797 73.9933C18.7793 75.0222 18.4128 76.0216 17.919 76.983C19.5583 76.3378 21.2281 75.7601 22.9387 75.2794C21.5845 74.9674 20.2863 74.5289 19.0797 73.9933ZM34.0065 59.4459C33.7723 59.7368 33.4821 59.9814 33.141 60.1711C33.2581 60.3693 33.3803 60.5717 33.5025 60.7699C34.093 60.7783 34.6887 60.791 35.2894 60.8079C34.8465 60.3651 34.4138 59.9139 34.0065 59.4459Z" fill="#E0C591"/>
<path d="M12.6192 74.4488C11.881 74.4488 11.1479 74.2633 10.5471 73.9091C11.0104 72.0116 11.8504 70.1478 12.5581 68.2039C11.9166 66.9136 11.545 65.4716 11.5348 63.8692C11.4635 54.6516 12.8126 45.3876 14.513 36.2122C16.5952 40.5258 17.2672 45.6743 17.9341 49.8362C19.1356 57.3418 19.1611 65.1933 16.0657 72.3827C15.4701 73.7826 14.0294 74.4488 12.6192 74.4488Z" fill="#E3CDA3"/>
<path d="M11.774 90.3373C11.5754 90.3373 11.387 90.3288 11.2089 90.3077C10.2568 88.0476 11.8096 84.8472 14.8336 84.8472C15.2969 84.8472 15.8009 84.9189 16.3304 85.0875C19.609 86.1206 22.7145 87.3856 25.8353 88.5831C21.1566 89.2578 16.5799 90.333 11.7841 90.3373C11.7791 90.3373 11.774 90.3373 11.774 90.3373Z" fill="#E3CDA3"/>
<path d="M77.0303 100.288C74.9073 100.288 72.82 99.2891 72.0564 97.1007C71.7509 96.2278 71.3284 95.5532 70.3 95.1315C70.2338 95.0978 70.2134 95.0935 70.1727 95.0725C70.1422 95.0767 70.1065 95.0767 70.0709 95.0767C69.8316 95.0767 69.4956 95.064 69.6687 95.0261C69.5567 95.0514 69.4345 95.0682 69.3123 95.0893C70.412 92.7407 68.6149 90.1727 65.4126 90.0799C65.321 90.0799 65.2294 90.0799 65.1428 90.0799C65.0817 90.0799 65.0206 90.0799 64.9595 90.0799C64.8934 90.0799 64.8323 90.0799 64.7661 90.0799C64.7305 90.0799 64.6948 90.0799 64.6592 90.0799C64.9239 89.9155 65.1937 89.7553 65.4432 89.5529C66.8381 88.427 67.3625 86.6729 66.8534 85.1212C66.6752 84.5856 66.4054 84.1302 66.0592 83.7339C66.6803 83.6875 67.281 83.6495 67.8869 83.6495C68.7269 83.6495 69.5771 83.7254 70.5036 83.9616C72.2753 84.4128 73.9859 85.079 75.5233 85.9392C77.2848 86.9217 78.9445 88.1361 80.0289 89.5402C81.7802 91.2943 82.778 93.5882 82.6253 95.9074C82.4471 98.6988 79.7132 100.288 77.0303 100.288Z" fill="#E0C591"/>
<path d="M65.3973 96.367C62.5311 96.367 59.9652 93.875 61.7165 91.2564C62.2256 90.4974 62.8467 89.8396 63.5238 89.2451C63.3864 89.1734 63.2489 89.0933 63.1013 89.03C59.8889 87.6849 61.742 84.0164 64.7966 83.8267C65.2293 83.7971 65.6519 83.7634 66.0591 83.7339C66.4053 84.1303 66.6752 84.5857 66.8533 85.1212C67.3624 86.6729 66.8381 88.427 65.4431 89.5529C65.1937 89.7553 64.9239 89.9155 64.6591 90.08C64.6948 90.08 64.7304 90.08 64.766 90.08C64.8322 90.08 64.8933 90.08 64.9595 90.08C65.0206 90.08 65.0817 90.08 65.1428 90.08C65.2293 90.08 65.321 90.08 65.4126 90.08C68.6148 90.1727 70.4119 92.7407 69.3123 95.0893C69.1952 95.1062 69.0781 95.1231 68.9712 95.1442C68.6963 95.2074 68.0752 95.5911 68.0344 95.5911C68.0243 95.5911 68.0752 95.5532 68.2126 95.4478C67.3421 96.0887 66.3544 96.367 65.3973 96.367Z" fill="#E3CDA3"/>
<path d="M325.649 102.38C317.824 102.38 310.269 100.676 305.254 96.367C305.056 96.1984 304.913 96.0002 304.822 95.7893C311.664 96.114 317.361 96.2363 321.769 96.2363C328.576 96.2363 332.303 95.9411 332.42 95.6502C332.516 95.4014 334.064 94.4442 336.34 92.7997C337.577 92.766 338.814 92.7323 340.046 92.6985C341.604 92.1419 343.121 91.501 344.592 90.7799C350.421 87.9253 355.1 83.7845 358.455 78.9269C361.245 74.9 362.701 70.2448 365.735 66.3739C365.939 66.1083 366.204 65.9143 366.484 65.7456C366.509 65.5601 366.534 65.3704 366.56 65.189C367.446 58.1641 367.212 48.5079 372.903 42.9209C373.29 42.5456 373.85 42.3727 374.425 42.3727C374.802 42.3727 375.179 42.4444 375.52 42.5793C376.126 41.4155 377.511 40.8252 378.86 40.8252C379.639 40.8252 380.402 41.0234 380.993 41.424C379.058 48.0652 377.74 54.5715 377.338 61.5416C376.915 68.828 376.06 77.8854 381.013 84.2483C381.359 84.6911 381.797 85.0158 382.286 85.2266C382.062 87.8958 381.522 90.4721 380.367 92.6479C381.293 93.8581 380.983 95.6881 379.348 96.5273C371.946 100.314 362.009 100.116 353.573 100.289C352.539 100.305 351.511 100.318 350.483 100.318C347.642 100.318 344.837 100.238 342.042 100.082C337.002 101.503 331.259 102.38 325.649 102.38ZM364.783 85.9392C362.879 88.0686 360.7 90.0505 358.409 91.8172C360.873 91.5811 363.363 91.3155 365.847 91.1215C365.287 89.4939 364.956 87.7524 364.783 85.9392Z" fill="#E0C591"/>
<path d="M321.769 96.2363C317.36 96.2363 311.664 96.114 304.821 95.7893C304.689 95.4688 304.669 95.1231 304.745 94.7984C307.112 94.8911 309.475 94.9417 311.827 94.9417C313.797 94.9417 315.757 94.908 317.712 94.8279C319.646 95.0935 321.586 95.3086 323.571 95.3676C323.648 95.0429 323.79 94.7225 323.989 94.4315C324.396 94.3936 324.803 94.3556 325.211 94.3135C326.458 94.1954 327.38 93.6852 327.924 93.0147C330.729 92.943 333.535 92.8714 336.34 92.7997C334.064 94.4442 332.516 95.4014 332.42 95.6501C332.303 95.9411 328.576 96.2363 321.769 96.2363Z" fill="#E0CAA0"/>
<path d="M311.827 94.9417C309.475 94.9417 307.112 94.8911 304.745 94.7983C304.923 94.073 305.59 93.4405 306.593 93.4405C306.634 93.4405 306.675 93.4405 306.715 93.4447C310.447 93.6345 314.057 94.3218 317.712 94.8278C315.757 94.9079 313.797 94.9417 311.827 94.9417ZM323.989 94.4314C324.508 93.6682 325.425 93.0863 326.631 93.0526C327.064 93.0399 327.497 93.0315 327.924 93.0146C327.38 93.6851 326.458 94.1953 325.211 94.3134C324.804 94.3555 324.396 94.3935 323.989 94.4314Z" fill="#E3D0AD"/>
<path d="M382.286 85.2266C381.797 85.0158 381.359 84.6911 381.013 84.2483C376.06 77.8854 376.915 68.828 377.337 61.5416C377.74 54.5715 379.058 48.0652 380.993 41.424C381.665 41.8794 382.108 42.5962 382.098 43.5787C381.965 53.1378 382.215 62.6928 382.148 72.2562C382.123 75.8488 382.658 80.6768 382.286 85.2266Z" fill="#E3CDA3"/>
<path d="M322.793 36.0771C320.318 36.0771 317.844 34.7784 317.936 32.1767C318.022 29.731 318.353 27.2474 318.725 24.8186C319.041 22.7187 319.346 20.5598 321.174 18.9996C321.601 18.637 322.197 18.4557 322.788 18.4557C323.383 18.4557 323.979 18.637 324.406 18.9996C326.234 20.5598 326.54 22.7187 326.855 24.8186C327.227 27.2474 327.558 29.731 327.639 32.1767C327.736 34.7784 325.262 36.0771 322.793 36.0771Z" fill="#E0C591"/>
<path d="M329.146 19.0839C324.982 19.0839 320.945 17.3467 317.61 15.0402C314.163 12.6535 317.35 8.53809 321.046 8.53809C321.754 8.53809 322.482 8.68989 323.185 9.03143C327.207 11.0048 331.463 12.4596 335.037 14.9601C336.141 15.7401 335.846 17.4943 334.563 18.0214C332.766 18.7635 330.943 19.0839 329.146 19.0839Z" fill="#E0C591"/>
<path d="M358.44 32.864C355.909 32.864 353.445 31.7803 352.982 29.4106C352.3 25.9571 352.804 22.4573 353.079 18.9828C353.272 16.5455 355.517 14.7535 358.043 14.4709C359.987 15.0486 361.846 15.7865 363.612 16.6678C366.051 18.6286 368.51 20.7074 369.426 23.4735C369.894 24.865 369.268 26.4631 368.072 27.5679C368.046 27.9263 367.985 28.2974 367.853 28.6727C367.293 30.2497 365.73 31.034 364.08 31.034C363.902 31.034 363.719 31.0255 363.541 31.0045C362.4 32.2146 360.4 32.864 358.44 32.864Z" fill="#E0C591"/>
<path d="M363.612 16.6678C361.845 15.7865 359.987 15.0486 358.042 14.4709C358.272 14.4456 358.506 14.433 358.735 14.433C360.028 14.433 361.347 14.8336 362.472 15.7486C362.848 16.0564 363.23 16.36 363.612 16.6678Z" fill="#E3CDA3"/>
<path d="M346.858 35.6261C341.1 35.6261 343.197 27.977 343.533 25.1519C343.767 23.2291 345.315 21.5846 347.825 21.5846C349.979 21.5846 352.341 23.2333 352.112 25.1519C351.745 28.1837 352.254 35.6261 346.858 35.6261Z" fill="#E0C591"/>
<path d="M359.753 42.2334C355.405 42.2334 350.986 41.7738 346.858 41.4491C343.956 41.2214 343.961 37.924 346.858 37.6921C350.986 37.3674 355.405 36.912 359.753 36.912C362.792 36.912 365.796 37.1355 368.637 37.7848C370.76 38.2698 370.76 40.8756 368.637 41.3563C365.796 42.0099 362.792 42.2334 359.753 42.2334Z" fill="#E0C591"/>
<path d="M392.982 86.2386C385.086 95.5448 369.803 98.8843 357.07 100.693C337.862 103.421 317.992 103.029 298.615 101.975C254.273 99.5632 210.226 92.7575 166.84 84.9947C149.709 81.9292 132.675 78.3281 115.462 75.6253C114.984 72.6146 113.701 69.5617 112.917 66.61C112.703 65.8047 111.389 65.9354 111.099 66.61C110.325 68.4274 109.623 70.3038 109.16 72.2098C94.2531 70.9448 79.4791 68.4443 64.4607 68.166C51.8961 67.9341 38.9141 69.3298 26.7975 72.1212C21.1975 73.4115 15.6788 75.0897 10.5268 77.3457C8.85182 78.0836 6.93761 78.9143 5.20668 79.9305C7.83362 71.4929 8.06781 62.1024 7.72162 53.6649C9.10128 52.9228 10.3078 51.9572 11.6977 51.215C13.4592 50.2705 15.017 49.1193 16.8192 48.2338C15.9079 48.1073 7.28889 46.8297 7.31944 47.1965C6.74415 40.4836 5.51213 33.5135 2.68155 27.3234L2.73246 27.2939C41.1439 -6.11046 104.277 0.986177 153.034 10.7815C181.844 16.5709 209.778 25.135 238.659 30.5998C266.14 35.7989 294.344 37.9199 322.467 38.6915C334.777 39.0247 347.178 38.856 359.331 37.0344C369.375 35.5333 383.823 32.9189 390.538 25.8729C390.666 25.7422 390.773 25.6115 390.895 25.4765C390.65 29.6721 390.737 33.893 390.676 38.0717C390.63 41.1203 391.582 68.069 391.674 71.1303C391.821 76.0258 391.745 81.3093 393.135 86.1163C393.089 86.1585 393.028 86.188 392.982 86.2386ZM83.6588 81.7689C83.1548 81.4906 82.6253 81.225 82.0602 80.9846C75.0397 77.9613 60.5304 77.0842 54.3194 82.393C54.3245 82.1442 54.3143 81.8828 54.3092 81.6298C54.5994 78.1047 53.7034 74.1326 52.0132 71.067C61.5995 70.5653 71.0789 71.0333 80.5635 71.8134C80.1053 73.2977 80.8995 75.1952 81.4289 76.5487C81.5969 76.983 81.7904 77.4047 81.9991 77.8137C82.4369 79.1757 83.0224 80.5081 83.6588 81.7689ZM55.1289 85.8338C55.7754 84.3369 62.633 82.199 62.633 82.3044C62.6381 82.3593 62.6381 82.4141 62.6635 82.4731C63.3356 84.0923 64.2265 85.644 65.0869 87.2C65.9371 88.7391 66.6803 90.4173 67.9684 91.7371L68.0091 91.7666C67.8971 91.7371 67.7698 91.716 67.6222 91.7455C64.5472 92.3317 61.3093 93.331 58.4482 91.8763C56.0809 90.6661 54.1209 88.1783 55.1289 85.8338ZM84.1781 98.7157C76.623 108.473 57.6133 108.119 45.4764 107.191C30.8092 106.078 14.9406 102.397 5.96014 91.8931C3.37392 88.8656 2.14699 85.8422 5.78705 83.0002C8.96382 80.5292 13.5712 78.8215 17.5116 77.4089C25.5401 74.5289 34.1846 72.9266 42.8087 71.864C44.952 71.5984 47.0851 71.4086 49.2183 71.2568C49.7426 72.4037 50.3128 73.538 50.827 74.6849C51.1223 75.659 51.4328 76.6288 51.6212 77.6155C52.4052 81.7521 49.5084 87.959 53.0416 91.3154C56.87 94.9418 65.0869 94.7309 69.2462 91.7793C68.8389 89.8227 67.9174 88.4945 66.94 86.7109C65.9931 85.1633 65.0614 83.5863 63.9363 82.1189C66.6243 81.79 69.4295 81.7942 72.0361 81.9755C76.1343 82.2665 80.6755 83.2405 83.6333 85.7621C87.8283 89.3378 87.2327 94.7773 84.1781 98.7157ZM349.434 17.9709C346.471 20.0961 340.733 20.1087 335.81 19.725C335.744 18.7257 335.403 17.6884 335.092 16.8535C334.706 15.7909 334.171 14.8168 333.479 13.9145C335.851 12.6832 338.335 11.8146 341.135 11.4477C343.06 11.1947 344.918 11.0724 346.853 11.4941C349.398 12.0549 354.464 14.3741 349.434 17.9709ZM350.34 35.0568C350.37 35.2044 350.442 35.3266 350.533 35.4278C347.901 35.6724 345.264 35.8537 342.627 35.976C332.745 36.4356 322.726 36.3682 312.707 35.9802C314.795 30.9287 314.163 23.7266 312.203 17.6546C316.739 20.0497 323.643 20.9225 327.451 21.4412C333.983 22.3393 344.725 23.3134 350.564 20.6316C349.332 25.35 349.347 30.3383 350.34 35.0568ZM311.155 11.2116C312.835 6.18954 327.537 5.43475 332.17 5.05525C343.284 4.13181 354.789 4.32156 365.781 6.05038C373.478 7.26057 385.768 9.3689 389.51 16.0186C393.654 23.364 382.556 28.1963 375.836 30.4311C368.413 32.8979 360.598 34.361 352.682 35.2086C352.748 35.0821 352.789 34.9429 352.768 34.7827C352.152 29.3685 352.412 24.2495 353.018 18.9702C353.868 18.0974 354.413 17.0221 354.535 15.6981C355.456 5.49379 337.032 8.79543 331.396 12.0296L331.295 12.1055C331.055 12.1603 330.862 12.3206 330.877 12.5272C330.475 13.2103 330.923 14.0789 331.692 14.3319C332.15 15.3819 332.557 16.4487 332.771 17.545C332.888 18.1648 332.888 18.81 332.903 19.4509C331.839 19.3371 330.857 19.219 330.027 19.1262C325.873 18.6498 309.245 16.9083 311.155 11.2116ZM394.861 86.2976C395.054 81.0015 393.904 75.5367 393.634 70.2448C393.318 64.1686 392.931 54.9088 393.007 38.9698C393.038 33.5093 393.338 27.9601 392.87 22.4911C395.68 16.086 389.393 10.2544 381.94 7.37442C370.897 3.10294 357.783 2.04456 345.748 1.88854C335.357 1.75361 322.879 1.96023 313.415 6.05038C310.625 7.25213 307.662 9.17071 307.784 12.0633C307.835 13.1639 308.248 14.1211 308.874 14.9728C309.648 18.3757 310.528 21.7448 310.829 25.2362C311.134 28.795 310.498 32.4003 311.068 35.9128C298.493 35.3773 285.929 34.3315 273.634 33.0412C223.488 27.7915 176.768 10.7435 127.08 3.58364C103.111 0.134412 78.0791 -1.60707 53.9783 1.98131C42.3658 3.71014 30.8602 6.73348 20.6273 11.6965C13.5864 15.1078 -0.663232 22.3773 0.589151 30.1908C1.02698 32.9021 1.53607 35.6092 2.01972 38.312C2.63573 41.7781 3.40956 45.2864 3.66411 48.7694C5.87868 49.0434 8.09326 49.3133 10.3078 49.5832C8.23072 49.4314 6.08232 50.2241 4.81976 51.6072C3.12446 53.4752 3.80665 55.4232 3.90338 57.5274C4.04084 60.5423 3.50119 63.6879 3.11428 66.6817C2.35572 72.5893 1.23571 78.4673 0.58406 84.3833C-2.34835 90.6155 6.44888 97.3748 11.6926 100.689C26.4615 110.021 49.1724 112.116 67.0316 109.531C74.9786 108.38 83.3991 105.698 87.7163 99.6518C90.4043 95.8863 91.504 91.3913 89.9563 87.0777C89.1876 84.9525 86.917 83.1351 85.7512 81.1111C84.8857 79.6016 84.2341 78.0372 83.613 76.4686C83.5671 76.3337 83.5162 76.2072 83.4806 76.0764C83.1191 74.8241 83.2515 73.2681 82.7729 72.0032C83.0479 72.7284 95.9891 73.2428 97.491 73.3862C102.144 73.829 106.517 73.9302 110.875 75.3301C111.048 74.1326 112.229 70.9827 111.939 69.8948C112.53 72.0748 113.39 74.2253 113.884 76.418C117.768 76.8734 121.76 78.3787 125.583 79.26C130.231 80.3353 134.894 81.3599 139.568 82.3466C148.946 84.32 158.374 86.129 167.838 87.8114C186.731 91.1763 205.751 94.0352 224.801 96.7296C225.173 96.7845 225.55 96.8351 225.921 96.8857C248.79 100.111 271.801 102.764 294.94 104.159C314.886 105.357 335.21 105.833 355.049 103.358C369.345 101.579 385.87 98.0199 394.474 87.5373C394.642 87.4614 394.764 87.3307 394.83 87.1325C395.074 86.8205 395.029 86.5253 394.861 86.2976Z" fill="black"/>
<path d="M317.213 28.0572C317.172 28.968 317.091 29.9125 317.04 30.8612C316.312 30.701 315.589 30.507 314.876 30.2878C314.82 29.7312 314.769 29.183 314.744 28.6517C314.718 28.2638 314.693 27.8716 314.673 27.4837C315.518 27.6777 316.363 27.8674 317.213 28.0572ZM319.54 32.0377C319.585 32.9991 319.596 34.0111 319.723 34.9893C319.091 34.8755 318.46 34.7785 317.824 34.6857C317.987 33.7497 318.017 32.7672 317.987 31.7763C318.501 31.8817 319.02 31.966 319.54 32.0377ZM314.937 30.9161C315.609 31.1564 316.302 31.363 317.004 31.5443C316.969 32.5859 316.989 33.6147 317.147 34.5972C316.439 34.5044 315.737 34.4117 315.034 34.3231C315.136 33.2184 315.044 32.0588 314.937 30.9161ZM323.327 22.9887C319.478 22.4406 315.905 21.7364 312.29 20.4714C311.954 20.3533 311.72 20.8256 312.04 20.969C312.662 21.2346 313.298 21.4792 313.95 21.7069C313.97 22.5249 313.98 23.3472 313.995 24.161C313.848 24.2453 313.792 24.4393 313.985 24.5489L314.006 24.5616C314.021 25.3712 314.041 26.1765 314.057 26.9861C313.868 27.0409 313.817 27.2897 314.062 27.3445V27.3488C314.072 27.7789 314.082 28.2174 314.092 28.6517C314.102 29.0987 314.097 29.5583 314.087 30.0221C313.833 29.9336 313.573 29.845 313.313 29.7396C312.967 29.6005 312.656 30.0306 313.008 30.1781C313.359 30.3257 313.715 30.4733 314.082 30.6125C314.057 31.8184 314.046 33.0497 314.235 34.2177C314.062 34.1966 313.889 34.1755 313.715 34.1502C313.349 34.0996 313.181 34.5635 313.558 34.6267C313.817 34.6689 314.077 34.711 314.337 34.7574C314.377 34.9134 314.403 35.0652 314.449 35.217C314.494 35.4026 314.866 35.4152 314.907 35.217C314.932 35.099 314.942 34.9767 314.963 34.8586C315.731 34.9893 316.5 35.1201 317.274 35.2423C317.335 35.3731 317.549 35.3941 317.661 35.3056C318.384 35.4194 319.107 35.5206 319.83 35.5965C319.886 35.8791 319.937 36.1616 320.023 36.4272C320.1 36.6465 320.436 36.5748 320.466 36.3766C320.507 36.1405 320.502 35.9001 320.512 35.6556C320.95 35.6977 321.382 35.7441 321.82 35.7652C322.044 35.7736 322.075 35.4996 321.866 35.4447C321.433 35.3351 320.985 35.2508 320.537 35.158C320.522 34.146 320.339 33.1045 320.217 32.1052C320.909 32.1684 321.606 32.1979 322.304 32.1642C322.564 32.1515 322.66 31.8058 322.375 31.7678C321.591 31.654 320.822 31.5443 320.064 31.4305C319.962 31.3209 319.784 31.2998 319.652 31.3588C319.086 31.266 318.521 31.1691 317.961 31.0594C317.915 30.0896 317.829 29.1198 317.783 28.1837C319.102 28.4704 320.43 28.7276 321.774 28.9174C322.019 28.9511 322.121 28.6644 321.876 28.6011C320.532 28.2216 319.153 27.9222 317.763 27.6481C317.763 27.4837 317.753 27.3192 317.747 27.1548C317.747 26.8807 317.238 26.8765 317.238 27.1548C317.238 27.2813 317.228 27.4162 317.223 27.5427C316.363 27.3741 315.502 27.2138 314.647 27.0536C314.601 26.3072 314.561 25.5651 314.515 24.823C316.709 25.9488 319.234 26.6783 321.825 26.5054C322.014 26.4928 322.095 26.2356 321.876 26.206C319.219 25.894 316.795 25.4175 314.484 24.258C314.433 23.4526 314.382 22.6514 314.337 21.846C317.172 22.8074 320.247 23.3851 323.271 23.3345C323.5 23.3303 323.566 23.0225 323.327 22.9887Z" fill="black"/>
<path d="M314.739 14.1294C316.719 13.1216 318.761 12.1097 320.537 10.8615C320.731 10.7224 320.481 10.4862 320.273 10.579C318.226 11.4519 316.327 12.6241 314.474 13.7499C314.204 13.9102 314.438 14.277 314.739 14.1294Z" fill="black"/>
<path d="M317.223 15.7149C319.478 14.1421 321.866 12.6283 323.887 10.8488C324.03 10.7181 323.841 10.4862 323.658 10.5958C321.214 11.9958 319.03 13.7415 316.801 15.3649C316.51 15.5757 316.933 15.9173 317.223 15.7149Z" fill="black"/>
<path d="M329.513 17.4059C327.802 17.8866 326.193 18.6962 324.585 19.3708C324.152 19.5564 324.534 20.0877 324.961 19.9148C326.55 19.257 328.27 18.6793 329.726 17.836C329.976 17.6926 329.833 17.3215 329.513 17.4059Z" fill="black"/>
<path d="M332.012 15.7022C330.18 15.4829 328.327 15.3438 326.473 15.2299C327.619 14.4878 328.754 13.7204 329.665 12.8391C329.864 12.6367 329.609 12.3247 329.319 12.468C327.853 13.1722 326.514 14.1673 325.211 15.154C324.177 15.0908 323.144 15.0318 322.11 14.9685C323.882 13.636 325.664 12.2994 327.217 10.8067C327.354 10.676 327.166 10.4187 326.972 10.541C324.345 12.2024 322.029 14.2306 319.641 16.1239C319.336 16.3558 319.789 16.7269 320.089 16.4949C320.507 16.1703 320.939 15.8498 321.362 15.5293C322.375 15.601 323.383 15.6769 324.401 15.7528C324.076 15.9932 323.755 16.2377 323.434 16.4612C323.088 16.7016 323.582 17.0979 323.918 16.8702C324.432 16.5202 324.972 16.1787 325.511 15.8329C327.655 15.9932 329.798 16.1323 331.941 16.1618C332.247 16.166 332.333 15.7359 332.012 15.7022Z" fill="black"/>
<path d="M355.844 36.7729C355.854 35.023 355.396 33.2688 355.166 31.5358C354.922 29.6889 354.734 27.8378 354.596 25.9824C354.337 22.373 354.296 18.7551 354.362 15.1414C354.372 14.8378 353.828 14.8463 353.807 15.1414C353.507 18.8479 353.502 22.567 353.741 26.2776C353.96 29.6847 353.96 33.564 355.212 36.8403C355.319 37.1229 355.844 37.0765 355.844 36.7729Z" fill="black"/>
<path d="M376.874 23.1532C376.722 24.9916 376.335 26.9313 376.543 28.7655C376.574 29.0017 377.007 29.0902 377.083 28.8246C377.592 27.0072 377.526 25.0127 377.668 23.1532C377.704 22.7273 376.91 22.7315 376.874 23.1532Z" fill="black"/>
<path d="M373.341 32.5774C368.525 32.5985 363.571 33.5725 358.816 34.1502C358.46 34.1966 358.542 34.7237 358.903 34.6815C363.668 34.1755 368.759 34.0068 373.402 32.9485C373.647 32.8979 373.601 32.5774 373.341 32.5774Z" fill="black"/>
<path d="M357.498 23.3978C358.516 23.402 359.534 23.4147 360.552 23.4358C360.563 24.8484 360.578 26.2694 360.593 27.6862C359.616 27.6988 358.643 27.703 357.671 27.7115C357.62 26.2736 357.564 24.8357 357.498 23.3978ZM364.605 23.499L364.579 23.5707C364.742 24.9327 364.875 26.2947 365.022 27.6524C363.857 27.6524 362.696 27.6567 361.535 27.6735C361.474 26.2652 361.408 24.8526 361.337 23.4442C362.421 23.4653 363.515 23.4779 364.605 23.499ZM369.691 27.7452C368.428 27.6988 367.166 27.6651 365.898 27.6567C365.689 26.2947 365.47 24.9369 365.282 23.5707L365.236 23.5032C366.657 23.5201 368.072 23.5201 369.482 23.4948C369.462 24.92 369.462 26.3706 369.691 27.7452ZM365.277 29.8662C364.055 29.9294 362.828 30.018 361.617 30.0939C361.596 29.474 361.581 28.8584 361.555 28.2385C362.737 28.2554 363.913 28.2596 365.094 28.2596C365.15 28.7951 365.206 29.3307 365.277 29.8662ZM356.011 28.1879C356.225 28.1879 356.444 28.1922 356.663 28.1922C356.699 30.3469 356.765 32.4974 356.872 34.6479C356.897 35.1539 357.854 35.1497 357.819 34.6479C357.814 32.5016 357.758 30.3511 357.686 28.2006C358.659 28.2133 359.631 28.2175 360.603 28.2301C360.614 28.871 360.634 29.512 360.654 30.1529C360.232 30.1782 359.804 30.1993 359.382 30.2119C359.056 30.2288 359.051 30.6463 359.382 30.6378C359.809 30.6252 360.237 30.621 360.67 30.6125C360.69 31.1565 360.7 31.6962 360.726 32.2402C360.751 32.7419 361.698 32.7377 361.657 32.2402C361.657 31.6962 361.637 31.148 361.627 30.6041C362.869 30.5957 364.121 30.5957 365.379 30.5704C365.435 31.0005 365.491 31.4263 365.557 31.8522C365.633 32.3076 366.489 32.3414 366.448 31.8522C366.417 31.4137 366.377 30.9794 366.346 30.5451C367.914 30.4987 369.472 30.4017 370.984 30.1824C371.218 30.1487 371.142 29.8746 370.933 29.8577C369.385 29.7439 367.802 29.7565 366.209 29.824C366.142 29.3011 366.066 28.7741 365.985 28.2554C367.252 28.247 368.515 28.2133 369.777 28.1669C369.823 28.3904 369.864 28.6138 369.93 28.8331C369.991 29.0692 370.475 29.0861 370.526 28.8331C370.572 28.6012 370.597 28.365 370.628 28.1289C370.887 28.1205 371.147 28.1205 371.412 28.1036C371.636 28.0868 371.636 27.8253 371.412 27.8127C371.162 27.7958 370.913 27.7958 370.663 27.7789C370.79 26.3706 370.663 24.9032 370.521 23.4569C371.305 23.4358 372.094 23.4105 372.873 23.3683C372.75 25.1857 372.603 27.1338 373.076 28.8162C373.132 29.0355 373.54 29.0355 373.601 28.8162C374.201 26.6784 373.799 24.1315 373.723 21.9473C373.708 21.5341 372.964 21.5341 372.949 21.9473C372.944 22.2678 372.924 22.5967 372.903 22.934C372.094 22.8876 371.274 22.8623 370.46 22.8412C370.388 22.1328 370.322 21.4329 370.286 20.7498C370.266 20.3239 369.477 20.3239 369.492 20.7498C369.518 21.4202 369.508 22.1117 369.497 22.8075C366.774 22.7611 364.035 22.8075 361.306 22.8581C361.26 21.8883 361.209 20.9226 361.174 19.9528C361.174 19.9022 361.133 19.8685 361.107 19.8347C364.534 19.8769 368.031 20.0329 371.412 19.7209C371.681 19.6956 371.686 19.392 371.412 19.3667C367.619 19.0209 363.673 19.2655 359.86 19.2697C359.432 19.2739 359.432 19.8221 359.86 19.8221C360.094 19.8221 360.344 19.8263 360.583 19.8305C360.552 19.8643 360.517 19.898 360.517 19.9528C360.537 20.9226 360.547 21.8967 360.552 22.8665C359.524 22.8834 358.501 22.896 357.478 22.9045C357.366 20.5811 357.254 18.2577 357.136 15.9428C357.121 15.635 356.561 15.6307 356.561 15.9428C356.576 19.8643 356.582 23.7942 356.653 27.7199C356.439 27.7199 356.225 27.7241 356.011 27.7241C355.65 27.7283 355.65 28.1879 356.011 28.1879Z" fill="black"/>
<path d="M360.344 17.8698C362.915 17.7348 365.481 17.5957 368.051 17.3806C368.286 17.3638 368.291 17.0686 368.051 17.0686C365.475 17.115 362.915 17.2331 360.344 17.3553C359.947 17.3722 359.947 17.8909 360.344 17.8698Z" fill="black"/>
<path d="M348.36 24.9156C348.558 24.8903 348.558 24.612 348.36 24.5867C346.476 24.321 344.434 24.5023 342.525 24.515C342.164 24.5234 342.164 24.983 342.525 24.9873C344.434 25.0041 346.476 25.1812 348.36 24.9156Z" fill="black"/>
<path d="M346.858 27.6523C347.01 27.6397 347.01 27.471 346.858 27.4584C346.058 27.3951 345.254 27.4078 344.455 27.4078C344.226 27.4078 344.226 27.7029 344.455 27.7029C345.254 27.7029 346.058 27.7198 346.858 27.6523Z" fill="black"/>
<path d="M344.455 30.5576C345.269 30.5534 346.099 30.5872 346.904 30.4986C347.072 30.4775 347.072 30.2414 346.904 30.2203C346.099 30.1318 345.269 30.1655 344.455 30.1655C344.149 30.1613 344.149 30.5576 344.455 30.5576Z" fill="black"/>
<path d="M344.068 33.0791C345.168 32.9442 346.338 32.8767 347.413 32.6026C347.632 32.5478 347.591 32.2695 347.357 32.2695C346.211 32.2527 345.035 32.4593 343.9 32.5858C343.513 32.6279 343.676 33.1213 344.068 33.0791Z" fill="black"/>
<path d="M386.654 32.9273C378.356 36.444 370.047 39.2017 360.777 40.3318C360.41 40.3782 360.568 40.8378 360.929 40.7956C369.915 39.7752 379.252 37.4476 386.898 33.2773C387.163 33.1339 386.934 32.8093 386.654 32.9273Z" fill="black"/>
<path d="M367.975 85.9393C368.016 84.2527 368.092 82.5702 368.265 80.8751C369.401 80.757 370.541 80.6221 371.666 80.4703C371.35 82.0726 371.009 83.6707 370.658 85.2731C369.767 85.4966 368.871 85.7158 367.975 85.9393ZM367.145 92.1252C365.582 92.4119 364.014 92.6733 362.431 92.8968C362.579 91.2565 362.68 89.6162 362.726 87.9675C364.182 87.6049 365.638 87.238 367.094 86.8754C367.038 88.6295 367.038 90.3795 367.145 92.1252ZM362.889 81.3516C364.422 81.2335 365.964 81.1028 367.522 80.9468C367.323 82.6714 367.196 84.4087 367.125 86.1501C365.664 86.5128 364.203 86.8754 362.747 87.238C362.792 85.2731 362.818 83.3039 362.889 81.3516ZM373.453 75.7814C374.721 75.5832 375.983 75.3892 377.241 75.1657C377.063 76.3844 376.905 77.6072 376.808 78.8258C375.469 79.0198 374.125 79.218 372.791 79.4161C373.041 78.2102 373.254 76.9958 373.453 75.7814ZM373.947 72.2942C375.209 72.1424 376.472 71.9737 377.729 71.784C377.617 72.6484 377.485 73.5213 377.358 74.3941C376.095 74.5628 374.843 74.7483 373.58 74.938C373.713 74.0568 373.835 73.1797 373.947 72.2942ZM374.405 67.892C375.734 67.58 377.057 67.2511 378.371 66.8969C378.183 68.3348 377.989 69.7726 377.806 71.2147C376.548 71.3159 375.291 71.434 374.033 71.5689C374.176 70.3419 374.303 69.1191 374.405 67.892ZM374.604 65.1765C376.004 64.8644 377.383 64.5145 378.732 64.1181C378.641 64.7885 378.559 65.459 378.468 66.1294C377.134 66.3993 375.8 66.6903 374.471 66.9981C374.522 66.3909 374.568 65.7837 374.604 65.1765ZM381.049 74.4321C380.921 75.7181 380.82 77.0042 380.769 78.2819C379.7 78.421 378.636 78.5644 377.577 78.7162C377.78 77.4933 377.913 76.2536 378.04 75.014C379.048 74.8284 380.051 74.6387 381.049 74.4321ZM383.38 82.2287C379.328 82.9666 375.357 84.1008 371.376 85.0918C371.839 83.5232 372.231 81.9377 372.582 80.3438C373.993 80.1414 375.393 79.9137 376.777 79.6396C376.752 80.0444 376.716 80.445 376.716 80.8456C376.721 81.0353 377.073 81.0859 377.124 80.892C377.241 80.4366 377.322 79.9727 377.414 79.5089C378.539 79.277 379.659 79.0198 380.748 78.7288C380.708 79.9727 380.723 81.2124 380.83 82.4311C380.845 82.625 381.222 82.7009 381.273 82.4817C381.858 79.7999 382.011 77.0042 382.103 74.217C382.276 74.1538 382.265 73.9387 382.113 73.8755C382.164 72.1719 382.199 70.4726 382.296 68.8112C382.316 68.4191 381.599 68.4233 381.573 68.8112C381.451 70.5021 381.263 72.2225 381.089 73.9556C380.097 74.061 379.104 74.1791 378.111 74.3055C378.188 73.5086 378.274 72.7159 378.366 71.9274C378.376 71.8472 378.386 71.7629 378.396 71.6828C379.135 71.5689 379.878 71.4677 380.611 71.3412C380.835 71.3033 380.789 70.9913 380.555 71.0039C379.857 71.0419 379.155 71.1093 378.457 71.1641C378.641 69.6841 378.814 68.204 378.987 66.7198C380.025 66.4373 381.069 66.1632 382.082 65.8469C382.352 65.7626 382.25 65.4379 381.965 65.4885C380.998 65.6445 380.036 65.8216 379.079 66.0072C379.16 65.3198 379.241 64.6283 379.328 63.941C379.44 63.9073 379.557 63.8693 379.674 63.8356C380.031 63.7217 379.893 63.3212 379.516 63.3675L379.389 63.3844C379.43 63.0597 379.465 62.7393 379.506 62.4104C379.542 62.1152 378.992 62.1194 378.956 62.4104C378.905 62.7646 378.865 63.1145 378.819 63.4645C377.429 63.6585 376.039 63.9073 374.654 64.1982C374.685 63.5531 374.721 62.9121 374.741 62.267C376.895 61.664 378.967 60.9219 380.784 59.9394C381.028 59.8045 380.881 59.4418 380.575 59.5262C378.605 60.0743 376.711 60.8122 374.761 61.4237C374.792 60.2852 374.797 59.1509 374.792 58.0124C376.808 57.4853 378.804 56.8992 380.677 56.1655C380.916 56.0727 380.733 55.7944 380.504 55.8324C378.59 56.1317 376.676 56.5871 374.777 57.0974C374.766 56.4016 374.741 55.6974 374.716 54.9975C376.528 54.5758 378.427 54.2216 380.117 53.5301C380.326 53.4457 380.234 53.1337 379.995 53.1548C378.193 53.3235 376.431 53.8379 374.69 54.2849C374.649 53.3403 374.593 52.4042 374.527 51.4597C376.63 50.8525 378.717 50.22 380.723 49.4483C380.988 49.3471 380.799 49.0056 380.529 49.0688C378.483 49.52 376.477 50.1104 374.476 50.7302C374.43 50.1146 374.369 49.4989 374.318 48.8833C376.487 48.1623 378.641 47.3948 380.616 46.4419C380.82 46.3449 380.682 46.0792 380.463 46.1298C378.356 46.619 376.289 47.3231 374.242 48.0695C374.181 47.4792 374.11 46.8804 374.044 46.2859C376.431 45.6491 378.814 44.9871 381.11 44.1817C381.4 44.0805 381.303 43.7095 380.972 43.7769C378.61 44.2661 376.278 44.9028 373.962 45.5732C373.835 44.5486 373.697 43.5239 373.545 42.4993C377.098 41.5421 380.641 40.547 384.052 39.341C384.312 39.2525 384.124 38.9109 383.864 38.9699C380.321 39.7542 376.828 40.7747 373.351 41.8288C373.198 41.7361 372.964 41.7782 372.949 41.9511C370.627 42.6511 368.311 43.3679 365.995 44.0384C365.633 44.1438 365.791 44.6203 366.158 44.5149C368.418 43.8739 370.719 43.2667 373.015 42.6469C373.163 43.6757 373.28 44.7088 373.397 45.7377C371.58 46.269 369.767 46.8129 367.955 47.3189C367.558 47.4286 367.726 47.9599 368.133 47.846C369.899 47.3611 371.692 46.9015 373.484 46.4334C373.55 47.0491 373.621 47.6647 373.672 48.2803C372.038 48.8917 370.414 49.52 368.805 50.0893C368.443 50.2158 368.708 50.7471 369.075 50.6206C370.592 50.0893 372.16 49.5875 373.728 49.0731C373.779 49.6887 373.82 50.3085 373.86 50.9242C372.394 51.3838 370.933 51.8476 369.472 52.2904C369.044 52.4211 369.222 53.003 369.665 52.8681C371.07 52.4506 372.486 52.0458 373.906 51.641C373.962 52.5771 374.008 53.5132 374.038 54.4493C371.987 54.9553 369.945 55.4571 367.899 55.9673C367.425 56.0769 367.624 56.6926 368.102 56.5787C370.083 56.1064 372.063 55.63 374.049 55.1535C374.064 55.8661 374.079 56.5745 374.084 57.2871C371.697 57.9491 369.329 58.6913 366.987 59.3195C366.534 59.4418 366.728 60.0406 367.186 59.9183C369.441 59.3195 371.788 58.7882 374.1 58.1937C374.094 59.3491 374.049 60.5002 374.013 61.6556L373.896 61.6893C371.625 62.3302 369.309 62.8362 366.962 63.2368C366.453 63.3254 366.667 63.9747 367.176 63.8862C369.375 63.5109 371.707 63.0724 373.982 62.4778C373.957 63.1019 373.952 63.726 373.916 64.35C370.928 64.9994 367.96 65.7879 365.033 66.433C364.534 66.5427 364.747 67.1794 365.246 67.074C368.057 66.4668 370.979 65.9566 373.845 65.3451C373.804 65.9523 373.764 66.568 373.702 67.1794C370.169 68.0185 366.651 68.942 363.144 69.7642C362.645 69.8823 362.859 70.5316 363.363 70.4136C366.748 69.6166 370.195 68.8829 373.611 68.0902C373.489 69.2835 373.346 70.4726 373.183 71.6617C369.66 72.0623 366.147 72.5303 362.65 72.9309C362.187 72.99 362.385 73.5761 362.843 73.5213C366.244 73.1333 369.67 72.8002 373.081 72.4038C372.949 73.2936 372.812 74.1875 372.664 75.0772C368.825 75.676 365.002 76.3591 361.24 77.0422C360.909 77.1012 361.056 77.4976 361.377 77.4596C365.063 76.9831 368.805 76.4982 372.526 75.9332C372.318 77.1391 372.089 78.3451 371.854 79.5511C368.861 79.9854 365.862 80.3902 362.828 80.6727C362.68 80.4366 362.248 80.4577 362.136 80.7275C361.693 80.7697 361.26 80.8119 360.817 80.8456C360.308 80.8751 360.303 81.5498 360.817 81.5076C361.219 81.4781 361.637 81.4486 362.044 81.4148C361.932 83.4388 361.774 85.4755 361.642 87.5121C360.848 87.7145 360.059 87.9085 359.264 88.1025C358.75 88.2332 358.969 88.9078 359.488 88.7771C360.191 88.6042 360.899 88.4271 361.601 88.25C361.504 89.8397 361.459 91.4294 361.469 93.0149C360.771 93.1034 360.079 93.1962 359.376 93.2679C358.811 93.3311 358.806 94.0817 359.376 94.0142C360.074 93.9383 360.771 93.854 361.469 93.7654C361.484 94.0817 361.464 94.3979 361.479 94.7142C361.494 95.0684 362.131 95.1654 362.243 94.8027C362.334 94.4485 362.451 94.1028 362.594 93.7654C362.614 93.7106 362.594 93.6642 362.568 93.6305C364.116 93.4197 365.669 93.1878 367.222 92.9263C367.293 93.7992 367.354 94.6678 367.471 95.5364C367.522 95.8822 368.169 96.0298 368.281 95.625C368.413 95.1105 368.545 94.5961 368.652 94.0817C368.693 93.8708 368.326 93.698 368.209 93.9257L368.189 93.9594C368.163 93.5672 368.138 93.1751 368.113 92.7787C370.042 92.4372 371.961 92.0493 373.855 91.6023C373.932 91.674 374.003 91.7541 374.084 91.8216C374.354 92.0324 374.695 91.771 374.563 91.5137L374.522 91.4336C376.014 91.071 377.48 90.6578 378.931 90.2108C378.992 90.3415 379.048 90.4764 379.124 90.6029C379.262 90.8264 379.649 90.7041 379.664 90.4807C379.679 90.3204 379.654 90.156 379.649 89.9957C380.636 89.6753 381.619 89.3379 382.581 88.9753C382.785 88.9036 382.642 88.6338 382.433 88.6844C381.487 88.9247 380.545 89.1608 379.598 89.3928C379.455 88.503 379.135 87.6049 378.921 86.7616C378.793 86.2598 377.872 86.4706 377.999 86.9724C378.218 87.8242 378.361 88.7603 378.666 89.6205C377.154 89.9873 375.647 90.3499 374.135 90.6957C373.499 89.4518 373.046 88.3217 373.254 86.8375C373.321 86.4116 372.521 86.4158 372.455 86.8375C372.267 88.1235 372.44 89.6879 373.244 90.8939C371.529 91.2734 369.803 91.6402 368.062 91.9649C367.97 90.1981 367.95 88.4271 367.965 86.6561C368.81 86.4453 369.65 86.2345 370.49 86.0236C370.403 86.4411 370.312 86.8585 370.22 87.276C370.164 87.5163 370.587 87.626 370.668 87.3814C370.836 86.8754 370.984 86.3694 371.142 85.8634C371.269 85.8297 371.396 85.7959 371.524 85.7664C375.52 84.7629 379.618 83.89 383.518 82.6377C383.823 82.5407 383.711 82.1696 383.38 82.2287Z" fill="black"/>
<path d="M376.604 94.7057C369.645 97.2821 362.492 99.2133 354.927 100.09C354.377 100.158 354.611 100.849 355.156 100.786C362.691 99.8922 370.149 98.0917 376.874 95.0894C377.18 94.9503 376.91 94.5919 376.604 94.7057Z" fill="black"/>
<path d="M12.9553 79.0914C10.9036 81.8744 9.40686 84.9863 7.71665 87.9253C7.56392 88.1825 8.01702 88.4102 8.17993 88.153C9.95159 85.2266 12.0084 82.3171 13.4033 79.2516C13.5102 79.0239 13.0927 78.9016 12.9553 79.0914Z" fill="black"/>
<path d="M61.7114 93.1202C59.4408 95.1105 57.4655 97.3453 55.4037 99.4832C55.1542 99.7404 55.587 100.111 55.8466 99.85C57.9441 97.7122 60.1892 95.6291 62.078 93.3521C62.2256 93.1708 61.8896 92.96 61.7114 93.1202Z" fill="black"/>
<path d="M66.0543 95.8145C68.1263 93.2845 70.3663 90.8051 72.2093 88.1571C72.3671 87.9336 71.9751 87.6595 71.7715 87.8746C69.4551 90.2823 67.4696 92.9388 65.3721 95.4856C65.087 95.8314 65.7641 96.1603 66.0543 95.8145Z" fill="black"/>
<path d="M77.4734 85.5007C73.8486 89.4981 70.906 94.0057 67.7343 98.2646C67.4696 98.6145 68.1365 98.9392 68.4012 98.5892C71.6137 94.3557 75.1977 90.1854 77.9265 85.72C78.0843 85.4628 77.6719 85.2773 77.4734 85.5007Z" fill="black"/>
<path d="M81.8514 86.1584C82.0296 85.9349 81.6427 85.7241 81.4187 85.8843C77.1473 89.0215 74.0418 93.6514 71.5625 97.8554C71.3232 98.2602 72.0462 98.6187 72.2905 98.2096C73.5887 96.0465 75.0346 93.955 76.6637 91.9521C78.2928 89.9534 80.2121 88.1487 81.8514 86.1584Z" fill="black"/>
<path d="M83.7761 88.3343C81.5259 92.2304 79.2604 96.0001 76.0072 99.4072C75.6611 99.7656 76.272 100.284 76.6283 99.9216C79.8968 96.5314 82.8088 92.6985 84.2139 88.4861C84.2852 88.2752 83.8983 88.1234 83.7761 88.3343Z" fill="black"/>
<path d="M67.0571 86.3398C68.503 84.8471 70.0201 83.3839 71.3183 81.7985C71.4863 81.5961 71.1197 81.3726 70.9212 81.5412C69.3328 82.8948 67.9226 84.4001 66.4767 85.8549C66.1357 86.1922 66.7211 86.6814 67.0571 86.3398Z" fill="black"/>
<path d="M20.8513 82.296C21.2382 81.6003 21.6404 80.9003 22.0477 80.2046C23.4935 79.8124 24.9444 79.4498 26.4055 79.1167C25.7539 80.3142 25.1226 81.516 24.4608 82.6671C23.9873 83.4809 23.524 84.299 23.0506 85.1212C21.3706 85.7832 19.7109 86.4916 18.0767 87.238C19.0083 85.5935 19.94 83.949 20.8513 82.296ZM31.8071 77.9993C31.3591 78.8215 30.9162 79.6395 30.4631 80.4534C29.9896 81.2967 29.5212 82.14 29.0478 82.9834C27.4237 83.502 25.815 84.067 24.2317 84.67C24.6084 84.0291 24.9852 83.3966 25.3568 82.7557C26.1204 81.4569 26.9757 80.1455 27.7903 78.8173C29.119 78.5263 30.458 78.2565 31.8071 77.9993ZM36.9286 77.1096C36.3177 77.9866 35.7068 78.8637 35.1162 79.7534C34.714 80.3522 34.3526 80.9678 33.9606 81.5708C32.7133 81.887 31.4863 82.2328 30.2594 82.5996C30.6463 81.9292 31.0332 81.2545 31.4151 80.5799C31.9496 79.6438 32.4995 78.7077 33.0442 77.7716C34.3373 77.5397 35.6304 77.3204 36.9286 77.1096ZM31.2572 85.8676C30.122 86.1754 28.9867 86.4916 27.8565 86.8079C28.5183 85.6525 29.175 84.4887 29.842 83.3333C31.0892 82.9243 32.3365 82.5237 33.594 82.1442C32.8049 83.3839 32.0107 84.6152 31.2572 85.8676ZM36.1802 85.4079C35.5082 86.4874 34.8311 87.5753 34.154 88.6548C32.5402 89.2535 30.9518 89.9029 29.3787 90.5733C30.1321 89.2662 30.9111 87.9674 31.7103 86.6729C33.2122 86.2724 34.6988 85.8465 36.1802 85.4079ZM21.9713 88.4903C22.5669 87.4825 23.1575 86.479 23.7531 85.4754C25.3619 84.864 26.991 84.2821 28.6303 83.7297C27.999 84.864 27.3677 85.9941 26.7365 87.1283C25.143 87.5795 23.5597 88.0349 21.9713 88.4903ZM15.3225 89.068C15.7247 88.874 16.1268 88.6927 16.529 88.5072C16.2236 89.0722 15.913 89.6415 15.6076 90.2107C15.4192 90.5607 16.0352 90.8685 16.2388 90.5143C16.7123 89.671 17.1858 88.8276 17.6592 87.9885C19.2832 87.2548 20.9327 86.5717 22.5924 85.9224C22.0477 86.8711 21.5029 87.8241 20.9582 88.777C19.9451 89.0638 18.9218 89.3463 17.9036 89.6246C17.4912 89.7427 17.6643 90.2908 18.092 90.1812C18.8912 89.9619 19.7109 89.7553 20.5204 89.5445C20.0724 90.3246 19.6243 91.1089 19.1763 91.8889C18.9778 92.2305 19.5887 92.5299 19.7873 92.1883C20.3574 91.2227 20.9327 90.2571 21.4978 89.2957C23.0608 88.8951 24.6237 88.503 26.1866 88.1066C25.7793 88.8361 25.3823 89.5656 24.9699 90.2908C24.751 90.683 25.4484 91.0245 25.6724 90.6282C26.2019 89.6963 26.7365 88.7644 27.271 87.8325C28.391 87.55 29.506 87.2591 30.6209 86.9639C29.8165 88.3216 29.0121 89.6794 28.2434 91.054V91.0583C26.3394 91.8974 24.4761 92.7871 22.6331 93.7148C22.2309 93.9214 22.5975 94.4442 23.0048 94.2461C26.4055 92.5425 29.9234 91.0119 33.538 89.6372C33.0085 90.489 32.4842 91.3408 31.9496 92.1883C31.7154 92.5636 32.3976 92.9009 32.6369 92.5214C33.3446 91.4125 34.0573 90.2993 34.77 89.1903C36.3584 88.6168 37.9723 88.0982 39.5963 87.6006C39.1585 88.3427 38.7308 89.0849 38.2981 89.827C38.0639 90.2149 38.7715 90.5649 39.0057 90.1685C39.581 89.1945 40.1665 88.2204 40.7468 87.2422C42.1571 86.8205 43.5673 86.3904 44.9724 85.9435C44.0102 87.3223 43.104 88.7349 42.2691 90.1348C38.1657 91.3998 34.1591 93.0021 30.3714 94.5623C29.9183 94.7478 30.3154 95.3129 30.7685 95.1316C34.0115 93.7991 37.3104 92.5805 40.6807 91.501C41.0014 91.3998 41.3221 91.3113 41.6378 91.2143C41.5156 91.4293 41.3832 91.6444 41.2661 91.8594C41.0269 92.2769 41.7752 92.6522 42.0196 92.2263C42.2894 91.7582 42.5949 91.3028 42.88 90.839C45.0436 90.2149 47.2226 89.6415 49.3659 88.9794C48.3833 90.2487 47.4211 91.5305 46.464 92.8082C43.4705 93.8623 40.5076 94.9966 37.5344 96.0508C37.0813 96.2152 37.4733 96.7718 37.9214 96.6074C40.4567 95.705 43.048 94.849 45.6036 93.9509C45.4255 94.1828 45.2575 94.4147 45.0793 94.6466C44.7687 95.0557 45.5476 95.4352 45.8633 95.0261C46.2858 94.4822 46.7186 93.9382 47.1462 93.3943C48.9026 92.7576 50.6437 92.0998 52.339 91.3745C52.6038 91.2607 52.4205 90.8854 52.1303 90.9655C50.7557 91.3619 49.3964 91.7962 48.0473 92.2558C49.9412 89.8649 51.8401 87.4657 53.4387 84.9525C53.627 84.6574 53.1485 84.4465 52.9143 84.6995C51.8605 85.8465 50.883 87.0524 49.9259 88.2668C47.7877 88.6295 45.6596 89.1481 43.552 89.7553C44.4887 88.2879 45.4713 86.8374 46.5506 85.4332C46.6524 85.3911 46.6931 85.3194 46.6982 85.2435C48.3731 83.0846 50.3179 81.0943 52.0285 78.9607C52.2321 78.7035 51.779 78.4251 51.5245 78.636C49.2233 80.5419 47.248 82.8105 45.5069 85.1971C44.112 85.4712 42.7272 85.817 41.3578 86.2175C42.5745 84.1851 43.7913 82.1527 44.9978 80.1202C46.8662 76.9746 49.1877 73.7868 50.4554 70.4346C50.5419 70.2111 50.1703 70.1057 50.0226 70.2828C47.5688 73.2218 45.9244 76.7849 44.0407 79.9937C42.7578 82.178 41.4901 84.3622 40.2123 86.5464C38.5832 87.0524 36.9795 87.6259 35.3962 88.1994C36.0733 87.1494 36.7453 86.091 37.4224 85.0369C38.3592 84.7417 39.2959 84.4423 40.2225 84.1261C40.4923 84.0333 40.4007 83.6875 40.0952 83.7508C39.3774 83.8942 38.6646 84.0502 37.9468 84.2104C38.573 83.2321 39.1992 82.2497 39.8254 81.2672C40.9912 79.4329 42.1621 77.6029 43.3229 75.7644C44.4225 74.0187 45.7513 72.2435 46.5149 70.3755C46.632 70.0762 46.1382 69.9623 45.9447 70.1774C44.4734 71.8134 43.4451 73.8079 42.3098 75.6169C41.149 77.4511 40.0036 79.2938 38.8479 81.1365C38.1454 82.2497 37.453 83.3629 36.7606 84.4803C35.2944 84.8218 33.8384 85.1845 32.3824 85.5724C33.1918 84.2905 34.0369 83.0255 34.8769 81.7647C35.3759 81.6172 35.8748 81.4654 36.3788 81.322C36.6079 81.2587 36.5162 80.9636 36.277 81.0142C35.9104 81.0985 35.5591 81.1871 35.1977 81.2756C35.3911 80.9847 35.5795 80.6853 35.773 80.3985C36.5773 79.2263 37.4123 78.0667 38.2421 76.9029C38.5985 76.8481 38.9599 76.7891 39.3214 76.7385C39.6166 76.6921 39.5505 76.2747 39.2501 76.3C39.0414 76.3126 38.8326 76.3421 38.629 76.3548C38.9345 75.9247 39.2297 75.4861 39.5454 75.0603C40.8283 73.3146 42.3301 71.6068 43.328 69.7346C43.4349 69.5322 43.1447 69.2919 42.936 69.4816C41.3832 70.8647 40.2377 72.564 39.0515 74.1663C38.4865 74.9338 37.9315 75.7054 37.3868 76.4728C36.0937 76.6036 34.8057 76.7638 33.5176 76.9535C34.6682 74.9675 35.7882 72.9604 36.6741 70.8984C36.781 70.6454 36.3228 70.4978 36.165 70.7213C34.6988 72.7706 33.4769 74.9506 32.2805 77.1349C30.962 77.3583 29.6434 77.6156 28.335 77.9023C29.1445 76.5277 29.8878 75.1277 30.402 73.7067C30.4885 73.479 30.122 73.3778 29.9743 73.5549C28.7779 74.9886 27.8005 76.5951 26.8892 78.227C25.4281 78.5643 23.9822 78.9269 22.5466 79.3317C23.4579 77.7336 24.3335 76.1186 24.9648 74.4488C25.0462 74.2254 24.6593 74.1031 24.5219 74.297C23.2491 75.9921 22.2462 77.8559 21.2687 79.7112C19.772 80.154 18.2905 80.622 16.8294 81.1238C17.4454 79.8251 18.036 78.5221 18.5451 77.2023C18.6112 77.0252 18.2905 76.9156 18.1887 77.0758C17.2367 78.5306 16.3814 80.0401 15.5617 81.5623C14.7065 81.8659 13.8512 82.1695 13.0162 82.49C12.6344 82.6334 12.9653 83.0972 13.3421 82.9581C13.9428 82.7304 14.5486 82.5322 15.1545 82.3171C13.8308 84.8429 12.6141 87.4151 11.4228 89.9493C11.2853 90.2318 11.8606 90.4384 12.0184 90.1559C13.5355 87.4404 15.0832 84.6658 16.4628 81.8575C17.9087 81.381 19.3647 80.9467 20.8309 80.5377C20.5407 81.0943 20.2454 81.6509 19.9502 82.1948C18.932 84.046 17.9341 85.9097 16.9363 87.765C16.2999 88.0644 15.6636 88.3596 15.0425 88.6632C14.7319 88.815 15.0119 89.2156 15.3225 89.068Z" fill="black"/>
<path d="M55.1188 77.8727C58.0054 77.6492 61.0193 77.5606 63.8448 76.9956C64.084 76.945 64.0229 76.6498 63.7888 76.6456C60.9073 76.6077 57.9748 77.0715 55.1188 77.3793C54.7523 77.4173 54.737 77.9022 55.1188 77.8727Z" fill="black"/>
<path d="M54.1514 75.7349C56.8751 75.6295 59.6904 75.6675 62.3886 75.3048C62.5973 75.2753 62.5312 75.0181 62.3377 75.0055C59.6293 74.8832 56.8547 75.1783 54.1514 75.3175C53.8307 75.3344 53.8256 75.7476 54.1514 75.7349Z" fill="black"/>
<path d="M60.897 74.1663C61.1312 74.1452 61.1312 73.8922 60.897 73.8669C58.6825 73.656 56.3864 73.791 54.1617 73.7994C53.8257 73.8036 53.8257 74.2337 54.1617 74.2337C56.3864 74.2464 58.6825 74.3855 60.897 74.1663Z" fill="black"/>
<path d="M55.6024 72.2266C57.6846 72.3573 59.7719 72.5007 61.8643 72.5344C62.0526 72.5429 62.0374 72.3152 61.8643 72.2983C59.7872 72.0664 57.6948 71.9441 55.6024 71.805C55.2816 71.7839 55.2816 72.2055 55.6024 72.2266Z" fill="black"/>
<path d="M69.0883 75.5536C71.4913 75.4397 73.996 75.4608 76.3634 75.0813C76.6026 75.0476 76.5263 74.7651 76.3124 74.7524C73.9248 74.6091 71.4709 74.8705 69.0883 74.9886C68.6505 75.0096 68.6454 75.5789 69.0883 75.5536Z" fill="black"/>
<path d="M67.729 99.8836C63.0657 100.845 58.4685 101.731 53.6524 102.026C48.7804 102.317 43.8625 102.161 39.0362 101.532C34.4849 100.942 30.015 99.9385 25.7233 98.547C21.5436 97.1892 16.6562 95.4646 15.0729 91.6443L15.0118 91.6654C15.8977 94.9291 19.4665 96.776 22.8774 98.1084C27.5458 99.9216 32.5401 101.182 37.6005 101.95C47.4211 103.442 58.4431 103.303 67.9072 100.419C68.3043 100.297 68.1516 99.7951 67.729 99.8836Z" fill="black"/>
<path d="M10.9546 26.0499C18.1838 21.0701 26.1053 17.4353 34.6022 14.2011C34.9433 14.0704 34.6989 13.5855 34.3426 13.6909C25.6064 16.2293 17.4965 20.6779 10.6033 25.759C10.364 25.9361 10.7153 26.2144 10.9546 26.0499Z" fill="black"/>
<path d="M23.631 37.4096C22.6841 37.7975 21.7423 38.1812 20.8004 38.5734C20.7342 38.5987 20.7088 38.6451 20.6833 38.6872C20.5561 38.08 20.4339 37.477 20.2964 36.8699C21.2535 36.2922 22.2412 35.7398 23.2339 35.2085C23.3663 35.9422 23.5037 36.6717 23.631 37.4096ZM24.2521 40.8799C23.407 41.2931 22.5619 41.6979 21.7372 42.1407C21.3757 42.3262 21.7117 42.8069 22.0732 42.6172C22.8216 42.2208 23.5903 41.8666 24.359 41.4997C24.5219 42.4274 24.6849 43.3509 24.8529 44.2785C24.1147 44.6369 23.3917 44.9954 22.7045 45.3496C22.3583 45.5309 22.6739 45.9905 23.0252 45.8092C23.6565 45.4845 24.3132 45.1893 24.9649 44.8857C25.2092 46.2857 25.4638 47.6814 25.7132 49.0813C24.7256 49.5578 23.743 50.0427 22.7554 50.5107C22.5568 49.115 22.3481 47.7277 22.1292 46.3405C21.7321 43.8695 21.2535 41.4112 20.7393 38.9571C20.831 39.0372 20.9684 39.092 21.1161 39.0288C21.9917 38.6872 22.8623 38.3457 23.7379 37.9999C23.9059 38.9613 24.0841 39.9185 24.2521 40.8799ZM30.29 47.8627C30.3511 48.2717 30.4122 48.6807 30.4733 49.0897C29.2056 49.5072 27.9533 49.9626 26.7162 50.4601C26.6602 50.1523 26.6042 49.8529 26.5431 49.5451C27.8056 48.997 29.0529 48.4361 30.29 47.8627ZM31.1148 53.5004C29.9082 53.9305 28.7118 54.3943 27.5205 54.875C27.3118 53.6732 27.0929 52.4673 26.8638 51.2655L27.0216 51.2023C28.2027 50.7469 29.394 50.3463 30.6006 49.9626C30.7686 51.139 30.9417 52.3197 31.1148 53.5004ZM31.41 55.4948C31.522 56.237 31.6137 56.9791 31.7104 57.7212C30.5599 58.1977 29.4093 58.6784 28.2638 59.1507C28.0754 58.0122 27.8769 56.8737 27.6784 55.7352C28.8595 55.2671 30.0457 54.7991 31.242 54.3395C31.298 54.7232 31.354 55.1111 31.41 55.4948ZM35.7883 56.9411C36.0683 58.0417 36.3279 59.176 36.6232 60.3103C35.4014 60.6476 34.1846 61.0229 32.9933 61.4235C32.8813 60.3693 32.7235 59.3151 32.5453 58.261C33.6348 57.8351 34.7141 57.3923 35.7883 56.9411ZM28.8696 62.9035C28.7169 61.8957 28.5489 60.8922 28.386 59.8886C29.5264 59.4416 30.6719 58.9904 31.8224 58.5435C31.9599 59.585 32.1126 60.6265 32.3213 61.6554C31.1555 62.0602 30.0049 62.4776 28.8696 62.9035ZM28.1467 63.1692C26.7467 63.6878 25.3569 64.2486 23.9874 64.8221C23.967 63.7764 23.9314 62.7306 23.8754 61.6807C25.0158 61.2253 26.1612 60.7657 27.3016 60.3103C27.4849 60.2344 27.6733 60.1669 27.8616 60.091C28.0653 61.0777 28.2791 62.0602 28.4929 63.0427C28.3758 63.0806 28.2638 63.1228 28.1467 63.1692ZM23.575 57.4218C24.7205 56.9327 25.8711 56.4647 27.0216 55.9966C27.2456 57.1267 27.4798 58.2525 27.7089 59.3784C27.5409 59.4458 27.3678 59.5217 27.2049 59.5892C26.0798 60.0404 24.9598 60.4958 23.8347 60.9512C23.7685 59.7747 23.6819 58.5983 23.575 57.4218ZM18.2091 59.1507C18.3568 57.8013 18.4484 56.4436 18.4942 55.0858C19.767 54.4154 21.0652 53.7744 22.3786 53.1672C22.5212 54.4238 22.6434 55.6804 22.7656 56.9369C21.2179 57.6538 19.7059 58.3917 18.2091 59.1507ZM26.1816 51.5438C26.4005 52.7456 26.6296 53.9473 26.8587 55.1449C25.7285 55.6129 24.6085 56.0978 23.4987 56.6038C23.3714 55.3557 23.2288 54.1076 23.071 52.8636C24.0943 52.404 25.1329 51.9655 26.1816 51.5438ZM22.847 51.1728C23.8448 50.7258 24.8427 50.283 25.8609 49.8445C25.9169 50.1481 25.9729 50.4475 26.034 50.7511C24.9954 51.1812 23.9772 51.6366 22.9794 52.1046C22.9336 51.7926 22.8928 51.4806 22.847 51.1728ZM22.7146 32.3074C22.8521 33.0749 22.9896 33.8465 23.1321 34.6139C22.1292 35.1705 21.1466 35.7482 20.1895 36.3512C19.9859 35.4741 19.767 34.5971 19.5531 33.72C20.5917 33.2309 21.6455 32.7544 22.7146 32.3074ZM23.6056 34.3483C23.463 33.6062 23.3256 32.864 23.1779 32.1177C24.0994 31.7382 25.0158 31.3502 25.9525 31.0003C28.7475 29.9587 31.8275 29.2967 34.5206 28.095C34.6785 28.0233 34.6174 27.7745 34.4188 27.7914C31.5577 28.0908 28.7526 29.2335 26.1409 30.216C25.0972 30.6123 24.0739 31.0382 23.0608 31.4725C22.959 30.9454 22.8572 30.4141 22.7554 29.8871C22.7146 29.6383 22.2565 29.7437 22.2972 29.9967C22.4041 30.5533 22.5008 31.1141 22.6026 31.6749C21.5284 32.1472 20.4593 32.6363 19.4106 33.1508C19.212 32.3327 19.0186 31.5105 18.8048 30.6924C23.6056 28.5925 28.5947 26.6107 33.0799 24.1018C33.3141 23.9711 33.1155 23.7012 32.8661 23.794C27.9634 25.565 23.3205 27.9643 18.6571 30.1738C18.3211 28.913 17.9648 27.6522 17.5982 26.3999C22.5415 23.7645 27.826 21.8417 33.0697 19.6701C33.2632 19.5942 33.1257 19.3285 32.917 19.3834C27.4034 20.7411 22.2412 23.2838 17.4607 25.915C17.42 25.7758 17.3844 25.6325 17.3436 25.4975C17.2724 25.2614 16.8498 25.3626 16.9109 25.5945C16.9669 25.7758 17.0076 25.9571 17.0586 26.1385L16.972 26.1848C16.7022 26.3282 16.9109 26.6571 17.1807 26.5896C17.5269 27.8546 17.868 29.1238 18.1938 30.3931C17.7764 30.587 17.364 30.781 16.9567 30.9707C16.636 31.1183 16.9211 31.5231 17.2418 31.3755C17.5982 31.2153 17.9648 31.0635 18.3262 30.9033C18.5349 31.7382 18.7182 32.5731 18.9117 33.3995C18.4128 33.6483 17.9138 33.8971 17.4251 34.1501C17.0993 34.3188 17.3946 34.7447 17.7204 34.576C18.1531 34.3609 18.6062 34.1712 19.044 33.9604C20.0419 38.2571 20.9022 42.575 21.5794 46.9181C21.7779 48.2169 21.9408 49.5156 22.0986 50.8186C21.7983 50.9619 21.4877 51.1095 21.1873 51.2487C20.7953 51.43 21.1415 51.9318 21.5386 51.7504C21.7524 51.6535 21.9714 51.5607 22.1852 51.4637C22.2259 51.78 22.2666 52.0962 22.3074 52.4125C20.999 53.0365 19.7364 53.6817 18.4993 54.331C18.7029 45.8471 17.0738 37.2198 14.4367 29.107C14.3756 28.9341 14.0651 29.0058 14.116 29.1787C16.7175 37.612 17.6644 46.0706 17.8273 54.6852C17.6797 54.7654 17.5269 54.8455 17.3793 54.9214C16.9771 55.1449 17.3487 55.6804 17.7611 55.4611L17.8527 55.4189C17.868 56.6755 17.868 57.9321 17.8578 59.1971L17.9037 59.2983C16.8956 59.8127 15.8978 60.3313 14.9051 60.85C14.5487 61.044 14.8796 61.5204 15.2462 61.3307C17.7306 60.032 20.271 58.8555 22.8419 57.7465C22.9437 58.9061 23.0354 60.0741 23.1321 61.2379C20.2201 62.4144 17.308 63.595 14.396 64.7757C13.9531 64.957 14.34 65.5052 14.7829 65.3281C17.588 64.2022 20.3881 63.0806 23.1932 61.9548C23.2746 62.9878 23.3612 64.0167 23.4477 65.0498C20.887 66.125 18.372 67.2804 15.9131 68.5117C15.4854 68.7267 15.8774 69.2833 16.3102 69.0683C18.6622 67.9045 21.0652 66.8166 23.5088 65.7919C23.5699 66.534 23.6208 67.272 23.687 68.0099C23.7023 68.1575 23.967 68.1617 23.9721 68.0099C23.9925 67.2045 23.9976 66.3949 23.9925 65.5853C25.4078 64.9992 26.8333 64.4299 28.2791 63.8944C28.4013 63.848 28.5235 63.8101 28.6456 63.7679C28.8391 64.645 29.0071 65.5305 29.2107 66.4075C29.226 66.4961 29.4093 66.475 29.394 66.3865C29.2667 65.4757 29.1191 64.5606 28.9816 63.6499C30.1424 63.2324 31.3184 62.8445 32.5046 62.4692C32.5657 62.7348 32.6166 63.0005 32.6828 63.2619C32.7439 63.4643 33.1308 63.4222 33.1206 63.2113C33.1155 62.9119 33.0748 62.6041 33.0544 62.3005C34.3221 61.9042 35.5897 61.512 36.8523 61.1156C37.1832 62.2668 37.5498 63.4053 38.0691 64.451C38.1505 64.6155 38.5018 64.6197 38.4814 64.4046C38.3796 63.2282 38.0945 62.0349 37.7432 60.8416C38.7411 60.5211 39.7338 60.1964 40.7215 59.8506C40.7469 59.9392 40.7673 60.0362 40.7927 60.1247C41.1491 61.5753 41.3477 63.1523 42.0349 64.5185C42.1368 64.7209 42.544 64.7209 42.5389 64.4637C42.5186 63.0427 41.984 61.609 41.6277 60.2259C41.2356 58.6615 40.8436 57.0929 40.4415 55.5328C40.3396 55.128 39.5964 55.2966 39.6982 55.7015C40.0036 56.9327 40.3091 58.1682 40.6145 59.3995C39.5709 59.5808 38.5374 59.8085 37.5141 60.0699C37.1476 58.9314 36.7505 57.7971 36.3992 56.6839C37.5243 56.199 38.6342 55.6972 39.7084 55.1491C39.9324 55.0352 39.7898 54.7105 39.5302 54.7864C38.3949 55.1364 37.28 55.5286 36.1701 55.9376L36.165 55.9249C36.0734 55.6003 35.4727 55.7352 35.5643 56.0641L35.5897 56.1695C34.5206 56.5743 33.4617 56.996 32.4028 57.4345C32.2755 56.6839 32.1533 55.9376 32.0362 55.1997C31.9853 54.8328 31.9242 54.4618 31.8682 54.0949C33.8741 53.3233 35.8901 52.56 37.9163 51.7842C38.1454 51.6956 37.9825 51.3878 37.7483 51.4468C35.7221 51.9613 33.7214 52.5769 31.746 53.2642C31.5679 52.0962 31.3897 50.9324 31.2115 49.7644C33.2683 49.115 35.3403 48.5036 37.3818 47.8079C37.7127 47.6982 37.6007 47.2976 37.2341 47.3567C35.1672 47.7024 33.1104 48.2422 31.0791 48.8915C31.0129 48.4614 30.9417 48.0271 30.8806 47.5928C32.4435 46.8591 33.9861 46.0959 35.437 45.2526C35.6763 45.1092 35.4727 44.8351 35.2079 44.9279C32.189 45.9905 29.2769 47.3567 26.3954 48.7524C26.1307 47.3609 25.866 45.9736 25.5961 44.5821C26.7416 44.0677 27.9024 43.5828 29.1038 43.1527C31.0384 42.4611 33.0952 42.0353 35.0094 41.3226C35.1876 41.2552 35.101 40.9811 34.9025 41.0022C31.7155 41.3353 28.4267 42.5876 25.4841 43.9749C25.3009 43.0557 25.1227 42.1365 24.9445 41.2172C26.3038 40.5889 27.6834 39.9902 29.0936 39.4462C31.4966 38.527 34.1235 37.9493 36.4654 36.9373C36.7199 36.8235 36.5265 36.5536 36.2821 36.5789C33.7774 36.8699 31.2726 37.8945 28.9918 38.78C27.5664 39.3324 26.1816 39.9522 24.8223 40.5974C24.639 39.6613 24.4608 38.7252 24.2725 37.7891C25.8863 37.1566 27.5002 36.5283 29.1038 35.8916C31.7002 34.8585 34.6275 33.9646 36.9592 32.5562C37.1476 32.4424 37.0458 32.1683 36.7963 32.2273C34.093 32.8556 31.5271 34.1628 29.0224 35.1874C27.3933 35.8452 25.7794 36.5199 24.1554 37.1903C24.0128 36.4355 23.8652 35.685 23.7227 34.9344C24.9649 34.285 26.2325 33.6736 27.5358 33.1086C30.122 31.987 32.9526 31.2786 35.5134 30.1485C35.7883 30.022 35.5897 29.71 35.3148 29.7521C32.6166 30.1569 29.8369 31.3966 27.4391 32.4634C26.1256 33.0453 24.8478 33.6736 23.6056 34.3483Z" fill="black"/>
<path d="M18.5145 72.6736C17.985 72.8422 18.2141 73.5548 18.7487 73.3862C25.6623 71.2399 32.6929 69.2538 39.4741 66.8166C39.7897 66.7028 39.5657 66.2642 39.2399 66.3528C32.2347 68.1997 25.3873 70.5357 18.5145 72.6736Z" fill="black"/>
<path d="M340.362 15.5379C340.163 17.2456 340.015 19.1136 340.357 20.8045C340.397 21.0027 340.805 21.0027 340.845 20.8045C341.191 19.1094 341.039 17.2456 340.84 15.5379C340.815 15.2849 340.392 15.2849 340.362 15.5379Z" fill="black"/>
<path d="M342.739 20.796C343.141 19.9232 342.922 18.8985 342.887 17.9751C342.846 16.8956 342.795 15.8119 342.703 14.7367C342.693 14.5512 342.367 14.5512 342.347 14.7367C342.261 15.8119 342.215 16.8956 342.169 17.9751C342.128 18.907 341.909 19.9147 342.317 20.796C342.393 20.9689 342.658 20.9689 342.739 20.796Z" fill="black"/>
<path d="M345.636 19.9949C345.987 19.1558 345.84 18.2365 345.814 17.3553C345.789 16.3517 345.753 15.3439 345.733 14.3361C345.728 13.9988 345.106 13.9988 345.096 14.3361C345.076 15.3439 345.04 16.3517 345.015 17.3553C344.994 18.2408 344.847 19.1473 345.198 19.9949C345.269 20.1762 345.565 20.1762 345.636 19.9949Z" fill="black"/>
<path d="M347.499 21.6015C347.565 21.7702 347.886 21.7997 347.937 21.6015C348.187 20.6275 347.978 19.5859 347.891 18.595C347.795 17.4439 347.688 16.2927 347.581 15.1458C347.555 14.8043 346.924 14.8 346.944 15.1458C347.005 16.2927 347.056 17.4481 347.123 18.595C347.179 19.5944 347.112 20.6528 347.499 21.6015Z" fill="black"/>
<path d="M384.093 43.5785C384.078 57.308 383.554 71.1133 384.21 84.8343C384.221 85.0494 384.602 85.0494 384.613 84.8343C385.264 71.1133 384.745 57.308 384.73 43.5785C384.73 43.237 384.093 43.237 384.093 43.5785Z" fill="black"/>
<path d="M46.2606 62.8993C46.3675 63.0511 46.6984 62.9962 46.678 62.8023C46.4998 60.6307 45.2016 58.379 44.4125 56.3128C44.27 55.9207 43.5369 56.0851 43.6794 56.4773C44.4533 58.5519 44.9216 61.0228 46.2606 62.8993Z" fill="black"/>
<path d="M50.5266 64.4047C50.3739 62.8825 49.7172 61.3898 49.2284 59.9182C49.1011 59.5218 48.368 59.6863 48.5004 60.0826C48.9739 61.5627 49.3201 63.1186 50.1193 64.4975C50.211 64.6577 50.5419 64.5818 50.5266 64.4047Z" fill="black"/>
<path d="M54.0651 65.345C54.1873 65.4125 54.3502 65.324 54.3502 65.2101C54.3553 64.5312 53.8614 63.8987 53.6731 63.2409C53.4134 62.3301 53.3982 61.4109 53.5865 60.4874C53.668 60.0658 52.8942 59.8845 52.8076 60.3103C52.6142 61.2464 52.5938 62.1783 52.8076 63.1186C52.9807 63.8776 53.2302 64.8981 54.0651 65.345Z" fill="black"/>
<path d="M58.1275 63.6162C58.2242 62.9626 57.8831 62.1952 57.7253 61.55C57.6591 61.2633 57.1296 61.3856 57.2009 61.6723C57.3587 62.3132 57.3995 63.1186 57.7966 63.6879C57.8933 63.827 58.1071 63.7511 58.1275 63.6162Z" fill="black"/>
<path d="M62.964 64.8265C62.9487 63.5994 62.4345 62.3302 62.124 61.1369C62.0221 60.7616 61.3298 60.9219 61.4316 61.2971C61.7421 62.4862 61.9152 63.8103 62.5109 64.9235C62.6127 65.1174 62.964 65.012 62.964 64.8265Z" fill="black"/>
<path d="M328.815 93.6471C328.79 95.085 328.54 96.6789 328.836 98.1042C328.871 98.277 329.223 98.277 329.263 98.1042C329.553 96.6789 329.309 95.085 329.284 93.6471C329.279 93.3941 328.82 93.3941 328.815 93.6471Z" fill="black"/>
<path d="M332.649 96.0465C332.639 96.8224 332.45 97.7501 332.695 98.4964C332.751 98.6693 333.046 98.6693 333.102 98.4964C333.346 97.7501 333.158 96.8224 333.148 96.0465C333.137 95.7809 332.659 95.7809 332.649 96.0465Z" fill="black"/>
<path d="M335.026 94.5118C335.317 96.0509 335.362 97.8514 336.014 99.3103C336.116 99.538 336.523 99.5085 336.533 99.2555C336.584 97.6785 335.917 95.937 335.592 94.3811C335.525 94.069 334.97 94.204 335.026 94.5118Z" fill="black"/>
<path d="M340.484 92.045C340.479 91.6613 339.766 91.6571 339.761 92.045C339.756 93.1961 339.746 94.3431 339.74 95.4942C339.735 96.4893 339.583 97.5351 339.893 98.5049C339.954 98.6904 340.29 98.6904 340.346 98.5049C340.652 97.5435 340.509 96.4851 340.504 95.4942C340.494 94.3431 340.489 93.1961 340.484 92.045Z" fill="black"/>
<path d="M343.615 88.0391C343.599 90.9317 343.182 94.0563 343.701 96.911C343.742 97.1345 344.205 97.1345 344.246 96.911C344.765 94.0563 344.343 90.9317 344.333 88.0391C344.327 87.6512 343.615 87.6512 343.615 88.0391Z" fill="black"/>
<path d="M347.84 87.2336C347.749 89.0004 347.657 90.7672 347.565 92.534C347.489 94.0983 347.189 95.7555 347.504 97.303C347.545 97.5054 347.922 97.4843 347.978 97.303C348.426 95.7892 348.278 94.0899 348.339 92.534C348.405 90.7672 348.472 89.0004 348.538 87.2336C348.553 86.8583 347.861 86.8583 347.84 87.2336Z" fill="black"/>
<path d="M351.597 85.6271C351.46 89.3336 350.88 93.2424 351.282 96.932C351.312 97.223 351.776 97.244 351.857 96.9953L351.877 96.9995L351.888 96.9404V96.9236C352.519 93.2509 352.219 89.3378 352.325 85.6271C352.331 85.2434 351.613 85.2434 351.597 85.6271Z" fill="black"/>
<path d="M357.386 84.4212C357.228 86.2259 357.06 88.0264 356.897 89.8311C356.734 91.5979 356.342 93.4743 356.566 95.2411C356.592 95.4562 356.984 95.5405 357.06 95.2959C357.564 93.6346 357.518 91.8214 357.656 90.1137C357.819 88.2162 357.976 86.3187 358.134 84.4212C358.165 84.0248 357.427 84.0248 357.386 84.4212Z" fill="black"/>
<path d="M382.968 89.7005C383.059 89.7005 383.059 89.5782 382.968 89.5782C382.877 89.5782 382.877 89.7005 382.968 89.7005Z" fill="black"/>
<path d="M315.574 98.0031C291.656 97.4634 267.774 96.1857 244.025 93.778C220.204 91.3661 196.562 87.8368 173.189 83.3291C160.008 80.7907 146.996 77.78 133.902 74.9549C133.739 74.9169 133.668 75.1277 133.831 75.1741C145.204 78.3535 156.893 80.8751 168.556 83.2195C180.235 85.564 191.995 87.6344 203.816 89.4349C227.265 92.9979 250.944 95.587 274.718 97.0502C288.322 97.885 301.935 98.3868 315.574 98.4163C315.894 98.4163 315.894 98.0116 315.574 98.0031Z" fill="black"/>
<path d="M143.269 10.0774C182.526 22.2635 223.605 30.7264 264.923 36.402C276.455 37.9874 288.113 39.5982 299.776 40.3572C300.117 40.3825 300.204 39.8976 299.858 39.8512C289.437 38.5272 278.954 37.5573 268.548 36.1701C258.244 34.7954 247.986 33.2353 237.768 31.4896C217.328 27.994 197.076 23.7478 177.073 18.8227C165.751 16.0397 154.52 13.0206 143.32 9.90871C143.193 9.87497 143.142 10.0394 143.269 10.0774Z" fill="black"/>
<path d="M361.454 12.0886C366.942 12.2193 372.684 11.9579 377.699 14.1421C382.291 16.1492 384.898 19.7924 384.45 24.0723C384.414 24.4181 385.04 24.4603 385.152 24.1482C386.608 20.2267 383.106 16.1113 379.323 14.062C374.191 11.2832 367.313 11.3718 361.454 11.8314C361.26 11.8482 361.255 12.0844 361.454 12.0886Z" fill="black"/>
</svg>
