<svg width="395" height="111" viewBox="0 0 395 111" fill="none" xmlns="http://www.w3.org/2000/svg">
<path d="M342.544 110.311C358.698 110.311 373.115 106.824 383.134 100.495C387.436 97.7795 397.114 90.7756 394.151 84.4717C393.759 81.0604 393.235 77.6745 392.726 74.3981C392.334 71.8808 391.927 69.2791 391.596 66.7069L391.392 65.1552C391.046 62.6379 390.695 60.0362 390.807 57.5188C390.827 57.0887 390.873 56.6629 390.913 56.2454C391.081 54.6642 391.234 53.1672 389.951 51.7547C388.857 50.5529 387.034 49.8066 385.206 49.8066C385.044 49.8066 384.876 49.815 384.713 49.8277L384.646 49.347L391.066 48.5584C391.275 45.9019 391.779 43.2033 392.268 40.589C392.415 39.8173 392.558 39.0457 392.695 38.2782L393.113 35.9759C393.464 34.0405 393.81 32.1008 394.126 30.1569C395.271 22.9971 383.318 16.3052 374.225 11.903C364.878 7.37433 353.688 4.11486 340.966 2.22158C332.148 0.905978 322.633 0.239746 312.67 0.239746C299.327 0.239746 284.7 1.41198 267.966 3.81969C245.296 7.0876 222.865 12.5018 201.183 17.7431C175.366 23.9753 148.669 30.4268 121.402 33.2815C107.564 34.732 95.3104 35.6723 83.9473 36.153L83.6011 36.1657L83.6469 35.8832C83.9626 33.9309 83.9066 31.8984 83.8404 29.9377C83.7946 28.3944 83.7488 26.792 83.8811 25.2234C84.1357 22.3013 84.8026 19.4255 85.4441 16.6468L85.8412 14.9264C86.5386 13.9523 86.8797 13.0415 86.9205 12.0548C87.0223 9.82 85.1844 7.86768 81.4527 6.26114C72.9101 2.57577 61.8015 2.09929 53.0756 2.09929C51.7774 2.09929 50.4995 2.11194 49.2522 2.12881C39.5081 2.25109 25.1668 2.95528 13.1775 7.58938C5.82611 10.4356 -0.359436 16.1197 2.39987 22.4067C2.07407 26.5348 2.15042 30.6672 2.22171 34.6688C2.24716 36.1066 2.27261 37.5403 2.27771 38.9698C2.35406 54.4997 1.99261 63.848 1.65659 70.2574C1.54968 72.3404 1.30533 74.4909 1.06094 76.5655C0.689301 79.7744 0.307495 83.0887 0.429657 86.2891V86.3608L0.38385 86.424C0.246399 86.6054 0.256592 86.7993 0.414398 87.0017C0.49585 87.1957 0.562042 87.28 0.663849 87.3306C9.63419 98.2138 27.4068 101.553 39.9917 103.118C49.5832 104.32 59.8211 104.901 71.3013 104.901C79.7829 104.901 88.911 104.589 100.04 103.919C120.786 102.671 142.707 100.36 169.028 96.6494L170.153 96.4934C193.18 93.2382 210.743 90.4889 227.101 87.5794C237.12 85.7958 246.365 84.0079 255.361 82.1104C260.06 81.1237 264.764 80.0864 269.341 79.028C270.705 78.7118 272.125 78.307 273.495 77.919C275.918 77.2275 278.423 76.5149 280.872 76.2071C281.157 74.9885 281.549 73.7741 281.936 72.5976C282.231 71.6826 282.526 70.7634 282.781 69.8399L283.341 69.9453C283.163 70.6073 283.616 72.2223 283.972 73.5211C284.135 74.0903 284.273 74.6047 284.354 75.0053C287.78 73.9512 291.171 73.6771 294.76 73.3819C295.656 73.3102 296.562 73.2343 297.479 73.15C297.815 73.112 298.721 73.0657 299.932 72.9982C303.058 72.8211 311.357 72.3615 311.983 71.8808L312.507 72.0747C312.253 72.741 312.171 73.5211 312.1 74.2674C312.034 74.8999 311.973 75.5493 311.8 76.1312L311.667 76.5275C311.056 78.0666 310.384 79.6858 309.509 81.2122C309.01 82.0851 308.307 82.92 307.62 83.7296C306.703 84.8217 305.757 85.9518 305.324 87.1493C303.888 91.1298 304.677 95.5278 307.528 99.5294C311.122 104.56 318.016 107.845 328.019 109.291C332.688 109.97 337.575 110.311 342.539 110.311H342.544Z" fill="#F6E3BA"/>
<path d="M351.916 15.5378C353.673 17.6082 351.433 43.9792 345.654 55.9924C345.654 55.9924 293.182 60.3988 208.452 79.2262C123.723 98.0494 63.0587 96.8476 62.5802 95.6501C62.1017 94.4441 27.9208 76.8227 40.4344 43.9792C77.9855 45.5815 163.198 41.9762 250.819 15.9384C307.62 4.72628 343.73 5.92803 351.916 15.5378Z" fill="#F6E9CD"/>
<path d="M180.37 84.9315C186.123 84.2315 191.871 83.5273 197.624 82.8147C218.716 80.2088 240.139 78.1005 260.788 73.5887C281.869 68.9841 303.98 67.6685 324.725 62.0139C326.828 61.4447 326.986 59.1171 325.448 58.2695C302.793 61.1706 262.086 67.31 208.452 79.2263C198.759 81.381 189.376 83.2701 180.37 84.9315Z" fill="#F9ECD1"/>
<path d="M77.2882 94.8279C80.9436 94.3219 84.5531 93.6345 88.2848 93.4448C88.3255 93.4406 88.3662 93.4406 88.407 93.4406C89.4099 93.4406 90.0768 94.0731 90.255 94.7983C104.948 94.2207 119.849 92.0322 134.002 90.4046C149.468 88.6294 164.924 86.8036 180.371 84.9314C189.376 83.27 198.759 81.3809 208.452 79.2262C262.086 67.3099 302.793 61.1705 325.448 58.2694C325.097 58.0755 324.659 57.9574 324.13 57.9574C324.109 57.9574 324.089 57.9574 324.069 57.9574C302.3 58.3369 280.958 63.0089 259.24 64.0884C249.918 64.548 240.622 65.4588 231.357 66.5425C238.408 65.2353 245.449 63.8944 252.474 62.4903C265.619 59.8633 281.987 57.7002 292.754 50.5867C294.434 49.4777 293.502 46.8296 291.461 46.5092C289.501 46.2098 287.571 46.0833 285.657 46.0833C280.8 46.0833 276.02 46.8802 271.087 47.538C263.125 48.6006 255.233 50.0596 247.363 51.5059C246.039 51.7463 244.71 51.9866 243.387 52.2312C246.35 51.2909 249.302 50.321 252.26 49.3765C257.55 47.694 263.466 46.3827 268.088 43.6376C270.552 42.1744 270.114 38.2487 266.637 38.2487C266.541 38.2487 266.439 38.2529 266.342 38.2572C264.331 38.3794 262.295 38.6198 260.248 38.9487C263.873 37.5656 267.375 36.0139 270.618 34.1839C272.548 33.096 272.431 30.2413 270.328 29.5877C274.05 28.7444 277.776 27.8926 281.493 27.024C289.705 25.1096 299.79 23.5368 306.296 18.6834C307.701 17.6293 306.958 15.5631 305.191 15.192C303.14 14.7619 300.996 14.5848 298.807 14.5848C291.955 14.5848 284.634 16.3052 278.28 17.3425C268.597 18.928 258.889 20.4586 249.216 22.1158C230.364 25.35 211.588 28.8877 192.731 32.0966C173.416 35.3814 154.06 38.4933 134.664 41.4323C115.593 44.3165 95.2238 45.9947 76.993 51.6155C71.9529 53.1673 72.6605 59.3236 78.2708 59.5007C79.6148 59.5386 80.9588 59.5639 82.308 59.5639C96.2369 59.5639 110.441 57.4092 124.314 55.1955C124.079 56.5912 124.899 58.0291 127.048 58.5857C131.095 59.6272 135.524 60.0489 140.075 60.1163C136.873 60.694 133.763 61.4277 130.85 62.4102C127.389 63.5824 126.365 68.3515 130.85 69.1568C133.213 69.5827 135.656 69.8231 138.141 69.9327C136.481 70.1815 134.821 70.4429 133.162 70.6917C126.309 71.6953 118.612 72.041 112.676 75.2626C110.344 76.5318 109.575 78.9943 110.41 80.9508C96.1911 82.5236 81.9007 84.5561 68.8932 88.7854C66.4241 89.5908 65.9557 91.6443 67.0757 93.0147C67.5034 93.0316 67.9361 93.04 68.3688 93.0526C69.5754 93.0864 70.4918 93.6683 71.011 94.4315C73.0882 94.6128 75.1857 94.7435 77.2882 94.8279Z" fill="#F9F0DE"/>
<path d="M11.2428 85.5259C11.7468 85.5259 12.2508 85.429 12.7141 85.2266C12.3424 80.6768 12.877 75.8487 12.8515 72.2561C12.7854 62.6927 13.0348 53.1378 12.9025 43.5786C12.8923 42.5961 13.3352 41.8793 14.0072 41.4239C13.6203 40.1125 13.213 38.7927 12.7854 37.4645C12.485 36.5326 11.5279 36.0983 10.5708 36.0983C9.3795 36.0983 8.18311 36.7687 8.23911 37.9747C8.5853 45.7671 8.38675 53.745 8.03038 61.5416C7.69947 68.6298 5.34234 76.7595 8.10675 83.6116C8.61076 84.8513 9.91405 85.5259 11.2428 85.5259Z" fill="#F9ECD1"/>
<path d="M11.5381 32.3454C13.7476 32.3454 15.9112 31.5105 17.184 29.5582C20.7884 24.0133 25.5841 19.5605 31.3878 16.6679C31.7696 16.3601 32.1515 16.0565 32.5282 15.7487C33.6533 14.8337 34.9719 14.4331 36.265 14.4331C36.4941 14.4331 36.7283 14.4457 36.9574 14.471C40.3021 13.4759 43.9066 12.9446 47.735 12.9446C49.9496 12.9446 52.2405 13.1259 54.6078 13.4928C54.8675 13.5307 55.1169 13.5518 55.3664 13.5518C59.1082 13.5518 61.5214 9.22972 57.6268 7.52619C51.9656 5.05523 45.8768 3.87878 39.8745 3.87878C24.4081 3.87878 9.57804 11.6838 4.45141 25.0886C2.85794 29.242 7.27182 32.3454 11.5381 32.3454Z" fill="#F9ECD1"/>
<path d="M385.766 49.8319C385.782 49.6211 385.802 49.4102 385.822 49.2036L384.646 49.347L384.713 49.8277C384.875 49.815 385.043 49.8066 385.206 49.8066C385.395 49.8066 385.578 49.815 385.766 49.8319Z" fill="#A4A7AA"/>
<path d="M384.453 73.9091C385.242 73.4368 385.807 72.661 385.858 71.6026C386.184 64.506 385.313 57.4304 385.731 50.3211C385.741 50.1567 385.751 49.9964 385.766 49.832C385.578 49.8151 385.395 49.8067 385.206 49.8067C385.043 49.8067 384.875 49.8151 384.712 49.8278L384.646 49.3471L385.822 49.2037C386.443 43.3172 388.994 36.9079 387.589 31.1733C387.426 30.5281 386.739 30.1992 386.036 30.1992C385.608 30.1992 385.171 30.3257 384.855 30.5787C382.926 32.0925 381.525 34.049 380.487 36.2122C382.187 45.3876 383.536 54.6516 383.465 63.8692C383.455 65.4716 383.083 66.9137 382.442 68.204C383.15 70.1478 383.99 72.0116 384.453 73.9091Z" fill="#F9ECD1"/>
<path d="M350.012 104.421C352.013 104.421 353.943 104.328 355.73 104.159C366.232 103.19 379.265 99.2385 383.689 90.5269C383.73 90.4552 383.761 90.3793 383.791 90.3077C383.613 90.3287 383.425 90.3372 383.226 90.3372C383.226 90.3372 383.221 90.3372 383.216 90.3372C378.42 90.333 373.843 89.2577 369.165 88.583C364.603 90.3287 360.006 91.9184 354.778 92.3822C353.846 92.4666 352.924 92.5003 352.013 92.5003C346.993 92.5003 342.239 91.3829 337.412 90.6619C338.023 90.4679 338.624 90.2402 339.199 89.9492C339.866 89.6119 340.365 89.2366 340.838 88.7517C341.307 88.3891 341.633 87.9674 341.826 87.4741C341.974 87.1578 342.055 86.9976 342.065 86.9976C342.076 86.9976 342.02 87.1536 341.887 87.4656C341.918 87.415 342.33 86.8078 342.386 86.7066C342.6 86.3777 342.763 86.032 342.87 85.6651C342.972 85.0959 343.023 84.8091 343.012 84.8091C343.012 84.8091 343.007 84.8344 342.992 84.8892C343.313 83.093 341.668 81.6635 339.718 81.6635C339.321 81.6635 338.909 81.7183 338.502 81.849C338.176 81.887 337.85 81.9376 337.621 81.984C337.489 81.9671 337.412 81.9587 337.402 81.9587C337.392 81.9587 337.453 81.9713 337.601 81.9882L337.565 81.9966C337.153 81.9587 336.638 81.9123 336.582 81.9123C336.44 81.9081 336.338 81.9039 336.257 81.9039C336.078 81.8659 335.905 81.8237 335.885 81.8195C335.305 81.693 334.694 81.6213 334.093 81.6213C333.365 81.6213 332.642 81.7225 331.965 81.946C330.728 82.355 329.669 82.9032 328.941 83.7339C329.348 83.7634 329.771 83.7971 330.203 83.8267C333.258 84.0164 335.111 87.6849 331.899 89.03C331.751 89.0933 331.614 89.1734 331.476 89.2451C332.153 89.8396 332.774 90.4974 333.283 91.2564C335.035 93.8749 332.469 96.367 329.603 96.367C328.646 96.367 327.658 96.0887 326.787 95.4478C326.925 95.5532 326.976 95.5911 326.966 95.5911C326.925 95.5911 326.304 95.2074 326.029 95.1442C325.922 95.1231 325.805 95.1062 325.688 95.0893C325.749 95.2074 325.815 95.3297 325.886 95.4478C330.086 102.363 340.777 104.421 350.012 104.421Z" fill="#F9ECD1"/>
<path d="M383.791 90.3076C387.11 89.9407 388.602 86.3861 386.209 84.3284C385.761 83.9489 385.267 83.5778 384.753 83.2194C384.926 82.0893 384.448 80.837 383.394 80.1033C383.964 79.7659 384.417 79.2937 384.56 78.6991C384.957 77.0378 384.83 75.4607 384.453 73.909C383.852 74.2632 383.119 74.4487 382.381 74.4487C380.971 74.4487 379.53 73.7825 378.934 72.3826C375.839 65.1932 375.864 57.3418 377.066 49.8361C377.733 45.6743 378.405 40.5257 380.487 36.2121C379.708 32.0165 378.853 27.842 378.023 23.6928C380.013 23.6928 382.019 23.5368 384.122 23.1067C388.093 22.2971 386.896 17.701 383.205 17.4859C379.301 17.2498 375.62 16.9673 372.26 15.1414C371.42 14.686 370.57 14.4836 369.75 14.4836C367.123 14.4836 364.858 16.5372 364.588 18.8015C364.537 19.2147 364.486 19.628 364.43 20.0412C364.236 19.3581 363.539 19.0461 362.836 19.0461C361.951 19.0461 361.05 19.5394 361.111 20.4165C361.732 29.2293 362.19 39.83 357.776 48.0229C353.927 55.1491 347.014 57.5399 340.11 62.0265C339.184 62.6337 338.894 63.5107 339.041 64.3751C337.519 65.4082 338.059 68.0141 340.126 68.2798C342.025 68.5243 343.964 68.634 345.934 68.634C348.322 68.634 350.745 68.4737 353.169 68.1954C352.573 69.6038 352.904 71.3621 354.192 72.3109C354.319 72.4037 354.452 72.4838 354.579 72.5723C353.449 72.5006 352.318 72.4416 351.193 72.3952C351.102 72.391 351.01 72.3868 350.918 72.3868C349.366 72.3868 348.088 72.9518 347.085 73.7825C346.871 73.4367 346.545 73.1121 346.077 72.8506C345.527 72.5428 344.916 72.2519 344.285 71.9693C344.076 70.6327 342.931 69.4183 340.838 69.4141C338.812 69.4056 336.704 69.3424 334.592 69.3255C332.957 69.1105 331.303 68.9924 329.669 68.9924C325.036 68.9924 320.612 69.9496 317.618 72.3109C315.643 73.8711 317.348 76.1776 319.655 76.4011C320.184 76.4517 320.714 76.4727 321.248 76.4727C324.624 76.4727 327.999 75.5788 331.41 75.524C331.568 75.5198 331.725 75.5198 331.878 75.5198C336.038 75.5198 339.902 76.3378 343.949 77.0546C344.163 77.0926 344.371 77.1095 344.57 77.1095C344.636 77.1095 344.702 77.1052 344.763 77.101C343.73 79.5635 343.705 81.7309 344.489 84.4085C344.916 85.8632 346.622 86.7993 348.337 86.7993C348.999 86.7993 349.661 86.656 350.246 86.3524C350.649 86.15 351.01 85.9434 351.361 85.7325C356.116 87.8788 360.663 87.7228 366.039 88.2035C367.087 88.3005 368.131 88.4312 369.165 88.583C372.285 87.3855 375.391 86.1205 378.669 85.0874C379.199 84.9187 379.703 84.847 380.166 84.847C383.19 84.847 384.743 88.0475 383.791 90.3076ZM375.92 73.9933C376.221 75.0222 376.587 76.0216 377.081 76.983C375.442 76.3378 373.772 75.7601 372.061 75.2794C373.416 74.9674 374.714 74.5289 375.92 73.9933ZM360.994 59.4459C361.228 59.7368 361.518 59.9814 361.859 60.1711C361.742 60.3693 361.62 60.5717 361.498 60.7699C360.907 60.7783 360.311 60.791 359.711 60.8079C360.154 60.3651 360.586 59.9139 360.994 59.4459Z" fill="#E0C591"/>
<path d="M382.381 74.4488C383.119 74.4488 383.852 74.2633 384.453 73.9091C383.99 72.0116 383.15 70.1478 382.442 68.2039C383.083 66.9136 383.455 65.4716 383.465 63.8692C383.537 54.6516 382.187 45.3876 380.487 36.2122C378.405 40.5258 377.733 45.6743 377.066 49.8362C375.864 57.3418 375.839 65.1933 378.934 72.3827C379.53 73.7826 380.971 74.4488 382.381 74.4488Z" fill="#E3CDA3"/>
<path d="M383.226 90.3373C383.425 90.3373 383.613 90.3288 383.791 90.3077C384.743 88.0476 383.19 84.8472 380.166 84.8472C379.703 84.8472 379.199 84.9189 378.67 85.0875C375.391 86.1206 372.286 87.3856 369.165 88.5831C373.843 89.2578 378.42 90.333 383.216 90.3373C383.221 90.3373 383.226 90.3373 383.226 90.3373Z" fill="#E3CDA3"/>
<path d="M317.97 100.288C320.093 100.288 322.18 99.2891 322.943 97.1007C323.249 96.2278 323.672 95.5532 324.7 95.1315C324.766 95.0978 324.786 95.0935 324.827 95.0725C324.858 95.0767 324.893 95.0767 324.929 95.0767C325.168 95.0767 325.504 95.064 325.331 95.0261C325.443 95.0514 325.565 95.0682 325.688 95.0893C324.588 92.7407 326.385 90.1727 329.587 90.0799C329.679 90.0799 329.771 90.0799 329.857 90.0799C329.918 90.0799 329.979 90.0799 330.04 90.0799C330.107 90.0799 330.168 90.0799 330.234 90.0799C330.269 90.0799 330.305 90.0799 330.341 90.0799C330.076 89.9155 329.806 89.7553 329.557 89.5529C328.162 88.427 327.637 86.6729 328.146 85.1212C328.325 84.5856 328.594 84.1302 328.941 83.7339C328.32 83.6875 327.719 83.6495 327.113 83.6495C326.273 83.6495 325.423 83.7254 324.496 83.9616C322.725 84.4128 321.014 85.079 319.477 85.9392C317.715 86.9217 316.055 88.1361 314.971 89.5402C313.22 91.2943 312.222 93.5882 312.375 95.9074C312.553 98.6988 315.287 100.288 317.97 100.288Z" fill="#E0C591"/>
<path d="M329.603 96.367C332.469 96.367 335.035 93.875 333.283 91.2564C332.774 90.4974 332.153 89.8396 331.476 89.2451C331.614 89.1734 331.751 89.0933 331.899 89.03C335.111 87.6849 333.258 84.0164 330.203 83.8267C329.771 83.7971 329.348 83.7634 328.941 83.7339C328.595 84.1303 328.325 84.5857 328.147 85.1212C327.638 86.6729 328.162 88.427 329.557 89.5529C329.806 89.7553 330.076 89.9155 330.341 90.08C330.305 90.08 330.27 90.08 330.234 90.08C330.168 90.08 330.107 90.08 330.041 90.08C329.979 90.08 329.918 90.08 329.857 90.08C329.771 90.08 329.679 90.08 329.587 90.08C326.385 90.1727 324.588 92.7407 325.688 95.0893C325.805 95.1062 325.922 95.1231 326.029 95.1442C326.304 95.2074 326.925 95.5911 326.966 95.5911C326.976 95.5911 326.925 95.5532 326.787 95.4478C327.658 96.0887 328.646 96.367 329.603 96.367Z" fill="#E3CDA3"/>
<path d="M69.3512 102.38C77.1761 102.38 84.7311 100.676 89.7457 96.367C89.9443 96.1984 90.0868 96.0002 90.1785 95.7893C83.3362 96.114 77.6394 96.2363 73.2306 96.2363C66.4239 96.2363 62.6973 95.9411 62.5802 95.6502C62.4835 95.4014 60.9358 94.4442 58.6602 92.7997C57.4231 92.766 56.186 92.7323 54.9539 92.6985C53.3961 92.1419 51.879 91.501 50.4077 90.7799C44.5785 87.9253 39.8999 83.7845 36.5449 78.9269C33.7551 74.9 32.299 70.2448 29.2648 66.3739C29.0612 66.1083 28.7964 65.9143 28.5164 65.7456C28.491 65.5601 28.4655 65.3704 28.4401 65.189C27.5542 58.1641 27.7884 48.5079 22.0967 42.9209C21.7098 42.5456 21.1498 42.3727 20.5745 42.3727C20.1978 42.3727 19.821 42.4444 19.4799 42.5793C18.8741 41.4155 17.4894 40.8252 16.1403 40.8252C15.3613 40.8252 14.5977 41.0234 14.0071 41.424C15.9417 48.0652 17.2603 54.5715 17.6625 61.5416C18.085 68.828 18.9403 77.8854 13.9868 84.2483C13.6406 84.6911 13.2028 85.0158 12.714 85.2266C12.938 87.8958 13.4777 90.4721 14.6333 92.6479C13.7068 93.8581 14.0173 95.6881 15.6515 96.5273C23.0538 100.314 32.9914 100.116 41.4272 100.289C42.4607 100.305 43.489 100.318 44.5174 100.318C47.3582 100.318 50.1633 100.238 52.9583 100.082C57.9983 101.503 63.741 102.38 69.3512 102.38ZM30.2168 85.9392C32.1209 88.0686 34.2998 90.0505 36.5907 91.8172C34.1267 91.5811 31.6372 91.3155 29.1528 91.1215C29.7128 89.4939 30.0437 87.7524 30.2168 85.9392Z" fill="#E0C591"/>
<path d="M73.2306 96.2363C77.6394 96.2363 83.3362 96.114 90.1785 95.7893C90.3109 95.4688 90.3312 95.1231 90.2549 94.7984C87.8876 94.8911 85.5253 94.9417 83.1733 94.9417C81.2031 94.9417 79.2431 94.908 77.2881 94.8279C75.3536 95.0935 73.4139 95.3086 71.4284 95.3676C71.352 95.0429 71.2095 94.7225 71.0109 94.4315C70.6037 94.3936 70.1964 94.3556 69.7891 94.3135C68.5418 94.1954 67.6204 93.6852 67.0756 93.0147C64.2705 92.943 61.4653 92.8714 58.6602 92.7997C60.9359 94.4442 62.4835 95.4014 62.5803 95.6501C62.6974 95.9411 66.424 96.2363 73.2306 96.2363Z" fill="#E0CAA0"/>
<path d="M83.1733 94.9417C85.5254 94.9417 87.8876 94.8911 90.2549 94.7983C90.0767 94.073 89.4098 93.4405 88.4069 93.4405C88.3661 93.4405 88.3254 93.4405 88.2847 93.4447C84.553 93.6345 80.9435 94.3218 77.2881 94.8278C79.2431 94.9079 81.2031 94.9417 83.1733 94.9417ZM71.011 94.4314C70.4917 93.6682 69.5753 93.0863 68.3687 93.0526C67.936 93.0399 67.5033 93.0315 67.0756 93.0146C67.6204 93.6851 68.5418 94.1953 69.7891 94.3134C70.1964 94.3555 70.6037 94.3935 71.011 94.4314Z" fill="#E3D0AD"/>
<path d="M12.7141 85.2266C13.2028 85.0158 13.6406 84.6911 13.9868 84.2483C18.9404 77.8854 18.0851 68.828 17.6625 61.5416C17.2603 54.5715 15.9418 48.0652 14.0072 41.424C13.3352 41.8794 12.8923 42.5962 12.9025 43.5787C13.0348 53.1378 12.7854 62.6928 12.8515 72.2562C12.877 75.8488 12.3424 80.6768 12.7141 85.2266Z" fill="#E3CDA3"/>
<path d="M72.2074 36.0771C74.6816 36.0771 77.1558 34.7784 77.0642 32.1767C76.9776 29.731 76.6467 27.2474 76.2751 24.8186C75.9594 22.7187 75.654 20.5598 73.8263 18.9996C73.3987 18.637 72.803 18.4557 72.2125 18.4557C71.6168 18.4557 71.0212 18.637 70.5935 18.9996C68.7659 20.5598 68.4604 22.7187 68.1448 24.8186C67.7731 27.2474 67.4422 29.731 67.3608 32.1767C67.264 34.7784 69.7383 36.0771 72.2074 36.0771Z" fill="#E0C591"/>
<path d="M65.8537 19.0839C70.0182 19.0839 74.0553 17.3467 77.3899 15.0402C80.8365 12.6535 77.6496 8.53809 73.9535 8.53809C73.2459 8.53809 72.5178 8.68989 71.8153 9.03143C67.7934 11.0048 63.5373 12.4596 59.9635 14.9601C58.8587 15.7401 59.154 17.4943 60.4369 18.0214C62.2341 18.7635 64.0566 19.0839 65.8537 19.0839Z" fill="#E0C591"/>
<path d="M36.5603 32.864C39.0905 32.864 41.5546 31.7803 42.0179 29.4106C42.7001 25.9571 42.196 22.4573 41.9211 18.9828C41.7277 16.5455 39.4826 14.7535 36.9574 14.4709C35.0127 15.0486 33.1545 15.7865 31.3879 16.6678C28.9493 18.6286 26.4904 20.7074 25.574 23.4735C25.1056 24.865 25.7318 26.4631 26.9282 27.5679C26.9536 27.9263 27.0147 28.2974 27.1471 28.6727C27.7071 30.2497 29.27 31.034 30.9195 31.034C31.0977 31.034 31.281 31.0255 31.4592 31.0045C32.5995 32.2146 34.6003 32.864 36.5603 32.864Z" fill="#E0C591"/>
<path d="M31.388 16.6678C33.1546 15.7865 35.0128 15.0486 36.9575 14.4709C36.7284 14.4456 36.4942 14.433 36.2651 14.433C34.972 14.433 33.6535 14.8336 32.5284 15.7486C32.1516 16.0564 31.7698 16.36 31.388 16.6678Z" fill="#E3CDA3"/>
<path d="M48.1423 35.6261C53.9002 35.6261 51.8027 27.977 51.4667 25.1519C51.2325 23.2291 49.6848 21.5846 47.175 21.5846C45.0215 21.5846 42.6593 23.2333 42.8884 25.1519C43.2549 28.1837 42.7458 35.6261 48.1423 35.6261Z" fill="#E0C591"/>
<path d="M35.2468 42.2334C39.5945 42.2334 44.0135 41.7738 48.1423 41.4491C51.0441 41.2214 51.0391 37.924 48.1423 37.6921C44.0135 37.3674 39.5945 36.912 35.2468 36.912C32.2075 36.912 29.2038 37.1355 26.363 37.7848C24.2401 38.2698 24.2401 40.8756 26.363 41.3563C29.2038 42.0099 32.2075 42.2334 35.2468 42.2334Z" fill="#E0C591"/>
<path d="M2.01797 86.2386C9.91409 95.5448 25.1972 98.8843 37.9298 100.693C57.1381 103.421 77.0082 103.029 96.3845 101.975C140.727 99.5632 184.774 92.7575 228.16 84.9947C245.291 81.9292 262.325 78.3281 279.538 75.6253C280.016 72.6146 281.299 69.5617 282.083 66.61C282.297 65.8047 283.611 65.9354 283.901 66.61C284.675 68.4274 285.377 70.3038 285.84 72.2098C300.747 70.9448 315.521 68.4443 330.539 68.166C343.104 67.9341 356.086 69.3298 368.202 72.1212C373.803 73.4115 379.321 75.0897 384.473 77.3457C386.148 78.0836 388.062 78.9143 389.793 79.9305C387.166 71.4929 386.932 62.1024 387.278 53.6649C385.899 52.9228 384.692 51.9572 383.302 51.215C381.541 50.2705 379.983 49.1193 378.181 48.2338C379.092 48.1073 387.711 46.8297 387.681 47.1965C388.256 40.4836 389.488 33.5135 392.318 27.3234L392.268 27.2939C353.856 -6.11046 290.723 0.986177 241.966 10.7815C213.156 16.5709 185.222 25.135 156.341 30.5998C128.86 35.7989 100.656 37.9199 72.5332 38.6915C60.2232 39.0247 47.8216 38.856 35.6694 37.0344C25.6249 35.5333 11.1767 32.9189 4.46164 25.8729C4.33438 25.7422 4.22745 25.6115 4.10529 25.4765C4.34964 29.6721 4.26309 33.893 4.32419 38.0717C4.37 41.1203 3.418 68.069 3.32635 71.1303C3.17871 76.0258 3.25507 81.3093 1.86523 86.1163C1.91107 86.1585 1.97217 86.188 2.01797 86.2386ZM311.341 81.7689C311.845 81.4906 312.375 81.225 312.94 80.9846C319.96 77.9613 334.47 77.0842 340.681 82.393C340.675 82.1442 340.686 81.8828 340.691 81.6298C340.401 78.1047 341.297 74.1326 342.987 71.067C333.4 70.5653 323.921 71.0333 314.437 71.8134C314.895 73.2977 314.101 75.1952 313.571 76.5487C313.403 76.983 313.21 77.4047 313.001 77.8137C312.563 79.1757 311.978 80.5081 311.341 81.7689ZM339.871 85.8338C339.225 84.3369 332.367 82.199 332.367 82.3044C332.362 82.3593 332.362 82.4141 332.336 82.4731C331.664 84.0923 330.774 85.644 329.913 87.2C329.063 88.7391 328.32 90.4173 327.032 91.7371L326.991 91.7666C327.103 91.7371 327.23 91.716 327.378 91.7455C330.453 92.3317 333.691 93.331 336.552 91.8763C338.919 90.6661 340.879 88.1783 339.871 85.8338ZM310.822 98.7157C318.377 108.473 337.387 108.119 349.524 107.191C364.191 106.078 380.059 102.397 389.04 91.8931C391.626 88.8656 392.853 85.8422 389.213 83.0002C386.036 80.5292 381.429 78.8215 377.488 77.4089C369.46 74.5289 360.815 72.9266 352.191 71.864C350.048 71.5984 347.915 71.4086 345.782 71.2568C345.257 72.4037 344.687 73.538 344.173 74.6849C343.878 75.659 343.567 76.6288 343.379 77.6155C342.595 81.7521 345.492 87.959 341.958 91.3154C338.13 94.9418 329.913 94.7309 325.754 91.7793C326.161 89.8227 327.083 88.4945 328.06 86.7109C329.007 85.1633 329.939 83.5863 331.064 82.1189C328.376 81.79 325.571 81.7942 322.964 81.9755C318.866 82.2665 314.325 83.2405 311.367 85.7621C307.172 89.3378 307.767 94.7773 310.822 98.7157ZM45.5663 17.9709C48.5292 20.0961 54.2668 20.1087 59.1898 19.725C59.2559 18.7257 59.597 17.6884 59.9076 16.8535C60.2945 15.7909 60.8291 14.8168 61.5215 13.9145C59.149 12.6832 56.6646 11.8146 53.8646 11.4477C51.9402 11.1947 50.082 11.0724 48.1474 11.4941C45.6019 12.0549 40.5364 14.3741 45.5663 17.9709ZM44.6601 35.0568C44.6295 35.2044 44.5583 35.3266 44.4666 35.4278C47.0987 35.6724 49.7358 35.8537 52.3729 35.976C62.2545 36.4356 72.2736 36.3682 82.2927 35.9802C80.2054 30.9287 80.8366 23.7266 82.7967 17.6546C78.2606 20.0497 71.3572 20.9225 67.5492 21.4412C61.0174 22.3393 50.2754 23.3134 44.4361 20.6316C45.6681 25.35 45.6528 30.3383 44.6601 35.0568ZM83.8454 11.2116C82.1654 6.18954 67.4626 5.43475 62.8298 5.05525C51.7162 4.13181 40.2105 4.32156 29.2191 6.05038C21.5215 7.26057 9.2319 9.3689 5.49002 16.0186C1.34595 23.364 12.4443 28.1963 19.1644 30.4311C26.5871 32.8979 34.4017 34.361 42.3182 35.2086C42.252 35.0821 42.2113 34.9429 42.2317 34.7827C42.8477 29.3685 42.588 24.2495 41.9822 18.9702C41.132 18.0974 40.5873 17.0221 40.4651 15.6981C39.5436 5.49379 57.9679 8.79543 63.6037 12.0296L63.7055 12.1055C63.9448 12.1603 64.1382 12.3206 64.1229 12.5272C64.5251 13.2103 64.0771 14.0789 63.3084 14.3319C62.8502 15.3819 62.4429 16.4487 62.2291 17.545C62.112 18.1648 62.112 18.81 62.0967 19.4509C63.1607 19.3371 64.1433 19.219 64.9731 19.1262C69.1274 18.6498 85.7545 16.9083 83.8454 11.2116ZM0.139404 86.2976C-0.0540466 81.0015 1.0965 75.5367 1.36633 70.2448C1.68198 64.1686 2.06888 54.9088 1.99252 38.9698C1.96198 33.5093 1.66159 27.9601 2.12997 22.4911C-0.680237 16.086 5.60712 10.2544 13.0603 7.37442C24.1027 3.10294 37.217 2.04456 49.2521 1.88854C59.6429 1.75361 72.1209 1.96023 81.585 6.05038C84.3749 7.25213 87.3378 9.17071 87.2156 12.0633C87.1647 13.1639 86.7524 14.1211 86.1262 14.9728C85.3524 18.3757 84.4716 21.7448 84.1712 25.2362C83.8658 28.795 84.5022 32.4003 83.932 35.9128C96.5067 35.3773 109.071 34.3315 121.366 33.0412C171.512 27.7915 218.232 10.7435 267.92 3.58364C291.889 0.134412 316.921 -1.60707 341.022 1.98131C352.634 3.71014 364.14 6.73348 374.373 11.6965C381.414 15.1078 395.663 22.3773 394.411 30.1908C393.973 32.9021 393.464 35.6092 392.98 38.312C392.364 41.7781 391.59 45.2864 391.336 48.7694C389.121 49.0434 386.907 49.3133 384.692 49.5832C386.769 49.4314 388.918 50.2241 390.18 51.6072C391.876 53.4752 391.193 55.4232 391.097 57.5274C390.959 60.5423 391.499 63.6879 391.886 66.6817C392.644 72.5893 393.764 78.4673 394.416 84.3833C397.348 90.6155 388.551 97.3748 383.307 100.689C368.538 110.021 345.828 112.116 327.968 109.531C320.021 108.38 311.601 105.698 307.284 99.6518C304.596 95.8863 303.496 91.3913 305.044 87.0777C305.812 84.9525 308.083 83.1351 309.249 81.1111C310.114 79.6016 310.766 78.0372 311.387 76.4686C311.433 76.3337 311.484 76.2072 311.519 76.0764C311.881 74.8241 311.749 73.2681 312.227 72.0032C311.952 72.7284 299.011 73.2428 297.509 73.3862C292.856 73.829 288.483 73.9302 284.125 75.3301C283.952 74.1326 282.771 70.9827 283.061 69.8948C282.47 72.0748 281.61 74.2253 281.116 76.418C277.232 76.8734 273.24 78.3787 269.417 79.26C264.769 80.3353 260.106 81.3599 255.432 82.3466C246.054 84.32 236.626 86.129 227.162 87.8114C208.269 91.1763 189.249 94.0352 170.199 96.7296C169.827 96.7845 169.45 96.8351 169.079 96.8857C146.21 100.111 123.199 102.764 100.06 104.159C80.1137 105.357 59.7905 105.833 39.9509 103.358C25.6554 101.579 9.13007 98.0199 0.526306 87.5373C0.358307 87.4614 0.236115 87.3307 0.169952 87.1325C-0.0744324 86.8205 -0.028595 86.5253 0.139404 86.2976Z" fill="black"/>
<path d="M77.7871 28.0572C77.8278 28.968 77.9093 29.9125 77.9602 30.8612C78.6882 30.701 79.4111 30.507 80.1238 30.2878C80.1798 29.7312 80.2307 29.183 80.2562 28.6517C80.2817 28.2638 80.3071 27.8716 80.3275 27.4837C79.4824 27.6777 78.6373 27.8674 77.7871 28.0572ZM75.4605 32.0377C75.4147 32.9991 75.4045 34.0111 75.2772 34.9893C75.9085 34.8755 76.5398 34.7785 77.1762 34.6857C77.0132 33.7497 76.9827 32.7672 77.0132 31.7763C76.4991 31.8817 75.9798 31.966 75.4605 32.0377ZM80.0627 30.9161C79.3907 31.1564 78.6984 31.363 77.9958 31.5443C78.0314 32.5859 78.0111 33.6147 77.8533 34.5972C78.5609 34.5044 79.2635 34.4117 79.966 34.3231C79.8642 33.2184 79.9558 32.0588 80.0627 30.9161ZM71.6728 22.9887C75.5216 22.4406 79.0955 21.7364 82.7101 20.4714C83.0461 20.3533 83.2802 20.8256 82.9595 20.969C82.3384 21.2346 81.702 21.4792 81.0504 21.7069C81.03 22.5249 81.0199 23.3472 81.0046 24.161C81.1522 24.2453 81.2082 24.4393 81.0148 24.5489L80.9944 24.5616C80.9791 25.3712 80.9588 26.1765 80.9435 26.9861C81.1319 27.0409 81.1828 27.2897 80.9384 27.3445V27.3488C80.9282 27.7789 80.918 28.2174 80.9078 28.6517C80.8977 29.0987 80.9028 29.5583 80.9129 30.0221C81.1675 29.9336 81.4271 29.845 81.6868 29.7396C82.033 29.6005 82.3435 30.0306 81.9922 30.1781C81.641 30.3257 81.2846 30.4733 80.918 30.6125C80.9435 31.8184 80.9537 33.0497 80.7653 34.2177C80.9384 34.1966 81.1115 34.1755 81.2846 34.1502C81.6511 34.0996 81.8191 34.5635 81.4424 34.6267C81.1828 34.6689 80.9231 34.711 80.6635 34.7574C80.6228 34.9134 80.5973 35.0652 80.5515 35.217C80.5057 35.4026 80.134 35.4152 80.0933 35.217C80.0678 35.099 80.0577 34.9767 80.0373 34.8586C79.2686 34.9893 78.4998 35.1201 77.726 35.2423C77.6649 35.3731 77.4511 35.3941 77.3391 35.3056C76.6161 35.4194 75.8932 35.5206 75.1703 35.5965C75.1143 35.8791 75.0634 36.1616 74.9769 36.4272C74.9005 36.6465 74.5645 36.5748 74.5339 36.3766C74.4932 36.1405 74.4983 35.9001 74.4881 35.6556C74.0503 35.6977 73.6176 35.7441 73.1797 35.7652C72.9557 35.7736 72.9252 35.4996 73.1339 35.4447C73.5666 35.3351 74.0147 35.2508 74.4627 35.158C74.4779 34.146 74.6612 33.1045 74.7834 32.1052C74.091 32.1684 73.3936 32.1979 72.6961 32.1642C72.4364 32.1515 72.3397 31.8058 72.6248 31.7678C73.4088 31.654 74.1776 31.5443 74.9361 31.4305C75.0379 31.3209 75.2161 31.2998 75.3485 31.3588C75.9136 31.266 76.4787 31.1691 77.0387 31.0594C77.0845 30.0896 77.1711 29.1198 77.2169 28.1837C75.8983 28.4704 74.5696 28.7276 73.2256 28.9174C72.9812 28.9511 72.8794 28.6644 73.1237 28.6011C74.4678 28.2216 75.8474 27.9222 77.2372 27.6481C77.2372 27.4837 77.2474 27.3192 77.2525 27.1548C77.2525 26.8807 77.7616 26.8765 77.7616 27.1548C77.7616 27.2813 77.7718 27.4162 77.7769 27.5427C78.6373 27.3741 79.4976 27.2138 80.3529 27.0536C80.3988 26.3072 80.4395 25.5651 80.4853 24.823C78.2911 25.9488 75.766 26.6783 73.1746 26.5054C72.9863 26.4928 72.9048 26.2356 73.1237 26.206C75.7812 25.894 78.2045 25.4175 80.5158 24.258C80.5668 23.4526 80.6177 22.6514 80.6635 21.846C77.8278 22.8074 74.7528 23.3851 71.7288 23.3345C71.4997 23.3303 71.4335 23.0225 71.6728 22.9887Z" fill="black"/>
<path d="M80.2614 14.1294C78.281 13.1216 76.2395 12.1097 74.4627 10.8615C74.2693 10.7224 74.5187 10.4862 74.7275 10.579C76.774 11.4519 78.673 12.6241 80.5261 13.7499C80.7959 13.9102 80.5617 14.277 80.2614 14.1294Z" fill="black"/>
<path d="M77.7769 15.7149C75.5215 14.1421 73.1339 12.6283 71.1128 10.8488C70.9702 10.7181 71.1586 10.4862 71.3418 10.5958C73.7855 11.9958 75.9696 13.7415 78.1994 15.3649C78.4896 15.5757 78.067 15.9173 77.7769 15.7149Z" fill="black"/>
<path d="M65.4874 17.4059C67.1979 17.8866 68.8067 18.6962 70.4154 19.3708C70.8482 19.5564 70.4664 20.0877 70.0387 19.9148C68.4503 19.257 66.7296 18.6793 65.2736 17.836C65.0241 17.6926 65.1666 17.3215 65.4874 17.4059Z" fill="black"/>
<path d="M62.9875 15.7022C64.8202 15.4829 66.6734 15.3438 68.5265 15.2299C67.381 14.4878 66.2457 13.7204 65.3344 12.8391C65.1359 12.6367 65.3904 12.3247 65.6806 12.468C67.1468 13.1722 68.4857 14.1673 69.789 15.154C70.8225 15.0908 71.856 15.0318 72.8895 14.9685C71.1178 13.636 69.3359 12.2994 67.7832 10.8067C67.6457 10.676 67.8341 10.4187 68.0276 10.541C70.6545 12.2024 72.9709 14.2306 75.3586 16.1239C75.664 16.3558 75.2109 16.7269 74.9106 16.4949C74.4931 16.1703 74.0604 15.8498 73.6378 15.5293C72.6247 15.601 71.6167 15.6769 70.5985 15.7528C70.9243 15.9932 71.2451 16.2377 71.5658 16.4612C71.912 16.7016 71.4182 17.0979 71.0822 16.8702C70.568 16.5202 70.0283 16.1787 69.4887 15.8329C67.3454 15.9932 65.2021 16.1323 63.0588 16.1618C62.7533 16.166 62.6668 15.7359 62.9875 15.7022Z" fill="black"/>
<path d="M39.1566 36.7729C39.1464 35.023 39.6046 33.2688 39.8337 31.5358C40.0781 29.6889 40.2664 27.8378 40.4039 25.9824C40.6635 22.373 40.7042 18.7551 40.6381 15.1414C40.6279 14.8378 41.1726 14.8463 41.193 15.1414C41.4933 18.8479 41.4984 22.567 41.2592 26.2776C41.0402 29.6847 41.0402 33.564 39.7879 36.8403C39.681 37.1229 39.1566 37.0765 39.1566 36.7729Z" fill="black"/>
<path d="M18.1258 23.1532C18.2785 24.9916 18.6654 26.9313 18.4567 28.7655C18.4261 29.0017 17.9934 29.0902 17.917 28.8246C17.4079 27.0072 17.4741 25.0127 17.3316 23.1532C17.2959 22.7273 18.0901 22.7315 18.1258 23.1532Z" fill="black"/>
<path d="M21.6589 32.5774C26.475 32.5985 31.4285 33.5725 36.1835 34.1502C36.5399 34.1966 36.4584 34.7237 36.097 34.6815C31.3318 34.1755 26.2408 34.0068 21.5978 32.9485C21.3535 32.8979 21.3993 32.5774 21.6589 32.5774Z" fill="black"/>
<path d="M37.5022 23.3978C36.484 23.402 35.4658 23.4147 34.4476 23.4358C34.4374 24.8484 34.4222 26.2694 34.4069 27.6862C35.3844 27.6988 36.3568 27.703 37.3291 27.7115C37.38 26.2736 37.436 24.8357 37.5022 23.3978ZM30.3952 23.499L30.4207 23.5707C30.2578 24.9327 30.1254 26.2947 29.9777 27.6524C31.1436 27.6524 32.3043 27.6567 33.4651 27.6735C33.5262 26.2652 33.5923 24.8526 33.6636 23.4442C32.5792 23.4653 31.4847 23.4779 30.3952 23.499ZM25.3093 27.7452C26.5719 27.6988 27.8344 27.6651 29.1021 27.6567C29.3108 26.2947 29.5297 24.9369 29.7181 23.5707L29.7639 23.5032C28.3435 23.5201 26.9282 23.5201 25.518 23.4948C25.5384 24.92 25.5384 26.3706 25.3093 27.7452ZM29.7232 29.8662C30.945 29.9294 32.172 30.018 33.3836 30.0939C33.404 29.474 33.4193 28.8584 33.4447 28.2385C32.2636 28.2554 31.0876 28.2596 29.9065 28.2596C29.8505 28.7951 29.7945 29.3307 29.7232 29.8662ZM38.9888 28.1879C38.775 28.1879 38.5561 28.1922 38.3371 28.1922C38.3015 30.3469 38.2353 32.4974 38.1284 34.6479C38.103 35.1539 37.1459 35.1497 37.1815 34.6479C37.1866 32.5016 37.2426 30.3511 37.3139 28.2006C36.3415 28.2133 35.3691 28.2175 34.3967 28.2301C34.3865 28.871 34.3662 29.512 34.3458 30.1529C34.7684 30.1782 35.196 30.1993 35.6186 30.2119C35.9444 30.2288 35.9495 30.6463 35.6186 30.6378C35.1909 30.6252 34.7633 30.621 34.3305 30.6125C34.3102 31.1565 34.3 31.6962 34.2745 32.2402C34.2491 32.7419 33.3022 32.7377 33.3429 32.2402C33.3429 31.6962 33.3633 31.148 33.3734 30.6041C32.1312 30.5957 30.8789 30.5957 29.6214 30.5704C29.5654 31.0005 29.5094 31.4263 29.4432 31.8522C29.3668 32.3076 28.5115 32.3414 28.5523 31.8522C28.5828 31.4137 28.6235 30.9794 28.6541 30.5451C27.0861 30.4987 25.5282 30.4017 24.0162 30.1824C23.782 30.1487 23.8584 29.8746 24.0671 29.8577C25.6148 29.7439 27.1981 29.7565 28.7915 29.824C28.8577 29.3011 28.9341 28.7741 29.0155 28.2554C27.7479 28.247 26.4853 28.2133 25.2228 28.1669C25.1769 28.3904 25.1362 28.6138 25.07 28.8331C25.0089 29.0692 24.5253 29.0861 24.4744 28.8331C24.4286 28.6012 24.4031 28.365 24.3726 28.1289C24.1129 28.1205 23.8533 28.1205 23.5886 28.1036C23.3646 28.0868 23.3646 27.8253 23.5886 27.8127C23.838 27.7958 24.0875 27.7958 24.3369 27.7789C24.2097 26.3706 24.3369 24.9032 24.4795 23.4569C23.6955 23.4358 22.9064 23.4105 22.1274 23.3683C22.2496 25.1857 22.3973 27.1338 21.9238 28.8162C21.8678 29.0355 21.4605 29.0355 21.3994 28.8162C20.7987 26.6784 21.2009 24.1315 21.2773 21.9473C21.2925 21.5341 22.0358 21.5341 22.0511 21.9473C22.0562 22.2678 22.0765 22.5967 22.0969 22.934C22.9064 22.8876 23.726 22.8623 24.5406 22.8412C24.6118 22.1328 24.678 21.4329 24.7137 20.7498C24.734 20.3239 25.5231 20.3239 25.5079 20.7498C25.4824 21.4202 25.4926 22.1117 25.5028 22.8075C28.2264 22.7611 30.9654 22.8075 33.6942 22.8581C33.74 21.8883 33.7909 20.9226 33.8265 19.9528C33.8265 19.9022 33.8673 19.8685 33.8927 19.8347C30.4665 19.8769 26.969 20.0329 23.5886 19.7209C23.3187 19.6956 23.3136 19.392 23.5886 19.3667C27.3813 19.0209 31.3269 19.2655 35.14 19.2697C35.5676 19.2739 35.5676 19.8221 35.14 19.8221C34.9058 19.8221 34.6564 19.8263 34.4171 19.8305C34.4476 19.8643 34.4833 19.898 34.4833 19.9528C34.4629 20.9226 34.4527 21.8967 34.4476 22.8665C35.476 22.8834 36.4993 22.896 37.5226 22.9045C37.6346 20.5811 37.7466 18.2577 37.8637 15.9428C37.879 15.635 38.439 15.6307 38.439 15.9428C38.4237 19.8643 38.4186 23.7942 38.3473 27.7199C38.5612 27.7199 38.775 27.7241 38.9888 27.7241C39.3503 27.7283 39.3503 28.1879 38.9888 28.1879Z" fill="black"/>
<path d="M34.6563 17.8698C32.0853 17.7348 29.5195 17.5957 26.9485 17.3806C26.7143 17.3638 26.7092 17.0686 26.9485 17.0686C29.5246 17.115 32.0853 17.2331 34.6563 17.3553C35.0534 17.3722 35.0534 17.8909 34.6563 17.8698Z" fill="black"/>
<path d="M46.6405 24.9156C46.4419 24.8903 46.4419 24.612 46.6405 24.5867C48.5241 24.321 50.5656 24.5023 52.4748 24.515C52.8362 24.5234 52.8362 24.983 52.4748 24.9873C50.5656 25.0041 48.5241 25.1812 46.6405 24.9156Z" fill="black"/>
<path d="M48.1422 27.6523C47.9894 27.6397 47.9894 27.471 48.1422 27.4584C48.9414 27.3951 49.7458 27.4078 50.5451 27.4078C50.7742 27.4078 50.7742 27.7029 50.5451 27.7029C49.7458 27.7029 48.9414 27.7198 48.1422 27.6523Z" fill="black"/>
<path d="M50.5451 30.5576C49.7305 30.5534 48.9007 30.5872 48.0963 30.4986C47.9283 30.4775 47.9283 30.2414 48.0963 30.2203C48.9007 30.1318 49.7305 30.1655 50.5451 30.1655C50.8505 30.1613 50.8505 30.5576 50.5451 30.5576Z" fill="black"/>
<path d="M50.932 33.0791C49.8324 32.9442 48.6614 32.8767 47.5872 32.6026C47.3683 32.5478 47.409 32.2695 47.6432 32.2695C48.7887 32.2527 49.9647 32.4593 51.1 32.5858C51.4869 32.6279 51.324 33.1213 50.932 33.0791Z" fill="black"/>
<path d="M8.34595 32.9273C16.6443 36.444 24.9527 39.2017 34.2234 40.3318C34.59 40.3782 34.4322 40.8378 34.0707 40.7956C25.0851 39.7752 15.7482 37.4476 8.10158 33.2773C7.83685 33.1339 8.06594 32.8093 8.34595 32.9273Z" fill="black"/>
<path d="M27.0248 85.9393C26.9841 84.2527 26.9077 82.5702 26.7346 80.8751C25.5993 80.757 24.4589 80.6221 23.3338 80.4703C23.6495 82.0726 23.9906 83.6707 24.3418 85.2731C25.2328 85.4966 26.1288 85.7158 27.0248 85.9393ZM27.8546 92.1252C29.4175 92.4119 30.9856 92.6733 32.5689 92.8968C32.4212 91.2565 32.3194 89.6162 32.2736 87.9675C30.8176 87.6049 29.3615 87.238 27.9055 86.8754C27.9615 88.6295 27.9615 90.3795 27.8546 92.1252ZM32.1107 81.3516C30.5783 81.2335 29.0357 81.1028 27.4779 80.9468C27.6764 82.6714 27.8037 84.4087 27.875 86.1501C29.3361 86.5128 30.7972 86.8754 32.2532 87.238C32.2074 85.2731 32.182 83.3039 32.1107 81.3516ZM21.5469 75.7814C20.2792 75.5832 19.0167 75.3892 17.7592 75.1657C17.9374 76.3844 18.0952 77.6072 18.1919 78.8258C19.5309 79.0198 20.8749 79.218 22.2087 79.4161C21.9593 78.2102 21.7454 76.9958 21.5469 75.7814ZM21.0531 72.2942C19.7905 72.1424 18.5279 71.9737 17.2705 71.784C17.3825 72.6484 17.5148 73.5213 17.6421 74.3941C18.9047 74.5628 20.157 74.7483 21.4196 74.938C21.2872 74.0568 21.1651 73.1797 21.0531 72.2942ZM20.5949 67.892C19.2661 67.58 17.9425 67.2511 16.629 66.8969C16.8174 68.3348 17.0108 69.7726 17.1941 71.2147C18.4516 71.3159 19.709 71.434 20.9665 71.5689C20.824 70.3419 20.6967 69.1191 20.5949 67.892ZM20.3963 65.1765C18.9963 64.8644 17.6166 64.5145 16.2675 64.1181C16.3592 64.7885 16.4406 65.459 16.5323 66.1294C17.8661 66.3993 19.1999 66.6903 20.5287 66.9981C20.4778 66.3909 20.432 65.7837 20.3963 65.1765ZM13.9511 74.4321C14.0784 75.7181 14.1802 77.0042 14.2311 78.2819C15.3002 78.421 16.3643 78.5644 17.4232 78.7162C17.2195 77.4933 17.0872 76.2536 16.9599 75.014C15.9519 74.8284 14.949 74.6387 13.9511 74.4321ZM11.6195 82.2287C15.6719 82.9666 19.6429 84.1008 23.624 85.0918C23.1607 83.5232 22.7687 81.9377 22.4174 80.3438C21.0072 80.1414 19.6072 79.9137 18.2225 79.6396C18.2479 80.0444 18.2836 80.445 18.2836 80.8456C18.2785 81.0353 17.9272 81.0859 17.8763 80.892C17.7592 80.4366 17.6777 79.9727 17.5861 79.5089C16.461 79.277 15.341 79.0198 14.2515 78.7288C14.2922 79.9727 14.277 81.2124 14.17 82.4311C14.1548 82.625 13.778 82.7009 13.7271 82.4817C13.1417 79.7999 12.9889 77.0042 12.8973 74.217C12.7242 74.1538 12.7344 73.9387 12.8871 73.8755C12.8362 72.1719 12.8006 70.4726 12.7038 68.8112C12.6835 68.4191 13.4013 68.4233 13.4268 68.8112C13.5489 70.5021 13.7373 72.2225 13.9104 73.9556C14.9031 74.061 15.8959 74.1791 16.8886 74.3055C16.8123 73.5086 16.7257 72.7159 16.6341 71.9274C16.6239 71.8472 16.6137 71.7629 16.6035 71.6828C15.8653 71.5689 15.1221 71.4677 14.389 71.3412C14.165 71.3033 14.2108 70.9913 14.445 71.0039C15.1424 71.0419 15.845 71.1093 16.5424 71.1641C16.3592 69.6841 16.1861 68.204 16.013 66.7198C14.9744 66.4373 13.9308 66.1632 12.9177 65.8469C12.6478 65.7626 12.7497 65.4379 13.0348 65.4885C14.002 65.6445 14.9642 65.8216 15.9213 66.0072C15.8399 65.3198 15.7584 64.6283 15.6719 63.941C15.5599 63.9073 15.4428 63.8693 15.3257 63.8356C14.9693 63.7217 15.1068 63.3212 15.4835 63.3675L15.6108 63.3844C15.5701 63.0597 15.5344 62.7393 15.4937 62.4104C15.4581 62.1152 16.0079 62.1194 16.0435 62.4104C16.0944 62.7646 16.1352 63.1145 16.181 63.4645C17.5708 63.6585 18.9607 63.9073 20.3454 64.1982C20.3149 63.5531 20.2792 62.9121 20.2589 62.267C18.1054 61.664 16.0333 60.9219 14.2159 59.9394C13.9715 59.8045 14.1191 59.4418 14.4246 59.5262C16.3948 60.0743 18.2886 60.8122 20.2385 61.4237C20.208 60.2852 20.2029 59.1509 20.208 58.0124C18.1919 57.4853 16.1963 56.8992 14.3228 56.1655C14.0835 56.0727 14.2668 55.7944 14.4959 55.8324C16.4101 56.1317 18.3243 56.5871 20.2232 57.0974C20.2334 56.4016 20.2589 55.6974 20.2843 54.9975C18.4719 54.5758 16.573 54.2216 14.8828 53.5301C14.674 53.4457 14.7657 53.1337 15.005 53.1548C16.8072 53.3235 18.5687 53.8379 20.3098 54.2849C20.3505 53.3403 20.4065 52.4042 20.4727 51.4597C18.3701 50.8525 16.2828 50.22 14.277 49.4483C14.0122 49.3471 14.2006 49.0056 14.4704 49.0688C16.517 49.52 18.5228 50.1104 20.5236 50.7302C20.5694 50.1146 20.6305 49.4989 20.6814 48.8833C18.5127 48.1623 16.3592 47.3948 14.3839 46.4419C14.1802 46.3449 14.3177 46.0792 14.5366 46.1298C16.6443 46.619 18.7112 47.3231 20.7578 48.0695C20.8189 47.4792 20.8901 46.8804 20.9563 46.2859C18.5687 45.6491 16.1861 44.9871 13.89 44.1817C13.5999 44.0805 13.6966 43.7095 14.0275 43.7769C16.3897 44.2661 18.7214 44.9028 21.0378 45.5732C21.1651 44.5486 21.3025 43.5239 21.4552 42.4993C17.9017 41.5421 14.3584 40.547 10.9474 39.341C10.6878 39.2525 10.8762 38.9109 11.1358 38.9699C14.6791 39.7542 18.1716 40.7747 21.6487 41.8288C21.8014 41.7361 22.0356 41.7782 22.0509 41.9511C24.3724 42.6511 26.6888 43.3679 29.0052 44.0384C29.3666 44.1438 29.2088 44.6203 28.8423 44.5149C26.5819 43.8739 24.2807 43.2667 21.9847 42.6469C21.8371 43.6757 21.72 44.7088 21.6029 45.7377C23.4204 46.269 25.2328 46.8129 27.0451 47.3189C27.4422 47.4286 27.2742 47.9599 26.867 47.846C25.1004 47.3611 23.3084 46.9015 21.5163 46.4334C21.4502 47.0491 21.3789 47.6647 21.328 48.2803C22.9622 48.8917 24.5862 49.52 26.195 50.0893C26.5564 50.2158 26.2917 50.7471 25.9251 50.6206C24.408 50.0893 22.84 49.5875 21.272 49.0731C21.2211 49.6887 21.1803 50.3085 21.1396 50.9242C22.6058 51.3838 24.0669 51.8476 25.528 52.2904C25.9557 52.4211 25.7775 53.003 25.3346 52.8681C23.9295 52.4506 22.5142 52.0458 21.0938 51.641C21.0378 52.5771 20.992 53.5132 20.9614 54.4493C23.0131 54.9553 25.0546 55.4571 27.1011 55.9673C27.5746 56.0769 27.3761 56.6926 26.8975 56.5787C24.9171 56.1064 22.9367 55.63 20.9512 55.1535C20.936 55.8661 20.9207 56.5745 20.9156 57.2871C23.3033 57.9491 25.6706 58.6913 28.0124 59.3195C28.4655 59.4418 28.2721 60.0406 27.8139 59.9183C25.5586 59.3195 23.2116 58.7882 20.9003 58.1937C20.9054 59.3491 20.9512 60.5002 20.9869 61.6556L21.104 61.6893C23.3745 62.3302 25.6909 62.8362 28.0379 63.2368C28.547 63.3254 28.3332 63.9747 27.8241 63.8862C25.6248 63.5109 23.2931 63.0724 21.0174 62.4778C21.0429 63.1019 21.048 63.726 21.0836 64.35C24.072 64.9994 27.0401 65.7879 29.9674 66.433C30.4663 66.5427 30.2525 67.1794 29.7536 67.074C26.9433 66.4668 24.0211 65.9566 21.1549 65.3451C21.1956 65.9523 21.2363 66.568 21.2974 67.1794C24.8306 68.0185 28.3484 68.942 31.8561 69.7642C32.355 69.8823 32.1412 70.5316 31.6372 70.4136C28.2517 69.6166 24.8051 68.8829 21.3891 68.0902C21.5112 69.2835 21.6538 70.4726 21.8167 71.6617C25.3397 72.0623 28.8524 72.5303 32.35 72.9309C32.8132 72.99 32.6147 73.5761 32.1565 73.5213C28.7557 73.1333 25.3295 72.8002 21.9185 72.4038C22.0509 73.2936 22.1883 74.1875 22.336 75.0772C26.1746 75.676 29.9979 76.3591 33.7602 77.0422C34.0911 77.1012 33.9434 77.4976 33.6227 77.4596C29.9368 76.9831 26.195 76.4982 22.4734 75.9332C22.6822 77.1391 22.9113 78.3451 23.1455 79.5511C26.139 79.9854 29.1375 80.3902 32.1718 80.6727C32.3194 80.4366 32.7521 80.4577 32.8641 80.7275C33.3071 80.7697 33.7398 80.8119 34.1827 80.8456C34.6918 80.8751 34.6969 81.5498 34.1827 81.5076C33.7805 81.4781 33.3631 81.4486 32.9558 81.4148C33.0678 83.4388 33.2256 85.4755 33.358 87.5121C34.1522 87.7145 34.9413 87.9085 35.7355 88.1025C36.2496 88.2332 36.0307 88.9078 35.5115 88.7771C34.8089 88.6042 34.1013 88.4271 33.3987 88.25C33.4954 89.8397 33.5412 91.4294 33.5311 93.0149C34.2285 93.1034 34.9209 93.1962 35.6235 93.2679C36.1886 93.3311 36.1936 94.0817 35.6235 94.0142C34.926 93.9383 34.2285 93.854 33.5311 93.7654C33.5158 94.0817 33.5362 94.3979 33.5209 94.7142C33.5056 95.0684 32.8692 95.1654 32.7572 94.8027C32.6656 94.4485 32.5485 94.1028 32.406 93.7654C32.3856 93.7106 32.406 93.6642 32.4314 93.6305C30.8837 93.4197 29.331 93.1878 27.7782 92.9263C27.707 93.7992 27.6459 94.6678 27.5288 95.5364C27.4779 95.8822 26.8313 96.0298 26.7193 95.625C26.587 95.1105 26.4546 94.5961 26.3477 94.0817C26.307 93.8708 26.6735 93.698 26.7906 93.9257L26.811 93.9594C26.8364 93.5672 26.8619 93.1751 26.8873 92.7787C24.9578 92.4372 23.0385 92.0493 21.1447 91.6023C21.0683 91.674 20.9971 91.7541 20.9156 91.8216C20.6458 92.0324 20.3047 91.771 20.437 91.5137L20.4778 91.4336C18.9861 91.071 17.5199 90.6578 16.069 90.2108C16.0079 90.3415 15.9519 90.4764 15.8755 90.6029C15.7381 90.8264 15.3512 90.7041 15.3359 90.4807C15.3206 90.3204 15.3461 90.156 15.3512 89.9957C14.3635 89.6753 13.3809 89.3379 12.4187 88.9753C12.2151 88.9036 12.3577 88.6338 12.5664 88.6844C13.5133 88.9247 14.4551 89.1608 15.4021 89.3928C15.5446 88.503 15.8653 87.6049 16.0792 86.7616C16.2064 86.2598 17.1279 86.4706 17.0006 86.9724C16.7817 87.8242 16.6392 88.7603 16.3337 89.6205C17.8457 89.9873 19.3527 90.3499 20.8647 90.6957C21.5011 89.4518 21.9542 88.3217 21.7454 86.8375C21.6792 86.4116 22.4785 86.4158 22.5447 86.8375C22.7331 88.1235 22.56 89.6879 21.7556 90.8939C23.4713 91.2734 25.1971 91.6402 26.9382 91.9649C27.0299 90.1981 27.0502 88.4271 27.035 86.6561C26.1899 86.4453 25.3498 86.2345 24.5098 86.0236C24.5964 86.4411 24.688 86.8585 24.7797 87.276C24.8357 87.5163 24.4131 87.626 24.3317 87.3814C24.1636 86.8754 24.016 86.3694 23.8582 85.8634C23.7309 85.8297 23.6036 85.7959 23.4764 85.7664C19.4799 84.7629 15.3817 83.89 11.482 82.6377C11.1765 82.5407 11.2885 82.1696 11.6195 82.2287Z" fill="black"/>
<path d="M18.3958 94.7057C25.3551 97.2821 32.508 99.2133 40.0732 100.09C40.623 100.158 40.3888 100.849 39.8441 100.786C32.3094 99.8922 24.8511 98.0917 18.1259 95.0894C17.8205 94.9503 18.0903 94.5919 18.3958 94.7057Z" fill="black"/>
<path d="M382.045 79.0914C384.096 81.8744 385.593 84.9863 387.283 87.9253C387.436 88.1825 386.983 88.4102 386.82 88.153C385.048 85.2266 382.992 82.3171 381.597 79.2516C381.49 79.0239 381.907 78.9016 382.045 79.0914Z" fill="black"/>
<path d="M333.289 93.1202C335.559 95.1105 337.534 97.3453 339.596 99.4832C339.846 99.7404 339.413 100.111 339.153 99.85C337.056 97.7122 334.811 95.6291 332.922 93.3521C332.774 93.1708 333.11 92.96 333.289 93.1202Z" fill="black"/>
<path d="M328.946 95.8145C326.874 93.2845 324.634 90.8051 322.791 88.1571C322.633 87.9336 323.025 87.6595 323.229 87.8746C325.545 90.2823 327.531 92.9388 329.628 95.4856C329.913 95.8314 329.236 96.1603 328.946 95.8145Z" fill="black"/>
<path d="M317.527 85.5007C321.151 89.4981 324.094 94.0057 327.266 98.2646C327.53 98.6145 326.863 98.9392 326.599 98.5892C323.386 94.3557 319.802 90.1854 317.074 85.72C316.916 85.4628 317.328 85.2773 317.527 85.5007Z" fill="black"/>
<path d="M313.149 86.1584C312.97 85.9349 313.357 85.7241 313.581 85.8843C317.853 89.0215 320.958 93.6514 323.437 97.8554C323.677 98.2602 322.954 98.6187 322.709 98.2096C321.411 96.0465 319.965 93.955 318.336 91.9521C316.707 89.9534 314.788 88.1487 313.149 86.1584Z" fill="black"/>
<path d="M311.224 88.3343C313.474 92.2304 315.74 96.0001 318.993 99.4072C319.339 99.7656 318.728 100.284 318.372 99.9216C315.103 96.5314 312.191 92.6985 310.786 88.4861C310.715 88.2752 311.102 88.1234 311.224 88.3343Z" fill="black"/>
<path d="M327.943 86.3398C326.497 84.8471 324.98 83.3839 323.682 81.7985C323.514 81.5961 323.88 81.3726 324.079 81.5412C325.667 82.8948 327.078 84.4001 328.523 85.8549C328.864 86.1922 328.279 86.6814 327.943 86.3398Z" fill="black"/>
<path d="M374.149 82.296C373.762 81.6003 373.36 80.9003 372.952 80.2046C371.507 79.8124 370.056 79.4498 368.594 79.1167C369.246 80.3142 369.877 81.516 370.539 82.6671C371.013 83.4809 371.476 84.299 371.949 85.1212C373.629 85.7832 375.289 86.4916 376.923 87.238C375.992 85.5935 375.06 83.949 374.149 82.296ZM363.193 77.9993C363.641 78.8215 364.084 79.6395 364.537 80.4534C365.01 81.2967 365.479 82.14 365.952 82.9834C367.576 83.502 369.185 84.067 370.768 84.67C370.392 84.0291 370.015 83.3966 369.643 82.7557C368.88 81.4569 368.024 80.1455 367.21 78.8173C365.881 78.5263 364.542 78.2565 363.193 77.9993ZM358.071 77.1096C358.682 77.9866 359.293 78.8637 359.884 79.7534C360.286 80.3522 360.647 80.9678 361.039 81.5708C362.287 81.887 363.514 82.2328 364.741 82.5996C364.354 81.9292 363.967 81.2545 363.585 80.5799C363.05 79.6438 362.501 78.7077 361.956 77.7716C360.663 77.5397 359.37 77.3204 358.071 77.1096ZM363.743 85.8676C364.878 86.1754 366.013 86.4916 367.144 86.8079C366.482 85.6525 365.825 84.4887 365.158 83.3333C363.911 82.9243 362.663 82.5237 361.406 82.1442C362.195 83.3839 362.989 84.6152 363.743 85.8676ZM358.82 85.4079C359.492 86.4874 360.169 87.5753 360.846 88.6548C362.46 89.2535 364.048 89.9029 365.621 90.5733C364.868 89.2662 364.089 87.9674 363.29 86.6729C361.788 86.2724 360.301 85.8465 358.82 85.4079ZM373.029 88.4903C372.433 87.4825 371.843 86.479 371.247 85.4754C369.638 84.864 368.009 84.2821 366.37 83.7297C367.001 84.864 367.632 85.9941 368.264 87.1283C369.857 87.5795 371.44 88.0349 373.029 88.4903ZM379.678 89.068C379.275 88.874 378.873 88.6927 378.471 88.5072C378.776 89.0722 379.087 89.6415 379.392 90.2107C379.581 90.5607 378.965 90.8685 378.761 90.5143C378.288 89.671 377.814 88.8276 377.341 87.9885C375.717 87.2548 374.067 86.5717 372.408 85.9224C372.952 86.8711 373.497 87.8241 374.042 88.777C375.055 89.0638 376.078 89.3463 377.096 89.6246C377.509 89.7427 377.336 90.2908 376.908 90.1812C376.109 89.9619 375.289 89.7553 374.48 89.5445C374.928 90.3246 375.376 91.1089 375.824 91.8889C376.022 92.2305 375.411 92.5299 375.213 92.1883C374.643 91.2227 374.067 90.2571 373.502 89.2957C371.939 88.8951 370.376 88.503 368.813 88.1066C369.221 88.8361 369.618 89.5656 370.03 90.2908C370.249 90.683 369.552 91.0245 369.328 90.6282C368.798 89.6963 368.264 88.7644 367.729 87.8325C366.609 87.55 365.494 87.2591 364.379 86.9639C365.184 88.3216 365.988 89.6794 366.757 91.054V91.0583C368.661 91.8974 370.524 92.7871 372.367 93.7148C372.769 93.9214 372.403 94.4442 371.995 94.2461C368.594 92.5425 365.077 91.0119 361.462 89.6372C361.991 90.489 362.516 91.3408 363.05 92.1883C363.285 92.5636 362.602 92.9009 362.363 92.5214C361.655 91.4125 360.943 90.2993 360.23 89.1903C358.642 88.6168 357.028 88.0982 355.404 87.6006C355.842 88.3427 356.269 89.0849 356.702 89.827C356.936 90.2149 356.228 90.5649 355.994 90.1685C355.419 89.1945 354.834 88.2204 354.253 87.2422C352.843 86.8205 351.433 86.3904 350.028 85.9435C350.99 87.3223 351.896 88.7349 352.731 90.1348C356.834 91.3998 360.841 93.0021 364.629 94.5623C365.082 94.7478 364.685 95.3129 364.231 95.1316C360.989 93.7991 357.69 92.5805 354.319 91.501C353.999 91.3998 353.678 91.3113 353.362 91.2143C353.484 91.4293 353.617 91.6444 353.734 91.8594C353.973 92.2769 353.225 92.6522 352.98 92.2263C352.711 91.7582 352.405 91.3028 352.12 90.839C349.956 90.2149 347.777 89.6415 345.634 88.9794C346.617 90.2487 347.579 91.5305 348.536 92.8082C351.529 93.8623 354.492 94.9966 357.466 96.0508C357.919 96.2152 357.527 96.7718 357.079 96.6074C354.543 95.705 351.952 94.849 349.396 93.9509C349.575 94.1828 349.743 94.4147 349.921 94.6466C350.231 95.0557 349.452 95.4352 349.137 95.0261C348.714 94.4822 348.281 93.9382 347.854 93.3943C346.097 92.7576 344.356 92.0998 342.661 91.3745C342.396 91.2607 342.58 90.8854 342.87 90.9655C344.244 91.3619 345.604 91.7962 346.953 92.2558C345.059 89.8649 343.16 87.4657 341.561 84.9525C341.373 84.6574 341.852 84.4465 342.086 84.6995C343.14 85.8465 344.117 87.0524 345.074 88.2668C347.212 88.6295 349.34 89.1481 351.448 89.7553C350.511 88.2879 349.529 86.8374 348.449 85.4332C348.348 85.3911 348.307 85.3194 348.302 85.2435C346.627 83.0846 344.682 81.0943 342.972 78.9607C342.768 78.7035 343.221 78.4251 343.476 78.636C345.777 80.5419 347.752 82.8105 349.493 85.1971C350.888 85.4712 352.273 85.817 353.642 86.2175C352.425 84.1851 351.209 82.1527 350.002 80.1202C348.134 76.9746 345.812 73.7868 344.545 70.4346C344.458 70.2111 344.83 70.1057 344.977 70.2828C347.431 73.2218 349.076 76.7849 350.959 79.9937C352.242 82.178 353.51 84.3622 354.788 86.5464C356.417 87.0524 358.02 87.6259 359.604 88.1994C358.927 87.1494 358.255 86.091 357.578 85.0369C356.641 84.7417 355.704 84.4423 354.778 84.1261C354.508 84.0333 354.599 83.6875 354.905 83.7508C355.623 83.8942 356.335 84.0502 357.053 84.2104C356.427 83.2321 355.801 82.2497 355.175 81.2672C354.009 79.4329 352.838 77.6029 351.677 75.7644C350.577 74.0187 349.249 72.2435 348.485 70.3755C348.368 70.0762 348.862 69.9623 349.055 70.1774C350.527 71.8134 351.555 73.8079 352.69 75.6169C353.851 77.4511 354.996 79.2938 356.152 81.1365C356.855 82.2497 357.547 83.3629 358.239 84.4803C359.706 84.8218 361.162 85.1845 362.618 85.5724C361.808 84.2905 360.963 83.0255 360.123 81.7647C359.624 81.6172 359.125 81.4654 358.621 81.322C358.392 81.2587 358.484 80.9636 358.723 81.0142C359.09 81.0985 359.441 81.1871 359.802 81.2756C359.609 80.9847 359.421 80.6853 359.227 80.3985C358.423 79.2263 357.588 78.0667 356.758 76.9029C356.402 76.8481 356.04 76.7891 355.679 76.7385C355.383 76.6921 355.45 76.2747 355.75 76.3C355.959 76.3126 356.167 76.3421 356.371 76.3548C356.066 75.9247 355.77 75.4861 355.455 75.0603C354.172 73.3146 352.67 71.6068 351.672 69.7346C351.565 69.5322 351.855 69.2919 352.064 69.4816C353.617 70.8647 354.762 72.564 355.948 74.1663C356.514 74.9338 357.068 75.7054 357.613 76.4728C358.906 76.6036 360.194 76.7638 361.482 76.9535C360.332 74.9675 359.212 72.9604 358.326 70.8984C358.219 70.6454 358.677 70.4978 358.835 70.7213C360.301 72.7706 361.523 74.9506 362.719 77.1349C364.038 77.3583 365.357 77.6156 366.665 77.9023C365.856 76.5277 365.112 75.1277 364.598 73.7067C364.511 73.479 364.878 73.3778 365.026 73.5549C366.222 74.9886 367.2 76.5951 368.111 78.227C369.572 78.5643 371.018 78.9269 372.453 79.3317C371.542 77.7336 370.666 76.1186 370.035 74.4488C369.954 74.2254 370.341 74.1031 370.478 74.297C371.751 75.9921 372.754 77.8559 373.731 79.7112C375.228 80.154 376.709 80.622 378.171 81.1238C377.555 79.8251 376.964 78.5221 376.455 77.2023C376.389 77.0252 376.709 76.9156 376.811 77.0758C377.763 78.5306 378.619 80.0401 379.438 81.5623C380.294 81.8659 381.149 82.1695 381.984 82.49C382.366 82.6334 382.035 83.0972 381.658 82.9581C381.057 82.7304 380.451 82.5322 379.846 82.3171C381.169 84.8429 382.386 87.4151 383.577 89.9493C383.715 90.2318 383.139 90.4384 382.982 90.1559C381.464 87.4404 379.917 84.6658 378.537 81.8575C377.091 81.381 375.635 80.9467 374.169 80.5377C374.459 81.0943 374.755 81.6509 375.05 82.1948C376.068 84.046 377.066 85.9097 378.064 87.765C378.7 88.0644 379.336 88.3596 379.958 88.6632C380.268 88.815 379.988 89.2156 379.678 89.068Z" fill="black"/>
<path d="M339.881 77.8727C336.995 77.6492 333.981 77.5606 331.155 76.9956C330.916 76.945 330.977 76.6498 331.211 76.6456C334.093 76.6077 337.025 77.0715 339.881 77.3793C340.248 77.4173 340.263 77.9022 339.881 77.8727Z" fill="black"/>
<path d="M340.848 75.7349C338.125 75.6295 335.309 75.6675 332.611 75.3048C332.403 75.2753 332.469 75.0181 332.662 75.0055C335.371 74.8832 338.145 75.1783 340.848 75.3175C341.169 75.3344 341.174 75.7476 340.848 75.7349Z" fill="black"/>
<path d="M334.103 74.1663C333.869 74.1452 333.869 73.8922 334.103 73.8669C336.318 73.656 338.614 73.791 340.838 73.7994C341.174 73.8036 341.174 74.2337 340.838 74.2337C338.614 74.2464 336.318 74.3855 334.103 74.1663Z" fill="black"/>
<path d="M339.398 72.2266C337.315 72.3573 335.228 72.5007 333.136 72.5344C332.947 72.5429 332.963 72.3152 333.136 72.2983C335.213 72.0664 337.305 71.9441 339.398 71.805C339.718 71.7839 339.718 72.2055 339.398 72.2266Z" fill="black"/>
<path d="M325.912 75.5536C323.509 75.4397 321.004 75.4608 318.637 75.0813C318.397 75.0476 318.474 74.7651 318.687 74.7524C321.075 74.6091 323.529 74.8705 325.912 74.9886C326.349 75.0096 326.354 75.5789 325.912 75.5536Z" fill="black"/>
<path d="M327.271 99.8836C331.934 100.845 336.531 101.731 341.348 102.026C346.22 102.317 351.138 102.161 355.964 101.532C360.515 100.942 364.985 99.9385 369.277 98.547C373.456 97.1892 378.344 95.4646 379.927 91.6443L379.988 91.6654C379.102 94.9291 375.534 96.776 372.123 98.1084C367.454 99.9216 362.46 101.182 357.399 101.95C347.579 103.442 336.557 103.303 327.093 100.419C326.696 100.297 326.848 99.7951 327.271 99.8836Z" fill="black"/>
<path d="M384.045 26.0499C376.816 21.0701 368.895 17.4353 360.398 14.2011C360.057 14.0704 360.301 13.5855 360.657 13.6909C369.394 16.2293 377.504 20.6779 384.397 25.759C384.636 25.9361 384.285 26.2144 384.045 26.0499Z" fill="black"/>
<path d="M371.369 37.4096C372.316 37.7975 373.258 38.1812 374.2 38.5734C374.266 38.5987 374.291 38.6451 374.317 38.6872C374.444 38.08 374.566 37.477 374.704 36.8699C373.746 36.2922 372.759 35.7398 371.766 35.2085C371.634 35.9422 371.496 36.6717 371.369 37.4096ZM370.748 40.8799C371.593 41.2931 372.438 41.6979 373.263 42.1407C373.624 42.3262 373.288 42.8069 372.927 42.6172C372.178 42.2208 371.41 41.8666 370.641 41.4997C370.478 42.4274 370.315 43.3509 370.147 44.2785C370.885 44.6369 371.608 44.9954 372.296 45.3496C372.642 45.5309 372.326 45.9905 371.975 45.8092C371.344 45.4845 370.687 45.1893 370.035 44.8857C369.791 46.2857 369.536 47.6814 369.287 49.0813C370.274 49.5578 371.257 50.0427 372.245 50.5107C372.443 49.115 372.652 47.7277 372.871 46.3405C373.268 43.8695 373.746 41.4112 374.261 38.9571C374.169 39.0372 374.032 39.092 373.884 39.0288C373.008 38.6872 372.138 38.3457 371.262 37.9999C371.094 38.9613 370.916 39.9185 370.748 40.8799ZM364.71 47.8627C364.649 48.2717 364.588 48.6807 364.527 49.0897C365.794 49.5072 367.047 49.9626 368.284 50.4601C368.34 50.1523 368.396 49.8529 368.457 49.5451C367.194 48.997 365.947 48.4361 364.71 47.8627ZM363.885 53.5004C365.092 53.9305 366.288 54.3943 367.479 54.875C367.688 53.6732 367.907 52.4673 368.136 51.2655L367.978 51.2023C366.797 50.7469 365.606 50.3463 364.399 49.9626C364.231 51.139 364.058 52.3197 363.885 53.5004ZM363.59 55.4948C363.478 56.237 363.386 56.9791 363.29 57.7212C364.44 58.1977 365.591 58.6784 366.736 59.1507C366.925 58.0122 367.123 56.8737 367.322 55.7352C366.141 55.2671 364.954 54.7991 363.758 54.3395C363.702 54.7232 363.646 55.1111 363.59 55.4948ZM359.212 56.9411C358.932 58.0417 358.672 59.176 358.377 60.3103C359.599 60.6476 360.815 61.0229 362.007 61.4235C362.119 60.3693 362.276 59.3151 362.455 58.261C361.365 57.8351 360.286 57.3923 359.212 56.9411ZM366.13 62.9035C366.283 61.8957 366.451 60.8922 366.614 59.8886C365.474 59.4416 364.328 58.9904 363.178 58.5435C363.04 59.585 362.887 60.6265 362.679 61.6554C363.845 62.0602 364.995 62.4776 366.13 62.9035ZM366.853 63.1692C368.253 63.6878 369.643 64.2486 371.013 64.8221C371.033 63.7764 371.069 62.7306 371.125 61.6807C369.984 61.2253 368.839 60.7657 367.698 60.3103C367.515 60.2344 367.327 60.1669 367.138 60.091C366.935 61.0777 366.721 62.0602 366.507 63.0427C366.624 63.0806 366.736 63.1228 366.853 63.1692ZM371.425 57.4218C370.28 56.9327 369.129 56.4647 367.978 55.9966C367.754 57.1267 367.52 58.2525 367.291 59.3784C367.459 59.4458 367.632 59.5217 367.795 59.5892C368.92 60.0404 370.04 60.4958 371.165 60.9512C371.232 59.7747 371.318 58.5983 371.425 57.4218ZM376.791 59.1507C376.643 57.8013 376.552 56.4436 376.506 55.0858C375.233 54.4154 373.935 53.7744 372.621 53.1672C372.479 54.4238 372.357 55.6804 372.234 56.9369C373.782 57.6538 375.294 58.3917 376.791 59.1507ZM368.818 51.5438C368.599 52.7456 368.37 53.9473 368.141 55.1449C369.271 55.6129 370.392 56.0978 371.501 56.6038C371.629 55.3557 371.771 54.1076 371.929 52.8636C370.906 52.404 369.867 51.9655 368.818 51.5438ZM372.153 51.1728C371.155 50.7258 370.157 50.283 369.139 49.8445C369.083 50.1481 369.027 50.4475 368.966 50.7511C370.005 51.1812 371.023 51.6366 372.021 52.1046C372.066 51.7926 372.107 51.4806 372.153 51.1728ZM372.285 32.3074C372.148 33.0749 372.01 33.8465 371.868 34.6139C372.871 35.1705 373.853 35.7482 374.81 36.3512C375.014 35.4741 375.233 34.5971 375.447 33.72C374.408 33.2309 373.354 32.7544 372.285 32.3074ZM371.394 34.3483C371.537 33.6062 371.674 32.864 371.822 32.1177C370.901 31.7382 369.984 31.3502 369.047 31.0003C366.253 29.9587 363.172 29.2967 360.479 28.095C360.322 28.0233 360.383 27.7745 360.581 27.7914C363.442 28.0908 366.247 29.2335 368.859 30.216C369.903 30.6123 370.926 31.0382 371.939 31.4725C372.041 30.9454 372.143 30.4141 372.245 29.8871C372.285 29.6383 372.744 29.7437 372.703 29.9967C372.596 30.5533 372.499 31.1141 372.397 31.6749C373.472 32.1472 374.541 32.6363 375.589 33.1508C375.788 32.3327 375.981 31.5105 376.195 30.6924C371.394 28.5925 366.405 26.6107 361.92 24.1018C361.686 23.9711 361.884 23.7012 362.134 23.794C367.037 25.565 371.68 27.9643 376.343 30.1738C376.679 28.913 377.035 27.6522 377.402 26.3999C372.458 23.7645 367.174 21.8417 361.93 19.6701C361.737 19.5942 361.874 19.3285 362.083 19.3834C367.597 20.7411 372.759 23.2838 377.539 25.915C377.58 25.7758 377.616 25.6325 377.656 25.4975C377.728 25.2614 378.15 25.3626 378.089 25.5945C378.033 25.7758 377.992 25.9571 377.941 26.1385L378.028 26.1848C378.298 26.3282 378.089 26.6571 377.819 26.5896C377.473 27.8546 377.132 29.1238 376.806 30.3931C377.224 30.587 377.636 30.781 378.043 30.9707C378.364 31.1183 378.079 31.5231 377.758 31.3755C377.402 31.2153 377.035 31.0635 376.674 30.9033C376.465 31.7382 376.282 32.5731 376.088 33.3995C376.587 33.6483 377.086 33.8971 377.575 34.1501C377.901 34.3188 377.605 34.7447 377.28 34.576C376.847 34.3609 376.394 34.1712 375.956 33.9604C374.958 38.2571 374.098 42.575 373.421 46.9181C373.222 48.2169 373.059 49.5156 372.901 50.8186C373.202 50.9619 373.512 51.1095 373.813 51.2487C374.205 51.43 373.858 51.9318 373.461 51.7504C373.248 51.6535 373.029 51.5607 372.815 51.4637C372.774 51.78 372.733 52.0962 372.693 52.4125C374.001 53.0365 375.264 53.6817 376.501 54.331C376.297 45.8471 377.926 37.2198 380.563 29.107C380.624 28.9341 380.935 29.0058 380.884 29.1787C378.283 37.612 377.336 46.0706 377.173 54.6852C377.32 54.7654 377.473 54.8455 377.621 54.9214C378.023 55.1449 377.651 55.6804 377.239 55.4611L377.147 55.4189C377.132 56.6755 377.132 57.9321 377.142 59.1971L377.096 59.2983C378.104 59.8127 379.102 60.3313 380.095 60.85C380.451 61.044 380.12 61.5204 379.754 61.3307C377.269 60.032 374.729 58.8555 372.158 57.7465C372.056 58.9061 371.965 60.0741 371.868 61.2379C374.78 62.4144 377.692 63.595 380.604 64.7757C381.047 64.957 380.66 65.5052 380.217 65.3281C377.412 64.2022 374.612 63.0806 371.807 61.9548C371.725 62.9878 371.639 64.0167 371.552 65.0498C374.113 66.125 376.628 67.2804 379.087 68.5117C379.515 68.7267 379.123 69.2833 378.69 69.0683C376.338 67.9045 373.935 66.8166 371.491 65.7919C371.43 66.534 371.379 67.272 371.313 68.0099C371.298 68.1575 371.033 68.1617 371.028 68.0099C371.008 67.2045 371.002 66.3949 371.008 65.5853C369.592 64.9992 368.167 64.4299 366.721 63.8944C366.599 63.848 366.477 63.8101 366.354 63.7679C366.161 64.645 365.993 65.5305 365.789 66.4075C365.774 66.4961 365.591 66.475 365.606 66.3865C365.733 65.4757 365.881 64.5606 366.018 63.6499C364.858 63.2324 363.682 62.8445 362.495 62.4692C362.434 62.7348 362.383 63.0005 362.317 63.2619C362.256 63.4643 361.869 63.4222 361.879 63.2113C361.884 62.9119 361.925 62.6041 361.946 62.3005C360.678 61.9042 359.41 61.512 358.148 61.1156C357.817 62.2668 357.45 63.4053 356.931 64.451C356.849 64.6155 356.498 64.6197 356.519 64.4046C356.62 63.2282 356.905 62.0349 357.257 60.8416C356.259 60.5211 355.266 60.1964 354.279 59.8506C354.253 59.9392 354.233 60.0362 354.207 60.1247C353.851 61.5753 353.652 63.1523 352.965 64.5185C352.863 64.7209 352.456 64.7209 352.461 64.4637C352.481 63.0427 353.016 61.609 353.372 60.2259C353.764 58.6615 354.156 57.0929 354.559 55.5328C354.66 55.128 355.404 55.2966 355.302 55.7015C354.996 56.9327 354.691 58.1682 354.385 59.3995C355.429 59.5808 356.463 59.8085 357.486 60.0699C357.852 58.9314 358.25 57.7971 358.601 56.6839C357.476 56.199 356.366 55.6972 355.292 55.1491C355.068 55.0352 355.21 54.7105 355.47 54.7864C356.605 55.1364 357.72 55.5286 358.83 55.9376L358.835 55.9249C358.927 55.6003 359.527 55.7352 359.436 56.0641L359.41 56.1695C360.479 56.5743 361.538 56.996 362.597 57.4345C362.724 56.6839 362.847 55.9376 362.964 55.1997C363.015 54.8328 363.076 54.4618 363.132 54.0949C361.126 53.3233 359.11 52.56 357.084 51.7842C356.855 51.6956 357.017 51.3878 357.252 51.4468C359.278 51.9613 361.279 52.5769 363.254 53.2642C363.432 52.0962 363.61 50.9324 363.789 49.7644C361.732 49.115 359.66 48.5036 357.618 47.8079C357.287 47.6982 357.399 47.2976 357.766 47.3567C359.833 47.7024 361.89 48.2422 363.921 48.8915C363.987 48.4614 364.058 48.0271 364.119 47.5928C362.556 46.8591 361.014 46.0959 359.563 45.2526C359.324 45.1092 359.527 44.8351 359.792 44.9279C362.811 45.9905 365.723 47.3567 368.605 48.7524C368.869 47.3609 369.134 45.9736 369.404 44.5821C368.258 44.0677 367.098 43.5828 365.896 43.1527C363.962 42.4611 361.905 42.0353 359.991 41.3226C359.812 41.2552 359.899 40.9811 360.098 41.0022C363.284 41.3353 366.573 42.5876 369.516 43.9749C369.699 43.0557 369.877 42.1365 370.056 41.2172C368.696 40.5889 367.317 39.9902 365.906 39.4462C363.503 38.527 360.876 37.9493 358.535 36.9373C358.28 36.8235 358.474 36.5536 358.718 36.5789C361.223 36.8699 363.727 37.8945 366.008 38.78C367.434 39.3324 368.818 39.9522 370.178 40.5974C370.361 39.6613 370.539 38.7252 370.728 37.7891C369.114 37.1566 367.5 36.5283 365.896 35.8916C363.3 34.8585 360.372 33.9646 358.041 32.5562C357.852 32.4424 357.954 32.1683 358.204 32.2273C360.907 32.8556 363.473 34.1628 365.978 35.1874C367.607 35.8452 369.221 36.5199 370.845 37.1903C370.987 36.4355 371.135 35.685 371.277 34.9344C370.035 34.285 368.767 33.6736 367.464 33.1086C364.878 31.987 362.047 31.2786 359.487 30.1485C359.212 30.022 359.41 29.71 359.685 29.7521C362.383 30.1569 365.163 31.3966 367.561 32.4634C368.874 33.0453 370.152 33.6736 371.394 34.3483Z" fill="black"/>
<path d="M376.485 72.6736C377.015 72.8422 376.786 73.5548 376.251 73.3862C369.338 71.2399 362.307 69.2538 355.526 66.8166C355.21 66.7028 355.434 66.2642 355.76 66.3528C362.765 68.1997 369.613 70.5357 376.485 72.6736Z" fill="black"/>
<path d="M54.6383 15.5379C54.8369 17.2456 54.9845 19.1136 54.6434 20.8045C54.6027 21.0027 54.1954 21.0027 54.1547 20.8045C53.8085 19.1094 53.9612 17.2456 54.1598 15.5379C54.1852 15.2849 54.6078 15.2849 54.6383 15.5379Z" fill="black"/>
<path d="M52.2609 20.796C51.8587 19.9232 52.0776 18.8985 52.1132 17.9751C52.154 16.8956 52.2049 15.8119 52.2965 14.7367C52.3067 14.5512 52.6325 14.5512 52.6529 14.7367C52.7394 15.8119 52.7852 16.8956 52.8311 17.9751C52.8718 18.907 53.0907 19.9147 52.6834 20.796C52.6071 20.9689 52.3423 20.9689 52.2609 20.796Z" fill="black"/>
<path d="M49.364 19.9949C49.0128 19.1558 49.1604 18.2365 49.1859 17.3553C49.2113 16.3517 49.247 15.3439 49.2673 14.3361C49.2724 13.9988 49.8935 13.9988 49.9037 14.3361C49.9241 15.3439 49.9597 16.3517 49.9851 17.3553C50.0055 18.2408 50.1531 19.1473 49.8019 19.9949C49.7306 20.1762 49.4353 20.1762 49.364 19.9949Z" fill="black"/>
<path d="M47.5008 21.6015C47.4346 21.7702 47.1138 21.7997 47.0629 21.6015C46.8135 20.6275 47.0222 19.5859 47.1087 18.595C47.2055 17.4439 47.3124 16.2927 47.4193 15.1458C47.4448 14.8043 48.076 14.8 48.0557 15.1458C47.9946 16.2927 47.9437 17.4481 47.8775 18.595C47.8215 19.5944 47.8877 20.6528 47.5008 21.6015Z" fill="black"/>
<path d="M10.9067 43.5785C10.922 57.308 11.4463 71.1133 10.7896 84.8343C10.7794 85.0494 10.3976 85.0494 10.3874 84.8343C9.73577 71.1133 10.255 57.308 10.2703 43.5785C10.2703 43.237 10.9067 43.237 10.9067 43.5785Z" fill="black"/>
<path d="M348.739 62.8993C348.633 63.0511 348.302 62.9962 348.322 62.8023C348.5 60.6307 349.798 58.379 350.587 56.3128C350.73 55.9207 351.463 56.0851 351.321 56.4773C350.547 58.5519 350.078 61.0228 348.739 62.8993Z" fill="black"/>
<path d="M344.473 64.4047C344.626 62.8825 345.283 61.3898 345.772 59.9182C345.899 59.5218 346.632 59.6863 346.5 60.0826C346.026 61.5627 345.68 63.1186 344.881 64.4975C344.789 64.6577 344.458 64.5818 344.473 64.4047Z" fill="black"/>
<path d="M340.935 65.345C340.813 65.4125 340.65 65.324 340.65 65.2101C340.645 64.5312 341.139 63.8987 341.327 63.2409C341.587 62.3301 341.602 61.4109 341.414 60.4874C341.332 60.0658 342.106 59.8845 342.193 60.3103C342.386 61.2464 342.406 62.1783 342.193 63.1186C342.019 63.8776 341.77 64.8981 340.935 65.345Z" fill="black"/>
<path d="M336.873 63.6162C336.776 62.9626 337.117 62.1952 337.275 61.55C337.341 61.2633 337.87 61.3856 337.799 61.6723C337.641 62.3132 337.601 63.1186 337.203 63.6879C337.107 63.827 336.893 63.7511 336.873 63.6162Z" fill="black"/>
<path d="M332.036 64.8265C332.051 63.5994 332.565 62.3302 332.876 61.1369C332.978 60.7616 333.67 60.9219 333.568 61.2971C333.258 62.4862 333.085 63.8103 332.489 64.9235C332.387 65.1174 332.036 65.012 332.036 64.8265Z" fill="black"/>
<path d="M66.1847 93.6471C66.2102 95.085 66.4597 96.6789 66.1644 98.1042C66.1287 98.277 65.7775 98.277 65.7367 98.1042C65.4466 96.6789 65.6909 95.085 65.7164 93.6471C65.7215 93.3941 66.1797 93.3941 66.1847 93.6471Z" fill="black"/>
<path d="M62.3513 96.0465C62.3615 96.8224 62.5499 97.7501 62.3055 98.4964C62.2495 98.6693 61.9542 98.6693 61.8982 98.4964C61.6538 97.7501 61.8422 96.8224 61.8524 96.0465C61.8626 95.7809 62.3411 95.7809 62.3513 96.0465Z" fill="black"/>
<path d="M59.9737 94.5118C59.6835 96.0509 59.6377 97.8514 58.986 99.3103C58.8842 99.538 58.4769 99.5085 58.4668 99.2555C58.4159 97.6785 59.0828 95.937 59.4086 94.3811C59.4748 94.069 60.0297 94.204 59.9737 94.5118Z" fill="black"/>
<path d="M54.5162 92.045C54.5213 91.6613 55.2341 91.6571 55.2391 92.045C55.2442 93.1961 55.2544 94.3431 55.2595 95.4942C55.2646 96.4893 55.4173 97.5351 55.1068 98.5049C55.0457 98.6904 54.7097 98.6904 54.6537 98.5049C54.3482 97.5435 54.4908 96.4851 54.4959 95.4942C54.506 94.3431 54.5111 93.1961 54.5162 92.045Z" fill="black"/>
<path d="M51.3852 88.0391C51.4005 90.9317 51.818 94.0563 51.2987 96.911C51.258 97.1345 50.7947 97.1345 50.754 96.911C50.2347 94.0563 50.6572 90.9317 50.6674 88.0391C50.6725 87.6512 51.3852 87.6512 51.3852 88.0391Z" fill="black"/>
<path d="M47.1597 87.2336C47.2513 89.0004 47.3429 90.7672 47.4346 92.534C47.5109 94.0983 47.8113 95.7555 47.4957 97.303C47.4549 97.5054 47.0782 97.4843 47.0222 97.303C46.5742 95.7892 46.7218 94.0899 46.6607 92.534C46.5946 90.7672 46.5284 89.0004 46.4622 87.2336C46.4469 86.8583 47.1393 86.8583 47.1597 87.2336Z" fill="black"/>
<path d="M43.4026 85.6271C43.54 89.3336 44.1204 93.2424 43.7182 96.932C43.6877 97.223 43.2244 97.244 43.1429 96.9953L43.1226 96.9995L43.1124 96.9404V96.9236C42.4811 93.2509 42.7815 89.3378 42.6746 85.6271C42.6695 85.2434 43.3873 85.2434 43.4026 85.6271Z" fill="black"/>
<path d="M37.6141 84.4212C37.7719 86.2259 37.9399 88.0264 38.1028 89.8311C38.2658 91.5979 38.6578 93.4743 38.4338 95.2411C38.4083 95.4562 38.0163 95.5405 37.9399 95.2959C37.4359 93.6346 37.4817 91.8214 37.3443 90.1137C37.1814 88.2162 37.0236 86.3187 36.8657 84.4212C36.8352 84.0248 37.5734 84.0248 37.6141 84.4212Z" fill="black"/>
<path d="M12.0322 89.7005C11.9407 89.7005 11.9407 89.5782 12.0322 89.5782C12.1236 89.5782 12.1236 89.7005 12.0322 89.7005Z" fill="black"/>
<path d="M79.4262 98.0031C103.344 97.4634 127.226 96.1857 150.975 93.778C174.796 91.3661 198.438 87.8368 221.811 83.3291C234.992 80.7907 248.004 77.78 261.098 74.9549C261.261 74.9169 261.332 75.1277 261.169 75.1741C249.796 78.3535 238.107 80.8751 226.444 83.2195C214.765 85.564 203.005 87.6344 191.184 89.4349C167.734 92.9979 144.056 95.587 120.281 97.0502C106.678 97.885 93.065 98.3868 79.4262 98.4163C79.1055 98.4163 79.1055 98.0116 79.4262 98.0031Z" fill="black"/>
<path d="M251.731 10.0774C212.474 22.2635 171.395 30.7264 130.077 36.402C118.546 37.9874 106.887 39.5982 95.2237 40.3572C94.8826 40.3825 94.7961 39.8976 95.1423 39.8512C105.564 38.5272 116.046 37.5573 126.452 36.1701C136.756 34.7954 147.014 33.2353 157.232 31.4896C177.672 27.994 197.924 23.7478 217.927 18.8227C229.249 16.0397 240.48 13.0206 251.68 9.90871C251.807 9.87497 251.858 10.0394 251.731 10.0774Z" fill="black"/>
<path d="M33.5464 12.0886C28.0583 12.2193 22.3156 11.9579 17.301 14.1421C12.7089 16.1492 10.1024 19.7924 10.5504 24.0723C10.586 24.4181 9.95981 24.4603 9.84781 24.1482C8.39178 20.2267 11.8944 16.1113 15.677 14.062C20.8087 11.2832 27.6866 11.3718 33.5464 11.8314C33.7398 11.8482 33.7449 12.0844 33.5464 12.0886Z" fill="black"/>
</svg>
