<svg width="463" height="403" viewBox="0 0 463 403" fill="none" xmlns="http://www.w3.org/2000/svg">
<path d="M109.656 269.737C96.1405 271.877 83.617 270.878 74.398 266.924C70.4399 265.228 61.4171 260.666 63.0629 255.013C62.94 252.115 62.9312 249.22 62.9241 246.418C62.9194 244.266 62.9163 242.041 62.8532 239.85L62.8185 238.529C62.7754 236.382 62.7255 234.165 62.299 232.079C62.2252 231.723 62.1305 231.373 62.0413 231.03C61.6917 229.733 61.3661 228.504 62.2528 227.155C63.0097 226.008 64.436 225.143 65.9651 224.901C66.1014 224.88 66.2431 224.864 66.381 224.853L66.3729 224.443L60.8976 224.636C60.3718 222.447 59.5935 220.262 58.839 218.145C58.6135 217.521 58.3923 216.896 58.1759 216.274L57.5223 214.408C56.9726 212.839 56.4266 211.266 55.9056 209.686C54.001 203.863 63.1176 196.695 70.1431 191.817C77.3648 186.799 86.2962 182.597 96.6902 179.331C103.894 177.064 111.766 175.248 120.102 173.927C131.266 172.159 143.658 171.199 157.977 170.991C177.376 170.714 196.859 172.259 215.692 173.76C238.115 175.539 261.304 177.385 284.495 176.154C296.264 175.531 306.64 174.692 316.211 173.587L316.502 173.552L316.427 173.322C315.904 171.735 315.683 170.031 315.479 168.386C315.313 167.092 315.14 165.749 314.822 164.458C314.223 162.053 313.285 159.742 312.381 157.508L311.821 156.125C311.109 155.405 310.703 154.69 310.538 153.872C310.158 152.02 311.438 150.148 314.347 148.313C321.008 144.105 330.239 142.236 337.539 141.079C338.625 140.907 339.696 140.749 340.742 140.597C348.911 139.408 361.002 138.095 371.646 140.374C378.173 141.775 384.099 145.698 382.621 151.31C383.439 154.712 383.922 158.17 384.391 161.519C384.56 162.722 384.728 163.922 384.913 165.115C386.901 178.084 388.439 185.837 389.567 191.141C389.932 192.865 390.421 194.627 390.899 196.326C391.634 198.954 392.392 201.669 392.713 204.356L392.722 204.416L392.769 204.463C392.908 204.596 392.925 204.759 392.82 204.949C392.777 205.122 392.733 205.201 392.654 205.256C386.588 215.527 372.16 220.669 361.837 223.642C353.971 225.916 345.482 227.758 335.877 229.279C328.781 230.403 321.103 231.352 311.703 232.267C294.181 233.975 275.535 234.952 253.023 235.343L252.061 235.362C232.366 235.697 217.307 235.73 203.237 235.47C194.619 235.309 186.648 235.042 178.871 234.651C174.809 234.45 170.736 234.208 166.767 233.932C165.584 233.848 164.342 233.699 163.145 233.557C161.026 233.301 158.836 233.038 156.747 233.106C156.347 232.126 155.859 231.165 155.379 230.235C155.011 229.51 154.643 228.782 154.308 228.045L153.853 228.208C154.09 228.736 153.924 230.144 153.798 231.275C153.737 231.772 153.69 232.219 153.674 232.564C150.668 232.139 147.795 232.359 144.754 232.588C143.994 232.647 143.226 232.704 142.448 232.755C142.162 232.768 141.398 232.849 140.375 232.954C137.737 233.22 130.733 233.936 130.146 233.618L129.733 233.849C130.034 234.372 130.205 235.012 130.363 235.625C130.502 236.144 130.639 236.678 130.861 237.141L131.024 237.454C131.738 238.657 132.515 239.919 133.449 241.077C133.982 241.739 134.68 242.343 135.362 242.927C136.273 243.717 137.215 244.535 137.735 245.477C139.462 248.608 139.383 252.383 137.527 256.099C135.184 260.774 129.851 264.428 121.673 266.961C117.857 268.146 113.813 269.078 109.66 269.736L109.656 269.737Z" fill="#F6E3BA"/>
<path d="M103.809 186.453C102.613 188.413 107.973 210.122 114.395 219.381C114.395 219.381 158.879 216.104 232.256 220.587C305.634 225.067 356.23 216.025 356.472 214.963C356.713 213.893 382.982 194.659 368.171 168.911C336.966 175.224 265.195 183.507 188.445 173.39C139.441 171.561 109.388 177.349 103.809 186.453Z" fill="#F6E9CD"/>
<path d="M241.985 227.068C237.079 227.246 232.177 227.42 227.27 227.588C209.279 228.208 191.076 229.288 173.204 228.259C154.957 227.21 136.285 229.042 118.18 227.073C116.346 226.877 115.906 224.955 117.081 224.044C136.418 223.463 171.288 223.192 217.736 226.028C226.13 226.542 234.23 226.875 241.985 227.068Z" fill="#F9ECD1"/>
<path d="M329.537 221.666C326.412 221.728 323.301 221.633 320.154 221.969C320.119 221.971 320.085 221.977 320.051 221.982C319.212 222.115 318.738 222.731 318.684 223.36C306.315 224.825 293.559 224.973 281.503 225.491C268.328 226.059 255.155 226.583 241.985 227.068C234.23 226.875 226.13 226.542 217.736 226.028C171.288 223.192 136.418 223.463 117.08 224.044C117.349 223.836 117.699 223.679 118.142 223.609C118.159 223.606 118.177 223.604 118.194 223.601C136.457 221.033 154.93 222.104 173.243 220.127C181.103 219.275 189.001 218.803 196.896 218.479C190.824 218.323 184.756 218.137 178.693 217.896C167.348 217.446 153.368 217.81 143.419 213.301C141.867 212.598 142.296 210.265 143.962 209.727C145.562 209.217 147.16 208.856 148.761 208.603C152.825 207.959 156.93 207.99 161.144 207.886C167.946 207.717 174.741 207.889 181.517 208.053C182.657 208.078 183.8 208.103 184.94 208.131C182.337 207.739 179.738 207.321 177.138 206.925C172.49 206.222 167.368 205.912 163.137 204.234C160.882 203.339 160.73 200.005 163.639 199.545C163.72 199.532 163.806 199.522 163.887 199.512C165.586 199.348 167.321 199.279 169.077 199.282C165.862 198.608 162.726 197.777 159.771 196.68C158.013 196.028 157.734 193.63 159.406 192.806C156.181 192.596 152.951 192.379 149.727 192.146C142.603 191.637 133.957 191.661 127.872 188.473C126.558 187.78 126.906 185.957 128.335 185.414C129.995 184.783 131.765 184.351 133.596 184.061C139.33 183.153 145.682 183.618 151.135 183.642C159.446 183.682 167.771 183.673 176.083 183.774C192.283 183.974 208.459 184.438 224.66 184.617C241.254 184.799 257.86 184.831 274.476 184.713C290.813 184.592 308.077 183.294 324.073 185.568C328.495 186.195 328.716 191.426 324.046 192.317C322.926 192.527 321.805 192.726 320.677 192.905C309.023 194.751 296.854 194.835 284.955 194.826C285.335 195.96 284.84 197.268 283.116 198.017C279.867 199.423 276.217 200.362 272.418 201.021C275.174 201.079 277.873 201.279 280.439 201.713C283.491 202.232 284.977 206.076 281.331 207.343C279.411 208.011 277.398 208.535 275.334 208.956C276.756 208.944 278.179 208.942 279.6 208.93C285.466 208.859 291.952 208.128 297.344 210.029C299.463 210.779 300.431 212.732 299.991 214.476C312.096 213.904 324.32 213.706 335.762 215.512C337.934 215.857 338.598 217.508 337.842 218.8C337.486 218.871 337.125 218.935 336.765 219.003C335.76 219.191 335.07 219.798 334.736 220.504C333.023 220.93 331.285 221.317 329.537 221.666Z" fill="#F9F0DE"/>
<path d="M383.565 205.152C383.143 205.219 382.709 205.205 382.294 205.097C382.004 201.252 380.918 197.294 380.465 194.292C379.256 186.303 377.785 178.363 376.632 170.369C376.511 169.548 376.046 169.008 375.423 168.717C375.574 167.572 375.74 166.416 375.922 165.251C376.05 164.434 376.794 163.945 377.594 163.818C378.591 163.66 379.681 164.061 379.793 165.075C380.533 171.623 381.754 178.254 383.083 184.713C384.296 190.584 387.343 197.055 385.936 203.139C385.678 204.241 384.676 204.976 383.565 205.152Z" fill="#F9ECD1"/>
<path d="M376.289 160.814C374.441 161.107 372.52 160.697 371.197 159.237C367.449 155.087 362.848 152.007 357.61 150.362C357.25 150.156 356.89 149.953 356.534 149.746C355.472 149.132 354.316 148.972 353.234 149.144C353.042 149.174 352.848 149.216 352.66 149.267C349.73 148.88 346.644 148.914 343.441 149.422C341.588 149.715 339.695 150.17 337.763 150.79C337.551 150.856 337.345 150.907 337.136 150.94C334.006 151.435 331.415 148.149 334.449 146.211C338.858 143.399 343.797 141.61 348.819 140.815C361.759 138.765 375.198 143.313 381.259 153.82C383.141 157.074 379.859 160.249 376.289 160.814Z" fill="#F9ECD1"/>
<path d="M65.4999 224.996C65.4592 224.822 65.4143 224.649 65.37 224.48L66.3729 224.443L66.381 224.853C66.2431 224.864 66.1014 224.879 65.9651 224.901C65.8075 224.926 65.6553 224.957 65.4999 224.996Z" fill="#A4A7AA"/>
<path d="M69.781 244.914C69.0584 244.624 68.483 244.052 68.3005 243.175C67.09 237.297 66.8832 231.277 65.5943 225.4C65.5641 225.264 65.5344 225.132 65.4999 224.996C65.6552 224.957 65.8075 224.926 65.9651 224.901C66.1014 224.879 66.243 224.864 66.381 224.853L66.3729 224.443L65.37 224.48C64.0724 219.65 61.0913 214.639 61.509 209.668C61.56 209.108 62.0916 208.742 62.6794 208.649C63.0371 208.593 63.4202 208.64 63.7177 208.81C65.5321 209.817 66.962 211.264 68.1168 212.932C67.9069 220.813 68.0025 228.723 69.2804 236.405C69.5007 237.741 70.0022 238.895 70.7094 239.887C70.3743 241.602 69.9178 243.269 69.781 244.914Z" fill="#F9ECD1"/>
<path d="M102.628 265.811C100.955 266.076 99.328 266.254 97.8106 266.35C88.8953 266.933 77.469 265.363 72.6162 258.68C72.5727 258.625 72.5371 258.566 72.502 258.51C72.6539 258.504 72.8126 258.486 72.9787 258.46C72.9787 258.46 72.983 258.459 72.9873 258.458C76.9991 257.819 80.6861 256.316 84.5114 255.133C88.5585 255.985 92.6149 256.702 97.0506 256.397C97.8412 256.343 98.6166 256.25 99.379 256.129C103.579 255.464 107.409 253.901 111.352 252.66C110.815 252.579 110.283 252.469 109.763 252.302C109.16 252.109 108.693 251.862 108.233 251.52C107.793 251.279 107.465 250.971 107.238 250.585C107.072 250.34 106.983 250.217 106.975 250.219C106.966 250.22 107.034 250.343 107.186 250.586C107.153 250.548 106.728 250.095 106.668 250.018C106.445 249.772 106.263 249.505 106.126 249.213C105.965 248.752 105.885 248.519 105.893 248.518C105.893 248.518 105.901 248.538 105.921 248.582C105.415 247.126 106.602 245.715 108.233 245.457C108.565 245.404 108.918 245.395 109.276 245.45C109.553 245.439 109.833 245.438 110.03 245.446C110.139 245.415 110.202 245.397 110.21 245.396C110.219 245.395 110.169 245.413 110.048 245.447L110.079 245.449C110.419 245.363 110.843 245.256 110.89 245.249C111.009 245.226 111.093 245.209 111.161 245.198C111.305 245.143 111.445 245.085 111.461 245.079C111.93 244.896 112.432 244.756 112.934 244.676C113.543 244.58 114.162 244.568 114.758 244.665C115.847 244.842 116.805 245.159 117.524 245.756C117.187 245.835 116.838 245.919 116.48 246.001C113.949 246.564 112.884 249.871 115.749 250.567C115.881 250.601 116.007 250.649 116.131 250.691C115.643 251.277 115.211 251.908 114.885 252.609C113.766 255.026 116.242 256.765 118.64 256.386C119.441 256.259 120.23 255.896 120.874 255.246C120.773 255.352 120.735 255.39 120.744 255.389C120.778 255.383 121.247 254.981 121.468 254.892C121.555 254.86 121.651 254.83 121.747 254.801C121.711 254.907 121.672 255.018 121.628 255.126C119.028 261.453 110.355 264.587 102.628 265.811Z" fill="#F9ECD1"/>
<path d="M72.5021 258.51C69.6764 258.644 67.9586 255.875 69.6886 253.841C70.0133 253.465 70.3774 253.09 70.7602 252.723C70.466 251.803 70.7009 250.694 71.4856 249.942C70.964 249.736 70.5225 249.402 70.3247 248.925C69.7728 247.591 69.6709 246.259 69.781 244.914C70.3304 245.13 70.9683 245.187 71.5859 245.09C72.7658 244.903 73.8831 244.156 74.1965 242.909C75.836 236.499 74.777 229.951 72.7798 223.847C71.6718 220.462 70.4291 216.255 68.1168 212.932C68.214 209.327 68.3779 205.731 68.5238 202.158C66.8584 202.422 65.1595 202.558 63.3435 202.477C59.9142 202.328 60.3077 198.334 63.3674 197.666C66.6031 196.951 69.6453 196.228 72.2152 194.259C72.8578 193.767 73.5424 193.486 74.2282 193.377C76.426 193.029 78.5929 194.443 79.1179 196.296C79.2151 196.634 79.3123 196.972 79.4138 197.31C79.4853 196.714 80.0276 196.361 80.6154 196.268C81.3566 196.151 82.1757 196.443 82.2405 197.183C82.8856 204.619 83.9033 213.526 88.679 219.778C92.841 225.214 98.9413 226.293 105.31 229.122C106.165 229.506 106.524 230.2 106.515 230.94C107.925 231.601 107.818 233.847 106.124 234.342C104.567 234.798 102.959 235.147 101.31 235.408C99.3128 235.724 97.2642 235.912 95.1999 236C95.8844 237.097 95.8399 238.608 94.8877 239.57C94.7935 239.665 94.6933 239.749 94.5985 239.84C95.5347 239.63 96.4724 239.431 97.4076 239.243C97.4838 239.228 97.5599 239.212 97.6365 239.2C98.9357 238.994 100.079 239.296 101.028 239.856C101.162 239.54 101.391 239.226 101.749 238.945C102.168 238.616 102.641 238.292 103.131 237.972C103.129 236.829 103.927 235.664 105.677 235.383C107.371 235.108 109.126 234.776 110.892 234.482C112.231 234.086 113.599 233.768 114.967 233.551C118.843 232.938 122.671 233.15 125.487 234.724C127.346 235.764 126.224 237.915 124.324 238.407C123.888 238.519 123.448 238.607 123 238.678C120.176 239.125 117.234 238.826 114.373 239.233C114.241 239.25 114.109 239.271 113.981 239.291C110.501 239.842 107.376 241.037 104.085 242.171C103.911 242.231 103.738 242.273 103.572 242.299C103.517 242.308 103.461 242.313 103.409 242.318C104.599 244.236 104.907 246.041 104.605 248.379C104.439 249.65 103.136 250.657 101.701 250.884C101.147 250.972 100.575 250.94 100.045 250.764C99.6813 250.649 99.3516 250.524 99.0298 250.395C95.3352 252.816 91.5109 253.288 87.0765 254.402C86.2119 254.622 85.356 254.869 84.5114 255.133C81.7421 254.547 78.9767 253.903 76.0971 253.475C75.6318 253.405 75.2007 253.412 74.8131 253.473C72.283 253.874 71.4068 256.75 72.5021 258.51ZM76.9309 243.853C76.8156 244.752 76.641 245.634 76.3549 246.502C77.6412 245.746 78.9619 245.043 80.3295 244.415C79.1553 244.334 78.0112 244.14 76.9309 243.853ZM87.4968 229.736C87.3393 230.01 87.1289 230.253 86.8686 230.456C86.9927 230.606 87.1217 230.759 87.2501 230.908C87.7453 230.837 88.2454 230.768 88.7502 230.703C88.3211 230.392 87.8994 230.073 87.4968 229.736Z" fill="#E0C591"/>
<path d="M71.5859 245.09C70.9682 245.187 70.3304 245.13 69.7809 244.914C69.9178 243.269 70.3742 241.602 70.7094 239.887C70.0022 238.895 69.5006 237.741 69.2803 236.405C68.0025 228.723 67.9068 220.813 68.1168 212.932C70.429 216.255 71.6717 220.462 72.7797 223.847C74.7769 229.951 75.8359 236.499 74.1964 242.909C73.8831 244.156 72.7657 244.903 71.5859 245.09Z" fill="#E3CDA3"/>
<path d="M72.9788 258.46C72.8126 258.486 72.6539 258.504 72.5021 258.51C71.4068 256.75 72.283 253.874 74.8131 253.473C75.2007 253.412 75.6318 253.405 76.0971 253.475C78.9767 253.903 81.7421 254.547 84.5114 255.133C80.6862 256.316 76.9991 257.819 72.9873 258.458C72.983 258.459 72.9788 258.46 72.9788 258.46Z" fill="#E3CDA3"/>
<path d="M128.891 258.116C127.115 258.398 125.236 257.84 124.308 256.115C123.937 255.428 123.495 254.921 122.578 254.705C122.519 254.686 122.501 254.685 122.464 254.673C122.439 254.68 122.409 254.685 122.38 254.69C122.179 254.721 121.897 254.755 122.036 254.701C121.946 254.737 121.846 254.767 121.747 254.801C122.356 252.695 120.513 250.79 117.822 251.137C117.745 251.149 117.668 251.162 117.596 251.173C117.545 251.181 117.494 251.189 117.443 251.197C117.387 251.206 117.336 251.214 117.281 251.223C117.251 251.228 117.221 251.232 117.191 251.237C117.391 251.065 117.596 250.895 117.778 250.693C118.796 249.569 119.003 248.036 118.372 246.809C118.152 246.385 117.866 246.041 117.524 245.756C118.038 245.635 118.535 245.524 119.042 245.444C119.745 245.332 120.466 245.283 121.273 245.357C122.814 245.499 124.334 245.828 125.734 246.342C127.337 246.929 128.886 247.722 129.979 248.75C131.676 249.982 132.814 251.764 132.993 253.719C133.213 256.072 131.136 257.761 128.891 258.116Z" fill="#E0C591"/>
<path d="M118.64 256.386C116.242 256.766 113.766 255.026 114.885 252.609C115.211 251.908 115.643 251.277 116.131 250.691C116.007 250.649 115.881 250.601 115.749 250.568C112.884 249.871 113.949 246.564 116.48 246.001C116.838 245.919 117.187 245.835 117.524 245.756C117.866 246.041 118.152 246.385 118.372 246.809C119.003 248.036 118.796 249.569 117.778 250.693C117.596 250.895 117.391 251.065 117.191 251.237C117.221 251.232 117.251 251.228 117.281 251.223C117.336 251.214 117.387 251.206 117.443 251.197C117.494 251.189 117.545 251.181 117.596 251.173C117.668 251.162 117.745 251.15 117.822 251.137C120.513 250.79 122.356 252.695 121.747 254.801C121.651 254.83 121.555 254.86 121.468 254.892C121.247 254.981 120.778 255.383 120.744 255.389C120.735 255.39 120.773 255.352 120.874 255.246C120.23 255.896 119.441 256.259 118.64 256.386Z" fill="#E3CDA3"/>
<path d="M337.175 226.916C330.629 227.953 324.083 227.533 319.318 224.601C319.129 224.487 318.984 224.341 318.879 224.177C324.647 223.541 329.429 222.888 333.118 222.304C338.813 221.402 341.891 220.662 341.951 220.403C341.999 220.183 343.167 219.179 344.854 217.505C345.885 217.313 346.915 217.121 347.941 216.93C349.171 216.259 350.356 215.523 351.492 214.726C355.991 211.572 359.358 207.497 361.523 202.999C363.325 199.269 363.928 195.191 365.955 191.559C366.09 191.31 366.286 191.113 366.498 190.935C366.495 190.777 366.491 190.615 366.489 190.461C366.301 184.481 364.829 176.455 368.853 171.038C369.127 170.674 369.573 170.455 370.054 170.379C370.369 170.329 370.694 170.339 370.997 170.407C371.35 169.355 372.431 168.679 373.559 168.5C374.211 168.397 374.876 168.461 375.423 168.717C374.682 174.515 374.439 180.119 375.024 185.989C375.633 192.125 376.115 199.797 381.1 204.45C381.448 204.773 381.857 204.986 382.294 205.097C382.46 207.354 382.349 209.576 381.669 211.545C382.604 212.432 382.586 214 381.33 214.917C375.637 219.057 367.297 220.209 360.262 221.471C359.399 221.622 358.541 221.769 357.68 221.905C355.304 222.281 352.946 222.586 350.587 222.827C346.558 224.68 341.869 226.173 337.175 226.916ZM367.745 208.011C366.433 210.041 364.872 211.983 363.189 213.761C365.219 213.238 367.267 212.686 369.32 212.195C368.636 210.911 368.129 209.502 367.745 208.011Z" fill="#E0C591"/>
<path d="M333.118 222.304C329.429 222.888 324.647 223.541 318.879 224.177C318.726 223.927 318.663 223.641 318.684 223.36C320.677 223.124 322.66 222.853 324.628 222.541C326.276 222.28 327.912 221.992 329.537 221.666C331.191 221.632 332.842 221.554 334.511 221.34C334.532 221.059 334.609 220.773 334.736 220.504C335.072 220.418 335.408 220.333 335.743 220.243C336.771 219.98 337.474 219.432 337.842 218.8C340.179 218.368 342.517 217.937 344.854 217.505C343.167 219.179 341.999 220.183 341.951 220.403C341.891 220.662 338.813 221.402 333.118 222.304Z" fill="#E0CAA0"/>
<path d="M324.628 222.541C322.66 222.853 320.677 223.124 318.684 223.36C318.738 222.731 319.212 222.115 320.051 221.982C320.085 221.977 320.119 221.971 320.154 221.969C323.301 221.633 326.412 221.728 329.537 221.666C327.912 221.992 326.277 222.28 324.628 222.541ZM334.737 220.504C335.07 219.798 335.76 219.191 336.765 219.003C337.125 218.935 337.486 218.871 337.842 218.8C337.475 219.432 336.771 219.98 335.743 220.243C335.408 220.333 335.072 220.418 334.737 220.504Z" fill="#E3D0AD"/>
<path d="M382.294 205.097C381.857 204.986 381.448 204.773 381.1 204.45C376.115 199.797 375.633 192.125 375.024 185.989C374.439 180.119 374.682 174.515 375.423 168.717C376.046 169.008 376.511 169.548 376.632 170.369C377.785 178.363 379.256 186.303 380.465 194.292C380.919 197.294 382.004 201.252 382.294 205.097Z" fill="#E3CDA3"/>
<path d="M326.023 171.968C323.953 172.296 321.711 171.54 321.444 169.357C321.193 167.304 321.142 165.188 321.132 163.112C321.118 161.318 321.089 159.476 322.412 157.932C322.721 157.573 323.196 157.342 323.69 157.264C324.188 157.185 324.711 157.258 325.116 157.504C326.852 158.563 327.393 160.324 327.934 162.035C328.566 164.012 329.171 166.041 329.563 168.071C329.987 170.229 328.089 171.641 326.023 171.968Z" fill="#E0C591"/>
<path d="M329.093 156.946C325.609 157.498 322.001 156.583 318.907 155.1C315.707 153.565 317.83 149.709 320.922 149.219C321.514 149.125 322.143 149.155 322.776 149.347C326.402 150.461 330.155 151.111 333.476 152.724C334.503 153.229 334.488 154.731 333.484 155.341C332.079 156.199 330.596 156.708 329.093 156.946Z" fill="#E0C591"/>
<path d="M355.423 164.563C353.306 164.898 351.101 164.32 350.4 162.404C349.373 159.613 349.332 156.626 349.103 153.69C348.943 151.631 350.584 149.838 352.66 149.267C354.363 149.492 356.015 149.861 357.61 150.362C359.909 151.675 362.241 153.084 363.374 155.271C363.949 156.37 363.637 157.787 362.782 158.867C362.808 159.17 362.806 159.487 362.745 159.818C362.484 161.208 361.28 162.07 359.9 162.288C359.751 162.312 359.597 162.329 359.445 162.335C358.651 163.496 357.063 164.303 355.423 164.563Z" fill="#E0C591"/>
<path d="M357.61 150.362C356.015 149.861 354.363 149.492 352.66 149.267C352.848 149.216 353.042 149.174 353.234 149.144C354.316 148.972 355.472 149.132 356.534 149.746C356.89 149.953 357.25 150.156 357.61 150.362Z" fill="#E3CDA3"/>
<path d="M346.098 168.402C341.28 169.165 342.024 162.505 341.932 160.103C341.874 158.467 342.951 156.89 345.051 156.557C346.853 156.272 349.047 157.335 349.109 158.966C349.203 161.544 350.613 167.687 346.098 168.402Z" fill="#E0C591"/>
<path d="M357.76 172.207C354.122 172.783 350.364 172.985 346.867 173.262C344.409 173.456 343.978 170.704 346.371 170.127C349.782 169.308 353.419 168.343 357.057 167.767C359.599 167.364 362.142 167.152 364.605 167.318C366.445 167.441 366.789 169.616 365.077 170.298C362.786 171.22 360.303 171.805 357.76 172.207Z" fill="#E0C591"/>
<path d="M320.295 166.015C320.381 166.78 320.438 167.579 320.52 168.378C319.89 168.34 319.26 168.274 318.634 168.186C318.514 167.729 318.399 167.278 318.307 166.838C318.235 166.518 318.162 166.194 318.093 165.873C318.826 165.923 319.558 165.969 320.295 166.015ZM322.767 169.028C322.933 169.824 323.075 170.667 323.311 171.467C322.768 171.455 322.227 171.458 321.682 171.465C321.694 170.662 321.59 169.839 321.434 169.016C321.878 169.036 322.323 169.037 322.767 169.028ZM318.769 168.702C319.363 168.813 319.969 168.894 320.581 168.952C320.689 169.826 320.842 170.682 321.104 171.481C320.499 171.497 319.899 171.513 319.3 171.532C319.239 170.597 319.009 169.641 318.769 168.702ZM324.74 160.975C321.448 161.028 318.365 160.914 315.173 160.337C314.877 160.283 314.743 160.708 315.03 160.785C315.585 160.925 316.15 161.044 316.725 161.148C316.85 161.828 316.967 162.513 317.088 163.19C316.975 163.28 316.954 163.449 317.131 163.515L317.149 163.523C317.269 164.196 317.393 164.866 317.512 165.539C317.362 165.61 317.352 165.824 317.564 165.838L317.565 165.841C317.63 166.199 317.696 166.563 317.762 166.924C317.83 167.296 317.886 167.68 317.939 168.069C317.714 168.029 317.486 167.989 317.254 167.935C316.946 167.865 316.743 168.265 317.057 168.342C317.37 168.418 317.688 168.494 318.013 168.562C318.151 169.572 318.305 170.6 318.617 171.55C318.47 171.556 318.322 171.561 318.174 171.563C317.86 171.569 317.781 171.978 318.105 171.981C318.328 171.982 318.55 171.983 318.774 171.987C318.828 172.112 318.87 172.235 318.928 172.356C318.991 172.504 319.304 172.466 319.311 172.295C319.317 172.193 319.31 172.09 319.311 171.989C319.971 171.996 320.632 172.003 321.295 172.002C321.364 172.103 321.546 172.093 321.628 172.004C322.247 172.003 322.866 171.992 323.48 171.959C323.565 172.188 323.645 172.417 323.752 172.627C323.845 172.8 324.117 172.695 324.116 172.526C324.119 172.324 324.083 172.124 324.059 171.918C324.431 171.895 324.799 171.877 325.168 171.836C325.357 171.814 325.346 171.581 325.164 171.563C324.788 171.529 324.402 171.518 324.015 171.5C323.868 170.657 323.577 169.812 323.343 168.995C323.93 168.956 324.518 168.888 325.097 168.767C325.312 168.722 325.348 168.421 325.104 168.427C324.433 168.436 323.776 168.446 323.126 168.452C323.026 168.374 322.874 168.38 322.771 168.447C322.286 168.444 321.801 168.438 321.318 168.421C321.151 167.618 320.951 166.82 320.788 166.045C321.93 166.109 323.075 166.148 324.225 166.128C324.434 166.124 324.481 165.871 324.268 165.851C323.094 165.712 321.9 165.645 320.701 165.601C320.679 165.463 320.649 165.328 320.623 165.191C320.586 164.962 320.16 165.026 320.197 165.258C320.213 165.364 320.223 165.478 320.235 165.584C319.493 165.557 318.752 165.538 318.015 165.517C317.878 164.901 317.746 164.287 317.61 163.674C319.594 164.322 321.803 164.596 323.949 164.109C324.105 164.073 324.139 163.848 323.952 163.852C321.687 163.944 319.597 163.867 317.51 163.206C317.361 162.541 317.212 161.879 317.067 161.213C319.567 161.639 322.216 161.714 324.739 161.271C324.93 161.237 324.945 160.972 324.74 160.975Z" fill="black"/>
<path d="M316.384 154.721C317.908 153.617 319.482 152.502 320.803 151.225C320.947 151.083 320.707 150.92 320.545 151.025C318.948 152.024 317.514 153.254 316.112 154.439C315.908 154.608 316.152 154.884 316.384 154.721Z" fill="black"/>
<path d="M318.672 155.714C320.351 154.103 322.149 152.523 323.605 150.771C323.706 150.643 323.518 150.474 323.379 150.59C321.52 152.082 319.923 153.828 318.272 155.478C318.057 155.693 318.456 155.922 318.672 155.714Z" fill="black"/>
<path d="M329.178 155.497C327.81 156.125 326.571 157.013 325.314 157.79C324.977 158.002 325.366 158.394 325.701 158.194C326.943 157.434 328.307 156.724 329.413 155.827C329.603 155.675 329.435 155.384 329.178 155.497Z" fill="black"/>
<path d="M331.044 153.744C329.482 153.804 327.913 153.933 326.347 154.084C327.208 153.313 328.056 152.522 328.702 151.666C328.841 151.471 328.587 151.244 328.363 151.402C327.23 152.184 326.241 153.192 325.281 154.188C324.408 154.272 323.536 154.36 322.663 154.444C323.969 153.097 325.283 151.746 326.385 150.294C326.482 150.167 326.291 149.977 326.145 150.105C324.167 151.84 322.497 153.839 320.749 155.735C320.524 155.969 320.953 156.219 321.173 155.986C321.48 155.659 321.799 155.335 322.11 155.011C322.968 154.937 323.821 154.866 324.683 154.795C324.442 155.039 324.206 155.285 323.967 155.514C323.709 155.761 324.175 156.026 324.426 155.791C324.81 155.431 325.216 155.075 325.622 154.715C327.436 154.564 329.248 154.396 331.045 154.137C331.301 154.1 331.317 153.73 331.044 153.744Z" fill="black"/>
<path d="M353.767 168.169C353.544 166.707 352.929 165.304 352.508 163.888C352.06 162.38 351.657 160.86 351.297 159.33C350.603 156.352 350.091 153.339 349.668 150.314C349.637 150.06 349.182 150.139 349.204 150.388C349.443 153.521 349.93 156.625 350.621 159.689C351.254 162.504 351.767 165.741 353.248 168.309C353.374 168.53 353.807 168.422 353.767 168.169Z" fill="black"/>
<path d="M369.563 154.017C369.678 155.571 369.61 157.241 370.027 158.744C370.084 158.937 370.458 158.953 370.487 158.722C370.672 157.138 370.354 155.482 370.227 153.911C370.201 153.551 369.537 153.66 369.563 154.017Z" fill="black"/>
<path d="M367.852 162.349C363.826 163.005 359.81 164.474 355.908 165.586C355.616 165.672 355.754 166.101 356.051 166.018C359.971 164.964 364.208 164.149 367.952 162.651C368.15 162.576 368.069 162.315 367.852 162.349Z" fill="black"/>
<path d="M353.384 156.788C354.236 156.657 355.09 156.533 355.944 156.415C356.139 157.593 356.34 158.776 356.54 159.957C355.724 160.097 354.911 160.229 354.098 160.365C353.866 159.172 353.629 157.979 353.384 156.788ZM359.343 155.931L359.331 155.994C359.648 157.109 359.938 158.228 360.241 159.342C359.266 159.496 358.295 159.653 357.326 159.821C357.089 158.654 356.847 157.484 356.601 156.318C357.511 156.192 358.429 156.058 359.343 155.931ZM364.159 158.8C363.097 158.929 362.036 159.068 360.974 159.229C360.62 158.12 360.257 157.016 359.919 155.901L359.872 155.851C361.062 155.677 362.247 155.489 363.423 155.281C363.594 156.473 363.786 157.684 364.159 158.8ZM360.747 161.155C359.733 161.37 358.718 161.606 357.714 161.83C357.615 161.316 357.521 160.804 357.418 160.29C358.408 160.148 359.393 159.995 360.381 159.839C360.499 160.278 360.616 160.718 360.747 161.155ZM352.773 160.983C352.952 160.954 353.136 160.929 353.319 160.9C353.633 162.693 353.973 164.479 354.347 166.259C354.435 166.678 355.235 166.548 355.139 166.134C354.851 164.343 354.52 162.556 354.176 160.771C354.991 160.653 355.805 160.528 356.62 160.409C356.714 160.943 356.815 161.475 356.917 162.007C356.567 162.084 356.212 162.158 355.86 162.225C355.59 162.282 355.641 162.631 355.916 162.58C356.273 162.513 356.63 162.453 356.991 162.388C357.08 162.84 357.159 163.289 357.253 163.739C357.34 164.155 358.132 164.026 358.032 163.616C357.96 163.162 357.871 162.707 357.79 162.255C358.829 162.083 359.876 161.917 360.925 161.729C361.029 162.081 361.132 162.429 361.244 162.775C361.368 163.145 362.088 163.06 361.989 162.657C361.905 162.295 361.814 161.938 361.731 161.58C363.037 161.333 364.327 161.046 365.563 160.663C365.755 160.604 365.655 160.385 365.478 160.399C364.168 160.509 362.845 160.729 361.521 160.997C361.396 160.569 361.263 160.139 361.126 159.717C362.185 159.542 363.237 159.347 364.288 159.141C364.355 159.321 364.419 159.502 364.503 159.676C364.586 159.865 364.993 159.815 365.002 159.598C365.009 159.398 365 159.198 364.994 158.996C365.21 158.955 365.427 158.921 365.646 158.871C365.832 158.828 365.797 158.61 365.608 158.629C365.397 158.648 365.188 158.681 364.977 158.7C364.898 157.508 364.597 156.3 364.287 155.112C364.94 154.99 365.597 154.865 366.243 154.726C366.381 156.259 366.515 157.904 367.133 159.245C367.209 159.421 367.55 159.367 367.572 159.176C367.792 157.312 367.119 155.24 366.767 153.428C366.699 153.085 366.077 153.184 366.119 153.53C366.157 153.799 366.184 154.076 366.211 154.36C365.528 154.428 364.839 154.516 364.154 154.606C364.001 154.025 363.853 153.449 363.733 152.884C363.66 152.531 363 152.636 363.069 152.989C363.179 153.545 363.262 154.124 363.345 154.706C361.06 155.028 358.775 155.43 356.498 155.833C356.332 155.03 356.162 154.231 356.004 153.427C355.997 153.384 355.958 153.362 355.933 153.337C358.805 152.918 361.752 152.585 364.539 151.876C364.761 151.82 364.725 151.566 364.492 151.581C361.273 151.795 358.004 152.522 354.814 153.031C354.457 153.091 354.53 153.548 354.887 153.492C355.083 153.461 355.293 153.431 355.493 153.403C355.472 153.435 355.447 153.468 355.454 153.514C355.599 154.32 355.737 155.132 355.869 155.94C355.011 156.091 354.156 156.237 353.301 156.379C352.901 154.455 352.5 152.532 352.096 150.615C352.042 150.36 351.573 150.431 351.615 150.692C352.146 153.962 352.669 157.241 353.248 160.507C353.069 160.535 352.89 160.567 352.712 160.596C352.41 160.647 352.47 161.03 352.773 160.983Z" fill="black"/>
<path d="M355.034 151.798C357.167 151.345 359.296 150.889 361.418 150.369C361.612 150.324 361.577 150.077 361.377 150.108C359.228 150.488 357.101 150.926 354.966 151.369C354.636 151.436 354.705 151.869 355.034 151.798Z" fill="black"/>
<path d="M345.939 159.266C346.101 159.219 346.065 158.986 345.895 158.992C344.284 159.02 342.6 159.441 341.004 159.705C340.703 159.76 340.764 160.143 341.067 160.099C342.666 159.86 344.398 159.737 345.939 159.266Z" fill="black"/>
<path d="M345.044 161.749C345.17 161.718 345.148 161.577 345.018 161.587C344.341 161.64 343.67 161.757 343.001 161.863C342.809 161.893 342.848 162.14 343.04 162.109C343.709 162.003 344.384 161.911 345.044 161.749Z" fill="black"/>
<path d="M343.417 164.491C344.098 164.38 344.797 164.298 345.458 164.118C345.596 164.078 345.565 163.881 345.422 163.885C344.737 163.918 344.047 164.056 343.366 164.164C343.109 164.201 343.162 164.532 343.417 164.491Z" fill="black"/>
<path d="M343.427 166.647C344.329 166.389 345.3 166.177 346.162 165.806C346.338 165.731 346.267 165.504 346.071 165.535C345.111 165.673 344.154 166.001 343.221 166.257C342.903 166.344 343.105 166.734 343.427 166.647Z" fill="black"/>
<path d="M379.037 160.877C372.559 164.911 365.972 168.313 358.365 170.485C358.064 170.572 358.257 170.935 358.554 170.852C365.937 168.809 373.441 165.63 379.287 161.137C379.49 160.982 379.255 160.741 379.037 160.877Z" fill="black"/>
<path d="M370.415 207.588C370.226 206.176 370.068 204.762 369.989 203.324C370.923 203.075 371.859 202.811 372.78 202.536C372.728 203.915 372.654 205.293 372.572 206.677C371.856 206.982 371.135 207.283 370.415 207.588ZM370.538 212.86C369.269 213.307 367.991 213.733 366.696 214.129C366.603 212.741 366.471 211.358 366.292 209.976C367.462 209.481 368.632 208.982 369.802 208.486C369.987 209.958 370.218 211.418 370.538 212.86ZM365.554 204.434C366.82 204.133 368.094 203.819 369.376 203.482C369.438 204.948 369.561 206.414 369.732 207.877C368.557 208.373 367.383 208.87 366.212 209.365C365.991 207.719 365.752 206.073 365.554 204.434ZM373.656 198.386C374.69 198.053 375.721 197.724 376.743 197.371C376.755 198.411 376.785 199.452 376.865 200.482C375.771 200.821 374.672 201.165 373.582 201.507C373.632 200.468 373.65 199.426 373.656 198.386ZM373.608 195.411C374.644 195.117 375.678 194.809 376.705 194.484C376.726 195.22 376.731 195.966 376.739 196.711C375.705 197.019 374.682 197.34 373.651 197.666C373.645 196.913 373.631 196.165 373.608 195.411ZM373.41 191.677C374.48 191.24 375.544 190.79 376.596 190.321C376.629 191.546 376.657 192.771 376.694 193.999C375.655 194.25 374.619 194.515 373.585 194.794C373.542 193.751 373.487 192.714 373.41 191.677ZM373.217 189.384C374.347 188.938 375.455 188.464 376.531 187.954C376.543 188.526 376.564 189.096 376.576 189.668C375.495 190.069 374.418 190.489 373.347 190.922C373.309 190.408 373.267 189.896 373.217 189.384ZM379.833 196.254C379.896 197.344 379.981 198.43 380.107 199.503C379.231 199.761 378.36 200.022 377.494 200.289C377.503 199.241 377.449 198.189 377.392 197.138C378.211 196.85 379.025 196.558 379.833 196.254ZM382.814 202.451C379.521 203.603 376.348 205.076 373.148 206.431C373.329 205.06 373.447 203.685 373.53 202.309C374.684 201.953 375.825 201.577 376.947 201.165C376.979 201.506 377.002 201.845 377.055 202.18C377.085 202.337 377.385 202.333 377.402 202.164C377.44 201.769 377.447 201.371 377.462 200.972C378.373 200.629 379.276 200.266 380.149 199.879C380.279 200.922 380.456 201.955 380.707 202.958C380.745 203.117 381.07 203.131 381.084 202.941C381.219 200.626 380.977 198.273 380.686 195.935C380.822 195.859 380.785 195.681 380.649 195.648C380.467 194.22 380.272 192.797 380.133 191.398C380.098 191.068 379.498 191.167 379.528 191.494C379.65 192.921 379.719 194.382 379.804 195.851C378.987 196.07 378.172 196.3 377.358 196.537C377.317 195.862 377.284 195.189 377.257 194.519C377.255 194.451 377.252 194.379 377.25 194.311C377.853 194.118 378.461 193.935 379.058 193.733C379.24 193.671 379.161 193.417 378.966 193.458C378.388 193.583 377.809 193.732 377.233 193.87C377.19 192.611 377.14 191.353 377.088 190.091C377.92 189.718 378.757 189.351 379.563 188.953C379.777 188.847 379.649 188.589 379.417 188.669C378.629 188.928 377.847 189.203 377.071 189.485C377.048 188.9 377.025 188.312 377.006 187.727C377.096 187.684 377.188 187.637 377.282 187.593C377.565 187.451 377.397 187.135 377.088 187.224L376.984 187.255C376.975 186.978 376.962 186.706 376.953 186.426C376.944 186.175 376.484 186.252 376.493 186.499C376.497 186.802 376.509 187.099 376.517 187.397C375.38 187.743 374.25 188.135 373.13 188.561C373.07 188.019 373.016 187.479 372.947 186.938C374.669 186.15 376.305 185.256 377.696 184.195C377.882 184.05 377.711 183.767 377.466 183.878C375.89 184.597 374.403 185.463 372.853 186.232C372.728 185.278 372.582 184.331 372.428 183.381C374.045 182.674 375.637 181.921 377.107 181.06C377.295 180.951 377.105 180.743 376.919 180.805C375.357 181.309 373.815 181.942 372.294 182.62C372.193 182.04 372.079 181.456 371.965 180.875C373.426 180.283 374.968 179.736 376.291 178.935C376.454 178.837 376.336 178.589 376.139 178.638C374.653 179.018 373.247 179.681 371.85 180.284C371.691 179.501 371.52 178.728 371.34 177.948C373.019 177.163 374.682 176.359 376.258 175.449C376.466 175.329 376.263 175.069 376.046 175.158C374.393 175.806 372.793 176.564 371.201 177.346C371.081 176.839 370.949 176.333 370.825 175.826C372.544 174.937 374.244 174.011 375.771 172.954C375.929 172.846 375.779 172.643 375.602 172.714C373.903 173.402 372.267 174.263 370.653 175.157C370.524 174.673 370.386 174.182 370.252 173.695C372.165 172.847 374.071 171.979 375.886 171.003C376.115 170.88 375.985 170.583 375.717 170.683C373.805 171.404 371.939 172.245 370.089 173.111C369.847 172.273 369.597 171.436 369.334 170.601C372.18 169.332 375.013 168.032 377.708 166.574C377.913 166.465 377.711 166.205 377.501 166.289C374.64 167.413 371.853 168.727 369.083 170.068C368.943 170.01 368.753 170.077 368.763 170.223C366.913 171.115 365.07 172.02 363.22 172.886C362.932 173.022 363.127 173.399 363.42 173.262C365.226 172.428 367.071 171.616 368.91 170.795C369.17 171.634 369.404 172.48 369.638 173.323C368.188 174.007 366.743 174.702 365.294 175.364C364.976 175.508 365.187 175.929 365.513 175.78C366.927 175.141 368.365 174.52 369.803 173.892C369.939 174.397 370.08 174.902 370.204 175.409C368.918 176.135 367.642 176.875 366.371 177.563C366.086 177.716 366.377 178.125 366.667 177.971C367.866 177.326 369.112 176.7 370.356 176.063C370.48 176.57 370.596 177.082 370.711 177.59C369.545 178.168 368.384 178.748 367.22 179.311C366.88 179.477 367.106 179.939 367.458 179.768C368.579 179.233 369.709 178.708 370.844 178.182C371.015 178.956 371.177 179.731 371.326 180.508C369.677 181.202 368.035 181.891 366.39 182.588C366.008 182.742 366.256 183.23 366.641 183.071C368.236 182.415 369.83 181.755 371.428 181.094C371.535 181.687 371.641 182.276 371.74 182.87C369.83 183.739 367.947 184.672 366.071 185.506C365.708 185.668 365.949 186.142 366.316 185.98C368.124 185.181 370.017 184.427 371.872 183.624C372.021 184.589 372.135 185.556 372.257 186.525L372.164 186.568C370.349 187.404 368.478 188.133 366.567 188.778C366.153 188.92 366.418 189.433 366.832 189.292C368.622 188.687 370.515 188.012 372.341 187.215C372.402 187.739 372.48 188.26 372.533 188.786C370.118 189.724 367.739 190.775 365.375 191.701C364.972 191.859 365.235 192.362 365.639 192.208C367.91 191.329 370.287 190.516 372.604 189.626C372.651 190.138 372.698 190.657 372.728 191.175C369.883 192.343 367.061 193.58 364.235 194.731C363.833 194.896 364.098 195.409 364.504 195.244C367.231 194.13 370.018 193.061 372.771 191.947C372.827 192.959 372.865 193.97 372.886 194.984C369.991 195.785 367.114 196.641 364.241 197.439C363.861 197.55 364.104 198.013 364.48 197.906C367.275 197.132 370.097 196.4 372.898 195.617C372.905 196.377 372.908 197.141 372.903 197.903C369.77 198.911 366.662 199.988 363.604 201.057C363.335 201.15 363.511 201.461 363.774 201.387C366.795 200.501 369.862 199.6 372.901 198.636C372.885 199.67 372.853 200.706 372.817 201.744C370.369 202.503 367.914 203.238 365.413 203.876C365.258 203.698 364.899 203.773 364.841 204.013C364.476 204.107 364.119 204.2 363.753 204.286C363.331 204.379 363.416 204.942 363.841 204.839C364.173 204.761 364.519 204.681 364.855 204.599C365.029 206.303 365.166 208.023 365.324 209.74C364.687 210.014 364.052 210.281 363.413 210.548C363 210.725 363.273 211.259 363.69 211.081C364.255 210.844 364.823 210.602 365.388 210.361C365.517 211.701 365.689 213.033 365.907 214.355C365.335 214.521 364.768 214.69 364.19 214.843C363.725 214.971 363.82 215.598 364.288 215.466C364.862 215.31 365.434 215.148 366.006 214.981C366.061 215.243 366.085 215.51 366.14 215.772C366.2 216.065 366.745 216.062 366.791 215.744C366.82 215.437 366.873 215.133 366.947 214.832C366.957 214.784 366.934 214.748 366.908 214.723C368.175 214.342 369.444 213.943 370.708 213.519C370.883 214.238 371.049 214.954 371.262 215.664C371.35 215.945 371.911 215.983 371.951 215.63C371.994 215.184 372.036 214.737 372.058 214.293C372.064 214.112 371.735 214.016 371.667 214.222L371.654 214.253C371.581 213.929 371.508 213.605 371.434 213.278C373.003 212.737 374.558 212.159 376.083 211.535C376.157 211.585 376.227 211.642 376.304 211.687C376.558 211.828 376.808 211.564 376.664 211.367L376.619 211.306C377.819 210.805 378.991 210.266 380.146 209.701C380.214 209.802 380.279 209.907 380.36 210.003C380.504 210.171 380.812 210.018 380.795 209.829C380.787 209.693 380.744 209.56 380.718 209.427C381.502 209.028 382.28 208.617 383.037 208.186C383.198 208.1 383.043 207.893 382.875 207.963C382.114 208.289 381.357 208.611 380.596 208.93C380.359 208.207 379.972 207.5 379.682 206.824C379.509 206.422 378.766 206.72 378.939 207.122C379.234 207.804 379.477 208.566 379.846 209.244C378.63 209.75 377.417 210.252 376.198 210.741C375.501 209.788 374.972 208.905 374.951 207.638C374.95 207.274 374.282 207.384 374.282 207.744C374.295 208.842 374.646 210.125 375.479 211.025C374.093 211.569 372.698 212.103 371.284 212.605C370.974 211.143 370.723 209.668 370.501 208.188C371.181 207.9 371.856 207.613 372.531 207.326C372.513 207.685 372.492 208.046 372.47 208.406C372.455 208.614 372.823 208.65 372.859 208.435C372.933 207.99 372.989 207.549 373.055 207.106C373.157 207.061 373.259 207.015 373.361 206.974C376.572 205.607 379.886 204.336 382.983 202.774C383.226 202.652 383.083 202.358 382.814 202.451Z" fill="black"/>
<path d="M378.794 213.76C373.311 216.832 367.582 219.392 361.369 221.126C360.918 221.255 361.205 221.801 361.652 221.676C367.838 219.932 373.84 217.441 379.07 214.045C379.307 213.888 379.034 213.625 378.794 213.76Z" fill="black"/>
<path d="M72.4805 248.919C71.1318 251.513 70.2908 254.308 69.2651 256.985C69.1714 257.22 69.5805 257.35 69.6828 257.113C70.7783 254.437 72.1146 251.736 72.8765 248.993C72.9359 248.789 72.5705 248.743 72.4805 248.919Z" fill="black"/>
<path d="M115.127 254.165C113.49 256.126 112.133 258.253 110.691 260.31C110.516 260.558 110.927 260.81 111.11 260.558C112.582 258.496 114.185 256.46 115.464 254.31C115.564 254.139 115.255 254.007 115.127 254.165Z" fill="black"/>
<path d="M119.116 255.838C120.516 253.452 122.062 251.086 123.254 248.632C123.357 248.425 122.992 248.248 122.85 248.454C121.231 250.771 119.921 253.25 118.502 255.654C118.309 255.98 118.919 256.165 119.116 255.838Z" fill="black"/>
<path d="M127.307 245.718C124.803 249.534 122.937 253.685 120.846 257.659C120.671 257.987 121.271 258.169 121.447 257.842C123.575 253.884 126.022 249.929 127.715 245.841C127.813 245.605 127.444 245.505 127.307 245.718Z" fill="black"/>
<path d="M131.057 245.687C131.177 245.477 130.825 245.352 130.659 245.515C127.5 248.699 125.514 252.974 123.995 256.811C123.848 257.18 124.5 257.384 124.651 257.01C125.451 255.033 126.384 253.096 127.483 251.209C128.581 249.325 129.949 247.565 131.057 245.687Z" fill="black"/>
<path d="M132.955 247.247C131.587 250.797 130.19 254.243 127.918 257.517C127.676 257.862 128.256 258.213 128.506 257.864C130.792 254.602 132.722 251.017 133.341 247.316C133.373 247.131 133.029 247.055 132.955 247.247Z" fill="black"/>
<path d="M118.703 247.798C119.716 246.361 120.792 244.939 121.668 243.444C121.782 243.253 121.446 243.115 121.302 243.282C120.152 244.622 119.171 246.065 118.154 247.471C117.913 247.797 118.467 248.128 118.703 247.798Z" fill="black"/>
<path d="M79.5105 250.547C79.7423 249.915 79.9862 249.278 80.235 248.643C81.3929 248.124 82.5589 247.629 83.7373 247.158C83.3504 248.243 82.981 249.33 82.5795 250.378C82.2909 251.12 82.0114 251.864 81.724 252.613C80.4058 253.388 79.1109 254.199 77.8423 255.038C78.4044 253.543 78.9665 252.047 79.5105 250.547ZM88.1089 245.51C87.8427 246.255 87.5803 246.996 87.3087 247.736C87.0241 248.502 86.7437 249.268 86.459 250.034C85.1688 250.682 83.8975 251.367 82.6525 252.08C82.883 251.495 83.1146 250.917 83.3408 250.333C83.8081 249.148 84.3503 247.941 84.8563 246.725C85.9296 246.306 87.0141 245.903 88.1089 245.51ZM92.2762 244.089C91.881 244.901 91.4858 245.714 91.1093 246.535C90.852 247.088 90.6309 247.649 90.3826 248.205C89.3809 248.634 88.4 249.085 87.422 249.554C87.6571 248.943 87.8917 248.329 88.122 247.715C88.4455 246.863 88.7818 246.009 89.1138 245.156C90.165 244.791 91.2179 244.436 92.2762 244.089ZM88.6888 252.148C87.7796 252.556 86.8715 252.97 85.9678 253.384C86.3688 252.332 86.7644 251.274 87.1697 250.221C88.1592 249.715 89.1498 249.215 90.1517 248.732C89.6554 249.871 89.1536 251.003 88.6888 252.148ZM92.7469 251.112C92.3273 252.102 91.9046 253.1 91.4807 254.09C90.2096 254.804 88.9665 255.556 87.739 256.324C88.1966 255.133 88.6767 253.946 89.1743 252.76C90.3779 252.227 91.5653 251.675 92.7469 251.112ZM81.2662 255.567C81.6314 254.647 81.9929 253.732 82.3586 252.815C83.6237 252.092 84.9098 251.391 86.2084 250.712C85.8301 251.743 85.4513 252.769 85.073 253.799C83.7995 254.387 82.535 254.977 81.2662 255.567ZM75.7798 256.93C76.0907 256.715 76.4032 256.511 76.7152 256.303C76.5343 256.815 76.3497 257.331 76.1694 257.846C76.058 258.163 76.6141 258.339 76.7377 258.016C77.0223 257.249 77.307 256.483 77.5922 255.72C78.854 254.893 80.1438 254.104 81.4465 253.342C81.1161 254.206 80.7863 255.074 80.4565 255.941C79.6468 256.314 78.828 256.686 78.0129 257.053C77.6835 257.206 77.9008 257.641 78.2441 257.492C78.8838 257.204 79.5423 256.923 80.1916 256.639C79.9199 257.35 79.6487 258.063 79.377 258.774C79.256 259.085 79.8067 259.254 79.9277 258.943C80.2771 258.061 80.6308 257.179 80.9766 256.302C82.2313 255.761 83.4871 255.226 84.7423 254.689C84.498 255.351 84.2622 256.013 84.013 256.672C83.8817 257.029 84.5104 257.221 84.6454 256.861C84.9652 256.013 85.2893 255.165 85.6133 254.316C86.5131 253.932 87.4074 253.541 88.3012 253.147C87.8077 254.387 87.3142 255.627 86.8527 256.876L86.8532 256.879C85.3711 257.832 83.9298 258.821 82.5105 259.839C82.2013 260.065 82.5771 260.453 82.8916 260.233C85.5117 258.361 88.2527 256.618 91.0952 254.992C90.7648 255.773 90.4386 256.553 90.1034 257.331C89.9571 257.675 90.5724 257.866 90.7225 257.518C91.168 256.499 91.6172 255.475 92.0669 254.455C93.32 253.766 94.6017 253.12 95.8947 252.489C95.6265 253.167 95.3668 253.843 95.1028 254.519C94.9582 254.874 95.5965 255.072 95.74 254.711C96.0926 253.821 96.4537 252.931 96.81 252.038C97.9341 251.499 99.0571 250.953 100.174 250.394C99.5508 251.672 98.9794 252.971 98.4658 254.25C95.1999 255.849 92.0596 257.717 89.0968 259.521C88.7422 259.736 89.1491 260.155 89.5042 259.943C92.0414 258.402 94.6404 256.948 97.3175 255.6C97.5724 255.474 97.8291 255.357 98.0803 255.234C98.0065 255.43 97.9242 255.627 97.8547 255.822C97.7097 256.202 98.3854 256.416 98.5335 256.028C98.6974 255.602 98.8928 255.181 99.07 254.757C100.798 253.949 102.545 253.182 104.251 252.345C103.596 253.535 102.961 254.732 102.329 255.925C99.9637 257.201 97.6346 258.54 95.2865 259.814C94.9291 260.011 95.3307 260.424 95.6838 260.227C97.6857 259.138 99.7406 258.081 101.76 256.992C101.642 257.21 101.532 257.425 101.413 257.642C101.208 258.025 101.909 258.238 102.119 257.855C102.401 257.345 102.691 256.834 102.977 256.324C104.362 255.559 105.732 254.78 107.055 253.95C107.261 253.82 107.058 253.531 106.826 253.636C105.728 254.149 104.649 254.692 103.581 255.254C104.849 253.008 106.121 250.754 107.126 248.445C107.245 248.174 106.816 248.062 106.654 248.304C105.924 249.4 105.265 250.536 104.625 251.677C102.884 252.262 101.172 252.977 99.4891 253.763C100.079 252.415 100.709 251.074 101.427 249.759C101.506 249.711 101.531 249.645 101.525 249.581C102.641 247.558 104.005 245.639 105.154 243.632C105.291 243.391 104.875 243.218 104.69 243.428C103.016 245.323 101.664 247.478 100.522 249.701C99.3914 250.114 98.2785 250.586 97.1857 251.102C97.9351 249.245 98.6844 247.387 99.4253 245.532C100.573 242.659 102.094 239.691 102.711 236.726C102.754 236.528 102.429 236.489 102.329 236.657C100.665 239.434 99.7597 242.626 98.6078 245.553C97.8231 247.545 97.0512 249.536 96.2708 251.528C94.9746 252.166 93.7087 252.857 92.4598 253.546C92.8876 252.58 93.3099 251.608 93.7371 250.638C94.4818 250.268 95.226 249.894 95.9594 249.507C96.1729 249.394 96.0505 249.118 95.8033 249.211C95.2217 249.426 94.646 249.65 94.0666 249.879C94.4612 248.98 94.8553 248.077 95.2493 247.174C95.9823 245.489 96.7201 243.807 97.4483 242.119C98.1376 240.516 99.0147 238.859 99.4067 237.199C99.4651 236.934 99.0369 236.904 98.9034 237.109C97.8887 238.669 97.2919 240.47 96.5811 242.13C95.8524 243.814 95.1376 245.504 94.4142 247.194C93.9736 248.217 93.5414 249.237 93.1098 250.261C91.9283 250.741 90.758 251.236 89.5911 251.753C90.0989 250.576 90.6388 249.408 91.1749 248.245C91.5729 248.056 91.9702 247.863 92.373 247.677C92.5563 247.593 92.4406 247.359 92.2471 247.433C91.9516 247.552 91.6694 247.673 91.3786 247.794C91.502 247.526 91.6201 247.251 91.744 246.986C92.2621 245.901 92.8074 244.823 93.3479 243.742C93.6388 243.649 93.9334 243.552 94.2291 243.462C94.47 243.384 94.3595 243.044 94.1115 243.105C93.9386 243.144 93.7678 243.196 93.5991 243.233C93.7978 242.834 93.9869 242.429 94.1947 242.032C95.0374 240.405 96.0682 238.781 96.6556 237.086C96.7183 236.903 96.4437 236.741 96.2942 236.927C95.1779 238.287 94.4441 239.857 93.6634 241.351C93.292 242.066 92.9298 242.784 92.5754 243.497C91.5108 243.777 90.4544 244.081 89.4018 244.41C90.1019 242.601 90.7737 240.777 91.2424 238.939C91.2984 238.714 90.8955 238.652 90.793 238.859C89.8372 240.763 89.103 242.744 88.3907 244.726C87.3171 245.087 86.2479 245.476 85.1911 245.889C85.6867 244.634 86.1235 243.368 86.3659 242.114C86.4082 241.912 86.0882 241.877 85.9881 242.044C85.1766 243.399 84.5711 244.869 84.0244 246.351C82.8465 246.826 81.6848 247.321 80.5371 247.849C81.0883 246.394 81.6075 244.931 81.915 243.454C81.9536 243.256 81.6137 243.206 81.5243 243.386C80.6835 244.969 80.0907 246.657 79.5181 248.335C78.3244 248.902 77.1468 249.489 75.9906 250.102C76.3344 248.936 76.6563 247.771 76.9078 246.602C76.9397 246.445 76.6569 246.396 76.5929 246.544C75.9887 247.884 75.4726 249.257 74.988 250.636C74.3126 251.002 73.6371 251.369 72.9809 251.747C72.6804 251.917 73.0186 252.26 73.3154 252.094C73.7879 251.825 74.2686 251.579 74.747 251.319C73.9734 253.602 73.2953 255.91 72.6336 258.183C72.5559 258.437 73.0645 258.533 73.1592 258.276C74.0696 255.809 74.9978 253.289 75.7809 250.763C76.9276 250.173 78.0884 249.618 79.2611 249.082C79.0918 249.585 78.9184 250.089 78.7432 250.582C78.136 252.261 77.5475 253.949 76.9578 255.629C76.465 255.964 75.9716 256.294 75.492 256.63C75.2523 256.798 75.5395 257.095 75.7798 256.93Z" fill="black"/>
<path d="M107.596 242.315C109.981 241.746 112.491 241.273 114.781 240.427C114.974 240.353 114.884 240.115 114.687 240.142C112.272 240.492 109.88 241.268 107.531 241.903C107.229 241.984 107.28 242.39 107.596 242.315Z" fill="black"/>
<path d="M106.504 240.659C108.769 240.21 111.129 239.869 113.339 239.209C113.51 239.156 113.42 238.951 113.257 238.966C110.975 239.223 108.692 239.837 106.449 240.311C106.183 240.367 106.233 240.713 106.504 240.659Z" fill="black"/>
<path d="M111.94 238.456C112.134 238.408 112.1 238.197 111.901 238.207C110.02 238.324 108.117 238.741 106.257 239.043C105.976 239.091 106.033 239.45 106.314 239.405C108.177 239.121 110.117 238.933 111.94 238.456Z" fill="black"/>
<path d="M107.254 237.539C109.014 237.373 110.779 237.216 112.534 236.967C112.693 236.949 112.65 236.761 112.503 236.769C110.734 236.851 108.968 237.026 107.199 237.188C106.927 237.212 106.983 237.564 107.254 237.539Z" fill="black"/>
<path d="M118.977 238.529C120.973 238.115 123.071 237.801 125.002 237.17C125.197 237.111 125.096 236.885 124.915 236.903C122.899 237.1 120.88 237.643 118.903 238.057C118.539 238.133 118.61 238.608 118.977 238.529Z" fill="black"/>
<path d="M121.056 259.011C117.281 260.431 113.552 261.78 109.561 262.664C105.524 263.552 101.388 264.074 97.2675 264.189C93.3815 264.3 89.5091 264.055 85.7346 263.462C82.0581 262.883 77.7412 262.092 75.9116 259.113L75.8633 259.139C77.0357 261.745 80.2657 262.813 83.2956 263.473C87.4411 264.368 91.7862 264.758 96.1215 264.728C104.535 264.672 113.738 263.095 121.275 259.434C121.592 259.28 121.397 258.881 121.056 259.011Z" fill="black"/>
<path d="M63.7964 204.923C69.1866 199.81 75.3338 195.727 82.0153 191.902C82.2834 191.748 82.0149 191.376 81.7307 191.511C74.757 194.787 68.5597 199.574 63.464 204.727C63.2872 204.907 63.6179 205.092 63.7964 204.923Z" fill="black"/>
<path d="M75.9036 212.723C75.1627 213.172 74.4254 213.617 73.6892 214.069C73.6372 214.099 73.622 214.141 73.6063 214.179C73.4196 213.69 73.2376 213.203 73.0424 212.714C73.7668 212.105 74.5201 211.513 75.2805 210.939C75.4882 211.533 75.6996 212.124 75.9036 212.723ZM76.8819 215.536C76.2295 215.993 75.5759 216.443 74.9444 216.922C74.6665 217.124 75.0112 217.481 75.2885 217.275C75.8623 216.845 76.4586 216.447 77.0533 216.039C77.3122 216.792 77.5706 217.541 77.8337 218.293C77.2635 218.69 76.706 219.084 76.1778 219.471C75.9121 219.668 76.237 220.01 76.5069 219.812C76.9922 219.457 77.5026 219.124 78.0077 218.784C78.3972 219.92 78.7946 221.051 79.1883 222.186C78.425 222.715 77.667 223.25 76.9025 223.771C76.552 222.633 76.194 221.503 75.8275 220.374C75.1687 218.365 74.4434 216.377 73.6888 214.397C73.7761 214.452 73.8983 214.479 74.0135 214.407C74.701 214.006 75.3842 213.606 76.0711 213.201C76.3387 213.981 76.6143 214.756 76.8819 215.536ZM82.8565 220.563C82.9617 220.896 83.0668 221.229 83.172 221.563C82.1666 222.079 81.1789 222.625 80.2097 223.204C80.1221 222.955 80.0357 222.712 79.9439 222.463C80.9278 221.839 81.8972 221.205 82.8565 220.563ZM84.2916 225.158C83.339 225.677 82.3993 226.222 81.4662 226.781C81.1327 225.806 80.7901 224.829 80.4396 223.857L80.5633 223.783C81.4913 223.246 82.4351 222.754 83.3938 222.274C83.6899 223.234 83.9908 224.196 84.2916 225.158ZM84.8023 226.783C84.9941 227.388 85.1688 227.995 85.3478 228.601C84.4482 229.151 83.5491 229.705 82.6531 230.251C82.3451 229.326 82.0285 228.402 81.7119 227.478C82.6382 226.931 83.5688 226.383 84.509 225.841C84.6066 226.154 84.7047 226.47 84.8023 226.783ZM88.6565 227.41C89.0362 228.291 89.4034 229.203 89.8003 230.111C88.8227 230.554 87.8543 231.029 86.9105 231.521C86.6775 230.656 86.4061 229.797 86.1177 228.941C86.9729 228.441 87.8174 227.929 88.6565 227.41ZM83.656 233.302C83.395 232.481 83.1218 231.666 82.8529 230.85C83.7479 230.326 84.6466 229.798 85.5502 229.273C85.8029 230.123 86.0683 230.972 86.3789 231.803C85.457 232.296 84.5496 232.796 83.656 233.302ZM83.0863 233.62C81.9835 234.238 80.8948 234.89 79.8248 235.55C79.6695 234.68 79.5015 233.812 79.3159 232.944C80.2098 232.412 81.1074 231.877 82.0014 231.346C82.1447 231.258 82.2933 231.177 82.4409 231.089C82.7417 231.885 83.0504 232.677 83.3592 233.468C83.2662 233.515 83.1781 233.565 83.0863 233.62ZM78.5017 229.43C79.3954 228.87 80.2962 228.327 81.197 227.784C81.5337 228.697 81.8785 229.605 82.2189 230.514C82.0873 230.593 81.9525 230.679 81.8251 230.757C80.9434 231.283 80.0666 231.811 79.1854 232.34C78.9746 231.367 78.7467 230.397 78.5017 229.43ZM74.2408 231.583C74.186 230.438 74.0832 229.293 73.9421 228.153C74.9183 227.425 75.9198 226.719 76.9384 226.038C77.2238 227.067 77.4921 228.1 77.7604 229.132C76.5603 229.935 75.3928 230.752 74.2408 231.583ZM79.9057 224.179C80.2476 225.153 80.5982 226.125 80.9481 227.094C80.0644 227.635 79.1914 228.188 78.3297 228.757C78.0583 227.732 77.774 226.71 77.4776 225.693C78.273 225.174 79.084 224.67 79.9057 224.179ZM77.0667 224.311C77.8425 223.806 78.6188 223.304 79.4127 222.804C79.4997 223.05 79.5861 223.292 79.6774 223.537C78.8653 224.034 78.0736 224.549 77.3006 225.071C77.221 224.817 77.1457 224.562 77.0667 224.311ZM74.4626 208.587C74.679 209.209 74.896 209.834 75.1167 210.456C74.3512 211.053 73.6055 211.666 72.8844 212.296C72.5981 211.591 72.299 210.888 72.0042 210.184C72.8085 209.638 73.6272 209.101 74.4626 208.587ZM75.4777 210.171C75.2604 209.571 75.0473 208.97 74.8251 208.367C75.5459 207.928 76.2614 207.483 76.9988 207.067C79.1996 205.827 81.689 204.867 83.7834 203.507C83.906 203.426 83.822 203.227 83.6581 203.267C81.3039 203.896 79.108 205.221 77.0528 206.387C76.232 206.856 75.4321 207.347 74.6419 207.844C74.4871 207.418 74.3317 206.988 74.1768 206.561C74.1098 206.359 73.7404 206.508 73.8079 206.714C73.971 207.164 74.126 207.619 74.2853 208.074C73.449 208.61 72.6192 209.16 71.8097 209.728C71.5355 209.072 71.265 208.411 70.9779 207.757C74.717 205.369 78.6293 203.054 82.0503 200.366C82.2289 200.226 82.0271 200.027 81.8307 200.137C77.9629 202.265 74.3955 204.882 70.7859 207.344C70.3381 206.336 69.8733 205.331 69.4011 204.335C73.1887 201.481 77.3558 199.176 81.456 196.669C81.6079 196.58 81.4577 196.377 81.2903 196.45C76.8569 198.314 72.8739 201.119 69.222 203.948C69.1696 203.838 69.1208 203.723 69.0689 203.616C68.9781 203.428 68.6379 203.568 68.7197 203.754C68.7905 203.898 68.8485 204.044 68.9151 204.188L68.8488 204.238C68.642 204.394 68.8601 204.641 69.0769 204.549C69.5338 205.558 69.9869 206.572 70.4272 207.588C70.1036 207.805 69.7842 208.022 69.4686 208.234C69.2197 208.4 69.5118 208.7 69.7606 208.534C70.0376 208.353 70.3242 208.178 70.6054 207.996C70.8904 208.665 71.1541 209.338 71.4252 210.002C71.0406 210.276 70.6561 210.549 70.2806 210.825C70.0303 211.009 70.3337 211.325 70.584 211.141C70.9176 210.905 71.2716 210.686 71.61 210.452C73.0128 213.906 74.3033 217.395 75.4438 220.929C75.7816 221.986 76.0895 223.049 76.3938 224.115C76.1614 224.274 75.9211 224.439 75.6882 224.595C75.3842 224.798 75.7401 225.171 76.0484 224.967C76.2145 224.858 76.3854 224.751 76.5514 224.642C76.6273 224.9 76.7032 225.159 76.7791 225.417C75.7669 226.112 74.7958 226.817 73.8466 227.523C72.8957 220.416 70.3924 213.433 67.1138 207.013C67.0399 206.877 66.7895 206.978 66.855 207.115C70.1461 213.808 72.0563 220.741 73.3312 227.908C73.2182 227.994 73.101 228.081 72.9875 228.164C72.6806 228.404 73.0623 228.801 73.3783 228.564L73.4494 228.516C73.6283 229.563 73.7944 230.612 73.953 231.668L74.0047 231.747C73.2294 232.31 72.4631 232.875 71.701 233.439C71.4285 233.648 71.7683 234.002 72.0499 233.795C73.9569 232.382 75.9268 231.064 77.9313 229.798C78.1697 230.752 78.4008 231.714 78.6355 232.673C76.3546 234.04 74.0743 235.411 71.7939 236.782C71.4473 236.992 71.8435 237.399 72.1907 237.192C74.3888 235.881 76.5832 234.574 78.7814 233.263C78.986 234.114 79.1944 234.961 79.4034 235.812C77.403 237.048 75.4516 238.346 73.557 239.699C73.2276 239.935 73.6292 240.348 73.9628 240.111C75.7768 238.828 77.6435 237.602 79.5526 236.423C79.7018 237.034 79.8419 237.643 79.9948 238.25C80.0271 238.371 80.2491 238.34 80.2333 238.212C80.1439 237.537 80.0412 236.861 79.9299 236.186C81.0366 235.51 82.154 234.846 83.2929 234.207C83.389 234.152 83.4862 234.105 83.5828 234.053C83.8606 234.759 84.1182 235.476 84.4045 236.181C84.429 236.253 84.5795 236.211 84.555 236.139C84.3282 235.396 84.0837 234.652 83.8483 233.91C84.7643 233.408 85.697 232.928 86.6398 232.458C86.726 232.672 86.8037 232.887 86.8937 233.096C86.9715 233.257 87.2897 233.17 87.2533 232.996C87.2095 232.747 87.1347 232.495 87.0775 232.244C88.0857 231.746 89.0945 231.251 90.0984 230.752C90.5274 231.669 90.9846 232.571 91.5573 233.374C91.6472 233.501 91.9416 233.458 91.8961 233.281C91.6555 232.313 91.2592 231.355 90.8076 230.406C91.6001 230.006 92.3878 229.604 93.1684 229.184C93.2014 229.255 93.2313 229.333 93.2643 229.403C93.7541 230.567 94.1287 231.856 94.8843 232.905C94.9962 233.061 95.337 233.007 95.2987 232.793C95.0939 231.61 94.4571 230.484 93.9762 229.377C93.4414 228.124 92.9062 226.867 92.3635 225.618C92.2248 225.294 91.6252 225.533 91.7639 225.857C92.1822 226.844 92.601 227.835 93.0193 228.822C92.1701 229.111 91.3355 229.438 90.514 229.792C90.0568 228.891 89.5747 227.997 89.1336 227.114C90.0109 226.561 90.8731 225.995 91.6994 225.395C91.8718 225.27 91.7096 225.018 91.5024 225.116C90.5988 225.559 89.7178 226.034 88.8433 226.522L88.8374 226.512C88.7178 226.253 88.233 226.445 88.3532 226.708L88.3884 226.792C87.5474 227.272 86.7172 227.764 85.8892 228.27C85.6835 227.661 85.4827 227.054 85.2872 226.454C85.1961 226.155 85.0959 225.853 85.0006 225.554C86.5768 224.645 88.1627 223.741 89.7554 222.825C89.9353 222.72 89.7583 222.485 89.5702 222.565C87.943 223.263 86.3504 224.042 84.7886 224.877C84.4851 223.926 84.1822 222.979 83.8788 222.028C85.5138 221.213 87.1665 220.429 88.7826 219.577C89.045 219.442 88.8983 219.123 88.5994 219.221C86.9158 219.783 85.2664 220.506 83.6527 221.317C83.5405 220.967 83.4234 220.614 83.3149 220.26C84.5256 219.44 85.7153 218.599 86.8178 217.703C86.999 217.552 86.7924 217.35 86.5832 217.462C84.1978 218.749 81.942 220.275 79.7156 221.821C79.3102 220.695 78.9054 219.573 78.4957 218.447C79.3861 217.866 80.2932 217.308 81.2415 216.79C82.7687 215.956 84.4332 215.328 85.9406 214.48C86.0807 214.4 85.9721 214.183 85.8088 214.227C83.1864 214.927 80.6004 216.408 78.3218 217.956C78.0469 217.213 77.7764 216.469 77.5058 215.726C78.56 215.022 79.6352 214.339 80.7432 213.698C82.6321 212.613 84.7536 211.783 86.5792 210.628C86.7771 210.499 86.5796 210.3 86.3785 210.353C84.3213 210.928 82.3611 212.115 80.5699 213.156C79.4503 213.806 78.3737 214.506 77.3217 215.225C77.0446 214.468 76.7718 213.711 76.4905 212.954C77.7571 212.213 79.0243 211.475 80.2819 210.731C82.3176 209.525 84.6486 208.391 86.4133 206.907C86.5559 206.787 86.4345 206.571 86.2335 206.654C84.0548 207.536 82.0809 208.967 80.1207 210.154C78.8446 210.919 77.5835 211.696 76.3134 212.47C76.0944 211.859 75.8716 211.252 75.6532 210.645C76.6066 209.939 77.5864 209.26 78.6022 208.616C80.6177 207.338 82.8923 206.371 84.8854 205.089C85.0987 204.947 84.8914 204.713 84.6669 204.785C82.4629 205.48 80.3011 206.883 78.436 208.091C77.4139 208.75 76.4279 209.444 75.4777 210.171Z" fill="black"/>
<path d="M76.2836 242.827C75.8629 243.038 76.1488 243.602 76.5737 243.391C82.0743 240.684 87.6941 238.095 93.0455 235.162C93.2945 235.025 93.0492 234.689 92.7883 234.806C87.1714 237.276 81.7512 240.132 76.2836 242.827Z" fill="black"/>
<path d="M338.008 152.5C338.067 153.952 338.191 155.53 338.699 156.896C338.76 157.056 339.1 157.002 339.108 156.831C339.174 155.371 338.8 153.836 338.408 152.437C338.353 152.229 338 152.285 338.008 152.5Z" fill="black"/>
<path d="M340.692 156.573C340.913 155.791 340.594 154.965 340.443 154.2C340.266 153.304 340.08 152.407 339.861 151.522C339.828 151.368 339.556 151.411 339.563 151.569C339.633 152.478 339.738 153.388 339.842 154.295C339.931 155.078 339.881 155.948 340.338 156.629C340.425 156.763 340.647 156.728 340.692 156.573Z" fill="black"/>
<path d="M343.009 155.521C343.192 154.774 342.947 154.026 342.81 153.294C342.656 152.46 342.493 151.624 342.342 150.786C342.294 150.505 341.774 150.587 341.81 150.87C341.926 151.714 342.03 152.56 342.141 153.4C342.241 154.142 342.237 154.918 342.643 155.579C342.727 155.721 342.974 155.681 343.009 155.521Z" fill="black"/>
<path d="M344.781 156.614C344.858 156.746 345.131 156.729 345.147 156.556C345.227 155.711 344.915 154.869 344.711 154.054C344.478 153.106 344.237 152.159 343.996 151.217C343.929 150.935 343.4 151.015 343.463 151.301C343.666 152.25 343.861 153.207 344.068 154.156C344.247 154.982 344.332 155.874 344.781 156.614Z" fill="black"/>
<path d="M378.302 170.104C380.104 181.563 381.49 193.153 383.852 204.515C383.889 204.693 384.209 204.643 384.189 204.462C382.921 192.926 380.662 181.475 378.834 170.02C378.789 169.735 378.257 169.819 378.302 170.104Z" fill="black"/>
<path d="M98.2056 230.994C98.3151 231.107 98.5847 231.017 98.5421 230.858C98.106 229.069 96.7222 227.362 95.7889 225.743C95.6178 225.435 95.0262 225.669 95.1973 225.977C96.1189 227.606 96.8374 229.606 98.2056 230.994Z" fill="black"/>
<path d="M101.974 231.685C101.645 230.435 100.898 229.276 100.295 228.113C100.136 227.799 99.5443 228.034 99.7075 228.347C100.299 229.519 100.794 230.772 101.645 231.816C101.743 231.938 102.01 231.831 101.974 231.685Z" fill="black"/>
<path d="M105.059 232.001C105.17 232.041 105.294 231.945 105.279 231.85C105.194 231.283 104.697 230.821 104.452 230.297C104.115 229.571 103.981 228.806 104.016 228.011C104.029 227.648 103.357 227.599 103.341 227.966C103.303 228.773 103.409 229.553 103.712 230.31C103.957 230.92 104.301 231.738 105.059 232.001Z" fill="black"/>
<path d="M108.229 230.02C108.224 229.462 107.837 228.866 107.619 228.349C107.526 228.118 107.099 228.291 107.197 228.52C107.414 229.034 107.554 229.701 107.962 230.123C108.061 230.227 108.23 230.135 108.229 230.02Z" fill="black"/>
<path d="M112.435 230.389C112.26 229.367 111.663 228.376 111.245 227.421C111.11 227.122 110.552 227.347 110.687 227.647C111.104 228.598 111.424 229.68 112.069 230.53C112.18 230.678 112.46 230.544 112.435 230.389Z" fill="black"/>
<path d="M338.671 219.21C338.839 220.413 338.841 221.776 339.277 222.926C339.329 223.066 339.623 223.019 339.635 222.87C339.689 221.642 339.274 220.344 339.063 219.148C339.025 218.937 338.641 218.998 338.671 219.21Z" fill="black"/>
<path d="M342.195 220.704C342.289 221.353 342.254 222.152 342.557 222.742C342.627 222.879 342.874 222.84 342.898 222.688C343.004 222.033 342.724 221.284 342.613 220.638C342.569 220.417 342.169 220.481 342.195 220.704Z" fill="black"/>
<path d="M343.981 219.108C344.427 220.354 344.704 221.85 345.442 222.981C345.557 223.158 345.894 223.079 345.869 222.867C345.703 221.544 344.915 220.179 344.437 218.924C344.34 218.672 343.894 218.859 343.981 219.108Z" fill="black"/>
<path d="M348.222 216.326C348.167 216.007 347.57 216.098 347.617 216.422C347.765 217.384 347.908 218.342 348.056 219.303C348.183 220.134 348.193 221.027 348.581 221.795C348.657 221.942 348.938 221.897 348.96 221.735C349.089 220.893 348.83 220.028 348.695 219.202C348.534 218.243 348.378 217.286 348.222 216.326Z" fill="black"/>
<path d="M350.312 212.569C350.681 214.985 350.745 217.647 351.557 219.961C351.62 220.142 352.008 220.08 352.012 219.888C352.07 217.437 351.303 214.886 350.912 212.474C350.857 212.151 350.26 212.245 350.312 212.569Z" fill="black"/>
<path d="M353.74 211.337C353.897 212.823 354.054 214.31 354.211 215.796C354.354 217.112 354.321 218.534 354.79 219.784C354.851 219.947 355.163 219.88 355.186 219.721C355.361 218.399 355.013 217 354.858 215.694C354.68 214.211 354.502 212.728 354.324 211.244C354.287 210.929 353.708 211.021 353.74 211.337Z" fill="black"/>
<path d="M356.672 209.498C357.047 212.609 357.078 215.948 357.902 218.974C357.966 219.212 358.356 219.169 358.391 218.95L358.409 218.951L358.41 218.9L358.407 218.886C358.45 215.738 357.682 212.512 357.281 209.402C357.234 209.081 356.634 209.176 356.672 209.498Z" fill="black"/>
<path d="M361.355 207.725C361.462 209.252 361.559 210.777 361.661 212.304C361.759 213.8 361.679 215.418 362.099 216.862C362.149 217.039 362.488 217.057 362.52 216.843C362.722 215.39 362.444 213.883 362.333 212.439C362.219 210.834 362.1 209.23 361.981 207.626C361.955 207.291 361.337 207.389 361.355 207.725Z" fill="black"/>
<path d="M383.457 208.74C383.534 208.728 383.518 208.626 383.441 208.638C383.363 208.65 383.38 208.753 383.457 208.74Z" fill="black"/>
<path d="M328.168 224.599C308.086 227.318 287.936 229.417 267.748 230.555C247.499 231.699 227.252 231.886 207.101 231.222C195.738 230.851 184.453 230.063 173.125 229.44C172.983 229.43 172.951 229.616 173.094 229.633C183.03 230.779 193.142 231.334 203.211 231.745C213.292 232.153 223.404 232.323 233.533 232.259C253.622 232.125 273.775 231.147 293.86 229.218C305.351 228.112 316.807 226.727 328.222 224.944C328.491 224.902 328.437 224.564 328.168 224.599Z" fill="black"/>
<path d="M172.387 174.061C206.842 179.028 242.33 180.646 277.649 179.907C287.506 179.702 297.473 179.501 307.332 178.589C307.621 178.565 307.629 178.149 307.333 178.156C298.439 178.432 289.541 179.012 280.651 179.233C271.849 179.452 263.06 179.509 254.28 179.406C236.717 179.198 219.212 178.339 201.826 176.879C191.985 176.057 182.19 175.026 172.408 173.914C172.297 173.902 172.276 174.046 172.387 174.061Z" fill="black"/>
<path d="M355.199 146.827C359.807 146.209 364.578 145.23 369.062 146.388C373.169 147.454 375.831 150.149 376.022 153.78C376.038 154.073 376.567 154.025 376.62 153.75C377.32 150.285 373.845 147.315 370.41 146.106C365.749 144.467 360.006 145.453 355.165 146.613C355.005 146.652 355.032 146.85 355.199 146.827Z" fill="black"/>
<path d="M391.377 204.525C386.001 213.337 373.655 218.149 363.242 221.345C347.531 226.167 330.855 228.473 314.505 230.161C277.086 234.024 239.334 234.182 202.01 233.453C187.272 233.165 172.544 232.418 157.786 232.443C156.987 229.994 155.51 227.617 154.464 225.258C154.179 224.614 153.097 224.897 152.944 225.499C152.537 227.118 152.197 228.777 152.061 230.428C139.422 231.348 126.731 231.219 114.129 232.977C103.586 234.449 92.9091 237.334 83.1407 241.269C78.6259 243.087 74.2305 245.219 70.2181 247.784C68.9143 248.622 67.4225 249.569 66.1086 250.646C67.1913 243.257 66.1462 235.39 64.7414 228.395C65.7976 227.593 66.6795 226.627 67.7442 225.824C69.0931 224.802 70.2443 223.635 71.6351 222.658C70.856 222.673 63.476 222.749 63.55 223.051C62.1815 217.526 60.2295 211.872 57.0431 207.082L57.0818 207.051C84.8041 174.086 138.563 171.642 180.65 173.355C205.519 174.368 230.022 177.813 254.908 178.546C278.588 179.243 302.465 177.275 326.096 174.193C336.439 172.839 346.793 171.055 356.719 167.925C364.925 165.341 376.667 161.245 381.354 154.476C381.443 154.35 381.516 154.226 381.6 154.098C381.95 157.631 382.58 161.142 383.082 164.637C383.446 167.187 387.804 189.548 388.286 192.091C389.056 196.156 389.691 200.575 391.489 204.402C391.456 204.444 391.409 204.476 391.377 204.525ZM131.989 241.784C131.531 241.619 131.053 241.467 130.548 241.342C124.275 239.749 112.019 240.94 107.525 246.193C107.496 245.985 107.453 245.768 107.415 245.557C107.192 242.577 105.917 239.382 104.098 237.047C112.052 235.358 120.045 234.493 128.084 233.887C127.896 235.186 128.812 236.664 129.434 237.724C129.631 238.064 129.849 238.39 130.078 238.704C130.624 239.782 131.29 240.817 131.989 241.784ZM108.657 248.957C109 247.622 114.455 244.929 114.469 245.017C114.48 245.062 114.487 245.108 114.516 245.154C115.293 246.416 116.243 247.593 117.169 248.777C118.083 249.949 118.927 251.251 120.179 252.182L120.217 252.201C120.119 252.191 120.01 252.19 119.891 252.234C117.395 253.131 114.818 254.394 112.232 253.559C110.092 252.863 108.123 251.047 108.657 248.957ZM134.663 255.857C129.632 265 113.681 267.224 103.403 268.058C90.985 269.073 77.2219 268.104 68.3201 260.529C65.7562 258.345 64.3301 255.985 66.9999 253.131C69.3312 250.648 72.9603 248.612 76.0704 246.911C82.4068 243.444 89.4275 240.962 96.5025 238.932C98.2606 238.427 100.02 237.986 101.785 237.576C102.375 238.464 103.002 239.335 103.584 240.224C103.96 240.997 104.348 241.765 104.636 242.564C105.838 245.912 104.235 251.475 107.635 253.808C111.317 256.326 118.164 255.062 121.254 252.047C120.654 250.469 119.708 249.482 118.654 248.124C117.658 246.958 116.67 245.765 115.534 244.69C117.74 244.059 120.087 243.691 122.292 243.497C125.759 243.197 129.688 243.408 132.496 245.12C136.478 247.548 136.698 252.166 134.663 255.857ZM345.919 153.329C343.721 155.495 338.923 156.265 334.753 156.598C334.566 155.772 334.143 154.952 333.773 154.297C333.309 153.461 332.733 152.719 332.034 152.058C333.856 150.716 335.82 149.662 338.114 148.985C339.691 148.519 341.23 148.17 342.904 148.266C345.108 148.397 349.652 149.661 345.919 153.329ZM348.936 167.466C348.981 167.585 349.057 167.678 349.147 167.75C346.977 168.303 344.794 168.804 342.604 169.255C334.398 170.948 326.006 172.219 317.572 173.223C318.651 168.731 317.171 162.805 314.729 157.998C318.84 159.396 324.731 159.209 327.986 159.137C333.569 159.021 342.686 158.411 347.217 155.399C346.81 159.5 347.482 163.66 348.936 167.466ZM313 152.761C313.741 148.347 325.943 145.769 329.769 144.839C338.945 142.595 348.596 141.229 358.021 141.215C364.621 141.205 375.182 141.336 379.191 146.389C383.629 151.969 374.983 157.472 369.656 160.228C363.771 163.27 357.427 165.526 350.915 167.282C350.954 167.168 350.97 167.046 350.931 166.915C349.7 162.479 349.241 158.173 349.05 153.688C349.646 152.847 349.96 151.877 349.887 150.756C349.309 142.119 334.331 147.315 330.043 150.761L329.968 150.838C329.775 150.915 329.634 151.075 329.674 151.245C329.428 151.868 329.918 152.534 330.594 152.643C331.117 153.458 331.598 154.295 331.922 155.181C332.102 155.683 332.187 156.221 332.285 156.754C331.379 156.8 330.542 156.832 329.835 156.864C326.297 157.017 312.155 157.767 313 152.761ZM392.957 204.325C392.418 199.88 390.734 195.472 389.808 191.092C388.741 186.064 387.194 178.388 385.151 165.077C384.455 160.517 383.973 155.846 382.858 151.345C384.363 145.627 378.332 141.594 371.715 140.179C361.912 138.078 350.8 138.932 340.71 140.397C331.999 141.661 321.586 143.487 314.209 148.154C312.033 149.527 309.808 151.52 310.292 153.918C310.481 154.83 310.952 155.574 311.589 156.202C312.686 158.939 313.868 161.633 314.581 164.507C315.307 167.436 315.251 170.529 316.192 173.384C305.6 174.604 294.95 175.396 284.493 175.949C241.844 178.213 200.502 170.178 157.984 170.788C137.475 171.086 116.301 172.95 96.6115 179.138C87.1243 182.119 77.8977 186.167 69.9922 191.664C64.5523 195.444 53.591 203.398 55.6715 209.752C56.3961 211.957 57.1799 214.148 57.9417 216.339C58.9152 219.15 60.0263 221.975 60.6996 224.848C62.5887 224.783 64.4772 224.715 66.3657 224.646C64.6078 224.795 62.9151 225.741 62.0416 227.063C60.8701 228.846 61.6983 230.381 62.0573 232.124C62.5708 234.622 62.535 237.318 62.607 239.868C62.7531 244.898 62.5929 249.951 62.8296 254.974C61.1999 260.563 69.4535 265.038 74.2787 267.109C87.8685 272.939 107.147 271.678 121.747 267.154C128.244 265.141 134.935 261.787 137.747 256.169C139.499 252.671 139.825 248.774 137.96 245.38C137.036 243.708 134.896 242.493 133.653 240.958C132.729 239.813 131.977 238.594 131.25 237.367C131.194 237.261 131.135 237.162 131.088 237.058C130.62 236.061 130.525 234.745 129.957 233.753C130.283 234.321 141.178 233.036 142.454 232.956C146.406 232.709 150.078 232.214 153.909 232.805C153.895 231.783 154.467 228.998 154.081 228.128C154.863 229.869 155.867 231.55 156.57 233.314C159.88 233.179 163.418 233.906 166.734 234.135C170.765 234.417 174.802 234.654 178.842 234.858C186.949 235.262 195.076 235.522 203.217 235.672C219.468 235.976 235.759 235.841 252.054 235.565C252.372 235.562 252.694 235.554 253.012 235.547C272.571 235.208 292.174 234.372 311.718 232.471C328.565 230.827 345.631 228.531 361.903 223.837C373.628 220.458 386.984 215.298 392.797 205.411C392.927 205.325 393.012 205.2 393.041 205.026C393.205 204.733 393.127 204.493 392.957 204.325Z" fill="black"/>
<path d="M100.656 195.857L100.296 195.887C100.456 202.147 100.686 206.597 100.986 209.237C101.066 209.877 101.346 210.527 101.826 211.187C102.326 211.827 102.576 212.377 102.576 212.837C102.576 213.277 102.436 213.657 102.156 213.977C101.896 214.297 101.536 214.457 101.076 214.457C100.636 214.457 100.256 214.187 99.9363 213.647C99.6363 213.087 99.4563 212.487 99.3963 211.847C98.8763 205.147 98.2763 200.097 97.5963 196.697C95.7763 197.617 93.9963 199.207 92.2563 201.467C93.8363 203.967 94.6263 206.097 94.6263 207.857C94.6263 209.597 94.0363 211.107 92.8563 212.387C91.6763 213.647 90.5763 214.277 89.5563 214.277C88.5363 214.277 87.7463 213.947 87.1863 213.287C86.6463 212.627 86.3763 211.817 86.3763 210.857C86.3763 209.877 86.6963 208.647 87.3363 207.167C87.9963 205.667 88.8563 204.107 89.9163 202.487C88.9763 201.107 87.9063 199.887 86.7063 198.827C85.5063 197.747 84.3363 197.007 83.1963 196.607C82.7163 199.987 82.3963 202.537 82.2363 204.257C82.0963 205.957 81.9863 207.807 81.9063 209.807C81.8263 211.787 81.7763 212.947 81.7563 213.287C81.7363 213.607 81.6163 213.887 81.3963 214.127C81.1763 214.347 80.9163 214.457 80.6163 214.457C80.3163 214.457 80.0363 214.347 79.7763 214.127C79.5363 213.887 79.4163 213.557 79.4163 213.137C79.4163 212.717 79.5663 211.527 79.8663 209.567C80.5263 205.467 80.8963 201.027 80.9763 196.247C80.1563 196.067 79.7463 195.557 79.7463 194.717C79.7463 194.337 79.9263 194.027 80.2863 193.787C80.6463 193.527 81.0863 193.397 81.6063 193.397C83.1463 193.397 84.8063 194.057 86.5863 195.377C88.3863 196.677 90.0063 198.317 91.4463 200.297C92.9663 198.277 94.5363 196.627 96.1563 195.347C97.7763 194.047 99.2763 193.397 100.656 193.397C101.596 193.397 102.066 193.777 102.066 194.537C102.066 194.897 101.906 195.207 101.586 195.467C101.286 195.727 100.976 195.857 100.656 195.857ZM92.2563 208.907C92.2563 207.387 91.7263 205.667 90.6663 203.747C89.0463 206.347 88.2363 208.307 88.2363 209.627C88.2363 210.347 88.4163 210.977 88.7763 211.517C89.1563 212.057 89.6263 212.327 90.1863 212.327C90.7463 212.327 91.2263 211.977 91.6263 211.277C92.0463 210.557 92.2563 209.767 92.2563 208.907Z" fill="black"/>
<path d="M108.013 193.397L114.073 193.577L120.133 193.397C120.453 193.397 120.733 193.507 120.973 193.727C121.233 193.927 121.363 194.207 121.363 194.567C121.363 194.927 121.233 195.217 120.973 195.437C120.733 195.637 120.453 195.737 120.133 195.737L114.073 195.557C113.553 195.557 112.713 195.577 111.553 195.617C111.553 195.857 111.533 196.287 111.493 196.907C111.373 198.767 111.313 200.507 111.313 202.127C112.353 202.207 113.323 202.247 114.223 202.247C115.143 202.247 116.073 202.217 117.013 202.157C117.973 202.097 118.553 202.067 118.753 202.067C118.973 202.067 119.183 202.167 119.383 202.367C119.583 202.567 119.683 202.827 119.683 203.147C119.683 203.467 119.583 203.737 119.383 203.957C119.183 204.157 118.923 204.257 118.603 204.257L114.433 204.107C113.393 204.107 112.353 204.147 111.313 204.227C111.313 206.667 111.353 208.577 111.433 209.957C111.533 211.337 111.583 212.117 111.583 212.297L120.523 212.117C120.843 212.117 121.123 212.227 121.363 212.447C121.623 212.647 121.753 212.927 121.753 213.287C121.753 213.647 121.623 213.937 121.363 214.157C121.123 214.357 120.843 214.457 120.523 214.457L114.763 214.277C113.963 214.277 113.013 214.307 111.913 214.367C110.813 214.427 110.223 214.457 110.143 214.457C109.723 214.457 109.373 214.297 109.093 213.977C108.833 213.657 108.703 213.337 108.703 213.017C108.703 212.697 108.743 211.587 108.823 209.687C108.923 207.787 108.973 205.957 108.973 204.197C108.973 202.417 108.883 199.597 108.703 195.737L108.013 195.737C107.693 195.737 107.403 195.637 107.143 195.437C106.903 195.217 106.783 194.927 106.783 194.567C106.783 194.207 106.903 193.927 107.143 193.727C107.403 193.507 107.693 193.397 108.013 193.397Z" fill="black"/>
<path d="M124.622 193.397L130.682 193.577L136.742 193.397C137.062 193.397 137.342 193.507 137.582 193.727C137.842 193.927 137.972 194.207 137.972 194.567C137.972 194.927 137.842 195.217 137.582 195.437C137.342 195.637 137.062 195.737 136.742 195.737L132.092 195.587C131.932 199.027 131.852 201.767 131.852 203.807C131.852 205.827 131.892 207.787 131.972 209.687C132.072 211.587 132.122 212.697 132.122 213.017C132.122 213.337 131.982 213.657 131.702 213.977C131.442 214.297 131.102 214.457 130.682 214.457C130.262 214.457 129.912 214.297 129.632 213.977C129.372 213.657 129.242 213.337 129.242 213.017C129.242 212.697 129.282 211.587 129.362 209.687C129.462 207.787 129.512 205.937 129.512 204.137C129.512 202.317 129.422 199.467 129.242 195.587L124.622 195.737C124.302 195.737 124.012 195.637 123.752 195.437C123.512 195.217 123.392 194.927 123.392 194.567C123.392 194.207 123.512 193.927 123.752 193.727C124.012 193.507 124.302 193.397 124.622 193.397Z" fill="black"/>
<path d="M143.091 195.017C143.091 195.077 143.041 195.997 142.941 197.777C142.861 199.537 142.821 201.487 142.821 203.627C142.821 205.767 142.861 207.787 142.941 209.687C143.041 211.587 143.091 212.697 143.091 213.017C143.091 213.337 142.951 213.657 142.671 213.977C142.411 214.297 142.071 214.457 141.651 214.457C141.231 214.457 140.881 214.297 140.601 213.977C140.341 213.657 140.211 213.337 140.211 213.017C140.211 212.697 140.251 211.587 140.331 209.687C140.431 207.787 140.481 205.767 140.481 203.627C140.481 201.487 140.431 199.537 140.331 197.777C140.251 195.997 140.211 195.077 140.211 195.017C140.211 194.597 140.341 194.227 140.601 193.907C140.881 193.567 141.231 193.397 141.651 193.397C142.071 193.397 142.411 193.567 142.671 193.907C142.951 194.227 143.091 194.597 143.091 195.017Z" fill="black"/>
<path d="M147.915 193.397L153.975 193.577L160.035 193.397C160.355 193.397 160.635 193.507 160.875 193.727C161.135 193.927 161.265 194.207 161.265 194.567C161.265 194.927 161.135 195.217 160.875 195.437C160.635 195.637 160.355 195.737 160.035 195.737L153.975 195.557C153.455 195.557 152.615 195.577 151.455 195.617C151.455 195.857 151.435 196.287 151.395 196.907C151.275 198.767 151.215 200.507 151.215 202.127C152.255 202.207 153.225 202.247 154.125 202.247C155.045 202.247 155.975 202.217 156.915 202.157C157.875 202.097 158.455 202.067 158.655 202.067C158.875 202.067 159.085 202.167 159.285 202.367C159.485 202.567 159.585 202.827 159.585 203.147C159.585 203.467 159.485 203.737 159.285 203.957C159.085 204.157 158.825 204.257 158.505 204.257L154.335 204.107C153.295 204.107 152.255 204.147 151.215 204.227C151.215 206.667 151.255 208.577 151.335 209.957C151.435 211.337 151.485 212.117 151.485 212.297L160.425 212.117C160.745 212.117 161.025 212.227 161.265 212.447C161.525 212.647 161.655 212.927 161.655 213.287C161.655 213.647 161.525 213.937 161.265 214.157C161.025 214.357 160.745 214.457 160.425 214.457L154.665 214.277C153.865 214.277 152.915 214.307 151.815 214.367C150.715 214.427 150.125 214.457 150.045 214.457C149.625 214.457 149.275 214.297 148.995 213.977C148.735 213.657 148.605 213.337 148.605 213.017C148.605 212.697 148.645 211.587 148.725 209.687C148.825 207.787 148.875 205.957 148.875 204.197C148.875 202.417 148.785 199.597 148.605 195.737L147.915 195.737C147.595 195.737 147.305 195.637 147.045 195.437C146.805 195.217 146.685 194.927 146.685 194.567C146.685 194.207 146.805 193.927 147.045 193.727C147.305 193.507 147.595 193.397 147.915 193.397Z" fill="black"/>
<path d="M168.064 193.577L172.504 193.397C173.724 193.397 174.924 193.777 176.104 194.537C176.704 194.937 177.194 195.507 177.574 196.247C177.974 196.987 178.174 197.837 178.174 198.797C178.174 200.477 177.684 201.857 176.704 202.937C175.724 203.997 174.564 204.757 173.224 205.217C173.804 205.537 174.374 205.917 174.934 206.357C176.454 207.637 177.564 208.857 178.264 210.017C178.984 211.177 179.344 212.207 179.344 213.107C179.344 214.007 178.924 214.457 178.084 214.457C177.464 214.457 176.884 213.847 176.344 212.627C176.124 212.107 175.744 211.427 175.204 210.587C174.684 209.727 174.084 208.927 173.404 208.187C171.984 206.667 170.524 205.637 169.024 205.097C169.044 206.717 169.094 208.347 169.174 209.987C169.254 211.627 169.294 212.627 169.294 212.987C169.294 213.327 169.154 213.657 168.874 213.977C168.614 214.297 168.274 214.457 167.854 214.457C167.434 214.457 167.084 214.297 166.804 213.977C166.544 213.657 166.414 213.337 166.414 213.017C166.414 212.697 166.454 211.587 166.534 209.687C166.634 207.787 166.684 205.947 166.684 204.167C166.684 202.387 166.664 200.927 166.624 199.787C166.584 198.627 166.534 197.697 166.474 196.997C166.434 196.297 166.414 195.847 166.414 195.647L165.874 195.647C165.554 195.647 165.264 195.547 165.004 195.347C164.764 195.127 164.644 194.857 164.644 194.537C164.644 194.197 164.764 193.927 165.004 193.727C165.264 193.507 165.514 193.397 165.754 193.397C166.014 193.397 166.354 193.427 166.774 193.487C167.214 193.547 167.644 193.577 168.064 193.577ZM171.034 195.467L169.294 195.497C169.294 195.717 169.264 196.157 169.204 196.817C169.084 198.577 169.024 200.787 169.024 203.447C170.024 203.727 170.754 203.867 171.214 203.867C171.674 203.867 172.134 203.817 172.594 203.717C173.074 203.597 173.584 203.407 174.124 203.147C174.684 202.887 175.144 202.477 175.504 201.917C175.864 201.337 176.044 200.667 176.044 199.907C176.044 198.387 175.554 197.267 174.574 196.547C173.614 195.827 172.434 195.467 171.034 195.467Z" fill="black"/>
<path d="M190.597 196.487C190.337 196.167 189.937 195.877 189.397 195.617C188.877 195.337 188.237 195.197 187.477 195.197C186.717 195.197 186.017 195.477 185.377 196.037C184.757 196.597 184.447 197.297 184.447 198.137C184.447 198.957 184.807 199.637 185.527 200.177C186.267 200.717 187.147 201.137 188.167 201.437C189.207 201.737 190.237 202.077 191.257 202.457C192.297 202.817 193.177 203.417 193.897 204.257C194.637 205.077 195.007 206.137 195.007 207.437C195.007 209.317 194.217 210.957 192.637 212.357C191.077 213.757 189.107 214.457 186.727 214.457C185.147 214.457 183.867 214.067 182.887 213.287C181.927 212.487 181.447 211.657 181.447 210.797C181.447 210.337 181.577 209.967 181.837 209.687C182.097 209.387 182.417 209.237 182.797 209.237C183.197 209.237 183.537 209.357 183.817 209.597C184.097 209.817 184.357 210.097 184.597 210.437C184.857 210.777 185.147 211.117 185.467 211.457C186.187 212.257 187.197 212.657 188.497 212.657C189.817 212.657 190.877 212.277 191.677 211.517C192.477 210.757 192.877 209.747 192.877 208.487C192.877 207.547 192.507 206.787 191.767 206.207C191.027 205.607 190.127 205.147 189.067 204.827C188.027 204.487 186.977 204.137 185.917 203.777C184.877 203.417 183.987 202.877 183.247 202.157C182.507 201.417 182.137 200.507 182.137 199.427C182.137 198.327 182.387 197.377 182.887 196.577C183.407 195.757 184.047 195.127 184.807 194.687C186.327 193.827 187.757 193.397 189.097 193.397C190.457 193.397 191.647 193.687 192.667 194.267C193.687 194.847 194.197 195.547 194.197 196.367C194.197 196.787 194.077 197.127 193.837 197.387C193.597 197.647 193.257 197.777 192.817 197.777C192.377 197.777 191.957 197.647 191.557 197.387C191.177 197.107 190.857 196.807 190.597 196.487Z" fill="black"/>
<path d="M211.035 193.577L215.715 193.397C217.195 193.397 218.675 193.757 220.155 194.477C221.035 194.897 221.815 195.417 222.495 196.037C223.175 196.657 223.745 197.507 224.205 198.587C224.665 199.647 224.895 200.947 224.895 202.487C224.895 204.027 224.565 205.587 223.905 207.167C223.245 208.727 222.385 210.027 221.325 211.067C220.265 212.107 219.075 212.937 217.755 213.557C216.455 214.157 215.125 214.457 213.765 214.457C212.425 214.457 211.365 214.307 210.585 214.007C209.825 213.687 209.445 213.157 209.445 212.417C209.445 212.057 209.485 210.877 209.565 208.877C209.665 206.877 209.715 205.147 209.715 203.687C209.715 202.227 209.695 200.927 209.655 199.787C209.615 198.627 209.565 197.697 209.505 196.997C209.465 196.297 209.445 195.837 209.445 195.617C208.685 195.657 208.165 195.677 207.885 195.677C207.605 195.677 207.335 195.577 207.075 195.377C206.835 195.157 206.715 194.877 206.715 194.537C206.715 194.197 206.835 193.927 207.075 193.727C207.335 193.507 207.625 193.397 207.945 193.397L211.035 193.577ZM212.235 196.877C212.195 197.557 212.155 198.487 212.115 199.667C212.075 200.827 212.055 202.447 212.055 204.527C212.055 206.607 212.145 209.107 212.325 212.027C212.985 212.227 213.835 212.327 214.875 212.327C216.815 212.327 218.605 211.507 220.245 209.867C221.885 208.227 222.705 206.127 222.705 203.567C222.705 200.987 221.935 198.997 220.395 197.597C218.855 196.177 216.665 195.467 213.825 195.467C213.125 195.467 212.625 195.477 212.325 195.497C212.325 195.717 212.295 196.177 212.235 196.877Z" fill="black"/>
<path d="M228.687 193.397L234.747 193.577L240.807 193.397C241.127 193.397 241.407 193.507 241.647 193.727C241.907 193.927 242.037 194.207 242.037 194.567C242.037 194.927 241.907 195.217 241.647 195.437C241.407 195.637 241.127 195.737 240.807 195.737L234.747 195.557C234.227 195.557 233.387 195.577 232.227 195.617C232.227 195.857 232.207 196.287 232.167 196.907C232.047 198.767 231.987 200.507 231.987 202.127C233.027 202.207 233.997 202.247 234.897 202.247C235.817 202.247 236.747 202.217 237.687 202.157C238.647 202.097 239.227 202.067 239.427 202.067C239.647 202.067 239.857 202.167 240.057 202.367C240.257 202.567 240.357 202.827 240.357 203.147C240.357 203.467 240.257 203.737 240.057 203.957C239.857 204.157 239.597 204.257 239.277 204.257L235.107 204.107C234.067 204.107 233.027 204.147 231.987 204.227C231.987 206.667 232.027 208.577 232.107 209.957C232.207 211.337 232.257 212.117 232.257 212.297L241.197 212.117C241.517 212.117 241.797 212.227 242.037 212.447C242.297 212.647 242.427 212.927 242.427 213.287C242.427 213.647 242.297 213.937 242.037 214.157C241.797 214.357 241.517 214.457 241.197 214.457L235.437 214.277C234.637 214.277 233.687 214.307 232.587 214.367C231.487 214.427 230.897 214.457 230.817 214.457C230.397 214.457 230.047 214.297 229.767 213.977C229.507 213.657 229.377 213.337 229.377 213.017C229.377 212.697 229.417 211.587 229.497 209.687C229.597 207.787 229.647 205.957 229.647 204.197C229.647 202.417 229.557 199.597 229.377 195.737L228.687 195.737C228.367 195.737 228.077 195.637 227.817 195.437C227.577 195.217 227.457 194.927 227.457 194.567C227.457 194.207 227.577 193.927 227.817 193.727C228.077 193.507 228.367 193.397 228.687 193.397ZM233.277 191.417C233.277 191.297 233.357 191.157 233.517 190.997C235.577 188.937 237.077 187.907 238.017 187.907C238.317 187.907 238.577 188.017 238.797 188.237C239.037 188.437 239.157 188.687 239.157 188.987C239.157 189.647 238.787 190.047 238.047 190.187C236.487 190.467 235.137 190.947 233.997 191.627C233.837 191.727 233.717 191.777 233.637 191.777C233.397 191.777 233.277 191.657 233.277 191.417Z" fill="black"/>
<path d="M260.056 210.197L260.086 209.387C260.086 208.767 260.036 208.077 259.936 207.317C259.856 206.557 259.816 206.027 259.816 205.727C259.816 205.407 259.946 205.097 260.206 204.797C260.486 204.477 260.836 204.317 261.256 204.317C261.676 204.317 262.016 204.477 262.276 204.797C262.556 205.097 262.696 205.407 262.696 205.727C262.696 206.027 262.646 206.557 262.546 207.317C262.466 208.077 262.426 208.767 262.426 209.387C262.426 210.007 262.466 210.697 262.546 211.457C262.646 212.217 262.696 212.757 262.696 213.077C262.696 213.377 262.556 213.687 262.276 214.007C262.016 214.307 261.676 214.457 261.256 214.457C260.836 214.457 260.486 214.307 260.206 214.007C259.946 213.687 259.816 213.327 259.816 212.927L259.816 212.297C257.996 213.737 256.066 214.457 254.026 214.457C251.426 214.457 249.236 213.527 247.456 211.667C245.696 209.787 244.816 207.517 244.816 204.857C244.816 201.537 245.806 198.797 247.786 196.637C249.786 194.477 252.326 193.397 255.406 193.397C257.186 193.397 258.816 193.747 260.296 194.447C261.796 195.147 262.546 195.957 262.546 196.877C262.546 197.297 262.406 197.647 262.126 197.927C261.866 198.207 261.546 198.347 261.166 198.347C260.786 198.347 260.406 198.197 260.026 197.897C259.646 197.597 259.276 197.267 258.916 196.907C258.576 196.527 258.026 196.187 257.266 195.887C256.526 195.587 255.646 195.437 254.626 195.437C252.326 195.437 250.526 196.167 249.226 197.627C247.926 199.087 247.276 201.017 247.276 203.417C247.276 205.817 247.986 207.917 249.406 209.717C250.846 211.517 252.716 212.417 255.016 212.417C256.756 212.417 258.436 211.677 260.056 210.197Z" fill="black"/>
<path d="M269.578 193.577L274.018 193.397C275.238 193.397 276.438 193.777 277.618 194.537C278.218 194.937 278.708 195.507 279.088 196.247C279.488 196.987 279.688 197.837 279.688 198.797C279.688 200.477 279.198 201.857 278.218 202.937C277.238 203.997 276.078 204.757 274.738 205.217C275.318 205.537 275.888 205.917 276.448 206.357C277.968 207.637 279.078 208.857 279.778 210.017C280.498 211.177 280.858 212.207 280.858 213.107C280.858 214.007 280.438 214.457 279.598 214.457C278.978 214.457 278.398 213.847 277.858 212.627C277.638 212.107 277.258 211.427 276.718 210.587C276.198 209.727 275.598 208.927 274.918 208.187C273.498 206.667 272.038 205.637 270.538 205.097C270.558 206.717 270.608 208.347 270.688 209.987C270.768 211.627 270.808 212.627 270.808 212.987C270.808 213.327 270.668 213.657 270.388 213.977C270.128 214.297 269.788 214.457 269.368 214.457C268.948 214.457 268.598 214.297 268.318 213.977C268.058 213.657 267.928 213.337 267.928 213.017C267.928 212.697 267.968 211.587 268.048 209.687C268.148 207.787 268.198 205.947 268.198 204.167C268.198 202.387 268.178 200.927 268.138 199.787C268.098 198.627 268.048 197.697 267.988 196.997C267.948 196.297 267.928 195.847 267.928 195.647L267.388 195.647C267.068 195.647 266.778 195.547 266.518 195.347C266.278 195.127 266.158 194.857 266.158 194.537C266.158 194.197 266.278 193.927 266.518 193.727C266.778 193.507 267.028 193.397 267.268 193.397C267.528 193.397 267.868 193.427 268.288 193.487C268.728 193.547 269.158 193.577 269.578 193.577ZM272.548 195.467L270.808 195.497C270.808 195.717 270.778 196.157 270.718 196.817C270.598 198.577 270.538 200.787 270.538 203.447C271.538 203.727 272.268 203.867 272.728 203.867C273.188 203.867 273.648 203.817 274.108 203.717C274.588 203.597 275.098 203.407 275.638 203.147C276.198 202.887 276.658 202.477 277.018 201.917C277.378 201.337 277.558 200.667 277.558 199.907C277.558 198.387 277.068 197.267 276.088 196.547C275.128 195.827 273.948 195.467 272.548 195.467Z" fill="black"/>
<path d="M296.97 205.277L291.99 205.127L288.18 205.217C288 205.637 287.8 206.167 287.58 206.807C287.38 207.447 287.11 208.197 286.77 209.057C286.43 209.897 286.04 210.747 285.6 211.607C284.62 213.507 283.68 214.457 282.78 214.457C282 214.457 281.61 214.017 281.61 213.137C281.61 212.577 282.16 211.757 283.26 210.677C283.72 210.257 284.24 209.567 284.82 208.607C285.42 207.647 285.94 206.537 286.38 205.277L285.3 205.277C284.98 205.277 284.7 205.187 284.46 205.007C284.24 204.807 284.13 204.537 284.13 204.197C284.13 203.857 284.25 203.577 284.49 203.357C284.73 203.137 284.99 203.027 285.27 203.027L287.37 203.057C289.07 199.277 290.68 196.667 292.2 195.227C291.42 195.227 290.24 195.307 288.66 195.467C287.08 195.607 286.12 195.677 285.78 195.677C285.46 195.677 285.18 195.587 284.94 195.407C284.7 195.207 284.58 194.937 284.58 194.597C284.58 194.237 284.7 193.947 284.94 193.727C285.2 193.507 285.48 193.397 285.78 193.397L292.32 193.577L299.43 193.397C299.79 193.397 300.08 193.507 300.3 193.727C300.52 193.947 300.63 194.227 300.63 194.567C300.63 195.307 300.22 195.677 299.4 195.677L298.68 195.677C298.68 198.877 298.81 201.767 299.07 204.347C299.33 206.927 299.59 208.917 299.85 210.317C300.11 211.717 300.24 212.607 300.24 212.987C300.24 213.347 300.12 213.687 299.88 214.007C299.66 214.307 299.35 214.457 298.95 214.457C298.57 214.457 298.24 214.317 297.96 214.037C297.68 213.757 297.53 213.357 297.51 212.837L296.97 205.277ZM296.43 195.317L295.68 195.287C293.42 195.507 291.22 198.107 289.08 203.087C290.8 203.127 291.86 203.147 292.26 203.147C292.66 203.147 294.18 203.107 296.82 203.027C296.56 198.607 296.43 196.037 296.43 195.317Z" fill="black"/>
<path d="M308.242 193.577L312.922 193.397C314.402 193.397 315.882 193.757 317.362 194.477C318.242 194.897 319.022 195.417 319.702 196.037C320.382 196.657 320.952 197.507 321.412 198.587C321.872 199.647 322.102 200.947 322.102 202.487C322.102 204.027 321.772 205.587 321.112 207.167C320.452 208.727 319.592 210.027 318.532 211.067C317.472 212.107 316.282 212.937 314.962 213.557C313.662 214.157 312.332 214.457 310.972 214.457C309.632 214.457 308.572 214.307 307.792 214.007C307.032 213.687 306.652 213.157 306.652 212.417C306.652 212.057 306.692 210.877 306.772 208.877C306.872 206.877 306.922 205.147 306.922 203.687C306.922 202.227 306.902 200.927 306.862 199.787C306.822 198.627 306.772 197.697 306.712 196.997C306.672 196.297 306.652 195.837 306.652 195.617C305.892 195.657 305.372 195.677 305.092 195.677C304.812 195.677 304.542 195.577 304.282 195.377C304.042 195.157 303.922 194.877 303.922 194.537C303.922 194.197 304.042 193.927 304.282 193.727C304.542 193.507 304.832 193.397 305.152 193.397L308.242 193.577ZM309.442 196.877C309.402 197.557 309.362 198.487 309.322 199.667C309.282 200.827 309.262 202.447 309.262 204.527C309.262 206.607 309.352 209.107 309.532 212.027C310.192 212.227 311.042 212.327 312.082 212.327C314.022 212.327 315.812 211.507 317.452 209.867C319.092 208.227 319.912 206.127 319.912 203.567C319.912 200.987 319.142 198.997 317.602 197.597C316.062 196.177 313.872 195.467 311.032 195.467C310.332 195.467 309.832 195.477 309.532 195.497C309.532 195.717 309.502 196.177 309.442 196.877Z" fill="black"/>
<path d="M338.074 205.277L333.094 205.127L329.284 205.217C329.104 205.637 328.904 206.167 328.684 206.807C328.484 207.447 328.214 208.197 327.874 209.057C327.534 209.897 327.144 210.747 326.704 211.607C325.724 213.507 324.784 214.457 323.884 214.457C323.104 214.457 322.714 214.017 322.714 213.137C322.714 212.577 323.264 211.757 324.364 210.677C324.824 210.257 325.344 209.567 325.924 208.607C326.524 207.647 327.044 206.537 327.484 205.277L326.404 205.277C326.084 205.277 325.804 205.187 325.564 205.007C325.344 204.807 325.234 204.537 325.234 204.197C325.234 203.857 325.354 203.577 325.594 203.357C325.834 203.137 326.094 203.027 326.374 203.027L328.474 203.057C330.174 199.277 331.784 196.667 333.304 195.227C332.524 195.227 331.344 195.307 329.764 195.467C328.184 195.607 327.224 195.677 326.884 195.677C326.564 195.677 326.284 195.587 326.044 195.407C325.804 195.207 325.684 194.937 325.684 194.597C325.684 194.237 325.804 193.947 326.044 193.727C326.304 193.507 326.584 193.397 326.884 193.397L333.424 193.577L340.534 193.397C340.894 193.397 341.184 193.507 341.404 193.727C341.624 193.947 341.734 194.227 341.734 194.567C341.734 195.307 341.324 195.677 340.504 195.677L339.784 195.677C339.784 198.877 339.914 201.767 340.174 204.347C340.434 206.927 340.694 208.917 340.954 210.317C341.214 211.717 341.344 212.607 341.344 212.987C341.344 213.347 341.224 213.687 340.984 214.007C340.764 214.307 340.454 214.457 340.054 214.457C339.674 214.457 339.344 214.317 339.064 214.037C338.784 213.757 338.634 213.357 338.614 212.837L338.074 205.277ZM337.534 195.317L336.784 195.287C334.524 195.507 332.324 198.107 330.184 203.087C331.904 203.127 332.964 203.147 333.364 203.147C333.764 203.147 335.284 203.107 337.924 203.027C337.664 198.607 337.534 196.037 337.534 195.317Z" fill="black"/>
<path d="M344.875 194.807C344.875 193.867 345.505 193.397 346.765 193.397C348.365 193.397 350.095 194.127 351.955 195.587C353.835 197.027 355.475 199.227 356.875 202.187C358.755 206.207 359.995 208.757 360.595 209.837C360.555 203.817 360.385 199.987 360.085 198.347C359.785 196.687 359.635 195.607 359.635 195.107C359.635 194.607 359.775 194.197 360.055 193.877C360.355 193.557 360.705 193.397 361.105 193.397C361.525 193.397 361.865 193.557 362.125 193.877C362.385 194.197 362.515 194.677 362.515 195.317C362.515 195.937 362.465 197.087 362.365 198.767C362.165 202.687 362.065 206.577 362.065 210.437C362.065 210.917 362.205 211.427 362.485 211.967C362.765 212.507 362.905 212.927 362.905 213.227C362.905 213.507 362.775 213.787 362.515 214.067C362.255 214.327 361.915 214.457 361.495 214.457C360.815 214.457 360.225 214.037 359.725 213.197C359.225 212.337 358.495 210.757 357.535 208.457C356.575 206.157 355.875 204.497 355.435 203.477C353.615 199.257 351.245 196.837 348.325 196.217C348.265 197.537 348.235 199.637 348.235 202.517C348.235 205.397 348.325 207.787 348.505 209.687C348.705 211.587 348.805 212.697 348.805 213.017C348.805 213.337 348.665 213.657 348.385 213.977C348.125 214.297 347.785 214.457 347.365 214.457C346.945 214.457 346.595 214.297 346.315 213.977C346.055 213.657 345.925 213.337 345.925 213.017C345.925 212.697 346.015 211.587 346.195 209.687C346.395 207.787 346.495 205.917 346.495 204.077C346.495 202.237 346.455 199.557 346.375 196.037C345.975 196.017 345.625 195.907 345.325 195.707C345.025 195.487 344.875 195.187 344.875 194.807Z" fill="black"/>
<path d="M366.849 193.397L372.909 193.577L378.969 193.397C379.289 193.397 379.569 193.507 379.809 193.727C380.069 193.927 380.199 194.207 380.199 194.567C380.199 194.927 380.069 195.217 379.809 195.437C379.569 195.637 379.289 195.737 378.969 195.737L374.319 195.587C374.159 199.027 374.079 201.767 374.079 203.807C374.079 205.827 374.119 207.787 374.199 209.687C374.299 211.587 374.349 212.697 374.349 213.017C374.349 213.337 374.209 213.657 373.929 213.977C373.669 214.297 373.329 214.457 372.909 214.457C372.489 214.457 372.139 214.297 371.859 213.977C371.599 213.657 371.469 213.337 371.469 213.017C371.469 212.697 371.509 211.587 371.589 209.687C371.689 207.787 371.739 205.937 371.739 204.137C371.739 202.317 371.649 199.467 371.469 195.587L366.849 195.737C366.529 195.737 366.239 195.637 365.979 195.437C365.739 195.217 365.619 194.927 365.619 194.567C365.619 194.207 365.739 193.927 365.979 193.727C366.239 193.507 366.529 193.397 366.849 193.397Z" fill="black"/>
</svg>
