<svg width="228" height="59" viewBox="0 0 228 59" fill="none" xmlns="http://www.w3.org/2000/svg">
<mask id="mask0_22_2561" style="mask-type:luminance" maskUnits="userSpaceOnUse" x="0" y="0" width="228" height="59">
<path d="M0.201904 0H227.202V58.2605H0.201904V0Z" fill="white"/>
</mask>
<g mask="url(#mask0_22_2561)">
<path d="M113.535 14.1738C116.359 14.1738 119.186 13.7006 121.911 12.763C123.374 12.2677 124.871 13.391 125.253 15.2838C125.642 17.181 124.772 19.1224 123.313 19.6266C120.127 20.7233 116.84 21.2805 113.535 21.2805C110.234 21.2805 106.942 20.7233 103.757 19.6266C102.297 19.1224 101.428 17.181 101.816 15.2838C102.202 13.391 103.696 12.2677 105.159 12.763C107.884 13.7006 110.711 14.1738 113.535 14.1738ZM113.535 26.0479C118.746 26.0479 123.961 24.4381 128.82 21.2142C128.875 21.1788 128.94 21.1921 128.977 21.254C129.018 21.3159 129.018 21.4044 128.981 21.4663C126.723 25.2341 125.83 30.4216 125.83 34.6052C125.83 37.7583 126.655 41.9729 128.967 45.8026C129.005 45.8646 129.005 45.9574 128.964 46.0193C128.926 46.0768 128.858 46.0945 128.803 46.0591C123.961 42.791 118.749 41.1547 113.535 41.1547C108.32 41.1547 103.109 42.791 98.2662 46.0591C98.2116 46.0945 98.1468 46.0768 98.1059 46.0193C98.065 45.9574 98.065 45.8646 98.1025 45.8026C100.415 41.9729 101.244 37.7583 101.244 34.6052C101.244 30.4216 100.347 25.2341 98.0889 21.4663C98.0514 21.4044 98.0514 21.3159 98.0923 21.254C98.1298 21.1921 98.198 21.1788 98.2492 21.2142C103.109 24.4381 108.324 26.0479 113.535 26.0479ZM113.535 45.1216C115.25 45.1216 116.962 45.2852 118.647 45.6081C120.035 45.8734 120.997 47.5539 120.792 49.3538C120.605 50.9945 119.52 52.1753 118.279 52.1753C118.156 52.1753 118.03 52.162 117.907 52.1399C116.468 51.8657 115.001 51.7242 113.535 51.7242C112.072 51.7242 110.602 51.8657 109.163 52.1399C109.04 52.162 108.914 52.1753 108.791 52.1753C107.549 52.1753 106.468 50.9945 106.277 49.3538C106.076 47.5539 107.034 45.8734 108.423 45.6081C110.107 45.2852 111.823 45.1216 113.535 45.1216ZM86.2478 29.1303C86.2478 31.9341 84.4948 34.2116 82.336 34.2116C80.1737 34.2116 78.4242 31.9341 78.4242 29.1303C78.4242 26.322 80.1737 24.0489 82.336 24.0489C84.4948 24.0489 86.2478 26.322 86.2478 29.1303ZM144.734 24.0489C146.896 24.0489 148.645 26.322 148.645 29.1303C148.645 31.9341 146.896 34.2116 144.734 34.2116C142.575 34.2116 140.822 31.9341 140.822 29.1303C140.822 26.322 142.575 24.0489 144.734 24.0489ZM46.8058 18.9278C47.0582 21.3292 47.7539 23.5183 48.5929 25.5791C49.466 27.6222 50.5164 29.5283 51.7305 31.2397C54.152 34.6936 57.2145 37.2586 60.6898 38.9833C56.969 38.4836 53.4051 35.9496 50.8336 32.31C49.5581 30.4747 48.4838 28.3917 47.7369 26.1186C46.9934 23.8588 46.5773 21.3424 46.8058 18.9278ZM179.333 26.1186C178.586 28.3917 177.512 30.4747 176.236 32.31C173.665 35.9496 170.101 38.4836 166.38 38.9833C169.859 37.2586 172.918 34.6936 175.339 31.2397C176.553 29.5283 177.604 27.6222 178.477 25.5791C179.316 23.5183 180.011 21.3292 180.264 18.9278C180.492 21.3424 180.076 23.8588 179.333 26.1186ZM92.7958 24.1374C91.1179 20.94 88.1747 18.7996 85.1428 18.3839C82.1006 17.9372 78.8061 19.2639 76.62 22.4967C77.4249 20.6216 78.7413 19.1268 80.2419 18.0876C81.763 17.0748 83.5058 16.6459 85.2314 16.7166C88.6999 16.867 92.1069 19.1268 94.1327 22.961C96.121 26.7731 96.5166 31.7616 95.3741 35.9761C94.293 40.2614 91.7625 43.5915 88.9011 45.6125C91.4248 42.9148 93.4131 39.43 94.1805 35.5073C94.9683 31.6289 94.5045 27.3657 92.7958 24.1374ZM132.889 35.5073C133.657 39.43 135.645 42.9148 138.169 45.6125C135.307 43.5915 132.777 40.2614 131.696 35.9761C130.553 31.7616 130.949 26.7731 132.937 22.961C134.963 19.1268 138.37 16.867 141.838 16.7166C143.564 16.6459 145.307 17.0748 146.828 18.0876C148.332 19.1268 149.645 20.6216 150.45 22.4967C148.264 19.2639 144.969 17.9372 141.927 18.3839C138.895 18.7996 135.952 20.94 134.274 24.1374C132.565 27.3657 132.101 31.6289 132.889 35.5073ZM71.3066 42.3665C73.6632 43.6003 76.2176 44.2283 78.7652 44.1221C81.2958 43.985 83.8809 43.0961 85.9715 40.8673C84.3447 43.6887 81.613 45.3427 78.8744 45.7584C76.1119 46.2228 73.2914 45.6302 70.7063 44.3211C68.1382 42.9767 65.7646 40.8761 64.0184 38.059C62.2484 35.2774 61.215 31.7395 61.157 28.2502C62.5383 35.0563 66.5728 39.9695 71.3066 42.3665ZM165.913 28.2502C165.855 31.7395 164.821 35.2774 163.051 38.059C161.305 40.8761 158.935 42.9767 156.363 44.3211C153.782 45.6302 150.958 46.2228 148.195 45.7584C145.457 45.3427 142.725 43.6887 141.098 40.8673C143.189 43.0961 145.774 43.985 148.304 44.1221C150.852 44.2283 153.406 43.6003 155.767 42.3665C160.497 39.9695 164.531 35.0563 165.913 28.2502ZM49.8957 42.9679C53.7086 45.5329 57.7568 47.5053 61.9414 48.748C66.109 50.0614 70.413 50.6142 74.6931 50.34C78.9698 50.0481 83.2329 48.8718 87.2163 46.6562C83.3591 49.2211 79.079 50.7115 74.7375 51.1449C70.3891 51.6004 65.9999 51.0211 61.7539 49.7695C57.5215 48.434 53.4051 46.4306 49.599 43.6799C45.8168 40.9248 42.2358 37.4709 39.6541 32.9291C41.0592 35.0651 42.6485 36.9711 44.4185 38.5676C46.1408 40.2393 47.9995 41.6544 49.8957 42.9679ZM182.651 38.5676C184.421 36.9711 186.01 35.0651 187.416 32.9291C184.837 37.4709 181.253 40.9248 177.471 43.6799C173.665 46.4306 169.548 48.434 165.316 49.7695C161.07 51.0211 156.681 51.6004 152.336 51.1449C147.991 50.7115 143.711 49.2211 139.853 46.6562C143.84 48.8718 148.1 50.0481 152.377 50.34C156.657 50.6142 160.961 50.0614 165.128 48.748C169.313 47.5053 173.361 45.5329 177.177 42.9679C179.07 41.6544 180.929 40.2393 182.651 38.5676ZM30.7426 5.87294C33.4403 8.69443 35.7935 12.0599 37.8466 15.6818C39.886 19.3214 41.697 23.1468 43.2794 27.1402C41.1649 23.5846 39.238 19.8831 37.1952 16.3053C36.1857 14.501 35.1318 12.7542 34.0644 11.0118C32.9867 9.27818 31.8578 7.59325 30.7426 5.87294ZM193.005 11.0118C191.938 12.7542 190.884 14.501 189.874 16.3053C187.832 19.8831 185.905 23.5846 183.79 27.1402C185.373 23.1468 187.184 19.3214 189.223 15.6818C191.276 12.0599 193.629 8.69443 196.327 5.87294C195.212 7.59325 194.083 9.27818 193.005 11.0118ZM37.1576 35.3437C34.5759 31.4255 32.2602 27.2905 29.3136 23.987C26.4181 20.5951 22.8235 18.3352 19.0345 16.9112C22.9088 17.862 26.6671 19.9671 29.8252 23.1822C32.9662 26.437 35.4422 30.541 38.0989 34.2558C40.7523 37.9794 43.5864 41.451 46.8365 44.2062C48.4497 45.5948 50.131 46.8507 51.8772 47.9563C53.637 49.0796 55.3729 50.0791 57.2248 50.7646C64.6289 53.6081 72.6366 54.2804 80.2897 52.7325C84.0958 51.8967 87.878 50.3046 90.9712 47.2841C94.0748 44.3388 96.4075 39.828 96.902 34.7113C96.7724 39.8899 94.5318 44.7501 91.4589 48.0846C88.3213 51.4279 84.4163 53.2499 80.5148 54.3113C76.5859 55.3815 72.5582 55.554 68.5782 55.2931C64.5914 54.9968 60.6216 54.245 56.7541 52.7767C49.1011 49.4378 42.2699 43.3084 37.1576 35.3437ZM170.316 52.7767C166.448 54.245 162.478 54.9968 158.491 55.2931C154.511 55.554 150.484 55.3815 146.558 54.3113C142.653 53.2499 138.752 51.4279 135.611 48.0846C132.538 44.7501 130.297 39.8899 130.168 34.7113C130.662 39.828 132.995 44.3388 136.098 47.2841C139.192 50.3046 142.974 51.8967 146.783 52.7325C154.433 54.2804 162.441 53.6081 169.845 50.7646C171.697 50.0791 173.433 49.0796 175.192 47.9563C176.939 46.8507 178.623 45.5948 180.237 44.2062C183.483 41.451 186.317 37.9794 188.971 34.2558C191.627 30.541 194.1 26.437 197.244 23.1822C200.403 19.9671 204.161 17.862 208.035 16.9112C204.25 18.3352 200.652 20.5951 197.759 23.987C194.809 27.2905 192.494 31.4255 189.912 35.3437C184.8 43.3084 177.969 49.4378 170.316 52.7767ZM8.54733 28.8605C7.46622 28.8605 6.58973 27.7195 6.58973 26.3176C6.58973 24.9157 7.46622 23.7748 8.54733 23.7748C9.62504 23.7748 10.5015 24.9157 10.5015 26.3176C10.5015 27.7195 9.62504 28.8605 8.54733 28.8605ZM216.568 26.3176C216.568 24.9157 217.445 23.7748 218.522 23.7748C219.607 23.7748 220.48 24.9157 220.48 26.3176C220.48 27.7195 219.607 28.8605 218.522 28.8605C217.445 28.8605 216.568 27.7195 216.568 26.3176ZM86.2716 33.3492C86.2478 33.8047 86.1966 34.2514 86.1079 34.7025C85.4361 38.1696 83.1374 40.456 79.9555 40.8142C73.0698 41.5925 68.834 37.4311 66.4876 33.8003C63.7183 29.5017 62.4257 24.2612 62.2723 19.9229C62.7429 20.3518 63.3159 20.6039 63.9331 20.6039C65.5361 20.6039 66.8423 18.9101 66.8423 16.8228C66.8423 14.7398 65.5361 13.0416 63.9331 13.0416C60.8842 13.0416 59.0562 19.2772 59.1039 25.8975C59.1244 28.9976 59.6121 33.1546 61.5697 36.9446C53.3846 31.0496 49.1147 20.259 49.159 11.4186C49.6672 11.9714 50.3118 12.3208 51.028 12.3208C52.6309 12.3208 53.9371 10.6226 53.9371 8.53964C53.9371 6.45228 52.6309 4.7585 51.028 4.7585C46.5466 4.7585 43.8251 18.1981 46.5091 28.9799C45.3734 26.9456 44.1764 24.531 42.9452 22.0323C32.1988 0.252096 27.5299 0.415723 26.5136 0.415723C24.9073 0.415723 23.6011 2.11392 23.6011 4.20128C23.6011 6.28423 24.9073 7.98242 26.5136 7.98242C27.7005 7.98242 28.7236 7.0493 29.1738 5.72258C31.0904 10.3926 31.9635 15.2794 32.3182 18.0257C15.7945 -2.05639 2.79048 5.83756 0.665767 8.83594C0.624841 8.88901 0.618019 8.97303 0.648714 9.03495C0.675998 9.10128 0.733976 9.13224 0.791953 9.11455C8.63259 6.66455 14.1541 9.76022 16.5483 12.0554C10.4299 10.6049 6.87962 13.1168 4.93566 15.6553C-0.35396 22.563 -0.937149 36.8562 7.34685 36.8562C10.655 36.8562 13.3458 33.3625 13.3458 29.0683C13.3458 24.7698 10.655 21.2761 7.34685 21.2761C6.67158 21.2761 6.03383 21.453 5.43017 21.7228C6.53516 20.0423 7.93686 18.8482 9.65914 18.2335C16.2822 15.8852 26.1078 22.2225 32.0351 32.6637C38.7537 44.4494 52.8662 58.2074 70.5256 58.2074C84.0855 58.2074 91.0292 52.6883 94.4704 48.0536C98.5663 42.5743 99.0097 36.8783 99.0097 34.6848C99.0097 28.7278 97.3011 22.9433 94.4465 19.2153L94.4294 19.1887C91.9159 15.9029 88.6112 14.2401 84.6005 14.2401C79.4507 14.2401 76.4734 16.9068 74.8841 19.1445C72.6366 22.3065 72.0023 26.1053 72.1592 28.6084C72.5684 35.0076 75.498 38.8241 80.0066 38.8241C82.8953 38.8241 85.3542 36.6748 86.2716 33.3492ZM147.063 38.8241C151.572 38.8241 154.501 35.0076 154.91 28.6084C155.067 26.1053 154.433 22.3065 152.186 19.1445C150.596 16.9068 147.619 14.2401 142.469 14.2401C138.462 14.2401 135.154 15.9029 132.64 19.1887L132.623 19.2153C129.769 22.9433 128.06 28.7278 128.06 34.6848C128.06 36.8783 128.503 42.5743 132.599 48.0536C136.04 52.6883 142.984 58.2074 156.544 58.2074C174.203 58.2074 188.319 44.4494 195.035 32.6637C200.962 22.2225 210.787 15.8852 217.411 18.2335C219.133 18.8482 220.534 20.0423 221.639 21.7228C221.036 21.453 220.398 21.2761 219.723 21.2761C216.415 21.2761 213.727 24.7698 213.727 29.0683C213.727 33.3625 216.415 36.8562 219.723 36.8562C228.007 36.8562 227.427 22.563 222.134 15.6553C220.19 13.1168 216.64 10.6049 210.521 12.0554C212.916 9.76022 218.437 6.66455 226.278 9.11455C226.336 9.13224 226.394 9.10128 226.421 9.03495C226.452 8.97303 226.445 8.88901 226.404 8.83594C224.279 5.83756 211.279 -2.05639 194.751 18.0257C195.106 15.2794 195.979 10.3926 197.896 5.72258C198.346 7.0493 199.369 7.98242 200.556 7.98242C202.162 7.98242 203.469 6.28423 203.469 4.20128C203.469 2.11392 202.162 0.415723 200.556 0.415723C199.54 0.415723 194.871 0.252096 184.124 22.0323C182.893 24.531 181.696 26.9456 180.561 28.9799C183.245 18.1981 180.523 4.7585 176.042 4.7585C174.439 4.7585 173.133 6.45228 173.133 8.53964C173.133 10.6226 174.439 12.3208 176.042 12.3208C176.758 12.3208 177.402 11.9714 177.911 11.4186C177.955 20.259 173.688 31.0496 165.5 36.9446C167.458 33.1546 167.945 28.9976 167.969 25.8975C168.013 19.2772 166.185 13.0416 163.137 13.0416C161.534 13.0416 160.227 14.7398 160.227 16.8228C160.227 18.9101 161.534 20.6039 163.137 20.6039C163.754 20.6039 164.327 20.3518 164.797 19.9229C164.647 24.2612 163.351 29.5017 160.582 33.8003C158.236 37.4311 154 41.5925 147.118 40.8142C143.932 40.456 141.634 38.1696 140.962 34.7025C140.876 34.2514 140.818 33.8003 140.795 33.3448C141.715 36.6704 144.174 38.8241 147.063 38.8241Z" fill="#E59C46"/>
</g>
</svg>
